<svg width="31" height="31" viewBox="0 0 31 31" fill="none" xmlns="http://www.w3.org/2000/svg">
<path d="M22.493 19.9692L22.2297 21.8619C22.2061 22.0378 22.1393 22.2057 22.0336 22.3551C21.9278 22.5045 21.7855 22.6321 21.6157 22.7295C21.4458 22.827 21.2523 22.8922 21.0474 22.9211C20.8425 22.95 20.6307 22.9418 20.4257 22.8972C18.1564 22.3665 16.0407 21.396 14.2485 20.0636C12.5784 18.8439 11.2279 17.3386 10.2931 15.6547C9.25957 13.8332 8.73459 11.85 8.76066 9.86577C8.76626 9.68871 8.81527 9.51629 8.90457 9.35949C8.99386 9.20268 9.12149 9.06493 9.27932 8.95501C9.43715 8.84508 9.62173 8.76539 9.82131 8.721C10.0209 8.67661 10.2311 8.6685 10.4385 8.69719L12.6795 9.00892C13.0425 9.05634 13.3788 9.21365 13.6259 9.45154C13.873 9.68943 14.014 9.99166 14.0226 10.3019C14.0329 10.9208 14.1256 11.5399 14.2989 12.1475C14.368 12.3873 14.3556 12.6357 14.2632 12.8634C14.1708 13.091 14.0023 13.2883 13.7775 13.4319L12.7174 14.1012C13.5611 15.8286 14.9276 17.3518 16.6729 18.5101L17.733 17.8408C17.9597 17.6994 18.2324 17.6182 18.5187 17.6067C18.8051 17.5953 19.0931 17.6541 19.3487 17.7761C19.9967 18.084 20.6803 18.3301 21.3863 18.5098C21.7432 18.6035 22.0531 18.8039 22.2571 19.073C22.4612 19.3421 22.5451 19.6611 22.493 19.9692Z" fill="#861617"/>
<circle cx="15.5" cy="15.5" r="14.75" stroke="#861617" stroke-width="1.5"/>
</svg>
