<svg width="13" height="15" viewBox="0 0 13 15" fill="none" xmlns="http://www.w3.org/2000/svg">
<path d="M6.50002 0.733154C2.91016 0.733154 0 3.79576 0 7.57359C0 11.3514 2.91016 14.414 6.50002 14.414C10.0899 14.414 13 11.3514 13 7.57359C13 3.79576 10.0899 0.733154 6.50002 0.733154ZM6.50002 2.87079C6.7244 2.87079 6.90627 3.06219 6.90627 3.29832V7.14606H10.1563C10.3807 7.14606 10.5625 7.33747 10.5625 7.57359C10.5625 7.80971 10.3807 8.00112 10.1563 8.00112H6.50002C6.27565 8.00112 6.09377 7.80971 6.09377 7.57359V3.29832C6.09377 3.06219 6.27565 2.87079 6.50002 2.87079Z" fill="white"/>
</svg>
