<svg width="24" height="24" viewBox="0 0 24 24" fill="none" xmlns="http://www.w3.org/2000/svg">
<path fill-rule="evenodd" clip-rule="evenodd" d="M7.05273 0.0725493C8.33236 0.0136402 8.74036 0.000549316 12 0.000549316C15.2596 0.000549316 15.6676 0.0147311 16.9462 0.0725493C18.2247 0.130367 19.0975 0.334368 19.8611 0.630004C20.6607 0.932186 21.3862 1.40455 21.9862 2.01546C22.5971 2.61437 23.0684 3.33873 23.3695 4.13946C23.6662 4.9031 23.8691 5.77582 23.928 7.05219C23.9869 8.334 24 8.742 24 12.0005C24 15.2602 23.9858 15.6682 23.928 16.9478C23.8702 18.2242 23.6662 19.0969 23.3695 19.8605C23.0684 20.6614 22.5963 21.3869 21.9862 21.9867C21.3862 22.5976 20.6607 23.0689 19.8611 23.37C19.0975 23.6667 18.2247 23.8696 16.9484 23.9286C15.6676 23.9875 15.2596 24.0005 12 24.0005C8.74036 24.0005 8.33236 23.9864 7.05273 23.9286C5.77636 23.8707 4.90364 23.6667 4.14 23.37C3.33919 23.0689 2.61362 22.5968 2.01382 21.9867C1.40332 21.3875 0.930889 20.6622 0.629455 19.8616C0.333818 19.098 0.130909 18.2253 0.072 16.9489C0.0130909 15.6671 0 15.2591 0 12.0005C0 8.74091 0.0141818 8.33291 0.072 7.05437C0.129818 5.77582 0.333818 4.9031 0.629455 4.13946C0.931334 3.33882 1.40413 2.61362 2.01491 2.01437C2.61386 1.40401 3.3387 0.931579 4.13891 0.630004C4.90255 0.334368 5.77527 0.131458 7.05164 0.0725493H7.05273ZM16.8491 2.23255C15.5836 2.17473 15.204 2.16273 12 2.16273C8.796 2.16273 8.41636 2.17473 7.15091 2.23255C5.98036 2.286 5.34545 2.48128 4.92218 2.646C4.36255 2.86419 3.96218 3.12273 3.54218 3.54273C3.14405 3.93006 2.83765 4.40158 2.64545 4.92273C2.48073 5.346 2.28545 5.98091 2.232 7.15146C2.17418 8.41691 2.16218 8.79655 2.16218 12.0005C2.16218 15.2045 2.17418 15.5842 2.232 16.8496C2.28545 18.0202 2.48073 18.6551 2.64545 19.0784C2.83745 19.5987 3.144 20.0711 3.54218 20.4584C3.92945 20.8566 4.40182 21.1631 4.92218 21.3551C5.34545 21.5198 5.98036 21.7151 7.15091 21.7686C8.41636 21.8264 8.79491 21.8384 12 21.8384C15.2051 21.8384 15.5836 21.8264 16.8491 21.7686C18.0196 21.7151 18.6545 21.5198 19.0778 21.3551C19.6375 21.1369 20.0378 20.8784 20.4578 20.4584C20.856 20.0711 21.1625 19.5987 21.3545 19.0784C21.5193 18.6551 21.7145 18.0202 21.768 16.8496C21.8258 15.5842 21.8378 15.2045 21.8378 12.0005C21.8378 8.79655 21.8258 8.41691 21.768 7.15146C21.7145 5.98091 21.5193 5.346 21.3545 4.92273C21.1364 4.36309 20.8778 3.96273 20.4578 3.54273C20.0705 3.14463 19.5989 2.83823 19.0778 2.646C18.6545 2.48128 18.0196 2.286 16.8491 2.23255ZM10.4673 15.6998C11.3233 16.0561 12.2764 16.1042 13.1639 15.8359C14.0514 15.5675 14.8182 14.9994 15.3334 14.2285C15.8485 13.4575 16.0801 12.5317 15.9884 11.609C15.8968 10.6864 15.4876 9.82416 14.8309 9.16964C14.4123 8.75125 13.906 8.43089 13.3487 8.23162C12.7914 8.03235 12.1968 7.95912 11.6078 8.01722C11.0188 8.07532 10.45 8.26329 9.94233 8.5676C9.43468 8.87191 9.00081 9.285 8.67197 9.77711C8.34312 10.2692 8.12748 10.8281 8.04056 11.4136C7.95365 11.9991 7.99762 12.5965 8.16932 13.1629C8.34101 13.7294 8.63616 14.2507 9.03351 14.6893C9.43087 15.128 9.92054 15.4731 10.4673 15.6998ZM7.63855 7.63909C8.2113 7.06634 8.89126 6.61201 9.6396 6.30203C10.3879 5.99206 11.19 5.83252 12 5.83252C12.81 5.83252 13.6121 5.99206 14.3604 6.30203C15.1087 6.61201 15.7887 7.06634 16.3615 7.63909C16.9342 8.21185 17.3885 8.89181 17.6985 9.64015C18.0085 10.3885 18.168 11.1906 18.168 12.0005C18.168 12.8105 18.0085 13.6126 17.6985 14.361C17.3885 15.1093 16.9342 15.7893 16.3615 16.362C15.2047 17.5187 13.6359 18.1686 12 18.1686C10.3641 18.1686 8.79528 17.5187 7.63855 16.362C6.48182 15.2053 5.83197 13.6364 5.83197 12.0005C5.83197 10.3647 6.48182 8.79583 7.63855 7.63909ZM19.536 6.7511C19.6779 6.61721 19.7916 6.4562 19.8701 6.27761C19.9487 6.09902 19.9907 5.90648 19.9935 5.71138C19.9964 5.51629 19.9601 5.3226 19.8867 5.1418C19.8134 4.96099 19.7045 4.79674 19.5665 4.65877C19.4285 4.5208 19.2643 4.41192 19.0835 4.33857C18.9027 4.26522 18.709 4.22889 18.5139 4.23173C18.3188 4.23458 18.1263 4.27654 17.9477 4.35513C17.7691 4.43372 17.6081 4.54734 17.4742 4.68928C17.2138 4.96531 17.0712 5.33195 17.0768 5.71138C17.0823 6.09081 17.2355 6.45314 17.5038 6.72147C17.7721 6.98979 18.1345 7.14298 18.5139 7.14851C18.8933 7.15404 19.26 7.01148 19.536 6.7511Z" fill="white"/>
</svg>
