<svg width="25" height="24" viewBox="0 0 25 24" fill="none" xmlns="http://www.w3.org/2000/svg">
<path d="M21.3272 3.4875C19.0826 1.2375 16.0933 0 12.9165 0C6.35937 0 1.02366 5.33571 1.02366 11.8929C1.02366 13.9875 1.57009 16.0339 2.60938 17.8393L0.921875 24L7.22723 22.3446C8.96295 23.2929 10.9183 23.7911 12.9112 23.7911H12.9165C19.4683 23.7911 24.9219 18.4554 24.9219 11.8982C24.9219 8.72143 23.5719 5.7375 21.3272 3.4875ZM12.9165 21.7875C11.1379 21.7875 9.39687 21.3107 7.8808 20.4107L7.52187 20.1964L3.78259 21.1768L4.77902 17.5286L4.5433 17.1536C3.55223 15.5786 3.03259 13.7625 3.03259 11.8929C3.03259 6.44464 7.4683 2.00893 12.9219 2.00893C15.5629 2.00893 18.0433 3.0375 19.9076 4.90714C21.7719 6.77679 22.9183 9.25714 22.9129 11.8982C22.9129 17.3518 18.3647 21.7875 12.9165 21.7875ZM18.3379 14.3839C18.0433 14.2339 16.5808 13.5161 16.3076 13.4196C16.0344 13.3179 15.8362 13.2696 15.6379 13.5696C15.4397 13.8696 14.8719 14.5339 14.6951 14.7375C14.5237 14.9357 14.3469 14.9625 14.0522 14.8125C12.3058 13.9393 11.1594 13.2536 10.0076 11.2768C9.70223 10.7518 10.3129 10.7893 10.8808 9.65357C10.9772 9.45536 10.929 9.28393 10.854 9.13393C10.779 8.98393 10.1844 7.52143 9.93795 6.92679C9.69688 6.34821 9.45045 6.42857 9.2683 6.41786C9.09688 6.40714 8.89866 6.40714 8.70045 6.40714C8.50223 6.40714 8.1808 6.48214 7.90759 6.77679C7.63437 7.07679 6.8683 7.79464 6.8683 9.25714C6.8683 10.7196 7.93438 12.1339 8.07902 12.3321C8.22902 12.5304 10.1737 15.5304 13.1576 16.8214C15.0433 17.6357 15.7826 17.7054 16.7254 17.5661C17.2987 17.4804 18.4826 16.8482 18.729 16.1518C18.9754 15.4554 18.9754 14.8607 18.9004 14.7375C18.8308 14.6036 18.6326 14.5286 18.3379 14.3839Z" fill="white"/>
</svg>
