<svg width="14" height="20" viewBox="0 0 14 20" fill="none" xmlns="http://www.w3.org/2000/svg">
<path d="M7 0.958252C3.12753 0.958252 0 4.15592 0 8.04999C0 9.45435 0.4319 10.5719 1.10129 11.6328L6.38147 18.9256C6.44609 19.0295 6.53694 19.1154 6.64526 19.175C6.75359 19.2346 6.87575 19.2659 7 19.2659C7.12425 19.2659 7.24641 19.2346 7.35474 19.175C7.46306 19.1154 7.55391 19.0295 7.61854 18.9256L12.8987 11.6328C13.5681 10.5718 14 9.45435 14 8.04999C14 4.15592 10.8725 0.958252 7 0.958252ZM7 2.3766C10.0597 2.3766 12.5517 4.89408 12.5517 8.04999C12.5517 9.18652 12.2476 9.95799 11.6616 10.8867L7 17.197L2.33836 10.8867C1.75244 9.95799 1.44828 9.18649 1.44828 8.04999C1.44828 4.89408 3.94035 2.3766 7 2.3766ZM7 4.26773C5.00893 4.26773 3.37931 5.86368 3.37931 7.8136C3.37931 9.7635 5.00891 11.3595 7 11.3595C8.99109 11.3595 10.6207 9.7635 10.6207 7.8136C10.6207 5.86368 8.99107 4.26773 7 4.26773ZM7 5.68608C8.20837 5.68608 9.17241 6.63021 9.17241 7.8136C9.17241 8.99695 8.20835 9.94112 7 9.94112C5.79166 9.94112 4.82759 8.99695 4.82759 7.8136C4.82759 6.63021 5.79163 5.68608 7 5.68608Z" fill="#083D68"/>
</svg>
