<svg width="317" height="134" viewBox="0 0 317 134" fill="none" xmlns="http://www.w3.org/2000/svg">
<path d="M28.832 41.264L17.748 8.692H22.508V7.4H0.408V8.692H3.604L20.74 55.68H26.656L35.496 24.944L45.56 55.68H51.612L64.124 8.692H68.612V7.4H55.012V8.692H61.88L53.72 40.856L43.588 8.692H47.6V7.4H26.52V8.692H30.396L34.476 21.68L28.832 41.264ZM109.213 33.988C109.213 47.656 108.261 54.252 100.645 54.252C92.6893 54.252 91.8733 46.908 91.8733 34.124V29.228C91.8733 15.288 92.4173 8.08 100.645 8.08C108.805 8.08 109.213 15.016 109.213 28.956V33.988ZM77.9333 31.948C77.9333 46.908 85.2093 55.68 100.373 55.68C116.081 55.68 123.221 46.228 123.221 31.064C123.221 15.628 115.809 6.652 101.189 6.652C86.0253 6.652 77.9333 16.308 77.9333 31.948ZM158.516 30.928C162.188 30.928 163.14 33.444 163.14 38.272V43.236C163.14 52.824 165.656 55.68 174.224 55.68C180.548 55.68 182.452 53.708 183.472 45.956L182.316 45.82C181.432 51.124 180.412 51.668 179.188 51.668C177.284 51.668 177.08 50.104 177.08 45.684V42.08C177.08 34.192 174.564 31.336 167.22 30.384V30.18C174.428 29.568 178.78 27.12 178.78 18.824C178.78 8.896 171.98 7.4 157.768 7.4H137.232V8.692H141.652V53.708H137.232V55H159.332V53.708H154.912V30.928H158.516ZM154.912 8.692H157.156C161.916 8.692 164.704 9.916 164.704 17.532V19.504C164.704 26.848 162.12 29.636 157.088 29.636H154.912V8.692ZM196.516 7.4V8.896H200.528V53.504H196.516V55H232.556L233.848 39.088H232.42C228.408 47.384 224.668 53.504 216.236 53.504H213.788V8.896H220.996V7.4H196.516ZM294.348 30.384C294.348 13.452 285.032 7.4 268.236 7.4H247.224V8.692H251.712V53.708H247.224V55H266.468C282.72 55 294.348 49.56 294.348 30.384ZM264.972 53.708V8.692H266.604C276.124 8.692 280.34 12.092 280.34 28.616V32.56C280.34 47.792 276.736 53.708 267.556 53.708H264.972Z" fill="#FAF7F2"/>
<path d="M202.793 103.217C203.71 101.491 204.694 99.4404 205.744 97.0659C206.842 94.6786 207.796 92.2278 208.604 89.7136C209.4 87.1517 209.999 84.617 210.401 82.1094C210.803 79.6018 210.784 77.3344 210.344 75.3073C210.296 75.32 210.242 75.3089 210.182 75.274C209.273 75.3128 208.385 75.5247 207.518 75.9098C206.638 76.2472 205.813 76.6975 205.045 77.2605C204.276 77.8235 203.52 78.4341 202.777 79.0924C202.034 79.7508 201.338 80.3963 200.69 81.0292C199.382 82.2472 197.981 83.694 196.489 85.3697C194.996 87.0455 193.53 88.8165 192.088 90.6829C190.634 92.5016 189.264 94.3489 187.978 96.2247C186.74 98.0877 185.697 99.8219 184.85 101.427L184.921 101.408C184.702 101.926 184.444 102.583 184.146 103.377C183.882 104.112 183.656 104.887 183.466 105.704C183.275 106.521 183.181 107.312 183.181 108.078C183.182 108.844 183.354 109.487 183.697 110.008C184.632 110.831 186.036 111.4 187.908 111.717C189.827 112.02 191.931 112.249 194.219 112.404C196.542 112.497 198.926 112.626 201.37 112.79C203.801 112.906 206.049 113.198 208.115 113.667C210.229 114.123 211.988 114.878 213.393 115.932C214.834 116.926 215.677 118.36 215.923 120.235C216.044 121.071 215.949 121.862 215.638 122.609C215.375 123.343 214.974 124.038 214.434 124.693C213.929 125.288 213.364 125.847 212.738 126.372C212.112 126.897 211.504 127.391 210.913 127.856C210.157 128.466 209.313 129.126 208.379 129.836C207.505 130.58 206.559 131.241 205.539 131.82C204.58 132.434 203.589 132.929 202.566 133.305C201.543 133.681 200.48 133.812 199.377 133.698C197.937 133.47 196.464 133.021 194.957 132.352C193.463 131.73 192.254 130.93 191.328 129.952C190.39 128.926 189.911 127.803 189.891 126.583C189.906 125.302 190.715 123.937 192.319 122.487L197.632 125.739C197.009 126.467 196.482 127.169 196.051 127.847C195.619 128.524 195.473 129.125 195.613 129.649C196.687 129.464 197.777 129.147 198.883 128.698C200.023 128.189 201.097 127.621 202.104 126.994C203.158 126.355 204.146 125.656 205.067 124.899C206.036 124.13 206.927 123.355 207.74 122.576C207.87 122.49 208.105 122.223 208.445 121.775C208.832 121.314 209.213 120.829 209.588 120.32C209.95 119.764 210.223 119.257 210.407 118.799C210.578 118.294 210.513 117.954 210.211 117.779C208.733 117.408 207.077 117.136 205.243 116.963C203.444 116.729 201.699 116.506 200.009 116.294C198.162 116.073 196.231 115.823 194.217 115.545C192.249 115.254 190.25 114.844 188.219 114.314C187.281 114.054 186.253 113.742 185.134 113.377C184.05 112.952 182.995 112.443 181.968 111.849C180.941 111.256 180.038 110.553 179.259 109.74C178.433 108.939 177.866 107.967 177.56 106.823C177.191 105.441 177.226 103.951 177.667 102.352C178.095 100.706 178.658 99.2785 179.356 98.0705C182.267 93.1047 185.594 88.3595 189.338 83.8349C193.129 79.2976 197.445 75.3859 202.286 72.0999C204.211 71.2787 206.116 71.0502 208.001 71.4144C209.885 71.7786 211.604 72.5703 213.155 73.7895C213.896 74.4596 214.505 75.1138 214.982 75.7522C215.507 76.3779 215.889 77.0418 216.128 77.7439C216.366 78.4461 216.499 79.2277 216.525 80.0889C216.551 80.9501 216.483 81.9385 216.322 83.054C215.778 87.1315 214.839 91.1617 213.503 95.1444C212.155 99.0795 210.447 102.907 208.377 106.626L202.793 103.217ZM217.449 85.8932C218.545 85.6001 219.529 85.3626 220.399 85.1809C221.305 84.9388 222.169 84.7332 222.992 84.5643C223.474 82.546 223.882 80.8281 224.218 79.4106C224.589 77.9326 224.835 76.8456 224.955 76.1496L230.133 78.9013C229.997 79.3463 229.821 79.9295 229.606 80.651C229.425 81.3121 229.252 82.0988 229.088 83.0109C229.183 82.9854 229.302 82.9536 229.445 82.9154C229.575 82.8295 229.712 82.7674 229.855 82.7292L231.626 86.775C230.876 87.0265 230.222 87.2526 229.663 87.4532C229.138 87.5933 228.614 87.7335 228.09 87.8737C227.707 90.0699 227.357 92.4868 227.041 95.1247C226.76 97.7021 226.587 100.302 226.522 102.923C226.457 105.545 226.553 108.099 226.809 110.583C227.099 113.008 227.649 115.159 228.458 117.036C228.858 116.623 229.258 115.827 229.657 114.648C230.104 113.456 230.537 112.114 230.956 110.624C231.422 109.12 231.845 107.552 232.225 105.918C232.653 104.271 233.065 102.757 233.462 101.374L238.569 104.145C238.401 104.854 238.201 105.826 237.97 107.063C237.726 108.251 237.43 109.531 237.081 110.901C236.72 112.223 236.257 113.547 235.692 114.872C235.175 116.185 234.535 117.326 233.773 118.296C232.999 119.218 232.106 119.891 231.096 120.314C230.086 120.738 228.9 120.697 227.54 120.193C225.289 119.416 223.644 117.941 222.603 115.768C221.55 113.547 220.892 110.991 220.629 108.099C220.354 105.16 220.369 102.066 220.675 98.8184C221.029 95.5577 221.493 92.4209 222.066 89.4079L220.922 89.7138L217.449 85.8932ZM232.103 106.41C232.563 104.5 233.121 102.385 233.777 100.064C234.373 97.7092 234.973 95.2762 235.578 92.7653C234.703 91.2119 234.41 89.7328 234.698 88.328C235.021 86.8628 235.618 85.6564 236.488 84.7089C237.346 83.7136 238.333 83.0154 239.452 82.6142C240.618 82.2003 241.587 82.1965 242.359 82.6027C243.119 82.9613 243.558 83.8397 243.677 85.2379C243.783 86.5884 243.258 88.5415 242.103 91.0973C242.812 91.2652 243.347 91.4539 243.71 91.6634C244.072 91.8729 244.406 92.1667 244.711 92.5446C245.052 92.8622 245.424 93.2989 245.828 93.8547C246.267 94.3502 246.876 95.0044 247.655 95.8174C248.494 96.6653 248.967 97.7645 249.073 99.115C249.213 100.405 249.17 101.77 248.942 103.21C248.762 104.637 248.528 106.053 248.239 107.457C247.938 108.815 247.766 109.984 247.722 110.966C248.713 110.088 249.515 108.98 250.127 107.642C250.787 106.291 251.339 104.918 251.783 103.522C252.214 102.079 252.58 100.679 252.881 99.3222C253.23 97.9523 253.565 96.816 253.885 95.9133L259.083 98.7364C258.921 99.0861 258.751 99.6932 258.574 100.558C258.384 101.375 258.136 102.36 257.832 103.514C257.563 104.607 257.235 105.767 256.848 106.994C256.509 108.208 256.096 109.34 255.611 110.389C255.173 111.425 254.656 112.355 254.059 113.178C253.449 113.954 252.777 114.593 252.044 115.096C251.358 115.586 250.597 115.891 249.761 116.013C248.96 116.074 248.161 115.853 247.363 115.352C246.819 115.038 246.276 114.723 245.732 114.409C245.236 114.082 244.74 113.755 244.244 113.428C243.615 112.984 243.179 112.309 242.937 111.403C242.729 110.437 242.622 109.368 242.615 108.195C242.656 107.01 242.761 105.782 242.932 104.51C243.09 103.191 243.243 101.95 243.392 100.787C243.588 99.6113 243.721 98.58 243.79 97.6933C243.859 96.8067 243.795 96.1854 243.598 95.8297C243.166 95.741 242.71 95.6587 242.23 95.5827C241.737 95.4591 241.257 95.3832 240.79 95.3549C240.644 95.9556 240.492 96.5325 240.334 97.0855C240.223 97.6258 240.106 98.1423 239.982 98.635C239.58 100.377 239.141 102.077 238.665 103.736C238.225 105.335 237.744 107.072 237.224 108.947L232.103 106.41ZM259.348 103.415C259.336 104.899 259.393 106.16 259.517 107.199C259.69 108.226 259.855 108.845 260.014 109.058C260.688 109.286 261.389 109.329 262.117 109.185C262.831 108.994 263.521 108.708 264.185 108.326C264.849 107.944 265.47 107.497 266.048 106.985C266.626 106.473 267.126 105.956 267.548 105.435C268.405 104.44 269.112 103.357 269.667 102.187C270.21 100.97 270.674 99.7477 271.061 98.5208C271.483 97.2335 271.851 95.9351 272.165 94.6256C272.478 93.3162 272.846 92.0178 273.268 90.7304L278.322 93.5918C277.955 95.2732 277.605 96.9243 277.272 98.5452C276.94 100.166 276.493 101.741 275.931 103.27C275.405 104.739 274.697 106.102 273.808 107.361C272.967 108.608 271.847 109.673 270.45 110.557C269.481 111.327 268.472 111.852 267.424 112.132C266.423 112.4 265.401 112.494 264.359 112.416C263.364 112.324 262.355 112.083 261.332 111.693C260.356 111.29 259.378 110.786 258.399 110.179C257.528 109.595 256.733 108.914 256.014 108.136C255.296 107.358 254.731 106.488 254.32 105.525C253.76 104.194 253.456 102.769 253.407 101.25C253.311 99.7436 253.418 98.234 253.728 96.7212C253.991 95.2211 254.422 93.778 255.022 92.3921C255.656 90.9457 256.407 89.6471 257.274 88.4961C258.972 86.2546 260.754 85.0887 262.62 84.9985C264.485 84.9082 266.524 85.5631 268.737 86.963C269.875 87.7821 270.588 88.9193 270.875 90.3746C270.999 91.4136 270.832 92.5053 270.372 93.6497C269.946 94.7336 269.49 95.6984 269.001 96.544C267.922 98.6199 266.76 100.386 265.515 101.842C264.27 103.299 262.903 104.583 261.413 105.697L259.348 103.415ZM265.249 88.8149C264.181 89.4067 263.284 90.1572 262.557 91.0666C261.878 91.9632 261.308 92.9837 260.848 94.128C260.423 95.2119 260.095 96.3721 259.864 97.6084C259.68 98.832 259.527 100.073 259.404 101.332C260.013 100.556 260.669 99.6655 261.371 98.6609C262.072 97.6562 262.713 96.6166 263.294 95.5421C263.91 94.4072 264.4 93.2803 264.765 92.1615C265.117 90.995 265.278 89.8794 265.249 88.8149ZM278.826 98.2065C278.814 99.6905 278.87 100.952 278.995 101.991C279.167 103.017 279.333 103.637 279.492 103.85C280.166 104.078 280.867 104.121 281.594 103.977C282.309 103.786 282.999 103.5 283.663 103.118C284.326 102.736 284.947 102.289 285.525 101.777C286.103 101.265 286.604 100.748 287.026 100.227C287.883 99.2316 288.59 98.149 289.145 96.9792C289.688 95.7617 290.152 94.5395 290.539 93.3126C290.961 92.0253 291.329 90.7269 291.642 89.4174C291.956 88.1079 292.324 86.8096 292.746 85.5222L297.8 88.3836C297.433 90.065 297.083 91.7161 296.75 93.337C296.418 94.9579 295.971 96.5329 295.409 98.0618C294.883 99.5303 294.175 100.894 293.286 102.153C292.445 103.399 291.325 104.465 289.928 105.349C288.959 106.119 287.95 106.644 286.902 106.924C285.901 107.192 284.879 107.286 283.837 107.207C282.842 107.116 281.833 106.875 280.81 106.485C279.834 106.082 278.856 105.577 277.877 104.971C277.006 104.387 276.211 103.706 275.492 102.928C274.773 102.15 274.209 101.279 273.798 100.317C273.238 98.9857 272.934 97.5606 272.885 96.0416C272.789 94.5354 272.896 93.0258 273.206 91.513C273.469 90.0129 273.9 88.5698 274.5 87.1839C275.134 85.7375 275.885 84.4389 276.752 83.2879C278.45 81.0464 280.232 79.8805 282.098 79.7903C283.963 79.7 286.002 80.3549 288.215 81.7548C289.353 82.5739 290.065 83.7111 290.352 85.1664C290.477 86.2054 290.309 87.2971 289.849 88.4415C289.424 89.5254 288.967 90.4902 288.479 91.3358C287.399 93.4117 286.238 95.1777 284.993 96.634C283.748 98.0903 282.381 99.3751 280.891 100.488L278.826 98.2065ZM284.727 83.6067C283.659 84.1985 282.762 84.949 282.035 85.8584C281.355 86.755 280.786 87.7755 280.326 88.9198C279.901 90.0037 279.573 91.1639 279.341 92.4002C279.158 93.6238 279.005 94.8649 278.882 96.1234C279.491 95.3476 280.147 94.4573 280.848 93.4526C281.55 92.448 282.191 91.4084 282.772 90.3339C283.388 89.199 283.878 88.0721 284.243 86.9533C284.595 85.7868 284.756 84.6712 284.727 83.6067ZM289.705 66.5724C290.802 66.2793 291.785 66.0419 292.656 65.8602C293.561 65.618 294.425 65.4125 295.248 65.2435C295.73 63.2252 296.139 61.5073 296.475 60.0898C296.845 58.6118 297.091 57.5249 297.211 56.8288L302.39 59.5805C302.254 60.0255 302.078 60.6088 301.862 61.3303C301.681 61.9914 301.509 62.778 301.344 63.6902C301.439 63.6647 301.558 63.6328 301.701 63.5946C301.832 63.5087 301.968 63.4466 302.111 63.4084L303.882 67.4542C303.133 67.7058 302.478 67.9318 301.919 68.1324C301.395 68.2726 300.87 68.4128 300.346 68.5529C299.963 70.7491 299.614 73.1661 299.298 75.8039C299.017 78.3813 298.844 80.9809 298.779 83.6027C298.714 86.2244 298.809 88.7778 299.065 91.2627C299.356 93.6872 299.905 95.8382 300.714 97.7157C301.114 97.3023 301.514 96.506 301.914 95.3268C302.361 94.1348 302.794 92.7934 303.212 91.3028C303.678 89.7993 304.101 88.2308 304.482 86.5971C304.91 84.9507 305.322 83.4362 305.718 82.0535L310.825 84.8243C310.657 85.5331 310.458 86.5057 310.226 87.742C309.983 88.9307 309.686 90.21 309.338 91.5798C308.976 92.9021 308.513 94.226 307.948 95.5515C307.431 96.8643 306.792 98.0056 306.03 98.9753C305.255 99.8974 304.362 100.57 303.352 100.993C302.342 101.417 301.157 101.376 299.796 100.872C297.546 100.095 295.9 98.6199 294.86 96.447C293.806 94.2264 293.148 91.6702 292.886 88.7786C292.61 85.8393 292.626 82.7456 292.932 79.4977C293.286 76.237 293.749 73.1001 294.322 70.0872L293.178 70.393L289.705 66.5724Z" fill="#D84B4F"/>
</svg>
