<svg width="190" height="72" viewBox="0 0 190 72" fill="none" xmlns="http://www.w3.org/2000/svg">
<path d="M86.4573 20.8946C88.2424 21.5845 89.896 22.4278 91.3307 23.6215C91.7687 23.9938 92.0206 23.961 92.382 23.5339C93.4881 22.2307 94.5066 20.8727 95.1417 19C95.8207 20.7851 96.7406 22.1321 97.8139 23.3915C98.2519 23.9172 98.5367 24.0376 99.128 23.5339C100.508 22.3621 102.14 21.5736 103.76 20.8289C103.903 20.9493 103.892 21.0698 103.837 21.1684C102.403 23.8624 102.227 26.8083 102.107 29.7762C102.019 31.9664 102.227 34.1458 102.315 36.336C102.37 37.6393 102.337 38.9315 102.129 40.2238C101.724 42.7755 100.256 44.4839 98.0767 45.7214C97.4853 46.0499 97.4415 45.6338 97.2882 45.2943C95.1746 40.4647 95.7112 35.9308 99.0295 31.846C99.9275 30.7508 100.42 29.7214 100.376 28.3087C100.344 27.1369 100.574 25.9651 100.705 24.64C97.7591 26.6112 96.4121 29.5243 95.1746 32.7987C93.9152 29.5462 92.5791 26.6441 89.6989 24.6728C89.5784 25.4285 89.7975 26.0855 89.8522 26.7317C90.1588 29.9842 89.9836 33.2258 89.8303 36.4784C89.7537 38.1868 89.6879 39.9062 90.2027 41.5818C90.5641 42.7645 91.1664 43.7939 92.2287 44.6153C92.5791 44.013 92.612 43.3668 92.6558 42.7536C92.831 40.5742 92.6886 38.4059 91.8016 36.4018C91.1992 35.0438 91.5716 33.7625 91.5278 32.4264C91.922 32.4374 91.9768 32.7111 92.0972 32.8864C94.7475 36.8617 94.9227 41.0342 93.05 45.36C92.8201 45.8966 92.601 45.9076 92.1411 45.6557C89.5784 44.2211 88.2862 42.0308 88.0671 39.1177C87.8919 36.7741 88.1876 34.4524 88.2752 32.1198C88.2971 31.386 88.0671 30.9151 87.4758 30.499C86.5011 29.7981 85.5155 29.1081 84.2561 28.4949C85.3403 32.4155 84.6065 36.2594 84.935 40.0376C85.2964 44.232 87.5853 47.1998 91.3526 49.0506C91.5935 49.1711 91.8344 49.2696 92.0754 49.3901C92.1192 49.412 92.152 49.4777 92.1849 49.5215C87.0487 49.182 83.9166 46.2032 83.2704 41.1328C82.9747 38.8001 83.1171 36.4675 83.1281 34.1348C83.15 31.8788 83.0624 29.6447 82.1972 27.5092C81.8687 26.6988 81.4087 25.9541 80.8721 25.0342C83.4895 26.0636 85.8878 27.0931 88.1219 28.7577C88.1219 25.9103 87.6619 23.3477 86.4573 20.8946Z" fill="#E53949"/>
<path d="M106.017 28.5824C105.13 28.8343 104.516 29.4256 103.783 29.798C103.432 27.9691 103.531 27.7391 105.086 26.9397C106.444 26.2388 107.846 25.6364 109.488 25.0122C108.349 26.7863 107.638 28.4948 107.386 30.3893C107.123 32.3934 107.221 34.3976 107.254 36.4126C107.287 38.5372 107.254 40.6617 106.729 42.7425C105.743 46.6412 103.191 48.7329 99.3146 49.3791C98.9422 49.4448 98.5589 49.4776 98.1318 49.5433C98.3728 49.2148 98.7232 49.171 99.0079 49.0286C103.126 46.9698 105.349 43.6843 105.458 39.0409C105.524 36.2702 105.228 33.4886 105.623 30.7179C105.732 30.017 105.874 29.338 106.017 28.5824Z" fill="#E53949"/>
<path d="M98.1112 44.6919C96.9065 41.4065 97.9907 35.7994 100.301 33.2148C100.499 37.245 101.528 41.297 98.1112 44.6919Z" fill="#FAF7F2"/>
<path d="M95.1649 28.0568C94.5625 27.2136 94.0259 26.436 93.4565 25.7023C93.2155 25.3956 93.1827 25.1876 93.4455 24.87C93.9383 24.2896 94.4092 23.6763 94.8363 23.052C95.1211 22.6249 95.3072 22.7235 95.5153 23.0849C95.5263 23.1068 95.5482 23.1396 95.5591 23.1616C96.0738 23.8734 96.5776 24.5852 97.0923 25.308C96.4681 26.206 95.8329 27.115 95.1649 28.0568Z" fill="#FAF7F2"/>
<path d="M67.5548 41.7023L67.5986 41.538C67.7519 40.9029 67.3577 40.2567 66.7225 40.1034C66.0873 39.9501 65.4412 40.3443 65.2878 40.9795L65.244 41.1438C65.0907 41.779 65.485 42.4251 66.1201 42.5784C66.7553 42.7317 67.4015 42.3375 67.5548 41.7023Z" fill="#E53949"/>
<path d="M125.688 41.7023L125.731 41.538C125.885 40.9029 125.49 40.2567 124.855 40.1034C124.22 39.9501 123.574 40.3443 123.421 40.9795L123.377 41.1438C123.224 41.779 123.618 42.4251 124.253 42.5784C124.888 42.7317 125.534 42.3375 125.688 41.7023Z" fill="#E53949"/>
<path d="M4.82298 45.4695L4.77919 45.6338C4.62587 46.269 5.0201 46.9151 5.65528 47.0684C6.29047 47.2217 6.94756 46.8275 7.10088 46.1923L7.14467 46.028C7.29799 45.3928 6.90376 44.7467 6.26858 44.5934C5.6334 44.4401 4.9763 44.8343 4.82298 45.4695Z" fill="#E53949"/>
<path d="M70.4451 39.7855C69.0652 38.3181 67.302 37.7157 65.9222 37.7814C64.5204 37.8471 63.5895 38.5042 63.0967 38.9751C62.5929 39.457 62.4068 39.7855 62.3958 39.7746C62.4068 39.7855 62.6258 39.4898 63.1734 39.0737C63.71 38.6794 64.6518 38.1757 65.9112 38.2523C67.1487 38.329 68.6381 39.0299 69.7113 40.4098C70.7846 41.7458 71.3431 43.8485 70.4998 45.765C69.6237 47.7362 67.9701 49.6308 65.6265 50.4522C63.2938 51.3283 60.4355 51.2735 57.4896 50.8026C54.5437 50.3755 51.5101 49.379 48.3452 48.2948C45.1802 47.1996 41.9167 45.9621 38.5437 44.7356C31.7976 42.2934 25.2596 40.0484 19.0064 38.8875C15.8852 38.329 12.8079 38.0224 9.87294 38.4276C8.4164 38.6356 6.98176 39.0518 5.74426 39.7855C4.50675 40.4974 3.49923 41.6144 2.92976 42.7096C2.31648 43.8376 1.90032 45.0641 2.02079 46.3126C2.11935 47.572 2.88596 48.6343 3.77302 49.1818C5.58 50.2879 7.606 50.0032 8.69018 49.0504C9.23775 48.5795 9.50059 47.9662 9.58821 47.4406C9.67582 46.9149 9.632 46.4768 9.57724 46.1264C9.44583 45.4365 9.28156 45.1079 9.29251 45.097C9.28156 45.097 9.40203 45.4474 9.44583 46.1374C9.46773 46.4768 9.45678 46.9039 9.32537 47.3748C9.19395 47.8348 8.89827 48.3276 8.40545 48.6781C7.44173 49.379 5.6457 49.4118 4.33153 48.3933C3.6854 47.8896 3.24734 47.123 3.24734 46.2359C3.23639 45.3598 3.63064 44.3851 4.21107 43.509C4.81339 42.5781 5.59095 41.8553 6.60943 41.3516C7.6279 40.8478 8.82161 40.574 10.1029 40.4755C12.6765 40.2784 15.5348 40.7054 18.4917 41.3844C24.4164 42.7643 30.7901 45.1298 37.5143 47.572C40.8763 48.7985 44.1837 49.9922 47.4362 51.0326C50.6888 52.0511 53.9194 52.9929 57.1611 53.3215C60.337 53.6719 63.6005 53.6062 66.415 52.3468C67.8058 51.7335 69.0324 50.8136 69.9413 49.7294C70.8612 48.6452 71.4855 47.4953 71.9235 46.2688C72.3397 45.0094 72.3397 43.6952 72.033 42.5672C71.7264 41.4501 71.135 40.5083 70.4451 39.7855Z" fill="#E53949"/>
<path d="M184.627 47.0684C185.262 46.9151 185.656 46.258 185.503 45.6338L185.459 45.4695C185.306 44.8343 184.649 44.4401 184.024 44.5934C183.389 44.7467 182.995 45.4038 183.148 46.028L183.192 46.1923C183.345 46.8275 184.003 47.2217 184.627 47.0684Z" fill="#E53949"/>
<path d="M184.835 39.7965C183.598 39.0628 182.163 38.6466 180.706 38.4386C177.771 38.0334 174.694 38.34 171.573 38.8985C165.309 40.0594 158.782 42.2935 152.036 44.7466C148.663 45.9731 145.399 47.2106 142.234 48.3058C139.069 49.39 136.025 50.3756 133.09 50.8136C130.144 51.2736 127.286 51.3393 124.953 50.4632C122.609 49.6309 120.945 47.7363 120.08 45.776C119.236 43.8595 119.795 41.7568 120.868 40.4208C121.941 39.0409 123.431 38.34 124.668 38.2633C125.928 38.1757 126.869 38.6795 127.406 39.0847C127.954 39.5008 128.173 39.7965 128.184 39.7856C128.173 39.7965 127.997 39.468 127.483 38.9861C126.979 38.5152 126.059 37.8581 124.657 37.7924C123.277 37.7267 121.525 38.329 120.134 39.7965C119.444 40.5193 118.853 41.4721 118.546 42.6001C118.229 43.7281 118.229 45.0422 118.656 46.3017C119.094 47.5282 119.718 48.6781 120.638 49.7623C121.547 50.8355 122.774 51.7555 124.164 52.3797C126.979 53.6391 130.253 53.6938 133.418 53.3544C136.66 53.0258 139.891 52.084 143.143 51.0655C146.396 50.0251 149.703 48.8314 153.065 47.6049C159.789 45.1627 166.163 42.7972 172.088 41.4173C175.045 40.7493 177.903 40.3113 180.476 40.5084C181.758 40.6069 182.962 40.8807 183.97 41.3845C184.999 41.8882 185.777 42.611 186.368 43.5419C186.949 44.418 187.343 45.3927 187.332 46.2688C187.343 47.1559 186.905 47.9334 186.248 48.4262C184.934 49.4447 183.138 49.4118 182.174 48.711C181.681 48.3715 181.385 47.8787 181.254 47.4077C181.112 46.9478 181.112 46.5097 181.134 46.1702C181.177 45.4913 181.298 45.1299 181.287 45.1299C181.298 45.1299 181.134 45.4584 181.002 46.1593C180.947 46.4988 180.893 46.9478 180.991 47.4735C181.079 47.9882 181.342 48.6014 181.889 49.0833C182.973 50.0251 184.999 50.3208 186.806 49.2147C187.693 48.6672 188.46 47.6049 188.559 46.3455C188.679 45.097 188.263 43.8704 187.65 42.7425C187.069 41.6254 186.073 40.5084 184.835 39.7965Z" fill="#E53949"/>
<path d="M29.2132 45.9404L11.7895 46.0828C11.7676 46.2142 11.7676 46.3347 11.7347 46.4661C11.669 46.7727 11.5705 47.0684 11.4609 47.3641L32.1043 47.5284C31.6663 47.3751 31.2282 47.2217 30.8011 47.0575C30.1221 46.7946 29.5964 46.4004 29.2132 45.9404Z" fill="#E53949"/>
<path d="M160.609 45.8967C160.51 45.9734 160.412 46.05 160.313 46.1158L160.324 46.1267C160.291 46.1486 160.258 46.1596 160.225 46.1815C159.776 46.51 159.316 46.8385 158.878 47.189C158.703 47.3314 158.528 47.4518 158.342 47.5504L179.401 47.3752C179.226 46.9371 179.095 46.499 179.007 46.0391L160.609 45.8967Z" fill="#E53949"/>
</svg>
