<svg width="224" height="198" viewBox="0 0 224 198" fill="none" xmlns="http://www.w3.org/2000/svg">
<path d="M86.6645 178.239C82.5901 177.094 78.7182 175.418 74.9393 173.545C63.5175 167.879 53.9002 159.984 46.1186 149.913C45.7573 149.453 45.4589 149.449 44.9575 149.624C38.6553 151.879 32.3489 154.08 26.0736 156.333C25.3091 156.61 25.054 156.467 24.8064 155.727C19.4368 140.452 14.0424 125.206 8.62097 109.963C8.30893 109.092 8.61959 108.906 9.33018 108.633C15.504 106.469 21.6488 104.281 27.8247 102.144C28.5643 101.896 28.8666 101.602 28.8509 100.708C28.7671 96.8658 28.93 93.0581 29.4617 89.113C29.9619 89.616 30.9313 89.1877 30.9575 90.2158C30.9618 90.2697 31.0468 90.3172 31.078 90.369C32.0945 89.5033 32.8508 90.8538 33.8329 90.5872C33.9983 90.2761 33.3765 90.2976 33.488 89.9907C33.6656 89.4888 33.4728 89.4497 33.0211 89.5664C32.0929 89.8288 30.2536 89.1866 29.6805 88.4453C29.4687 88.1637 29.6363 87.8795 29.6691 87.6059C30.2727 83.1944 31.235 78.8632 32.5829 74.6104C34.0566 69.8868 35.9202 65.2955 38.1778 60.8901C38.5314 60.2119 38.8997 59.7222 39.7058 59.632C39.9753 59.6109 40.4872 59.5709 40.3415 59.0944C40.1979 58.6448 39.8127 58.9189 39.5205 58.9959C39.3879 59.0334 39.2469 58.9631 39.108 58.9198C39.4746 58.7555 39.5529 58.37 39.7183 58.0588C43.7715 50.9649 48.7211 44.5869 54.6251 38.9746C55.0784 38.5325 55.5587 38.0884 56.039 37.6442C56.4945 37.2291 56.952 36.8409 57.4344 36.4236C57.7313 36.7528 57.5288 37.2836 58.2234 37.5004C57.2723 36.0839 58.3723 35.5912 59.1632 34.9601C62.3725 32.3235 65.7935 29.9687 69.3349 27.767C70.3187 27.175 71.1766 27.0536 72.1597 27.4918C72.3836 27.5827 72.6118 27.7274 72.8955 27.5426C72.7911 26.9002 72.2375 26.7538 71.7024 26.4975C73.0898 25.5215 74.7038 25.0156 76.1266 24.1453C76.4103 23.9605 76.508 24.1697 76.6057 24.3789C76.7699 24.7456 76.9072 25.1144 77.0714 25.481C77.1729 25.3918 77.2495 25.3315 77.2495 25.3315C76.742 24.043 77.3798 23.5323 78.5067 23.0375C96.2909 15.4385 114.527 13.9576 133.256 18.7812C133.892 18.9482 134.601 19.0012 134.192 20.0091C134.076 20.2621 134.189 20.6599 134.425 20.9125C134.924 20.3584 134.924 20.3584 134.56 19.1671C137.131 19.8062 139.559 20.7005 141.963 21.6239C143.136 22.0742 144.289 22.6075 145.463 23.0578C145.911 23.2396 146.28 23.4547 146.296 23.9956C146.689 23.4769 147.093 23.7977 147.514 23.9816C152.386 26.3111 157.02 29.066 161.389 32.2481C161.993 32.6888 162.33 33.1775 162.231 33.9984C162.621 33.7782 162.38 33.4718 162.541 33.1068C163.709 34.181 165.118 34.8569 166.008 36.1967C166.256 36.584 166.77 36.5709 167.118 36.8689C170.966 40.3087 174.482 44.0184 177.621 48.11C178.105 48.7498 178.517 48.826 179.228 48.5535C185.451 46.3317 191.704 44.1348 197.927 41.913C198.613 41.6696 198.887 41.7024 199.136 42.4689C204.506 57.744 209.9 72.9899 215.322 88.2338C215.598 88.9983 215.514 89.3031 214.696 89.584C208.493 91.7228 202.298 93.9694 196.095 96.1083C195.277 96.3891 195.116 96.7542 195.125 97.5666C195.246 101.19 195.095 104.807 194.588 108.37C194.383 109.904 194.397 111.475 193.972 112.972C193.869 113.387 193.878 113.847 193.495 114.148C192.936 114.626 193.929 115.199 193.319 115.707C192.922 115.494 192.752 115.047 192.48 114.689C192.36 114.535 192.216 114.438 192.011 114.59C191.885 114.708 191.898 114.87 191.987 114.971C192.199 115.253 192.403 115.779 192.647 115.787C193.596 115.794 193.311 116.304 193.187 116.802C191.327 125.242 188.261 133.18 183.941 140.675C183.631 141.214 183.231 141.3 182.674 141.452C181.53 141.731 180.675 140.849 179.57 140.935C179.058 140.975 178.711 140.352 178.8 139.749C178.416 139.697 178.205 140.121 177.871 140.011C182.329 132.886 185.498 125.237 187.49 117.085C187.657 116.448 187.789 116.059 188.629 116.047C189.36 116.044 189.987 115.399 190.775 115.418C190.939 115.433 191.084 115.204 191.013 114.993C190.94 114.755 190.741 114.635 190.503 114.708C189.945 114.86 189.392 115.066 188.864 115.243C188.124 115.49 187.892 115.291 188.071 114.464C188.899 110.496 189.397 106.472 189.568 102.42C189.629 101.114 189.745 99.8308 189.59 98.5418C188.471 98.4396 187.569 99.7301 186.388 98.8466C186.256 99.2364 186.402 99.7129 185.782 99.7614C185.299 99.8262 184.831 100.08 184.357 100.252C182.722 100.841 182.722 100.841 181.562 99.8747C181.356 100.352 181.814 100.668 181.879 101.151C180.567 101.362 179.497 102.232 178.063 102.263C177.602 102.272 176.973 102.89 176.339 103.103C173.279 104.182 170.248 105.287 167.184 106.313C166.55 106.525 166.389 106.89 166.298 107.466C165.75 111.196 164.731 114.799 163.434 118.316C163.368 118.511 163.272 118.681 163.126 118.883C163.228 117.763 162.029 117.342 161.899 116.376C161.893 116.295 161.744 116.117 161.561 116.213C161.406 116.306 161.39 116.443 161.427 116.576C161.602 117.077 161.702 117.666 162.005 118.076C162.996 119.299 162.761 120.456 162.039 121.624C161.605 122.309 161.392 123.057 161.041 123.762C159.798 126.245 158.359 128.635 156.72 130.904C154.666 133.749 152.408 136.419 149.857 138.815C149.605 139.051 149.325 139.29 148.996 139.587C148.69 138.797 148.391 138.089 148.023 137.196C147.873 138.048 148.186 138.593 148.446 139.142C148.708 139.718 148.57 140.027 148.112 140.415C144.278 143.724 140.099 146.436 135.525 148.61C134.74 148.97 133.915 148.817 133.115 148.988C133.086 147.581 131.902 147.349 130.973 146.906C130.691 146.766 130.334 146.36 130.044 146.816C129.782 147.27 130.181 147.863 130.479 147.866C131.59 147.861 132.142 148.685 132.916 149.221C133.084 149.289 133.225 149.359 133.532 149.471C131.386 150.452 129.246 151.162 127.072 151.792C118.721 154.181 110.267 154.571 101.733 152.908C99.917 152.562 98.0882 152.054 96.2884 151.571C95.0714 151.26 94.8507 150.518 95.6369 149.481C95.8087 149.251 96.0676 149.095 96.2705 148.916C95.5151 148.271 95.1961 148.35 94.9465 149.318C94.8001 149.872 94.9816 150.806 94.5817 150.892C94.0492 151.015 93.3646 150.58 92.7508 150.357C90.1815 149.393 87.6782 148.233 85.297 146.902C84.9859 146.736 84.6251 146.629 84.3156 146.138C86.1313 146.132 87.7849 145.785 88.8565 144.238C88.0546 144.382 87.4332 144.756 86.8536 145.316C86.098 146.053 85.2417 145.849 84.8447 144.931C84.7638 144.937 84.683 144.944 84.6582 144.973C84.0272 145.917 83.3722 145.859 82.4552 145.226C79.9346 143.499 77.4658 141.74 75.2432 139.664C74.7161 139.163 74.3057 139.114 73.6199 139.358C66.3689 141.958 59.1136 144.505 51.8583 147.051C51.7257 147.088 51.5973 147.18 51.3633 147.307C53.1716 149.632 55.129 151.783 57.1878 153.845C57.4514 154.095 58.7291 155.118 58 155.5C57.8468 155.621 56.9092 154.788 56.8204 155.039C57.0713 155.128 57.289 155.138 57.5209 154.984C58.306 154.624 58.6007 154.927 58.5272 155.719C58.4986 156.046 58.443 156.376 58.3854 156.678C58.2638 157.203 58.0197 157.547 57.418 157.134C57.2458 157.012 57.0404 156.811 56.8729 157.095C56.6784 157.381 56.2988 156.353 56.5 156.5C56.9046 156.821 56.7857 155.839 57 156.5C57.0375 156.633 57.4028 157.143 57.5 157C57.6221 156.828 57.7576 156.917 57.6847 156.678C57.4641 155.937 57.8102 155.693 58 155C58.5272 155.039 58.6285 155.255 59.5 156C60 156.5 60.5 157 61.1101 157.55C62.8156 158.907 64.5481 160.262 66.4279 161.769C65.1431 161.978 67.3612 161.517 66.5206 162.207C67.5651 162.044 65.5945 163.244 66.4162 162.312C66.59 162.109 66.8241 161.982 67.0813 162.151C68.1768 162.987 68.1348 163.086 69.9505 164.177C69.951 164.529 70.3066 163.878 69.9505 164.177C72.4252 165.664 74.9205 167.068 77.4591 168.333C80.1678 169.693 82.9717 170.884 85.8168 171.908C86.3746 172.108 86.8701 172.205 86.3591 172.95C86.0653 173.352 86.3125 173.74 86.7065 173.926C87.2416 174.182 87.3611 173.63 87.423 173.382C87.6334 172.606 88.0438 172.655 88.6825 172.849C96.9415 175.51 105.412 176.718 114.094 176.472C115.96 176.408 117.794 176.291 119.651 176.119C133.076 174.825 145.272 169.94 154.578 163.818C154.709 163.753 154.81 163.664 155.123 163.504C155.094 165.214 154.829 166.671 153.587 167.771C152.978 168.307 152.829 168.834 153.522 169.376C154.072 169.821 154 170.287 153.451 170.547C152.641 170.936 152.133 171.707 151.352 172.121C138.779 178.77 125.379 182.122 111.138 181.99C104.003 181.924 97.0398 180.924 90.1705 179.049C89.5899 178.905 87.123 178.556 86.6645 178.239C85.4882 177.409 85.1266 177.888 84 177C84.027 176.613 85.4102 176.413 85.968 176.613C86.5279 176.84 87.0134 177.155 87.0122 177.832C86.7659 178.15 86.7142 178.181 86.6645 178.239ZM129.088 47.9765C129.028 47.8999 128.968 47.8233 128.908 47.7466C128.727 47.5168 128.646 47.1707 128.314 47.0883C128.684 46.6256 129.044 47.0583 129.35 47.1698C135.669 49.2778 141.391 52.4354 146.543 56.6134C147.527 57.4039 148.389 58.7189 149.463 58.9331C150.537 59.1473 151.823 58.2606 153.01 57.8424C153.354 57.7342 153.691 57.5451 153.97 57.9841C154.217 58.3714 154.58 58.5056 154.818 58.0804C155.155 57.539 154.309 57.822 154.251 57.42C156.07 56.7626 157.864 56.1343 159.656 55.4791C163.451 54.0978 167.313 52.874 171.044 51.3623C171.991 50.9901 172.979 50.8043 174.01 51.1574C174.232 51.2214 174.404 51.3434 174.482 50.9578C174.061 50.7739 173.62 50.6729 173.16 50.6818C172.755 50.7134 172.43 50.7118 172.129 50.3288C170.713 48.5149 169.142 46.7945 167.517 45.0784C168.302 44.7188 169.031 44.3364 169.034 43.3332C168.71 43.3585 168.648 43.6073 168.553 43.7774C167.798 44.8666 167.394 44.8982 166.458 44.0227C164.939 42.6235 163.445 41.1953 161.876 39.8543C158.971 37.3708 155.894 35.1176 152.569 33.155C152.086 32.8675 151.942 32.0656 151.596 32.1468C150.85 32.3136 150.46 31.8292 149.951 31.5708C148.058 30.5804 146.257 29.393 144.27 28.5997C141.442 27.4385 138.636 26.2214 135.691 25.3133C134.748 25.0347 133.502 25.0508 133.562 23.3925C133.491 24.5637 133.025 24.4918 132.198 24.3126C130.622 23.9208 129.062 23.3922 127.468 23.1103C124.004 22.4868 120.546 21.9441 117.032 21.7311C116.597 21.7109 116.243 21.6845 116.252 21.1144C116.26 20.8699 116.309 20.4594 115.851 20.4953C115.528 20.5206 115.329 20.7529 115.357 21.1032C115.401 21.669 115.098 21.6114 114.692 21.616C112.928 21.5914 111.137 21.5689 109.378 21.5981C103.369 21.7158 97.4818 22.6914 91.7196 24.2265C87.9486 25.2264 84.2837 26.5432 80.6938 28.1252C80.4846 28.2229 80.2362 28.5134 80.0223 28.2048C79.4472 27.4366 78.9711 27.9346 78.4555 28.2732C78.0951 28.5182 77.7475 28.925 77.4977 28.1584C77.4603 28.0258 77.3356 27.8187 77.2072 27.9101C76.4163 28.5412 75.6155 28.0075 74.8216 27.9069C74.5749 27.872 74.2722 27.8144 74.1897 28.1461C74.0845 28.5339 74.4162 28.6164 74.6962 28.73C75.2831 28.9552 75.8985 28.8528 76.5182 28.8043C76.8684 28.7769 77.2372 28.6396 77.412 29.1409C77.62 29.721 77.106 29.7341 76.845 29.863C68.8641 33.8758 61.7679 39.1476 55.6349 45.6453C55.2851 46.025 54.6153 45.7793 54.5767 46.3244C54.5443 46.9504 54.0804 47.2578 53.7328 47.6645C52.6464 49.0236 51.5019 50.333 50.4424 51.6899C49.4099 53.0447 48.4043 54.3974 47.459 55.8268C46.613 57.1399 45.6259 58.3827 44.923 59.793C44.0796 61.4855 43.093 63.0807 42.2765 64.771C41.46 66.4613 40.6725 68.1764 39.968 69.9122C39.2841 71.5651 38.652 73.1868 38.107 74.883C36.1396 80.9192 34.8875 87.0892 34.4087 93.4426C34.3864 93.851 34.4803 94.3586 33.8649 94.461C33.8068 94.4113 33.7466 94.3348 33.6885 94.2851C33.5643 94.4304 33.6514 94.5048 33.7655 94.5772C33.9731 94.8049 34.3608 94.9102 34.2847 95.3227C34.0445 97.1035 34.2148 98.9335 33.757 100.704C33.5508 101.534 32.8474 102.591 34.6008 102.481C34.7086 102.473 34.7877 102.792 35.1026 102.659C34.9796 102.126 35.5883 101.591 34.974 101.016C34.1813 100.237 34.3092 99.7935 35.3885 99.3838C36.8905 98.8326 38.3677 98.3104 39.8718 97.7861C40.1618 97.6821 40.603 97.4307 40.7651 97.7704C41.1162 98.4477 41.9308 98.4653 42.3254 99.0037C42.8693 99.7201 43.5888 99.9078 44.4076 99.9793C44.7621 100.006 45.1187 100.059 45.4774 100.14C45.9459 100.238 46.22 100.624 46.2828 101.08C46.3228 101.591 45.8046 101.551 45.5146 101.655C41.7689 102.978 38.021 104.274 34.2795 105.651C33.6207 105.892 33.1875 105.899 32.7534 105.201C32.9619 106.134 32.4315 106.284 31.7996 106.523C26.5747 108.341 21.3808 110.211 16.1559 112.03C15.3914 112.306 15.114 112.572 15.4736 113.357C16.1574 114.821 16.4725 116.423 17.0776 117.921C18.0946 120.525 18.981 123.194 19.8923 125.833C22.574 133.43 25.2804 140.998 27.9372 148.624C28.2493 149.494 28.5271 149.581 29.3703 149.271C38.4942 146.009 47.6224 142.801 56.7484 139.566C57.3016 139.36 57.776 139.188 58.1335 139.946C58.1199 139.079 58.6482 138.903 59.2552 138.692C67.0367 135.942 74.8182 133.192 82.5997 130.442C83.5485 130.096 84.502 130.157 85.4312 130.6C86.4744 131.114 87.5362 131.519 88.6951 131.781C89.0808 131.859 89.4685 131.964 90.0402 131.649C88.2421 130.84 86.4634 130.627 85.1065 129.568C87.1098 128.842 89.2188 128.08 91.33 127.346C97.106 125.295 102.909 123.241 108.687 121.217C109.215 121.04 109.776 120.59 110.366 121.194C110.542 121.37 110.83 121.239 110.998 120.955C111.376 120.248 112.091 120.029 112.75 119.788C114.753 119.062 116.759 118.363 118.764 117.664C121.691 116.622 124.619 115.579 127.546 114.537C128.099 114.331 128.101 114.358 128.293 114.723C128.299 114.803 128.258 114.969 128.287 114.994C128.428 115.065 128.417 114.93 128.438 114.847C129.152 113.924 130.324 113.669 131.298 113.295C135.11 111.777 139.017 110.441 142.927 109.132C146.387 107.967 149.778 106.617 153.302 105.583C154.945 105.102 156.598 104.403 158.2 103.736C158.436 103.636 158.776 103.474 158.892 103.573C159.437 103.964 159.563 103.493 159.924 103.248C160.489 102.852 161.176 102.283 161.845 103.206C162.242 103.772 162.574 103.176 162.562 103.015C162.395 101.916 163.29 101.928 163.897 101.718C164.742 101.435 165.648 101.228 166.435 100.896C169.188 99.7043 172.08 98.9087 174.842 97.8252C175.84 97.4218 176.579 97.4997 177.015 98.5769C177.184 98.9975 177.563 98.9948 177.824 98.866C178.112 98.735 177.896 98.3996 177.773 98.2194C177.528 97.8591 177.256 97.5009 176.955 97.1178C177.747 96.839 178.455 96.5396 179.17 96.321C179.408 96.2482 179.706 95.8996 179.922 96.2351C180.078 96.4939 179.828 96.7576 179.656 96.9878C179.507 97.1621 179.123 97.1108 179.155 97.5149C179.787 97.6281 180.426 97.8221 181.087 97.6078C181.113 97.2533 180.864 97.1915 180.715 97.0134C179.997 96.148 180.013 96.0111 181.07 95.6574C182.387 95.1748 183.705 94.6922 185.054 94.2614C186.744 93.6954 188.364 92.9181 190.157 92.6152L190.128 92.5904C190.221 92.7457 189.91 92.9327 190.19 93.0463C190.13 92.9697 190.074 92.947 190.029 93.059C190.004 93.088 190.033 93.1128 190.037 93.1667C190.089 93.1355 190.112 93.0796 190.163 93.0484C191.008 92.4131 191.861 91.8855 192.887 91.48C195.309 90.5586 197.832 89.9003 200.25 88.9251C202.589 87.9831 204.994 87.1985 207.397 86.387C208.137 86.1394 208.363 85.9049 208.03 85.1177C207.487 83.7235 206.758 82.371 207.013 80.7788C207.071 80.4761 206.784 80.2817 206.684 80.0455C206.441 79.3597 205.79 79.0041 205.546 78.3183C204.146 74.2805 202.721 70.2717 201.294 66.2359C200.112 62.9128 198.929 59.5628 197.747 56.2397C197.541 55.6866 197.254 55.1398 197.666 54.5113C197.883 54.169 197.767 54.0696 197.255 54.1097C196.986 54.1308 196.948 53.9981 196.911 53.8655C196.752 53.2273 196.327 52.6372 196.353 51.9303C197.81 52.1958 197.81 52.1958 198.966 51.7259C198.8 51.3323 198.427 51.4156 198.103 51.4409C196.617 51.503 195.502 51.1024 195.315 49.4092C195.244 48.8455 194.923 48.8978 194.448 49.0705C192.975 49.6465 191.436 50.0651 189.965 50.6681C188.654 51.2315 187.241 51.5319 185.896 52.0166C172.9 56.7199 159.84 61.2928 146.811 65.9174C145.282 66.4708 142.164 67.4936 140.5 68.0575C140.649 67.5308 141.8 65.9676 142.094 65.9174C142.335 65.8715 143.265 66.6827 143.062 66.5089C142.365 65.9128 139.826 68.2051 139.369 67.5631C139.416 67.4781 142.952 61.5853 143 61.5002C143.906 61.2939 143.451 61.5614 143 61.0002C142.309 60.1327 143.2 60.1743 143.5 59.5002C143.641 59.2182 144 59.0002 144.581 58.556C144.051 59.0583 143.832 59.726 143.636 60.3377C143.347 61.1465 143.098 61.0846 142.492 60.617C141.393 59.7272 140.243 58.8954 139.071 58.1197C137.928 57.3688 136.733 56.6491 135.543 55.9832C134.381 55.3422 133.319 54.585 132.011 54.1452C130.063 53.5114 128.201 52.5728 126.233 52.022C125.512 51.8074 125.089 51.5965 125.344 50.709C125.431 50.4312 125.58 49.9045 125.111 49.8056C124.725 49.7274 124.629 50.2229 124.596 50.4966C124.479 51.4274 124.013 51.3554 123.268 51.1967C120.486 50.6283 117.747 49.921 114.868 49.848C112.206 49.7852 109.549 49.7763 106.905 49.929C105.259 50.0306 103.581 50.4059 101.931 50.806C100.947 51.0456 100.621 50.6916 100.678 49.6842C100.68 49.3588 101.002 48.9812 100.521 48.7206C99.868 50.0729 99.868 50.0729 100.437 51.1126C97.7789 51.7815 95.1601 52.6098 92.6411 53.6743C91.7234 54.0714 91.4392 53.9039 91.3322 52.8821C91.3069 52.5588 91.3085 52.2335 91.2563 51.9123C91.2019 51.5641 93.2212 52.9905 92.6411 53.1985C93.4027 53.925 90.7418 54.2061 90.2838 54.2419C88.8786 54.2976 89.4764 55.6581 88 55.1501C87.776 55.0592 86.0682 56.3323 86 56.5002C85.7748 57.0871 84.9941 54.6791 84.47 54.9099C85.1419 55.1826 85.3458 55.7088 84.828 56.0204C84.0534 56.5147 83.7913 57.3213 83.1931 57.9916C83.5936 56.7549 83.601 56.7905 84 56.0002C84.2584 55.4921 85.5793 55.2298 86.2508 55.1501C87.432 55.0035 88.4179 54.4384 89.4286 53.8443C90.1017 53.4392 90.7795 53.4404 91.2759 54.2419C90.4723 54.7114 89.5626 54.8639 88.8668 55.325C86.9864 56.5835 84.9502 57.5831 83.1052 58.9473C82.4902 59.402 81.7787 58.9697 81.7467 58.2132C81.7483 57.8878 81.8598 57.5809 81.9444 57.2761C82.0997 57.1826 82.141 57.0168 82.0248 56.9174C81.8795 56.7933 81.8425 57.013 81.7411 57.1023C81.1942 57.389 80.9555 57.1096 81.0254 56.6162C81.1158 56.0398 80.9019 55.7312 80.5036 55.4913C81.5 55.5002 81.8189 55.4181 82 56.0002C82.1832 56.6094 82.6324 57.4597 83 58.0002C83.3364 58.489 81.8731 59.8298 81.4135 60.191C81.107 60.4319 80.8006 60.6727 80.4941 60.9135C80.436 60.8638 80.3779 60.8142 80.3198 60.7645C80.3299 60.5469 80.4499 60.3478 80.2714 60.1449C79.2813 60.6561 78.3741 61.1878 78.4256 62.5392C78.4282 62.9185 78.0367 63.1118 77.7863 63.3753C76.654 64.494 75.5195 65.5857 74.4765 66.8058C70.3561 71.6551 67.2271 77.0503 65.1229 83.0701C64.4559 84.9384 63.9838 86.8729 63.4556 88.7846C63.3896 88.9795 63.1597 89.1601 63.3383 89.363C63.5168 89.5659 63.7487 89.4123 63.9331 89.3436C64.7784 89.0606 65.6216 88.7507 66.4669 88.4677C66.6084 88.8904 66.3663 89.2617 66.7794 89.6902C66.9947 87.9384 68.3646 87.7771 69.5517 87.3589C70.5813 87.0073 71.582 86.6308 72.6116 86.2792C73.5626 85.9608 74.5274 85.1263 75.5118 86.6215C74.6647 85.4951 75.2986 85.2829 76.0652 85.0332C77.3104 84.6647 78.5202 84.1904 79.7591 83.7411C80.2087 83.5975 80.7989 83.1719 81.0561 83.3415C81.6556 83.7283 80.9868 84.1872 80.8858 84.6289C80.8033 84.9606 80.9427 85.3563 81.2702 85.3849C81.6807 85.4341 81.4605 85.0447 81.4975 84.825C81.6826 83.7262 82.1313 82.8778 83.2645 82.4639C85.3508 81.7585 87.4328 80.9993 89.4901 80.2691C90.4141 79.9528 90.6465 80.1515 90.5296 81.0823C90.4925 81.3021 90.3705 81.4743 90.3335 81.694C90.2985 81.9407 89.9488 82.3205 90.3365 82.4257C90.7802 82.5536 90.6821 81.992 90.6673 81.8034C90.4474 80.0315 91.4475 79.3027 92.9954 78.9918C93.1819 78.9502 93.3393 78.8837 93.4968 78.8171C96.0036 77.9433 98.5104 77.0695 101.094 76.1355C101.014 76.4942 100.974 76.687 100.91 76.9089C100.838 77.023 100.766 77.137 100.72 77.249C100.917 77.342 101.05 77.3045 101.114 77.0826C101.577 76.0706 102.409 75.6259 103.441 75.3012C104.208 75.0515 104.314 75.3685 104.383 75.9052C104.402 76.1477 104.367 76.3944 104.361 76.6659C104.38 76.9084 104.088 77.3379 104.551 77.3559C105.067 77.3698 104.735 76.935 104.743 76.6904C104.787 75.8737 104.817 74.8683 105.664 74.6123C106.406 74.3916 107.108 74.0114 107.821 73.7659C115.26 71.1507 122.696 68.4818 130.138 65.8936C133.094 64.8762 137.271 63.3343 138.787 62.8043C139.005 62.8144 139.684 63.5203 139.694 63.3027C139 63.5002 139.314 62.9529 138.787 62.8043C140.186 62.3154 141.294 61.9306 142.402 61.5457C142.666 61.4438 142.966 61.1221 143.221 61.6171C143.444 62.0334 143.767 62.3605 143.318 62.8564C142.991 63.1802 142.753 63.6054 142.482 63.9519C142.329 64.0723 142.19 65.2698 142.605 65.3729L139 66.0002C138.882 65.874 140.075 64.0096 139.895 64.1321C139.634 64.261 140.217 63.7497 140.321 64.0397C140.518 64.4851 141.022 64.6897 141.217 65.1081C141.481 65.7109 142.84 66.4449 141.149 67.0109C141.044 67.0463 140.951 67.2433 140.932 67.3532C140.902 68.0061 140.369 68.1291 139.895 68.3018C137.388 69.1756 134.85 69.9977 132.406 70.975C131.301 71.4138 130.654 71.112 130.071 70.236C130.5 70.5002 131.734 70.2229 132 70.5002C132.442 70.9536 130.162 71.7469 129.712 71.8905C127.574 72.627 125.409 73.3657 123.278 74.183C122.697 74.391 122.593 74.101 122.448 73.6244C122.339 74.3106 122.016 74.6884 121.427 74.7886C121.241 74.8303 121.086 74.9238 120.926 74.9634C118.183 75.937 115.438 76.8836 112.589 77.8926C112.764 77.0115 112.927 76.321 113.063 75.6327C113.121 75.33 113.359 74.9048 112.865 74.835C112.399 74.7631 112.464 75.2459 112.379 75.5507C112.336 75.6897 112.375 75.8492 112.386 75.9839C112.373 77.2048 111.591 78.296 110.455 78.683C103.728 81.0526 96.9746 83.4243 90.2497 85.8208C88.1925 86.5511 86.1083 87.2834 84.0511 88.0136C83.8599 87.649 84.2303 87.1864 83.8405 87.0542C82.812 86.7281 82.7551 86.0007 82.8472 85.0989C82.51 85.6403 82.1729 86.1817 81.8109 86.7522C81.9477 86.7686 82.0576 86.7871 82.1384 86.7807C82.8949 86.7487 82.9169 87.7229 83.5762 87.8339C83.4651 88.4932 82.8349 88.4069 82.4392 88.5463C80.4628 89.2702 78.48 89.9132 76.5348 90.6889C74.6931 91.4022 72.7722 91.7965 70.939 92.6176C69.0518 93.443 67.0649 94.0321 65.1091 94.6731C64.6346 94.8457 64.1539 94.9375 63.5839 94.9279C62.904 94.8998 62.1812 95.3629 61.4079 95.1795C61.242 95.1382 61.1801 95.3871 61.2425 95.4906C61.6206 96.1658 60.9676 96.1356 60.7024 96.2106C57.3006 97.4255 53.8989 98.6404 50.495 99.8284C50.2567 99.9012 49.9027 100.227 49.6783 99.7838C49.8605 99.6882 50.1215 99.5594 49.9161 99.3586C49.6837 99.1599 49.5991 99.4647 49.504 99.6348C49.2275 100.605 48.3384 100.675 47.6173 100.812C46.977 100.944 46.8371 100.196 46.6127 99.7525C46.4464 99.3589 46.3449 99.4482 46.0031 99.5834C44.8989 100.022 42.9118 98.8765 42.6304 97.7058L42.7134 97.7264C43.2686 97.5475 44.1455 97.6686 44.0781 96.8064C44.0211 96.079 44.2885 96.031 44.7427 96.2936C45.0248 96.4342 45.1574 96.3967 45.2795 96.2245C45.7139 95.5399 46.4952 95.4788 47.154 95.2375C50.2927 94.1245 53.4023 92.9866 56.5452 91.9275C57.1522 91.7174 57.4006 91.4269 57.4868 90.7967C57.764 88.7962 58.205 86.81 58.731 84.8713C58.8362 84.4836 59.0613 83.8967 59.4765 84.3522C60.3089 85.29 60.7802 84.3857 61.3894 84.2025C60.515 84.4607 59.9748 83.4457 59.0942 83.6231C60.4416 79.0178 62.3844 74.7455 64.8041 70.6798C67.4431 66.2988 70.6611 62.3877 74.3998 58.8965C75.8159 57.593 77.2651 56.3682 78.8285 55.2158C80.365 54.0655 81.9637 53.0187 83.5936 52.0238C85.2526 51.0537 86.9448 50.1623 88.6703 49.3496C90.398 48.5638 92.2169 47.9065 93.9799 47.2264C95.6372 46.5817 97.3447 46.2313 99.0458 45.8001C103.567 44.6873 108.116 44.2772 112.784 44.3457C116.855 44.4067 120.831 44.9901 124.774 45.8472C125.655 46.0222 125.898 46.3557 125.504 47.1998C125.344 47.5917 124.858 48.3075 125.414 48.4808C126.109 48.6976 125.958 47.8148 126.115 47.3959C126.59 46.1931 126.829 46.1202 127.688 47.0559C127.954 47.3333 128.246 47.6087 128.512 47.8861C128.523 48.0208 128.583 48.0974 128.72 48.1138C128.78 48.1904 128.923 48.2876 128.923 48.2876C129.346 48.1461 129.205 48.0758 129.088 47.9765ZM155.311 123.289C155.079 123.09 155.05 123.066 155.194 122.837C156.524 120.429 157.63 117.93 158.538 115.338C158.736 114.753 158.962 114.167 159.183 113.526C159.873 114.041 159.935 115.175 161.062 115.032C160.892 114.585 160.676 114.249 160.541 113.907C160.208 113.12 159.163 112.579 159.696 111.425C159.973 110.807 159.997 110.074 160.218 109.433C160.441 108.819 159.806 108.679 159.634 108.557C159.292 108.34 159.552 108.889 159.423 108.98C158.727 109.441 157.913 109.776 157.13 109.81C156.427 109.838 156.951 109.255 157.009 108.952C157.009 108.952 156.894 108.88 156.841 108.884C156.167 108.937 156.216 108.174 155.73 107.859C155.748 108.78 156.385 109.299 156.635 110.066C154.973 110.656 153.314 111.274 151.648 111.811C151.093 111.99 150.666 112.43 149.878 112.058C149.287 111.779 148.943 112.917 148.17 113.086C146.97 113.343 145.847 113.891 144.687 114.307C139.649 116.084 134.61 117.861 129.599 119.635C128.807 119.914 127.855 120.558 127.293 120.304C126.645 120.002 126.934 118.841 126.871 118.033C126.852 117.79 126.856 117.492 126.478 117.521C126.155 117.546 126.124 117.847 126.09 118.094C126.032 118.396 126.24 118.976 125.997 118.995C124.864 119.057 124.948 120.135 124.505 120.712L124.532 120.709C124.076 120.772 123.703 120.856 123.472 121.362C123.125 122.121 122.352 122.29 121.655 122.398C121.013 122.503 121.455 121.574 120.844 121.377C121.088 122.416 120.659 122.829 119.681 123.149C111.525 125.956 103.403 128.868 95.2531 131.756C94.7 131.962 94.2071 132.244 93.6345 131.855C93.5204 131.783 93.1659 131.756 93.2657 131.993C93.5672 132.728 92.8789 132.592 92.6407 132.665C90.138 133.593 87.6291 134.439 85.1244 135.34C83.5955 135.894 82.0665 136.447 80.3781 137.04C81.6167 137.973 82.6852 138.811 83.8948 139.719C82.8028 139.968 81.787 139.803 80.8819 140.362C81.0916 140.616 81.2654 140.413 81.4023 140.429C82.6627 140.602 83.9899 139.549 85.2058 140.538C85.7847 141.008 86.4297 141.283 87.054 141.641C91.1155 144.007 95.4042 145.813 99.9904 146.918C100.847 147.122 101.589 147.253 101.153 148.616C101.981 147.412 101.979 147.385 103.246 147.639C105.694 148.098 108.179 148.337 110.679 148.413C112.798 148.464 112.985 148.774 112.31 150.887C112.285 150.916 112.372 150.991 112.403 151.043C113.329 150.753 113.656 150.077 113.505 149.194C113.37 148.5 113.602 148.347 114.25 148.323C118.818 148.155 123.97 147.129 128.242 145.602C130.139 144.911 132.004 144.142 133.833 143.267C134.512 142.943 135.142 142.324 136.011 142.69C136.152 142.76 136.383 142.607 136.321 142.503C135.736 141.6 136.751 141.764 137.033 141.553C138.006 140.826 139.104 140.306 140.106 139.604C145.323 135.944 149.69 131.481 153.203 126.138C153.879 125.082 154.381 123.877 155.61 123.293C155.63 123.21 155.622 123.102 155.642 123.019C155.468 123.223 155.39 123.256 155.311 123.289ZM171.065 100.479C172.92 100.632 174.321 99.14 176.127 98.9988C175.85 98.5867 175.479 98.3447 175.168 98.5317C173.874 99.3106 172.012 98.7244 171.065 100.479ZM184.791 99.2155C184.012 97.9211 183.16 97.7709 181.486 98.5524C181.277 98.6501 180.9 98.6796 181.008 99.0236C181.079 99.2349 181.414 99.3712 181.653 99.2984C182.66 99.0027 183.648 98.8169 184.66 99.2799C184.714 99.2757 184.764 99.2176 184.791 99.2155ZM138.341 143.375C138.973 143.488 139.548 143.552 139.863 144.123C139.928 144.254 140.079 144.459 140.28 144.253C140.355 144.166 140.448 143.969 140.412 143.864C140.182 143.339 140.046 142.645 139.517 142.47C139.044 142.317 138.656 142.89 138.341 143.375ZM156.565 105.707C155.595 105.783 154.725 106.095 153.851 107.058C155.051 106.801 155.857 106.359 156.565 105.707ZM155.829 126.095C155.572 125.925 155.691 125.374 155.246 125.571C154.827 125.767 154.297 125.916 154.287 126.487C154.263 126.868 154.638 126.812 154.849 126.741C155.218 126.603 155.676 126.568 155.829 126.095ZM135.141 114.946C134.636 115.771 134.956 116.397 135.469 117.062C136.401 116.148 134.875 115.699 135.141 114.946ZM170.512 101.037C169.428 100.688 168.927 101.568 168.175 102.006C169.062 101.91 169.825 101.606 170.512 101.037ZM118.477 119.882C119.494 119.721 119.726 119.567 120.164 118.584C119.56 119.174 118.741 119.102 118.477 119.882ZM190.86 107.849C190.553 107.032 190.094 106.716 189.283 106.4C189.589 107.189 189.95 107.649 190.86 107.849ZM90.2754 130.844C90.1435 129.851 89.3849 129.857 88.825 129.629C89.1387 130.174 89.5496 130.576 90.2754 130.844ZM135.802 145.227C136.393 145.154 136.834 144.902 137.122 144.419C137.147 144.39 136.997 144.212 136.916 144.218C136.294 144.24 135.969 144.591 135.802 145.227ZM146.184 110.233C146.254 111.122 146.302 111.741 146.349 112.334C146.678 111.685 146.631 111.092 146.184 110.233ZM199.147 56.8079C198.791 57.4592 198.769 57.8676 198.96 58.2321C199.056 58.4144 199.346 58.3104 199.418 58.1963C199.786 57.7067 199.146 57.4857 199.147 56.8079ZM48.596 51.997C48.6389 51.5057 48.854 51.1365 48.6835 50.689C48.1409 51.0296 47.762 51.3846 48.596 51.997ZM97.736 82.416C97.651 82.3685 97.6568 82.0969 97.4518 82.2485C97.1951 82.4312 96.7223 82.2784 96.6461 82.691C96.5864 82.9667 96.8891 83.0244 97.1025 82.9806C97.4216 82.9014 97.7138 82.8244 97.736 82.416ZM88.6317 129.238C88.6069 129.267 88.582 129.296 88.5842 129.323C88.5884 129.377 88.6174 129.402 88.6486 129.453C88.6734 129.424 88.6982 129.395 88.6961 129.368C88.694 129.341 88.6629 129.29 88.6317 129.238Z" fill="#669BBC"/>
<circle cx="111" cy="99.0002" r="80.75" stroke="#669BBC" stroke-width="6.5"/>
<circle cx="112" cy="99.0001" r="52" stroke="#669BBC" stroke-width="6"/>
<rect x="14.9453" y="111.817" width="191.194" height="42.0377" transform="rotate(-19.6016 14.9453 111.817)" fill="#F9F8F8"/>
<rect x="11.8345" y="111.492" width="197.016" height="44.9527" transform="rotate(-19.6016 11.8345 111.492)" stroke="#669BBC" stroke-width="6"/>
<path d="M147.323 152.864C148.503 156.161 149.656 159.459 150.889 162.751C151.228 163.619 151.154 164.058 150.294 164.505C148.757 165.303 148.739 165.413 147.682 164.032C147.107 163.264 145.931 162.786 146.104 161.526C145.468 161.711 145.21 161.189 144.884 160.835C143.813 159.618 142.767 158.371 141.693 157.127C141.484 156.872 141.344 156.477 140.779 156.521C142.644 159.574 144.451 162.577 146.335 165.52C146.796 166.215 146.798 166.595 146.013 166.954C145.255 167.312 144.506 168.129 143.847 168.018C143.16 167.909 142.935 166.761 142.526 166.034C140.183 162.07 137.864 158.077 135.546 154.084C134.734 152.711 134.732 152.684 136.084 151.955C136.5 151.732 136.906 151.023 137.553 151.677C137.643 151.779 137.85 151.654 137.754 151.472C137.357 150.906 137.957 150.941 138.184 150.733C138.992 149.965 139.578 150.19 140.241 151.033C141.895 153.127 143.807 155.037 145.412 157.189C145.653 157.495 146.136 157.783 145.606 158.285C145.453 158.405 145.611 158.691 145.812 158.838C146.04 158.983 146.31 158.962 146.546 158.862C146.912 158.698 146.62 158.422 146.551 158.238C145.173 155.174 144.188 151.944 143.021 148.81C142.813 148.23 142.902 147.979 143.424 147.721C144.57 147.116 145.684 146.46 146.794 145.75C147.206 145.473 147.403 145.566 147.623 145.956C149.221 148.704 150.845 151.45 152.416 154.201C152.698 154.694 152.643 155.376 153.263 155.68C153.377 155.752 155.311 159.313 155 159.5C153.987 160.067 152.93 157.305 153.349 157.815C153.652 158.225 154.264 158.421 154.184 159.132C154.496 158.619 154.187 158.128 154.327 157.494C154.981 158.581 155.546 159.567 156.138 160.551C156.323 160.835 156.23 161.032 155.969 161.161C155.917 161.192 155.839 161.225 155.787 161.256C153.312 162.886 153.312 162.886 151.889 160.287C150.47 157.742 149.049 155.169 147.63 152.624C147.541 152.522 147.478 152.419 147.387 152.29C147.054 152.533 147.257 152.707 147.323 152.864Z" fill="#669BBC"/>
<path d="M155 164.5C154.661 164.662 154.638 164.144 154.301 164.333C154.151 163.802 155.544 163.308 156.161 162.881C160.767 159.728 164.982 156.091 168.753 151.974C169.203 151.478 169.656 151.036 170.56 151.155C170.118 150.702 170.148 150.401 170.498 150.021C172.367 147.924 174.06 145.65 175.696 143.353C176.234 142.606 176.975 142.033 177.198 141.067C177.276 140.681 177.531 140.472 177.942 140.873C178.089 141.024 178.311 141.088 178.51 141.208C179.331 141.659 179.728 142.224 179.064 143.09C178.942 143.262 178.903 143.455 178.901 143.78C179.757 141.897 181.03 141.201 182.98 142.214C180.513 146.365 177.643 150.221 174.485 153.857C173.812 154.614 173.2 155.448 172.436 156.077C171.8 156.615 171.332 157.221 170.782 157.806C168.426 160.267 165.863 162.501 163.18 164.581C160.598 166.573 157.98 168.458 155.182 170.114C155 170.209 151.739 172.28 151.5 172C151.351 171.822 152.991 170.218 153.001 170C153.03 169.673 152.254 168.965 152.5 169C153.186 169.109 152.876 168.145 153 168C153.747 167.156 153.782 167.52 154 166.5C154.078 166.115 154.105 165.64 154.5 165.5C155.134 165.288 154.536 165.458 154.5 165C151.901 166.217 152.478 166.556 152.5 166.5C152.395 166.536 155.081 164.494 155 164.5Z" fill="#669BBC"/>
<path d="M169.699 115.902C171.867 115.895 173.851 116.661 175.784 117.459C176.877 117.915 178.059 118.121 179.133 118.687C180.407 119.374 181.645 119.955 182.556 121.212C183.925 123.111 183.496 124.906 182.607 126.711C181.766 128.43 180.322 129.383 178.339 129.321C176.871 129.274 175.507 128.811 174.14 128.322C171.826 127.5 169.466 126.79 167.359 125.491C164.056 123.472 164.228 118.39 167.602 116.472C168.252 116.123 168.942 115.934 169.699 115.902ZM169.99 119.62C169.101 119.689 168.363 120.316 168.389 120.992C168.398 121.452 168.625 121.922 169.189 122.203C171.951 123.559 174.846 124.526 177.791 125.434C177.986 125.5 178.205 125.537 178.423 125.547C179.132 125.6 179.623 125.29 179.815 124.625C180.011 124.013 179.859 123.456 179.29 123.121C178.751 122.811 178.214 122.527 177.654 122.3C175.781 121.579 173.859 120.916 171.984 120.168C171.254 119.846 170.549 119.495 169.99 119.62Z" fill="#669BBC"/>
<path d="M132.146 170.533C131.711 170.866 133.39 171.129 133.5 171.5C133.727 172.323 131.759 172.515 131.153 172.4C129.644 172.166 128.499 171.388 127.826 170.058C126.149 166.638 125.025 163.013 124.593 159.224C124.312 156.671 125.669 154.966 128.344 154.16C130.832 153.396 133.008 154.175 134.208 156.358C135.472 158.644 136.051 161.201 136.761 163.694C137.059 164.728 137.305 165.793 137.416 166.868C137.658 169.614 136.063 171.745 133.338 172.256C132.776 172.355 130.9 171.767 130.5 171.5C130.301 171.38 131 170 132.146 170.533ZM133.667 167.46C133.387 165.611 132.861 164.08 132.386 162.518C131.945 161.035 131.555 159.52 130.878 158.136C130.527 157.459 129.967 157.232 129.252 157.45C128.564 157.667 128.277 158.15 128.358 158.848C128.421 159.304 128.513 159.785 128.603 160.239C128.891 161.843 129.39 163.376 129.861 164.884C130.329 166.366 130.572 168.081 132.036 169.132C132.153 169.232 132.283 169.52 132.406 169.347C132.786 168.667 134.098 168.456 133.667 167.46Z" fill="#669BBC"/>
<path d="M122.026 170.431C121.249 170.898 122.578 170.06 122.841 170.31C123.429 170.888 122.553 172.667 122.16 173.185C120.985 174.795 119.273 175.092 117.43 175.1C116.97 175.109 116.997 174.755 116.891 174.438C116.61 173.619 116.774 172.604 115.812 172.083C115.586 171.965 115.708 171.793 115.776 171.625C115.871 171.454 116.072 171.249 115.788 171.081C115.647 171.011 115.933 170.637 115.776 170.703C115.538 170.776 116.467 171.576 116.587 171.73C117.06 172.235 116.325 174.734 117.43 175C117.901 175.126 116.51 175.1 116.126 174.714C116.091 174.961 115.61 174.701 115.384 174.583C114.198 173.971 113.363 173.006 113.046 171.73C112.192 168.083 111.766 164.375 112.097 160.636C112.309 158.152 113.877 156.701 116.399 156.369C119.136 156.019 120.92 156.991 121.891 159.354C122.226 160.169 122.374 161.024 122.495 161.882C122.598 162.498 122.333 162.573 121.823 162.64C120.94 162.79 120.05 162.507 119.176 162.765C118.778 162.878 118.83 162.494 118.813 162.279C118.742 161.715 118.641 161.127 118.411 160.603C118.146 160 117.713 159.654 117.068 159.732C116.341 159.789 115.97 160.251 115.862 160.938C115.792 161.431 115.751 161.949 115.791 162.461C115.931 164.944 116.046 167.456 116.51 169.914C116.597 170.34 116.685 170.767 116.93 171.128C117.208 171.567 117.627 171.724 118.139 171.684C118.651 171.644 119.065 171.394 119.189 170.897C119.292 170.482 119.366 170.042 119.359 169.609C119.363 167.576 119.363 167.576 121.383 167.418C121.68 167.395 121.978 167.398 122.246 167.35C122.78 167.254 123.089 167.393 123.082 167.99C123.07 168.885 123.088 169.806 123.05 170.703C123.04 170.921 123.13 171.374 122.75 171.377C122.371 171.38 122.083 171.158 122.179 170.663C122.202 170.607 122.086 170.507 122.026 170.431C122.086 170.507 122.142 170.53 122.187 170.418C122.185 170.391 122.183 170.364 122.179 170.31C122.1 170.344 122.077 170.4 122.026 170.431Z" fill="#669BBC"/>
<path d="M78.6945 155.036C80.0414 153.195 81.3635 151.384 82.6814 149.519C82.9255 149.175 83.168 149.156 83.4833 149.375C83.6846 149.522 83.9873 149.579 84.1367 149.758C84.7304 150.416 86.3612 150.126 86.0894 151.502C85.8917 152.439 85.6775 153.513 84.8058 154.151C84.2177 154.603 84.8299 155.152 84.5735 155.687C83.7655 157.485 83.0984 159.353 82.3754 161.199C82.303 161.313 82.2285 161.4 82.1561 161.514C82.3531 161.607 82.4857 161.57 82.5497 161.348C84.3019 158.798 86.0811 156.247 87.8334 153.697C88.6857 152.465 88.9779 152.388 90.2245 153.076C92.1493 154.118 92.1493 154.118 90.7649 155.826C87.6029 159.76 84.414 163.696 81.2542 167.657C80.8341 168.178 80.4944 168.34 79.9446 167.895C79.8284 167.796 79.6894 167.752 79.5754 167.68C77.1403 166.352 77.1403 166.352 78.1297 163.754C78.9209 161.74 79.7121 159.727 80.5303 157.711L80.5054 157.74C80.9878 157.323 80.9061 156.624 81.2786 156.189L81.2495 156.164C81.2517 156.191 81.2538 156.218 81.2538 156.218C80.9351 156.649 80.717 156.287 80.6711 156.046C80.4437 154.872 79.6665 154.987 78.8128 155.162C78.8107 155.135 78.7526 155.085 78.6945 155.036Z" fill="#669BBC"/>
<path d="M159.213 147.71C159.648 148.083 158.991 148.807 157.352 148.99C158.625 149.324 159.219 150.335 159.935 151.173C160.62 151.96 161.057 152.007 161.755 151.221C162.401 150.465 163.245 149.83 163.92 149.099C164.344 148.632 164.62 148.692 165.008 149.15C165.606 149.862 166.714 150.507 166.771 151.235C166.83 151.989 165.599 152.546 164.945 153.194C163.711 154.402 162.42 155.56 161.188 156.795C160.759 157.208 160.517 157.227 160.075 156.773C157.235 153.743 154.369 150.714 151.532 147.71C151.382 147.532 149.863 146.309 150.001 146C150.092 145.776 151.522 146.898 151.74 146.908C152.014 146.941 150.319 146.454 150.287 146.05C150.266 145.78 148.77 144.479 148.5 144.5C147.746 144.559 149.599 145.062 149.501 144.5C149.445 144.125 149.764 145.175 149.5 144.925C148.647 144.07 149.915 142.632 150.728 141.945C151.9 140.986 152.981 139.898 154.034 138.813C154.488 138.371 154.776 138.24 155.199 138.803C155.716 139.522 156.896 140.053 156.821 140.818C156.763 141.473 155.724 142.042 155.094 142.661C153.38 144.313 153.405 144.284 155.088 146.05C155.562 146.555 155.831 146.534 156.282 146.065C157.009 145.303 157.823 144.616 158.551 143.881C158.903 143.528 159.17 143.48 159.476 143.917C159.569 144.073 159.712 144.17 159.86 144.321C161.545 146.114 161.545 146.114 159.75 147.772C159.396 148.098 159.162 148.225 158.635 148.076C158.353 147.936 159.674 147.376 159.213 147.71Z" fill="#669BBC"/>
<path d="M98.8234 155.9C99.5087 155.304 100.173 155.821 100.735 156.076C101.295 156.303 100.773 156.913 100.697 157.326C100.136 159.511 100.107 159.486 97.9734 158.894C97.8635 158.875 97.7536 158.857 97.6686 158.809C95.1473 158.112 95.1742 158.11 94.5578 160.625C94.4341 161.123 94.5317 161.332 95.0294 161.456C96.0806 161.726 97.1069 162.025 98.1603 162.322C98.6309 162.448 98.94 162.586 98.69 163.202C98.4194 163.901 98.2338 164.648 98.0752 165.392C97.9599 165.997 97.6635 166.02 97.1638 165.87C96.1353 165.544 95.0593 165.302 94.0577 164.974C93.5289 164.799 93.3488 164.921 93.252 165.417C93.0336 166.437 92.3118 167.605 92.6175 168.394C92.919 169.129 94.3781 169.069 95.3485 169.346C97.2333 169.876 97.2333 169.876 96.7031 171.761C96.2368 173.424 96.2368 173.424 94.5739 172.958C92.855 172.469 91.1382 172.007 89.4193 171.518C88.1171 171.159 87.8906 170.688 88.2495 169.386C89.6277 164.481 90.9789 159.577 92.3861 154.696C92.4707 154.391 92.3123 153.753 92.9737 153.891C93.4692 153.988 93.8839 154.091 93.9408 154.818C93.9956 155.519 93.9654 156.172 93.8004 156.835C93.7634 157.055 93.4052 157.327 93.8199 157.43C94.1247 157.515 94.2362 157.208 94.298 156.959C94.3948 156.463 94.5724 155.961 94.5883 155.472C94.6017 154.604 94.7402 154.295 95.7417 154.623C97.7448 155.28 97.7675 155.224 97.1237 157.388C97.0391 157.693 96.8198 158.008 97.245 158.246C97.4151 158.341 97.6285 158.297 97.7258 158.154C97.823 158.011 97.8621 157.818 97.9034 157.653C98.0397 157.317 98.1491 156.983 98.2855 156.647C98.3991 156.367 98.5978 156.134 98.8234 155.9Z" fill="#669BBC"/>
<path d="M163.794 124.984C164.591 125.463 165.443 125.966 166.323 126.466C166.663 126.657 166.626 126.876 166.431 127.163C166.117 127.648 165.888 128.181 165.517 128.644C165.025 129.279 165.237 129.56 165.861 129.918C169.47 132.048 173.057 134.234 176.666 136.365C177.319 136.747 177.397 137.039 176.983 137.641C176.445 138.388 176.113 139.688 175.45 139.875C174.814 140.061 173.822 139.162 173.05 138.653C170.963 137.272 168.707 136.147 166.64 134.682C165.75 134.047 164.653 133.537 163.635 132.993C163.239 132.78 163.05 132.795 162.783 133.195C162.349 133.879 162.168 135.032 161.386 135.093C160.74 135.144 160.051 134.303 159.348 133.979C158.562 133.634 158.613 133.25 159.025 132.622C160.58 130.331 161.706 127.749 163.517 125.602C163.668 125.454 163.43 125.175 163.794 124.984Z" fill="#669BBC"/>
<path d="M106.392 157.043C105.924 160.061 105.874 162.884 105.359 165.662C105.073 167.203 105.119 168.826 104.998 170.407C104.96 170.952 105.287 170.981 105.642 171.008C106.651 171.091 107.663 171.202 108.672 171.285C109.191 171.326 109.522 171.409 109.389 172.124C109.189 173.034 109.447 174.261 108.949 174.815C108.448 175.342 107.268 174.811 106.366 174.719C104.782 174.572 103.219 174.342 101.613 174.25C100.904 174.197 100.804 173.961 100.89 173.331C101.47 167.918 101.993 162.483 102.519 157.075C102.578 156.447 102.81 156.293 103.413 156.381C104.209 156.509 105.001 156.582 105.791 156.629C106.228 156.676 106.454 156.794 106.392 157.043Z" fill="#669BBC"/>
<path d="M82.5 156C81.9712 155.825 80.0191 158.103 79.8474 158.334C78.3805 160.373 76.9385 162.383 75.5566 164.47C75.1181 165.101 74.7969 165.153 74.1973 164.766C73.5107 164.305 72.7764 163.929 72.0153 163.555C71.5092 163.323 71.4343 163.058 71.6367 162.527C72.1737 161.075 72.4846 159.506 73.1917 158.149C73.6383 157.274 73.6163 156.3 74.038 155.454C74.7224 154.153 74.8801 152.704 75.3716 151.365C75.9335 149.884 76.4103 148.356 76.8892 146.855C77.0811 146.189 77.2692 145.822 78.0161 146.36C78.7899 146.896 80.0007 147.126 80.327 147.833C80.6824 148.564 79.782 149.529 79.4411 150.369C78.6911 152.216 77.8831 154.015 77.1062 155.864C76.8995 156.341 76.7467 156.814 76.1022 156.892C75.8597 156.911 75.5718 157.042 75.5971 157.365C75.6557 157.767 76.1629 157.321 76.3583 157.739C76.5204 158.079 76.7064 157.685 76.7767 157.544C77.2835 156.745 78.2006 155.023 79 154.5C79.876 153.916 82.2604 155.016 82.5 156C82.6209 156.506 80.6046 157.271 80.5369 157.792C80.5348 157.765 82.5 156 82.5 156Z" fill="#669BBC"/>
<path d="M150.083 146.224C149.581 145.694 149.201 145.344 148.871 144.937C148.721 144.758 148.246 144.579 148.685 144.3C148.994 144.087 149.408 143.837 149.716 144.301C150.104 144.759 150.312 145.339 150.083 146.224Z" fill="#669BBC"/>
<path d="M99.9994 156C99.8008 156.232 99.1983 158.768 98.9997 159C98.7879 158.718 92.7987 158.058 92.9991 157.5C93.0651 157.305 93.2306 154.021 93.5 154C93.9559 153.937 99.8062 155.609 99.9994 156Z" fill="#669BBC"/>
<path d="M39.0586 58.9507C39.1149 58.9735 39.1734 59.0235 39.2026 59.0484C39.2026 59.0484 39.2047 59.0756 39.1797 59.1048C39.1484 59.0527 39.0899 59.0028 39.0586 58.9507Z" fill="#669BBC"/>
<path d="M78.8712 155.184C78.7904 155.191 78.633 155.257 78.6039 155.232C78.5147 155.131 78.6182 155.068 78.6969 155.035C78.755 155.085 78.8131 155.135 78.8712 155.184Z" fill="#669BBC"/>
<path d="M86.8429 178.09C86.8492 178.171 86.8825 178.249 86.8888 178.33C86.8059 178.309 86.7478 178.26 86.6648 178.239C86.7145 178.181 86.7663 178.15 86.8429 178.09Z" fill="#669BBC"/>
<path d="M42.7967 97.7471C42.3429 97.8368 41.9552 97.7316 41.5401 97.2762C42.1719 97.037 42.7251 96.8311 43.3321 96.6209C43.426 97.1286 42.8169 97.3118 42.8797 97.7677C42.8775 97.7408 42.7967 97.7471 42.7967 97.7471Z" fill="#669BBC"/>
<path d="M124.456 120.77C124.96 121.327 125.146 120.58 125.519 120.497C125.838 120.417 126.225 120.17 126.364 120.566C126.533 120.987 126.012 120.919 125.803 121.017C125.333 121.243 124.766 121.613 124.456 120.77C124.483 120.768 124.456 120.77 124.456 120.77Z" fill="#669BBC"/>
<path d="M132.088 92.2249C134.607 92.8952 135.733 94.8131 136.707 96.8783C137.032 97.5577 137.279 98.2973 137.55 98.981C137.82 99.6646 138.5 101 137.728 101.359C138.112 101.763 138.01 100.355 138.33 100.98C138.554 101.423 138.42 101.786 138.144 102.079C138.366 101.931 139.355 102.996 139 104C139.496 104.097 138.063 104.85 138.189 104.38C138.276 104.102 138.279 103.803 138.366 103.525C138.446 103.167 137.125 100.056 137.5 100C137.873 99.9166 139.306 103.072 139.435 103.333C139.84 104.006 140.374 104.588 141.123 105.153C139.646 105.675 138.274 106.162 136.956 106.645C136.784 106.522 136.801 106.386 136.79 106.251C136.775 106.062 137.153 106.735 136.929 106.645C136.5 106.5 136.375 106.798 136.139 106.898C135.876 107 135.915 106.157 136.013 106.366C136.146 106.681 136.312 107.074 135.796 107.061C135.278 107.02 134.782 107.953 134.25 107.046C133.309 105.412 132.683 103.645 132.108 101.846C131.68 100.524 131.28 99.2275 130.512 98.0678C129.679 96.7776 127.784 96.465 126.581 97.3724C126.401 97.4949 126.333 97.6629 126.426 97.8182C126.8 98.4395 126.6 98.9974 126.289 99.5367C126.244 99.6486 125.979 99.7236 126.267 99.945C127.193 100.686 127.859 101.582 128.221 102.747C128.588 103.965 129.006 105.152 129.451 106.337C129.854 107.336 129.263 109.147 128.72 108.78C129.21 109.148 129.241 107.156 129.5 107C129.655 106.907 129.944 108.142 130.219 108.527C130.461 108.86 130.205 109.043 129.915 109.147C128.964 109.466 128.015 109.811 127.037 110.131C124.741 110.934 124.768 110.932 123.972 108.718C120.945 100.172 117.945 91.6236 114.891 83.0798C114.616 82.3423 114.674 82.0396 115.467 81.7878C118.511 80.8449 121.419 79.5601 124.505 78.8037C127.03 78.1723 129.143 78.8474 130.686 80.8953C132.652 83.5064 133.614 86.44 133.112 89.7321C133.018 90.6069 132.592 91.3993 132.088 92.2249ZM124.251 84.5703C123.606 84.6478 123.099 84.7417 122.624 84.9144C122.123 85.0892 122.003 85.2883 122.178 85.7897C122.871 87.7143 123.563 89.639 124.231 91.5926C124.373 92.0153 124.545 92.1373 124.997 92.0207C126.486 91.6601 127.461 90.608 127.468 89.3064C127.467 87.2192 126.26 84.9552 124.935 84.6523C124.684 84.5635 124.386 84.5598 124.251 84.5703Z" fill="#669BBC"/>
<path d="M136.149 74.7754C136.742 75.0814 136.571 74.2815 136.998 74.1939C137.744 74.0271 138.525 73.966 139.261 74.0168C140.08 74.0883 139.5 74.0001 136.998 74.1939C140.5 73.0001 140.229 73.914 139.155 73.6999C142.874 70.9963 147.681 71.813 150.057 75.5034C151.785 78.1874 152.679 81.289 153.804 84.237C154.386 85.7908 154.944 87.3736 155.367 88.9669C155.835 90.8007 156.596 92.5573 156.613 94.5077C156.638 97.2436 155.635 99.328 153.137 100.662C151.238 101.678 149.197 102.271 147.196 103.024C146.353 103.334 145.447 103.541 144.666 103.954C143.912 104.366 143.586 104.011 143.378 103.431C142.243 100.349 141.161 97.2618 140.079 94.1749C138.721 90.3235 137.283 86.5054 136.057 82.6166C135.664 81.4004 135.086 80.2528 134.747 79.0325C134.509 78.0752 134.514 77.099 133.8 76.2874C133.385 75.832 133.814 75.4189 134.286 75.2193C134.864 74.9844 135.448 74.8302 136.028 74.6222C136.059 74.6739 136.091 74.7257 136.149 74.7754ZM147.535 97.6577C148.12 96.8258 148.862 96.6051 149.448 96.1255C150.8 95.0439 150.421 93.6639 150.046 92.3379C149.087 89.0788 147.888 85.8925 146.744 82.7021C146.64 82.412 146.312 82.031 146.675 81.8129C147.528 81.2854 146.941 81.0602 146.537 80.7395C146.306 80.5677 146.103 80.3939 145.947 80.135C144.834 78.3788 143.66 77.9285 141.94 78.4696C141.226 78.6882 141.087 78.9972 141.36 79.7078C143.09 84.5059 144.794 89.3061 146.471 94.1085C146.854 95.1899 147.342 96.2361 147.535 97.6577Z" fill="#669BBC"/>
<path d="M190.265 87.0495C190.024 87.0954 189.931 87.2925 189.782 87.4668C189.484 87.8154 189.303 88.6157 188.697 88.1481C188.264 87.8025 187.807 87.1605 188.61 86.3387C187.864 86.5055 187.549 86.2862 187.291 85.7642C186.129 83.3883 184.81 81.079 183.52 78.7945C182.014 76.1745 180.613 73.5191 179.028 70.9324C178.285 69.7436 177.141 68.7963 178.5 68.5002C179.114 68.3709 179.001 68.0001 180 67.5002L180.501 67.0001C180.779 67.0868 181.001 65.5001 182.125 67.4213L181.001 68.0001C181.03 68.025 180.552 67.8856 180.579 67.8835C181.18 67.9449 181.593 66.9909 182.143 67.4358C182.577 67.7814 182.766 68.4714 183.08 69.0161C184.457 71.3751 185.733 73.8233 186.771 76.3445C187.239 77.4735 187.943 76.6492 189 77.0002C189.307 77.1117 189.736 78.5522 189.771 79.0102C189.832 79.4392 190.07 79.3663 190.302 79.2126C190.667 79.0215 189.762 80.2237 189.5 80.0002C188.83 79.402 188.851 77.6455 188.018 77.3854C187.574 77.2575 187.375 77.1375 187.252 76.605C185.837 70.6436 185.012 64.609 183.945 58.5934C183.808 57.8723 184.002 57.586 184.69 57.3695C186.778 56.6911 188.86 55.9318 190.915 55.1747C191.469 54.9688 191.69 55.0327 191.898 55.6128C193.195 59.3607 194.52 63.1333 195.843 66.879C195.308 66.6227 194.873 66.6026 194.708 67.266C194.584 67.7637 194.514 68.257 194.415 68.7256C194.853 68.7727 194.144 64.9187 194.708 65.1998C194.221 64.1807 195.604 67.6297 195.841 66.8521C196.881 69.7525 197.921 72.6529 198.993 75.6051C198.512 75.6969 199.001 75.5001 199.001 76.0001C198.949 75.6789 198.777 76.2616 199.001 76.0001C198.846 76.0936 199.08 76.3192 199.001 76.0001C199.06 75.9134 199.28 76.5043 199.421 76.9269C200.149 78.9572 200.85 80.9896 201.608 83.0448C201.046 83.1429 201.501 83.0001 201.501 83.0001C202.352 83.8281 200.571 84.3457 199.585 84.5584C199.239 84.6397 198.899 84.8018 198.553 84.8831C197.863 85.0726 196.944 85.7951 196.562 85.4184C195.97 84.787 195.861 83.7383 195.547 82.8413C195.403 82.3917 195.753 82.3643 196.027 82.3971C196.328 82.4278 196.61 82.5684 197.112 82.746C196.684 82.1289 197.922 82.8046 197.001 83.5001C196.771 83.6807 195.16 82.0583 195.251 81.8343C195.565 80.9965 194.829 80.5933 194.594 80.0153C194.188 78.9899 193.92 77.9809 194.461 76.9355C193.957 76.731 193.995 77.2159 193.697 77.2121C192.315 73.0644 190.931 68.8898 189.548 64.7151C189.496 64.7462 189.415 64.7525 189.363 64.7837C189.825 67.5667 190.313 70.3477 190.773 73.1038C190.882 73.8001 190.831 74.5359 191.151 75.1615C191.662 76.1515 191.441 75.7323 191.373 76.605C191.5 78.0002 190.977 77.0997 191.458 77.0078C191.765 78.8542 192.072 80.7006 192.406 82.5449C192.494 82.9717 192.746 84.611 192.406 84.7732C191.36 85.2616 192.229 85.7685 191 86.0002C190.868 86.0377 189.009 85.5485 188.943 85.7434C189.639 85.6347 190.325 85.7437 190.943 85.6682C191.722 85.5802 191.943 84.5871 192.619 83.8836C192.799 84.7912 192.912 85.5413 193.108 86.3121C193.195 86.7389 192.963 86.8927 192.646 86.9988C192.066 87.2068 191.484 87.3879 190.906 87.6229C190.038 87.9618 190.369 87.3396 190.265 87.0495C190.536 87.0554 190.69 86.935 190.639 86.6408C190.633 86.5599 190.463 86.4648 190.411 86.496C190.15 86.6248 190.25 86.8609 190.265 87.0495ZM189.141 86.8935C189.193 86.8623 189.272 86.8291 189.297 86.8C189.319 86.744 189.261 86.6943 189.228 86.6156C189.176 86.6468 189.097 86.6801 189.075 86.736C189.05 86.7651 189.11 86.8417 189.141 86.8935Z" fill="#669BBC"/>
<path d="M59.5754 111.208C60.2014 111.24 60.5542 111.592 61.056 111.77C61.1094 111.413 60.1791 112.102 60.2615 111.77C59.5 111 59.1745 111.652 58.5 111C58.06 110.574 57.5 111.5 57.2755 110.222C59.1228 110.62 59.1808 110.67 59.517 112.541C60.2062 116.499 60.7876 120.465 61.5845 124.415C61.8014 125.455 60.9793 126.034 60.8893 126.963C61.341 126.846 61.3839 126.355 61.7939 126.052C62.1553 128.246 62.5084 130.333 62.8614 132.42C62.9511 132.874 62.688 132.976 62.3441 133.084C61.4988 133.367 60.5933 133.573 59.7855 133.989C58.8472 134.469 58.2872 134.241 58.0227 133.286C57.7271 132.279 56.9116 131.557 56.5124 130.612C56.2505 130.037 55.8063 129.556 55.8054 128.852C55.8192 128.335 55.1684 128.332 54.9439 127.889C54.1397 126.271 53.2049 124.718 52.2971 123.162C52.0146 122.669 51.1872 121.486 51.5016 121C52.298 119.745 52.013 116.219 52.502 114.5C53.4039 116.327 55.8883 120.903 56.7881 122.703C56.8582 120.827 56.3297 119.269 55.9359 117.7C55.6234 116.478 55.6595 115.553 56.7072 114.739C57.0903 114.438 56.0303 117.579 56.5 117C55.2379 117.153 56 116.5 55.5365 115.021C55.2329 114.258 55.2151 113.338 55.0626 112.428C54.5887 109.836 54.1936 107.21 53.7197 104.618C53.5861 103.951 53.7537 103.667 54.4146 103.452C56.5278 102.745 58.6368 101.984 60.7458 101.222C61.3259 101.014 61.5541 101.159 61.76 101.712C62.6027 104.167 63.3936 106.653 64.3936 109.042C64.6598 109.672 63.7716 110.446 64.4868 110.58C65.3701 110.782 65.1491 111.422 65.2906 111.845C66.4554 114.953 67.5415 118.093 68.6275 121.234C69.5346 123.82 70.4417 126.405 71.3757 128.989C71.6128 129.594 71.5779 129.84 70.89 130.057C69.6178 130.427 68.3541 130.906 67.1194 131.409C66.4379 131.706 66.1807 131.537 65.9933 130.874C65.1666 127.929 64.2073 125.023 63.221 122.118C62.1223 118.816 61.0505 115.511 59.8731 112.242C59.767 111.925 59.6878 111.606 59.5754 111.208Z" fill="#669BBC"/>
<path d="M160.035 89.7403C159.857 89.8898 159.776 90.2484 159.472 90.1639C159.167 90.0793 159.274 89.7185 159.257 89.503C158.438 84.5793 157.646 79.6535 156.879 74.6987C156.827 74.3775 156.799 74.2486 156.799 73.5653C156.5 72.0002 156.186 71.2404 156.537 71.5654C156.769 71.764 159.032 72.2537 159.5 72.0002C160.02 71.7156 159.069 73.931 158.988 73.5849C158.909 73.2658 158.883 72.9426 158.858 72.6193C158.464 72.4332 158.203 72.9144 157.872 72.8319C157.181 72.6691 156.491 72.5062 156.39 71.5654C156.281 70.5167 156.116 69.4454 155.899 68.4052C155.765 67.7379 155.987 67.4495 156.575 67.3493C157.593 67.1883 158.439 66.2275 159.611 66.6509C160.078 65.6927 161.154 65.9338 161.877 65.4707C162.392 65.1322 162.631 65.4117 162.883 65.8528C167.754 74.4171 172.653 82.9792 177.552 91.5414C177.894 92.1109 177.774 92.3101 177.165 92.4932C175.763 92.9283 174.337 93.4193 172.97 93.96C172.313 94.2283 172.056 94.0586 171.848 93.4785C171.746 93.2154 171.617 92.9544 171.461 92.6955C171.11 92.0182 171.012 91.4567 172.104 91.561C171.82 91.0411 171.465 90.6623 171.023 90.5613C170.335 90.4254 170.007 90.0444 169.797 89.4374C169.487 88.5942 168.934 89.1525 168.565 89.2897C167.961 89.5268 166.275 90.1316 166.191 89.4063C166.128 88.9504 165.989 88.5162 165.5 88.5002C165.011 88.4843 165.5 87.5002 165.879 87.1687C165.957 88.5179 165.957 88.5179 167.403 89.6788C166.956 89.8494 166.587 89.9867 166.191 90.126C164.952 90.5754 164.742 90.9985 165.348 92.1709C165.928 93.3453 165.924 94.6739 166.319 95.917C166.425 96.234 166.245 96.3566 165.955 96.4606C164.345 97.0202 162.762 97.5777 161.18 98.1353C160.732 98.3058 160.637 98.1236 160.578 97.7216C160.254 95.6597 159.959 93.6225 159.581 91.5648C159.439 90.7898 159.495 90.6241 159.5 90.0002C159.798 89.6516 159.427 90.6282 159.472 90.1639C159.47 90.1369 160.052 88.9691 160 89.0002C160 88.5002 160.221 89.3463 160.035 89.7403ZM161.41 73.016C161.354 73.3456 161.309 73.4575 161.317 73.5653C162.144 76.5095 162.679 79.5309 163.292 82.5189C163.882 85.2106 163.801 85.2169 166.432 84.1978C167.037 83.9607 166.991 83.7204 166.74 83.2793C166.36 82.5771 166.085 81.8396 165.653 81.1686C165.096 80.2905 165.191 79.768 166.229 79.5241C166.256 79.522 166.275 79.4121 166.366 79.1882C163.191 78.4607 163.152 75.1838 161.41 73.016Z" fill="#669BBC"/>
<path d="M35.502 123C35.8803 122.293 37.2093 125.752 36.9827 125.282C36.002 124.5 36.8567 124.018 37.7686 123.892C38.8399 123.727 39.6899 123.85 40.2137 125.002C40.7397 126.181 41.45 127.291 42.1333 128.403C42.5384 129.076 42.8151 129.841 43.2201 130.514C43.6231 131.16 44.1068 131.8 44.458 132.477C44.9317 133.334 45.4033 134.165 45.9039 135.02C46.3734 135.824 46.7932 136.686 47.3145 137.458C47.7132 138.05 47.6223 138.274 46.9345 138.491C45.5588 138.924 44.1873 139.411 42.8469 139.949C42.1902 140.217 41.9061 140.05 41.613 139.422C41.0247 138.14 40.3329 136.92 39.7447 135.638C39.487 135.116 39.2297 134.946 38.6787 135.179C37.7071 135.58 36.7314 135.928 35.7244 136.223C35.0883 136.409 34.9768 136.716 35.1331 137.327C35.483 138.682 35.7274 140.072 36.0795 141.454C36.2336 142.039 36.1511 142.37 35.4881 142.558C34.0316 142.997 32.6083 143.515 31.1871 144.06C30.5822 144.297 30.4618 144.144 30.3637 143.582C29.9579 140.822 29.4983 138.066 29.0678 135.335C28.5243 131.853 28.0078 128.37 27.3587 124.924C27.1292 123.722 27.184 124.287 27.002 123C26.8096 123.313 27.1475 121.877 26.98 122.161C26.5578 119.538 26.142 116.995 25.6993 114.454C25.5991 113.866 25.6836 113.561 26.3445 113.347C28.1429 112.772 29.908 112.119 31.6461 111.468C32.1206 111.296 32.3942 111.328 32.6767 111.821C34.7854 115.56 36.921 119.296 39.0566 123.032C39.1169 123.109 40.14 124.77 40.1796 124.93C39.0417 124.937 36.3943 124.28 35.502 125C35.2473 125.21 35.4726 124.343 35.414 123.941C35.366 123.674 35.7945 123.261 35.2451 123.168C34.8305 123.065 35.2587 124.259 35.002 124.442C34.9502 124.473 34.2042 124.415 34.2063 124.442C33.2377 122.5 32.5245 120.616 31.221 119.2C31.488 120.534 31.7799 121.84 32.0844 123.307C30.813 122.647 32.002 122.161 32.2393 123.941C31.9372 124.58 30.4334 124.032 31.3638 123.797C32.0289 123.637 32.2634 123.862 32.3679 124.505C32.7373 126.454 33.1876 128.398 33.5839 130.346C33.7111 130.932 33.9435 131.131 34.5173 130.842C35.3003 130.456 36.5253 130.522 36.798 129.851C37.0005 129.32 36.1971 128.407 35.8396 127.648C35.3221 126.578 34.7529 125.538 34.2063 124.442C35.5883 124.09 34.5309 120.637 35.502 123Z" fill="#669BBC"/>
<path d="M79.179 97.801C80.2607 99.1531 81.1622 100.628 81.726 102.291C81.9694 102.977 81.8642 103.365 81.1225 103.585C80.1943 103.848 79.3056 104.27 78.3504 104.534C78.1122 104.607 76.8737 105.409 76.7751 104.495C76.2059 103.455 75.8664 102.1 74.6489 101.436C74.6489 101.436 74 101 73.1656 101.436C72.5145 101.777 71.9619 102.567 72.3177 103.651C72.7776 105.024 73.4256 106.031 74.697 106.69C75.6864 107.209 76.7666 107.504 77.8263 107.882C79.0249 108.304 80.1944 108.7 81.3702 109.177C84.5037 110.423 85.8772 113.081 86.789 116.072C87.403 118.03 87.6689 120.042 87.0953 122.066C86.823 123.09 85.8113 125.168 85 124.5C84.7966 124.326 83.9815 123.08 83.6851 123.103C83.281 123.134 84.1872 121.968 84.0075 122.443C83.8071 123.001 84.4373 123.087 84.7775 123.278C86.0241 123.966 86.1159 124.447 84.9895 125.294C83.2253 126.652 81.2552 127.457 78.923 127.097C78.9305 126.5 79.5 127.5 78 127C77.4283 127.316 78.059 125.755 78.0081 126.491C77.9758 127.117 77.6546 127.169 77.1237 126.967C75.867 126.496 74.8318 125.736 74.0427 124.66C73.0688 123.299 72.068 121.941 71.9289 120.163C71.8994 119.785 71.1816 119.272 71.4817 118.951C71.8045 118.573 72.5029 118.491 73.027 118.26C73.7624 117.959 76.5 116.5 76.7048 117.877C76.9582 118.345 76.7048 118.306 76.7048 118.84C76.277 118.223 75.7789 117.747 76.5096 117.039C76.8111 117.775 77.0588 118.514 77.383 119.194C77.8736 120.267 78.3187 121.452 79.7677 121.609C80.1071 122.83 81.6731 122.057 82.1615 123.103C82.2925 123.391 82.5097 123.048 82.6629 122.928C82.9218 122.772 83.8331 123.758 83.7413 123.278C84.5 124 81.1874 124.163 81 123.5C80.925 123.235 79.7412 121.964 79.7677 121.609C83.5 119.5 80.2495 115.988 78.126 115.178C76.7283 114.637 75.283 114.18 73.9122 113.637C69.2939 111.776 66.7436 107.936 66.8138 102.943C66.8183 101.614 67.2105 100.391 67.9344 99.25C68.2489 98.7646 68.4787 98.584 69.0016 99.031C69.4664 99.4284 70.02 99.5748 70.5478 99.0456C70.4232 98.8384 70.1389 100.043 70 100C69.5832 99.87 68.0469 99.8866 67.9344 99.4888C67.8199 99.0641 69.4889 97.6375 69.8265 97.4485C71.4068 96.5116 73.0995 95.9726 74.9754 96.0427C75.6014 96.075 76.2154 96.4801 76.5 97C76.8533 97.7043 77.2311 97.519 78.3504 97.6212C78.678 97.6498 78.4202 99.1887 78.7418 99.4888C78.8871 99.613 77.5674 100.156 77.8263 100C78.0313 99.8484 75.4899 96.7176 75.5 96.5C75.545 96.0357 78.3504 97 79.179 97.801Z" fill="#669BBC"/>
<path d="M107.22 103.848C107.002 105 106.821 104.921 106.502 105C104.753 105.517 104.24 107.185 104.157 105.429C103.703 105.519 103.81 103.22 103.424 103.494C102.765 101.648 102.139 99.881 101.51 98.0868C100.431 95.0269 99.3509 91.9669 98.2173 88.9111C97.9739 88.2254 98.1145 87.9433 98.8002 87.6999C102.629 86.3974 106.455 85.0679 110.249 83.6598C111.013 83.3831 111.243 83.5548 111.46 84.2427C111.857 85.5127 112.336 86.7764 112.76 88.0444C112.866 88.3614 113.362 88.8105 112.787 89.0724C112.289 89.3011 111.728 89.7516 111.164 89.4704C110.656 89.212 109.638 90.5438 110.002 90.0002C109.167 90.0656 110.071 88.6615 110.169 89.223C110.313 90.025 110.029 90.2098 109.24 90.1631C108.502 90.5002 108.603 90.2778 107.502 91.0002C106.749 91.4407 106.93 91.4823 105.826 91.5688C105.556 91.5898 105.606 91.8841 105.677 92.0954C106.164 93.4669 106.704 94.8342 107.14 96.2369C107.358 96.9517 107.689 96.6818 108.176 96.6708C108.744 96.6535 109.381 95.438 109.94 96.6954C110.005 96.8259 110.206 96.6204 110.253 96.5354C110.623 95.368 111.738 95.4162 112.579 95.0794C114.342 94.3993 114.213 94.4907 114.993 96.1375C115.741 97.7325 115.061 99.0868 114.769 100.546C114.692 100.959 114.342 100.986 114.025 101.092C112.759 101.544 111.52 101.993 110.255 102.445C110.097 102.511 109.915 102.607 109.751 102.592C109.37 102.568 109.736 103.434 109.221 103.095C108.736 102.78 109.193 102.392 109.303 102.058C109.633 101.084 108.63 105.291 108.502 104C107.136 105.246 108.842 103.848 108.117 103.181C109.857 103.94 109.857 103.94 110.516 105.786C110.726 106.393 110.963 106.997 111.148 107.634C111.402 108.454 111.576 109.281 112.744 108.62C112.899 108.527 113.034 108.516 113.208 108.665C113.88 109.29 114.34 108.929 114.615 108.284C114.844 107.751 115.068 107.49 115.543 108.022C115.661 108.148 115.746 108.195 115.873 108.077C116.407 107.629 118.178 106.704 118.596 106.509C119.069 106.309 119.22 106.514 119.362 106.937C119.859 108.443 120.383 109.947 120.959 111.42C121.261 112.155 120.923 112.344 120.343 112.552C116.517 113.882 112.719 115.236 108.893 116.566C108.047 116.849 107.649 116.609 107.658 115.686C107.645 115.172 108.111 114.54 107.153 114.425C107.126 114.427 107.122 114.373 107.118 114.319C106.073 111.365 105.029 108.41 103.982 105.429C103.808 104.928 103.971 104.59 104.597 104.622C105.6 104.625 106.362 104.321 107.22 103.848Z" fill="#669BBC"/>
<path d="M91.2988 108.563C91.0791 108.526 90.8947 108.595 90.7865 108.251C89.9766 105.522 88.6903 102.939 88.1187 100.138C87.9894 99.5244 87.4622 99.0235 87.2479 98.3626C87.1397 98.0187 86.8084 98.2886 86.5971 98.3593C85.5405 98.7131 84.4859 99.0937 83.4314 99.4744C82.9052 99.6782 82.6047 99.6475 82.3924 99.0136C81.9574 97.6109 81.4146 96.2167 80.9526 94.8162C80.8798 94.5779 80.5602 94.3047 80.9205 94.0597C81.1773 93.8769 81.3743 93.9699 81.6606 94.1644C82.1191 94.4809 82.5064 94.2337 82.6465 93.5993C82.7062 93.3235 82.9218 93.3067 83.1331 93.2359C87.1171 91.8399 91.1011 90.444 95.056 89.0231C95.5574 88.8484 95.7253 88.9166 95.9001 89.418C96.3953 90.8972 96.9154 92.3474 97.4624 93.7955C97.6372 94.2968 97.5172 94.496 97.0137 94.6438C95.955 94.9706 94.909 95.4591 93.846 95.732C92.9696 95.9632 92.9452 96.3446 93.2219 97.1091C95.7182 104.07 98.1897 111.06 100.659 118.023C101.111 119.289 100.924 119.683 99.5795 119.815C99.1215 119.851 98.8293 119.928 98.4151 120.178C97.6406 120.672 96.6791 120.856 95.811 121.195C95.4941 121.301 95.2431 121.212 95.2717 120.884C95.4135 119.925 94.422 119.379 94.4354 118.51C94.426 117.698 94.0543 117.103 93.7279 116.397C92.7114 114.145 92.0077 111.734 91.1756 109.413C91.0695 109.096 90.9924 108.804 91.2429 108.541C91.2677 108.511 91.3195 108.48 91.3422 108.424C91.3152 108.426 91.2862 108.402 91.2593 108.404C91.2925 108.482 91.2967 108.536 91.2988 108.563Z" fill="#669BBC"/>
<path d="M50.6739 123.56C52.165 127.374 53.6313 131.217 55.1224 135.031C55.3283 135.584 54.9802 135.638 54.6384 135.774C53.3456 136.227 52.0238 136.656 50.7622 137.161C49.9998 137.465 49.8107 137.127 49.5716 136.495C47.6513 131.007 45.7062 125.548 43.759 120.062C42.5066 116.528 41.2811 112.991 40.0018 109.459C39.7584 108.773 39.8763 108.547 40.5641 108.331C42.6525 107.652 44.7055 106.868 46.7897 106.136C47.1854 105.997 47.5891 105.613 47.9693 106.315C48.3786 107.042 47.7029 107.067 47.4567 107.385C47.407 107.443 47.3843 107.499 47.3367 107.584C47.4778 107.654 47.652 107.803 47.7038 107.772C48.7806 106.983 48.8898 108.032 49.2035 108.577C50.6784 111.145 52.1286 113.742 53.5766 116.312C53.8903 116.857 53.8844 117.129 53.4437 117.732C52.9306 118.45 52.1999 119.158 52.1183 120.194C52.0961 120.603 51.6945 121.014 51.4091 121.524C50.1792 119.316 48.9889 117.268 47.8234 115.19C47.7447 115.224 47.6929 115.255 47.6142 115.288C48.6707 118.052 49.6982 120.79 50.6739 123.56C50.4214 123.797 50.0618 123.012 49.8366 123.599C49.6114 124.186 49.7671 122.449 50 123C50.306 122.407 50.2653 123.599 50.6739 123.56Z" fill="#669BBC"/>
<path d="M59.9978 72.9809C61.161 73.2965 61.188 73.2943 60.6383 74.5843C60.2705 75.4263 60.2349 76.7031 59.4456 77.0089C58.7329 77.2544 57.7393 76.6815 56.854 76.4526C55.191 75.9864 53.5281 75.52 51.8673 75.0807C51.3966 74.9549 50.8948 74.7773 50.3956 74.9791C51.491 75.815 52.7995 76.2548 53.9901 76.9206C55.3217 77.6568 56.6534 78.3929 58.0077 79.0731C58.5719 79.3542 58.7277 79.6131 58.4217 80.2063C57.9978 81.0256 57.715 81.9152 57.3287 82.867C57.002 83.5002 57.3724 82.7585 57.002 83.5002C56.502 83.5002 54.9763 82.9426 54.0349 82.691C52.6499 82.3114 51.2194 82.0438 49.7888 81.7762C48.9368 81.626 48.118 81.5546 48.5826 80.2171C48.2442 81.4363 47.5042 81.3315 46.6209 81.1296C44.4688 80.6474 42.3188 80.1921 40.1461 79.7929C39.321 79.6405 39.3559 79.3938 39.5705 78.6722C39.8058 77.8677 40.6611 77.3671 40.5583 76.3992C40.5288 76.0221 40.9123 76.0734 41.2171 76.158C43.2699 76.7564 45.3184 77.3009 47.3236 77.9843C47.9643 78.2052 48.4334 78.6565 49.2374 78.5394C49.8529 78.437 50.5353 78.8444 51.1946 78.9555C50.1572 78.1692 49.095 77.412 47.888 76.883C47.608 76.7694 47.038 76.7597 47.2859 76.1168C47.3541 75.9489 47.0181 75.8126 46.8005 75.8025C44.8977 75.7345 43.5963 74.3454 42.0428 73.5453C41.5056 73.2621 41.8533 72.8553 42.2157 72.6372C42.5285 72.4772 42.9057 72.4477 43.2765 72.3374C42.93 72.0663 42.6009 72.3631 42.2918 72.2247C42.2876 72.1708 42.2274 72.0941 42.2501 72.0381C43.0805 69.8317 43.1032 69.7757 45.4317 70.4339C46.2901 70.6649 47.3615 70.4997 47.8748 71.5168C48.334 70.8032 48.8902 71.3289 49.3857 71.4257C50.018 71.5389 51.1104 71.4617 51.002 72.5002C50.9591 72.9915 51.502 73.5002 51.4618 74.0553C51.183 73.2639 50.9666 72.576 50.6899 71.8116C51.8051 71.8599 52.8193 72.3497 53.8932 72.5639C53.974 72.5576 54.1399 72.5988 54.1626 72.5428C54.235 72.4287 54.123 72.3833 54.0132 72.3648C51.8644 71.2318 49.6907 70.1278 47.5895 68.9097C46.6519 68.3596 45.6213 68.0065 44.6837 67.4564C44.2855 67.2165 44.192 67.0611 44.3738 66.6132C44.814 65.6571 44.9469 64.2372 45.6491 63.8569C46.2725 63.51 47.3145 64.7024 48.1671 65.205C51.9549 67.5381 55.7178 69.9002 59.4787 72.2354C59.7069 72.3802 60.0365 72.4357 60.1426 72.7526C60.1447 72.7796 60.1199 72.8086 60.122 72.8356C60.0972 72.8646 60.0703 72.8668 60.0185 72.8979C59.5736 73.4478 58.5139 73.0699 58.3743 74.0567C58.6432 73.6832 59.1097 73.7551 59.4494 73.593C59.6919 73.574 60.3179 73.6064 59.9978 72.9809Z" fill="#669BBC"/>
<path d="M180.292 68.0148C179.578 67.908 179.15 68.321 178.726 68.7879C178.425 69.1096 178.126 69.7836 177.751 68.8099C177.507 69.1543 177.946 69.3444 177.751 69.6307C177.827 70.2345 178.001 70.0002 178.154 70.8386C178.45 70.8154 178.48 71.1926 178.551 71.4039C179.304 73.4051 180.081 75.3773 180.78 77.3828C180.986 77.9359 181.116 78.5493 181.452 79.038C182.067 79.9658 182.27 81.3198 182.153 82.2506C181.83 82.2759 182.629 82.0596 182.347 82.2714C182.76 82.3475 181.4 82.1865 181.655 81.9768C181.798 81.7217 181.942 81.4935 182.153 81.0704C182.769 82.7029 183.374 84.2006 183.923 85.6757C184.331 86.7281 184.685 87.7847 185.117 88.8081C185.288 89.2555 185.418 89.5435 184.755 89.7309C183.353 90.166 181.956 90.6818 180.562 91.2246C180.115 91.3951 179.945 91.3 179.774 90.8525C177.673 84.7822 175.574 78.739 173.445 72.6708C172.576 70.2179 171.708 67.7918 170.76 65.3721C170.423 64.531 170.744 64.4788 171.401 64.5629C171.435 64.6417 171.47 64.7473 171.503 64.8261C171.611 64.8176 171.692 64.8113 171.8 64.8029C171.795 64.749 171.789 64.6682 171.762 64.6703C171.594 64.6021 171.52 64.6892 171.503 64.8261C171.847 64.7178 171.646 64.5709 171.552 64.4156C171.432 64.2624 171.31 64.0822 171.123 64.1239C169.986 64.484 170.15 63.4681 169.975 62.9667C169.699 62.2023 170.522 62.3276 170.839 62.2215C172.761 61.5018 174.715 60.834 176.642 60.1682C177.067 60.406 176.238 60.9045 176.871 61.0177C177.2 61.0732 177.31 60.7394 177.396 60.4615C177.661 59.6818 177.912 60.123 178.13 60.4854C179.294 62.5359 180.459 64.6133 181.683 66.7404C181.074 66.9236 180.549 67.1543 180.382 67.7909L180.407 67.7618C180.275 67.7993 180.115 67.8389 180.184 68.0232L180.292 68.0148Z" fill="#669BBC"/>
<path d="M153.5 42.5C152.952 43.1122 151.53 46.5731 150.43 46.7134C150.322 46.7219 150.181 47.0039 150.194 47.1656C150.214 48.4652 149.272 49.2437 148.583 50.1379C145.655 53.9452 141.864 52.2629 139.981 50.0248C139.085 48.9564 139.089 47.6278 139.149 46.3219C139.166 46.1851 138.92 45.12 139.789 45.8381C139.935 45.9623 139.974 45.7695 139.969 45.7157C140 46.0002 139.611 46.0532 139.241 45.8381C138.93 45.6727 139.69 44.5719 139.808 44.3458C139.973 44.0347 140.224 44.1235 140.448 44.2144C140.865 44.3444 139.599 44.6913 140 44.0002C140.271 43.5337 140 44.0002 140.271 43.3337C141.779 40.7761 143.168 38.0922 145.246 35.8966C146.699 34.3733 148.461 34.0186 150.422 34.841C152.413 35.6882 153.951 36.9776 154.085 39.3796C154.123 39.8646 153.68 42.6341 153.097 42.8152C152.12 43.1357 153.991 41.5168 153.5 42C153.685 42.6361 152.634 44.0506 152.117 44.3622C151.522 44.7339 152.578 43.7204 151.82 44.7342C151.876 44.757 153.442 42.4503 153.5 42.5ZM143.416 45.4189C142.5 45.5002 142.5 46.0002 142.428 44.2221C142.406 44.9829 142.734 45.3638 143.416 45.4189C143.448 45.823 143.172 46.1156 143.011 46.4806C142.641 47.2957 142.59 48.0315 143.47 48.532C144.322 49.0345 144.908 48.555 145.403 47.947C146.367 46.7602 147.103 45.4286 147.898 44.1466C148.717 42.8356 149.565 41.5494 150.183 40.0915C150.501 39.3076 150.396 38.6652 149.658 38.235C148.919 37.8049 148.317 38.0689 147.849 38.6748C147.334 39.3657 146.85 40.1083 146.332 40.7722C146.111 41.0606 146.11 41.7384 145.405 41.387C145.237 41.3188 145.125 41.6257 145.349 41.7166C145.795 41.8715 145.54 42.0811 145.42 42.2803C144.771 43.334 144.094 44.3899 143.416 45.4189Z" fill="#669BBC"/>
<path d="M90.2654 41.3096C90.71 42.1423 90.8562 42.9711 90.7889 43.8438C90.7704 43.9537 90.7292 44.1196 90.7583 44.1444C91.7661 44.5535 91.1225 45.3358 91.227 45.9782C91.4296 47.1822 90.6567 47.351 89.8611 47.5759C87.7416 48.2026 85.7136 47.5751 84.5381 45.7154C82.5566 42.5633 81.1779 39.1472 80.3276 35.5543C79.7232 33.0264 80.5127 31.3382 83.0439 30.0829C84.0092 29.6008 85.1635 29.4563 86.2702 29.3968C87.0537 29.3626 88.0838 29.3634 88.0006 30.7252C87.9741 31.0797 86.675 29.8507 87 29.5C87.149 29.3257 88.6985 30.2911 89.0867 30.7486C89.2652 30.9515 90.5321 32.0247 90 32.5C89.955 32.656 89.3686 33.0915 90 32.5C90.1919 31.8344 89.2251 33.557 89.212 33.043C89.2031 32.5828 89.217 32.0668 89.6956 31.948C90.1452 31.8044 90.2164 32.3681 90.3474 32.656C91.7024 35.4234 92.9517 38.2261 93.7267 41.2015C94.2704 43.3004 93.8168 45.125 91.9512 46.5721C91.648 46.1621 90.3782 45.9979 90.502 45.5002C90.6484 44.9466 90.8007 45.2499 90.3481 44.6618C89.9557 44.1504 90.2372 43.4276 90.502 43.0002C89.7804 42.7856 90.7037 42.0615 90.2654 41.3096ZM89.502 40.0002C89.0151 38.6288 88.3796 38.0549 88.502 36.5002C88.5 36.5261 88.7553 37.2532 88.7045 37.9891C88.2649 37.915 88.3205 37.5854 88.2228 37.3762C87.6636 36.1188 87.21 34.826 86.4955 33.6621C86.0883 32.9621 85.4994 32.71 84.764 33.0115C84.0016 33.3151 83.7516 33.931 83.9723 34.6728C84.9152 37.7163 86.0673 40.6622 87.5613 43.4729C87.9124 44.1502 88.5326 44.4541 89.2928 44.1235C90.0552 43.8199 90.2513 43.2083 90.0824 42.4354C89.8322 41.3164 89.3686 40.2413 88.9589 39.1619C88.8591 38.9258 88.4502 38.5512 88.9786 38.3743C89.3225 38.2661 89.6917 38.4811 89.8063 38.9058C89.9039 39.1151 89.502 39.0002 89.502 40.0002Z" fill="#669BBC"/>
<path d="M94.4278 28.7045C94.3524 28.0869 94.2833 27.5502 94.2142 27.0134C94.1973 26.7979 94.0975 26.5617 94.3316 26.435C94.5656 26.3083 95.7931 26.2725 96.0007 26.5002C94.3328 26.6042 97.6603 25.3069 98.5007 26.0002C98.5297 26.025 98.204 27.2344 98.2537 27.1763C98.4005 26.975 98.1651 27.2735 98.0219 27.1763C97.6485 26.9073 97.4552 26.5159 97.6972 26.1445C98.0117 25.6591 98.5985 25.8843 99.0793 25.7925C99.6139 25.6964 99.6249 26.1835 99.6771 26.5047C99.8149 27.2258 100.545 27.9005 100.014 28.7282C99.9165 28.8714 100.008 28.9998 100.124 29.0991C101.251 29.9869 101.114 31.3529 101.557 32.511C102.002 33.696 102.316 34.9454 103.004 36.1114C102.997 35.6782 103.044 35.2409 102.981 34.7849C102.82 33.4151 102.97 32.2106 104.561 31.7609C104.853 31.6838 105.033 31.2089 105.402 31.424C105.771 31.639 105.805 32.0702 105.783 32.4785C105.716 33.7036 105.676 34.9265 105.636 36.1494C105.573 38.1061 105.453 40.0402 105.416 41.9948C105.396 42.7824 105.152 43.1268 104.319 43.2191C102.491 43.4163 102.495 43.4702 101.898 41.7278C101.617 40.9095 101.415 40.0579 101.056 39.2728C100.792 38.67 101.001 39.0002 100.501 38.0002C100.419 37.5978 100.494 37.9885 100.419 37.3709C100.264 36.0819 100.501 36.5002 99.5007 34.0002C99.0007 33.0002 99.0007 33.0002 98.5499 31.4993C98.4485 31.5886 98.347 31.6778 98.2207 31.7961C98.6175 34.0963 99.0144 36.3965 99.3842 38.6988C99.637 40.197 99.8628 41.6973 100.143 43.1934C100.232 43.6472 100.17 43.8961 99.6542 43.8823C99.6273 43.8844 99.5734 43.8886 99.5465 43.8907C96.6578 44.3878 96.6578 44.3877 96.2415 41.4927C95.7039 37.7398 95.1664 33.9868 94.6267 30.2069C94.4404 28.8661 94.517 28.8059 95.7964 29.2208C96.0474 29.3096 96.2941 29.3445 96.5302 29.2447C96.7664 29.1449 97.4906 29.7178 97.5007 29.5002C97.4859 29.3116 95.6935 30.5393 95.5007 30.5002C94.9698 30.2978 95.4242 28.2741 94.4278 28.7045Z" fill="#669BBC"/>
<path d="M72.9829 39.0295C73.1577 39.5308 73.2638 39.8477 73.4739 40.4548C72.5797 39.7657 71.8106 39.6362 71.2188 40.3873C70.6248 41.1114 71.059 41.8093 71.3832 42.4888C72.3142 44.3405 73.6034 45.9203 74.7415 47.6475C74.8661 47.8546 75.1793 48.047 74.9807 48.2794C74.8089 48.5097 74.5311 48.4229 74.3029 48.2782C74.0478 48.1355 73.7451 48.0779 73.4904 48.2875C73.4386 48.3187 73.4264 48.5094 73.4845 48.5591C73.7212 48.8116 74.0841 48.9459 74.3699 48.788C75.277 48.2562 75.6985 48.7925 76.1823 49.4323C76.6328 49.9934 77.1932 50.573 78.03 50.1822C78.8399 49.7936 79.0588 49.1259 78.7219 48.2848C78.5244 47.8395 78.9719 47.6689 79.1954 47.4075C79.4955 47.0858 80.055 46.9607 80.0065 46.341C79.5358 46.2152 79.3561 46.6901 79.0164 46.8522C78.3122 47.2055 77.9303 46.8287 77.5648 46.3152C77.108 45.6732 77.7816 45.6206 78.0611 45.3818C78.5456 44.9915 79.1214 44.7296 79.5499 44.3166C80.2331 43.6939 80.6853 43.9296 80.9847 44.6381C81.255 45.3217 82.1863 45.791 81.69 46.7244C82.2167 46.8729 82.3561 47.2686 82.4749 47.7472C82.8686 49.3158 82.5472 50.7505 81.3837 51.8174C80.5991 52.5294 79.6402 53.0923 78.7288 53.5702C77.138 54.3724 75.4027 54.0202 74.1097 52.7389C71.3141 49.9216 69.1066 46.6516 67.4955 43.0369C66.5704 40.9136 67.3595 38.8731 69.335 37.4445C71.4368 35.8975 73.5446 35.8139 75.4223 37.2935C76.1734 37.8853 76.85 38.5643 77.3527 39.4466C77.6353 39.9395 77.6168 40.0494 77.2025 40.2986C76.6082 40.6704 76.0698 41.0649 75.4754 41.4367C75.1896 41.5946 74.8524 42.1361 74.5804 41.7778C74.3084 41.4196 73.562 41.234 73.9859 40.4147C74.2194 39.9356 73.7917 39.3186 72.9829 39.0295Z" fill="#669BBC"/>
<path d="M52.1941 59.1973C51.6154 61.1878 51.3559 59.849 51.0003 60.5003C50 61.5002 48.874 60.2692 48.5006 60.0002C48.0421 59.6837 48.9437 58.8823 49.2624 58.4507C50.4851 56.7557 51.6788 55.0359 52.8746 53.343C53.3132 52.7123 53.7776 52.7574 54.1018 53.4368C54.2993 53.8822 54.3447 53.7702 54.8423 53.8939C55.257 53.997 55.7155 54.3135 55.9854 54.6448C56.3445 55.0775 55.6293 54.9437 55.5922 55.1634C55.2893 56.4883 54.2727 57.3539 53.5715 58.4389C53.3295 58.8102 53.4499 58.9634 53.7404 59.2118C55.8547 60.9439 55.8278 60.946 57.3898 58.7365C58.658 56.9295 58.658 56.9296 60.4111 58.202C61.5895 59.0585 61.5895 59.0586 60.7123 60.3199C60.251 61.0066 59.7897 61.6932 59.2724 62.3572C58.9765 62.7327 59.0224 62.9731 59.4186 63.186C59.4476 63.2109 59.4767 63.2357 59.5057 63.2605C60.3646 63.8439 61.2614 64.9123 62.0697 64.849C62.7432 64.7963 63.2844 63.3986 63.8699 62.5667C65.0182 60.9588 64.9912 60.9609 66.597 62.0822C68.0036 63.0836 68.0036 63.0836 67.0043 64.5171C65.8085 66.21 64.5858 67.905 63.4211 69.6497C63.0819 70.1642 62.8251 70.3469 62.2731 69.875C61.5199 69.2563 60.5659 68.843 60.1419 67.9274C59.8177 67.248 59.1757 67.7048 58.7152 67.3614C56.5305 65.7703 54.2714 64.2664 52.1116 62.6463C51.4207 62.1311 50.6553 61.703 49.9644 61.1878C49.4748 60.8195 49.5409 60.6247 50.009 60.3712C50.6842 59.9931 51.484 59.8221 52.1941 59.1973Z" fill="#669BBC"/>
<path d="M122.235 32.0587C122.131 33.1512 121.987 34.0841 121.978 35.0065C121.975 35.6573 121.678 35.6805 121.185 35.6106C120.12 35.5043 119.031 35.4539 117.937 35.3227C117.39 35.2571 117.185 35.4086 117.198 35.9226C117.2 35.9496 117.204 36.0035 117.206 36.0304C116.852 39.4736 116.941 39.5751 120.57 39.5351C122.005 39.5042 122.007 39.5311 121.849 40.9801C121.784 41.5274 121.772 42.0706 121.677 42.593C121.64 42.8128 121.804 43.1793 121.427 43.2088C121.104 43.2341 120.685 43.4295 120.486 42.9572C120.288 42.5118 120.183 42.5473 119.999 42.9683C119.91 43.2192 119.603 43.1076 119.41 43.0685C117.445 42.897 115.449 42.6737 113.486 42.5291C112.914 42.4925 112.841 42.2542 112.886 41.7899C113.399 36.2198 113.883 30.625 114.396 25.055C114.431 24.8083 114.38 24.514 114.762 24.5384C115.116 24.5649 115.133 24.7804 115.129 25.0789C115.17 25.9431 115.21 26.8075 115.278 27.6696C115.297 27.9121 115.374 28.2042 115.724 28.1768C116.018 28.1267 114.961 28.6928 115 28.5C115.082 27.8159 114.68 25.6503 114.762 24.9662C114.819 24.3112 116.561 24.6687 117.272 24.7486C119.132 24.9555 121.014 25.1065 122.898 25.2843C123.116 25.2944 123.207 25.4228 123.222 25.6114C123.237 25.8 123.222 25.9637 123.21 26.1544C123.069 28.8491 123.069 28.8491 120.392 28.5977C120.283 28.5792 120.173 28.5607 120.063 28.5422C117.932 28.3294 117.959 28.3272 117.719 30.4604C117.6 31.3642 117.795 31.7827 118.77 31.7607C119.34 31.7703 119.92 31.9147 120.496 32.0051C120.994 32.1288 121.548 32.2752 122.235 32.0587Z" fill="#669BBC"/>
<path d="M137.738 31.3606C137.5 32.0001 136.628 32.2071 136 32.5001C135.712 32.6311 134.993 31.955 134.711 31.8144C134.034 31.4878 132.756 31.4252 132.769 30.9091C132.774 29.9328 133.347 28.9392 133.731 27.9604C133.866 27.5975 134.156 27.8459 134.378 27.9098C137.115 28.9426 139.826 29.9775 142.588 30.9812C143.063 31.1609 143.212 31.339 143.006 31.816C142.636 32.631 142.563 33.7753 141.948 34.23C141.333 34.6847 140.374 33.8651 139.619 33.5718C138.976 33.3239 138.869 33.6847 138.712 34.1036C137.747 36.673 136.781 39.2154 135.818 41.8117C135.527 42.5935 134.637 44.8719 134 44.0001C133.786 43.6916 133 42.0001 133.774 41.321C132.946 42.5242 134.216 43.1568 134.634 43.3138C135.275 43.5348 135.126 43.7091 134.963 44.0471C134.601 44.9699 134.435 46.3112 133.76 46.6893C133.215 47.003 132.01 46.1485 131.067 45.87C130.457 45.7008 130.218 45.4213 130.551 44.826C130.741 44.4858 130.847 44.0981 130.979 43.7083C131.243 42.9286 131.42 42.0744 132.729 42.5142C131.416 42.0205 131.945 41.1659 132.193 40.523C133.081 38.0139 134.079 35.5232 134.994 33.012C135.172 32.5102 135.511 32.3481 135.938 32.2604C136.529 32.1871 137.14 32.0309 137.738 31.3606Z" fill="#669BBC"/>
<path d="M67.0428 59.7973C63.662 56.4294 60.306 53.0325 56.8982 49.6668C56.4873 49.2652 56.4413 49.0248 56.872 48.6387C57.6339 47.9828 58.2728 46.7942 59.0768 46.6771C59.6944 46.6017 60.4961 47.8401 61.1748 48.546C62.4989 49.8791 63.823 51.2123 65.2053 52.595C63.7714 52.9783 64.7587 53.4703 65.0412 53.9632C65.4971 53.9004 65.3182 53.3452 65.7635 53.1477C66.7348 54.1289 67.7621 55.1328 68.7646 56.1657C69.1195 56.5446 69.3372 56.5546 69.687 56.1749C70.4114 55.3863 71.1939 54.6474 71.9474 53.8837C72.2744 53.5599 72.4815 53.4353 72.8925 53.8369C75.1668 55.8817 75.1916 55.8527 73.0554 57.9987C71.9728 59.0592 70.9192 60.1446 69.8096 61.2073C69.584 61.4418 69.3816 61.9726 69.0372 61.7285C68.809 61.5837 68.1497 61.4727 68.5218 60.6845C68.7078 60.2905 67.8818 59.4334 67.5057 58.7852C67.35 58.5263 67.1154 58.3007 66.9058 58.0461C66.6267 58.6372 67.2014 59.053 67.2166 59.5939C67.1421 59.6811 67.0925 59.7392 67.0428 59.7973Z" fill="#669BBC"/>
<path d="M107.954 33.2031C107.9 32.855 107.767 32.5401 107.853 32.2622C108.051 31.3251 107.744 30.8612 106.774 30.9371C106.154 30.9856 105.988 30.592 106.047 29.9639C105.246 30.8127 106.089 33.0452 105.703 32.2622C105.316 31.4792 103.439 33.3425 103.002 34.0001C103.044 32.4517 103.266 26.9828 103.293 25.5982C103.29 25.2189 103.526 25.1192 103.821 25.069C105.188 24.8807 106.558 24.7193 107.895 24.4792C108.483 24.3789 108.587 24.669 108.621 25.1C108.878 28.0347 109.377 30.9503 109.741 33.8764C110.039 36.2928 110.424 38.7837 110.964 41.1811C111.137 42.0079 111.005 42.3978 110.082 42.3886C109.241 42.3732 108.182 43.0523 107.626 42.5265C107.157 42.0753 107.313 40.9517 107.223 40.1456C106.982 38.1043 106.714 36.0651 106.498 33.9947C106.468 33.6175 105.637 30.267 106.047 29.9639C106.459 29.6877 108.164 30.8369 108.502 31.0002C108.612 31.0187 107.842 33.1577 107.954 33.2031Z" fill="#669BBC"/>
<path d="M104.578 30.9192C104.309 31.2926 103.957 31.6455 103.451 31.7663C103.134 31.8725 102.985 31.6944 103.041 31.3648C103.112 30.8983 103.18 30.378 103.717 30.3089C104.038 30.2567 104.407 30.4717 104.578 30.9192Z" fill="#669BBC"/>
<path d="M67.2198 59.6211C67.363 59.7183 67.5125 59.8964 67.3862 60.0147C67.2102 60.1911 67.1849 59.8678 67.046 59.8245C67.0936 59.7394 67.1432 59.6813 67.2198 59.6211Z" fill="#669BBC"/>
<path d="M128.316 47.0882C128.366 47.0301 128.443 46.9699 128.492 46.9118C128.59 47.121 128.393 47.028 128.316 47.0882Z" fill="#669BBC"/>
<path d="M151.824 44.7339C151.874 44.6758 151.971 44.5328 151.998 44.5307C152.195 44.6237 152.069 44.742 152.023 44.854C151.965 44.8043 151.88 44.7567 151.824 44.7339Z" fill="#669BBC"/>
<path d="M190.259 92.5261C190.255 92.4722 190.251 92.4183 190.273 92.3623C190.329 92.385 190.356 92.3829 190.412 92.4056C190.363 92.4637 190.311 92.4949 190.259 92.5261C190.232 92.5282 190.259 92.5261 190.259 92.5261Z" fill="#669BBC"/>
<path d="M79.18 97.7739C79.1303 97.832 79.0558 97.9191 79.0061 97.9772C78.9771 97.9524 78.975 97.9255 78.9459 97.9006C78.9977 97.8695 79.1034 97.8341 79.18 97.7739C79.1821 97.8008 79.18 97.7739 79.18 97.7739Z" fill="#669BBC"/>
<path d="M135.998 74.6247C136.106 74.6162 136.236 74.5518 136.267 74.6036C136.359 74.732 136.224 74.7425 136.145 74.7758C136.087 74.7261 136.056 74.6743 135.998 74.6247Z" fill="#669BBC"/>
<path d="M99.7198 60.6293C99.8835 60.6436 99.9887 60.2558 100.142 60.4877C100.689 61.2311 101.376 61.0147 102.068 60.8521C103.268 60.5956 104.445 60.3951 105.78 60.128C105.102 61.5093 104.523 62.7744 103.861 64.0189C103.628 64.498 103.628 64.8504 103.88 65.2915C104.596 66.4824 105.234 67.7066 106.024 69.1357C104.251 68.6509 102.614 68.8603 101.122 68.1638C100.813 68.0253 100.913 68.2614 100.841 68.3755C100.597 68.7199 100.506 69.2963 99.8676 69.1023C99.7018 69.061 99.6045 69.2041 99.5591 69.3161C99.4105 69.8428 99.4965 70.5951 98.5325 70.3995C98.4765 70.3767 98.6184 71.1517 98.1773 71.4031C97.995 71.4987 97.875 71.6978 97.6246 71.9614C97.2957 70.8757 97.1078 69.8603 97.0568 68.8613C96.9909 67.6738 96.5421 66.7873 95.3208 66.422C94.9309 66.2899 94.5617 66.0748 93.9125 65.7461C95.218 65.4542 95.8098 64.7031 95.997 63.6312C96.071 63.1917 96.6991 63.2511 96.8894 62.9109C97.0796 62.5707 97.6866 62.3605 97.3978 61.7867L97.373 61.8158C97.7173 62.06 97.7813 61.8381 97.812 61.5375L97.7872 61.5666C98.5664 61.4785 99.4121 61.5478 99.6844 60.5236L99.7198 60.6293Z" fill="#669BBC"/>
<path d="M109.961 66.4692C110.972 64.1402 110.582 62.2732 108.207 61.0223C108.254 60.9373 108.331 60.8771 108.379 60.7921C109.129 60.6792 109.873 60.4854 110.629 60.4534C111.386 60.4213 111.796 60.1181 112.066 59.4193C112.337 58.7204 112.746 58.0649 113.17 57.2456C113.559 58.0555 113.964 58.7287 114.236 59.4393C114.507 60.1229 114.911 60.4436 115.674 60.4924C116.408 60.5163 117.156 60.7288 118.089 60.8727C117.483 61.4352 117.061 61.929 116.551 62.3484C115.785 62.9504 115.483 63.5975 115.804 64.5754C116.012 65.1555 116.011 65.8333 116.128 66.6373C115.308 66.2135 114.608 65.9159 113.979 65.5043C113.35 65.0926 112.834 65.0788 112.215 65.4797C111.569 65.8826 110.887 66.1799 110.208 66.5041C110.154 66.5084 110.044 66.4898 109.961 66.4692Z" fill="#669BBC"/>
<path d="M87.5811 75.268C87.4961 75.2204 87.3571 75.1771 87.326 75.1253C86.8455 73.8346 85.9412 73.3633 84.565 73.4438C83.8894 73.4696 83.4944 72.5788 84.0597 72.1822C85.6231 71.0298 85.1072 69.6335 84.6992 68.2287C84.6575 68.0422 84.6179 67.8826 84.5762 67.6961C84.5741 67.6692 84.5968 67.6133 84.6132 67.4764C85.0902 67.6831 85.6147 67.8047 86.0442 68.0963C87.1914 68.9011 88.2089 68.7402 89.2545 67.8994C89.6376 67.5984 90.0455 67.2683 90.5553 67.2013C90.5864 67.2531 90.6155 67.2779 90.5906 67.3069C89.9573 69.6064 90.4012 71.4692 92.9811 72.5685C91.962 73.0548 91.1474 73.0372 90.3787 73.26C90.14 72.9805 89.4609 72.6928 89.5 72.5C89.5492 72.0895 90.2384 72.1596 90.006 71.9609C89.8898 71.8616 90.4511 73.1459 90.3787 73.26C90.1573 73.5484 89.7903 73.2453 90 73.5C89.5 73.5 89.4404 73.74 89.0674 73.8234C88.5 74.5 88.5 75 87.5832 75.2949L87.5811 75.268Z" fill="#669BBC"/>
<path d="M97.4289 61.8656C96.8943 61.9617 96.6143 61.8481 96.7275 61.2158C96.9105 60.09 97.0106 58.9437 97.1994 57.5465C98.1025 58.6956 99.4173 59.2162 99.7176 60.6294L99.7425 60.6003C98.9632 60.6884 98.1217 60.673 97.8452 61.6433L97.8701 61.6143C97.6234 61.5794 97.3746 61.5175 97.4289 61.8656Z" fill="#669BBC"/>
<path d="M98 61.5C97.7627 62.2776 95.3868 65.4005 95 66C94.6359 66.5435 92.7522 65.1322 92.0639 64.9963C93.0788 64.456 97.1156 61.9758 98 61.5Z" fill="#669BBC"/>
<path d="M87.5586 75.297C87.9088 75.2696 89.015 73.0379 89.5 73C89.3182 73.4479 88.4031 76.0441 88.2213 76.4921C87.8125 76.1175 87.4573 75.4913 87.5002 75C87.4733 75.0021 87.5586 75.297 87.5586 75.297Z" fill="#669BBC"/>
<path d="M80.6283 60.8491C80.5517 60.9093 80.4523 61.0254 80.4233 61.0006C80.2532 60.9055 80.3795 60.7872 80.454 60.7001C80.5121 60.7497 80.5702 60.7994 80.6283 60.8491Z" fill="#669BBC"/>
<path d="M126.5 131.891C126.588 130.935 128.828 131.975 129.506 132.329C130.157 132.685 130.856 132.955 131.671 133.325C130.343 134.025 129.204 134.711 127.999 135.239C127.344 135.534 127.106 135.959 127.051 136.641C126.935 137.924 126.766 139.239 126.584 140.717C125.528 139.688 124.509 138.792 123.591 137.807C123.089 137.277 122.596 137.207 121.957 137.365C120.733 137.651 119.477 137.884 117.956 138.193C118.611 136.868 119.116 135.69 119.736 134.611C120.117 133.931 120.128 133.388 119.698 132.744C119.019 131.686 118.444 130.565 117.716 129.239C119.224 129.447 120.536 129.588 121.829 129.839C122.489 129.95 122.911 129.809 123.334 129.315C124.203 128.298 125.132 127.358 126.157 126.248C126.455 127.986 126.712 129.896 127 131.5C126.573 131.588 127.807 132.855 127.5 132.744C126.987 133.814 127.331 134.483 126.152 134.304C125.329 134.179 124.801 134.705 124.219 135.239C124.068 135.386 121.278 133.19 121.457 133.392C121.608 133.597 121.878 133.576 122.058 133.454C122.799 132.881 123.603 132.764 124.497 133.1C124.748 133.189 125.007 133.033 125.185 132.884C125.719 132.435 126.187 131.83 126.876 132.67C126.907 132.722 126.988 132.716 127.044 132.738C127.573 131.179 125.997 132.391 126.5 131.891Z" fill="#669BBC"/>
<path d="M131.136 126.102C131.863 125.693 132.265 125.282 132.671 125.277C134.289 125.178 134.887 124.155 135.186 122.776C135.244 122.474 135.438 122.187 135.622 121.766C135.996 122.388 136.359 122.874 136.592 123.425C137.002 124.505 137.742 124.962 138.903 124.898C139.469 124.854 140.047 124.971 140.785 125.049C140.162 125.748 139.67 126.383 139.063 126.946C138.533 127.448 138.463 127.941 138.676 128.575C138.894 129.29 139.034 130.038 139.203 130.811C138.61 130.857 138.226 130.454 137.756 130.328C137.256 130.177 137.127 129.916 137.193 129.369C137.316 128.519 137.907 130.22 137 129.369C136.841 130.113 136.573 128.035 136.725 128.592C136.846 129.098 137.361 129.79 136.055 129.729C135.375 129.701 134.624 130.492 133.924 130.899C133.717 131.023 133.483 131.15 133.273 131.248C133.211 131.144 133.153 131.095 133.176 131.039C133.534 129.032 133.817 127.112 131.136 126.102Z" fill="#669BBC"/>
<path d="M113.658 131.753C112.503 134.31 113.504 136.02 115.764 137.524C114.072 137.738 113.816 137.343 112.5 137.5C112.177 137.525 112.5 137.5 112 137.5C111.94 137.776 112 137.5 112 138C111.891 138.461 111.558 139.209 111.391 139.493C111.157 139.972 110.921 140.424 110.661 140.905C110.547 140.833 110.437 140.814 110.433 140.761C109.762 138.428 108.31 137.186 105.703 137.471C106.64 136.639 107.18 135.567 108.402 135.254C109.041 135.096 109.139 133.922 108.462 133.596C107.533 133.153 107.804 132.455 107.602 131.603C109.625 133.207 111.574 133.515 113.658 131.753Z" fill="#669BBC"/>
</svg>
