<svg width="332" height="121" viewBox="0 0 332 121" fill="none" xmlns="http://www.w3.org/2000/svg">
<path d="M235.937 87.8195C236.877 86.434 237.903 84.7785 239.016 82.853C240.171 80.9211 241.208 78.9219 242.128 76.8553C243.042 74.7469 243.785 72.6435 244.358 70.5451C244.931 68.4467 245.124 66.5141 244.936 64.7473C244.894 64.7537 244.849 64.7393 244.801 64.704C244.024 64.6534 243.248 64.7521 242.474 65.0002C241.693 65.2065 240.95 65.514 240.243 65.9227C239.537 66.3314 238.837 66.7818 238.144 67.274C237.45 67.7662 236.798 68.2519 236.188 68.7312C234.962 69.6479 233.636 70.7511 232.211 72.0408C230.786 73.3304 229.374 74.7035 227.974 76.1602C226.568 77.5751 225.232 79.022 223.964 80.5011C222.738 81.9736 221.691 83.3544 220.821 84.6435L220.884 84.6338C220.65 85.0549 220.369 85.5901 220.042 86.2394C219.75 86.8404 219.486 87.48 219.249 88.1581C219.011 88.8362 218.858 89.5013 218.788 90.1536C218.718 90.8058 218.805 91.3696 219.05 91.8448C219.77 92.6312 220.913 93.2454 222.478 93.6873C224.084 94.1227 225.855 94.5114 227.789 94.8533C229.759 95.147 231.777 95.476 233.843 95.8403C235.903 96.1629 237.79 96.6189 239.507 97.2084C241.264 97.7915 242.693 98.5965 243.793 99.6235C244.928 100.602 245.514 101.901 245.551 103.52C245.577 104.243 245.424 104.908 245.09 105.516C244.798 106.117 244.392 106.672 243.872 107.18C243.388 107.64 242.855 108.064 242.274 108.453C241.692 108.843 241.129 109.208 240.583 109.549C239.883 109.999 239.103 110.484 238.242 111.002C237.43 111.555 236.563 112.031 235.642 112.43C234.768 112.865 233.879 113.195 232.973 113.421C232.067 113.647 231.15 113.66 230.221 113.462C229.016 113.135 227.803 112.618 226.581 111.909C225.366 111.242 224.41 110.449 223.712 109.531C223.007 108.571 222.703 107.571 222.798 106.53C222.929 105.44 223.744 104.352 225.243 103.265L229.468 106.523C228.871 107.086 228.357 107.636 227.927 108.173C227.497 108.71 227.318 109.208 227.389 109.667C228.32 109.609 229.278 109.439 230.26 109.159C231.279 108.83 232.245 108.445 233.16 108.004C234.117 107.557 235.023 107.053 235.877 106.493C236.773 105.927 237.603 105.35 238.367 104.761C238.486 104.7 238.71 104.494 239.041 104.143C239.413 103.786 239.782 103.409 240.148 103.01C240.508 102.569 240.787 102.163 240.985 101.79C241.178 101.375 241.153 101.08 240.912 100.903C239.688 100.451 238.303 100.067 236.757 99.7506C235.247 99.3858 233.782 99.0354 232.361 98.6994C230.809 98.341 229.188 97.9506 227.498 97.5281C225.849 97.0992 224.185 96.5658 222.504 95.9281C221.729 95.6204 220.882 95.2598 219.963 94.8462C219.079 94.3844 218.227 93.8535 217.408 93.2535C216.588 92.6535 215.884 91.9715 215.295 91.2074C214.665 90.4498 214.272 89.5699 214.117 88.5677C213.929 87.3567 214.097 86.0907 214.619 84.7698C215.135 83.4072 215.746 82.2436 216.452 81.2792C219.388 77.3184 222.658 73.5838 226.263 70.0754C229.909 66.5605 233.944 63.6267 238.369 61.2741C240.084 60.7521 241.728 60.7328 243.299 61.2165C244.871 61.7001 246.261 62.5325 247.47 63.7136C248.039 64.3524 248.497 64.9656 248.845 65.5532C249.234 66.1343 249.498 66.7348 249.637 67.3548C249.776 67.9747 249.817 68.6525 249.759 69.3883C249.702 70.124 249.554 70.9595 249.314 71.8946C248.475 75.3169 247.304 78.6624 245.8 81.9311C244.29 85.158 242.483 88.2599 240.378 91.2368L235.937 87.8195ZM250.012 74.4161C250.973 74.2675 251.832 74.1558 252.59 74.0812C253.383 73.9584 254.138 73.8629 254.855 73.7948C255.451 72.1204 255.957 70.6951 256.373 69.5189C256.825 68.2944 257.134 67.3914 257.301 66.8097L261.458 69.6297C261.3 69.9961 261.097 70.4766 260.847 71.0712C260.632 71.6176 260.413 72.2715 260.189 73.0332C260.272 73.0202 260.376 73.0041 260.502 72.9847C260.621 72.9235 260.743 72.8833 260.868 72.8639L262.004 76.4722C261.342 76.6174 260.764 76.7497 260.269 76.869C259.81 76.9401 259.351 77.0112 258.891 77.0824C258.363 78.9173 257.843 80.9434 257.331 83.1606C256.854 85.3296 256.467 87.5274 256.171 89.7541C255.874 91.9808 255.72 94.1639 255.709 96.3036C255.734 98.395 256.004 100.277 256.52 101.951C256.898 101.635 257.312 100.994 257.761 100.027C258.252 99.0528 258.744 97.9504 259.237 96.7195C259.773 95.4821 260.278 94.1853 260.752 92.8291C261.268 91.4665 261.758 90.2147 262.223 89.0737L266.317 91.9035C266.109 92.4916 265.849 93.3014 265.538 94.333C265.221 95.3228 264.851 96.3849 264.428 97.5194C263.999 98.6121 263.483 99.6969 262.88 100.774C262.318 101.844 261.669 102.757 260.93 103.513C260.186 104.227 259.364 104.717 258.464 104.985C257.565 105.252 256.559 105.109 255.447 104.554C253.602 103.685 252.337 102.277 251.651 100.331C250.958 98.3433 250.633 96.1059 250.676 93.6193C250.712 91.0909 251.01 88.4578 251.57 85.7201C252.171 82.9759 252.854 80.3473 253.62 77.8343L252.618 77.9894L250.012 74.4161ZM260.602 93.2371C261.17 91.6527 261.839 89.9028 262.612 87.9873C263.336 86.0365 264.071 84.0199 264.818 81.9374C264.216 80.534 264.102 79.2474 264.477 78.0777C264.887 76.8597 265.506 75.8872 266.334 75.1604C267.156 74.3918 268.062 73.8882 269.051 73.6495C270.082 73.4044 270.908 73.4903 271.528 73.9074C272.142 74.2827 272.435 75.0711 272.407 76.2727C272.373 77.4325 271.747 79.0475 270.528 81.1176C271.116 81.3259 271.555 81.5359 271.844 81.7476C272.133 81.9594 272.391 82.2403 272.616 82.5902C272.876 82.892 273.153 83.2981 273.446 83.8087C273.774 84.271 274.232 84.8842 274.821 85.6482C275.458 86.4476 275.759 87.4272 275.725 88.587C275.726 89.6986 275.563 90.8569 275.237 92.062C274.952 93.2606 274.622 94.4447 274.247 95.6145C273.866 96.7425 273.612 97.7226 273.484 98.5548C274.408 97.8986 275.193 97.0288 275.838 95.9455C276.524 94.8558 277.121 93.7372 277.627 92.5898C278.127 91.4006 278.568 90.2421 278.949 89.1141C279.372 87.9796 279.762 87.0427 280.118 86.3035L284.284 89.1861C284.114 89.469 283.914 89.9704 283.683 90.6902C283.446 91.3683 283.145 92.1846 282.779 93.1391C282.449 94.0454 282.063 95.0032 281.621 96.0124C281.22 97.0151 280.765 97.9408 280.255 98.7894C279.786 99.6316 279.26 100.376 278.676 101.022C278.086 101.627 277.455 102.109 276.784 102.47C276.154 102.824 275.478 103.014 274.755 103.04C274.068 103.018 273.407 102.757 272.774 102.256C272.34 101.939 271.906 101.621 271.472 101.304C271.08 100.979 270.688 100.655 270.295 100.331C269.8 99.8947 269.491 99.2798 269.368 98.4864C269.281 97.6448 269.288 96.7243 269.39 95.7251C269.533 94.7194 269.736 93.6831 269.999 92.6162C270.255 91.5076 270.5 90.4649 270.733 89.488C271.009 88.5047 271.217 87.6387 271.357 86.89C271.498 86.1413 271.501 85.6064 271.365 85.2852C271.005 85.1699 270.625 85.0578 270.223 84.949C269.815 84.7984 269.413 84.6895 269.018 84.6224C268.838 85.1206 268.656 85.5978 268.47 86.0542C268.326 86.5041 268.178 86.9331 268.028 87.3413C267.525 88.7875 266.994 90.1951 266.437 91.5642C265.914 92.8851 265.345 94.3201 264.73 95.8692L260.602 93.2371ZM284.079 93.1945C283.933 94.4572 283.865 95.5367 283.875 96.433C283.927 97.3229 284.011 97.8658 284.127 98.0616C284.68 98.3181 285.273 98.4188 285.906 98.3636C286.532 98.2666 287.146 98.0861 287.746 97.8221C288.347 97.5581 288.917 97.2347 289.456 96.8519C289.995 96.4691 290.469 96.0751 290.876 95.6699C291.698 94.9013 292.399 94.0444 292.98 93.0994C293.554 92.1125 294.062 91.1145 294.505 90.1053C294.982 89.0479 295.415 87.9761 295.803 86.8898C296.191 85.8036 296.623 84.7317 297.101 83.6743L301.142 86.5764C300.674 87.9743 300.224 89.3482 299.792 90.6979C299.359 92.0476 298.834 93.3477 298.215 94.598C297.631 95.8001 296.903 96.8963 296.03 97.8866C295.199 98.8705 294.147 99.6746 292.876 100.299C291.98 100.865 291.073 101.22 290.154 101.362C289.277 101.498 288.398 101.484 287.518 101.321C286.679 101.151 285.842 100.853 285.006 100.427C284.213 99.994 283.427 99.4743 282.649 98.8678C281.96 98.2902 281.346 97.637 280.806 96.9082C280.265 96.1794 279.865 95.3863 279.604 94.5287C279.249 93.3436 279.121 92.102 279.219 90.804C279.276 89.5124 279.506 88.2368 279.91 86.977C280.272 85.7238 280.772 84.5346 281.41 83.4096C282.084 82.2363 282.842 81.1995 283.686 80.2992C285.339 78.5467 286.964 77.7179 288.561 77.8128C290.158 77.9077 291.834 78.653 293.589 80.0489C294.483 80.8512 294.985 81.8852 295.096 83.1509C295.106 84.0473 294.863 84.9615 294.366 85.8936C293.904 86.7776 293.426 87.5571 292.932 88.2322C291.822 89.9006 290.67 91.2976 289.476 92.4232C288.282 93.5487 286.999 94.517 285.628 95.3278L284.079 93.1945ZM290.448 81.3048C289.485 81.7105 288.652 82.2671 287.949 82.9745C287.288 83.6755 286.709 84.4921 286.212 85.4242C285.75 86.3081 285.364 87.2659 285.053 88.2974C284.784 89.3225 284.539 90.3653 284.319 91.4257C284.909 90.8211 285.549 90.1234 286.239 89.3324C286.929 88.5414 287.571 87.7152 288.165 86.8536C288.793 85.9439 289.315 85.0294 289.728 84.1101C290.135 83.1492 290.375 82.2141 290.448 81.3048ZM301.146 90.5525C300.999 91.8152 300.931 92.8947 300.942 93.791C300.994 94.6809 301.078 95.2237 301.194 95.4196C301.746 95.6761 302.339 95.7767 302.972 95.7215C303.599 95.6246 304.212 95.4441 304.812 95.1801C305.413 94.9161 305.983 94.5927 306.522 94.2098C307.062 93.827 307.535 93.433 307.943 93.0279C308.765 92.2593 309.466 91.4024 310.046 90.4573C310.62 89.4705 311.129 88.4725 311.571 87.4633C312.049 86.4059 312.482 85.3341 312.869 84.2478C313.257 83.1616 313.69 82.0897 314.167 81.0323L318.208 83.9344C317.741 85.3323 317.291 86.7062 316.858 88.0559C316.426 89.4056 315.9 90.7056 315.281 91.956C314.698 93.158 313.969 94.2543 313.096 95.2446C312.265 96.2284 311.214 97.0326 309.942 97.657C309.046 98.2233 308.139 98.5776 307.22 98.7198C306.344 98.8555 305.465 98.8419 304.584 98.6789C303.746 98.5094 302.909 98.2114 302.073 97.7849C301.279 97.352 300.493 96.8322 299.715 96.2258C299.027 95.6481 298.413 94.9949 297.872 94.2662C297.332 93.5374 296.931 92.7442 296.67 91.8867C296.316 90.7016 296.188 89.46 296.286 88.162C296.342 86.8704 296.573 85.5948 296.976 84.335C297.338 83.0817 297.838 81.8926 298.476 80.7675C299.15 79.5943 299.909 78.5575 300.753 77.6571C302.406 75.9047 304.031 75.0759 305.627 75.1708C307.224 75.2657 308.9 76.011 310.656 77.4069C311.55 78.2092 312.052 79.2432 312.162 80.5089C312.173 81.4052 311.929 82.3195 311.432 83.2516C310.97 84.1355 310.492 84.9151 309.998 85.5902C308.888 87.2586 307.736 88.6556 306.542 89.7812C305.348 90.9067 304.066 91.8749 302.695 92.6858L301.146 90.5525ZM307.515 78.6628C306.551 79.0685 305.718 79.6251 305.015 80.3325C304.354 81.0335 303.775 81.8501 303.278 82.7822C302.816 83.6661 302.43 84.6239 302.119 85.6554C301.85 86.6805 301.606 87.7233 301.385 88.7836C301.976 88.1791 302.616 87.4814 303.306 86.6904C303.996 85.8994 304.638 85.0732 305.231 84.2116C305.86 83.3018 306.381 82.3873 306.795 81.4681C307.202 80.5072 307.442 79.572 307.515 78.6628ZM313.323 64.6151C314.283 64.4664 315.143 64.3548 315.901 64.2802C316.694 64.1573 317.449 64.0619 318.166 63.9937C318.762 62.3194 319.268 60.8941 319.684 59.7178C320.136 58.4934 320.445 57.5903 320.612 57.0087L324.768 59.8287C324.611 60.1951 324.408 60.6756 324.158 61.2702C323.943 61.8165 323.724 62.4705 323.499 63.2321C323.583 63.2192 323.687 63.203 323.813 63.1836C323.931 63.1225 324.054 63.0822 324.179 63.0628L325.315 66.6712C324.653 66.8164 324.075 66.9486 323.58 67.068C323.121 67.1391 322.661 67.2102 322.202 67.2813C321.674 69.1162 321.154 71.1423 320.642 73.3595C320.165 75.5286 319.778 77.7264 319.482 79.953C319.185 82.1797 319.031 84.3629 319.02 86.5025C319.045 88.5939 319.315 90.4763 319.83 92.1496C320.209 91.8344 320.623 91.1931 321.072 90.2257C321.563 89.2518 322.055 88.1494 322.548 86.9185C323.084 85.6811 323.588 84.3843 324.063 83.0281C324.579 81.6654 325.069 80.4136 325.534 79.2727L329.628 82.1024C329.419 82.6905 329.16 83.5004 328.849 84.5319C328.532 85.5217 328.162 86.5839 327.739 87.7184C327.31 88.8111 326.793 89.8958 326.19 90.9726C325.629 92.043 324.98 92.956 324.241 93.7117C323.497 94.4256 322.675 94.9163 321.775 95.1838C320.876 95.4513 319.87 95.3077 318.758 94.7529C316.913 93.884 315.648 92.4764 314.962 90.5302C314.269 88.5422 313.944 86.3049 313.987 83.8182C314.023 81.2898 314.321 78.6568 314.881 75.919C315.482 73.1748 316.165 70.5462 316.931 68.0332L315.929 68.1884L313.323 64.6151Z" fill="#133E68"/>
<path d="M15.18 42H28.68L33.48 54H39.72L21.84 6L4.2 54H10.44L15.18 42ZM21.84 22.02L26.76 36H17.16L21.84 22.02ZM83.2978 6L63.3778 32.22L43.4578 6V54H49.4578V24L63.3778 42L77.2978 24V54H83.2978V6ZM98.873 6C92.573 6 87.173 10.8 86.993 16.74V17.04C86.993 22.74 91.553 26.7 97.913 27.3C104.753 27.96 112.673 29.46 112.673 37.5V37.92C112.493 43.86 107.093 48.24 100.793 48.24C97.313 48.24 94.373 47.1 92.333 44.82L87.713 48.36C90.713 51.78 95.393 54 100.613 54C110.153 54 118.133 46.92 118.433 38.04V37.44C118.433 28.86 112.073 22.38 98.273 21.54C94.673 21.3 92.813 19.5 92.813 16.86V16.56C92.813 13.56 95.573 11.34 98.693 11.34C100.433 11.34 101.873 12.06 102.893 13.14L107.333 9.6C105.353 7.38 102.293 6 98.873 6ZM116.055 12H125.055V54H131.055V12H140.055V6H116.055V12ZM146.583 54H173.643V48H152.583V42H167.583V36H152.583V12H173.583V6H146.583V54ZM180.157 54H186.157V42H187.117C188.437 42 189.697 41.88 190.957 41.58L198.097 54H205.057L196.597 39.3C201.697 36.12 205.117 30.48 205.117 24C205.117 14.04 197.077 6 187.117 6C186.757 6 186.457 6 186.157 6.06L180.157 6V54ZM187.117 12.12C193.717 12.12 199.117 17.52 199.117 24.12C199.117 30.72 193.717 36.06 187.117 36.06H186.157V12.18C186.457 12.12 186.757 12.12 187.117 12.12ZM211.622 54H217.622C230.882 54 241.622 43.26 241.622 30C241.622 16.74 230.882 6 217.622 6H211.622V54ZM217.682 12C227.702 12 235.742 20.04 235.742 30.06C235.742 40.08 227.702 48.12 217.682 48.12V12ZM253.071 42H266.571L271.371 54H277.611L259.731 6L242.091 54H248.331L253.071 42ZM259.731 22.02L264.651 36H255.051L259.731 22.02ZM321.188 6L301.268 32.22L281.348 6V54H287.348V24L301.268 42L315.188 24V54H321.188V6Z" fill="#669BBC"/>
</svg>
