<svg width="196" height="176" viewBox="0 0 196 176" fill="none" xmlns="http://www.w3.org/2000/svg">
<g opacity="0.7" clip-path="url(#clip0)">
<path d="M164.326 22.3482C161.719 11.5586 149.215 5.40518 136.554 8.55009L26.6108 35.4062C13.7197 38.4813 5.49292 49.7039 8.09992 60.4934L30.6964 153.166C33.3034 163.956 45.8079 170.109 58.4689 166.964L168.412 140.108C181.179 136.945 189.406 125.723 186.711 115.057L164.326 22.3482Z" stroke="#5A946E" stroke-width="5.37597" stroke-miterlimit="10"/>
<path d="M158.046 29.6384C155.781 20.2085 144.499 14.8279 132.967 17.5616L33.7081 41.8288C22.1948 44.6686 14.7227 54.5624 17.0064 64.0982L36.9597 145.77C39.2253 155.199 50.5069 160.58 62.0384 157.846L161.404 133.561C172.917 130.721 180.389 120.828 178.105 111.292L158.046 29.6384Z" stroke="#5A946E" stroke-width="2.15039" stroke-miterlimit="10" stroke-dasharray="5.44 5.44"/>
<path d="M49.7699 99.9231L40.4381 102.2L39.7608 108.525L36.7318 109.264L39.8023 84.9146L42.3723 84.2874L56.3286 104.482L53.3149 105.217L49.7699 99.9231ZM40.7356 99.5666L48.3081 97.7188L41.972 88.2266L40.7356 99.5666ZM67.8826 80.6234L60.7231 82.3705L65.5686 102.227L62.6467 102.94L57.8012 83.0835L50.6571 84.8268L50.0672 82.4097L67.2928 78.2063L67.8826 80.6234ZM93.1509 95.4967L90.1984 96.2172L87.6861 85.9216L76.4573 88.6616L78.9697 98.9572L76.0324 99.6739L70.5972 77.4L73.5344 76.6833L75.8713 86.2598L87.1 83.5198L84.7631 73.9433L87.7156 73.2228L93.1509 95.4967ZM108.445 80.8559L98.7924 83.2114L100.719 91.1052L111.932 88.3689L112.518 90.7707L98.3675 94.2237L92.9323 71.9498L106.93 68.5341L107.52 70.9512L96.4593 73.6502L98.2064 80.8096L107.859 78.4541L108.445 80.8559ZM133.293 85.7013L130.34 86.4217L114.939 71.9937L119.127 89.158L116.174 89.8785L110.739 67.6046L113.692 66.8841L129.143 81.3812L124.936 64.1404L127.858 63.4274L133.293 85.7013ZM142.65 72.8984C139.954 72.789 137.902 72.3497 136.493 71.5805C135.092 70.7985 134.202 69.6325 133.824 68.0823C133.396 66.3281 133.741 64.7094 134.859 63.2262C135.986 61.7303 137.671 60.7086 139.914 60.1611C141.444 59.7878 142.878 59.7513 144.215 60.0517C145.563 60.3496 146.69 60.939 147.597 61.82C148.514 62.6985 149.123 63.7547 149.424 64.9888L146.471 65.7092C146.143 64.363 145.457 63.412 144.413 62.8561C143.368 62.2901 142.065 62.1974 140.504 62.5782C139.056 62.9316 138.002 63.5291 137.343 64.3707C136.692 65.1996 136.504 66.1801 136.78 67.3122C137.002 68.2199 137.572 68.8965 138.491 69.3422C139.418 69.7752 140.868 70.0265 142.841 70.0962C144.824 70.1634 146.413 70.3862 147.608 70.7647C148.81 71.1305 149.763 71.6705 150.467 72.3849C151.181 73.0967 151.676 74.0187 151.952 75.1508C152.393 76.9559 152.042 78.5759 150.901 80.0105C149.758 81.435 148.008 82.4347 145.652 83.0096C144.122 83.3829 142.623 83.4407 141.156 83.1829C139.685 82.9149 138.464 82.3593 137.491 81.5161C136.528 80.6705 135.889 79.6 135.573 78.3048L138.525 77.5843C138.854 78.9305 139.608 79.8756 140.789 80.4195C141.978 80.9507 143.403 81.0135 145.066 80.6078C146.616 80.2296 147.727 79.6235 148.399 78.7896C149.071 77.9557 149.273 76.9931 149.007 75.9018C148.741 74.8106 148.153 74.0625 147.244 73.6576C146.332 73.2426 144.801 72.9895 142.65 72.8984Z" fill="#5A946E"/>
<path d="M81.3849 125.562L75.9471 126.889L75.5524 130.574L73.7873 131.005L75.5765 116.816L77.0742 116.451L85.2068 128.219L83.4507 128.647L81.3849 125.562ZM76.1204 125.354L80.5331 124.277L76.8409 118.746L76.1204 125.354ZM90.4332 121.38L87.3844 122.124L88.6657 127.375L86.9452 127.794L83.7779 114.815L88.0747 113.766C89.5367 113.41 90.7411 113.468 91.688 113.943C92.6409 114.415 93.2725 115.288 93.5828 116.559C93.78 117.368 93.732 118.125 93.4387 118.833C93.1513 119.539 92.6546 120.136 91.9486 120.623L96.3417 125.388L96.3678 125.495L94.5314 125.943L90.4332 121.38ZM87.0429 120.724L89.6727 120.083C90.5225 119.875 91.1434 119.491 91.5353 118.929C91.9331 118.366 92.0421 117.716 91.8623 116.979C91.6665 116.177 91.2757 115.621 90.6899 115.31C90.1101 114.998 89.3678 114.949 88.463 115.164L85.8421 115.804L87.0429 120.724ZM101.683 118.635L98.6345 119.379L99.9158 124.629L98.1953 125.049L95.028 112.07L99.3248 111.021C100.787 110.664 101.991 110.723 102.938 111.197C103.891 111.67 104.523 112.542 104.833 113.814C105.03 114.622 104.982 115.38 104.689 116.088C104.401 116.794 103.905 117.391 103.199 117.878L107.592 122.643L107.618 122.75L105.782 123.198L101.683 118.635ZM98.293 117.979L100.923 117.337C101.773 117.13 102.394 116.746 102.785 116.184C103.183 115.621 103.292 114.971 103.112 114.234C102.917 113.432 102.526 112.875 101.94 112.565C101.36 112.253 100.618 112.204 99.7131 112.419L97.0922 113.058L98.293 117.979ZM111.291 121.854L109.579 122.271L106.412 109.292L108.123 108.874L111.291 121.854ZM118.171 117.766L119.267 106.155L121.139 105.698L119.492 119.852L117.977 120.222L110.004 108.415L111.868 107.96L118.171 117.766ZM131.716 113.28L126.278 114.607L125.884 118.293L124.119 118.723L125.908 104.534L127.406 104.169L135.538 115.937L133.782 116.365L131.716 113.28ZM126.452 113.072L130.864 111.996L127.172 106.464L126.452 113.072ZM138.664 113.691L144.815 112.19L145.157 113.59L137.285 115.51L134.118 102.531L135.839 102.111L138.664 113.691Z" fill="#5A946E"/>
<path d="M85.4489 38.2243L89.2883 43.4585L95.7533 42.3539L91.8686 47.7079L94.9326 53.5109L88.6843 51.4152L84.037 56.136L84.1164 49.5778L78.2713 46.6497L84.4855 44.7154L85.4489 38.2243Z" fill="#5A946E"/>
<path d="M108.988 36.8203L111.85 40.8035L116.725 39.9705L113.807 43.9596L116.088 48.3693L111.45 46.762L108.018 50.2936L108.051 45.3794L103.64 43.1879L108.301 41.7371L108.988 36.8203Z" fill="#5A946E"/>
<path d="M149.937 100.288L152.373 103.689L156.506 102.983L154.028 106.352L155.969 110.056L152.022 108.658L149.047 111.675L149.101 107.521L145.399 105.645L149.336 104.427L149.937 100.288Z" fill="#5A946E"/>
<path d="M56.7343 122.975L56.1325 127.114L52.1077 128.456L55.8976 130.208L55.8619 134.468L58.8369 131.451L62.7663 132.743L60.8245 129.039L63.3031 125.67L59.1698 126.376L56.7343 122.975Z" fill="#5A946E"/>
<path d="M63.8526 47.8048L63.1656 52.7216L58.505 54.1724L62.9153 56.3639L62.8823 61.2781L66.3148 57.7465L70.9525 59.3538L68.672 54.9441L71.6081 51.061L66.7147 51.788L63.8526 47.8048Z" fill="#5A946E"/>
</g>
<defs>
<clipPath id="clip0">
<rect width="172.461" height="148.592" fill="white" transform="translate(0 29.045) rotate(-9.69568)"/>
</clipPath>
</defs>
</svg>
