<svg width="190" height="70" viewBox="0 0 190 70" fill="none" xmlns="http://www.w3.org/2000/svg">
<path d="M76.9244 38.8347C74.9354 38.2617 72.9244 37.7757 70.8934 37.3977C69.4577 37.0516 67.9827 36.8963 66.5064 36.9358C64.2907 36.6944 62.0595 36.6275 59.8334 36.7357C59.7915 36.737 59.7512 36.7523 59.7189 36.7791C59.6867 36.8059 59.6643 36.8428 59.6554 36.8838C53.1554 37.3928 46.5404 39.2458 42.0364 44.2898C40.3244 46.2088 38.5724 50.2377 41.7364 51.7827C43.5364 52.6587 44.7364 51.5567 45.5014 50.0117C45.5841 50.0112 45.6633 49.9784 45.7222 49.9203C45.781 49.8622 45.8148 49.7835 45.8164 49.7008C45.8274 49.5008 45.8554 49.3157 45.8774 49.1247C46.2112 48.1869 46.436 47.2139 46.5474 46.2248C46.5541 46.1797 46.5483 46.1337 46.5306 46.0918C46.513 46.0498 46.4842 46.0135 46.4474 45.9867C47.0041 44.4428 47.9418 43.0645 49.1734 41.9798C51.3894 40.0398 54.3494 39.2657 57.1734 38.8227C63.691 37.9373 70.3102 38.135 76.7634 39.4077C76.8356 39.4184 76.9092 39.4024 76.9705 39.3628C77.0318 39.3231 77.0765 39.2624 77.0962 39.1922C77.1159 39.1219 77.1094 39.0468 77.0778 38.981C77.0461 38.9152 76.9916 38.8632 76.9244 38.8347Z" fill="#A9C1A3"/>
<path d="M40.9315 41.0456C37.1245 40.6186 33.3075 40.3196 29.4915 39.9896C29.4464 39.9864 29.4015 39.9968 29.3625 40.0196L27.0915 39.7396C27.0535 39.734 27.0148 39.738 26.9788 39.7513C26.9428 39.7645 26.9107 39.7867 26.8855 39.8156C25.3309 39.5102 23.801 39.09 22.3085 38.5586C20.6972 38.0582 19.167 37.3269 17.7655 36.3876C16.4306 35.2498 15.3736 33.8217 14.6755 32.2126C14.6565 32.1705 14.6252 32.1351 14.5858 32.111C14.5464 32.0869 14.5006 32.0753 14.4545 32.0776C14.1396 31.2453 13.9378 30.3745 13.8545 29.4886C13.8625 28.8219 13.8702 28.1526 13.8775 27.4806C14.3487 25.9599 15.189 24.5795 16.3235 23.4626C18.0115 21.7756 20.6235 20.9996 22.6845 22.4796C22.7066 22.4958 22.7317 22.5072 22.7584 22.5133C22.7851 22.5194 22.8128 22.5199 22.8397 22.5148C22.8666 22.5098 22.8922 22.4992 22.9148 22.4839C22.9375 22.4685 22.9568 22.4487 22.9715 22.4256C23.5167 22.9585 23.8436 23.6755 23.8885 24.4366C23.8753 25.2113 23.6754 25.9714 23.3056 26.6523C22.9358 27.3332 22.4071 27.9147 21.7645 28.3476C21.6085 28.4666 21.7515 28.7346 21.9215 28.6206L21.9385 28.6086C21.9404 28.6587 21.9555 28.7074 21.9824 28.7497C22.0093 28.792 22.047 28.8264 22.0915 28.8494C22.1361 28.8724 22.1859 28.8831 22.236 28.8805C22.2861 28.8779 22.3346 28.8621 22.3765 28.8346C24.6525 27.2836 27.1765 23.8346 24.5995 21.3526C21.8565 17.3526 16.1995 18.2706 13.0845 21.5816C13.0244 21.5665 12.9612 21.5696 12.903 21.5906C12.8447 21.6116 12.794 21.6496 12.7575 21.6996C11.7511 23.1894 10.9985 24.8357 10.5305 26.5716C10.4575 26.58 10.3898 26.6135 10.3389 26.6664C10.2879 26.7193 10.257 26.7883 10.2515 26.8616C10.1755 27.6486 10.0985 28.4366 10.0265 29.2246C10.0191 29.2706 10.0251 29.3178 10.0437 29.3605C10.0624 29.4032 10.0928 29.4396 10.1315 29.4656C10.0477 31.3227 10.3663 33.1761 11.0655 34.8986C11.9813 37.1599 13.5922 39.0716 15.6655 40.3576C15.7015 40.3793 15.7416 40.3931 15.7833 40.3983C15.825 40.4035 15.8673 40.3998 15.9075 40.3876C22.9955 45.3126 32.9685 41.2316 40.9295 41.4636C41.2005 41.4696 41.1865 41.0756 40.9315 41.0456Z" fill="#A9C1A3"/>
<path d="M25.8242 42.7725C25.8392 42.4965 25.5142 42.4275 25.3382 42.5725C22.5122 44.8525 19.2912 45.5785 15.8732 46.4335C14.3575 46.7271 12.9207 47.3367 11.6562 48.2225C10.6204 49.1375 9.83677 50.3031 9.3802 51.6075C9.35882 51.6586 9.35198 51.7146 9.36046 51.7693C9.36893 51.824 9.39238 51.8753 9.4282 51.9175C9.32658 52.2671 9.26815 52.6277 9.25421 52.9915C9.18121 53.0915 9.1092 53.1915 9.0442 53.2915C9.00413 53.3623 8.99071 53.445 9.00638 53.5247C9.02204 53.6044 9.06575 53.6759 9.12959 53.7262C9.19343 53.7765 9.27315 53.8023 9.35435 53.7989C9.43555 53.7954 9.51284 53.763 9.5722 53.7075C9.8182 53.4545 10.0722 53.2195 10.3362 52.9965C10.4132 52.9942 10.4868 52.9648 10.5442 52.9135C10.7489 52.7282 10.9545 52.5435 11.1612 52.3595C11.1983 52.3262 11.2263 52.2838 11.2424 52.2365C11.2585 52.1892 11.2622 52.1386 11.2532 52.0895C11.9861 51.666 12.7838 51.366 13.6142 51.2015C13.645 51.2087 13.6766 51.2117 13.7082 51.2105C14.3902 51.1385 15.0732 51.0645 15.7542 50.9915C15.8071 50.9866 15.8582 50.97 15.9038 50.9426C15.9493 50.9153 15.9881 50.878 16.0172 50.8335C16.8422 50.7685 17.6722 50.7555 18.5102 50.7135C19.7716 50.6716 20.9947 50.2697 22.0352 49.5555C23.0203 49.0024 23.8779 48.248 24.5522 47.3415C25.1455 46.1454 25.5567 44.8673 25.7722 43.5495C25.7806 43.5174 25.7821 43.4837 25.7764 43.4509C25.7707 43.4181 25.758 43.387 25.7392 43.3595C25.7827 43.1664 25.8111 42.9701 25.8242 42.7725Z" fill="#A9C1A3"/>
<path d="M82.5181 39.2596C79.2441 37.3596 75.5971 36.3596 72.2601 34.6066C68.8691 32.8286 64.4071 29.9256 62.5931 26.3886C60.6221 22.5426 61.2281 15.3526 66.5711 14.9016C69.1711 14.6826 71.7711 16.0686 71.9961 18.9476C72.0753 19.6995 71.9715 20.4593 71.6933 21.1623C71.4152 21.8653 70.971 22.4906 70.3988 22.9847C69.8266 23.4788 69.1433 23.8271 68.4073 23.9998C67.6712 24.1726 66.9044 24.1646 66.1721 23.9766C66.0041 23.9426 65.8721 24.1906 66.0481 24.2766C70.3161 26.3136 74.0591 21.1596 72.4891 17.1446C70.8491 12.9446 64.5141 13.1746 62.2301 16.5136C59.1301 21.0376 60.7451 27.0356 64.5581 30.4706C66.9017 32.6357 69.5275 34.4737 72.3641 35.9346C75.5141 37.4916 78.8881 38.4956 81.9391 40.2696C82.0054 40.3076 82.0786 40.3322 82.1544 40.3419C82.2302 40.3517 82.3072 40.3465 82.381 40.3264C82.4547 40.3064 82.5239 40.2721 82.5844 40.2254C82.6449 40.1786 82.6956 40.1204 82.7336 40.0541C82.7716 39.9878 82.7962 39.9146 82.8059 39.8388C82.8157 39.763 82.8104 39.686 82.7904 39.6123C82.7704 39.5385 82.736 39.4693 82.6893 39.4088C82.6426 39.3483 82.5844 39.2976 82.5181 39.2596Z" fill="#A9C1A3"/>
<path d="M122.01 43.7445C115.891 45.1925 110.131 46.4826 103.81 45.5226C98.1042 44.6556 92.7182 42.3676 87.2432 40.6226C77.0152 37.3616 65.3052 35.9145 54.6852 37.8955C54.0422 38.0155 54.1852 39.0956 54.8392 39.0586C61.4112 38.6586 67.7392 38.2856 74.2892 39.2696C80.0997 40.2322 85.8108 41.7203 91.3522 43.7156C101.152 47.0686 112.588 49.6525 122.261 44.3435C122.327 44.3022 122.377 44.2386 122.401 44.1642C122.424 44.0898 122.421 44.0094 122.39 43.9374C122.36 43.8653 122.305 43.8064 122.236 43.771C122.166 43.7357 122.086 43.7263 122.01 43.7445Z" fill="#A9C1A3"/>
<path d="M113.218 39.4097C119.672 38.137 126.291 37.9393 132.809 38.8247C135.633 39.2677 138.593 40.0407 140.809 41.9817C142.041 43.0668 142.979 44.445 143.536 45.9887C143.499 46.0152 143.47 46.0515 143.453 46.0935C143.435 46.1356 143.429 46.1817 143.436 46.2267C143.547 47.2158 143.772 48.1889 144.105 49.1267C144.129 49.3177 144.156 49.5067 144.166 49.7027C144.169 49.7852 144.202 49.8637 144.261 49.9217C144.32 49.9797 144.399 50.0127 144.481 50.0137C145.243 51.5587 146.45 52.6607 148.246 51.7847C151.415 50.2397 149.664 46.2107 147.946 44.2917C143.446 39.2477 136.83 37.3917 130.327 36.8857C130.319 36.8446 130.296 36.8077 130.264 36.7808C130.232 36.754 130.191 36.7388 130.149 36.7377C127.923 36.6295 125.692 36.6963 123.476 36.9377C122 36.8983 120.525 37.0536 119.089 37.3997C117.056 37.7777 115.046 38.2637 113.058 38.8367C112.991 38.8652 112.937 38.9171 112.906 38.9827C112.874 39.0484 112.867 39.1232 112.887 39.1934C112.907 39.2635 112.951 39.3241 113.012 39.3639C113.073 39.4037 113.146 39.42 113.218 39.4097Z" fill="#A9C1A3"/>
<path d="M149.059 41.4626C157.021 41.2296 166.994 45.3116 174.081 40.3866C174.121 40.3989 174.163 40.4027 174.205 40.3975C174.247 40.3923 174.287 40.3784 174.324 40.3566C176.397 39.0709 178.008 37.1591 178.924 34.8976C179.624 33.1754 179.943 31.3218 179.858 29.4646C179.896 29.4385 179.927 29.402 179.945 29.3594C179.964 29.3167 179.97 29.2696 179.964 29.2236C179.89 28.4356 179.815 27.6479 179.739 26.8606C179.733 26.7874 179.702 26.7185 179.651 26.6656C179.6 26.6127 179.532 26.5792 179.46 26.5706C178.992 24.8345 178.239 23.1881 177.232 21.6986C177.195 21.6486 177.145 21.6106 177.087 21.5895C177.029 21.5685 176.965 21.5654 176.906 21.5806C173.789 18.2696 168.133 17.3516 165.39 21.3516C162.813 23.8336 165.337 27.2826 167.613 28.8336C167.654 28.8611 167.703 28.877 167.753 28.8796C167.803 28.8822 167.853 28.8714 167.897 28.8484C167.942 28.8254 167.98 28.791 168.007 28.7487C168.033 28.7064 168.049 28.6577 168.051 28.6076L168.068 28.6196C168.238 28.7336 168.382 28.4656 168.225 28.3466C167.582 27.9139 167.053 27.3324 166.683 26.6514C166.314 25.9705 166.114 25.2103 166.102 24.4356C166.145 23.6746 166.471 22.9574 167.017 22.4246C167.031 22.448 167.051 22.4681 167.073 22.4836C167.096 22.4992 167.122 22.5098 167.149 22.5149C167.176 22.5199 167.204 22.5194 167.231 22.5131C167.258 22.5069 167.283 22.4951 167.306 22.4786C169.369 20.9986 171.978 21.7786 173.667 23.4616C174.8 24.5792 175.64 25.9594 176.113 27.4796C176.118 28.1463 176.125 28.8156 176.134 29.4876C176.05 30.3735 175.848 31.2443 175.534 32.0766C175.487 32.0742 175.441 32.0858 175.402 32.1099C175.362 32.134 175.331 32.1694 175.312 32.2116C174.614 33.8211 173.557 35.2493 172.222 36.3866C170.82 37.3262 169.29 38.0575 167.679 38.5576C166.186 39.0894 164.656 39.5095 163.102 39.8146C163.077 39.7864 163.046 39.7648 163.011 39.7516C162.976 39.7383 162.939 39.7338 162.902 39.7386L160.63 40.0186C160.591 39.9958 160.546 39.9853 160.501 39.9886C156.684 40.3186 152.868 40.6186 149.061 41.0446C148.801 41.0756 148.788 41.4696 149.059 41.4626Z" fill="#A9C1A3"/>
<path d="M164.248 43.3585C164.229 43.3859 164.216 43.4171 164.21 43.4499C164.205 43.4828 164.207 43.5164 164.216 43.5485C164.43 44.8664 164.842 46.1446 165.436 47.3405C166.109 48.2473 166.966 49.0018 167.952 49.5545C168.992 50.2688 170.215 50.6705 171.477 50.7125C172.316 50.7545 173.145 50.7675 173.97 50.8325C173.999 50.8768 174.038 50.914 174.083 50.9414C174.129 50.9687 174.18 50.9855 174.233 50.9905C174.915 51.0635 175.597 51.1385 176.279 51.2095C176.31 51.2109 176.342 51.2079 176.373 51.2005C177.203 51.365 178.001 51.665 178.734 52.0885C178.725 52.1377 178.729 52.1884 178.745 52.2356C178.761 52.2829 178.789 52.3252 178.827 52.3585L179.444 52.9125C179.5 52.9636 179.573 52.993 179.65 52.9955C179.913 53.2185 180.169 53.4535 180.414 53.7065C180.473 53.762 180.55 53.7944 180.631 53.7978C180.713 53.8013 180.792 53.7755 180.856 53.7252C180.92 53.6749 180.964 53.6034 180.979 53.5237C180.995 53.4439 180.982 53.3612 180.942 53.2905C180.877 53.1845 180.805 53.0905 180.733 52.9905C180.718 52.6267 180.659 52.266 180.557 51.9165C180.592 51.8743 180.616 51.823 180.624 51.7683C180.633 51.7136 180.626 51.6576 180.605 51.6065C180.148 50.3018 179.365 49.1362 178.329 48.2215C177.064 47.3357 175.627 46.7262 174.112 46.4325C170.695 45.5785 167.473 44.8525 164.648 42.5715C164.472 42.4305 164.148 42.4995 164.162 42.7715C164.175 42.9691 164.204 43.1654 164.248 43.3585Z" fill="#A9C1A3"/>
<path d="M107.47 39.2596C110.742 37.3596 114.39 36.3596 117.728 34.6066C121.119 32.8286 125.581 29.9256 127.394 26.3886C129.365 22.5426 128.759 15.3526 123.416 14.9016C120.816 14.6826 118.216 16.0686 117.992 18.9476C117.913 19.6995 118.017 20.4595 118.295 21.1626C118.573 21.8657 119.017 22.4911 119.589 22.9853C120.161 23.4794 120.845 23.8277 121.581 24.0003C122.317 24.173 123.084 24.1649 123.816 23.9766C123.982 23.9426 124.116 24.1906 123.94 24.2766C119.671 26.3136 115.928 21.1596 117.497 17.1446C119.137 12.9446 125.473 13.1746 127.757 16.5136C130.851 21.0376 129.242 27.0356 125.428 30.4706C123.085 32.6357 120.459 34.4737 117.622 35.9346C114.472 37.4916 111.1 38.4956 108.047 40.2696C107.981 40.3075 107.908 40.332 107.832 40.3416C107.756 40.3512 107.679 40.3458 107.606 40.3257C107.532 40.3056 107.463 40.2712 107.403 40.2244C107.342 40.1776 107.292 40.1194 107.254 40.0531C107.216 39.9868 107.192 39.9137 107.182 39.8379C107.172 39.7621 107.178 39.6852 107.198 39.6115C107.218 39.5379 107.252 39.4689 107.299 39.4085C107.346 39.3481 107.404 39.2975 107.47 39.2596Z" fill="#A9C1A3"/>
<path d="M67.978 43.7445C74.096 45.1925 79.8561 46.4826 86.1781 45.5226C91.8781 44.6556 97.2701 42.3676 102.744 40.6226C112.974 37.3616 124.683 35.9145 135.302 37.8955C135.946 38.0155 135.802 39.0956 135.148 39.0586C128.576 38.6586 122.248 38.2856 115.698 39.2696C109.888 40.2323 104.177 41.7204 98.6351 43.7156C88.8351 47.0686 77.4001 49.6525 67.7261 44.3435C67.661 44.3015 67.6127 44.2378 67.5899 44.1637C67.567 44.0897 67.571 44.0099 67.601 43.9385C67.6311 43.867 67.6854 43.8084 67.7543 43.773C67.8232 43.7375 67.9024 43.7274 67.978 43.7445Z" fill="#A9C1A3"/>
<path d="M179.112 48.6126C177.816 47.2837 176.208 46.3016 174.433 45.7565C172.705 45.1476 170.922 44.8396 169.278 44.3216C168.486 44.0862 167.724 43.7575 167.009 43.3425C166.909 43.2785 166.809 43.2006 166.709 43.1276C169.221 43.034 171.676 42.3535 173.878 41.1406C175.338 40.2918 176.616 39.1622 177.637 37.8171C178.658 36.472 179.403 34.938 179.828 33.3035C180.69 30.0335 180.251 26.5567 178.603 23.6035C177.812 22.149 176.679 20.9079 175.303 19.9865C173.923 19.0834 172.31 18.5996 170.66 18.5935C168.99 18.5791 167.369 19.1594 166.087 20.2305C165.417 20.7682 164.882 21.4562 164.527 22.2389C164.171 23.0215 164.006 23.8768 164.042 24.7356C164.091 25.6228 164.399 26.4762 164.927 27.1906C165.465 27.8843 166.17 28.4292 166.977 28.7736C167.613 29.0403 168.289 29.2007 168.977 29.2486C169.965 29.4919 171.003 29.422 171.949 29.0485H171.961C171.988 29.0375 172.016 29.0346 172.042 29.0246L171.729 28.0125C171.164 28.1481 170.59 28.2378 170.01 28.2805C169.196 28.2546 168.416 27.9517 167.798 27.4218C167.179 26.8919 166.76 26.1668 166.61 25.3665C166.51 24.8661 166.571 24.3469 166.785 23.8833C166.998 23.4198 167.353 23.0358 167.798 22.7866C168.793 22.3227 169.928 22.2594 170.968 22.6096C172.056 22.9598 173.027 23.6019 173.775 24.466C174.523 25.33 175.019 26.3828 175.21 27.5095C175.386 28.6729 175.312 29.8602 174.995 30.9931C174.678 32.126 174.124 33.1786 173.369 34.0816C171.808 35.9229 169.773 37.302 167.484 38.0695C165.142 38.8422 162.713 39.3251 160.253 39.5075C156.399 39.8375 152.495 40.3975 148.684 40.9525C148.35 40.9685 148.016 40.9646 147.684 40.9976C147.284 41.0286 146.884 41.0815 146.484 41.1475C146.247 41.1743 146.013 41.2228 145.784 41.2926C144.231 40.0565 142.515 39.0409 140.684 38.2746C137.447 36.9174 133.966 36.2351 130.456 36.2696C127.006 36.3042 123.563 36.5984 120.156 37.1496C118.677 37.3496 117.189 37.5495 115.718 37.8715C114.311 38.1325 112.967 38.6597 111.758 39.4246C109.342 39.8122 106.961 40.3981 104.641 41.1765C102.656 41.8765 100.721 42.7015 98.7412 43.3765C97.5532 43.7765 96.3483 44.1066 95.1413 44.4126C93.9283 44.1066 92.7243 43.7725 91.5363 43.3765C89.5553 42.7045 87.6203 41.8765 85.6363 41.1765C83.3161 40.3981 80.9357 39.8122 78.5193 39.4246C77.3139 38.6603 75.9741 38.1325 74.5713 37.8695C73.1003 37.5445 71.6142 37.3525 70.1332 37.1475C66.7269 36.5962 63.2838 36.3021 59.8333 36.2675C56.323 36.2331 52.8427 36.9153 49.6053 38.2725C47.7741 39.0383 46.0578 40.054 44.5053 41.2905C44.2769 41.2209 44.0425 41.1723 43.8053 41.1455C43.4053 41.0795 43.0113 41.0266 42.6103 40.9956C42.2773 40.9636 41.9443 40.9676 41.6103 40.9506C37.7993 40.3956 33.8933 39.8366 30.0413 39.5056C27.5806 39.3232 25.1515 38.8403 22.8083 38.0676C20.5198 37.3001 18.4849 35.9209 16.9243 34.0795C16.1699 33.1767 15.6158 32.124 15.2986 30.9911C14.9814 29.8582 14.9083 28.6708 15.0843 27.5075C15.2746 26.3807 15.7708 25.3278 16.5187 24.4637C17.2665 23.5996 18.2374 22.9576 19.3253 22.6076C20.3655 22.2573 21.5005 22.3207 22.4953 22.7846C22.9406 23.0338 23.2954 23.4178 23.5089 23.8814C23.7223 24.3449 23.7834 24.8642 23.6833 25.3646C23.5331 26.1649 23.1143 26.8899 22.496 27.4198C21.8777 27.9497 21.0971 28.2527 20.2833 28.2786C19.7036 28.2357 19.1284 28.146 18.5633 28.0106L18.2353 29.0246C18.2623 29.0356 18.2903 29.0385 18.3163 29.0485H18.3283C19.2742 29.422 20.3128 29.4919 21.3003 29.2486C21.9884 29.2005 22.664 29.0401 23.3003 28.7736C24.1073 28.4292 24.813 27.8843 25.3503 27.1906C25.8787 26.4762 26.1864 25.6228 26.2353 24.7356C26.272 23.8768 26.106 23.0215 25.7508 22.2389C25.3955 21.4562 24.8609 20.7682 24.1903 20.2305C22.9085 19.1595 21.2876 18.5792 19.6173 18.5935C17.9675 18.5996 16.3549 19.0834 14.9743 19.9865C13.5986 20.9084 12.4664 22.1494 11.6743 23.6035C10.0277 26.5571 9.58898 30.0336 10.4503 33.3035C10.8756 34.938 11.6203 36.472 12.6415 37.8171C13.6627 39.1622 14.9402 40.2918 16.4003 41.1406C18.602 42.3535 21.0572 43.034 23.5693 43.1276C23.4693 43.2006 23.3693 43.2795 23.2693 43.3425C22.5542 43.7573 21.7926 44.0859 21.0003 44.3216C19.3543 44.8406 17.5733 45.1476 15.8443 45.7565C14.0708 46.3021 12.4626 47.2841 11.1673 48.6126C10.5283 49.3044 10.0201 50.1064 9.66726 50.9796C9.29149 51.9069 9.21492 52.9286 9.44827 53.9016L9.72526 55.0015L10.3333 53.9616C11.2333 52.4236 13.0333 51.6976 14.8403 51.2016C16.7053 50.7126 18.7463 50.5245 20.6293 49.8795C21.3843 49.612 22.1032 49.2516 22.7693 48.8065C23.4634 48.3688 24.0971 47.842 24.6543 47.2396C25.7455 46.1274 26.4309 44.6804 26.6003 43.1315C29.5822 42.9059 32.549 42.5112 35.4863 41.9495C37.0573 41.7045 38.6273 41.4956 40.2073 41.3806C40.9153 41.3346 41.6246 41.3189 42.3353 41.3336C42.9673 41.3656 43.6013 41.3946 44.2413 41.4116C44.2743 41.4116 44.3143 41.4116 44.3473 41.4116C43.1827 42.3297 42.1209 43.3711 41.1803 44.5175C40.5735 45.2029 40.1391 46.0232 39.913 46.9102C39.6869 47.7972 39.6757 48.7254 39.8803 49.6176C40.0111 50.0633 40.2306 50.478 40.5257 50.8368C40.8207 51.1956 41.1852 51.4911 41.5973 51.7056C42.0167 51.9225 42.4863 52.0238 42.9579 51.999C43.4295 51.9742 43.8859 51.8242 44.2803 51.5645C45.0502 51.0426 45.6499 50.3062 46.0053 49.4466C46.3315 48.611 46.5779 47.7465 46.7413 46.8646C46.8955 46.042 47.1525 45.242 47.5063 44.4835C47.8802 43.7646 48.375 43.1155 48.9693 42.5645C51.3873 40.3305 54.8833 39.7436 58.1973 39.2846C64.2783 38.5286 70.4293 39.1316 76.5763 39.9206C79.5113 40.6326 82.3963 41.4615 85.3193 42.2515C87.3443 42.7575 89.3943 43.2086 91.4063 43.7876C92.3233 44.0546 93.2323 44.3426 94.1413 44.6366C93.6573 44.7476 93.1753 44.8765 92.6883 44.9755C88.6566 45.8657 84.54 46.3147 80.4113 46.3145C76.2815 46.3443 72.1931 45.492 68.4193 43.8145L68.3532 43.9326C71.8913 46.3774 76.0799 47.7081 80.3803 47.7536C84.6305 47.7774 88.8539 47.0792 92.8702 45.6886C93.6283 45.4446 94.3833 45.1966 95.1383 44.9516C95.8923 45.1966 96.6472 45.4446 97.4053 45.6886C101.422 47.0792 105.645 47.7774 109.895 47.7536C114.196 47.7079 118.384 46.3773 121.922 43.9326L121.855 43.8145C118.081 45.4917 113.993 46.344 109.863 46.3145C105.734 46.3147 101.618 45.8657 97.5863 44.9755C97.0993 44.8755 96.6182 44.7486 96.1332 44.6366C97.0422 44.3426 97.9513 44.0546 98.8683 43.7876C100.881 43.2096 102.931 42.7585 104.954 42.2515C107.878 41.4625 110.763 40.6336 113.697 39.9206C119.845 39.1316 125.997 38.5286 132.076 39.2846C135.391 39.7436 138.887 40.3295 141.305 42.5645C141.899 43.1158 142.394 43.7649 142.768 44.4835C143.122 45.2418 143.379 46.0419 143.532 46.8646C143.696 47.7466 143.943 48.6111 144.269 49.4466C144.624 50.3064 145.224 51.0429 145.994 51.5645C146.389 51.8242 146.845 51.9742 147.317 51.999C147.788 52.0238 148.258 51.9225 148.677 51.7056C149.089 51.4913 149.454 51.1958 149.749 50.837C150.044 50.4782 150.263 50.0634 150.393 49.6176C150.598 48.7254 150.587 47.7972 150.361 46.9101C150.135 46.0231 149.7 45.2028 149.093 44.5175C148.152 43.3714 147.09 42.3301 145.926 41.4116C145.959 41.4116 145.999 41.4116 146.032 41.4116C146.672 41.3936 147.306 41.3656 147.938 41.3336C148.649 41.3202 149.358 41.3359 150.066 41.3806C151.645 41.4956 153.216 41.7045 154.787 41.9495C157.725 42.5114 160.691 42.906 163.673 43.1315C163.843 44.6804 164.528 46.1274 165.619 47.2396C166.176 47.842 166.81 48.3688 167.504 48.8065C168.17 49.2516 168.889 49.612 169.644 49.8795C171.526 50.5245 173.568 50.7126 175.433 51.2016C177.245 51.7016 179.042 52.4226 179.94 53.9616L180.548 55.0015L180.825 53.9016C181.059 52.9286 180.982 51.9069 180.606 50.9796C180.255 50.1071 179.749 49.3052 179.112 48.6126ZM24.0583 46.7686C23.6484 47.4272 23.1501 48.0264 22.5773 48.5496C21.9904 49.0697 21.3123 49.4765 20.5773 49.7495C19.6415 50.0555 18.6617 50.2055 17.6773 50.1936C16.6913 50.2096 15.6993 50.1785 14.6773 50.2515C13.6222 50.3229 12.5947 50.62 11.6643 51.1226C11.0502 51.4598 10.5126 51.9205 10.0853 52.4755C10.0598 51.8162 10.1684 51.1585 10.4044 50.5423C10.6403 49.9261 10.9989 49.3642 11.4583 48.8906C12.7163 47.6622 14.3354 46.87 16.0773 46.6306C17.7933 46.2746 19.5643 46.0805 21.3573 45.6065C22.2993 45.3926 23.2036 45.0373 24.0393 44.5526C24.4503 44.2816 24.8393 43.9785 25.1883 43.7315C25.011 44.8073 24.6273 45.8386 24.0583 46.7686ZM35.3843 41.2006C32.4373 41.5336 29.5233 41.9755 26.6163 42.0645V41.7116L25.8353 41.8886C25.6372 41.9397 25.4436 42.0066 25.2563 42.0886C22.3737 42.1347 19.5265 41.4497 16.9803 40.0976C14.25 38.5251 12.2258 35.9665 11.3237 32.9477C10.4217 29.9288 10.7103 26.6791 12.1303 23.8665C12.8621 22.4684 13.9208 21.2677 15.2163 20.3665C16.5083 19.476 18.0474 19.0136 19.6163 19.0446C21.176 19.0488 22.6829 19.6103 23.8653 20.6276C24.4478 21.1237 24.9052 21.7501 25.2006 22.456C25.4959 23.1619 25.6209 23.9274 25.5653 24.6906C25.524 25.1787 25.3854 25.6535 25.1576 26.0872C24.9299 26.5208 24.6176 26.9045 24.2393 27.2155C24.5672 26.7108 24.789 26.1447 24.8913 25.5515C25.0124 24.8004 24.9234 24.0303 24.6343 23.3266C24.3252 22.6109 23.7879 22.0177 23.1063 21.6395C21.8207 20.9863 20.3308 20.8611 18.9543 21.2905C17.6022 21.6692 16.391 22.4367 15.4713 23.4976C14.5636 24.5706 13.9551 25.8641 13.7073 27.2476C13.5006 28.611 13.5866 30.0029 13.9595 31.3305C14.3325 32.6582 14.9838 33.8911 15.8703 34.9475C17.5921 36.9768 19.8662 38.4623 22.4163 39.2235C24.8647 39.9618 27.3962 40.3895 29.9513 40.4965C32.4793 40.5795 34.9623 40.7965 37.4623 41.0075C36.7663 41.0555 36.0743 41.1186 35.3863 41.2006H35.3843ZM58.0153 37.9126C56.2755 38.1541 54.5582 38.5363 52.8803 39.0556C51.1325 39.578 49.5374 40.5161 48.2313 41.7896C47.5701 42.4475 47.0376 43.2231 46.6613 44.0766C46.325 44.9238 46.0971 45.8102 45.9833 46.7146C45.8801 47.5595 45.6938 48.3922 45.4273 49.2006C45.1611 49.9749 44.6685 50.6515 44.0133 51.1425C43.6907 51.3667 43.3137 51.5 42.9218 51.5283C42.53 51.5567 42.1378 51.479 41.7863 51.3035C41.4203 51.1271 41.096 50.8748 40.835 50.5634C40.5739 50.2521 40.3821 49.8888 40.2723 49.4976C40.1046 48.6784 40.1406 47.8306 40.377 47.0286C40.6134 46.2266 41.0431 45.4948 41.6283 44.8975C43.9826 42.4499 46.8519 40.5565 50.0283 39.3546C56.4282 36.9296 63.3497 36.2144 70.1103 37.2796C71.5902 37.4732 73.0562 37.7614 74.4992 38.1425C75.348 38.3871 76.1691 38.7193 76.9493 39.1336C70.7692 37.5542 64.349 37.1401 58.0173 37.9126H58.0153ZM148.641 44.8955C149.226 45.4929 149.656 46.2248 149.892 47.0268C150.128 47.8288 150.163 48.6766 149.995 49.4956C149.886 49.8868 149.694 50.2503 149.433 50.5617C149.173 50.8731 148.848 51.1253 148.482 51.3015C148.131 51.477 147.738 51.5547 147.346 51.5263C146.954 51.498 146.577 51.3648 146.254 51.1406C145.6 50.6489 145.107 49.9726 144.84 49.1986C144.575 48.39 144.389 47.5573 144.285 46.7125C144.171 45.8081 143.944 44.9218 143.607 44.0745C143.23 43.2214 142.698 42.4458 142.037 41.7876C140.731 40.5143 139.136 39.5763 137.388 39.0535C135.71 38.5343 133.993 38.152 132.253 37.9105C125.922 37.1379 119.502 37.5516 113.322 39.1306C114.102 38.7165 114.923 38.3844 115.771 38.1395C117.215 37.7585 118.681 37.4702 120.161 37.2766C126.922 36.2114 133.843 36.9266 140.243 39.3516C143.42 40.5538 146.289 42.4475 148.643 44.8955H148.641ZM152.813 41.0006C155.313 40.7916 157.796 40.5726 160.324 40.4896C162.879 40.3825 165.411 39.9548 167.859 39.2166C170.409 38.4553 172.683 36.9698 174.405 34.9406C175.292 33.8842 175.943 32.6512 176.316 31.3235C176.689 29.9959 176.775 28.604 176.568 27.2406C176.32 25.8571 175.712 24.5636 174.804 23.4906C173.884 22.4296 172.673 21.6622 171.321 21.2835C169.945 20.854 168.455 20.9792 167.169 21.6325C166.487 22.0109 165.949 22.6039 165.639 23.3195C165.351 24.0237 165.263 24.7936 165.384 25.5446C165.487 26.1377 165.708 26.7039 166.036 27.2086C165.657 26.8979 165.345 26.5143 165.117 26.0806C164.889 25.6468 164.751 25.1718 164.71 24.6836C164.655 23.9205 164.78 23.1552 165.075 22.4495C165.37 21.7438 165.828 21.1175 166.41 20.6215C167.593 19.6045 169.1 19.0431 170.66 19.0385C172.229 19.0076 173.768 19.47 175.06 20.3606C176.356 21.2617 177.414 22.4624 178.146 23.8606C179.566 26.6733 179.855 29.9233 178.952 32.9422C178.05 35.9611 176.025 38.5196 173.294 40.0916C170.749 41.4437 167.902 42.1287 165.02 42.0825C164.833 42.0007 164.639 41.9338 164.441 41.8825L163.659 41.7056V42.0586C160.754 41.9696 157.839 41.5275 154.891 41.1945C154.197 41.1185 153.507 41.0555 152.815 41.0015L152.813 41.0006ZM178.598 51.1245C177.668 50.6219 176.641 50.3249 175.586 50.2536C174.566 50.1806 173.573 50.2116 172.586 50.1956C171.602 50.2076 170.622 50.0575 169.686 49.7515C168.951 49.4785 168.273 49.0716 167.686 48.5515C166.296 47.2894 165.378 45.5898 165.086 43.7346C165.437 43.9806 165.824 44.2846 166.235 44.5556C167.071 45.0405 167.975 45.3959 168.917 45.6096C170.71 46.0836 172.481 46.2776 174.196 46.6336C175.939 46.8728 177.558 47.665 178.816 48.8936C179.273 49.3683 179.629 49.9307 179.863 50.5469C180.096 51.1631 180.203 51.8202 180.175 52.4785C179.749 51.9227 179.212 51.4616 178.598 51.1245Z" fill="black"/>
<path d="M121.443 32.9976C117.443 35.1976 113.016 36.8165 109.075 39.4105L109.136 39.5296C113.436 37.7666 117.918 36.4676 122 33.9726C124.004 32.6694 125.777 31.0414 127.245 29.1555C128.796 27.294 129.816 25.0484 130.196 22.6555C130.415 21.4041 130.321 20.118 129.921 18.9121C129.521 17.7062 128.828 16.6182 127.905 15.7456C126.929 14.8851 125.722 14.3289 124.433 14.1455C123.117 13.9816 121.783 14.2689 120.651 14.9605C119.497 15.6558 118.63 16.7408 118.206 18.0196C117.814 19.2957 117.88 20.6688 118.392 21.9016C118.633 22.4826 118.993 23.0069 119.448 23.4408C119.904 23.8746 120.445 24.2085 121.037 24.421C121.629 24.6336 122.259 24.72 122.886 24.6748C123.514 24.6296 124.125 24.4537 124.68 24.1585L124.623 24.0366C123.59 24.3995 122.455 24.3371 121.468 23.8632C120.481 23.3893 119.722 22.5427 119.359 21.5095C119.017 20.5298 119.031 19.461 119.399 18.4906C119.767 17.5203 120.465 16.7105 121.37 16.2036C122.263 15.6874 123.294 15.4603 124.321 15.5536C125.348 15.6469 126.321 16.056 127.106 16.7246C127.922 17.4575 128.559 18.3674 128.969 19.3845C129.378 20.4016 129.55 21.4989 129.47 22.5926C129.343 24.9134 128.442 27.1248 126.912 28.8745C125.363 30.579 123.508 31.9776 121.443 32.9976Z" fill="black"/>
<path d="M63.0275 29.1564C64.4961 31.0423 66.2687 32.6702 68.2725 33.9734C72.3535 36.4734 76.8345 37.7674 81.1365 39.5304L81.1975 39.4115C77.2555 36.8165 72.8265 35.1984 68.8285 32.9984C66.7632 31.9789 64.9078 30.5807 63.3585 28.8764C61.8292 27.1263 60.9291 24.915 60.8015 22.5944C60.7218 21.5008 60.8934 20.4034 61.3031 19.3863C61.7129 18.3692 62.3499 17.4594 63.1655 16.7265C63.9505 16.0578 64.9233 15.6487 65.9503 15.5554C66.9772 15.4621 68.0078 15.6892 68.9005 16.2055C69.8058 16.7125 70.5038 17.5222 70.8718 18.4924C71.2399 19.4626 71.2547 20.5314 70.9135 21.5114C70.5505 22.5446 69.792 23.3912 68.8048 23.8651C67.8176 24.339 66.6826 24.4013 65.6495 24.0384L65.5925 24.1604C66.1479 24.4556 66.759 24.6314 67.3864 24.6766C68.0138 24.7219 68.6437 24.6354 69.2358 24.4229C69.8278 24.2104 70.3689 23.8765 70.8244 23.4426C71.2798 23.0088 71.6395 22.4845 71.8805 21.9035C72.3925 20.6705 72.4579 19.2975 72.0655 18.0214C71.6425 16.7425 70.7755 15.6573 69.6215 14.9624C68.4892 14.271 67.156 13.9837 65.8395 14.1474C64.5507 14.3311 63.3436 14.8872 62.3665 15.7474C61.4437 16.6205 60.7515 17.7085 60.3518 18.9143C59.952 20.12 59.8571 21.406 60.0755 22.6574C60.4566 25.05 61.4765 27.2953 63.0275 29.1564Z" fill="black"/>
</svg>
