<svg width="172" height="42" viewBox="0 0 172 42" fill="none" xmlns="http://www.w3.org/2000/svg">
<path d="M67.9241 24.8347C65.9351 24.2617 63.9241 23.7757 61.8931 23.3977C60.4575 23.0516 58.9824 22.8963 57.5061 22.9358C55.2905 22.6944 53.0593 22.6275 50.8331 22.7357C50.7912 22.737 50.7509 22.7523 50.7187 22.7791C50.6864 22.8059 50.664 22.8428 50.6551 22.8838C44.1551 23.3928 37.5401 25.2458 33.0361 30.2898C31.3241 32.2088 29.5721 36.2377 32.7361 37.7827C34.5361 38.6587 35.7361 37.5567 36.5011 36.0117C36.5838 36.0112 36.6631 35.9784 36.7219 35.9203C36.7808 35.8622 36.8146 35.7835 36.8161 35.7008C36.8271 35.5008 36.8551 35.3157 36.8771 35.1247C37.2109 34.1869 37.4357 33.2139 37.5471 32.2248C37.5538 32.1797 37.548 32.1337 37.5304 32.0918C37.5128 32.0498 37.484 32.0135 37.4471 31.9867C38.0038 30.4428 38.9415 29.0645 40.1731 27.9798C42.3891 26.0398 45.3491 25.2657 48.1731 24.8227C54.6908 23.9373 61.3099 24.135 67.7631 25.4077C67.8353 25.4184 67.909 25.4024 67.9703 25.3628C68.0315 25.3231 68.0762 25.2624 68.096 25.1922C68.1157 25.1219 68.1092 25.0468 68.0775 24.981C68.0459 24.9152 67.9914 24.8632 67.9241 24.8347Z" fill="#A9C1A3"/>
<path d="M31.9312 27.0456C28.1242 26.6186 24.3072 26.3196 20.4912 25.9896C20.4462 25.9864 20.4012 25.9968 20.3622 26.0196L18.0912 25.7396C18.0533 25.734 18.0145 25.738 17.9785 25.7513C17.9425 25.7645 17.9105 25.7867 17.8852 25.8156C16.3306 25.5102 14.8008 25.09 13.3082 24.5586C11.697 24.0582 10.1667 23.3269 8.76525 22.3876C7.43033 21.2498 6.37336 19.8217 5.67523 18.2126C5.65621 18.1705 5.62496 18.1351 5.58554 18.111C5.54612 18.0869 5.50037 18.0753 5.45424 18.0776C5.13939 17.2453 4.93759 16.3745 4.85423 15.4886C4.86223 14.8219 4.86991 14.1526 4.87725 13.4806C5.34844 11.9599 6.18877 10.5795 7.32324 9.46257C9.01124 7.77557 11.6232 6.9996 13.6842 8.4796C13.7063 8.49578 13.7315 8.50723 13.7582 8.51329C13.7849 8.51935 13.8125 8.51988 13.8394 8.51482C13.8664 8.50975 13.8919 8.49922 13.9146 8.48387C13.9373 8.46852 13.9565 8.44868 13.9712 8.42558C14.5165 8.95849 14.8434 9.6755 14.8882 10.4366C14.8751 11.2113 14.6751 11.9714 14.3053 12.6523C13.9355 13.3332 13.4069 13.9147 12.7642 14.3476C12.6082 14.4666 12.7512 14.7346 12.9212 14.6206L12.9382 14.6086C12.9401 14.6587 12.9553 14.7074 12.9822 14.7497C13.0091 14.792 13.0467 14.8264 13.0913 14.8494C13.1358 14.8724 13.1857 14.8831 13.2358 14.8805C13.2858 14.8779 13.3343 14.8621 13.3762 14.8346C15.6522 13.2836 18.1762 9.83458 15.5992 7.35258C12.8562 3.35258 7.19925 4.27059 4.08425 7.58159C4.02419 7.56646 3.96097 7.5696 3.90271 7.59062C3.84445 7.61164 3.79379 7.64958 3.75723 7.69957C2.75082 9.18937 1.99829 10.8357 1.53025 12.5716C1.45729 12.58 1.38952 12.6135 1.33861 12.6664C1.28769 12.7193 1.2568 12.7883 1.25124 12.8616C1.17524 13.6486 1.09823 14.4366 1.02623 15.2246C1.0189 15.2706 1.0249 15.3178 1.0435 15.3605C1.06211 15.4032 1.09256 15.4396 1.13124 15.4656C1.04746 17.3227 1.36606 19.1761 2.06523 20.8986C2.98102 23.1599 4.59192 25.0716 6.66524 26.3576C6.70123 26.3793 6.74136 26.3931 6.78305 26.3983C6.82474 26.4035 6.86705 26.3998 6.90724 26.3876C13.9952 31.3126 23.9682 27.2316 31.9292 27.4636C32.2002 27.4696 32.1862 27.0756 31.9312 27.0456Z" fill="#A9C1A3"/>
<path d="M16.8242 28.7725C16.8392 28.4965 16.5142 28.4275 16.3382 28.5725C13.5122 30.8525 10.2912 31.5785 6.8732 32.4335C5.35751 32.7271 3.92066 33.3367 2.6562 34.2225C1.62042 35.1375 0.836766 36.3031 0.3802 37.6075C0.358816 37.6586 0.351984 37.7146 0.360455 37.7693C0.368927 37.824 0.392377 37.8753 0.428204 37.9175C0.326582 38.2671 0.268151 38.6277 0.254208 38.9915C0.181208 39.0915 0.109202 39.1915 0.0442017 39.2915C0.00413087 39.3623 -0.00928784 39.445 0.00637518 39.5247C0.0220382 39.6044 0.0657533 39.6759 0.12959 39.7262C0.193426 39.7765 0.273155 39.8023 0.354352 39.7989C0.435549 39.7954 0.512837 39.763 0.572202 39.7075C0.818202 39.4545 1.07221 39.2195 1.33621 38.9965C1.41315 38.9942 1.4868 38.9648 1.5442 38.9135C1.74887 38.7282 1.95454 38.5435 2.16121 38.3595C2.19835 38.3262 2.22631 38.2838 2.24241 38.2365C2.25852 38.1892 2.26223 38.1386 2.2532 38.0895C2.98615 37.666 3.78382 37.366 4.61421 37.2015C4.645 37.2087 4.67661 37.2117 4.7082 37.2105C5.3902 37.1385 6.07321 37.0645 6.75421 36.9915C6.80711 36.9866 6.85822 36.97 6.90376 36.9426C6.9493 36.9153 6.98809 36.878 7.01721 36.8335C7.84221 36.7685 8.6722 36.7555 9.51021 36.7135C10.7716 36.6716 11.9947 36.2697 13.0352 35.5555C14.0203 35.0024 14.8779 34.248 15.5522 33.3415C16.1455 32.1454 16.5567 30.8673 16.7722 29.5495C16.7806 29.5174 16.7821 29.4837 16.7764 29.4509C16.7707 29.4181 16.758 29.387 16.7392 29.3595C16.7827 29.1664 16.8111 28.9701 16.8242 28.7725Z" fill="#A9C1A3"/>
<path d="M73.5181 25.2596C70.2441 23.3596 66.5971 22.3596 63.2601 20.6066C59.8691 18.8286 55.4071 15.9256 53.5931 12.3886C51.6221 8.54264 52.2281 1.35264 57.5711 0.901637C60.1711 0.682637 62.7711 2.0686 62.9961 4.9476C63.0753 5.69945 62.9715 6.45932 62.6933 7.16232C62.4152 7.86532 61.971 8.4906 61.3988 8.98471C60.8266 9.47881 60.1433 9.82711 59.4073 9.99984C58.6712 10.1726 57.9044 10.1646 57.1721 9.97665C57.0041 9.94265 56.8721 10.1906 57.0481 10.2766C61.3161 12.3136 65.0591 7.15962 63.4891 3.14462C61.8491 -1.05538 55.5141 -0.825363 53.2301 2.51364C50.1301 7.03764 51.7451 13.0356 55.5581 16.4706C57.9017 18.6357 60.5275 20.4737 63.3641 21.9346C66.5141 23.4916 69.8881 24.4956 72.9391 26.2696C73.0054 26.3076 73.0786 26.3322 73.1544 26.3419C73.2302 26.3517 73.3072 26.3465 73.381 26.3264C73.4547 26.3064 73.5239 26.2721 73.5844 26.2254C73.6449 26.1786 73.6956 26.1204 73.7336 26.0541C73.7716 25.9878 73.7962 25.9146 73.8059 25.8388C73.8157 25.763 73.8104 25.686 73.7904 25.6123C73.7704 25.5385 73.736 25.4693 73.6893 25.4088C73.6426 25.3483 73.5844 25.2976 73.5181 25.2596Z" fill="#A9C1A3"/>
<path d="M113.01 29.7445C106.891 31.1925 101.131 32.4826 94.8102 31.5226C89.1042 30.6556 83.7182 28.3676 78.2432 26.6226C68.0152 23.3616 56.3052 21.9145 45.6852 23.8955C45.0422 24.0155 45.1852 25.0956 45.8392 25.0586C52.4112 24.6586 58.7392 24.2856 65.2892 25.2696C71.0997 26.2322 76.8108 27.7203 82.3522 29.7156C92.1522 33.0686 103.588 35.6525 113.261 30.3435C113.327 30.3022 113.377 30.2386 113.401 30.1642C113.424 30.0898 113.421 30.0094 113.39 29.9374C113.36 29.8653 113.305 29.8064 113.236 29.771C113.166 29.7357 113.086 29.7263 113.01 29.7445Z" fill="#A9C1A3"/>
<path d="M104.218 25.4097C110.672 24.137 117.291 23.9393 123.809 24.8247C126.633 25.2677 129.593 26.0407 131.809 27.9817C133.041 29.0668 133.979 30.445 134.536 31.9887C134.499 32.0152 134.47 32.0515 134.453 32.0935C134.435 32.1356 134.429 32.1817 134.436 32.2267C134.547 33.2158 134.772 34.1889 135.105 35.1267C135.129 35.3177 135.156 35.5067 135.166 35.7027C135.169 35.7852 135.202 35.8637 135.261 35.9217C135.32 35.9797 135.399 36.0127 135.481 36.0137C136.243 37.5587 137.45 38.6607 139.246 37.7847C142.415 36.2397 140.664 32.2107 138.946 30.2917C134.446 25.2477 127.83 23.3917 121.327 22.8857C121.319 22.8446 121.296 22.8077 121.264 22.7808C121.232 22.754 121.191 22.7388 121.149 22.7377C118.923 22.6295 116.692 22.6963 114.476 22.9377C113 22.8983 111.525 23.0536 110.089 23.3997C108.056 23.7777 106.046 24.2637 104.058 24.8367C103.991 24.8652 103.937 24.9171 103.906 24.9827C103.874 25.0484 103.867 25.1232 103.887 25.1934C103.907 25.2635 103.951 25.3241 104.012 25.3639C104.073 25.4037 104.146 25.42 104.218 25.4097Z" fill="#A9C1A3"/>
<path d="M140.058 27.4626C148.02 27.2296 157.993 31.3116 165.08 26.3866C165.121 26.3989 165.163 26.4027 165.205 26.3975C165.247 26.3923 165.287 26.3784 165.323 26.3566C167.397 25.0709 169.008 23.1591 169.923 20.8976C170.624 19.1754 170.942 17.3218 170.857 15.4646C170.896 15.4385 170.926 15.402 170.945 15.3594C170.964 15.3167 170.97 15.2696 170.963 15.2236C170.89 14.4356 170.815 13.6479 170.738 12.8606C170.733 12.7874 170.702 12.7185 170.651 12.6656C170.6 12.6127 170.532 12.5792 170.459 12.5706C169.991 10.8345 169.239 9.18806 168.231 7.69859C168.195 7.64858 168.145 7.61056 168.086 7.58952C168.028 7.56849 167.965 7.56542 167.905 7.58061C164.788 4.26961 159.132 3.35161 156.389 7.35161C153.812 9.83361 156.336 13.2826 158.612 14.8336C158.654 14.8611 158.703 14.877 158.753 14.8796C158.803 14.8822 158.853 14.8714 158.897 14.8484C158.942 14.8254 158.979 14.791 159.006 14.7487C159.033 14.7064 159.048 14.6577 159.05 14.6076L159.067 14.6196C159.237 14.7336 159.381 14.4656 159.224 14.3466C158.582 13.9139 158.053 13.3324 157.683 12.6514C157.314 11.9705 157.114 11.2103 157.101 10.4356C157.145 9.67463 157.471 8.95743 158.016 8.42461C158.031 8.448 158.05 8.46809 158.073 8.48363C158.096 8.49917 158.122 8.5098 158.149 8.51488C158.176 8.51995 158.204 8.51935 158.231 8.51311C158.258 8.50686 158.283 8.49508 158.305 8.47856C160.368 6.99856 162.977 7.77859 164.666 9.46159C165.8 10.5792 166.64 11.9594 167.112 13.4796C167.118 14.1463 167.125 14.8156 167.133 15.4876C167.05 16.3735 166.848 17.2443 166.533 18.0766C166.487 18.0742 166.441 18.0858 166.401 18.1099C166.362 18.134 166.33 18.1694 166.311 18.2116C165.614 19.8211 164.557 21.2493 163.221 22.3866C161.82 23.3262 160.29 24.0575 158.678 24.5576C157.186 25.0894 155.656 25.5095 154.101 25.8146C154.077 25.7864 154.046 25.7648 154.011 25.7516C153.976 25.7383 153.938 25.7338 153.901 25.7386L151.629 26.0186C151.59 25.9958 151.545 25.9853 151.5 25.9886C147.683 26.3186 143.867 26.6186 140.06 27.0446C139.8 27.0756 139.787 27.4696 140.058 27.4626Z" fill="#A9C1A3"/>
<path d="M155.247 29.3585C155.228 29.3859 155.216 29.4171 155.21 29.4499C155.205 29.4828 155.206 29.5164 155.215 29.5485C155.43 30.8664 155.841 32.1446 156.435 33.3405C157.109 34.2473 157.966 35.0018 158.951 35.5545C159.992 36.2688 161.215 36.6705 162.476 36.7125C163.315 36.7545 164.144 36.7675 164.969 36.8325C164.999 36.8768 165.037 36.914 165.083 36.9414C165.128 36.9687 165.179 36.9855 165.232 36.9905C165.914 37.0635 166.596 37.1385 167.278 37.2095C167.31 37.2109 167.342 37.2079 167.372 37.2005C168.203 37.365 169 37.665 169.733 38.0885C169.724 38.1377 169.728 38.1884 169.745 38.2356C169.761 38.2829 169.789 38.3252 169.826 38.3585L170.443 38.9125C170.5 38.9636 170.573 38.993 170.649 38.9955C170.912 39.2185 171.168 39.4535 171.413 39.7065C171.473 39.762 171.55 39.7944 171.631 39.7978C171.712 39.8013 171.792 39.7755 171.856 39.7252C171.92 39.6749 171.963 39.6034 171.979 39.5237C171.995 39.4439 171.981 39.3612 171.941 39.2905C171.876 39.1845 171.804 39.0905 171.732 38.9905C171.718 38.6267 171.659 38.266 171.556 37.9165C171.592 37.8743 171.616 37.823 171.624 37.7683C171.633 37.7136 171.626 37.6576 171.604 37.6065C171.148 36.3018 170.365 35.1362 169.328 34.2215C168.064 33.3357 166.627 32.7262 165.111 32.4325C161.694 31.5785 158.472 30.8525 155.647 28.5715C155.471 28.4305 155.147 28.4995 155.161 28.7715C155.175 28.9691 155.203 29.1654 155.247 29.3585Z" fill="#A9C1A3"/>
<path d="M98.4703 25.2596C101.742 23.3596 105.39 22.3596 108.728 20.6066C112.119 18.8286 116.581 15.9256 118.394 12.3886C120.365 8.54264 119.759 1.35264 114.416 0.901637C111.816 0.682637 109.216 2.0686 108.992 4.9476C108.913 5.69951 109.017 6.45951 109.295 7.16262C109.573 7.86574 110.017 8.4911 110.589 8.98526C111.161 9.47941 111.845 9.82769 112.581 10.0003C113.317 10.173 114.084 10.1649 114.816 9.97665C114.982 9.94265 115.116 10.1906 114.94 10.2766C110.671 12.3136 106.928 7.15962 108.497 3.14462C110.137 -1.05538 116.473 -0.825363 118.757 2.51364C121.851 7.03764 120.242 13.0356 116.428 16.4706C114.085 18.6357 111.459 20.4737 108.622 21.9346C105.472 23.4916 102.1 24.4956 99.0473 26.2696C98.981 26.3075 98.9079 26.332 98.8321 26.3416C98.7564 26.3512 98.6794 26.3458 98.6057 26.3257C98.5321 26.3056 98.4631 26.2712 98.4027 26.2244C98.3423 26.1776 98.2917 26.1194 98.2538 26.0531C98.216 25.9868 98.1915 25.9137 98.1819 25.8379C98.1723 25.7621 98.1776 25.6852 98.1978 25.6115C98.2179 25.5379 98.2523 25.4689 98.299 25.4085C98.3458 25.3481 98.404 25.2975 98.4703 25.2596Z" fill="#A9C1A3"/>
<path d="M58.978 29.7445C65.096 31.1925 70.8561 32.4826 77.1781 31.5226C82.8781 30.6556 88.2701 28.3676 93.7441 26.6226C103.974 23.3616 115.683 21.9145 126.302 23.8955C126.946 24.0155 126.802 25.0956 126.148 25.0586C119.576 24.6586 113.248 24.2856 106.698 25.2696C100.888 26.2323 95.1765 27.7204 89.6351 29.7156C79.8351 33.0686 68.4001 35.6525 58.7261 30.3435C58.661 30.3015 58.6127 30.2378 58.5899 30.1637C58.567 30.0897 58.571 30.0099 58.601 29.9385C58.6311 29.867 58.6854 29.8084 58.7543 29.773C58.8232 29.7375 58.9024 29.7274 58.978 29.7445Z" fill="#A9C1A3"/>
<path d="M170.112 34.6126C168.816 33.2837 167.208 32.3016 165.433 31.7565C163.705 31.1476 161.922 30.8396 160.278 30.3216C159.486 30.0862 158.724 29.7575 158.009 29.3425C157.909 29.2785 157.809 29.2006 157.709 29.1276C160.221 29.034 162.676 28.3535 164.878 27.1406C166.338 26.2918 167.616 25.1622 168.637 23.8171C169.658 22.472 170.403 20.938 170.828 19.3035C171.69 16.0335 171.251 12.5567 169.603 9.60354C168.812 8.14899 167.679 6.90792 166.303 5.98653C164.923 5.08343 163.31 4.59959 161.66 4.59353C159.99 4.57906 158.369 5.15935 157.087 6.23055C156.417 6.76818 155.882 7.45619 155.527 8.23885C155.171 9.02151 155.006 9.87682 155.042 10.7356C155.091 11.6228 155.399 12.4762 155.927 13.1906C156.465 13.8843 157.17 14.4292 157.977 14.7736C158.613 15.0403 159.289 15.2007 159.977 15.2486C160.965 15.4919 162.003 15.422 162.949 15.0485H162.961C162.988 15.0375 163.016 15.0346 163.042 15.0246L162.729 14.0125C162.164 14.1481 161.59 14.2378 161.01 14.2805C160.196 14.2546 159.416 13.9517 158.798 13.4218C158.179 12.8919 157.76 12.1668 157.61 11.3665C157.51 10.8661 157.571 10.3469 157.785 9.88332C157.998 9.41978 158.353 9.03584 158.798 8.78658C159.793 8.32274 160.928 8.25936 161.968 8.60958C163.056 8.95983 164.027 9.60193 164.775 10.466C165.523 11.33 166.019 12.3828 166.21 13.5095C166.386 14.6729 166.312 15.8602 165.995 16.9931C165.678 18.126 165.124 19.1786 164.369 20.0816C162.808 21.9229 160.773 23.302 158.484 24.0695C156.142 24.8422 153.713 25.3251 151.253 25.5075C147.399 25.8375 143.495 26.3975 139.684 26.9525C139.35 26.9685 139.016 26.9646 138.684 26.9976C138.284 27.0286 137.884 27.0815 137.484 27.1475C137.247 27.1743 137.013 27.2228 136.784 27.2926C135.231 26.0565 133.515 25.0409 131.684 24.2746C128.447 22.9174 124.966 22.2351 121.456 22.2696C118.006 22.3042 114.563 22.5984 111.156 23.1496C109.677 23.3496 108.189 23.5495 106.718 23.8715C105.311 24.1325 103.967 24.6597 102.758 25.4246C100.342 25.8122 97.9615 26.3981 95.6413 27.1765C93.6563 27.8765 91.7213 28.7015 89.7412 29.3765C88.5532 29.7765 87.3483 30.1066 86.1413 30.4126C84.9283 30.1066 83.7243 29.7725 82.5363 29.3765C80.5553 28.7045 78.6203 27.8765 76.6363 27.1765C74.3161 26.3981 71.9357 25.8122 69.5193 25.4246C68.3139 24.6603 66.9741 24.1325 65.5713 23.8695C64.1003 23.5445 62.6142 23.3525 61.1332 23.1475C57.7269 22.5962 54.2838 22.3021 50.8333 22.2675C47.323 22.2331 43.8427 22.9153 40.6053 24.2725C38.7741 25.0383 37.0578 26.054 35.5053 27.2905C35.2769 27.2209 35.0425 27.1723 34.8053 27.1455C34.4053 27.0795 34.0113 27.0266 33.6103 26.9956C33.2773 26.9636 32.9443 26.9676 32.6103 26.9506C28.7993 26.3956 24.8933 25.8366 21.0413 25.5056C18.5806 25.3232 16.1515 24.8403 13.8083 24.0676C11.5198 23.3001 9.48494 21.9209 7.92426 20.0795C7.16987 19.1767 6.61576 18.124 6.29856 16.9911C5.98137 15.8582 5.90833 14.6708 6.08427 13.5075C6.27461 12.3807 6.77079 11.3278 7.51867 10.4637C8.26655 9.59961 9.23739 8.95757 10.3253 8.60756C11.3655 8.25734 12.5005 8.32072 13.4953 8.78457C13.9406 9.03383 14.2954 9.41782 14.5089 9.88137C14.7223 10.3449 14.7834 10.8642 14.6833 11.3646C14.5331 12.1649 14.1143 12.8899 13.496 13.4198C12.8777 13.9497 12.0971 14.2527 11.2833 14.2786C10.7036 14.2357 10.1284 14.146 9.56326 14.0106L9.23525 15.0246C9.26225 15.0356 9.29026 15.0385 9.31626 15.0485H9.32826C10.2742 15.422 11.3128 15.4919 12.3003 15.2486C12.9884 15.2005 13.664 15.0401 14.3003 14.7736C15.1073 14.4292 15.813 13.8843 16.3503 13.1906C16.8787 12.4762 17.1864 11.6228 17.2353 10.7356C17.272 9.87682 17.106 9.02151 16.7508 8.23885C16.3955 7.45619 15.8609 6.76818 15.1903 6.23055C13.9085 5.15951 12.2876 4.57924 10.6173 4.59353C8.96752 4.59959 7.35487 5.08343 5.97427 5.98653C4.59865 6.9084 3.46645 8.14936 2.67426 9.60354C1.02766 12.5571 0.58898 16.0336 1.45027 19.3035C1.87555 20.938 2.62029 22.472 3.64152 23.8171C4.66274 25.1622 5.94023 26.2918 7.40026 27.1406C9.60204 28.3535 12.0572 29.034 14.5693 29.1276C14.4693 29.2006 14.3693 29.2795 14.2693 29.3425C13.5542 29.7573 12.7926 30.0859 12.0003 30.3216C10.3543 30.8406 8.57326 31.1476 6.84426 31.7565C5.07079 32.3021 3.46264 33.2841 2.16726 34.6126C1.52828 35.3044 1.02005 36.1064 0.66726 36.9796C0.291485 37.9069 0.214922 38.9286 0.448266 39.9016L0.725259 41.0015L1.33326 39.9616C2.23326 38.4236 4.03326 37.6976 5.84026 37.2016C7.70527 36.7126 9.74627 36.5245 11.6293 35.8795C12.3843 35.612 13.1032 35.2516 13.7693 34.8065C14.4634 34.3688 15.0971 33.842 15.6543 33.2396C16.7455 32.1274 17.4309 30.6804 17.6003 29.1315C20.5822 28.9059 23.549 28.5112 26.4863 27.9495C28.0573 27.7045 29.6273 27.4956 31.2073 27.3806C31.9153 27.3346 32.6246 27.3189 33.3353 27.3336C33.9673 27.3656 34.6013 27.3946 35.2413 27.4116C35.2743 27.4116 35.3143 27.4116 35.3473 27.4116C34.1827 28.3297 33.1209 29.3711 32.1803 30.5175C31.5735 31.2029 31.1391 32.0232 30.913 32.9102C30.6869 33.7972 30.6757 34.7254 30.8803 35.6176C31.0111 36.0633 31.2306 36.478 31.5257 36.8368C31.8207 37.1956 32.1852 37.4911 32.5973 37.7056C33.0167 37.9225 33.4863 38.0238 33.9579 37.999C34.4295 37.9742 34.8859 37.8242 35.2803 37.5645C36.0502 37.0426 36.6499 36.3062 37.0053 35.4466C37.3315 34.611 37.5779 33.7465 37.7413 32.8646C37.8955 32.042 38.1525 31.242 38.5063 30.4835C38.8802 29.7646 39.375 29.1155 39.9693 28.5645C42.3873 26.3305 45.8833 25.7436 49.1973 25.2846C55.2783 24.5286 61.4293 25.1316 67.5763 25.9206C70.5113 26.6326 73.3963 27.4615 76.3193 28.2515C78.3443 28.7575 80.3943 29.2086 82.4063 29.7876C83.3233 30.0546 84.2323 30.3426 85.1413 30.6366C84.6573 30.7476 84.1753 30.8765 83.6883 30.9755C79.6566 31.8657 75.54 32.3147 71.4113 32.3145C67.2815 32.3443 63.1931 31.492 59.4193 29.8145L59.3532 29.9326C62.8913 32.3774 67.0799 33.7081 71.3803 33.7536C75.6305 33.7774 79.8539 33.0792 83.8702 31.6886C84.6283 31.4446 85.3833 31.1966 86.1383 30.9516C86.8923 31.1966 87.6472 31.4446 88.4053 31.6886C92.4216 33.0792 96.645 33.7774 100.895 33.7536C105.196 33.7079 109.384 32.3773 112.922 29.9326L112.855 29.8145C109.081 31.4917 104.993 32.344 100.863 32.3145C96.7345 32.3147 92.6179 31.8657 88.5863 30.9755C88.0993 30.8755 87.6182 30.7486 87.1332 30.6366C88.0422 30.3426 88.9513 30.0546 89.8683 29.7876C91.8813 29.2096 93.9313 28.7585 95.9543 28.2515C98.8783 27.4625 101.763 26.6336 104.697 25.9206C110.845 25.1316 116.997 24.5286 123.076 25.2846C126.391 25.7436 129.887 26.3295 132.305 28.5645C132.899 29.1158 133.394 29.7649 133.768 30.4835C134.122 31.2418 134.379 32.0419 134.532 32.8646C134.696 33.7466 134.943 34.6111 135.269 35.4466C135.624 36.3064 136.224 37.0429 136.994 37.5645C137.389 37.8242 137.845 37.9742 138.317 37.999C138.788 38.0238 139.258 37.9225 139.677 37.7056C140.089 37.4913 140.454 37.1958 140.749 36.837C141.044 36.4782 141.263 36.0634 141.393 35.6176C141.598 34.7254 141.587 33.7972 141.361 32.9101C141.135 32.0231 140.7 31.2028 140.093 30.5175C139.152 29.3714 138.09 28.3301 136.926 27.4116C136.959 27.4116 136.999 27.4116 137.032 27.4116C137.672 27.3936 138.306 27.3656 138.938 27.3336C139.649 27.3202 140.358 27.3359 141.066 27.3806C142.645 27.4956 144.216 27.7045 145.787 27.9495C148.725 28.5114 151.691 28.906 154.673 29.1315C154.843 30.6804 155.528 32.1274 156.619 33.2396C157.176 33.842 157.81 34.3688 158.504 34.8065C159.17 35.2516 159.889 35.612 160.644 35.8795C162.526 36.5245 164.568 36.7126 166.433 37.2016C168.245 37.7016 170.042 38.4226 170.94 39.9616L171.548 41.0015L171.825 39.9016C172.059 38.9286 171.982 37.9069 171.606 36.9796C171.255 36.1071 170.749 35.3052 170.112 34.6126ZM15.0583 32.7686C14.6484 33.4272 14.1501 34.0264 13.5773 34.5496C12.9904 35.0697 12.3123 35.4765 11.5773 35.7495C10.6415 36.0555 9.66173 36.2055 8.67725 36.1936C7.69125 36.2096 6.69925 36.1785 5.67726 36.2515C4.62216 36.3229 3.59468 36.62 2.66425 37.1226C2.05023 37.4598 1.51263 37.9205 1.08526 38.4755C1.0598 37.8162 1.16836 37.1585 1.40435 36.5423C1.64035 35.9261 1.99888 35.3642 2.45826 34.8906C3.71628 33.6622 5.33535 32.87 7.07726 32.6306C8.79326 32.2746 10.5643 32.0805 12.3573 31.6065C13.2993 31.3926 14.2036 31.0373 15.0393 30.5526C15.4503 30.2816 15.8393 29.9785 16.1883 29.7315C16.011 30.8073 15.6273 31.8386 15.0583 32.7686ZM26.3843 27.2006C23.4373 27.5336 20.5233 27.9755 17.6163 28.0645V27.7116L16.8353 27.8886C16.6372 27.9397 16.4436 28.0066 16.2563 28.0886C13.3737 28.1347 10.5265 27.4497 7.98026 26.0976C5.24999 24.5251 3.22578 21.9665 2.32372 18.9477C1.42167 15.9288 1.71029 12.6791 3.13026 9.86654C3.86212 8.46842 4.92079 7.26772 6.21626 6.36654C7.50831 5.47601 9.04735 5.01364 10.6163 5.04458C12.176 5.04884 13.6829 5.61026 14.8653 6.62758C15.4478 7.12374 15.9052 7.75013 16.2006 8.45601C16.4959 9.1619 16.6209 9.92741 16.5653 10.6906C16.524 11.1787 16.3854 11.6535 16.1576 12.0872C15.9299 12.5208 15.6176 12.9045 15.2393 13.2155C15.5672 12.7108 15.789 12.1447 15.8913 11.5515C16.0124 10.8004 15.9234 10.0303 15.6343 9.32656C15.3252 8.6109 14.7879 8.01768 14.1063 7.63955C12.8207 6.98632 11.3308 6.86109 9.95426 7.29055C8.60216 7.6692 7.39104 8.43665 6.47126 9.49758C5.56356 10.5706 4.95507 11.8641 4.70725 13.2476C4.50057 14.611 4.58658 16.0029 4.95953 17.3305C5.33248 18.6582 5.98383 19.8911 6.87026 20.9475C8.59207 22.9768 10.8662 24.4623 13.4163 25.2235C15.8647 25.9618 18.3962 26.3895 20.9513 26.4965C23.4793 26.5795 25.9623 26.7965 28.4623 27.0075C27.7663 27.0555 27.0743 27.1186 26.3863 27.2006H26.3843ZM49.0153 23.9126C47.2755 24.1541 45.5582 24.5363 43.8803 25.0556C42.1325 25.578 40.5374 26.5161 39.2313 27.7896C38.5701 28.4475 38.0376 29.2231 37.6613 30.0766C37.325 30.9238 37.0971 31.8102 36.9833 32.7146C36.8801 33.5595 36.6938 34.3922 36.4273 35.2006C36.1611 35.9749 35.6685 36.6515 35.0133 37.1425C34.6907 37.3667 34.3137 37.5 33.9218 37.5283C33.53 37.5567 33.1378 37.479 32.7863 37.3035C32.4203 37.1271 32.096 36.8748 31.835 36.5634C31.5739 36.2521 31.3821 35.8888 31.2723 35.4976C31.1046 34.6784 31.1406 33.8306 31.377 33.0286C31.6134 32.2266 32.0431 31.4948 32.6283 30.8975C34.9826 28.4499 37.8519 26.5565 41.0283 25.3546C47.4282 22.9296 54.3497 22.2144 61.1103 23.2796C62.5902 23.4732 64.0562 23.7614 65.4992 24.1425C66.348 24.3871 67.1691 24.7193 67.9493 25.1336C61.7692 23.5542 55.349 23.1401 49.0173 23.9126H49.0153ZM139.641 30.8955C140.226 31.4929 140.656 32.2248 140.892 33.0268C141.128 33.8288 141.163 34.6766 140.995 35.4956C140.886 35.8868 140.694 36.2503 140.433 36.5617C140.173 36.8731 139.848 37.1253 139.482 37.3015C139.131 37.477 138.738 37.5547 138.346 37.5263C137.954 37.498 137.577 37.3648 137.254 37.1406C136.6 36.6489 136.107 35.9726 135.84 35.1986C135.575 34.39 135.389 33.5573 135.285 32.7125C135.171 31.8081 134.944 30.9218 134.607 30.0745C134.23 29.2214 133.698 28.4458 133.037 27.7876C131.731 26.5143 130.136 25.5763 128.388 25.0535C126.71 24.5343 124.993 24.152 123.253 23.9105C116.922 23.1379 110.502 23.5516 104.322 25.1306C105.102 24.7165 105.923 24.3844 106.771 24.1395C108.215 23.7585 109.681 23.4702 111.161 23.2766C117.922 22.2114 124.843 22.9266 131.243 25.3516C134.42 26.5538 137.289 28.4475 139.643 30.8955H139.641ZM143.813 27.0006C146.313 26.7916 148.796 26.5726 151.324 26.4896C153.879 26.3825 156.411 25.9548 158.859 25.2166C161.409 24.4553 163.683 22.9698 165.405 20.9406C166.292 19.8842 166.943 18.6512 167.316 17.3235C167.689 15.9959 167.775 14.604 167.568 13.2406C167.32 11.8571 166.712 10.5636 165.804 9.49056C164.884 8.42963 163.673 7.66218 162.321 7.28353C160.945 6.85397 159.455 6.9792 158.169 7.63253C157.487 8.01086 156.949 8.60394 156.639 9.31954C156.351 10.0237 156.263 10.7936 156.384 11.5446C156.487 12.1377 156.708 12.7039 157.036 13.2086C156.657 12.8979 156.345 12.5143 156.117 12.0806C155.889 11.6468 155.751 11.1718 155.71 10.6836C155.655 9.92055 155.78 9.15519 156.075 8.44948C156.37 7.74377 156.828 7.11755 157.41 6.62154C158.593 5.60446 160.1 5.04309 161.66 5.03853C163.229 5.00759 164.768 5.47003 166.06 6.36055C167.356 7.26174 168.414 8.46244 169.146 9.86055C170.566 12.6733 170.855 15.9233 169.952 18.9422C169.05 21.9611 167.025 24.5196 164.294 26.0916C161.749 27.4437 158.902 28.1287 156.02 28.0825C155.833 28.0007 155.639 27.9338 155.441 27.8825L154.659 27.7056V28.0586C151.754 27.9696 148.839 27.5275 145.891 27.1945C145.197 27.1185 144.507 27.0555 143.815 27.0015L143.813 27.0006ZM169.598 37.1245C168.668 36.6219 167.641 36.3249 166.586 36.2536C165.566 36.1806 164.573 36.2116 163.586 36.1956C162.602 36.2076 161.622 36.0575 160.686 35.7515C159.951 35.4785 159.273 35.0716 158.686 34.5515C157.296 33.2894 156.378 31.5898 156.086 29.7346C156.437 29.9806 156.824 30.2846 157.235 30.5556C158.071 31.0405 158.975 31.3959 159.917 31.6096C161.71 32.0836 163.481 32.2776 165.196 32.6336C166.939 32.8728 168.558 33.665 169.816 34.8936C170.273 35.3683 170.629 35.9307 170.863 36.5469C171.096 37.1631 171.203 37.8202 171.175 38.4785C170.749 37.9227 170.212 37.4616 169.598 37.1245Z" fill="black"/>
<path d="M112.443 18.9976C108.443 21.1976 104.016 22.8165 100.075 25.4105L100.136 25.5296C104.436 23.7666 108.918 22.4676 113 19.9726C115.004 18.6694 116.777 17.0414 118.245 15.1555C119.796 13.294 120.816 11.0484 121.196 8.65554C121.415 7.40413 121.321 6.11796 120.921 4.91207C120.521 3.70619 119.828 2.61824 118.905 1.74557C117.929 0.885087 116.722 0.328897 115.433 0.145531C114.117 -0.0183863 112.783 0.268922 111.651 0.960533C110.497 1.65579 109.63 2.74081 109.206 4.01955C108.814 5.29571 108.88 6.66875 109.392 7.90157C109.633 8.48263 109.993 9.00688 110.448 9.44076C110.904 9.87464 111.445 10.2085 112.037 10.421C112.629 10.6336 113.259 10.72 113.886 10.6748C114.514 10.6296 115.125 10.4537 115.68 10.1585L115.623 10.0366C114.59 10.3995 113.455 10.3371 112.468 9.86324C111.481 9.38934 110.722 8.54268 110.359 7.50954C110.017 6.52982 110.031 5.46096 110.399 4.49062C110.767 3.52029 111.465 2.71053 112.37 2.20358C113.263 1.68739 114.294 1.46032 115.321 1.55361C116.348 1.6469 117.321 2.05597 118.106 2.72457C118.922 3.45752 119.559 4.36739 119.969 5.38448C120.378 6.40158 120.55 7.49892 120.47 8.59255C120.343 10.9134 119.442 13.1248 117.912 14.8745C116.363 16.579 114.508 17.9776 112.443 18.9976Z" fill="black"/>
<path d="M54.0272 15.1564C55.4958 17.0423 57.2684 18.6702 59.2722 19.9734C63.3532 22.4734 67.8342 23.7674 72.1362 25.5304L72.1972 25.4115C68.2552 22.8165 63.8262 21.1984 59.8282 18.9984C57.763 17.9789 55.9075 16.5807 54.3582 14.8764C52.829 13.1263 51.9289 10.915 51.8012 8.59443C51.7215 7.5008 51.8931 6.4034 52.3029 5.3863C52.7126 4.36921 53.3497 3.45941 54.1652 2.72645C54.9502 2.05781 55.9231 1.64867 56.95 1.55537C57.977 1.46208 59.0076 1.68922 59.9002 2.20546C60.8056 2.71254 61.5035 3.52217 61.8716 4.49238C62.2397 5.4626 62.2544 6.53143 61.9132 7.51143C61.5502 8.54456 60.7918 9.39122 59.8046 9.86513C58.8174 10.339 57.6824 10.4013 56.6492 10.0384L56.5922 10.1604C57.1477 10.4556 57.7587 10.6314 58.3862 10.6766C59.0136 10.7219 59.6435 10.6354 60.2355 10.4229C60.8276 10.2104 61.3687 9.87652 61.8241 9.44264C62.2796 9.00876 62.6393 8.48451 62.8802 7.90346C63.3922 6.67052 63.4577 5.29748 63.0652 4.02144C62.6422 2.7425 61.7752 1.65731 60.6212 0.962416C59.489 0.270953 58.1558 -0.0163441 56.8392 0.147413C55.5505 0.331101 54.3433 0.887238 53.3662 1.74745C52.4435 2.6205 51.7513 3.70849 51.3515 4.91426C50.9517 6.12003 50.8568 7.40602 51.0752 8.65742C51.4564 11.05 52.4762 13.2953 54.0272 15.1564Z" fill="black"/>
</svg>
