<svg width="360" height="121" viewBox="0 0 360 121" fill="none" xmlns="http://www.w3.org/2000/svg">
<path d="M14.1528 32.7244C7.86266 29.0761 3.14506 26.3609 0 24.5787V1.08505L1.83986 0L3.69545 1.08505V22.4086C8.41304 25.0819 11.8412 27.1262 14.1371 28.4628L28.2898 20.2542V45.8393C27.6929 46.2367 27.0733 46.5989 26.4343 46.9244C25.6323 46.4526 25.019 46.1066 24.5944 45.8393V26.733L14.1528 32.7244ZM3.69545 45.8393C3.09848 46.2367 2.47891 46.5989 1.83986 46.9244C1.03787 46.4526 0.424584 46.1066 0 45.8393V27.3778L3.69545 29.5479V45.8393ZM24.6416 1.08505C25.4907 0.613287 26.104 0.251605 26.4814 0C27.3306 0.47176 27.9596 0.833442 28.337 1.08505V17.4394C26.7645 18.3829 25.4907 19.0119 24.6416 19.5466V1.08505Z" fill="#F25832"/>
<path d="M71.8505 38.7786C68.7054 40.6028 63.9878 43.318 57.6977 46.9244C54.5526 45.1002 49.835 42.385 43.5449 38.7786V8.14571C46.69 6.374 51.4076 3.65876 57.6977 0L71.8505 8.14571V38.7786ZM68.155 10.3158C65.8591 8.96343 62.3839 6.93487 57.7134 4.26156C55.3861 5.62966 51.8951 7.6425 47.2718 10.3158V36.6714L57.7134 42.7257L68.155 36.6714V10.3158Z" fill="#F25832"/>
<path d="M115.36 19.5466C104.416 13.2564 96.2018 8.53885 90.7189 5.39378V45.8393C90.1268 46.2358 89.5125 46.5981 88.879 46.9244C88.077 46.4526 87.448 46.1066 87.0234 45.8393V1.08505L88.879 0C99.0166 5.87079 106.607 10.2424 111.649 13.1149V1.08505C112.498 0.613287 113.127 0.251605 113.505 0C114.354 0.47176 114.967 0.833442 115.345 1.08505L115.36 19.5466ZM115.36 22.4086V45.8393C114.768 46.2358 114.154 46.5981 113.521 46.9244C112.719 46.4526 112.09 46.1066 111.665 45.8393V20.2542L115.36 22.4086Z" fill="#F25832"/>
<path d="M134.231 10.3158V36.6714L144.672 42.6628C150.962 39.0669 155.68 36.3517 158.825 34.5171V38.7786L144.672 46.9244C138.382 43.3285 133.665 40.6133 130.52 38.7786V8.14571L144.672 0C150.962 3.64827 155.68 6.36351 158.825 8.14571V10.3158L156.97 11.4009C151.497 8.25579 147.382 5.87603 144.625 4.26156L134.231 10.3158ZM155.193 33.8094V31.6393L149.013 28.0854V25.9782L150.962 24.8932C154.485 26.9375 157.142 28.4786 158.935 29.6108V31.7022C157.253 32.63 156.042 33.3377 155.193 33.8094ZM158.825 45.8393C158.226 46.2333 157.607 46.5955 156.97 46.9244C156.168 46.4526 155.554 46.1066 155.13 45.8393V43.7478L158.825 41.6406V45.8393Z" fill="#F25832"/>
<path d="M222.858 8.14571V1.08505C223.708 0.613287 224.321 0.251605 224.714 0C225.563 0.47176 226.176 0.833442 226.554 1.08505V10.3158L206.237 22.0154L198.217 17.4237V1.08505L200.072 0L201.912 1.08505V15.2378L206.237 17.7224C213.628 13.508 219.168 10.3158 222.858 8.14571ZM201.912 22.4086V45.8393C201.318 46.2324 200.704 46.5945 200.072 46.9244C199.255 46.4526 198.641 46.1066 198.217 45.8393V20.2542L201.912 22.4086ZM222.858 45.8393C223.708 46.3582 224.321 46.7199 224.714 46.9244C225.563 46.4526 226.176 46.1066 226.554 45.8393V22.4086C223.031 20.3328 220.374 18.776 218.597 17.7696C217.024 18.7446 215.688 19.4679 214.838 19.924C218.403 22.0207 221.076 23.5932 222.858 24.6416V45.8393Z" fill="#F25832"/>
<path d="M270.13 38.7786C266.985 40.6028 262.267 43.318 255.977 46.9244C252.832 45.1002 248.114 42.385 241.824 38.7786V8.14571C244.969 6.374 249.687 3.65876 255.977 0L270.13 8.14571V38.7786ZM266.434 10.3158C264.154 8.96343 260.663 6.93487 255.993 4.26156C253.665 5.62966 250.174 7.6425 245.551 10.3158V36.6714L255.993 42.7257L266.434 36.6714V10.3158Z" fill="#F25832"/>
<path d="M313.642 19.5466C302.697 13.2564 294.483 8.53885 289 5.39378V45.8393C288.408 46.2358 287.794 46.5981 287.16 46.9244C286.358 46.4526 285.745 46.1066 285.32 45.8393V1.08505L287.16 0C297.298 5.87079 304.898 10.2424 309.962 13.1149V1.08505C310.811 0.613287 311.424 0.251605 311.802 0C312.651 0.47176 313.264 0.833442 313.642 1.08505V19.5466ZM313.642 22.4086V45.8393C313.05 46.2358 312.435 46.5981 311.802 46.9244C311 46.4526 310.386 46.1066 309.962 45.8393V20.2542L313.642 22.4086Z" fill="#F25832"/>
<path d="M332.528 10.3158V36.6714L342.969 42.6628C349.259 39.0669 353.977 36.3517 357.122 34.5171V38.7786L342.969 46.9244C336.679 43.3285 331.961 40.6133 328.816 38.7786V8.14571L342.969 0C349.259 3.64827 353.977 6.36351 357.122 8.14571V10.3158L355.392 11.4009C349.92 8.25579 345.805 5.87603 343.048 4.26156C338.33 6.93487 334.855 8.96343 332.528 10.3158ZM353.474 33.8094V31.6393L347.294 28.0854V25.9782L349.212 24.8932C352.735 26.9375 355.376 28.4786 357.169 29.6108V31.7022C355.549 32.63 354.323 33.3377 353.474 33.8094ZM357.169 45.8393C356.57 46.2333 355.951 46.5955 355.314 46.9244C354.512 46.4526 353.898 46.1066 353.474 45.8393V43.7478L357.169 41.6406V45.8393Z" fill="#F25832"/>
<path d="M257.519 85.4316C258.528 83.9446 259.63 82.1678 260.824 80.1013C262.064 78.0279 263.177 75.8822 264.164 73.6641C265.145 71.4013 265.943 69.1438 266.558 66.8917C267.173 64.6395 267.38 62.5653 267.178 60.6691C267.133 60.6761 267.085 60.6606 267.033 60.6227C266.199 60.5683 265.366 60.6743 264.535 60.9405C263.698 61.162 262.9 61.492 262.142 61.9307C261.383 62.3693 260.632 62.8527 259.888 63.3809C259.144 63.9092 258.444 64.4305 257.79 64.9449C256.473 65.9288 255.05 67.1128 253.521 68.4969C251.991 69.881 250.475 71.3548 248.973 72.9181C247.465 74.4367 246.03 75.9896 244.67 77.577C243.354 79.1575 242.229 80.6395 241.296 82.023L241.364 82.0126C241.112 82.4645 240.811 83.0389 240.46 83.7357C240.147 84.3808 239.863 85.0672 239.609 85.795C239.354 86.5228 239.189 87.2367 239.114 87.9367C239.039 88.6367 239.133 89.2418 239.395 89.7518C240.168 90.5959 241.395 91.255 243.074 91.7293C244.799 92.1966 246.699 92.6137 248.775 92.9807C250.889 93.296 253.055 93.6491 255.272 94.0401C257.483 94.3862 259.509 94.8757 261.351 95.5084C263.237 96.1342 264.771 96.9982 265.951 98.1004C267.169 99.1509 267.798 100.545 267.838 102.283C267.866 103.059 267.701 103.773 267.343 104.425C267.03 105.07 266.594 105.665 266.036 106.21C265.516 106.704 264.944 107.159 264.32 107.577C263.697 107.995 263.092 108.387 262.506 108.753C261.755 109.236 260.918 109.756 259.994 110.312C259.122 110.906 258.192 111.417 257.203 111.846C256.265 112.312 255.31 112.666 254.338 112.909C253.366 113.151 252.382 113.166 251.385 112.953C250.092 112.602 248.79 112.047 247.479 111.286C246.175 110.57 245.148 109.719 244.399 108.734C243.643 107.703 243.316 106.63 243.418 105.512C243.559 104.343 244.433 103.175 246.042 102.009L250.576 105.506C249.936 106.11 249.384 106.7 248.923 107.276C248.462 107.852 248.269 108.387 248.345 108.88C249.345 108.817 250.372 108.635 251.427 108.334C252.52 107.981 253.557 107.568 254.54 107.095C255.567 106.615 256.539 106.074 257.455 105.473C258.417 104.866 259.307 104.246 260.127 103.614C260.255 103.549 260.496 103.328 260.851 102.951C261.25 102.568 261.647 102.163 262.039 101.735C262.425 101.262 262.725 100.826 262.938 100.426C263.144 99.9805 263.118 99.6633 262.86 99.4739C261.545 98.989 260.059 98.5766 258.4 98.2368C256.779 97.8453 255.206 97.4692 253.682 97.1086C252.016 96.724 250.276 96.3049 248.462 95.8515C246.693 95.3911 244.906 94.8187 243.102 94.1342C242.271 93.804 241.362 93.417 240.376 92.9731C239.427 92.4775 238.513 91.9077 237.633 91.2637C236.753 90.6198 235.997 89.8878 235.365 89.0677C234.689 88.2546 234.267 87.3103 234.101 86.2346C233.9 84.9349 234.079 83.5762 234.64 82.1585C235.194 80.6961 235.849 79.4473 236.607 78.4121C239.758 74.1612 243.268 70.153 247.136 66.3875C251.05 62.6152 255.381 59.4665 260.13 56.9415C261.971 56.3812 263.734 56.3606 265.421 56.8796C267.108 57.3987 268.6 58.2921 269.897 59.5597C270.508 60.2453 271 60.9034 271.373 61.5341C271.791 62.1578 272.074 62.8023 272.223 63.4676C272.372 64.133 272.416 64.8605 272.355 65.6501C272.293 66.4398 272.134 67.3364 271.876 68.34C270.976 72.013 269.719 75.6036 268.106 79.1118C266.485 82.5751 264.545 85.9043 262.286 89.0993L257.519 85.4316ZM272.626 71.0463C273.657 70.8868 274.579 70.7669 275.393 70.6869C276.244 70.555 277.054 70.4526 277.823 70.3794C278.463 68.5824 279.006 67.0527 279.453 65.7903C279.938 64.4761 280.27 63.5069 280.449 62.8826L284.91 65.9093C284.741 66.3025 284.523 66.8182 284.254 67.4563C284.024 68.0427 283.788 68.7446 283.548 69.562C283.638 69.5482 283.75 69.5308 283.884 69.51C284.012 69.4444 284.143 69.4011 284.277 69.3803L285.496 73.253C284.786 73.4089 284.165 73.5508 283.635 73.6789C283.142 73.7552 282.649 73.8315 282.156 73.9079C281.588 75.8772 281.03 78.0517 280.481 80.4314C279.969 82.7593 279.554 85.1182 279.236 87.5079C278.917 89.8977 278.752 92.2408 278.741 94.5372C278.767 96.7819 279.057 98.8022 279.61 100.598C280.017 100.26 280.461 99.5715 280.943 98.5332C281.469 97.4879 281.997 96.3047 282.527 94.9836C283.102 93.6556 283.643 92.2638 284.152 90.8083C284.706 89.3458 285.232 88.0023 285.731 86.7778L290.125 89.8148C289.902 90.446 289.623 91.3152 289.29 92.4223C288.949 93.4846 288.552 94.6246 288.098 95.8421C287.637 97.0149 287.083 98.1791 286.436 99.3348C285.834 100.484 285.136 101.464 284.344 102.275C283.545 103.041 282.663 103.567 281.697 103.854C280.732 104.142 279.653 103.987 278.459 103.392C276.479 102.459 275.121 100.949 274.385 98.86C273.641 96.7264 273.293 94.3251 273.338 91.6563C273.377 88.9427 273.697 86.1167 274.298 83.1784C274.943 80.2332 275.676 77.412 276.498 74.7149L275.422 74.8814L272.626 71.0463ZM283.992 91.2461C284.601 89.5456 285.32 87.6675 286.149 85.6117C286.926 83.518 287.715 81.3536 288.517 79.1186C287.87 77.6124 287.748 76.2315 288.151 74.9761C288.591 73.6689 289.255 72.6252 290.144 71.8451C291.026 71.0202 291.998 70.4797 293.06 70.2235C294.166 69.9604 295.052 70.0527 295.718 70.5003C296.377 70.9031 296.692 71.7493 296.662 73.0389C296.625 74.2837 295.953 76.017 294.645 78.2387C295.276 78.4622 295.747 78.6877 296.057 78.9149C296.368 79.1422 296.644 79.4437 296.886 79.8193C297.165 80.1431 297.462 80.579 297.776 81.127C298.129 81.6231 298.621 82.2813 299.252 83.1013C299.936 83.9592 300.259 85.0106 300.222 86.2553C300.224 87.4484 300.049 88.6915 299.698 89.9849C299.393 91.2713 299.039 92.5422 298.637 93.7977C298.227 95.0083 297.954 96.0602 297.817 96.9534C298.81 96.2491 299.652 95.3156 300.344 94.1529C301.08 92.9834 301.721 91.7829 302.264 90.5514C302.801 89.2751 303.274 88.0317 303.683 86.821C304.137 85.6034 304.555 84.5979 304.937 83.8045L309.409 86.8984C309.226 87.202 309.011 87.7401 308.764 88.5127C308.509 89.2404 308.186 90.1165 307.794 91.141C307.44 92.1137 307.025 93.1416 306.55 94.2247C306.12 95.3009 305.631 96.2944 305.084 97.2052C304.582 98.109 304.017 98.9078 303.39 99.6014C302.756 100.25 302.079 100.768 301.359 101.155C300.683 101.535 299.958 101.739 299.182 101.767C298.444 101.744 297.735 101.464 297.055 100.926C296.59 100.585 296.124 100.244 295.658 99.9035C295.237 99.5556 294.816 99.2078 294.395 98.8599C293.864 98.3915 293.532 97.7315 293.4 96.88C293.306 95.9767 293.314 94.9888 293.423 93.9164C293.577 92.837 293.795 91.7248 294.077 90.5798C294.352 89.3899 294.614 88.2708 294.865 87.2224C295.161 86.167 295.384 85.2375 295.535 84.434C295.686 83.6305 295.689 83.0564 295.544 82.7117C295.157 82.5879 294.749 82.4676 294.317 82.3508C293.879 82.1892 293.448 82.0723 293.024 82.0003C292.832 82.535 292.635 83.0472 292.436 83.537C292.281 84.0198 292.123 84.4803 291.961 84.9184C291.422 86.4705 290.852 87.9813 290.254 89.4507C289.693 90.8684 289.082 92.4085 288.422 94.0711L283.992 91.2461ZM309.189 91.2004C309.032 92.5556 308.958 93.7142 308.97 94.6762C309.026 95.6312 309.116 96.2139 309.24 96.4241C309.834 96.6994 310.47 96.8074 311.149 96.7481C311.821 96.6441 312.48 96.4504 313.124 96.167C313.769 95.8837 314.38 95.5366 314.959 95.1257C315.538 94.7148 316.046 94.292 316.484 93.8571C317.366 93.0322 318.118 92.1126 318.742 91.0983C319.358 90.0392 319.903 88.968 320.378 87.8849C320.891 86.75 321.355 85.5997 321.771 84.4338C322.187 83.268 322.652 82.1177 323.164 80.9828L327.502 84.0974C327 85.5978 326.517 87.0723 326.052 88.5209C325.588 89.9695 325.024 91.3648 324.36 92.7067C323.734 93.9968 322.952 95.1734 322.015 96.2362C321.123 97.2922 319.995 98.1552 318.63 98.8254C317.668 99.4332 316.695 99.8134 315.709 99.966C314.768 100.112 313.824 100.097 312.88 99.9222C311.979 99.7403 311.081 99.4204 310.184 98.9627C309.332 98.498 308.488 97.9402 307.653 97.2893C306.915 96.6694 306.256 95.9683 305.676 95.1861C305.096 94.404 304.666 93.5527 304.385 92.6324C304.005 91.3604 303.867 90.0279 303.973 88.6348C304.034 87.2486 304.281 85.8795 304.714 84.5274C305.102 83.1823 305.639 81.9061 306.324 80.6986C307.047 79.4394 307.861 78.3266 308.767 77.3603C310.541 75.4795 312.285 74.59 313.999 74.6918C315.713 74.7936 317.512 75.5936 319.396 77.0917C320.355 77.9529 320.894 79.0626 321.012 80.421C321.024 81.383 320.762 82.3642 320.229 83.3647C319.733 84.3133 319.22 85.15 318.69 85.8746C317.499 87.6652 316.262 89.1645 314.981 90.3726C313.699 91.5806 312.323 92.6197 310.851 93.49L309.189 91.2004ZM316.025 78.4397C314.991 78.8751 314.096 79.4724 313.342 80.2317C312.632 80.984 312.011 81.8604 311.477 82.8609C310.982 83.8095 310.567 84.8374 310.234 85.9446C309.945 87.0448 309.683 88.1639 309.446 89.302C310.079 88.6532 310.767 87.9043 311.507 87.0554C312.248 86.2065 312.937 85.3197 313.574 84.395C314.248 83.4186 314.808 82.4371 315.252 81.4505C315.689 80.4191 315.946 79.4155 316.025 78.4397ZM327.506 88.3648C327.348 89.72 327.275 90.8786 327.286 91.8406C327.342 92.7957 327.433 93.3783 327.557 93.5885C328.15 93.8638 328.787 93.9718 329.466 93.9126C330.138 93.8085 330.796 93.6148 331.441 93.3314C332.085 93.0481 332.697 92.701 333.276 92.2901C333.855 91.8793 334.363 91.4564 334.801 91.0215C335.683 90.1966 336.435 89.277 337.058 88.2627C337.674 87.2036 338.22 86.1325 338.695 85.0493C339.207 83.9144 339.672 82.7641 340.088 81.5983C340.504 80.4324 340.968 79.2821 341.481 78.1472L345.818 81.2619C345.316 82.7622 344.833 84.2367 344.369 85.6853C343.905 87.1339 343.341 88.5292 342.677 89.8711C342.05 91.1613 341.269 92.3378 340.332 93.4007C339.44 94.4566 338.311 95.3197 336.947 95.9899C335.985 96.5976 335.011 96.9778 334.025 97.1305C333.084 97.2762 332.141 97.2615 331.196 97.0866C330.296 96.9047 329.398 96.5849 328.501 96.1271C327.649 95.6624 326.805 95.1046 325.97 94.4537C325.232 93.8338 324.572 93.1327 323.992 92.3506C323.412 91.5684 322.982 90.7172 322.702 89.7968C322.322 88.5248 322.184 87.1923 322.29 85.7992C322.35 84.413 322.597 83.0439 323.031 81.6919C323.419 80.3468 323.956 79.0705 324.641 77.863C325.364 76.6038 326.178 75.4911 327.084 74.5248C328.858 72.6439 330.602 71.7544 332.316 71.8562C334.029 71.9581 335.828 72.758 337.712 74.2562C338.672 75.1173 339.211 76.227 339.329 77.5855C339.34 78.5475 339.079 79.5287 338.546 80.5291C338.05 81.4778 337.537 82.3144 337.007 83.039C335.815 84.8296 334.579 86.329 333.297 87.537C332.016 88.745 330.639 89.7842 329.168 90.6544L327.506 88.3648ZM334.341 75.6041C333.307 76.0395 332.413 76.6369 331.659 77.3961C330.949 78.1485 330.328 79.0249 329.794 80.0253C329.298 80.974 328.884 82.0019 328.551 83.109C328.262 84.2092 327.999 85.3283 327.762 86.4664C328.396 85.8176 329.083 85.0687 329.824 84.2198C330.564 83.3709 331.253 82.4841 331.89 81.5594C332.565 80.583 333.125 79.6015 333.568 78.6149C334.005 77.5836 334.263 76.5799 334.341 75.6041ZM340.575 60.5273C341.606 60.3677 342.528 60.2479 343.342 60.1678C344.193 60.036 345.003 59.9335 345.772 59.8603C346.412 58.0633 346.955 56.5336 347.402 55.2712C347.887 53.957 348.219 52.9878 348.398 52.3636L352.859 55.3902C352.69 55.7834 352.472 56.2991 352.204 56.9373C351.973 57.5236 351.738 58.2255 351.497 59.043C351.587 59.0291 351.699 59.0117 351.833 58.9909C351.961 58.9253 352.092 58.8821 352.226 58.8612L353.445 62.734C352.735 62.8898 352.114 63.0318 351.584 63.1598C351.091 63.2361 350.598 63.3125 350.105 63.3888C349.538 65.3582 348.979 67.5327 348.43 69.9123C347.918 72.2402 347.503 74.5991 347.185 76.9889C346.866 79.3787 346.701 81.7218 346.69 84.0182C346.716 86.2628 347.006 88.2831 347.559 90.079C347.966 89.7407 348.41 89.0524 348.892 88.0141C349.418 86.9688 349.946 85.7857 350.476 84.4646C351.051 83.1365 351.592 81.7447 352.101 80.2892C352.655 78.8267 353.181 77.4832 353.68 76.2587L358.074 79.2957C357.851 79.9269 357.572 80.7961 357.239 81.9032C356.898 82.9655 356.501 84.1055 356.047 85.3231C355.586 86.4958 355.032 87.6601 354.385 88.8158C353.783 89.9645 353.085 90.9444 352.293 91.7555C351.494 92.5217 350.612 93.0483 349.647 93.3354C348.681 93.6225 347.602 93.4684 346.408 92.873C344.428 91.9404 343.07 90.4297 342.334 88.3409C341.59 86.2073 341.242 83.806 341.287 81.1372C341.326 78.4236 341.646 75.5976 342.247 72.6593C342.892 69.7141 343.626 66.8929 344.447 64.1958L343.372 64.3623L340.575 60.5273Z" fill="#133E68"/>
</svg>
