<svg width="202" height="70" viewBox="0 0 202 70" fill="none" xmlns="http://www.w3.org/2000/svg">
<g clip-path="url(#clip0)">
<path d="M126.095 46.8521C123.406 44.9659 121.4 41.9158 121.761 38.6652C121.841 37.8224 122.082 36.9395 122.443 35.9763C123.085 34.3309 124.65 33.0467 126.095 32.1236C128.222 30.719 132.195 30.4381 134.643 30.6789C134.844 30.719 135.045 30.719 135.245 30.7592C138.014 27.669 142.148 26.4249 146.161 26.8262C148.128 27.0269 150.094 27.669 151.82 28.6322L151.619 28.9934C149.933 28.0302 148.047 27.4282 146.121 27.2275C142.349 26.8262 138.416 27.9901 135.727 30.8394C136.048 30.9197 136.409 30.9598 136.73 31.0802C138.857 31.6421 141.466 33.0467 142.589 35.0533C143.031 35.8559 143.191 36.7388 143.111 37.6217C142.991 38.9862 141.666 40.6316 140.061 40.9125C139.62 40.9928 139.178 40.9928 138.777 40.9527C135.566 40.5915 133.72 37.0197 134.041 33.8895C134.121 33.0467 134.443 31.8026 134.964 31.1203C134.844 31.1203 134.723 31.0802 134.603 31.0802C132.195 30.8394 129.908 31.2407 127.901 32.6052C126.496 33.5283 125.012 34.7724 124.41 36.2974C124.048 37.1803 123.848 38.0632 123.767 38.8658C123.446 41.956 124.971 44.404 127.58 46.2501C130.189 48.056 133.921 49.2199 137.894 49.6212C146.241 50.5041 155.712 48.056 158.602 41.9961L158.963 42.1566C155.913 48.4975 145.84 51.2265 137.412 50.3837C133.359 49.9422 128.784 48.6981 126.095 46.8521ZM134.402 33.5283C134.242 34.973 134.723 36.5783 135.566 37.8625C136.449 39.1467 137.693 40.0698 139.178 40.1902C139.579 40.2303 139.941 40.2303 140.382 40.15C141.787 39.9092 142.509 38.8257 142.67 37.5816C142.75 36.8191 142.589 35.9763 142.188 35.2539C141.185 33.4079 138.616 31.9631 136.61 31.4815C136.208 31.3611 135.807 31.2809 135.406 31.2006C134.804 31.8427 134.523 32.6855 134.402 33.5283Z" fill="#FB7B5D"/>
<path d="M137.779 45.708C136.422 45.497 134.7 44.9511 133.447 44.2167C131.067 42.9743 128.499 40.8158 127.027 39.6622C124.688 37.7677 121.461 36.0349 120.093 35.4491C120.446 35.6069 120.726 35.8888 120.726 35.8888C120.726 35.8888 120.786 35.8523 120.382 35.5772C119.434 35.0182 120.483 36.9567 120.68 36.6262C120.68 36.6262 120.65 36.0769 121.571 36.5096C125.549 38.6018 128.837 41.5855 128.837 41.5855C129.977 42.4374 131.877 44.0545 135.094 45.3814C138.312 46.7083 141.653 46.1101 142.269 45.8064C141.239 45.9903 139.137 45.8879 137.779 45.708Z" fill="#FB7B5D"/>
<path fill-rule="evenodd" clip-rule="evenodd" d="M151.3 29.3547C150.818 30.4784 150.296 31.4015 150.136 32.485C149.895 33.9298 150.497 34.8127 150.336 36.2574C150.938 35.6153 151.701 34.9331 151.942 33.9699C152.223 32.6456 151.259 31.3613 151.3 30.1975C151.179 31.3212 151.902 32.766 150.818 33.9298C150.417 32.6456 150.657 31.0403 151.3 29.3547Z" fill="#FB7B5D"/>
<path fill-rule="evenodd" clip-rule="evenodd" d="M150.86 30.6792C150.017 31.0003 149.295 31.2009 148.613 31.6424C147.73 32.2443 147.569 33.0069 146.727 33.6891C147.369 33.6891 148.131 33.7292 148.733 33.368C149.576 32.8463 149.736 31.6825 150.379 31.1207C149.736 31.6424 149.335 32.7259 148.171 32.7661C148.693 31.9233 149.656 31.2009 150.86 30.6792Z" fill="#FB7B5D"/>
<path d="M160.85 22.8132C160.85 22.8132 161.412 23.1343 161.211 23.6159C161.051 24.0975 160.569 24.5389 160.328 24.6593C160.047 24.8198 160.047 24.9402 159.766 25.181C159.486 25.4218 159.486 25.4619 159.205 25.5422C158.924 25.6626 158.803 25.7027 158.643 26.0639C158.482 26.4251 158.001 27.1074 157.68 27.2679C157.359 27.4685 157.038 27.4284 156.676 27.6291C156.235 27.8699 155.593 28.3916 155.031 28.2712C154.83 28.231 154.71 28.0705 154.549 27.9903C155.151 27.3481 156.275 27.4284 156.957 26.9468C157.519 26.5455 158.282 26.0238 158.643 25.4619C157.8 26.3448 157.72 26.3047 157.278 26.6258C156.997 26.8666 156.476 27.1074 156.114 27.2277C155.713 27.3481 154.79 27.4685 154.309 27.8699C154.509 27.5488 155.472 27.0672 155.713 26.8264C156.355 26.0238 159.205 24.9402 159.927 24.3382C158.643 25.0205 154.951 26.706 154.188 27.7495C154.589 27.2277 154.509 26.6659 155.834 25.1409C155.232 25.6225 154.309 26.7863 154.068 27.4284C153.867 27.9501 153.506 27.8699 153.064 28.0304C153.064 28.0304 153.345 26.5054 153.947 26.0238C154.549 25.5823 155.432 24.8198 156.395 24.5389C157.359 24.258 158.763 23.9369 159.245 23.8165C159.726 23.6961 159.967 23.5356 160.328 23.2547C160.649 22.9336 160.85 22.8132 160.85 22.8132Z" fill="#FB7B5D"/>
<path d="M152.464 28.9937C153.708 28.4319 156.076 28.8332 157.199 29.3549C155.995 29.0339 153.868 28.6727 152.504 29.2747C153.026 29.7161 154.791 29.9569 155.434 30.1576C156.276 30.3582 158.243 30.8398 159.045 31.1207C159.728 31.3214 159.407 31.2411 160.009 31.3615C157.801 30.6391 154.591 30.2378 152.303 29.6358C153.427 29.9569 154.39 30.9201 155.434 31.4016C156.557 31.8832 158.082 32.3247 159.607 32.7661C154.35 31.5622 152.986 30.5589 152.183 29.9569C153.026 31.1609 153.547 31.6424 154.109 32.1642C154.671 32.6859 155.674 33.328 156.959 34.0905C155.995 33.6089 154.39 32.6056 153.989 32.2845C153.307 31.7227 152.504 31.0405 152.062 30.599C152.745 31.7227 154.671 33.4082 155.955 34.0504C156.798 34.4517 157.52 34.8129 158.002 34.3714C158.443 33.93 158.443 33.8096 158.724 33.7694C159.005 33.7293 159.166 33.6089 159.166 33.4885C159.166 33.3681 159.166 33.2878 159.407 33.1675C159.607 33.0471 159.808 32.7661 159.888 32.5655C159.928 32.3648 159.888 32.3247 159.968 32.2043C160.089 32.0839 160.209 31.9635 160.33 31.6424C160.45 31.3214 160.33 31.2411 160.33 31.201C160.33 31.1207 160.37 30.9602 160.249 30.6391C160.129 30.3181 159.768 30.0773 159.407 29.7562C159.045 29.4753 157.882 28.8733 156.798 28.6727C155.715 28.472 154.832 28.2714 154.35 28.3516C153.909 28.3516 152.945 28.3917 152.464 28.9937Z" fill="#FB7B5D"/>
<path d="M156.877 34.6924C156.877 34.6924 156.957 34.9733 156.877 35.2141C156.797 35.4549 156.756 35.5753 156.797 35.8161C156.837 36.0569 156.837 36.2174 156.636 36.2576C156.476 36.2977 156.275 36.2576 156.195 36.2977C156.114 36.3378 156.074 36.3378 155.914 36.2174C155.753 36.0569 155.151 35.3747 154.951 35.174C154.75 34.9332 154.108 34.4115 153.867 33.9299C153.586 33.4885 153.546 33.2075 153.385 32.9266C153.225 32.6457 153.225 32.5253 153.024 32.2042C152.824 31.8832 152.703 31.7227 152.703 31.7227C152.703 31.7227 153.466 32.6457 154.027 33.047C154.589 33.4483 155.151 33.97 155.673 34.2108C156.195 34.4918 156.676 34.6523 156.676 34.6523L156.877 34.6924Z" fill="#FB7B5D"/>
<path d="M156.275 37.301C156.275 37.301 156.637 37.7826 156.757 38.0635C156.877 38.3444 156.797 38.505 156.637 38.6254C156.476 38.7458 156.275 38.826 156.115 38.7859C155.954 38.7056 155.954 38.7056 155.954 38.7056C155.954 38.7056 156.075 38.7056 156.035 38.5852C155.995 38.4648 155.633 38.2642 155.312 38.0635C154.991 37.8227 154.55 37.4214 154.068 36.7793C153.546 36.0971 153.025 35.0938 152.583 34.0102C152.463 33.6891 152.102 32.6457 152.021 31.6825C152.102 31.9233 152.463 32.8464 152.664 33.2075C152.864 33.5687 153.025 34.1306 153.225 34.572C153.587 35.4549 153.948 36.378 154.911 36.7793C153.787 36.2174 153.426 34.9734 152.985 33.8095C152.664 32.9668 152.182 32.2845 152.021 31.4016C152.343 31.8832 152.503 32.4852 152.784 33.0069C153.185 33.7694 153.386 34.4115 154.429 35.5352C155.433 36.6589 156.275 37.301 156.275 37.301Z" fill="#FB7B5D"/>
<path fill-rule="evenodd" clip-rule="evenodd" d="M151.659 27.9905C152.021 27.1878 152.382 26.5056 152.502 25.7029C152.663 24.6595 152.221 24.0174 152.301 22.9338C151.86 23.4154 151.298 23.9371 151.178 24.6194C150.977 25.5825 151.7 26.5056 151.7 27.3484C151.78 26.5457 151.258 25.4622 151.98 24.6194C152.261 25.5825 152.101 26.7464 151.659 27.9905Z" fill="#FB7B5D"/>
<path fill-rule="evenodd" clip-rule="evenodd" d="M138.619 46.6519C140.907 46.2105 142.913 45.9697 144.84 45.0466C147.328 43.8427 148.09 41.9163 150.538 40.5519C148.853 40.3111 146.926 39.8696 145.201 40.5519C142.793 41.515 141.91 44.5249 139.984 45.6887C141.87 44.6453 143.355 41.9163 146.365 42.2775C144.759 44.4045 141.95 45.8091 138.619 46.6519Z" fill="#FB7B5D"/>
<path d="M136.208 32.9668C153.264 32.4852 163.819 50.5044 181.598 46.6919C184.567 46.0498 187.336 44.7656 189.744 42.9195C191.35 41.6754 193.918 39.107 195.443 36.8596L195.202 37.4214C193.677 39.6688 191.109 42.2373 189.544 43.4813C187.176 45.3274 184.367 46.6116 181.437 47.2537C163.618 51.0663 152.703 32.6457 135.646 33.1273L136.208 32.9668Z" fill="#FB7B5D"/>
<path fill-rule="evenodd" clip-rule="evenodd" d="M193.6 38.8661C194.804 37.7023 195.967 36.7792 196.77 35.4549C197.813 33.7292 197.533 32.2845 198.496 30.4785C197.372 31.0002 196.008 31.4818 195.245 32.5654C194.161 34.0904 194.763 36.2575 194.081 37.7424C194.804 36.3779 194.683 34.1305 196.65 33.1674C196.489 35.0536 195.325 37.02 193.6 38.8661Z" fill="#FB7B5D"/>
<path fill-rule="evenodd" clip-rule="evenodd" d="M192.195 41.2337C193.56 40.9528 194.764 40.8324 195.887 40.2705C197.372 39.5482 197.814 38.4245 199.299 37.5817C198.295 37.4212 197.132 37.1804 196.128 37.5817C194.724 38.1435 194.162 39.9495 193.038 40.6317C194.162 39.9896 195.045 38.3843 196.81 38.6251C195.887 39.9093 194.202 40.7521 192.195 41.2337Z" fill="#FB7B5D"/>
<path fill-rule="evenodd" clip-rule="evenodd" d="M161.211 41.6754C162.656 42.5583 163.86 43.4412 165.345 43.8826C167.271 44.4846 168.635 43.8024 170.642 44.2839C169.879 43.3208 169.037 42.1168 167.752 41.6352C165.987 40.9931 164.02 42.1168 162.375 41.8359C163.9 42.1971 166.067 41.4747 167.512 43.1603C165.666 43.4813 163.458 42.8793 161.211 41.6754Z" fill="#FB7B5D"/>
</g>
<g clip-path="url(#clip1)">
<path d="M73.2851 47.1391C75.8928 45.1666 77.8387 41.977 77.4885 38.5776C77.4106 37.6963 77.1771 36.773 76.8268 35.7657C76.2041 34.045 74.6862 32.7021 73.2851 31.7368C71.2224 30.2679 67.3693 29.9741 64.9952 30.2259C64.8006 30.2679 64.606 30.2679 64.4114 30.3099C61.726 27.0783 57.7172 25.7773 53.8252 26.197C51.9182 26.4068 50.0111 27.0783 48.3375 28.0856L48.5321 28.4633C50.1668 27.456 51.996 26.8265 53.8642 26.6167C57.5226 26.197 61.3368 27.4141 63.9444 30.3938C63.633 30.4778 63.2827 30.5197 62.9714 30.6456C60.9086 31.2332 58.3789 32.7021 57.2891 34.8005C56.861 35.6398 56.7053 36.5631 56.7831 37.4864C56.8999 38.9134 58.1843 40.634 59.741 40.9278C60.1692 41.0118 60.5973 41.0118 60.9865 40.9698C64.1001 40.5921 65.8904 36.8569 65.579 33.5834C65.5012 32.7021 65.1898 31.4011 64.6839 30.6876C64.8006 30.6876 64.9174 30.6456 65.0341 30.6456C67.3693 30.3938 69.5877 30.8135 71.5337 32.2404C72.8959 33.2057 74.336 34.5067 74.9198 36.1015C75.27 37.0248 75.4646 37.9481 75.5425 38.7874C75.8538 42.019 74.3749 44.5791 71.8451 46.5096C69.3153 48.3982 65.6958 49.6152 61.8427 50.0349C53.7474 50.9582 44.5623 48.3982 41.7601 42.061L41.4098 42.2288C44.3677 48.8598 54.1366 51.7136 62.3098 50.8323C66.2406 50.3707 70.6775 49.0697 73.2851 47.1391ZM65.2287 33.2057C65.3844 34.7165 64.9174 36.3953 64.1001 37.7382C63.2438 39.0812 62.0373 40.0465 60.5973 40.1724C60.2081 40.2144 59.8578 40.2144 59.4297 40.1304C58.0675 39.8786 57.3669 38.7455 57.2113 37.4445C57.1334 36.6471 57.2891 35.7657 57.6783 35.0103C58.6513 33.0798 61.1422 31.5689 63.0881 31.0653C63.4773 30.9394 63.8665 30.8555 64.2557 30.7715C64.8395 31.443 65.112 32.3244 65.2287 33.2057Z" fill="#FB7B5D"/>
<path d="M61.9555 45.9423C63.2712 45.7217 64.941 45.1508 66.1563 44.3828C68.4645 43.0835 70.9547 40.8262 72.3826 39.6199C74.6507 37.6387 77.7804 35.8266 79.107 35.2141C78.7642 35.379 78.4935 35.6738 78.4935 35.6738C78.4935 35.6738 78.4347 35.6357 78.8266 35.348C79.7461 34.7633 78.7287 36.7906 78.538 36.445C78.538 36.445 78.5666 35.8706 77.6734 36.323C73.8163 38.5109 70.6274 41.6311 70.6274 41.6311C69.5216 42.522 67.6794 44.2132 64.5587 45.6008C61.438 46.9884 58.1986 46.3628 57.6007 46.0452C58.6001 46.2375 60.6379 46.1304 61.9555 45.9423Z" fill="#FB7B5D"/>
<path fill-rule="evenodd" clip-rule="evenodd" d="M48.8447 28.8406C49.3118 30.0157 49.8177 30.981 49.9734 32.1141C50.2069 33.6249 49.6231 34.5482 49.7788 36.0591C49.195 35.3876 48.4555 34.6742 48.222 33.6669C47.9496 32.282 48.8837 30.939 48.8447 29.7219C48.9615 30.897 48.2609 32.4079 49.3118 33.6249C49.701 32.282 49.4675 30.6032 48.8447 28.8406Z" fill="#FB7B5D"/>
<path fill-rule="evenodd" clip-rule="evenodd" d="M49.2706 30.2256C50.0879 30.5613 50.7884 30.7712 51.4501 31.2328C52.3063 31.8623 52.462 32.6597 53.2793 33.3732C52.6566 33.3732 51.9171 33.4152 51.3333 33.0375C50.516 32.4919 50.3603 31.2748 49.7376 30.6872C50.3603 31.2328 50.7495 32.366 51.8782 32.4079C51.3722 31.5266 50.4382 30.7712 49.2706 30.2256Z" fill="#FB7B5D"/>
<path d="M39.5824 22C39.5824 22 39.0375 22.3357 39.2321 22.8394C39.3878 23.343 39.8548 23.8046 40.0883 23.9305C40.3608 24.0984 40.3608 24.2243 40.6332 24.4761C40.9056 24.7279 40.9056 24.7699 41.1781 24.8538C41.4505 24.9797 41.5673 25.0217 41.723 25.3994C41.8786 25.7771 42.3457 26.4906 42.657 26.6585C42.9684 26.8683 43.2798 26.8263 43.63 27.0362C44.0581 27.288 44.6809 27.8336 45.2257 27.7077C45.4203 27.6657 45.5371 27.4978 45.6928 27.4139C45.109 26.7424 44.0192 26.8263 43.3576 26.3227C42.8127 25.903 42.0732 25.3575 41.723 24.7699C42.5403 25.6932 42.6181 25.6512 43.0462 25.987C43.3187 26.2388 43.8246 26.4906 44.1749 26.6165C44.5641 26.7424 45.4593 26.8683 45.9263 27.288C45.7317 26.9522 44.7976 26.4486 44.5641 26.1968C43.9414 25.3575 41.1781 24.2243 40.4775 23.5948C41.723 24.3082 45.3036 26.0709 46.0431 27.1621C45.6539 26.6165 45.7317 26.0289 44.4473 24.4342C45.0311 24.9378 45.9263 26.1548 46.1598 26.8263C46.3544 27.3719 46.7047 27.288 47.1328 27.4559C47.1328 27.4559 46.8604 25.8611 46.2766 25.3575C45.6928 24.8958 44.8365 24.0984 43.9025 23.8046C42.9684 23.5109 41.6062 23.1751 41.1392 23.0492C40.6721 22.9233 40.4386 22.7554 40.0883 22.4616C39.777 22.1259 39.5824 22 39.5824 22Z" fill="#FB7B5D"/>
<path d="M47.7143 28.4629C46.5078 27.8753 44.2115 28.295 43.1218 28.8406C44.2894 28.5049 46.3521 28.1272 47.6754 28.7567C47.1694 29.2183 45.457 29.4701 44.8343 29.68C44.0169 29.8898 42.1099 30.3934 41.3315 30.6872C40.6698 30.8971 40.9812 30.8131 40.3974 30.939C42.538 30.1836 45.6516 29.7639 47.87 29.1344C46.7802 29.4701 45.8462 30.4774 44.8343 30.981C43.7445 31.4846 42.2656 31.9463 40.7866 32.4079C45.8851 31.1489 47.2084 30.0997 47.9868 29.4701C47.1694 30.7292 46.6635 31.2328 46.1186 31.7784C45.5737 32.324 44.6007 32.9955 43.3553 33.7929C44.2894 33.2892 45.8462 32.24 46.2354 31.9043C46.897 31.3167 47.6754 30.6033 48.1035 30.1416C47.4419 31.3167 45.5737 33.0794 44.3283 33.7509C43.511 34.1706 42.8104 34.5483 42.3434 34.0866C41.9153 33.625 41.9153 33.4991 41.6428 33.4571C41.3704 33.4151 41.2147 33.2892 41.2147 33.1633C41.2147 33.0374 41.2147 32.9535 40.9812 32.8276C40.7866 32.7017 40.592 32.4079 40.5142 32.1981C40.4752 31.9882 40.5142 31.9463 40.4363 31.8204C40.3196 31.6945 40.2028 31.5685 40.086 31.2328C39.9693 30.8971 40.086 30.8131 40.086 30.7712C40.086 30.6872 40.0471 30.5193 40.1639 30.1836C40.2806 29.8479 40.6309 29.596 40.9812 29.2603C41.3315 28.9665 42.4601 28.337 43.511 28.1272C44.5618 27.9173 45.4181 27.7075 45.8851 27.7914C46.3132 27.7914 47.2473 27.8334 47.7143 28.4629Z" fill="#FB7B5D"/>
<path d="M43.4348 34.4225C43.4348 34.4225 43.3569 34.7163 43.4348 34.9681C43.5126 35.2199 43.5515 35.3458 43.5126 35.5976C43.4737 35.8495 43.4737 36.0173 43.6683 36.0593C43.824 36.1013 44.0186 36.0593 44.0964 36.1013C44.1742 36.1432 44.2132 36.1432 44.3688 36.0173C44.5245 35.8495 45.1083 35.136 45.3029 34.9262C45.4975 34.6743 46.1202 34.1288 46.3538 33.6251C46.6262 33.1635 46.6651 32.8697 46.8208 32.5759C46.9765 32.2822 46.9765 32.1563 47.1711 31.8205C47.3657 31.4848 47.4824 31.3169 47.4824 31.3169C47.4824 31.3169 46.7429 32.2822 46.1981 32.7018C45.6532 33.1215 45.1083 33.6671 44.6024 33.9189C44.0964 34.2127 43.6294 34.3806 43.6294 34.3806L43.4348 34.4225Z" fill="#FB7B5D"/>
<path d="M44.019 37.1505C44.019 37.1505 43.6688 37.6541 43.552 37.9479C43.4352 38.2417 43.5131 38.4096 43.6688 38.5355C43.8244 38.6614 44.019 38.7453 44.1747 38.7033C44.3304 38.6194 44.3304 38.6194 44.3304 38.6194C44.3304 38.6194 44.2136 38.6194 44.2525 38.4935C44.2915 38.3676 44.6417 38.1578 44.9531 37.9479C45.2645 37.6961 45.6926 37.2764 46.1596 36.6049C46.6656 35.8915 47.1715 34.8423 47.5997 33.7091C47.7164 33.3734 48.0667 32.2822 48.1445 31.275C48.0667 31.5268 47.7164 32.4921 47.5218 32.8698C47.3272 33.2475 47.1715 33.835 46.9769 34.2967C46.6267 35.22 46.2764 36.1853 45.3423 36.6049C46.4321 36.0174 46.7823 34.7164 47.2105 33.4993C47.5218 32.618 47.9889 31.9045 48.1445 30.9812C47.8332 31.4848 47.6775 32.1143 47.4051 32.6599C47.0159 33.4573 46.8213 34.1288 45.8093 35.3039C44.8363 36.479 44.019 37.1505 44.019 37.1505Z" fill="#FB7B5D"/>
<path fill-rule="evenodd" clip-rule="evenodd" d="M48.4949 27.414C48.1446 26.5746 47.7943 25.8611 47.6776 25.0218C47.5219 23.9306 47.95 23.2591 47.8722 22.126C48.3003 22.6296 48.8452 23.1752 48.9619 23.8886C49.1565 24.8959 48.456 25.8611 48.456 26.7425C48.3781 25.9031 48.8841 24.77 48.1835 23.8886C47.9111 24.8959 48.0668 26.113 48.4949 27.414Z" fill="#FB7B5D"/>
<path fill-rule="evenodd" clip-rule="evenodd" d="M61.1406 46.9291C58.9222 46.4675 56.9762 46.2157 55.1081 45.2504C52.695 43.9913 51.9556 41.9769 49.5815 40.55C51.2161 40.2981 53.0842 39.8365 54.7578 40.55C57.093 41.5572 57.9492 44.7048 59.8174 45.9219C57.9881 44.8307 56.5481 41.9769 53.6291 42.3546C55.1859 44.5789 57.9103 46.0478 61.1406 46.9291Z" fill="#FB7B5D"/>
<path d="M63.4786 32.6176C46.9377 32.114 36.7018 50.9577 19.4603 46.9707C16.5802 46.2992 13.8948 44.9562 11.5596 43.0257C10.0028 41.7247 7.51192 39.0387 6.03297 36.6885L6.26649 37.2761C7.74545 39.6263 10.2363 42.3122 11.7542 43.6133C14.0504 45.5438 16.7748 46.8868 19.616 47.5583C36.8964 51.5452 47.4825 32.2818 64.0234 32.7855L63.4786 32.6176Z" fill="#FB7B5D"/>
<path fill-rule="evenodd" clip-rule="evenodd" d="M7.82227 38.7872C6.65467 37.5701 5.526 36.6049 4.7476 35.2199C3.73569 33.4153 4.00813 31.9044 3.07406 30.0159C4.16381 30.5615 5.48708 31.0651 6.22655 32.1982C7.27739 33.793 6.69359 36.0593 7.35523 37.6121C6.65467 36.1852 6.77143 33.835 4.86436 32.8277C5.02004 34.8002 6.14872 36.8567 7.82227 38.7872Z" fill="#FB7B5D"/>
<path fill-rule="evenodd" clip-rule="evenodd" d="M9.18359 41.2634C7.86032 40.9696 6.69273 40.8437 5.60297 40.2561C4.16294 39.5007 3.73482 38.3256 2.29479 37.4443C3.26779 37.2764 4.39646 37.0246 5.36945 37.4443C6.73165 38.0318 7.27652 39.9204 8.36628 40.6339C7.27652 39.9624 6.42029 38.2836 4.70782 38.5354C5.60297 39.8784 7.2376 40.7598 9.18359 41.2634Z" fill="#FB7B5D"/>
<path fill-rule="evenodd" clip-rule="evenodd" d="M39.2305 41.725C37.8294 42.6483 36.6618 43.5716 35.2217 44.0332C33.3536 44.6628 32.0303 43.9493 30.0843 44.4529C30.8238 43.4457 31.6411 42.1866 32.8865 41.683C34.599 41.0115 36.5061 42.1866 38.1018 41.8929C36.6228 42.2706 34.5212 41.5152 33.1201 43.2778C34.9104 43.6136 37.051 42.984 39.2305 41.725Z" fill="#FB7B5D"/>
</g>
<path d="M97.8626 33.4143C97.7829 33.4143 97.6833 33.3745 97.6037 33.3147C96.4482 32.2788 94.7948 30.6454 93.5397 28.6932C92.1054 26.4621 91.448 24.2709 91.6073 22.1992C91.6472 21.7211 91.8464 21.1633 92.1452 20.6454C92.6034 19.8884 93.5995 19.3506 94.5756 19.3506C94.6155 19.3506 94.6553 19.3506 94.6951 19.3506C94.7549 19.3506 94.8147 19.3506 94.8545 19.3506C95.0139 19.3506 95.1533 19.3705 95.2928 19.3705C95.6912 19.3705 95.9502 19.3108 96.3486 18.992C96.5877 18.8127 96.7869 18.5936 97.006 18.3745C97.3048 18.0757 97.6037 17.7769 97.9622 17.5378C98.5001 17.1992 99.277 17 100.074 17C100.532 17 100.95 17.0598 101.329 17.1992C102.006 17.4183 102.484 17.9163 102.943 18.3944C103.162 18.6335 103.381 18.8526 103.62 19.0119C104.018 19.3307 104.297 19.3904 104.676 19.3904C104.815 19.3904 104.955 19.3904 105.114 19.3705C105.174 19.3705 105.234 19.3705 105.273 19.3705C105.313 19.3705 105.353 19.3705 105.393 19.3705C106.349 19.3705 107.365 19.9084 107.823 20.6653C108.142 21.1833 108.341 21.7609 108.381 22.2191C108.54 24.2908 107.883 26.4621 106.449 28.7131C105.194 30.6653 103.56 32.2988 102.405 33.3346C102.285 33.4541 102.086 33.4541 101.946 33.3545C101.389 32.9561 100.711 32.7569 100.034 32.7569C99.3368 32.7569 98.6794 32.9561 98.1216 33.3545C98.0021 33.3944 97.9224 33.4143 97.8626 33.4143ZM94.5756 20.1076C93.8784 20.1076 93.1214 20.506 92.8026 21.0438C92.5636 21.4621 92.3843 21.9203 92.3644 22.2789C92.0456 26.5418 95.5916 30.486 97.9025 32.5776C98.54 32.1992 99.2571 32 99.9942 32C100.731 32 101.448 32.1992 102.086 32.5776C104.377 30.486 107.923 26.5418 107.604 22.2789C107.584 21.9203 107.405 21.4621 107.166 21.0438C106.827 20.486 106.03 20.0677 105.313 20.1076C105.253 20.1076 105.194 20.1076 105.154 20.1076C104.994 20.1076 104.835 20.1275 104.696 20.1275C104.198 20.1275 103.739 20.0279 103.182 19.5896C102.923 19.3904 102.684 19.1315 102.445 18.8924C102.026 18.4542 101.628 18.0558 101.13 17.8765C100.831 17.7769 100.492 17.7171 100.114 17.7171C99.4763 17.7171 98.8388 17.8765 98.4403 18.1554C98.1415 18.3546 97.8826 18.6335 97.5837 18.8924C97.3447 19.1115 97.1255 19.3506 96.8466 19.5697C96.2888 20.008 95.8307 20.1076 95.3127 20.1076C95.1733 20.1076 95.0139 20.1076 94.8346 20.0876C94.7748 20.0876 94.735 20.0876 94.6752 20.0876C94.6354 20.1076 94.6155 20.1076 94.5756 20.1076Z" fill="#FB7B5D"/>
<path d="M87.0403 40.3523C85.8096 40.3523 84.6394 40.1328 83.6104 39.7138C83.1665 39.5343 82.6823 39.1751 82.2788 38.7162C81.6533 38.0179 81.4718 36.8207 81.8148 35.9029C81.8349 35.8431 81.8551 35.8032 81.8753 35.7433C82.1174 35.1048 82.2384 34.8255 81.9963 34.207C81.8955 33.9276 81.7542 33.6683 81.613 33.3889C81.4314 33.0298 81.2296 32.6307 81.1086 32.2117C80.8261 31.2341 81.1086 29.8174 81.7946 28.8996C82.2183 28.341 82.8437 28.0217 83.449 27.7224C83.7517 27.5828 84.0139 27.4431 84.2561 27.2835C84.8008 26.9244 84.8815 26.6251 85.0631 25.9666C85.0833 25.9068 85.0833 25.8669 85.1034 25.807C85.3657 24.8493 86.2333 24.0113 87.1412 23.7918C87.464 23.712 87.807 23.6721 88.1299 23.6721C88.372 23.6721 88.6141 23.6921 88.8158 23.7519C90.8536 24.2507 92.7502 25.5476 94.4651 27.6027C95.9582 29.3984 97.0275 31.4735 97.6529 32.8901C97.7135 33.0497 97.6731 33.2293 97.5319 33.349C96.6845 33.9875 96.1801 34.9851 96.1801 36.0426C96.1801 36.3618 96.2204 36.701 96.3213 37.0203C96.3617 37.1799 96.3011 37.3594 96.1397 37.4592C93.88 38.7761 90.4501 40.3523 87.0403 40.3523ZM88.15 24.4503C87.8272 24.4503 87.5246 24.5101 87.343 24.55C86.6974 24.7096 86.0517 25.3481 85.85 26.0265C85.8298 26.0864 85.8298 26.1263 85.8096 26.1861C85.6078 26.8845 85.4666 27.4032 84.6999 27.922C84.4175 28.1015 84.1148 28.2612 83.792 28.4208C83.2473 28.7001 82.7227 28.9395 82.3999 29.3785C81.8551 30.0968 81.613 31.254 81.8349 32.0322C81.9358 32.3913 82.1174 32.7105 82.2788 33.0697C82.42 33.349 82.5814 33.6483 82.7025 33.9675C83.0253 34.8454 82.8236 35.3642 82.5814 36.0226C82.5613 36.0625 82.5411 36.1224 82.5209 36.1823C82.2788 36.8407 82.42 37.7385 82.8437 38.2373C83.1665 38.5965 83.5499 38.8958 83.8929 39.0354C84.8412 39.4145 85.8903 39.6141 87.0403 39.6141C88.7957 39.6141 91.6607 39.1552 95.5546 36.9604C95.4941 36.6611 95.4538 36.3618 95.4538 36.0625C95.4538 34.8654 95.9582 33.7481 96.8661 32.9699C95.5546 30.1167 92.8712 25.5077 88.6746 24.4902C88.5132 24.4702 88.3518 24.4503 88.15 24.4503Z" fill="#FB7B5D"/>
<path d="M96.27 53.4344C95.6126 53.4344 94.9153 53.1953 94.4173 52.8169C94.3774 52.777 94.3376 52.7372 94.2778 52.7173C93.7798 52.3189 93.5407 52.1197 92.963 52.1197C92.9232 52.1197 92.9033 52.1197 92.8634 52.1197C92.5646 52.1396 92.2658 52.1794 91.967 52.2193C91.5685 52.279 91.1303 52.3388 90.7119 52.3388C89.6959 52.2989 88.4409 51.5818 87.7835 50.6655C87.3851 50.0878 87.2655 49.4105 87.1858 48.7531C87.146 48.4344 87.0862 48.1356 87.0066 47.8567C86.8273 47.2193 86.5683 47.0599 86.0105 46.7013C85.9706 46.6814 85.9109 46.6416 85.871 46.6017C85.0343 46.0639 84.4965 44.9882 84.5762 44.0519C84.6359 43.4543 84.7953 42.8767 85.0543 42.4782C86.1499 40.7053 87.9628 39.3308 90.433 38.3747C92.6044 37.538 94.8954 37.1795 96.4293 37.0201C96.6086 37.0002 96.768 37.0998 96.8278 37.2791C97.2859 38.5938 98.541 39.5101 99.9355 39.53C100.115 39.53 100.254 39.6496 100.294 39.8288C100.633 41.3428 100.991 43.6336 100.872 45.9444C100.732 48.5938 99.9753 50.7452 98.6207 52.3388C98.3219 52.6973 97.8238 53.036 97.266 53.275C96.9473 53.3746 96.6285 53.4344 96.27 53.4344ZM92.9829 51.3627C93.8196 51.3627 94.238 51.7013 94.7759 52.1197C94.8157 52.1595 94.8555 52.1794 94.8954 52.2193C95.254 52.5181 95.7719 52.6774 96.27 52.6774C96.509 52.6774 96.7481 52.6376 96.9473 52.5579C97.3856 52.3786 97.784 52.0997 98.023 51.8209C100.792 48.5539 100.234 43.2751 99.5968 40.2273C98.1027 40.0878 96.8078 39.1316 96.2102 37.7571C93.1224 38.0958 87.9229 39.2113 85.6918 42.8368C85.5125 43.1356 85.373 43.6137 85.3332 44.0918C85.2734 44.7492 85.6918 45.546 86.2894 45.9444C86.3292 45.9842 86.389 46.0041 86.4288 46.044C87.0464 46.4424 87.4847 46.7213 87.7436 47.6376C87.8433 47.9563 87.8831 48.295 87.9429 48.6336C88.0225 49.2312 88.1221 49.789 88.421 50.2272C88.9389 50.9643 89.9748 51.5619 90.7518 51.5818C91.1103 51.6017 91.4888 51.542 91.8674 51.4822C92.1861 51.4424 92.5248 51.3826 92.8634 51.3627C92.8833 51.3627 92.9232 51.3627 92.9829 51.3627Z" fill="#FB7B5D"/>
<path d="M104.781 53.2431C104.427 53.2554 104.109 53.2093 103.81 53.1054C103.25 52.8964 102.746 52.5902 102.439 52.2581C101.067 50.8016 100.246 48.7737 100.001 46.2498C99.7864 44.0485 100.085 41.8485 100.35 40.3923C100.384 40.2387 100.517 40.1008 100.695 40.0947C102.073 40.0088 103.285 39.1099 103.694 37.839C103.748 37.6848 103.902 37.5842 104.08 37.5781C105.602 37.6776 107.88 37.9412 110.056 38.6654C112.531 39.4934 114.371 40.7624 115.513 42.3983C115.782 42.7698 115.959 43.3158 116.038 43.8843C116.147 44.7564 115.65 45.8018 114.841 46.363C114.803 46.4024 114.745 46.4235 114.707 46.4629C114.167 46.8434 113.917 47.0044 113.76 47.6191C113.691 47.8881 113.661 48.1747 113.613 48.4811C113.567 48.8635 113.502 49.2656 113.378 49.6697C113.074 50.5942 112.043 51.563 110.989 51.9042C110.736 51.9892 110.48 52.0171 110.185 52.0273C109.79 52.041 109.394 51.9976 109.018 51.9536C108.701 51.9075 108.404 51.8797 108.108 51.89C108.069 51.8913 108.029 51.8927 108.01 51.8934C107.438 51.9132 107.208 52.1116 106.729 52.5091C106.691 52.5485 106.653 52.5879 106.594 52.6089C106.114 52.9874 105.451 53.2198 104.781 53.2431ZM101.054 40.7677C100.524 43.6993 100.167 48.7574 102.994 51.7628C103.219 52.0025 103.642 52.2544 104.082 52.4296C104.282 52.4988 104.52 52.5286 104.756 52.5204C105.249 52.5033 105.755 52.3144 106.101 52.0358C106.139 51.9964 106.177 51.957 106.216 51.9366C106.714 51.5195 107.117 51.1818 107.944 51.1531C107.984 51.1517 108.023 51.1503 108.082 51.1483C108.418 51.1557 108.754 51.1821 109.072 51.2282C109.448 51.2722 109.784 51.2986 110.119 51.287C110.336 51.2795 110.533 51.2536 110.708 51.1904C111.547 50.9138 112.387 50.123 112.639 49.4098C112.746 49.0824 112.792 48.719 112.839 48.3556C112.887 48.0493 112.916 47.7436 113.004 47.4169C113.23 46.5522 113.673 46.2512 114.251 45.8503C114.29 45.83 114.348 45.7899 114.387 45.7695C114.965 45.3686 115.352 44.5935 115.271 43.968C115.216 43.513 115.063 43.0803 114.875 42.7822C112.528 39.3983 107.348 38.5119 104.282 38.2946C103.776 39.626 102.507 40.5839 101.054 40.7677Z" fill="#FB7B5D"/>
<path d="M113.004 40.4462C109.638 40.4462 106.251 38.8526 103.98 37.5379C103.841 37.4582 103.761 37.259 103.801 37.0996C103.9 36.7809 103.94 36.4622 103.94 36.1235C103.94 35.0677 103.462 34.0916 102.605 33.4343C102.466 33.3347 102.426 33.1355 102.486 32.9761C103.103 31.5618 104.159 29.4901 105.633 27.6972C107.307 25.6455 109.179 24.3506 111.211 23.8526C111.411 23.7929 111.65 23.7729 111.909 23.7729C112.207 23.7729 112.546 23.8128 112.865 23.8925C113.761 24.1116 114.618 24.9482 114.877 25.9044C114.897 25.9642 114.897 26.004 114.917 26.0638C115.096 26.7211 115.176 27.02 115.714 27.3785C115.953 27.5379 116.232 27.6773 116.51 27.8168C116.869 27.996 117.248 28.1952 117.606 28.4741C118.403 29.0917 119.001 30.4263 119.001 31.5419C119.001 32.2391 118.682 32.8566 118.363 33.4542C118.204 33.7331 118.064 34.012 117.965 34.2908C117.746 34.9084 117.845 35.1873 118.084 35.8247C118.104 35.8845 118.124 35.9243 118.144 35.9841C118.483 36.9203 118.303 38.0956 117.686 38.7928C117.287 39.251 116.809 39.6295 116.371 39.8088C115.375 40.2271 114.239 40.4462 113.004 40.4462ZM104.617 37.0398C108.442 39.2311 111.291 39.7092 113.004 39.7092C114.14 39.7092 115.176 39.51 116.112 39.1116C116.431 38.9721 116.829 38.6733 117.148 38.3147C117.586 37.8167 117.706 36.9203 117.467 36.243C117.447 36.1833 117.427 36.1434 117.407 36.0837C117.148 35.4064 116.969 34.9084 117.287 34.0319C117.407 33.7132 117.566 33.4144 117.726 33.1156C118.005 32.5777 118.264 32.0797 118.283 31.5419C118.303 30.6454 117.805 29.5697 117.188 29.0717C116.889 28.8526 116.57 28.6733 116.212 28.4941C115.933 28.3546 115.634 28.1952 115.355 27.996C114.578 27.4781 114.439 26.9403 114.239 26.263C114.22 26.2032 114.22 26.1634 114.2 26.1036C114 25.4064 113.383 24.769 112.725 24.6295C112.466 24.5698 112.188 24.5299 111.948 24.5299C111.749 24.5299 111.59 24.5498 111.431 24.5897C107.287 25.6056 104.617 30.2072 103.342 33.0359C104.239 33.8128 104.737 34.9283 104.737 36.1235C104.717 36.4422 104.677 36.741 104.617 37.0398Z" fill="#FB7B5D"/>
<path d="M99.9948 40.247C97.7238 40.247 95.8711 38.3944 95.8711 36.1235C95.8711 33.8526 97.7238 32 99.9948 32C102.266 32 104.119 33.8526 104.119 36.1235C104.119 38.3944 102.266 40.247 99.9948 40.247ZM99.9948 32.757C98.1421 32.757 96.6082 34.2709 96.6082 36.1434C96.6082 38.0159 98.1222 39.5299 99.9948 39.5299C101.847 39.5299 103.381 38.0159 103.381 36.1434C103.381 34.2709 101.847 32.757 99.9948 32.757Z" fill="#FB7B5D"/>
<circle cx="100" cy="36" r="4" fill="#FB7B5D"/>
<defs>
<clipPath id="clip0">
<rect width="101.052" height="27.7312" fill="white" transform="translate(100.613 22.8132)"/>
</clipPath>
<clipPath id="clip1">
<rect width="98" height="29" fill="white" transform="matrix(-1 0 0 1 98 22)"/>
</clipPath>
</defs>
</svg>
