<svg width="190" height="70" viewBox="0 0 190 70" fill="none" xmlns="http://www.w3.org/2000/svg">
<path d="M90.6914 50.2904C90.6958 50.2904 90.7003 50.2904 90.7026 50.2904C90.7205 50.2881 90.7384 50.2882 90.754 50.2859C90.7272 50.2859 90.7026 50.2859 90.6757 50.2837C90.6623 50.2837 90.6578 50.2882 90.6533 50.2949C90.6578 50.2949 90.66 50.2949 90.6645 50.2949C90.669 50.2904 90.6779 50.2881 90.6914 50.2904Z" fill="#CC1F38"/>
<path d="M90.8428 50.2925C90.8783 50.2903 90.9116 50.2903 90.947 50.2881C90.8827 50.2881 90.8184 50.2859 90.7541 50.2837C90.7364 50.2859 90.7186 50.2881 90.7031 50.2881C90.7497 50.2926 90.7985 50.2837 90.8428 50.2925Z" fill="#CC1F38"/>
<path d="M90.6669 50.2927C90.6618 50.2927 90.6592 50.2927 90.654 50.2927C90.654 50.2953 90.6514 50.2953 90.6514 50.2979C90.654 50.2979 90.6566 50.2979 90.6618 50.2979C90.6644 50.2953 90.6643 50.2953 90.6669 50.2927Z" fill="#CC1F38"/>
<path d="M105.79 50.8109C106.07 50.8109 106.349 50.8109 106.628 50.8109C106.637 50.7933 106.639 50.7779 106.637 50.7581C106.351 50.7559 106.067 50.7537 105.781 50.7515C105.795 50.7713 105.797 50.7911 105.79 50.8109Z" fill="#CC1F38"/>
<path d="M110.797 36.1246C109.928 35.8541 109.081 35.517 108.196 35.2864C107.952 35.2088 107.835 35.262 107.846 35.5525C107.866 36.0004 107.857 36.4506 107.848 36.8985C107.846 37.0383 107.915 37.1935 107.788 37.3176C107.638 36.9939 107.493 36.6679 107.336 36.3486C107.265 36.2044 107.243 36.1069 107.367 35.9539C107.589 35.6833 107.418 35.2665 107.094 35.2886C106.79 35.3108 106.691 35.1489 106.582 34.9449C106.482 34.7586 106.318 34.6234 106.482 34.3417C106.657 34.0424 106.336 33.6853 105.997 33.7785C105.826 33.825 105.768 33.763 105.688 33.6609C105.564 33.5057 105.438 33.3549 105.309 33.2042C105.198 33.0733 105.101 32.9846 105.218 32.7629C105.367 32.4835 105.103 32.1131 104.826 32.2085C104.424 32.3482 104.271 32.091 104.047 31.8958C103.877 31.745 103.712 31.6363 103.779 31.3325C103.846 31.0354 103.515 30.8336 103.216 30.9334C102.876 31.0465 102.324 30.6629 102.311 30.3036C102.298 29.9466 101.974 29.7227 101.69 29.9156C101.488 30.0531 101.362 29.9865 101.202 29.9C101.08 29.8335 100.961 29.7559 100.83 29.7093C100.635 29.6384 100.546 29.543 100.55 29.308C100.559 28.9908 100.138 28.7624 99.9294 28.9842C99.6766 29.2525 99.4748 29.1173 99.2398 29.0419C99.0402 28.9776 98.8428 28.911 98.6432 28.8534C98.5168 28.8157 98.4237 28.7869 98.4281 28.6072C98.4348 28.3921 98.3017 28.2347 98.0756 28.1948C97.856 28.1549 97.6897 28.2413 97.601 28.4498C97.57 28.5207 97.5433 28.5806 97.4546 28.5584C96.8559 28.4121 96.2372 28.3744 95.5609 28.2768C96.4213 27.8466 96.9424 27.2324 97.1043 26.3431C97.0644 26.0548 96.9114 25.9684 96.6164 25.9883C96.1197 26.0194 95.6163 26.0172 95.1174 25.9905C94.7958 25.9728 94.7271 26.0903 94.736 26.3875C94.7559 27.0372 94.7426 27.6892 94.7404 28.3411C94.7404 28.35 94.7315 28.3677 94.7249 28.3677C94.7049 28.3699 94.685 28.3677 94.665 28.3655C94.5896 28.3921 94.512 28.4187 94.4366 28.4454C94.2725 28.3788 94.3235 28.2325 94.3235 28.1127C94.3191 27.5073 94.3146 26.9042 94.3257 26.2988C94.3302 26.077 94.2659 25.9883 94.0308 25.995C93.4742 26.0083 92.9154 26.0039 92.3566 25.9972C92.2191 25.995 92.106 26.0194 92.0262 26.1369C92.1392 27.1437 92.6892 27.8378 93.6427 28.3034C92.9331 28.3766 92.29 28.4587 91.6603 28.6072C91.4762 28.6494 91.3675 28.6693 91.2766 28.4653C91.2035 28.299 91.0216 28.2746 90.8531 28.3012C90.6757 28.33 90.5138 28.4454 90.5293 28.6117C90.5626 28.9576 90.3164 28.9776 90.1036 29.053C89.9084 29.1239 89.7088 29.1904 89.5204 29.2725C89.3607 29.3412 89.2387 29.3723 89.1079 29.1993C89.0059 29.064 88.8351 29.033 88.6644 29.1128C88.4892 29.1949 88.3406 29.3457 88.3939 29.5142C88.4759 29.7869 88.3029 29.8246 88.1433 29.9067C88.0213 29.971 87.8993 30.0397 87.7818 30.1107C87.6244 30.206 87.498 30.2792 87.2984 30.1285C87.0656 29.9533 86.6708 30.1395 86.7063 30.4123C86.7662 30.8625 86.4269 30.96 86.1896 31.1618C86.0788 31.255 86.0034 31.2993 85.8371 31.2106C85.5133 31.0399 85.1496 31.306 85.245 31.6541C85.3159 31.9113 85.194 32.0067 85.0565 32.1375C84.9478 32.2417 84.8347 32.3438 84.7327 32.4568C84.6396 32.5611 84.5642 32.6143 84.4134 32.5256C84.2537 32.4324 84.0763 32.4657 83.9344 32.6032C83.7903 32.7429 83.7415 32.9469 83.8457 33.08C84.0032 33.2818 83.8923 33.386 83.7858 33.519C83.6683 33.6632 83.553 33.8095 83.4443 33.9603C83.3556 34.0845 83.3002 34.1776 83.0918 34.1155C82.7791 34.0224 82.4332 34.3794 82.6017 34.6145C82.8678 34.987 82.5995 35.1955 82.4797 35.4638C82.4243 35.5858 82.36 35.67 82.1915 35.6345C81.9941 35.5924 81.8278 35.6656 81.7346 35.8652C81.6349 36.0758 81.6925 36.251 81.8522 36.3974C81.9076 36.4484 81.9741 36.4861 81.932 36.5637C81.6814 37.0006 81.6238 37.5239 81.3311 37.9408C81.2557 37.291 81.2845 36.6435 81.3177 35.9938C81.3177 35.7654 81.3177 35.5392 81.3177 35.2731C80.3088 35.6102 79.3486 35.9406 78.3795 36.251C78.1156 36.3353 78.2775 36.4639 78.3263 36.5637C78.7765 37.5039 79.2377 38.4375 79.6879 39.3777C79.7566 39.5219 79.8098 39.6172 80.0072 39.5596C80.2045 39.5019 80.3731 39.6017 80.4684 39.788C80.5638 39.9742 80.5505 40.1805 80.3842 40.2913C80.1957 40.4177 80.2378 40.522 80.3221 40.6706C80.3975 40.8014 80.4529 40.9411 80.5194 41.0786C80.9008 41.8636 81.2801 42.6508 81.6659 43.4425C81.5528 43.4624 81.4707 43.4691 81.3931 43.4935C80.9319 43.642 80.6702 44.0567 80.7456 44.5113C80.8121 44.9149 81.0982 45.0989 81.6349 45.0834C81.6925 45.0812 81.7502 45.0812 81.81 45.079C81.8832 45.824 81.8721 46.5669 81.8145 47.312C81.7369 47.3963 81.6526 47.4761 81.5816 47.5693C80.6348 48.8244 81.1869 50.4764 82.646 50.7558C82.9254 50.7558 83.2049 50.7536 83.4865 50.7536C83.4909 50.7536 83.4976 50.7536 83.502 50.7536C84.7017 50.6782 85.9058 50.6205 87.1033 50.5141C87.6554 50.4653 88.2142 50.5385 88.7597 50.4032C88.7309 50.3811 88.6666 50.3323 88.6866 50.3323C89.2143 50.3478 89.7488 50.248 90.2721 50.3788C90.4916 50.3833 90.709 50.3899 90.9241 50.3301C90.8376 50.3256 90.7489 50.319 90.6624 50.3146H90.6602C90.5803 50.3101 90.4983 50.3057 90.4184 50.299C90.4983 50.299 90.5781 50.2968 90.6579 50.2946C90.6579 50.2924 90.6579 50.2924 90.6602 50.2901C90.6624 50.2835 90.669 50.2791 90.6823 50.2791C90.7089 50.2791 90.7333 50.2791 90.76 50.2813C90.8243 50.2835 90.8886 50.2835 90.9529 50.2857C91.7068 50.2569 92.4608 50.197 93.2103 50.3079C94.1905 50.3079 95.1706 50.3101 96.1507 50.3101C96.1907 50.2902 96.2306 50.2547 96.2727 50.2525C97.1619 50.2502 98.0512 50.2502 98.9426 50.3012C98.7719 50.3123 98.6011 50.3212 98.4304 50.3323C98.6455 50.3922 98.8672 50.3833 99.0867 50.3788C99.6167 50.2369 100.151 50.3611 100.688 50.3633C100.637 50.3766 100.584 50.3877 100.533 50.401C100.61 50.4188 100.688 50.452 100.765 50.4543C102.444 50.4942 104.114 50.6405 105.788 50.7514C106.074 50.7536 106.358 50.7558 106.644 50.7581C107.316 50.6472 107.791 50.2813 108.046 49.6493C108.387 48.8044 108.121 47.8597 107.356 47.1701C107.336 47.1568 107.305 47.1435 107.305 47.128C107.294 46.4694 107.294 45.8085 107.303 45.1499C107.303 45.1034 107.34 45.0989 107.369 45.0834C107.881 45.1632 108.214 44.9215 108.303 44.4714C108.394 44.0168 108.034 43.6021 107.398 43.418C107.886 42.4179 108.372 41.4223 108.857 40.4244C108.917 40.3002 108.988 40.196 108.811 40.0807C108.624 39.9565 108.607 39.7458 108.706 39.5529C108.806 39.36 108.975 39.2558 109.196 39.3267C109.325 39.3689 109.385 39.3445 109.44 39.2269C109.913 38.249 110.387 37.2711 110.866 36.2976C110.904 36.2111 110.915 36.1601 110.797 36.1246ZM94.6827 38.6149C94.9488 38.6437 95.0974 38.8012 95.1085 39.0872C95.0775 39.3467 94.9311 39.5085 94.6583 39.5085C94.3812 39.5085 94.2348 39.3312 94.2126 39.0695C94.1927 38.8278 94.441 38.5883 94.6827 38.6149ZM82.1737 40.6461C82.6926 40.7725 83.145 40.8857 83.6262 41.0032C83.3823 40.0075 83.1539 39.0517 82.9121 38.0982C82.8789 37.9652 82.8767 37.8565 82.9299 37.7301C84.5975 33.6721 87.5423 31.0775 91.7978 29.9887C92.1459 29.9 92.5029 29.849 92.8555 29.7781C93.0063 29.7492 93.0795 29.7692 93.0773 29.9599C93.0684 31.6009 93.0706 33.2441 93.0773 34.8872C93.0773 35.0735 93.0218 35.1245 92.84 35.1201C92.4453 35.1112 92.0505 35.1245 91.6558 35.1312C91.6514 35.1312 91.6381 35.1511 91.6403 35.1556C91.6492 35.1733 91.6625 35.1888 91.6736 35.2066C92.106 35.1157 92.5406 35.1955 92.9753 35.2265C92.6936 35.2265 92.412 35.2376 92.1304 35.2221C91.9973 35.2154 91.9219 35.2576 91.8687 35.3707C92.5828 36.0648 93.1992 36.8209 93.4343 37.821C93.4764 37.9984 93.503 38.1803 93.5496 38.4175C92.4497 38.1781 91.6869 37.5372 91.0704 36.6856C90.9351 36.7566 90.9728 36.8852 90.9706 36.9939C90.9684 38.2268 90.9706 39.4576 90.9684 40.6905C90.9684 40.808 90.975 40.9233 91.0394 41.0254C91.5649 40.4 92.1902 39.9144 92.9642 39.6394C93.0662 39.6039 93.1748 39.5152 93.2901 39.615C93.4099 39.7215 93.319 39.8279 93.2879 39.9321C92.6138 42.1807 89.9639 42.8748 88.3074 41.2382C88.1632 41.0963 88.0989 40.9522 88.1078 40.7482C88.1233 40.4 88.1122 40.0496 88.1122 39.6527C88.9615 40.0275 89.4516 40.7038 89.8685 41.5664C90.0947 40.7282 90.23 39.9765 89.9151 39.2292C89.6933 38.7014 89.2742 38.3954 88.6866 38.4331C88.3939 38.4508 88.3717 38.3421 88.3872 38.1049C88.4449 37.1846 88.1078 36.4085 87.4958 35.6989C86.7396 36.5371 86.4934 37.5017 86.6442 38.5839C86.4003 38.5617 86.1808 38.5085 85.9701 38.5306C85.2871 38.5972 84.8547 39.0185 84.7083 39.7702C84.5886 40.3867 84.6817 40.9921 84.8924 41.6618C85.3603 40.7016 85.9546 39.9565 86.9946 39.6327C86.9059 40.1827 87.1099 40.7282 86.7573 41.2183C86.1919 41.9988 85.4312 42.3891 84.4844 42.3226C83.4288 42.245 82.6749 41.6817 82.1737 40.6461ZM88.5934 49.2612C88.2076 49.2679 87.8528 48.9131 87.8572 48.5272C87.8617 48.1502 88.1943 47.8198 88.5757 47.8154C88.9837 47.811 89.2964 48.1281 89.2919 48.5449C89.2897 48.9397 88.9815 49.2568 88.5934 49.2612ZM94.8513 49.086C94.4632 49.0816 94.1417 48.7645 94.135 48.3786C94.1284 47.9839 94.4699 47.6469 94.869 47.6513C95.2726 47.6557 95.5919 47.9884 95.5786 48.3942C95.5653 48.7845 95.2438 49.0905 94.8513 49.086ZM100.79 49.2612C100.393 49.2745 100.056 48.9419 100.054 48.5405C100.051 48.1325 100.377 47.8087 100.781 47.8154C101.162 47.8221 101.488 48.148 101.491 48.5317C101.495 48.9109 101.169 49.2501 100.79 49.2612ZM97.468 46.5603C97.3815 46.6445 97.2706 46.6157 97.1686 46.6157C95.4589 46.6179 93.7492 46.6179 92.0372 46.6157C91.9352 46.6157 91.8244 46.6468 91.7401 46.5581C89.6822 46.6179 87.6266 46.731 85.5776 46.9372C84.8835 47.0082 84.1917 47.0814 83.4976 47.1501C83.1649 47.1834 82.9321 47.0259 82.8988 46.6623C82.8434 46.0502 82.8057 45.4293 82.9388 44.8195C83.0164 44.4581 83.2559 44.2829 83.6284 44.243C86.4269 43.9347 89.2321 43.7263 92.0483 43.6664C92.1636 43.6642 92.2767 43.6398 92.392 43.6265C92.1991 43.6154 92.004 43.6043 91.8111 43.5932C91.8111 43.5821 91.8111 43.571 91.8133 43.5577C93.676 43.5577 95.5365 43.5577 97.3992 43.5577C97.3992 43.5688 97.3992 43.5821 97.4014 43.5932C97.1841 43.6043 96.9668 43.6132 96.7495 43.6243C97.1531 43.6997 97.5611 43.6731 97.9669 43.6886C99.9893 43.7596 102.009 43.8771 104.023 44.0966C104.497 44.1476 104.972 44.1898 105.444 44.2408C106.059 44.3073 106.336 44.5867 106.407 45.2209C106.451 45.6267 106.46 46.0325 106.411 46.4405C106.345 46.9971 106.076 47.1812 105.509 47.1191C104.551 47.0127 103.588 46.9173 102.628 46.8419C100.91 46.7066 99.191 46.6024 97.468 46.5603ZM106.172 49.5495C105.795 49.5451 105.458 49.2102 105.455 48.8377C105.455 48.4518 105.812 48.0992 106.194 48.1059C106.571 48.1148 106.897 48.4474 106.899 48.8288C106.901 49.2346 106.58 49.5561 106.172 49.5495ZM104.464 42.2472C103.744 42.1408 103.114 41.9168 102.748 41.2227C102.648 41.032 102.606 40.8502 102.621 40.6306C102.65 40.2514 102.63 39.8678 102.63 39.442C103.482 39.8434 103.987 40.4998 104.393 41.358C104.648 40.471 104.792 39.6571 104.364 38.8699C104.136 38.4508 103.746 38.2069 103.247 38.2268C103.001 38.2357 102.892 38.2113 102.916 37.9053C102.983 37.1092 102.706 36.4063 102.247 35.7632C102.08 35.5303 101.965 35.5126 101.794 35.761C101.313 36.4661 101.045 37.2223 101.147 38.0871C101.158 38.1891 101.158 38.2933 101.162 38.3998C99.9205 38.1692 99.2065 38.7635 99.1998 40.0164C99.1976 40.2492 99.2065 40.4821 99.2375 40.7127C99.2686 40.9389 99.3351 41.1584 99.4083 41.491C99.8873 40.4976 100.488 39.7569 101.51 39.4376C101.51 39.8656 101.506 40.2603 101.513 40.655C101.515 40.8879 101.384 41.0497 101.236 41.1961C100.535 41.8968 99.6411 42.092 98.7053 42.041C97.3172 41.9656 96.4989 41.1406 96.0643 39.8744C96.0332 39.7857 95.98 39.7103 96.0643 39.6216C96.1618 39.5174 96.2439 39.6239 96.3148 39.6483C97.0865 39.9277 97.7185 40.4044 98.2352 41.0386C98.304 40.9255 98.3106 40.7992 98.3106 40.6706C98.3084 39.4443 98.3084 38.218 98.3106 36.9939C98.3106 36.8653 98.3106 36.7389 98.2397 36.6258C97.6099 37.5194 96.8049 38.1648 95.6695 38.4242C95.807 37.0028 96.6164 36.0204 97.6786 35.14C97.0888 35.078 96.5432 35.1755 96.0088 35.0824C95.8713 35.0979 95.9401 34.9915 95.9401 34.9471C95.9356 33.2928 95.9356 31.6386 95.9379 29.9843C95.9379 29.8845 95.9046 29.767 96.0332 29.7116C98.437 30.0043 100.608 30.8691 102.508 32.3815C104.156 33.6942 105.398 35.3241 106.252 37.2511C106.342 37.4596 106.291 37.6325 106.247 37.8188C106.003 38.8167 105.755 39.8123 105.493 40.8657C106.127 40.7016 106.715 40.5508 107.314 40.3956C107.045 41.5354 105.657 42.4202 104.464 42.2472Z" fill="#CC1F38"/>
<path d="M90.7023 50.2901C90.6979 50.2901 90.6934 50.2901 90.6912 50.2901C90.6779 50.2879 90.6712 50.2901 90.6646 50.2945C90.6624 50.2968 90.6602 50.2968 90.6602 50.299C90.72 50.2968 90.7799 50.2945 90.842 50.2945C90.7976 50.2834 90.7489 50.2923 90.7023 50.2901Z" fill="#CC1F38"/>
<path d="M92.2411 21.7687C92.2411 22.2078 92.2411 22.6291 92.2411 23.0837C92.7156 22.6912 93.1658 22.3408 93.7579 22.159C93.5649 22.6956 93.2234 23.0792 92.8065 23.4873C93.1037 23.4873 93.3254 23.4873 93.5849 23.4873C92.6269 24.0904 92.3364 24.4386 92.108 25.2347C92.1391 25.534 92.3032 25.6072 92.5937 25.5873C93.0549 25.5585 93.5228 25.5607 93.9841 25.5851C94.2723 25.6006 94.3389 25.4897 94.33 25.2258C94.3122 24.7269 94.3233 24.2279 94.3278 23.729C94.3278 23.6203 94.2812 23.4917 94.4143 23.4163C94.4896 23.4163 94.565 23.4185 94.6426 23.4185C94.8023 23.4917 94.7424 23.6381 94.7424 23.7556C94.7491 24.2767 94.7491 24.7978 94.7424 25.3212C94.7402 25.483 94.7735 25.5851 94.9686 25.5828C95.594 25.5762 96.2215 25.5762 96.8469 25.5828C96.9688 25.5851 97.0376 25.523 97.1063 25.4431C96.96 24.565 96.4344 23.9618 95.7093 23.474C95.8978 23.474 96.0863 23.474 96.3036 23.474C95.9443 23.0526 95.6206 22.6535 95.4365 22.1257C96.0109 22.2854 96.4122 22.6468 96.8779 23.0615C96.8779 22.6224 96.8757 22.2566 96.8779 21.8907C96.8779 21.782 96.838 21.6578 97.0531 21.7243C97.3303 21.8108 97.5853 21.7199 97.7472 21.4605C97.8824 21.2432 97.878 21.0147 97.7472 20.8019C97.5964 20.5535 97.3547 20.4759 97.0819 20.5424C96.9112 20.5846 96.8956 20.5225 96.9001 20.3805C96.909 20.1189 96.9023 19.8572 96.9023 19.5534C96.4189 19.9902 95.9355 20.3428 95.3146 20.5269C95.4831 19.9038 95.8712 19.4691 96.308 19.0123C95.8468 19.0123 95.452 19.0123 95.0218 19.0123C95.1926 18.6664 95.1793 18.3515 94.8755 18.1253C94.6537 17.9612 94.3899 17.9568 94.1592 18.1209C93.8443 18.3471 93.8399 18.6575 93.9885 19.0145C93.596 19.0145 93.2301 19.0145 92.8176 19.0145C93.2345 19.4957 93.5938 19.957 93.7734 20.5757C93.1525 20.396 92.7178 20.0368 92.2544 19.5911C92.2544 19.8927 92.2455 20.1233 92.2566 20.3517C92.2655 20.5446 92.2544 20.6489 91.9971 20.5979C91.7067 20.5402 91.4893 20.6954 91.3652 20.9726C91.2676 21.1899 91.3097 21.3829 91.4383 21.5625C91.6379 21.8286 91.9129 21.8574 92.2411 21.7687ZM94.565 20.8972C94.8311 20.9349 94.9952 21.0768 95.013 21.3474C95.0285 21.6024 94.8023 21.8153 94.5451 21.7953C94.2701 21.7753 94.1193 21.6157 94.126 21.3407C94.1304 21.0613 94.3078 20.9327 94.565 20.8972Z" fill="#CC1F38"/>
<path d="M94.729 28.366C94.7356 28.366 94.7445 28.3483 94.7445 28.3394C94.7445 27.6875 94.76 27.0377 94.74 26.3858C94.7312 26.0886 94.7999 25.9711 95.1215 25.9888C95.6204 26.0177 96.1216 26.0199 96.6205 25.9866C96.9154 25.9689 97.0684 26.0531 97.1084 26.3414C97.1549 25.9134 97.1549 25.9134 96.7336 25.9134C96.1193 25.9134 95.5073 25.9201 94.8931 25.909C94.7134 25.9068 94.658 25.9556 94.6602 26.1396C94.6713 26.8803 94.6691 27.6209 94.6713 28.3616C94.689 28.366 94.709 28.3682 94.729 28.366Z" fill="#CC1F38"/>
<path d="M94.3282 23.7272C94.3237 24.2262 94.3126 24.7251 94.3304 25.2241C94.3392 25.4879 94.2749 25.5988 93.9844 25.5833C93.521 25.5589 93.0553 25.5545 92.5941 25.5855C92.3036 25.6033 92.1372 25.5323 92.1084 25.2329C92.0818 25.366 92.0574 25.499 92.0264 25.6476C92.7382 25.6476 93.4345 25.6343 94.1264 25.6542C94.3747 25.6609 94.4013 25.5655 94.3991 25.3571C94.3925 24.7096 94.4058 24.0621 94.4124 23.4146C94.2816 23.4899 94.3304 23.6186 94.3282 23.7272Z" fill="#CC1F38"/>
<path d="M92.3606 25.9954C92.9194 26.002 93.476 26.0087 94.0348 25.9931C94.2699 25.9865 94.3342 26.0752 94.3297 26.2969C94.3187 26.9023 94.3231 27.5055 94.3275 28.1109C94.3275 28.2306 94.2787 28.3748 94.4406 28.4435C94.3674 28.326 94.3985 28.1929 94.3985 28.0687C94.3963 27.4279 94.3918 26.7892 94.4007 26.1484C94.4029 25.9732 94.363 25.9067 94.1723 25.9111C93.5203 25.9222 92.8684 25.92 92.2187 25.9133C92.0413 25.9111 91.9858 25.971 92.0302 26.1351C92.1122 26.0175 92.2231 25.9931 92.3606 25.9954Z" fill="#CC1F38"/>
<path d="M96.8497 25.5808C96.2244 25.5742 95.5968 25.5719 94.9715 25.5808C94.7763 25.583 94.7431 25.4832 94.7453 25.3191C94.7497 24.798 94.7497 24.2769 94.7453 23.7536C94.7431 23.636 94.803 23.4897 94.6455 23.4165C94.6522 24.0773 94.6677 24.7382 94.661 25.3968C94.6588 25.5875 94.6987 25.6562 94.905 25.6518C95.5769 25.6385 96.251 25.6429 96.9229 25.6495C97.0826 25.6518 97.1735 25.6252 97.1114 25.4411C97.0404 25.5209 96.9717 25.583 96.8497 25.5808Z" fill="#CC1F38"/>
<path d="M90.9465 50.288C90.911 50.2902 90.8778 50.2902 90.8423 50.2924C90.7824 50.2946 90.7226 50.2968 90.6605 50.2968C90.6583 50.2968 90.656 50.2968 90.6516 50.2968C90.5718 50.299 90.4919 50.3012 90.4121 50.3012C90.4919 50.3056 90.574 50.31 90.6538 50.3166H90.656C90.7425 50.321 90.8312 50.3276 90.9177 50.332C91.6783 50.3254 92.4411 50.3188 93.2017 50.31C92.4544 50.1999 91.7005 50.2594 90.9465 50.288Z" fill="#CC1F38"/>
<path d="M98.9364 50.3052C98.045 50.2546 97.1557 50.2546 96.2665 50.2568C96.2266 50.2568 96.1844 50.2942 96.1445 50.314C96.9051 50.3206 97.6635 50.3294 98.4241 50.336C98.5949 50.325 98.7656 50.314 98.9364 50.3052Z" fill="#CC1F38"/>
<path d="M88.6815 50.3346C88.6616 50.3346 88.7259 50.383 88.7547 50.405C89.2581 50.3962 89.7637 50.3896 90.267 50.3808C89.7437 50.2509 89.2115 50.3522 88.6815 50.3346Z" fill="#CC1F38"/>
<path d="M100.681 50.3672C100.144 50.365 99.6101 50.2417 99.0801 50.3826C99.5613 50.3892 100.042 50.3958 100.524 50.4046C100.577 50.3914 100.63 50.3782 100.681 50.3672Z" fill="#CC1F38"/>
<path d="M97.399 43.5933C97.399 43.5823 97.399 43.5691 97.3968 43.5581C95.534 43.5581 93.6735 43.5581 91.8108 43.5581C91.8108 43.5691 91.8108 43.5801 91.8086 43.5933C92.0015 43.6043 92.1967 43.6154 92.3896 43.6264C93.8421 43.6264 95.2923 43.6264 96.7448 43.6264C96.9643 43.6154 97.1816 43.6043 97.399 43.5933Z" fill="#CC1F38"/>
<path d="M91.7412 46.5581C91.8255 46.6462 91.9363 46.6153 92.0384 46.6153C93.7481 46.6175 95.4578 46.6175 97.1697 46.6153C97.2717 46.6153 97.3804 46.644 97.4691 46.5603C95.5598 46.5163 93.6505 46.5185 91.7412 46.5581Z" fill="#CC1F38"/>
<path d="M96.0314 29.7075C95.9027 29.763 95.936 29.8805 95.936 29.9803C95.9338 31.6345 95.9338 33.2888 95.9382 34.9431C95.9382 34.9874 95.8717 35.0939 96.007 35.0783C96.0092 34.3577 96.007 33.637 96.0114 32.9163C96.0158 31.8474 96.0247 30.7786 96.0314 29.7075Z" fill="#CC1F38"/>
<path d="M98.3751 36.3308C98.3019 36.486 98.2708 36.5548 98.2398 36.6213C98.3108 36.7344 98.3108 36.8608 98.3108 36.9894C98.3085 38.2157 98.3085 39.442 98.3108 40.6661C98.3108 40.7947 98.3063 40.9211 98.2354 41.0342C98.2708 41.094 98.3063 41.1517 98.3728 41.2604C98.3751 39.5994 98.3751 38.0139 98.3751 36.3308Z" fill="#CC1F38"/>
<path d="M90.8771 36.4553C90.8771 36.9875 90.8771 37.4976 90.8771 38.0076C90.8771 38.9944 90.8749 39.9812 90.8793 40.968C90.8793 41.0345 90.8217 41.1432 90.9481 41.1587C90.9725 41.1609 91.0102 41.07 91.0412 41.0234C90.9769 40.9192 90.9702 40.8061 90.9702 40.6886C90.9725 39.4556 90.9702 38.2249 90.9725 36.9919C90.9725 36.8811 90.937 36.7524 91.0723 36.6837C91.0279 36.5994 91.0102 36.4952 90.8771 36.4553Z" fill="#CC1F38"/>
<path d="M92.1326 35.2205C92.4142 35.236 92.6959 35.2249 92.9775 35.2249C92.5428 35.1939 92.1082 35.1163 91.6758 35.205C91.7423 35.2582 91.8066 35.3136 91.8731 35.3669C91.9219 35.256 91.9995 35.2116 92.1326 35.2205Z" fill="#CC1F38"/>
<path d="M117.404 46.8845C119.284 46.8002 119.151 43.882 117.266 43.9684C115.388 44.0549 115.521 46.9709 117.404 46.8845Z" fill="#CC1F38"/>
<path d="M177.47 46.8267C176.086 46.9531 174.572 46.9554 172.957 46.7957C171.336 46.6427 169.618 46.3345 167.808 45.9375C164.921 45.3078 161.75 44.4673 158.322 44.0149C157.818 43.5293 157.213 43.0414 156.452 42.5979C155.27 41.9039 153.769 41.3428 152.024 40.988C148.531 40.2917 144.101 40.3649 139.14 41.5335C137.907 41.8151 136.588 42.2498 135.373 42.6534C134.14 43.057 123.03 48.991 112.763 48.991C119.903 53.8829 131.106 47.2348 132.317 46.8512C133.696 46.4077 134.982 45.9043 136.213 45.3942C137.459 44.8687 138.53 44.3986 139.659 44.0216C144.152 42.5137 148.336 41.9859 151.667 42.2587C153.341 42.3939 154.802 42.7487 155.993 43.2499C156.45 43.4428 156.849 43.6579 157.226 43.8819C156.718 43.8265 156.204 43.7821 155.687 43.751C151.239 43.4472 146.944 44.1037 143.298 45.2723C139.641 46.4254 136.592 47.8867 133.956 48.8624C128.707 50.907 125.094 50.8937 125.116 50.9314C125.119 50.9203 125.99 51.0356 127.593 50.989C129.186 50.9425 131.521 50.6542 134.286 49.8847C137.058 49.1441 140.231 47.9289 143.792 47.0153C147.343 46.0928 151.345 45.6116 155.545 45.8976C157.022 45.9841 158.468 46.1637 159.889 46.381C159.907 46.4077 159.923 46.4298 159.94 46.4564C159.987 46.4675 160.036 46.472 160.085 46.4853C160.071 46.4609 160.058 46.432 160.047 46.4054C162.615 46.8046 165.09 47.3301 167.467 47.7204C169.341 48.0264 171.157 48.2371 172.871 48.2659C174.585 48.3014 176.188 48.1639 177.619 47.8978C180.484 47.3634 182.63 46.3833 184.045 45.6537C185.462 44.9108 186.185 44.4074 186.189 44.4141C186.187 44.4052 185.391 44.7955 183.907 45.3477C182.426 45.8821 180.235 46.5828 177.47 46.8267Z" fill="#CC1F38"/>
<path d="M119.904 45.4274C119.935 45.4185 123.47 44.7466 123.501 44.74C127.034 43.6822 136.993 39.8415 139.401 39.2693C140.598 38.9722 141.674 38.8103 142.61 38.817C143.541 38.8214 144.324 38.9988 144.907 39.2716C145.501 39.5377 145.889 39.8614 146.135 40.0943C146.381 40.3315 146.497 40.4735 146.497 40.4735C146.495 40.4735 146.415 40.3182 146.215 40.041C146.022 39.7705 145.69 39.3647 145.129 38.9678C144.572 38.5797 143.769 38.2205 142.769 38.0431C141.771 37.8657 140.596 37.8457 139.31 37.961C136.864 38.1561 132.181 39.3447 128.369 40.5422C123.685 42.2053 121.585 44.6424 119.904 45.4274Z" fill="#CC1F38"/>
<path d="M124.262 34.3664C124.266 34.3642 124.178 34.1092 124.1 33.6701C124.022 33.231 123.991 32.5835 124.264 32.0047C124.515 31.4215 125.067 30.9004 125.834 30.3881C126.02 30.264 126.224 30.1398 126.442 30.0134L126.768 29.8227C126.85 29.7739 126.825 29.7983 126.843 29.7916L126.856 29.8005C126.892 29.8271 126.879 29.8604 126.879 29.8626C126.879 29.8626 126.894 29.8338 126.932 29.8515C126.934 29.7961 126.969 30.0134 126.989 30.1287L127.047 30.5123C127.085 30.7629 127.116 30.9957 127.14 31.2264C127.229 32.1466 127.158 32.8829 126.854 33.4927C126.555 34.0958 126.067 34.5438 125.719 34.8232C125.357 35.1115 125.129 35.2512 125.129 35.2534C125.131 35.2467 125.395 35.2778 125.881 35.2135C126.351 35.1403 127.103 34.9984 127.879 34.3664C128.258 34.0515 128.622 33.6058 128.89 33.0736C129.156 32.5458 129.32 31.9382 129.413 31.3217C129.46 31.0202 129.489 30.7075 129.495 30.397C129.497 30.2374 129.497 30.0866 129.502 29.9247C129.495 29.7495 129.504 29.6786 129.471 29.3326C129.371 28.1995 129.227 26.9754 129.078 25.7313L129.063 25.6338C128.001 26.186 126.976 26.6738 126.007 27.2991L125.657 27.5298C125.546 27.6052 125.406 27.7027 125.366 27.7382C125.238 27.8358 125.118 27.9356 125 28.042C124.763 28.246 124.535 28.4634 124.324 28.6918C123.905 29.1486 123.554 29.6497 123.302 30.1864C123.056 30.7164 122.929 31.2863 122.936 31.7985C122.956 32.8363 123.415 33.486 123.723 33.8519C124.042 34.2178 124.264 34.362 124.262 34.3664Z" fill="#CC1F38"/>
<path d="M117.182 33.0736C117.208 33.3419 117.253 33.608 117.308 33.863C117.413 34.3752 117.59 34.8764 117.847 35.3088C118.096 35.7501 118.424 36.1182 118.785 36.3599C119.519 36.8633 120.207 36.8611 120.61 36.8256C121.027 36.7835 121.233 36.7059 121.236 36.7103C121.238 36.7059 121.02 36.6371 120.67 36.4708C120.324 36.3089 119.858 36.0184 119.59 35.5417C119.304 35.076 119.209 34.4396 119.231 33.6523C119.238 33.455 119.253 33.2488 119.273 33.0425L119.302 32.7232C119.315 32.6434 119.32 32.6722 119.324 32.6567L119.333 32.65C119.368 32.6367 119.386 32.6633 119.386 32.6633C119.386 32.6633 119.375 32.6389 119.404 32.6212C119.366 32.5857 119.535 32.6766 119.617 32.7143L119.918 32.8651C120.116 32.9627 120.297 33.0558 120.47 33.1556C121.153 33.5459 121.63 33.9606 121.901 34.4662C122.178 34.9717 122.253 35.5306 122.278 35.912C122.3 36.3089 122.284 36.5329 122.287 36.5329C122.282 36.5285 122.431 36.3644 122.626 35.994C122.819 35.6259 123.08 35.0383 123.025 34.1846C122.994 33.7654 122.865 33.2887 122.621 32.8407C122.38 32.3994 122.045 31.9803 121.655 31.6166C121.468 31.437 121.258 31.2685 121.049 31.1022C120.945 31.0246 120.832 30.9447 120.723 30.8671C120.599 30.7806 120.557 30.7429 120.295 30.5922C119.455 30.1043 118.528 29.6054 117.588 29.0931L117.519 29.0576C117.373 30.0688 117.211 31.0246 117.169 32.0047L117.155 32.3684C117.155 32.4748 117.157 32.6278 117.16 32.6722C117.162 32.8052 117.175 32.9405 117.182 33.0736Z" fill="#CC1F38"/>
<path d="M127.646 35.1004C127.052 35.7102 126.857 36.3245 126.753 36.7148C126.662 37.1117 126.653 37.3313 126.648 37.329C126.651 37.3357 126.793 37.1494 127.061 36.87C127.327 36.5928 127.744 36.207 128.274 35.9963C128.808 35.7745 129.427 35.7524 130.181 35.8832C130.374 35.912 130.565 35.9497 130.775 35.9963L131.086 36.0606C131.174 36.0828 131.354 36.1293 131.307 36.1293C131.321 36.1604 131.294 36.1737 131.294 36.1737C131.296 36.1715 131.325 36.1626 131.338 36.1937L131.345 36.2048C131.341 36.2181 131.361 36.2003 131.314 36.2624L131.13 36.5285C131.008 36.697 130.879 36.8567 130.757 37.0164C130.263 37.624 129.78 38.0497 129.267 38.2316C128.76 38.4245 128.23 38.3602 127.87 38.2737C127.507 38.1872 127.303 38.1052 127.305 38.1074C127.305 38.103 127.405 38.2914 127.686 38.5819C127.957 38.8547 128.453 39.2738 129.318 39.3403C129.74 39.3758 130.223 39.2982 130.689 39.1208C131.157 38.9456 131.613 38.6751 132.03 38.3513C132.234 38.1872 132.434 38.0142 132.629 37.8302C132.731 37.7326 132.822 37.6373 132.913 37.5397C132.944 37.5064 133.046 37.3956 133.115 37.3113L133.341 37.0275C133.953 36.2602 134.459 35.4353 135.011 34.5815L134.931 34.5727C133.917 34.3753 132.913 34.189 131.975 34.0449C131.693 34.005 131.638 34.0072 131.485 33.9895C131.356 33.9828 131.232 33.9739 131.097 33.9739C130.84 33.9584 130.58 33.9651 130.316 33.9895C129.795 34.0272 129.283 34.138 128.815 34.3309C128.347 34.5194 127.939 34.7966 127.646 35.1004Z" fill="#CC1F38"/>
<path d="M125.129 39.9503C127.22 39.019 125.788 35.7813 123.697 36.7083C121.601 37.6352 123.042 40.8728 125.129 39.9503Z" fill="#CC1F38"/>
<path d="M50.0492 40.1207C45.0908 38.952 40.6602 38.8789 37.1654 39.5752C35.4202 39.9322 33.9189 40.4932 32.737 41.1851C31.9786 41.6286 31.371 42.1165 30.8698 42.6021C27.4393 43.0545 24.2705 43.8949 21.381 44.5247C19.5715 44.9216 17.853 45.2299 16.232 45.3829C14.6154 45.5425 13.1008 45.5403 11.7193 45.4139C8.95405 45.1722 6.76314 44.4715 5.28183 43.9326C3.79831 43.3805 3 42.9902 3 42.999C3.00444 42.9902 3.72735 43.4958 5.14435 44.2386C6.55912 44.9682 8.70791 45.9483 11.5707 46.4828C13.001 46.7489 14.6043 46.8864 16.3184 46.8509C18.0326 46.8198 19.8465 46.6114 21.7225 46.3054C24.0997 45.9173 26.5745 45.3895 29.1402 44.9904C29.1291 45.017 29.1157 45.0458 29.1047 45.0702C29.1512 45.0591 29.2 45.0525 29.2488 45.0414C29.2643 45.0148 29.2821 44.9926 29.2976 44.966C30.7212 44.7487 32.1671 44.569 33.6417 44.4826C37.8439 44.1965 41.8465 44.6777 45.3946 45.6002C48.9559 46.5138 52.1292 47.7268 54.9011 48.4697C57.6663 49.2414 60.0014 49.5296 61.5936 49.574C63.1968 49.6205 64.0683 49.5075 64.0705 49.5163C64.0927 49.4786 60.4804 49.4919 55.2315 47.4474C52.5949 46.4717 49.5458 45.0126 45.8891 43.8572C42.2457 42.6886 37.9481 42.0322 33.4998 42.336C32.9831 42.367 32.4686 42.4136 31.9608 42.4668C32.3378 42.2429 32.737 42.0278 33.1938 41.8348C34.3846 41.3337 35.8459 40.9789 37.5202 40.8436C40.8531 40.5708 45.0353 41.0986 49.528 42.6065C50.6568 42.9857 51.7278 43.4536 52.9741 43.9792C54.2026 44.4892 55.491 44.9926 56.8703 45.4361C58.081 45.8197 69.2839 52.4678 76.4244 47.576C66.155 47.576 55.0452 41.6419 53.8123 41.2383C52.6037 40.837 51.2843 40.4023 50.0492 40.1207Z" fill="#CC1F38"/>
<path d="M43.057 38.684C43.3032 38.4512 43.6935 38.1274 44.2855 37.8613C44.8687 37.5863 45.6493 37.4111 46.5829 37.4067C47.5165 37.3978 48.5942 37.5619 49.7916 37.8591C52.2021 38.4312 62.1588 42.272 65.6913 43.3297C65.7223 43.3386 69.257 44.0105 69.2881 44.0172C67.6072 43.2322 65.5072 40.7951 60.8216 39.132C55.9896 37.2116 52.3263 36.7459 49.8803 36.5508C48.592 36.4332 47.4167 36.4532 46.421 36.6328C45.4231 36.8102 44.6182 37.1695 44.0616 37.5575C43.5005 37.9545 43.1679 38.3603 42.975 38.6308C42.7776 38.9058 42.6956 39.0632 42.6934 39.0632C42.6978 39.0632 42.8109 38.9191 43.057 38.684Z" fill="#CC1F38"/>
<path d="M59.7735 29.9114C59.8666 30.5278 60.0329 31.1354 60.299 31.6632C60.5651 32.1954 60.931 32.6433 61.3102 32.956C62.0863 33.588 62.8381 33.7299 63.3082 33.8031C63.796 33.8674 64.0599 33.8364 64.0621 33.843C64.0621 33.8386 63.8337 33.6989 63.4723 33.4128C63.1241 33.1334 62.6385 32.6855 62.3369 32.0823C62.0353 31.4725 61.9622 30.7363 62.0509 29.816C62.0752 29.5854 62.1041 29.3525 62.144 29.102L62.2016 28.7183C62.2216 28.6052 62.2571 28.3857 62.2593 28.4411C62.297 28.4234 62.3147 28.4522 62.3147 28.4522C62.3147 28.45 62.3014 28.4168 62.3369 28.3901L62.3502 28.3813C62.3657 28.3879 62.3436 28.3635 62.4256 28.4123L62.7516 28.603C62.9689 28.7294 63.1751 28.8536 63.3592 28.9778C64.1287 29.4878 64.6786 30.0111 64.9292 30.5943C65.2042 31.1731 65.1709 31.8206 65.0955 32.2597C65.0179 32.6988 64.9292 32.956 64.9336 32.956C64.9314 32.9516 65.1532 32.8074 65.4703 32.4393C65.7785 32.0734 66.2397 31.4237 66.2597 30.3859C66.2641 29.8737 66.14 29.3038 65.8916 28.7738C65.6388 28.2371 65.2884 27.736 64.8693 27.2792C64.6587 27.0485 64.4303 26.8334 64.193 26.6294C64.0732 26.523 63.9535 26.4232 63.8271 26.3256C63.7872 26.2901 63.6453 26.1926 63.5366 26.1172L63.184 25.8866C62.2172 25.2634 61.1927 24.7734 60.1305 24.2212L60.115 24.3187C59.9642 25.5628 59.8222 26.7869 59.7225 27.92C59.6892 28.266 59.6981 28.3369 59.6914 28.5121C59.6936 28.674 59.6958 28.8248 59.6958 28.9844C59.7003 29.2949 59.7269 29.6076 59.7735 29.9114Z" fill="#CC1F38"/>
<path d="M66.5659 34.5817C66.7611 34.952 66.9074 35.1161 66.9052 35.1205C66.9074 35.1205 66.8919 34.8943 66.9119 34.4996C66.9385 34.1182 67.0116 33.5594 67.2888 33.0538C67.5594 32.5482 68.0361 32.1335 68.7191 31.7433C68.8921 31.6435 69.0739 31.5503 69.2713 31.4528L69.5707 31.302C69.6527 31.2643 69.8212 31.1734 69.7858 31.2088C69.8146 31.2266 69.8035 31.251 69.8035 31.251C69.8035 31.251 69.8235 31.2221 69.8567 31.2377L69.8656 31.2443C69.8722 31.2598 69.8745 31.231 69.8878 31.3108L69.9166 31.6302C69.9343 31.8386 69.9521 32.0448 69.9565 32.24C69.9787 33.0272 69.8833 33.6636 69.5973 34.1293C69.329 34.6061 68.8611 34.8966 68.5173 35.0584C68.167 35.227 67.9474 35.2957 67.9519 35.2979C67.9541 35.2935 68.1625 35.3711 68.5794 35.4132C68.9808 35.4465 69.666 35.4509 70.4044 34.9476C70.7637 34.7059 71.0919 34.34 71.3425 33.8965C71.5997 33.464 71.7771 32.9629 71.8813 32.4506C71.939 32.1934 71.9811 31.9273 72.0077 31.6612C72.0144 31.5282 72.0277 31.3929 72.0343 31.2576C72.0366 31.2133 72.0388 31.0603 72.0388 30.9538L72.0255 30.5901C71.9833 29.6122 71.8215 28.6543 71.6751 27.6431L71.6064 27.6785C70.6661 28.1886 69.737 28.6897 68.8965 29.1776C68.6371 29.3284 68.595 29.3638 68.4708 29.4525C68.3621 29.5279 68.249 29.6078 68.1448 29.6876C67.9341 29.8517 67.7257 30.0202 67.5394 30.2021C67.1491 30.5657 66.8143 30.9871 66.5726 31.4261C66.3309 31.8763 66.2023 32.3531 66.1712 32.77C66.1136 33.6259 66.3752 34.2158 66.5659 34.5817Z" fill="#CC1F38"/>
<path d="M56.0727 35.8963C56.1415 35.9784 56.2457 36.0915 56.2745 36.1247C56.3677 36.2223 56.4564 36.3176 56.5584 36.4152C56.7535 36.5993 56.9553 36.7722 57.1571 36.9363C57.5762 37.2601 58.0308 37.5284 58.4987 37.7058C58.9644 37.8832 59.4478 37.963 59.8714 37.9253C60.734 37.8588 61.2329 37.4397 61.5034 37.1669C61.7851 36.8764 61.8849 36.6902 61.8849 36.6924C61.8871 36.6902 61.6831 36.7722 61.3194 36.8587C60.9602 36.9452 60.4324 37.0095 59.9224 36.8166C59.4101 36.6347 58.9267 36.209 58.4322 35.6014C58.3102 35.4417 58.1816 35.282 58.0619 35.1135L57.8778 34.8474C57.8312 34.7876 57.8534 34.8053 57.8468 34.7898L57.8534 34.7787C57.8667 34.7476 57.8955 34.7587 57.8978 34.7587C57.8978 34.7587 57.8712 34.7454 57.8845 34.7144C57.8379 34.7144 58.0175 34.6678 58.1062 34.6456L58.4167 34.5813C58.6251 34.5347 58.818 34.497 59.011 34.4682C59.7649 34.3374 60.3836 34.3596 60.918 34.5813C61.448 34.792 61.8649 35.1778 62.131 35.455C62.3993 35.7344 62.5412 35.9207 62.5435 35.914C62.539 35.9163 62.5324 35.6967 62.4415 35.2998C62.3372 34.9095 62.1399 34.2953 61.5478 33.6854C61.2551 33.3839 60.8471 33.1044 60.3747 32.9115C59.9068 32.7186 59.3946 32.6099 58.8735 32.57C58.6096 32.5456 58.3501 32.539 58.0929 32.5545C57.9576 32.5545 57.8312 32.5634 57.7048 32.57C57.5541 32.5855 57.4964 32.5833 57.2148 32.6255C56.2768 32.7696 55.2722 32.9559 54.2588 33.1532L54.1768 33.1621C54.7311 34.0181 55.2367 34.8408 55.8488 35.608L56.0727 35.8963Z" fill="#CC1F38"/>
<path d="M65.4939 35.2976C63.4006 34.3707 61.9681 37.6083 64.0614 38.5396C66.1481 39.4621 67.5873 36.2246 65.4939 35.2976Z" fill="#CC1F38"/>
<path d="M71.9258 42.56C70.0386 42.4735 69.9078 45.3896 71.7883 45.476C73.6709 45.5603 73.804 42.642 71.9258 42.56Z" fill="#CC1F38"/>
</svg>
