<svg width="226" height="212" viewBox="0 0 226 212" fill="none" xmlns="http://www.w3.org/2000/svg">
<g opacity="0.95">
<path opacity="0.95" d="M196.656 177.414C176.556 171.307 178.737 164.123 158.623 158.026C138.51 151.929 136.341 159.104 116.239 152.94C96.1367 146.775 98.32 139.649 78.2061 133.552" stroke="#BE3F4A" stroke-width="1.1413" stroke-miterlimit="10"/>
<path opacity="0.95" d="M199.2 169.018C179.098 162.923 181.281 155.727 161.179 149.632C141.076 143.537 138.883 150.72 118.771 144.612C98.6591 138.503 100.852 131.321 80.7383 125.224" stroke="#BE3F4A" stroke-width="1.1413" stroke-miterlimit="10"/>
<path opacity="0.95" d="M201.754 160.636C181.642 154.528 183.824 147.344 163.721 141.249C143.619 135.154 141.427 142.325 121.325 136.23C101.222 130.135 103.397 122.926 83.292 116.842" stroke="#BE3F4A" stroke-width="1.1413" stroke-miterlimit="10"/>
<path opacity="0.95" d="M204.296 152.253C184.195 146.146 186.379 138.951 166.263 132.865C146.147 126.779 143.979 133.954 123.867 127.846C103.755 121.738 105.948 114.555 85.834 108.458" stroke="#BE3F4A" stroke-width="1.1413" stroke-miterlimit="10"/>
<path opacity="0.95" d="M206.838 143.857C186.738 137.751 188.92 130.566 168.817 124.471C148.714 118.376 146.521 125.559 126.42 119.452C106.32 113.346 108.492 106.148 88.3877 100.065" stroke="#BE3F4A" stroke-width="1.1413" stroke-miterlimit="10"/>
<path opacity="0.95" d="M44.8881 132.205L67.7617 139.085L72.3885 123.673L49.515 116.793L44.8881 132.205ZM66.1296 123.356C66.1569 123.273 66.2002 123.197 66.2571 123.131C66.314 123.065 66.3834 123.01 66.4612 122.971C66.5391 122.932 66.624 122.909 66.7109 122.902C66.7979 122.896 66.8852 122.907 66.9679 122.935C67.0535 122.957 67.1337 122.996 67.2039 123.05C67.2742 123.103 67.3329 123.171 67.3767 123.247C67.4206 123.324 67.4486 123.409 67.4591 123.497C67.4696 123.584 67.4625 123.673 67.4381 123.758L63.4047 137.165L62.0963 136.763L66.1296 123.356ZM63.6418 122.609C63.669 122.526 63.7123 122.449 63.7692 122.383C63.8261 122.317 63.8955 122.263 63.9734 122.224C64.0513 122.185 64.1361 122.161 64.2231 122.155C64.31 122.149 64.3973 122.16 64.48 122.187C64.5654 122.208 64.6456 122.246 64.716 122.298C64.7864 122.351 64.8454 122.417 64.8895 122.493C64.9336 122.569 64.9619 122.653 64.9727 122.74C64.9835 122.827 64.9765 122.915 64.9522 123L60.8382 136.404L59.5297 136.002L63.6418 122.609ZM61.1539 121.861C61.2118 121.694 61.3334 121.555 61.4925 121.477C61.6515 121.398 61.8351 121.386 62.0034 121.442C62.0875 121.464 62.1664 121.502 62.2354 121.555C62.3043 121.608 62.362 121.674 62.4049 121.75C62.4479 121.825 62.4753 121.909 62.4855 121.995C62.4957 122.081 62.4885 122.169 62.4643 122.252L58.431 135.659L57.1206 135.268L61.1539 121.861ZM58.6661 121.114C58.6919 121.027 58.7346 120.946 58.7916 120.876C58.8487 120.806 58.919 120.747 58.9986 120.704C59.0782 120.661 59.1655 120.634 59.2556 120.625C59.3456 120.615 59.4367 120.624 59.5234 120.65C59.6102 120.675 59.6911 120.718 59.7614 120.775C59.8317 120.832 59.89 120.903 59.9331 120.982C59.9763 121.062 60.0033 121.149 60.0126 121.239C60.022 121.329 60.0135 121.42 59.9877 121.507L55.9431 134.912L54.6327 134.521L58.6661 121.114ZM56.1895 120.368C56.2155 120.284 56.2581 120.206 56.3146 120.139C56.3711 120.072 56.4406 120.016 56.5188 119.976C56.597 119.936 56.6825 119.911 56.7702 119.904C56.858 119.898 56.9462 119.908 57.0297 119.936C57.1992 119.986 57.3428 120.1 57.4304 120.253C57.5181 120.407 57.543 120.588 57.4999 120.76L53.3839 134.175L52.0735 133.784L56.1895 120.368ZM53.7016 119.621C53.7608 119.456 53.8809 119.32 54.0372 119.241C54.1935 119.162 54.3742 119.146 54.542 119.196C54.7098 119.246 54.8521 119.359 54.9395 119.511C55.0269 119.662 55.0529 119.842 55.012 120.012L50.9787 133.419L49.6683 133.028L53.7016 119.621ZM40.0888 148.073L62.9345 154.914L67.5437 139.603L44.6702 132.723L40.0888 148.073ZM61.2511 139.28C61.3089 139.112 61.4306 138.974 61.5896 138.896C61.7487 138.817 61.9323 138.805 62.1006 138.861C62.1847 138.883 62.2635 138.921 62.3325 138.974C62.4015 139.027 62.4591 139.093 62.5021 139.169C62.5451 139.244 62.5724 139.328 62.5826 139.414C62.5928 139.5 62.5857 139.588 62.5615 139.671L58.5262 153.089L57.2177 152.687L61.2511 139.28ZM58.7745 138.535C58.8017 138.452 58.845 138.375 58.9019 138.309C58.9588 138.243 59.0282 138.189 59.1061 138.15C59.184 138.111 59.2688 138.087 59.3558 138.081C59.4427 138.075 59.5301 138.086 59.6127 138.113C59.7818 138.161 59.9257 138.272 60.0139 138.424C60.1021 138.575 60.1276 138.756 60.0849 138.926L56.0496 152.344L54.7299 151.94L58.7745 138.535ZM56.2866 137.787C56.3458 137.623 56.4659 137.487 56.6222 137.408C56.7785 137.329 56.9592 137.312 57.127 137.363C57.2948 137.413 57.4371 137.525 57.5245 137.677C57.6119 137.829 57.6379 138.008 57.597 138.178L53.5637 151.585L52.2552 151.183L56.2866 137.787ZM53.7988 137.04C53.8565 136.874 53.9759 136.736 54.1323 136.656C54.2888 136.575 54.4702 136.558 54.639 136.607C54.8102 136.655 54.9556 136.768 55.0437 136.922C55.1318 137.077 55.1553 137.26 55.1092 137.431L51.0739 150.849L49.7654 150.447L53.7988 137.04ZM51.311 136.293C51.369 136.124 51.4904 135.985 51.6493 135.905C51.8083 135.824 51.9924 135.809 52.1624 135.862C52.2467 135.885 52.3256 135.925 52.3944 135.979C52.4632 136.033 52.5207 136.101 52.5633 136.177C52.606 136.254 52.6331 136.338 52.6431 136.425C52.653 136.512 52.6457 136.6 52.6214 136.684L48.588 150.091L47.2776 149.7L51.311 136.293ZM48.8343 135.547C48.8604 135.463 48.9029 135.385 48.9595 135.318C49.016 135.25 49.0854 135.195 49.1637 135.155C49.2419 135.114 49.3274 135.09 49.4151 135.083C49.5028 135.076 49.591 135.087 49.6746 135.115C49.8441 135.165 49.9877 135.278 50.0753 135.432C50.1629 135.585 50.1878 135.767 50.1447 135.938L46.1114 149.345L44.7897 148.952L48.8343 135.547ZM49.6425 116.328L72.516 123.209L77.183 107.699L54.3232 100.741L49.6425 116.328ZM70.8958 107.412C70.923 107.329 70.9663 107.253 71.0232 107.187C71.0801 107.121 71.1495 107.067 71.2273 107.027C71.3052 106.988 71.3901 106.965 71.477 106.959C71.564 106.952 71.6513 106.963 71.734 106.991C71.8196 107.013 71.8998 107.052 71.97 107.106C72.0403 107.16 72.099 107.227 72.1428 107.304C72.1867 107.38 72.2147 107.465 72.2252 107.553C72.2357 107.641 72.2286 107.73 72.2042 107.815L68.1708 121.222L66.8624 120.819L70.8958 107.412ZM68.4079 106.665C68.4671 106.5 68.5872 106.364 68.7435 106.285C68.8998 106.206 69.0804 106.19 69.2482 106.24C69.416 106.29 69.5583 106.403 69.6457 106.554C69.7332 106.706 69.7591 106.886 69.7183 107.056L65.683 120.474L64.3745 120.072L68.4079 106.665ZM65.9201 105.918C65.9779 105.75 66.0995 105.612 66.2586 105.533C66.4176 105.455 66.6013 105.442 66.7695 105.498C66.9377 105.545 67.0805 105.657 67.1669 105.809C67.2532 105.96 67.2761 106.14 67.2305 106.309L63.16 119.663L61.8496 119.272L65.9201 105.918ZM63.4322 105.17C63.4926 105.003 63.6143 104.866 63.7726 104.786C63.9308 104.706 64.1136 104.689 64.2837 104.74C64.4532 104.79 64.5968 104.903 64.6844 105.057C64.772 105.21 64.7969 105.392 64.7538 105.563L60.7092 118.968L59.3988 118.577L63.4322 105.17ZM60.9556 104.425C61.0148 104.26 61.1349 104.124 61.2912 104.045C61.4475 103.966 61.6281 103.95 61.7959 104C61.9638 104.05 62.106 104.163 62.1934 104.314C62.2809 104.466 62.3068 104.646 62.266 104.816L58.2326 118.223L56.9222 117.832L60.9556 104.425ZM58.4677 103.677C58.5269 103.513 58.647 103.377 58.8033 103.298C58.9596 103.219 59.1403 103.202 59.3081 103.253C59.4759 103.303 59.6182 103.415 59.7056 103.567C59.793 103.719 59.819 103.898 59.7781 104.068L55.7448 117.475L54.4344 117.084L58.4677 103.677ZM35.0405 164.837L57.914 171.717L62.8403 155.453L39.9667 148.573L35.0405 164.837ZM56.4914 155.121C56.549 154.952 56.6698 154.813 56.8283 154.732C56.9868 154.651 57.1706 154.636 57.3406 154.688C57.5107 154.74 57.6537 154.857 57.7394 155.012C57.8251 155.168 57.8468 155.351 57.7999 155.523L53.7665 168.93L52.4581 168.528L56.4914 155.121ZM54.0036 154.373C54.0308 154.291 54.0741 154.214 54.131 154.148C54.1879 154.082 54.2573 154.028 54.3352 153.989C54.4131 153.949 54.4979 153.926 54.5849 153.92C54.6718 153.914 54.7591 153.925 54.8418 153.952C54.9271 153.973 55.0074 154.01 55.0778 154.063C55.1482 154.115 55.2072 154.182 55.2513 154.257C55.2954 154.333 55.3237 154.417 55.3345 154.505C55.3452 154.592 55.3383 154.68 55.314 154.764L51.2786 168.183L49.9702 167.78L54.0036 154.373ZM51.5857 153.557C51.6461 153.39 51.7678 153.253 51.9261 153.173C52.0843 153.093 52.2671 153.076 52.4371 153.127C52.5215 153.15 52.6003 153.19 52.6692 153.244C52.738 153.298 52.7954 153.365 52.8381 153.442C52.8808 153.518 52.9079 153.602 52.9178 153.689C52.9278 153.776 52.9204 153.864 52.8961 153.948L48.8627 167.355L47.5523 166.964L51.5857 153.557ZM49.0978 152.81C49.15 152.634 49.2696 152.487 49.4304 152.4C49.5911 152.313 49.7799 152.293 49.9552 152.345C50.1304 152.398 50.2778 152.517 50.3649 152.678C50.452 152.839 50.4716 153.028 50.4195 153.203L46.3749 166.608L45.0645 166.217L49.0978 152.81ZM46.6212 152.064C46.6473 151.98 46.6898 151.902 46.7463 151.835C46.8029 151.767 46.8723 151.712 46.9506 151.672C47.0288 151.631 47.1142 151.607 47.202 151.6C47.2897 151.593 47.3779 151.604 47.4614 151.632C47.6326 151.679 47.7781 151.793 47.8661 151.947C47.9542 152.101 47.9777 152.284 47.9316 152.455L43.8983 165.862L42.5879 165.471L46.6212 152.064ZM44.1334 151.317C44.1594 151.233 44.202 151.155 44.2585 151.087C44.3151 151.02 44.3845 150.965 44.4627 150.924C44.5409 150.884 44.6264 150.86 44.7141 150.853C44.8019 150.846 44.8901 150.857 44.9736 150.884C45.1448 150.932 45.2902 151.045 45.3783 151.199C45.4664 151.354 45.4899 151.537 45.4438 151.708L41.4104 165.115L40.1 164.724L44.1334 151.317ZM91.4031 69.2043L91.4188 69.1144C91.471 68.9354 91.4608 68.744 91.3899 68.5716C91.3189 68.3992 91.1915 68.256 91.0284 68.1656L91.1862 67.6603C91.0193 67.6442 90.8539 67.6153 90.6915 67.5738L91.5949 62.4022L89.4898 66.9584C89.1766 66.7161 88.9507 66.3786 88.846 65.9967C88.7414 65.6148 88.7637 65.2093 88.9096 64.8412C89.632 62.43 90.3382 59.4484 90.3382 59.4484L90.8441 59.5368C90.9372 59.569 91.0359 59.5821 91.1342 59.5752C91.2325 59.5683 91.3284 59.5415 91.4161 59.4966C91.5039 59.4517 91.5815 59.3894 91.6446 59.3137C91.7076 59.2379 91.7547 59.1502 91.7829 59.0557C91.8111 58.9613 91.82 58.8622 91.8089 58.7642C91.7978 58.6663 91.7669 58.5716 91.7183 58.4859C91.6696 58.4002 91.6041 58.3253 91.5257 58.2655C91.4473 58.2058 91.3577 58.1626 91.2621 58.1384L87.6531 57.0446C87.6604 55.7027 87.8391 54.3673 88.185 53.0708L88.3424 53.0983L90.9158 44.5341C91.0312 44.5316 91.1427 44.4911 91.2328 44.4188C91.3229 44.3466 91.3867 44.2467 91.4142 44.1345C91.4529 44.0252 91.4535 43.9061 91.4158 43.7964C91.3782 43.6868 91.3046 43.5931 91.2069 43.5306C91.0819 42.7209 89.181 30.1891 91.0391 20.4803C87.7853 27.5755 83.2717 34.0217 77.7173 39.506C77.6205 39.526 77.5309 39.5719 77.458 39.6387C77.3851 39.7055 77.3317 39.7908 77.3034 39.8855C77.2605 40.0144 77.2693 40.1549 77.3278 40.2775C77.3863 40.4 77.4901 40.4951 77.6173 40.5428L77.7072 40.5585L75.1358 49.1116L75.5292 49.1803C75.0839 50.4467 74.484 51.6533 73.7432 52.7727L69.7352 51.5745C69.5486 51.5188 69.3475 51.5389 69.1755 51.6302C69.0035 51.7216 68.8743 51.8769 68.8158 52.0627C68.7605 52.2481 68.7811 52.4479 68.873 52.6182C68.9649 52.7884 69.1206 52.9153 69.3059 52.9709L70.066 53.1963C70.066 53.1963 69.0059 56.0814 68.2835 58.4925C68.1939 58.8892 67.9768 59.2456 67.6654 59.5072C67.3539 59.7687 66.9654 59.921 66.5592 59.9408L67.4252 54.9827L65.2359 59.756C65.0903 59.7132 64.9488 59.6575 64.8131 59.5894L64.7208 60.1179C64.5397 60.1082 64.3605 60.1597 64.212 60.264C64.0636 60.3683 63.9544 60.5194 63.902 60.6932L63.8863 60.7831C63.8536 60.8871 63.8419 60.9965 63.8518 61.105C63.8618 61.2136 63.8932 61.319 63.9443 61.4153C63.9955 61.5116 64.0652 61.5967 64.1495 61.6657C64.2339 61.7348 64.3311 61.7864 64.4356 61.8175L64.2332 61.7821L58.0675 82.2895C57.8749 82.2329 57.6677 82.2543 57.4907 82.3491C57.3137 82.444 57.1812 82.6046 57.1216 82.7963C57.068 82.9889 57.0908 83.1947 57.1852 83.3709C57.2796 83.5471 57.4383 83.6801 57.6284 83.7422L58.5419 84.0176C58.1596 83.9508 57.7988 84.0268 57.716 84.302C57.6331 84.5772 57.869 84.8849 58.2434 84.9966L59.1027 85.251L54.6184 100.178L77.492 107.058L81.9762 92.1312L82.5808 92.3179C82.9519 92.3827 83.3147 92.2955 83.3955 92.0315C83.4764 91.7676 83.2424 91.4487 82.868 91.3369L83.7816 91.6124C83.9742 91.669 84.1813 91.6476 84.3583 91.5527C84.5353 91.4579 84.6679 91.2973 84.7274 91.1056C84.7837 90.9142 84.7617 90.7083 84.6663 90.5331C84.571 90.3579 84.41 90.2276 84.2187 90.171L84.466 90.2142L90.5427 69.8187L90.3628 69.7872C90.57 69.8364 90.7881 69.8033 90.9713 69.6948C91.1545 69.5863 91.2884 69.411 91.3449 69.2057L91.4031 69.2043ZM60.5118 101.659L59.2014 101.268L63.2347 87.8612C63.2939 87.6964 63.414 87.5605 63.5703 87.4815C63.7266 87.4025 63.9073 87.3863 64.0751 87.4364C64.2429 87.4865 64.3852 87.599 64.4726 87.7507C64.56 87.9025 64.586 88.082 64.5451 88.2523L60.5118 101.659ZM62.9996 102.407L61.678 102.014L65.7113 88.6066C65.7635 88.4313 65.8831 88.284 66.0439 88.1969C66.2046 88.1098 66.3934 88.0902 66.5687 88.1423C66.744 88.1944 66.8913 88.3141 66.9784 88.4748C67.0655 88.6356 67.0851 88.8244 67.033 88.9997L62.9996 102.407ZM65.4762 103.152L64.1658 102.761L68.1992 89.354C68.2596 89.1873 68.3813 89.0499 68.5396 88.9699C68.6978 88.8899 68.8806 88.8733 69.0507 88.9234C69.135 88.9468 69.2139 88.9867 69.2827 89.0408C69.3515 89.0949 69.4089 89.1621 69.4516 89.2385C69.4943 89.3149 69.5214 89.399 69.5313 89.486C69.5413 89.5729 69.5339 89.661 69.5096 89.7451L65.4762 103.152ZM67.9621 103.911L66.6537 103.508L70.687 90.1014C70.7445 89.9359 70.8642 89.7994 71.0207 89.7207C71.1772 89.6421 71.3582 89.6275 71.5253 89.6801C71.6106 89.7007 71.6909 89.7384 71.7613 89.7909C71.8316 89.8434 71.8907 89.9096 71.9348 89.9855C71.9789 90.0614 72.0072 90.1454 72.0179 90.2326C72.0287 90.3197 72.0217 90.4081 71.9974 90.4925L67.9621 103.911ZM70.45 104.658L69.1415 104.256L73.1749 90.8487C73.2341 90.6839 73.3542 90.548 73.5105 90.469C73.6668 90.39 73.8474 90.3739 74.0152 90.424C74.1831 90.4741 74.3253 90.5865 74.4127 90.7383C74.5002 90.89 74.5261 91.0695 74.4853 91.2398L70.45 104.658ZM72.9378 105.405L71.6181 105.001L75.6627 91.5961C75.69 91.5133 75.7333 91.4367 75.7902 91.3707C75.8471 91.3046 75.9165 91.2505 75.9944 91.2113C76.0722 91.1722 76.1571 91.1488 76.244 91.1426C76.331 91.1363 76.4183 91.1472 76.501 91.1748C76.6722 91.2223 76.8176 91.3356 76.9057 91.4898C76.9937 91.6441 77.0173 91.8269 76.9712 91.9984L72.9378 105.405ZM86.386 60.2526C86.4482 60.046 86.5893 59.8722 86.7786 59.7687C86.9679 59.6652 87.1903 59.6404 87.3979 59.6995L87.8363 59.7761C87.9393 59.8069 88.0351 59.8579 88.1182 59.9262C88.2013 59.9944 88.27 60.0785 88.3202 60.1735C88.3705 60.2686 88.4013 60.3727 88.4109 60.4798C88.4206 60.5868 88.4088 60.6948 88.3763 60.7972L86.8237 65.9714L84.8432 65.3706L86.386 60.2526ZM87.4142 44.8145C87.4448 44.7055 87.4967 44.6037 87.5669 44.5148C87.6372 44.426 87.7243 44.352 87.8233 44.2971C87.9224 44.2422 88.0313 44.2075 88.1438 44.195C88.2564 44.1825 88.3703 44.1925 88.4789 44.2243L88.9301 44.361C89.0376 44.3954 89.1372 44.4507 89.2232 44.5238C89.3092 44.5969 89.38 44.6862 89.4313 44.7867C89.4827 44.8872 89.5137 44.9969 89.5225 45.1094C89.5313 45.2219 89.5178 45.3351 89.4827 45.4423L87.8262 50.9459L85.7577 50.3181L87.4142 44.8145ZM85.2628 59.9174L83.7102 65.0915L81.7184 64.4888L83.2823 59.3166C83.3118 59.2134 83.3615 59.1172 83.4285 59.0334C83.4955 58.9496 83.5785 58.88 83.6726 58.8285C83.7667 58.7771 83.8702 58.7448 83.9769 58.7336C84.0835 58.7225 84.1914 58.7326 84.2942 58.7634L84.7326 58.84C84.8352 58.8772 84.9291 58.9347 85.0089 59.0091C85.0886 59.0835 85.1525 59.1732 85.1968 59.2729C85.241 59.3726 85.2647 59.4802 85.2664 59.5893C85.2681 59.6983 85.2477 59.8066 85.2065 59.9076L85.2628 59.9174ZM84.4097 43.9074C84.4742 43.6889 84.6219 43.5046 84.8211 43.3941C85.0204 43.2837 85.255 43.256 85.4745 43.3171L85.9256 43.4539C86.1409 43.5259 86.3194 43.6795 86.4227 43.8817C86.526 44.0839 86.5459 44.3185 86.4782 44.5352L84.8217 50.0388L82.7533 49.411L84.4097 43.9074ZM82.1591 58.9814L80.5952 64.1535L78.6147 63.5527L80.1673 58.3786C80.2325 58.1715 80.3758 57.9981 80.5669 57.8951C80.758 57.7922 80.9817 57.7679 81.1905 57.8274L81.6289 57.904C81.8321 57.9842 81.9957 58.1411 82.0843 58.3408C82.1729 58.5405 82.1796 58.767 82.1028 58.9715L82.1591 58.9814ZM81.3246 42.9978C81.3863 42.7789 81.5315 42.5931 81.7289 42.4802C81.9263 42.3673 82.1601 42.3365 82.38 42.3943L82.841 42.4748C83.0563 42.5469 83.2348 42.7005 83.3381 42.9026C83.4414 43.1048 83.4613 43.3394 83.3936 43.5561L81.7371 49.0597L79.6667 48.4432L81.3246 42.9978ZM76.9717 57.438C77.0316 57.2289 77.172 57.0521 77.362 56.9463C77.5521 56.8405 77.7763 56.8144 77.9856 56.8737L78.4142 57.0065C78.6205 57.0714 78.7928 57.215 78.8939 57.4062C78.995 57.5973 79.0166 57.8206 78.9542 58.0276L77.4016 63.2018L75.4211 62.6009L76.9717 57.438ZM78.3538 42.0965C78.4156 41.8777 78.5607 41.6918 78.7581 41.5789C78.9555 41.4661 79.1894 41.4352 79.4093 41.4931L79.8702 41.5736C80.0878 41.646 80.2678 41.8015 80.371 42.0062C80.4742 42.211 80.4921 42.4482 80.4209 42.6661L78.7644 48.1697L76.7052 47.5551L78.3538 42.0965ZM73.9017 56.5079C73.9299 56.4039 73.9787 56.3067 74.0454 56.2221C74.1121 56.1374 74.1952 56.0672 74.2897 56.0155C74.3842 55.9638 74.4883 55.9318 74.5955 55.9214C74.7027 55.9109 74.8109 55.9223 74.9136 55.9547L75.3521 56.0313C75.5584 56.0963 75.7307 56.2399 75.8318 56.431C75.9329 56.6222 75.9545 56.8455 75.8921 57.0525L74.3395 62.2266L72.3477 61.6239L73.9017 56.5079ZM77.0347 66.2311C78.6649 66.7206 80.1134 67.6826 81.1968 68.9954C82.2803 70.3082 82.9501 71.9128 83.1215 73.6063C83.2929 75.2998 82.9582 77.0062 82.1598 78.5094C81.3614 80.0127 80.1351 81.2455 78.636 82.0517C77.1369 82.858 75.4324 83.2016 73.738 83.039C72.0436 82.8765 70.4355 82.2151 69.1171 81.1385C67.7986 80.062 66.8291 78.6186 66.331 76.9909C65.8329 75.3632 65.8288 73.6244 66.319 71.9944C66.6431 70.9117 67.1776 69.9035 67.8918 69.0277C68.606 68.1518 69.486 67.4254 70.4813 66.89C71.4767 66.3547 72.5679 66.0209 73.6924 65.9078C74.8169 65.7948 75.9527 65.9046 77.0347 66.2311ZM70.7868 55.5699C70.8163 55.4667 70.866 55.3705 70.933 55.2867C71 55.2029 71.083 55.1333 71.1772 55.0818C71.2713 55.0304 71.3747 54.9981 71.4814 54.987C71.5881 54.9758 71.6959 54.9859 71.7987 55.0167L72.2484 55.0953C72.453 55.1627 72.6234 55.3067 72.7241 55.4971C72.8248 55.6875 72.8478 55.9095 72.7884 56.1165L71.2245 61.2886L69.2421 60.6991L70.7868 55.5699ZM77.5374 73.2357L74.8655 74.2056L75.5906 71.4474C76.0215 71.5938 76.4172 71.8285 76.7524 72.1364C77.0876 72.4443 77.355 72.8187 77.5374 73.2357ZM73.8969 75.7047L74.4248 75.8665L74.738 74.6699L77.5979 73.42C77.7932 73.9812 77.8293 74.5856 77.7023 75.166C77.5752 75.7465 77.2899 76.2805 76.878 76.7088C76.4661 77.1371 75.9436 77.443 75.3686 77.5926C74.7935 77.7422 74.1882 77.7297 73.6198 77.5564C72.7968 77.3251 72.0993 76.7763 71.6809 76.0307C71.2625 75.2852 71.1575 74.4039 71.3888 73.5809C71.6201 72.7579 72.1689 72.0604 72.9145 71.6421C73.66 71.2237 74.5413 71.1186 75.3643 71.3499L74.3521 74.3592L73.0577 74.8051L73.2582 75.3151L74.16 74.9281L73.8969 75.7047ZM68.5767 72.6668C69.0504 71.0845 70.133 69.7549 71.5866 68.9704C73.0402 68.1858 74.7457 68.0105 76.3285 68.4828L75.4564 71.0879C74.6974 70.8827 73.8915 70.9378 73.1675 71.2446C72.4436 71.5513 71.8433 72.0919 71.4628 72.7799C71.0822 73.4679 70.9433 74.2636 71.0683 75.0399C71.1932 75.8162 71.5748 76.5281 72.1521 77.062C72.7293 77.5958 73.4689 77.9208 74.2525 77.9848C75.0362 78.0488 75.8186 77.8483 76.4749 77.4153C77.1311 76.9822 77.6233 76.3417 77.8726 75.596C78.1219 74.8503 78.1141 74.0426 77.8503 73.3019L79.8817 72.417L77.7971 73.142C77.6077 72.6771 77.3203 72.2584 76.9545 71.9146C76.5887 71.5708 76.1531 71.3099 75.6773 71.1497L76.3735 68.4907C77.5538 68.85 78.6012 69.5509 79.3834 70.505C80.1656 71.4591 80.6476 72.6236 80.7685 73.8514C80.8894 75.0793 80.6437 76.3154 80.0626 77.4037C79.4814 78.492 78.5908 79.3838 77.5033 79.9663C76.4157 80.5488 75.1799 80.7961 73.9519 80.6767C72.7239 80.5574 71.5588 80.0769 70.6037 79.2959C69.6486 78.5149 68.9463 77.4684 68.5856 76.2886C68.2248 75.1087 68.2217 73.8484 68.5767 72.6668ZM72.3137 81.9163C73.7865 82.3477 75.3541 82.3334 76.8188 81.8753C78.2835 81.4172 79.5798 80.5357 80.5443 79.3419C81.5088 78.1481 82.0983 76.6955 82.2384 75.1673C82.3786 73.639 82.0632 72.1034 81.3319 70.7541C80.6007 69.4048 79.4863 68.3022 78.1294 67.5853C76.7724 66.8684 75.2336 66.5693 73.7069 66.7256C72.1802 66.8819 70.7339 67.4868 69.5504 68.4638C68.3669 69.4409 67.4992 70.7465 67.0566 72.2159C66.4764 74.1945 66.7049 76.3224 67.692 78.1326C68.6791 79.9428 70.3441 81.2874 72.3216 81.8713L72.3137 81.9163ZM76.4206 68.2209L76.5686 67.7717L76.4881 68.2327C77.7233 68.6065 78.82 69.3381 79.6396 70.335C80.4592 71.3319 80.9649 72.5494 81.0929 73.8336C81.2209 75.1178 80.9654 76.4112 80.3586 77.5502C79.7518 78.6892 78.8211 79.6229 77.6839 80.2332C76.5468 80.8435 75.2542 81.103 73.9696 80.979C72.685 80.855 71.466 80.353 70.4666 79.5365C69.4671 78.72 68.7321 77.6256 68.3544 76.3915C67.9767 75.1575 67.9733 73.8391 68.3445 72.6031C68.5884 71.7825 68.9919 71.018 69.5318 70.3536C70.0718 69.6892 70.7375 69.138 71.4909 68.7314C72.2443 68.3248 73.0706 68.071 73.9223 67.9844C74.7741 67.8978 75.6345 67.9801 76.4544 68.2268L76.4206 68.2209Z" fill="#BE3F4A"/>
<path opacity="0.95" d="M20.6915 125.971L28.276 128.274C29.8698 128.758 31.0224 128.237 31.489 126.701C31.9555 125.164 31.2868 124.09 29.693 123.606L22.1085 121.304L21.6592 122.784L29.3433 125.117C30.0548 125.333 30.2159 125.723 30.0647 126.222C29.9135 126.72 29.5623 126.955 28.8508 126.739L21.1667 124.406L20.6915 125.971ZM33.4105 119.91L33.8987 118.303L23.9378 115.278L23.5144 116.673L29.4767 118.483L23.0263 118.281L22.4301 120.245L32.391 123.269L32.8187 121.86L25.6041 119.67L33.4105 119.91ZM34.2389 117.182L34.7142 115.617L24.7533 112.592L24.2781 114.158L34.2389 117.182ZM26.3855 112.335L26.8823 110.699L35.4202 113.291L35.8954 111.726L27.3575 109.134L27.8543 107.497L26.4313 107.065L24.9625 111.903L26.3855 112.335ZM28.5388 105.243L29.3596 102.539L27.9366 102.107L26.6406 106.376L36.6015 109.4L37.8975 105.131L36.4745 104.699L35.6537 107.403L32.7366 106.517L33.3889 104.368L31.966 103.936L31.3136 106.085L28.5388 105.243ZM38.192 104.161L38.9437 101.685C39.4189 100.12 38.7842 99.0877 37.1904 98.6039L32.1531 97.0746C30.5593 96.5907 29.458 97.0956 28.9828 98.6609L28.2311 101.137L38.192 104.161ZM30.3972 99.1213C30.5484 98.6233 30.8952 98.4022 31.6067 98.6182L36.7864 100.191C37.4979 100.407 37.6633 100.783 37.5121 101.281L37.2442 102.164L30.1293 100.004L30.3972 99.1213ZM41.7106 92.5711L42.1988 90.9631L36.0167 91.4641L32.2379 87.939L31.7627 89.5043L35.4807 92.871L31.1406 91.5534L30.6654 93.1187L40.6263 96.1428L41.1015 94.5775L38.0421 93.6487L37.2783 92.8884L41.7106 92.5711ZM42.4151 90.2507L42.8903 88.6854L32.9294 85.6614L32.4542 87.2267L42.4151 90.2507ZM44.253 84.1969L44.7412 82.589L34.7803 79.5649L34.3569 80.9594L40.3192 82.7695L33.8687 82.5674L33.2726 84.5311L43.2334 87.5552L43.6611 86.1464L36.4466 83.9561L44.253 84.1969ZM41.6676 77.8675L41.8836 77.156L43.7192 77.7133C44.4307 77.9293 44.5918 78.3201 44.4406 78.8182C44.2894 79.3162 43.9382 79.5515 43.2267 79.3355L37.8478 77.7025C37.1364 77.4865 36.961 77.0914 37.1122 76.5933C37.2634 76.0953 37.6289 75.8643 38.3403 76.0803L39.4076 76.4043L39.8569 74.9244L38.8892 74.6306C37.2955 74.1468 36.1429 74.6672 35.6763 76.204C35.2097 77.7408 35.8785 78.8142 37.4722 79.298L42.6519 80.8705C44.2456 81.3544 45.3983 80.834 45.8649 79.2972C46.3314 77.7604 45.6626 76.687 44.0689 76.2032L40.9099 75.2441L40.2446 77.4355L41.6676 77.8675ZM46.7647 75.9236L47.5164 73.4476C47.9916 71.8823 47.3569 70.8504 45.7632 70.3666L40.7258 68.8372C39.1321 68.3534 38.0307 68.8583 37.5555 70.4236L36.8038 72.8995L46.7647 75.9236ZM38.9699 70.884C39.1211 70.386 39.4679 70.1649 40.1794 70.3809L45.3591 71.9534C46.0706 72.1694 46.236 72.546 46.0848 73.0441L45.817 73.9263L38.702 71.7663L38.9699 70.884ZM41.2947 66.3492C40.5832 66.1332 40.4078 65.7381 40.559 65.24C40.7102 64.742 41.0757 64.511 41.7871 64.727L47.166 66.36C47.8775 66.576 48.0528 66.9711 47.9016 67.4692C47.7504 67.9672 47.385 68.1982 46.6735 67.9822L41.2947 66.3492ZM46.0987 69.5172C47.6925 70.0011 48.858 69.438 49.3246 67.9012C49.7912 66.3644 49.1354 65.2483 47.5416 64.7645L42.362 63.192C40.7682 62.7081 39.6026 63.2712 39.1361 64.808C38.6695 66.3448 39.3253 67.4609 40.9191 67.9447L46.0987 69.5172ZM40.9368 59.286L40.2759 61.4632L50.2367 64.4873L50.6515 63.1212L43.6077 60.9828L51.0057 61.9544L51.455 60.4745L44.64 57.2243L51.7833 59.393L52.2326 57.9131L42.2717 54.889L41.6108 57.0662L48.359 60.2805L40.9368 59.286Z" fill="#BE3F4A"/>
<path opacity="0.95" d="M78.2159 138.665L79.4701 139.046L77.5716 145.272L77.3805 145.239L79.2099 139.209L78.1092 138.878L78.2159 138.665Z" fill="#BE3F4A"/>
<path opacity="0.95" d="M80.1757 143.107C80.3758 142.896 80.6181 142.729 80.8869 142.617C81.1568 142.51 81.4457 142.458 81.7362 142.465C81.5058 142.304 81.3276 142.079 81.2233 141.819C81.1169 141.567 81.1044 141.285 81.1882 141.025C81.2576 140.771 81.3898 140.539 81.5725 140.35C81.7492 140.176 81.9711 140.054 82.2132 139.999C82.4758 139.936 82.7509 139.952 83.0046 140.045C83.2693 140.114 83.5092 140.257 83.6975 140.455C83.8635 140.642 83.9758 140.869 84.0227 141.114C84.0696 141.37 84.0515 141.634 83.9698 141.881C83.8986 142.136 83.741 142.359 83.524 142.51C83.3016 142.673 83.0353 142.763 82.7601 142.771C83.0143 142.924 83.2312 143.132 83.3952 143.38C83.5627 143.62 83.677 143.892 83.7305 144.18C83.7828 144.478 83.765 144.784 83.6785 145.075C83.5765 145.425 83.3769 145.74 83.1029 145.982C82.8312 146.215 82.5086 146.381 82.161 146.466C81.8108 146.548 81.4453 146.536 81.1011 146.432C80.7527 146.329 80.4386 146.134 80.1917 145.867C79.9567 145.605 79.7892 145.29 79.7035 144.948C79.6291 144.626 79.6332 144.29 79.7154 143.97C79.7975 143.65 79.9554 143.354 80.1757 143.107ZM79.8634 144.895C79.9366 145.206 80.0851 145.495 80.296 145.735C80.5147 145.978 80.7965 146.156 81.1101 146.248C81.4267 146.352 81.7665 146.363 82.0893 146.28C82.4079 146.203 82.7021 146.047 82.9446 145.827C83.1899 145.61 83.3679 145.328 83.4576 145.013C83.5596 144.703 83.5694 144.371 83.4857 144.056C83.4036 143.742 83.2424 143.455 83.0175 143.221C82.7935 142.98 82.5095 142.802 82.1944 142.706C81.8794 142.611 81.5445 142.6 81.2241 142.676C80.9197 142.759 80.6389 142.913 80.4044 143.124C80.163 143.343 79.9889 143.626 79.9027 143.94C79.8101 144.252 79.8043 144.584 79.8859 144.899L79.8634 144.895ZM81.4623 141.976C81.6455 142.255 81.9219 142.459 82.2421 142.553C82.5541 142.651 82.8914 142.632 83.19 142.498C83.3283 142.427 83.4506 142.328 83.5493 142.208C83.648 142.088 83.7211 141.949 83.764 141.799C83.8219 141.635 83.8458 141.462 83.8343 141.288C83.8227 141.115 83.7759 140.946 83.6968 140.791C83.6209 140.645 83.5162 140.517 83.3889 140.413C83.2616 140.309 83.1146 140.232 82.9566 140.187C82.6325 140.088 82.2826 140.118 81.9803 140.271C81.8235 140.35 81.6854 140.461 81.5756 140.598C81.4657 140.735 81.3866 140.894 81.3436 141.064C81.3017 141.218 81.2925 141.379 81.3168 141.537C81.3411 141.695 81.3984 141.846 81.4847 141.98L81.4623 141.976Z" fill="#BE3F4A"/>
<path opacity="0.95" d="M85.0391 144.583C85.2366 144.369 85.4797 144.202 85.7503 144.093C86.0168 143.987 86.3016 143.935 86.5884 143.939C86.353 143.787 86.1761 143.56 86.0868 143.295C85.9804 143.043 85.9679 142.761 86.0517 142.501C86.1135 142.248 86.2461 142.018 86.434 141.838C86.6058 141.659 86.8247 141.532 87.0654 141.473C87.3324 141.417 87.6095 141.434 87.8681 141.521C88.1308 141.595 88.3696 141.737 88.561 141.931C88.723 142.12 88.8348 142.347 88.8862 142.59C88.9331 142.847 88.9149 143.11 88.8333 143.357C88.7548 143.615 88.5934 143.839 88.3742 143.996C88.1528 144.152 87.8921 144.243 87.6217 144.258C87.8749 144.409 88.0922 144.613 88.2587 144.856C88.4261 145.096 88.5404 145.368 88.594 145.656C88.6481 145.958 88.6256 146.269 88.5288 146.56C88.4294 146.906 88.2345 147.217 87.9664 147.458C87.6962 147.693 87.373 147.859 87.0244 147.942C86.6748 148.029 86.3078 148.017 85.9646 147.908C85.6162 147.805 85.3021 147.61 85.0552 147.343C84.8167 147.084 84.6486 146.767 84.567 146.424C84.4799 146.074 84.4918 145.707 84.6015 145.364C84.6857 145.074 84.8354 144.807 85.0391 144.583ZM84.7269 146.371C84.8001 146.682 84.9486 146.971 85.1594 147.211C85.3766 147.456 85.6589 147.634 85.9735 147.724C86.2903 147.827 86.6299 147.838 86.9527 147.756C87.2714 147.679 87.5656 147.523 87.8081 147.303C88.0497 147.083 88.227 146.802 88.3211 146.489C88.4176 146.178 88.4273 145.848 88.3491 145.532C88.263 145.22 88.1023 144.933 87.8809 144.697C87.6507 144.456 87.3628 144.278 87.0443 144.18C86.733 144.09 86.4037 144.08 86.0876 144.152C85.7818 144.232 85.5004 144.386 85.2679 144.6C85.0264 144.819 84.8524 145.102 84.7662 145.416C84.6736 145.728 84.6678 146.06 84.7494 146.375L84.7269 146.371ZM86.3257 143.452C86.5074 143.733 86.7845 143.937 87.1056 144.029C87.4141 144.126 87.7477 144.106 88.0423 143.972C88.1795 143.905 88.3016 143.81 88.4015 143.694C88.5013 143.578 88.5769 143.443 88.6236 143.298C88.6808 143.134 88.7043 142.96 88.6928 142.787C88.6812 142.614 88.6348 142.444 88.5564 142.29C88.4825 142.143 88.378 142.014 88.2499 141.912C88.1219 141.81 87.9733 141.736 87.8142 141.696C87.6552 141.643 87.487 141.622 87.3196 141.634C87.1522 141.647 86.9891 141.693 86.8398 141.77C86.6825 141.848 86.5441 141.959 86.4342 142.096C86.3243 142.233 86.2455 142.392 86.2032 142.562C86.164 142.706 86.1573 142.857 86.1838 143.004C86.2102 143.151 86.2691 143.29 86.3561 143.411L86.3257 143.452Z" fill="#BE3F4A"/>
<path opacity="0.95" d="M94.1915 143.516L91.2265 145.501L91.0803 145.475C91.2219 145.435 91.3695 145.422 91.5159 145.435C91.6796 145.447 91.8416 145.475 91.9994 145.52C92.2486 145.581 92.4852 145.685 92.6987 145.827C92.8956 145.963 93.0622 146.138 93.1882 146.341C93.3189 146.549 93.3969 146.785 93.4155 147.03C93.4271 147.307 93.3788 147.583 93.2741 147.839C93.1689 148.239 92.9573 148.602 92.6618 148.891C92.3833 149.152 92.0396 149.332 91.667 149.412C91.2854 149.49 90.8902 149.469 90.5191 149.351C90.2394 149.273 89.9825 149.129 89.77 148.931C89.5638 148.753 89.3968 148.534 89.2796 148.289L89.4156 148.173C89.5238 148.406 89.6817 148.611 89.8781 148.776C90.0742 148.961 90.3138 149.095 90.575 149.164C90.9423 149.296 91.3398 149.322 91.7209 149.237C92.0578 149.162 92.3676 148.995 92.6159 148.756C92.885 148.498 93.0783 148.171 93.1749 147.811C93.2538 147.598 93.2851 147.372 93.2664 147.146C93.2477 146.921 93.1796 146.702 93.0668 146.506C92.8131 146.112 92.42 145.828 91.966 145.711C91.7907 145.657 91.6094 145.625 91.4263 145.617C91.2654 145.609 91.1042 145.62 90.9457 145.649L93.8815 143.566L93.8678 143.645L91.0842 142.799L91.1176 142.608L94.1915 143.516Z" fill="#BE3F4A"/>
<path opacity="0.95" d="M94.4678 148.304L96.2274 148.843L96.1959 149.023L94.4344 148.495L94.4678 148.304Z" fill="#BE3F4A"/>
<path opacity="0.95" d="M98.7012 144.894L99.9574 145.264L98.0589 151.49L97.8678 151.457L99.6972 145.427L98.5965 145.096L98.7012 144.894Z" fill="#BE3F4A"/>
<path opacity="0.95" d="M102.272 150.386C101.926 150.282 101.615 150.083 101.376 149.812C101.138 149.544 100.972 149.22 100.892 148.87C100.803 148.489 100.824 148.091 100.953 147.722C101.058 147.363 101.254 147.038 101.524 146.779C101.791 146.538 102.111 146.364 102.458 146.27C102.811 146.18 103.183 146.188 103.531 146.296C103.88 146.401 104.197 146.592 104.454 146.851C104.699 147.104 104.873 147.418 104.955 147.761C105.03 148.143 105.009 148.537 104.894 148.909C104.755 149.365 104.519 149.786 104.203 150.144C103.883 150.498 103.51 150.8 103.097 151.039C102.675 151.305 102.228 151.53 101.763 151.71C101.302 151.896 100.854 152.073 100.421 152.229L100.34 152.029C100.941 151.852 101.529 151.633 102.1 151.375C102.549 151.183 102.978 150.948 103.381 150.672C103.659 150.48 103.91 150.251 104.126 149.991L104.283 150.018C104.011 150.227 103.697 150.374 103.362 150.449C103 150.522 102.624 150.5 102.272 150.386ZM102.36 150.216C102.594 150.298 102.841 150.333 103.088 150.319C103.336 150.304 103.578 150.24 103.8 150.131C104.02 150.008 104.212 149.841 104.365 149.64C104.517 149.44 104.627 149.21 104.687 148.965L104.709 148.842C104.792 148.512 104.797 148.168 104.722 147.836C104.638 147.532 104.48 147.253 104.261 147.026C104.043 146.798 103.768 146.634 103.464 146.55C103.151 146.447 102.815 146.436 102.496 146.52C102.179 146.594 101.888 146.752 101.652 146.975C101.4 147.208 101.216 147.504 101.12 147.832C101.014 148.156 101.002 148.503 101.084 148.834C101.156 149.155 101.307 149.452 101.523 149.699C101.753 149.941 102.041 150.119 102.36 150.216Z" fill="#BE3F4A"/>
<path opacity="0.95" d="M105.678 150.853C105.874 150.641 106.113 150.474 106.378 150.361C106.649 150.256 106.937 150.205 107.227 150.208C106.998 150.051 106.822 149.826 106.726 149.564C106.619 149.312 106.607 149.031 106.691 148.77C106.753 148.514 106.886 148.28 107.075 148.096C107.25 147.924 107.467 147.802 107.704 147.742C107.971 147.681 108.25 147.698 108.507 147.79C108.772 147.86 109.012 148.002 109.2 148.201C109.365 148.388 109.477 148.615 109.525 148.86C109.572 149.116 109.554 149.38 109.472 149.627C109.398 149.883 109.236 150.105 109.015 150.254C108.798 150.419 108.535 150.51 108.263 150.516C108.512 150.676 108.728 150.883 108.898 151.125C109.065 151.365 109.179 151.638 109.233 151.925C109.288 152.224 109.266 152.531 109.17 152.818C109.075 153.166 108.879 153.479 108.607 153.716C108.336 153.954 108.013 154.123 107.663 154.212C107.313 154.293 106.948 154.281 106.604 154.177C106.255 154.074 105.941 153.879 105.694 153.613C105.456 153.353 105.288 153.037 105.206 152.693C105.119 152.344 105.131 151.977 105.241 151.634C105.323 151.342 105.473 151.075 105.678 150.853ZM105.366 152.64C105.439 152.952 105.588 153.24 105.798 153.481C106.016 153.725 106.298 153.903 106.613 153.993C106.929 154.097 107.269 154.108 107.592 154.025C107.91 153.949 108.205 153.793 108.447 153.572C108.689 153.353 108.866 153.071 108.96 152.758C109.062 152.449 109.072 152.116 108.988 151.802C108.902 151.489 108.741 151.203 108.52 150.967C108.29 150.726 108.002 150.548 107.683 150.45C107.372 150.359 107.043 150.35 106.727 150.422C106.421 150.502 106.139 150.655 105.907 150.87C105.665 151.088 105.491 151.371 105.405 151.686C105.313 151.998 105.307 152.329 105.388 152.644L105.366 152.64ZM106.965 149.722C107.146 150.002 107.424 150.207 107.745 150.298C108.053 150.396 108.387 150.375 108.681 150.242C108.819 150.174 108.941 150.079 109.04 149.964C109.14 149.848 109.216 149.713 109.263 149.567C109.325 149.406 109.354 149.235 109.348 149.063C109.343 148.89 109.302 148.721 109.229 148.565C109.153 148.419 109.048 148.29 108.921 148.187C108.794 148.083 108.647 148.006 108.489 147.961C108.165 147.862 107.815 147.892 107.513 148.045C107.352 148.119 107.212 148.229 107.101 148.366C106.991 148.504 106.914 148.665 106.876 148.837C106.825 148.984 106.808 149.141 106.827 149.295C106.846 149.449 106.901 149.596 106.987 149.726L106.965 149.722Z" fill="#BE3F4A"/>
<path opacity="0.95" d="M114.809 149.783L111.855 151.77L111.709 151.744C111.851 151.704 111.998 151.691 112.145 151.704C112.309 151.71 112.472 151.738 112.628 151.789C112.877 151.85 113.114 151.954 113.328 152.096C113.524 152.232 113.691 152.407 113.817 152.61C113.946 152.815 114.025 153.047 114.046 153.288C114.071 153.568 114.041 153.849 113.959 154.118C113.846 154.516 113.631 154.878 113.336 155.168C113.057 155.428 112.713 155.608 112.341 155.689C111.959 155.757 111.566 155.736 111.193 155.628C110.915 155.545 110.659 155.401 110.444 155.207C110.235 155.028 110.068 154.805 109.955 154.554L110.091 154.439C110.195 154.677 110.353 154.887 110.552 155.052C110.751 155.234 110.99 155.367 111.249 155.441C111.616 155.573 112.014 155.598 112.395 155.513C112.732 155.439 113.042 155.272 113.29 155.032C113.559 154.774 113.752 154.447 113.849 154.087C113.928 153.875 113.959 153.648 113.94 153.423C113.922 153.197 113.853 152.979 113.741 152.782C113.49 152.385 113.096 152.1 112.64 151.988C112.465 151.934 112.283 151.902 112.1 151.893C111.939 151.886 111.778 151.897 111.62 151.925L114.577 149.916L114.564 149.995L111.78 149.15L111.813 148.958L114.809 149.783Z" fill="#BE3F4A"/>
<path opacity="0.95" d="M114.293 93.4433C112.172 92.8088 110.194 91.7708 108.466 90.3864C106.814 89.0413 105.435 87.3925 104.403 85.5288L105.686 84.8145C106.591 86.4826 107.807 87.9615 109.27 89.1712C110.786 90.4374 112.545 91.3796 114.44 91.9396C117.073 92.7882 119.891 92.8791 122.574 92.2018C125.171 91.5457 127.57 90.2666 129.562 88.4753C131.555 86.6995 133.012 84.4016 133.768 81.8413C134.57 79.2836 134.646 76.5532 133.987 73.9549C133.38 71.4115 132.151 69.0588 130.409 67.1084C128.543 65.0956 126.164 63.6304 123.526 62.8706C121.793 62.3291 119.97 62.1289 118.161 62.281C116.644 62.3868 115.156 62.7456 113.758 63.3425L113.691 63.3308L121.129 38.8517L143.834 45.7024L143.376 47.1981L122.118 40.7507L115.768 61.6544L115.435 61.0402C116.822 60.6996 118.254 60.5821 119.678 60.6923C121.225 60.7773 122.758 61.045 124.242 61.4896C127.103 62.3765 129.684 63.9932 131.73 66.1805C133.725 68.2987 135.12 70.9103 135.771 73.7466C136.422 76.5829 136.306 79.5414 135.434 82.3178C134.6 85.1653 132.99 87.7243 130.783 89.7082C128.614 91.6836 125.979 93.0769 123.124 93.7578C120.207 94.46 117.153 94.3513 114.293 93.4433Z" fill="#BE3F4A"/>
<path opacity="0.95" d="M110.649 196.53L159.148 36.78L51.6002 4.1289L3.10092 163.879L110.649 196.53Z" stroke="#BE3F4A" stroke-width="1.1413" stroke-miterlimit="10"/>
<path opacity="0.95" d="M154.591 39.1836L54.043 8.65771L7.67226 161.396L108.22 191.922L154.591 39.1836Z" stroke="#BE3F4A" stroke-width="2.2826" stroke-miterlimit="10"/>
<path opacity="0.95" d="M117.287 162.033L16.291 131.371L7.21647 161.262L108.212 191.924L117.287 162.033Z" fill="#BE3F4A"/>
<path opacity="0.95" d="M20.0304 158.785L24.4457 160.125L24.1407 161.13L18.4904 159.414L21.319 150.098L22.554 150.473L20.0304 158.785ZM33.6095 159.245C33.3323 160.158 32.9366 160.909 32.4222 161.498C31.9091 162.084 31.3166 162.47 30.6447 162.657C29.9728 162.845 29.2615 162.824 28.5107 162.596C27.7769 162.374 27.1808 161.997 26.7222 161.466C26.2649 160.931 25.9794 160.283 25.8658 159.522C25.7577 158.758 25.8328 157.935 26.0911 157.053L26.2951 156.382C26.567 155.486 26.963 154.742 27.4829 154.149C28.0028 153.557 28.6015 153.166 29.279 152.975C29.962 152.782 30.6704 152.797 31.4041 153.02C32.1507 153.246 32.7526 153.627 33.2099 154.162C33.6727 154.694 33.9535 155.35 34.0521 156.13C34.152 156.906 34.0641 157.748 33.7882 158.656L33.6095 159.245ZM32.5699 158.273C32.9053 157.168 32.9406 156.254 32.6756 155.53C32.412 154.803 31.8813 154.318 31.0836 154.075C30.3072 153.84 29.605 153.95 28.9771 154.407C28.3547 154.861 27.8778 155.611 27.5464 156.657L27.3385 157.341C27.0135 158.412 26.9816 159.323 27.2431 160.073C27.51 160.82 28.0381 161.314 28.8273 161.553C29.6208 161.794 30.3225 161.693 30.9325 161.249C31.5438 160.801 32.0196 160.039 32.3601 158.964L32.5699 158.273ZM41.2898 166.336L40.0548 165.961L37.5441 157.358L35.3644 164.537L34.1294 164.162L36.9579 154.845L38.1929 155.22L40.7067 163.86L42.8961 156.648L44.1183 157.019L41.2898 166.336ZM43.4718 166.999L46.3004 157.682L48.9303 158.48C49.7408 158.726 50.4031 159.123 50.9172 159.67C51.4312 160.218 51.7564 160.873 51.8926 161.637C52.0332 162.402 51.9754 163.214 51.7193 164.072L51.5387 164.667C51.2719 165.546 50.8675 166.264 50.3255 166.822C49.7877 167.381 49.1494 167.742 48.4105 167.904C47.6759 168.068 46.8893 168.027 46.0506 167.782L43.4718 166.999ZM47.222 159.066L45.0054 166.367L46.298 166.759C47.245 167.047 48.0703 166.976 48.7737 166.547C49.4814 166.118 50.0004 165.361 50.3306 164.273L50.4958 163.729C50.817 162.671 50.8167 161.774 50.495 161.038C50.1789 160.299 49.5657 159.787 48.6554 159.501L47.222 159.066ZM60.5617 167.428C60.2846 168.341 59.8888 169.092 59.3744 169.681C58.8614 170.266 58.2689 170.652 57.597 170.84C56.9251 171.027 56.2137 171.007 55.4629 170.779C54.7292 170.556 54.133 170.179 53.6744 169.649C53.2172 169.114 52.9317 168.466 52.8181 167.705C52.71 166.94 52.7851 166.117 53.0433 165.236L53.2473 164.564C53.5193 163.668 53.9152 162.924 54.4352 162.332C54.9551 161.74 55.5538 161.348 56.2312 161.158C56.9143 160.965 57.6226 160.979 58.3564 161.202C59.1029 161.429 59.7048 161.81 60.1621 162.344C60.625 162.876 60.9057 163.532 61.0043 164.312C61.1043 165.088 61.0163 165.93 60.7404 166.839L60.5617 167.428ZM59.5221 166.455C59.8576 165.35 59.8928 164.436 59.6279 163.713C59.3643 162.985 58.8336 162.5 58.0358 162.258C57.2594 162.022 56.5573 162.133 55.9293 162.59C55.3069 163.044 54.83 163.794 54.4986 164.839L54.2908 165.524C53.9657 166.595 53.9339 167.505 54.1953 168.255C54.4623 169.003 54.9904 169.496 55.7796 169.736C56.5731 169.977 57.2748 169.875 57.8847 169.431C58.496 168.983 58.9719 168.222 59.3123 167.146L59.5221 166.455ZM68.242 174.519L67.007 174.144L64.4963 165.54L62.3166 172.72L61.0816 172.345L63.9102 163.028L65.1452 163.403L67.659 172.042L69.8484 164.831L71.0706 165.202L68.242 174.519Z" fill="#F6D8BE"/>
</g>
</svg>
