<svg width="330" height="134" viewBox="0 0 330 134" fill="none" xmlns="http://www.w3.org/2000/svg">
<path d="M29.376 53.9526H24.548V55.2446H46.784V53.9526H43.656L26.52 7.23663H20.944L3.604 53.9526H0.408V55.2446H10.812V53.9526H5.712L10.948 39.2646H24.412L29.376 53.9526ZM17.952 19.9526L23.868 37.7686H11.56L17.952 19.9526ZM93.8894 7.64463H53.7694L53.0894 24.7126H54.3814C57.8494 14.1726 60.1614 9.07263 66.3494 9.07263H67.2334V53.8166H61.4534V55.2446H86.2734V53.8166H80.4934V9.07263H81.3094C87.4974 9.07263 89.6054 13.6286 93.2774 24.7126H94.5694L93.8894 7.64463ZM108.687 7.64463V8.93663H112.699V53.9526H108.687V55.2446H129.903V53.9526H125.959V31.7846H139.491V53.9526H135.479V55.2446H156.763V53.9526H152.751V8.93663H156.763V7.64463H135.479V8.93663H139.491V30.0166H125.959V8.93663H129.903V7.64463H108.687ZM169.821 7.64463V9.14063H173.833V53.7486H169.821V55.2446H207.153L207.697 40.4206H206.337C204.297 47.8326 198.313 53.7486 189.677 53.7486H187.093V31.9206H188.725C193.485 31.9206 196.069 34.5726 197.701 41.3726H198.857V21.2446H197.837C196.681 26.4126 193.825 30.1526 189.405 30.1526H187.093V9.14063H189.473C197.701 9.14063 200.897 12.2006 204.637 21.1086H205.861L205.181 7.64463H169.821ZM261.147 8.93663H264.887V7.64463H255.571V8.93663H259.311V41.7806L241.495 7.64463H222.727V8.93663H226.467V53.9526H222.727V55.2446H232.043V53.9526H228.303V11.2486L251.627 55.2446H261.147V8.93663ZM298.881 54.4966C291.401 54.4966 284.805 46.5406 281.405 39.7406H280.249L280.929 55.9246H281.881C282.425 54.6326 282.833 53.8846 283.921 53.8846C285.825 53.8846 291.537 55.9246 298.133 55.9246C308.129 55.9246 314.793 49.4646 314.793 39.6726C314.793 28.3846 306.429 25.8006 298.881 23.7606C292.013 21.9246 287.389 20.2246 287.389 15.1926C287.389 11.1806 290.789 8.32463 295.685 8.32463C302.689 8.32463 307.313 15.1246 310.781 21.3806H311.869L311.393 7.64463H310.645C310.169 8.52863 309.829 9.00463 308.673 9.00463C306.361 9.00463 302.825 6.89663 296.569 6.89663C286.097 6.89663 280.453 14.0366 280.453 21.6526C280.453 31.9206 286.709 35.1846 294.937 37.4966C303.301 39.8766 307.517 41.7126 307.517 47.3566C307.517 52.3206 302.961 54.4966 298.881 54.4966Z" fill="#5A946E"/>
<path d="M216.239 103.456C217.156 101.729 218.141 99.6779 219.192 97.3024C220.29 94.9141 221.244 92.4624 222.054 89.9473C222.851 87.3846 223.45 84.849 223.853 82.3407C224.256 79.8324 224.238 77.5645 223.799 75.5371C223.751 75.5498 223.697 75.5388 223.637 75.5039C222.728 75.543 221.84 75.7553 220.973 76.1408C220.093 76.4787 219.269 76.9293 218.5 77.4928C217.731 78.0562 216.975 78.6673 216.232 79.3261C215.489 79.9848 214.793 80.6308 214.145 81.264C212.836 82.4828 211.436 83.9306 209.943 85.6073C208.45 87.284 206.983 89.056 205.541 90.9233C204.086 92.743 202.716 94.5912 201.43 96.468C200.191 98.3319 199.148 100.067 198.3 101.673L198.372 101.654C198.153 102.172 197.894 102.829 197.595 103.624C197.332 104.358 197.105 105.134 196.915 105.951C196.724 106.768 196.629 107.56 196.629 108.326C196.63 109.092 196.801 109.735 197.145 110.256C198.079 111.079 199.482 111.648 201.353 111.964C203.272 112.267 205.376 112.495 207.663 112.648C209.986 112.741 212.369 112.869 214.812 113.031C217.242 113.146 219.49 113.438 221.555 113.906C223.668 114.362 225.427 115.116 226.832 116.17C228.271 117.163 229.114 118.598 229.359 120.473C229.48 121.309 229.385 122.1 229.073 122.847C228.81 123.582 228.408 124.277 227.868 124.932C227.363 125.527 226.798 126.087 226.172 126.612C225.547 127.137 224.938 127.632 224.347 128.097C223.591 128.708 222.747 129.369 221.813 130.078C220.939 130.823 219.993 131.485 218.973 132.065C218.014 132.679 217.022 133.175 215.999 133.551C214.977 133.927 213.914 134.059 212.811 133.945C211.372 133.718 209.899 133.27 208.393 132.601C206.9 131.979 205.691 131.18 204.766 130.202C203.828 129.176 203.35 128.053 203.33 126.832C203.346 125.551 204.156 124.185 205.76 122.734L211.07 125.985C210.447 126.713 209.92 127.416 209.488 128.094C209.056 128.771 208.91 129.372 209.05 129.897C210.124 129.711 211.214 129.394 212.319 128.944C213.46 128.435 214.533 127.866 215.54 127.239C216.595 126.599 217.583 125.9 218.504 125.143C219.473 124.372 220.364 123.597 221.177 122.818C221.307 122.732 221.542 122.465 221.882 122.016C222.269 121.555 222.65 121.07 223.025 120.561C223.387 120.004 223.66 119.497 223.844 119.039C224.016 118.533 223.951 118.193 223.649 118.019C222.171 117.648 220.516 117.377 218.683 117.204C216.884 116.971 215.14 116.748 213.45 116.537C211.604 116.317 209.674 116.068 207.659 115.79C205.693 115.5 203.694 115.09 201.664 114.562C200.726 114.302 199.698 113.99 198.58 113.626C197.497 113.201 196.442 112.692 195.415 112.099C194.389 111.505 193.486 110.802 192.708 109.989C191.881 109.189 191.316 108.217 191.01 107.073C190.641 105.691 190.677 104.2 191.119 102.601C191.547 100.954 192.111 99.5262 192.809 98.3176C195.721 93.3496 199.049 88.602 202.794 84.0749C206.586 79.535 210.903 75.6208 215.744 72.3322C217.669 71.51 219.574 71.2807 221.458 71.6442C223.342 72.0078 225.059 72.799 226.61 74.0179C227.351 74.6878 227.959 75.3419 228.436 75.9803C228.96 76.6059 229.342 77.2698 229.58 77.972C229.819 78.6742 229.951 79.456 229.976 80.3174C230.002 81.1787 229.934 82.1673 229.772 83.2832C229.227 87.3618 228.286 91.3933 226.95 95.3774C225.601 99.3139 223.891 103.143 221.82 106.864L216.239 103.456ZM230.898 86.1225C231.994 85.8289 232.977 85.5911 233.848 85.409C234.753 85.1664 235.617 84.9605 236.44 84.7912C236.923 82.7723 237.332 81.0538 237.668 79.6358C238.04 78.1574 238.286 77.0701 238.406 76.3738L243.582 79.1241C243.446 79.5692 243.27 80.1527 243.054 80.8745C242.873 81.5358 242.7 82.3227 242.535 83.2351C242.63 83.2096 242.75 83.1776 242.893 83.1394C243.023 83.0534 243.159 82.9913 243.302 82.953L245.072 86.999C244.322 87.2509 243.667 87.4773 243.108 87.6781C242.584 87.8185 242.06 87.9589 241.536 88.0994C241.152 90.2961 240.802 92.7138 240.485 95.3524C240.203 97.9305 240.029 100.531 239.963 103.153C239.897 105.775 239.991 108.329 240.246 110.815C240.536 113.24 241.084 115.391 241.892 117.269C242.292 116.855 242.692 116.058 243.092 114.879C243.54 113.686 243.973 112.344 244.392 110.853C244.859 109.349 245.282 107.78 245.663 106.146C246.092 104.499 246.504 102.984 246.901 101.601L252.006 104.37C251.838 105.079 251.638 106.052 251.406 107.289C251.162 108.478 250.865 109.758 250.516 111.128C250.154 112.451 249.691 113.775 249.126 115.101C248.608 116.414 247.968 117.556 247.206 118.526C246.431 119.449 245.538 120.122 244.528 120.546C243.518 120.97 242.333 120.93 240.973 120.426C238.723 119.65 237.079 118.175 236.039 116.002C234.987 113.781 234.33 111.225 234.069 108.333C233.795 105.393 233.811 102.298 234.119 99.0495C234.474 95.7879 234.938 92.6502 235.512 89.6363L234.369 89.9426L230.898 86.1225ZM245.541 106.638C246.001 104.728 246.56 102.612 247.217 100.291C247.813 97.9346 248.415 95.5008 249.021 92.9891C248.147 91.4357 247.854 89.9564 248.143 88.5512C248.466 87.0855 249.063 85.8786 249.933 84.9305C250.791 83.9347 251.779 83.2359 252.897 82.8342C254.063 82.4198 255.032 82.4156 255.804 82.8216C256.564 83.1799 257.002 84.0583 257.12 85.4568C257.225 86.8076 256.7 88.7613 255.544 91.3181C256.253 91.4858 256.788 91.6744 257.151 91.8838C257.513 92.0932 257.847 92.3869 258.152 92.7648C258.492 93.0823 258.864 93.5189 259.267 94.0747C259.706 94.5701 260.314 95.2243 261.093 96.0371C261.932 96.8849 262.404 97.9842 262.509 99.335C262.65 100.625 262.605 101.991 262.377 103.431C262.196 104.858 261.962 106.274 261.673 107.68C261.372 109.037 261.199 110.207 261.155 111.189C262.146 110.311 262.947 109.202 263.56 107.863C264.221 106.512 264.773 105.138 265.218 103.742C265.649 102.299 266.016 100.898 266.317 99.5407C266.666 98.1703 267.001 97.0336 267.322 96.1306L272.517 98.9524C272.355 99.3022 272.185 99.9095 272.008 100.774C271.817 101.591 271.57 102.577 271.265 103.731C270.995 104.825 270.667 105.985 270.28 107.213C269.94 108.427 269.527 109.559 269.042 110.609C268.603 111.645 268.086 112.576 267.489 113.4C266.879 114.176 266.207 114.815 265.473 115.318C264.787 115.809 264.026 116.115 263.191 116.236C262.39 116.297 261.591 116.077 260.794 115.576C260.25 115.262 259.707 114.948 259.163 114.634C258.668 114.307 258.172 113.98 257.676 113.653C257.047 113.209 256.612 112.534 256.37 111.628C256.163 110.662 256.056 109.593 256.05 108.42C256.091 107.234 256.197 106.006 256.368 104.734C256.526 103.415 256.68 102.173 256.829 101.01C257.026 99.8335 257.159 98.8019 257.229 97.915C257.298 97.0281 257.235 96.4068 257.037 96.051C256.605 95.9625 256.149 95.8803 255.67 95.8045C255.177 95.6811 254.697 95.6053 254.23 95.5772C254.084 96.1781 253.932 96.7552 253.773 97.3084C253.662 97.8489 253.545 98.3656 253.421 98.8584C253.018 100.601 252.579 102.302 252.102 103.961C251.661 105.561 251.18 107.298 250.66 109.174L245.541 106.638ZM272.781 103.632C272.768 105.116 272.824 106.378 272.949 107.417C273.12 108.444 273.286 109.063 273.445 109.276C274.118 109.504 274.819 109.546 275.546 109.402C276.261 109.211 276.951 108.924 277.614 108.542C278.278 108.16 278.899 107.713 279.477 107.2C280.056 106.688 280.556 106.171 280.978 105.649C281.836 104.653 282.542 103.57 283.098 102.4C283.641 101.182 284.106 99.9593 284.493 98.732C284.915 97.4442 285.284 96.1454 285.598 94.8355C285.912 93.5256 286.28 92.2267 286.702 90.939L291.755 93.799C291.387 95.4809 291.036 97.1325 290.703 98.7539C290.37 100.375 289.922 101.951 289.36 103.48C288.833 104.949 288.125 106.314 287.236 107.573C286.394 108.82 285.275 109.886 283.877 110.771C282.908 111.542 281.9 112.067 280.851 112.348C279.851 112.616 278.829 112.711 277.787 112.633C276.793 112.542 275.784 112.301 274.761 111.911C273.785 111.509 272.808 111.004 271.829 110.398C270.959 109.814 270.164 109.133 269.446 108.355C268.728 107.577 268.164 106.707 267.753 105.744C267.194 104.413 266.89 102.988 266.842 101.469C266.746 99.962 266.854 98.4521 267.165 96.9388C267.428 95.4382 267.86 93.9947 268.46 92.6082C269.095 91.1613 269.846 89.862 270.713 88.7104C272.412 86.4677 274.194 85.3009 276.059 85.2099C277.924 85.1189 279.962 85.7731 282.174 87.1725C283.312 87.9913 284.024 89.1285 284.31 90.584C284.434 91.6232 284.266 92.7152 283.806 93.86C283.38 94.9443 282.923 95.9095 282.434 96.7555C281.354 98.8323 280.192 100.599 278.947 102.056C277.702 103.513 276.335 104.799 274.845 105.913L272.781 103.632ZM278.686 89.0261C277.619 89.6185 276.721 90.3696 275.994 91.2794C275.314 92.1765 274.744 93.1974 274.284 94.3422C273.859 95.4265 273.53 96.5871 273.298 97.8238C273.115 99.0477 272.961 100.289 272.837 101.548C273.447 100.772 274.103 99.881 274.805 98.8759C275.507 97.8707 276.148 96.8306 276.729 95.7556C277.345 94.6202 277.836 93.4929 278.201 92.3737C278.553 91.2068 278.715 90.0909 278.686 89.0261ZM292.256 98.4145C292.244 99.8989 292.3 101.161 292.424 102.2C292.596 103.226 292.761 103.846 292.92 104.059C293.594 104.287 294.294 104.329 295.022 104.185C295.737 103.994 296.426 103.707 297.09 103.325C297.754 102.943 298.375 102.496 298.953 101.983C299.531 101.471 300.031 100.954 300.454 100.432C301.311 99.4363 302.018 98.3532 302.573 97.1829C303.116 95.9649 303.581 94.7423 303.969 93.5149C304.391 92.2272 304.759 90.9283 305.073 89.6184C305.387 88.3085 305.756 87.0097 306.178 85.7219L311.23 88.582C310.862 90.2638 310.512 91.9155 310.178 93.5369C309.845 95.1583 309.398 96.7338 308.836 98.2633C308.309 99.7323 307.601 101.097 306.712 102.356C305.87 103.603 304.75 104.669 303.353 105.554C302.384 106.325 301.375 106.85 300.327 107.131C299.326 107.399 298.305 107.494 297.263 107.416C296.268 107.324 295.259 107.084 294.236 106.694C293.261 106.291 292.284 105.787 291.305 105.181C290.434 104.597 289.64 103.916 288.921 103.138C288.203 102.36 287.639 101.49 287.229 100.527C286.669 99.1961 286.366 97.7708 286.317 96.2515C286.222 94.745 286.329 93.235 286.64 91.7217C286.903 90.2212 287.335 88.7776 287.935 87.3911C288.57 85.9442 289.321 84.645 290.188 83.4934C291.887 81.2507 293.669 80.0839 295.534 79.9929C297.399 79.9019 299.438 80.556 301.649 81.9554C302.787 82.7743 303.499 83.9114 303.785 85.3669C303.91 86.4062 303.741 87.4982 303.281 88.643C302.856 89.7273 302.398 90.6925 301.909 91.5385C300.83 93.6153 299.667 95.3822 298.422 96.8393C297.177 98.2964 295.81 99.582 294.32 100.696L292.256 98.4145ZM298.161 83.8091C297.094 84.4014 296.197 85.1525 295.469 86.0624C294.79 86.9595 294.22 87.9804 293.759 89.1252C293.334 90.2095 293.005 91.37 292.774 92.6067C292.59 93.8307 292.436 95.0721 292.313 96.3309C292.922 95.5547 293.578 94.664 294.28 93.6588C294.982 92.6536 295.623 91.6136 296.205 90.5386C296.821 89.4032 297.311 88.2759 297.676 87.1566C298.029 85.9897 298.19 84.8739 298.161 83.8091ZM303.146 66.769C304.242 66.4754 305.225 66.2376 306.096 66.0554C307.001 65.8129 307.865 65.607 308.688 65.4376C309.17 63.4187 309.58 61.7003 309.916 60.2823C310.287 58.8038 310.533 57.7165 310.654 57.0203L315.83 59.7706C315.694 60.2157 315.517 60.7992 315.302 61.5209C315.121 62.1822 314.948 62.9691 314.783 63.8815C314.878 63.856 314.997 63.8241 315.14 63.7858C315.27 63.6999 315.407 63.6377 315.55 63.5994L317.319 67.6454C316.569 67.8973 315.915 68.1237 315.356 68.3246C314.832 68.465 314.308 68.6054 313.783 68.7458C313.4 70.9426 313.049 73.3603 312.732 75.9988C312.45 78.5769 312.276 81.1772 312.21 83.7996C312.144 86.4219 312.239 88.9758 312.494 91.4612C312.783 93.8861 313.332 96.0374 314.14 97.9151C314.54 97.5014 314.94 96.7048 315.34 95.5251C315.787 94.3326 316.221 92.9908 316.64 91.4996C317.106 89.9957 317.53 88.4266 317.911 86.7924C318.339 85.1455 318.752 83.6304 319.149 82.2474L324.253 85.0168C324.085 85.7258 323.885 86.6986 323.654 87.9353C323.409 89.1244 323.113 90.4041 322.764 91.7744C322.402 93.0971 321.938 94.4214 321.373 95.7475C320.856 97.0608 320.216 98.2026 319.454 99.1728C318.679 100.095 317.786 100.769 316.776 101.193C315.766 101.616 314.581 101.576 313.221 101.072C310.971 100.296 309.326 98.8213 308.287 96.6483C307.235 94.4276 306.578 91.8712 306.317 88.979C306.042 86.0391 306.059 82.9448 306.366 79.6959C306.721 76.4344 307.186 73.2966 307.76 70.2827L306.616 70.5891L303.146 66.769Z" fill="#083D68"/>
</svg>
