<svg width="202" height="76" viewBox="0 0 202 76" fill="none" xmlns="http://www.w3.org/2000/svg">
<path d="M82.8304 50.2168C80.9115 49.664 78.9713 49.1951 77.0119 48.8304C75.6268 48.4964 74.2037 48.3466 72.7795 48.3847C70.6419 48.1518 68.4893 48.0873 66.3415 48.1917C66.3011 48.193 66.2622 48.2077 66.2311 48.2335C66.2 48.2594 66.1784 48.295 66.1698 48.3345C59.8988 48.8256 53.5169 50.6133 49.1715 55.4796C47.5198 57.331 45.8296 61.2181 48.8821 62.7086C50.6187 63.5538 51.7764 62.4906 52.5145 61C52.5942 60.9995 52.6707 60.9679 52.7275 60.9118C52.7842 60.8558 52.8169 60.7798 52.8184 60.7C52.829 60.5071 52.856 60.3285 52.8772 60.1443C53.1992 59.2395 53.4161 58.3008 53.5236 57.3465C53.53 57.303 53.5245 57.2586 53.5074 57.2181C53.4904 57.1777 53.4627 57.1426 53.4271 57.1168C53.9642 55.6273 54.8689 54.2976 56.0571 53.251C58.195 51.3794 61.0507 50.6326 63.7752 50.2052C70.0633 49.351 76.4492 49.5417 82.6751 50.7696C82.7448 50.7799 82.8158 50.7645 82.8749 50.7262C82.934 50.6879 82.9771 50.6294 82.9962 50.5616C83.0152 50.4938 83.0089 50.4213 82.9784 50.3579C82.9479 50.2944 82.8953 50.2443 82.8304 50.2168Z" fill="url(#paint0_linear)"/>
<path d="M48.1063 52.3502C44.4334 51.9382 40.7509 51.6498 37.0693 51.3314C37.0258 51.3283 36.9825 51.3384 36.9448 51.3604L34.7538 51.0902C34.7172 51.0848 34.6798 51.0887 34.6451 51.1015C34.6104 51.1143 34.5794 51.1357 34.5551 51.1636C33.0553 50.8689 31.5793 50.4635 30.1394 49.9508C28.5848 49.4681 27.1085 48.7626 25.7564 47.8563C24.4685 46.7586 23.4488 45.3808 22.7753 43.8284C22.7569 43.7878 22.7268 43.7536 22.6887 43.7304C22.6507 43.7072 22.6066 43.6959 22.5621 43.6981C22.2583 42.8952 22.0636 42.0551 21.9832 41.2004C21.9909 40.5572 21.9983 39.9114 22.0054 39.2631C22.46 37.796 23.2707 36.4642 24.3652 35.3866C25.9937 33.7591 28.5137 33.0104 30.5021 34.4383C30.5234 34.4539 30.5477 34.465 30.5734 34.4708C30.5992 34.4767 30.6259 34.4772 30.6518 34.4723C30.6778 34.4674 30.7025 34.4572 30.7244 34.4424C30.7462 34.4276 30.7648 34.4085 30.779 34.3862C31.305 34.9003 31.6204 35.5921 31.6637 36.3263C31.651 37.0737 31.4581 37.8071 31.1013 38.464C30.7446 39.1209 30.2345 39.682 29.6145 40.0996C29.464 40.2144 29.602 40.4729 29.766 40.3629L29.7824 40.3513C29.7842 40.3997 29.7988 40.4467 29.8248 40.4875C29.8507 40.5283 29.887 40.5615 29.93 40.5837C29.973 40.6059 30.0211 40.6163 30.0694 40.6137C30.1177 40.6112 30.1645 40.5959 30.205 40.5694C32.4008 39.073 34.8359 35.7456 32.3496 33.351C29.7033 29.4919 24.2456 30.3776 21.2403 33.5719C21.1824 33.5573 21.1214 33.5604 21.0652 33.5806C21.009 33.6009 20.9601 33.6375 20.9248 33.6858C19.9539 35.1231 19.2279 36.7114 18.7763 38.3861C18.7059 38.3942 18.6405 38.4266 18.5914 38.4776C18.5423 38.5287 18.5125 38.5952 18.5071 38.6659C18.4338 39.4252 18.3595 40.1854 18.29 40.9457C18.283 40.9901 18.2888 41.0356 18.3067 41.0768C18.3247 41.118 18.354 41.1531 18.3914 41.1782C18.3105 42.9699 18.6179 44.7579 19.2924 46.4198C20.176 48.6015 21.7301 50.4458 23.7304 51.6865C23.7651 51.7074 23.8038 51.7207 23.844 51.7257C23.8843 51.7307 23.9251 51.7272 23.9639 51.7154C30.8022 56.4669 40.4238 52.5297 48.1043 52.7535C48.3658 52.7593 48.3523 52.3791 48.1063 52.3502Z" fill="url(#paint1_linear)"/>
<path d="M33.5313 54.016C33.5458 53.7497 33.2322 53.6832 33.0624 53.8231C30.336 56.0227 27.2284 56.7232 23.9309 57.5481C22.4686 57.8313 21.0823 58.4194 19.8624 59.274C18.8631 60.1568 18.1071 61.2813 17.6666 62.5398C17.646 62.5891 17.6394 62.6431 17.6476 62.6958C17.6557 62.7486 17.6784 62.7981 17.7129 62.8389C17.6149 63.1761 17.5585 63.5241 17.5451 63.875C17.4746 63.9715 17.4052 64.068 17.3424 64.1645C17.3038 64.2327 17.2908 64.3125 17.306 64.3894C17.3211 64.4664 17.3632 64.5353 17.4248 64.5839C17.4864 64.6324 17.5633 64.6572 17.6417 64.6539C17.72 64.6506 17.7946 64.6193 17.8518 64.5658C18.0892 64.3217 18.3342 64.095 18.5889 63.8798C18.6632 63.8776 18.7342 63.8492 18.7896 63.7998C18.9871 63.6209 19.1855 63.4428 19.3849 63.2653C19.4207 63.2331 19.4477 63.1922 19.4632 63.1466C19.4788 63.101 19.4823 63.0522 19.4736 63.0048C20.1807 62.5962 20.9503 62.3067 21.7515 62.1481C21.7812 62.155 21.8117 62.1579 21.8421 62.1567C22.5001 62.0873 23.1591 62.0159 23.8161 61.9455C23.8671 61.9408 23.9164 61.9247 23.9603 61.8983C24.0043 61.8719 24.0417 61.8359 24.0698 61.7931C24.8657 61.7304 25.6665 61.7178 26.475 61.6773C27.6919 61.6368 28.8719 61.2491 29.8758 60.5601C30.8262 60.0264 31.6536 59.2987 32.3041 58.4241C32.8765 57.2701 33.2732 56.037 33.4811 54.7657C33.4893 54.7346 33.4906 54.7022 33.4852 54.6705C33.4797 54.6389 33.4674 54.6089 33.4493 54.5824C33.4913 54.396 33.5187 54.2066 33.5313 54.016Z" fill="url(#paint2_linear)"/>
<path d="M88.2283 50.6268C85.0696 48.7937 81.5511 47.8289 78.3316 46.1377C75.0601 44.4223 70.7553 41.6217 69.0052 38.2093C67.1037 34.4988 67.6883 27.5621 72.8431 27.127C75.3515 26.9157 77.8599 28.2528 78.0769 31.0304C78.1534 31.7557 78.0532 32.4888 77.7848 33.1671C77.5165 33.8453 77.088 34.4486 76.536 34.9253C75.9839 35.402 75.3247 35.738 74.6146 35.9046C73.9045 36.0713 73.1646 36.0636 72.4581 35.8823C72.296 35.8495 72.1687 36.0887 72.3385 36.1717C76.4561 38.1369 80.0673 33.1645 78.5526 29.2909C76.9704 25.2389 70.8585 25.4608 68.655 28.6822C65.6642 33.0468 67.2223 38.8334 70.901 42.1474C73.1621 44.2362 75.6954 46.0095 78.432 47.4189C81.471 48.9211 84.7261 49.8897 87.6696 51.6012C87.7336 51.6379 87.8042 51.6616 87.8774 51.671C87.9505 51.6804 88.0248 51.6753 88.096 51.656C88.1671 51.6367 88.2338 51.6036 88.2922 51.5585C88.3506 51.5135 88.3995 51.4573 88.4362 51.3933C88.4729 51.3293 88.4966 51.2588 88.506 51.1856C88.5154 51.1125 88.5103 51.0382 88.491 50.967C88.4717 50.8959 88.4385 50.8291 88.3935 50.7708C88.3484 50.7124 88.2922 50.6635 88.2283 50.6268Z" fill="url(#paint3_linear)"/>
<path d="M126.329 54.9532C120.425 56.3502 114.868 57.5948 108.77 56.6686C103.265 55.8322 98.0688 53.6248 92.7867 51.9413C82.919 48.7952 71.6215 47.3991 61.3757 49.3103C60.7553 49.4261 60.8933 50.468 61.5243 50.4323C67.8647 50.0464 73.9698 49.6866 80.289 50.6359C85.8948 51.5646 91.4047 53.0003 96.7509 54.9253C106.206 58.1601 117.239 60.6531 126.571 55.5311C126.635 55.4912 126.683 55.4299 126.705 55.3581C126.728 55.2863 126.725 55.2087 126.696 55.1393C126.667 55.0698 126.614 55.0129 126.546 54.9788C126.479 54.9447 126.402 54.9357 126.329 54.9532Z" fill="url(#paint4_linear)"/>
<path d="M117.846 50.7716C124.072 49.5437 130.459 49.353 136.747 50.2071C139.471 50.6345 142.327 51.3803 144.465 53.2529C145.653 54.2998 146.558 55.6294 147.096 57.1188C147.06 57.1443 147.032 57.1794 147.015 57.2199C146.998 57.2605 146.993 57.305 146.999 57.3484C147.107 58.3027 147.323 59.2415 147.645 60.1462C147.668 60.3305 147.694 60.5128 147.704 60.7019C147.706 60.7815 147.738 60.8573 147.795 60.9132C147.852 60.9692 147.928 61.001 148.008 61.002C148.743 62.4925 149.907 63.5557 151.64 62.7106C154.697 61.22 153.008 57.333 151.351 55.4816C147.009 50.6153 140.626 48.8247 134.352 48.3365C134.344 48.2969 134.322 48.2612 134.291 48.2353C134.26 48.2094 134.221 48.1948 134.181 48.1937C132.033 48.0893 129.88 48.1538 127.743 48.3867C126.318 48.3486 124.895 48.4985 123.51 48.8324C121.549 49.197 119.61 49.6659 117.692 50.2187C117.627 50.2463 117.575 50.2963 117.544 50.3597C117.514 50.423 117.507 50.4952 117.526 50.5629C117.545 50.6305 117.588 50.689 117.647 50.7274C117.706 50.7658 117.776 50.7815 117.846 50.7716Z" fill="url(#paint5_linear)"/>
<path d="M152.424 52.752C160.105 52.5272 169.727 56.4654 176.564 51.7139C176.603 51.7258 176.644 51.7294 176.684 51.7244C176.725 51.7195 176.764 51.706 176.799 51.6849C178.799 50.4446 180.353 48.6001 181.236 46.4183C181.912 44.7568 182.22 42.9685 182.138 41.1767C182.175 41.1515 182.204 41.1163 182.222 41.0752C182.24 41.034 182.246 40.9886 182.24 40.9442C182.169 40.1839 182.097 39.424 182.023 38.6644C182.017 38.5938 181.987 38.5274 181.938 38.4763C181.889 38.4253 181.824 38.3929 181.754 38.3847C181.302 36.7097 180.576 35.1213 179.604 33.6843C179.569 33.636 179.52 33.5994 179.464 33.5791C179.408 33.5588 179.347 33.5558 179.29 33.5705C176.282 30.3761 170.826 29.4904 168.179 33.3495C165.693 35.7441 168.128 39.0716 170.324 40.5679C170.364 40.5945 170.411 40.6098 170.459 40.6123C170.508 40.6148 170.556 40.6044 170.599 40.5822C170.642 40.5601 170.678 40.5269 170.704 40.486C170.73 40.4452 170.745 40.3982 170.747 40.3499L170.763 40.3614C170.927 40.4714 171.066 40.2129 170.914 40.0981C170.294 39.6807 169.784 39.1196 169.428 38.4626C169.071 37.8057 168.878 37.0723 168.866 36.3249C168.908 35.5907 169.223 34.8988 169.749 34.3847C169.763 34.4073 169.782 34.4267 169.804 34.4417C169.826 34.4567 169.851 34.4669 169.877 34.4718C169.903 34.4767 169.93 34.4761 169.956 34.4701C169.982 34.4641 170.006 34.4527 170.028 34.4368C172.018 33.0089 174.535 33.7615 176.165 35.3852C177.258 36.4634 178.069 37.795 178.524 39.2616C178.53 39.9048 178.536 40.5506 178.545 41.1989C178.464 42.0536 178.27 42.8937 177.966 43.6967C177.921 43.6944 177.877 43.7056 177.839 43.7288C177.801 43.752 177.77 43.7862 177.752 43.8269C177.079 45.3797 176.059 46.7576 174.771 47.8548C173.419 48.7613 171.942 49.4669 170.388 49.9494C168.948 50.4624 167.472 50.8677 165.972 51.162C165.948 51.1349 165.918 51.1141 165.885 51.1013C165.851 51.0885 165.815 51.0841 165.779 51.0887L163.587 51.3589C163.549 51.3369 163.506 51.3267 163.462 51.3299C159.78 51.6483 156.098 51.9377 152.426 52.3487C152.175 52.3787 152.162 52.7587 152.424 52.752Z" fill="url(#paint6_linear)"/>
<path d="M167.078 54.5814C167.059 54.6079 167.047 54.638 167.042 54.6696C167.036 54.7013 167.038 54.7338 167.047 54.7647C167.254 56.0362 167.651 57.2693 168.224 58.4231C168.873 59.298 169.701 60.0259 170.651 60.5592C171.655 61.2483 172.835 61.6359 174.052 61.6764C174.861 61.7169 175.661 61.7294 176.457 61.7921C176.485 61.8349 176.523 61.8708 176.567 61.8972C176.61 61.9236 176.66 61.9398 176.711 61.9446C177.369 62.015 178.027 62.0874 178.685 62.1559C178.715 62.1572 178.746 62.1543 178.775 62.1472C179.577 62.3058 180.346 62.5953 181.053 63.0039C181.045 63.0514 181.048 63.1002 181.064 63.1458C181.08 63.1914 181.107 63.2323 181.143 63.2644L181.738 63.7989C181.793 63.8481 181.863 63.8765 181.937 63.8789C182.191 64.0941 182.438 64.3208 182.674 64.5649C182.731 64.6184 182.806 64.6497 182.884 64.653C182.963 64.6563 183.039 64.6314 183.101 64.5829C183.163 64.5344 183.205 64.4654 183.22 64.3885C183.235 64.3115 183.222 64.2318 183.183 64.1635C183.121 64.0613 183.051 63.9706 182.982 63.8741C182.968 63.5231 182.911 63.1751 182.812 62.838C182.847 62.7973 182.869 62.7477 182.877 62.695C182.885 62.6422 182.879 62.5881 182.858 62.5388C182.418 61.2801 181.662 60.1556 180.662 59.2731C179.443 58.4185 178.056 57.8305 176.594 57.5472C173.297 56.7233 170.189 56.0228 167.463 53.8222C167.294 53.6861 166.981 53.7527 166.995 54.0151C167.008 54.2058 167.035 54.3951 167.078 54.5814Z" fill="url(#paint7_linear)"/>
<path d="M112.3 50.6268C115.457 48.7937 118.977 47.8289 122.197 46.1377C125.468 44.4223 129.773 41.6217 131.522 38.2093C133.424 34.4988 132.839 27.5621 127.685 27.127C125.176 26.9157 122.668 28.2528 122.452 31.0304C122.375 31.7558 122.475 32.489 122.743 33.1674C123.012 33.8457 123.44 34.449 123.992 34.9258C124.544 35.4025 125.204 35.7385 125.914 35.9051C126.624 36.0717 127.364 36.0638 128.07 35.8823C128.231 35.8495 128.36 36.0887 128.19 36.1717C124.072 38.1369 120.46 33.1645 121.974 29.2909C123.556 25.2389 129.669 25.4608 131.873 28.6822C134.858 33.0468 133.305 38.8334 129.626 42.1474C127.365 44.2363 124.831 46.0095 122.095 47.4189C119.056 48.9211 115.802 49.8897 112.857 51.6012C112.793 51.6378 112.722 51.6614 112.649 51.6706C112.576 51.6799 112.502 51.6747 112.431 51.6553C112.36 51.6359 112.293 51.6027 112.235 51.5576C112.177 51.5125 112.128 51.4563 112.091 51.3924C112.055 51.3284 112.031 51.2578 112.022 51.1847C112.013 51.1116 112.018 51.0374 112.037 50.9663C112.057 50.8952 112.09 50.8287 112.135 50.7704C112.18 50.7122 112.236 50.6633 112.3 50.6268Z" fill="url(#paint8_linear)"/>
<path d="M74.2002 54.9532C80.1026 56.3502 85.6597 57.5948 91.759 56.6686C97.2582 55.8322 102.46 53.6248 107.741 51.9413C117.611 48.7952 128.907 47.3991 139.152 49.3103C139.774 49.4261 139.635 50.468 139.004 50.4323C132.663 50.0464 126.558 49.6866 120.239 50.6359C114.633 51.5648 109.123 53.0004 103.777 54.9253C94.3224 58.1601 83.2903 60.6531 73.9571 55.5311C73.8943 55.4905 73.8477 55.4291 73.8257 55.3577C73.8036 55.2862 73.8074 55.2093 73.8365 55.1403C73.8655 55.0714 73.9178 55.0149 73.9843 54.9807C74.0508 54.9465 74.1272 54.9367 74.2002 54.9532Z" fill="url(#paint9_linear)"/>
<path d="M181.417 59.6504C180.167 58.3684 178.615 57.4209 176.903 56.895C175.236 56.3075 173.516 56.0104 171.929 55.5106C171.165 55.2835 170.43 54.9664 169.74 54.5661C169.644 54.5043 169.547 54.4291 169.451 54.3587C171.874 54.2684 174.243 53.6119 176.367 52.4417C177.776 51.6228 179.008 50.533 179.994 49.2353C180.979 47.9376 181.697 46.4576 182.108 44.8808C182.939 41.7259 182.515 38.3716 180.926 35.5225C180.162 34.1192 179.07 32.9218 177.742 32.0329C176.41 31.1616 174.854 30.6948 173.263 30.689C171.651 30.675 170.087 31.2349 168.851 32.2683C168.204 32.787 167.688 33.4508 167.345 34.2059C167.003 34.961 166.842 35.7861 166.878 36.6146C166.925 37.4706 167.222 38.294 167.732 38.9831C168.25 39.6525 168.931 40.1782 169.71 40.5104C170.323 40.7677 170.975 40.9225 171.639 40.9686C172.592 41.2034 173.594 41.136 174.506 40.7757H174.518C174.544 40.7651 174.571 40.7622 174.596 40.7525L174.294 39.7762C173.749 39.907 173.195 39.9934 172.636 40.0347C171.85 40.0097 171.097 39.7175 170.501 39.2063C169.904 38.695 169.5 37.9955 169.355 37.2234C169.259 36.7406 169.318 36.2396 169.524 35.7924C169.73 35.3452 170.072 34.9748 170.502 34.7343C171.461 34.2868 172.556 34.2257 173.56 34.5635C174.609 34.9015 175.546 35.5209 176.268 36.3545C176.989 37.1881 177.468 38.2038 177.652 39.2909C177.822 40.4132 177.751 41.5588 177.445 42.6517C177.139 43.7447 176.604 44.7603 175.876 45.6314C174.37 47.4078 172.407 48.7384 170.199 49.4788C167.939 50.2243 165.596 50.6902 163.222 50.8662C159.504 51.1846 155.738 51.7248 152.061 52.2603C151.739 52.2757 151.417 52.2719 151.096 52.3037C150.71 52.3336 150.324 52.3847 149.938 52.4484C149.71 52.4742 149.483 52.521 149.263 52.5883C147.765 51.3958 146.109 50.416 144.343 49.6766C141.219 48.3673 137.862 47.709 134.475 47.7423C131.146 47.7757 127.824 48.0595 124.538 48.5913C123.111 48.7842 121.676 48.9772 120.256 49.2878C118.899 49.5396 117.602 50.0482 116.436 50.7862C114.105 51.1601 111.808 51.7254 109.57 52.4764C107.655 53.1517 105.788 53.9477 103.877 54.5989C102.731 54.9848 101.569 55.3032 100.404 55.5984C99.234 55.3032 98.0724 54.9809 96.9263 54.5989C95.0151 53.9506 93.1482 53.1517 91.2341 52.4764C88.9957 51.7254 86.6991 51.1601 84.3679 50.7862C83.205 50.0488 81.9123 49.5396 80.5589 49.2859C79.1398 48.9723 77.7061 48.7871 76.2773 48.5893C72.9909 48.0575 69.6691 47.7737 66.3402 47.7403C62.9536 47.7071 59.5959 48.3653 56.4725 49.6747C54.7058 50.4135 53.05 51.3934 51.5522 52.5864C51.3318 52.5192 51.1057 52.4723 50.8768 52.4465C50.4909 52.3828 50.1108 52.3317 49.7239 52.3018C49.4026 52.2709 49.0814 52.2748 48.7591 52.2584C45.0824 51.7229 41.314 51.1836 37.5977 50.8643C35.2238 50.6884 32.8803 50.2225 30.6196 49.477C28.4117 48.7365 26.4485 47.4059 24.9428 45.6294C24.215 44.7584 23.6804 43.7428 23.3744 42.6498C23.0684 41.5568 22.9979 40.4112 23.1677 39.2889C23.3513 38.2018 23.83 37.186 24.5515 36.3523C25.2731 35.5187 26.2097 34.8993 27.2593 34.5616C28.2628 34.2237 29.3579 34.2849 30.3176 34.7324C30.7472 34.9728 31.0896 35.3433 31.2955 35.7905C31.5014 36.2377 31.5603 36.7387 31.4637 37.2215C31.3189 37.9936 30.9148 38.6931 30.3183 39.2043C29.7218 39.7155 28.9687 40.0078 28.1835 40.0328C27.6243 39.9914 27.0694 39.905 26.5241 39.7743L26.2076 40.7525C26.2337 40.7631 26.2607 40.766 26.2858 40.7757H26.2974C27.21 41.136 28.212 41.2034 29.1647 40.9686C29.8286 40.9223 30.4804 40.7675 31.0942 40.5104C31.8729 40.1782 32.5537 39.6525 33.072 38.9831C33.5818 38.294 33.8786 37.4706 33.9258 36.6146C33.9613 35.7861 33.8011 34.961 33.4584 34.2059C33.1156 33.4508 32.5998 32.787 31.9529 32.2683C30.7162 31.235 29.1524 30.6752 27.541 30.689C25.9493 30.6948 24.3935 31.1616 23.0615 32.0329C21.7344 32.9223 20.6421 34.1195 19.8778 35.5225C18.2892 38.372 17.866 41.726 18.6969 44.8808C19.1072 46.4576 19.8257 47.9376 20.811 49.2353C21.7962 50.533 23.0287 51.6228 24.4373 52.4417C26.5615 53.6119 28.9302 54.2684 31.3537 54.3587C31.2573 54.4291 31.1608 54.5053 31.0643 54.5661C30.3745 54.9662 29.6397 55.2833 28.8753 55.5106C27.2872 56.0113 25.569 56.3075 23.9009 56.895C22.1899 57.4214 20.6384 58.3688 19.3887 59.6504C18.7722 60.3179 18.2819 61.0916 17.9415 61.9341C17.579 62.8288 17.5051 63.8144 17.7302 64.7531L17.9975 65.8143L18.584 64.811C19.4523 63.3272 21.1889 62.6268 22.9323 62.1482C24.7316 61.6765 26.7007 61.4951 28.5173 60.8728C29.2458 60.6147 29.9393 60.2669 30.5819 59.8376C31.2516 59.4153 31.863 58.9071 32.4005 58.3258C33.4533 57.2528 34.1146 55.8569 34.278 54.3625C37.1549 54.1448 40.0171 53.7641 42.8509 53.2222C44.3666 52.9858 45.8812 52.7842 47.4056 52.6732C48.0886 52.6289 48.773 52.6137 49.4586 52.6279C50.0683 52.6588 50.68 52.6868 51.2975 52.7031C51.3293 52.7031 51.3679 52.7031 51.3997 52.7031C50.2762 53.5889 49.2518 54.5936 48.3443 55.6997C47.759 56.3609 47.3398 57.1523 47.1217 58.0081C46.9035 58.8638 46.8927 59.7593 47.0901 60.62C47.2163 61.0501 47.4281 61.4502 47.7128 61.7963C47.9974 62.1425 48.3491 62.4276 48.7466 62.6345C49.1513 62.8438 49.6044 62.9415 50.0593 62.9176C50.5143 62.8937 50.9546 62.749 51.3351 62.4984C52.0779 61.9948 52.6565 61.2844 52.9993 60.4551C53.3141 59.649 53.5518 58.8149 53.7094 57.964C53.8582 57.1704 54.1061 56.3986 54.4474 55.6669C54.8082 54.9733 55.2856 54.347 55.8589 53.8155C58.1917 51.6602 61.5646 51.0939 64.7618 50.6511C70.6286 49.9217 76.5629 50.5034 82.4933 51.2647C85.3249 51.9516 88.1083 52.7514 90.9283 53.5135C92.8819 54.0017 94.8597 54.4368 96.8008 54.9954C97.6855 55.253 98.5625 55.5309 99.4395 55.8145C98.9726 55.9216 98.5075 56.046 98.0377 56.1416C94.148 57.0004 90.1765 57.4335 86.1932 57.4334C82.209 57.4621 78.2645 56.6398 74.6237 55.0214L74.56 55.1353C77.9734 57.494 82.0144 58.7778 86.1633 58.8217C90.2638 58.8447 94.3384 58.1711 98.2133 56.8295C98.9445 56.594 99.673 56.3548 100.401 56.1184C101.129 56.3548 101.857 56.594 102.588 56.8295C106.463 58.1711 110.538 58.8447 114.638 58.8217C118.787 58.7777 122.828 57.4939 126.242 55.1353L126.177 55.0214C122.536 56.6395 118.592 57.4618 114.608 57.4334C110.624 57.4335 106.653 57.0004 102.763 56.1416C102.293 56.0451 101.829 55.9226 101.361 55.8145C102.238 55.5309 103.115 55.253 104 54.9954C105.942 54.4378 107.92 54.0027 109.872 53.5135C112.693 52.7523 115.476 51.9525 118.307 51.2647C124.238 50.5034 130.173 49.9217 136.038 50.6511C139.236 51.0939 142.609 51.6592 144.942 53.8155C145.515 54.3474 145.992 54.9736 146.353 55.6669C146.695 56.3985 146.943 57.1703 147.09 57.964C147.248 58.815 147.486 59.649 147.801 60.4551C148.144 61.2846 148.723 61.9952 149.466 62.4984C149.846 62.749 150.287 62.8937 150.742 62.9176C151.196 62.9415 151.65 62.8438 152.054 62.6345C152.452 62.4278 152.803 62.1427 153.088 61.7965C153.372 61.4503 153.584 61.0501 153.71 60.62C153.907 59.7593 153.897 58.8638 153.679 58.008C153.461 57.1522 153.041 56.3608 152.456 55.6997C151.548 54.5939 150.523 53.5893 149.4 52.7031C149.432 52.7031 149.471 52.7031 149.502 52.7031C150.12 52.6858 150.732 52.6588 151.341 52.6279C152.027 52.615 152.711 52.6301 153.394 52.6732C154.918 52.7842 156.433 52.9858 157.949 53.2222C160.783 53.7642 163.645 54.145 166.522 54.3625C166.685 55.8569 167.347 57.2528 168.399 58.3258C168.937 58.9071 169.548 59.4153 170.218 59.8376C170.861 60.2669 171.554 60.6147 172.283 60.8728C174.098 61.4951 176.068 61.6765 177.868 62.1482C179.616 62.6306 181.349 63.3262 182.216 64.811L182.802 65.8143L183.07 64.7531C183.295 63.8144 183.221 62.8288 182.858 61.9341C182.519 61.0923 182.031 60.3187 181.417 59.6504ZM31.8255 57.8714C31.4301 58.5068 30.9493 59.085 30.3967 59.5897C29.8305 60.0914 29.1763 60.4839 28.4671 60.7474C27.5643 61.0426 26.6191 61.1873 25.6693 61.1757C24.718 61.1912 23.761 61.1613 22.775 61.2317C21.7571 61.3005 20.7658 61.5871 19.8681 62.072C19.2757 62.3974 18.7571 62.8418 18.3448 63.3773C18.3202 62.7412 18.4249 62.1067 18.6526 61.5122C18.8803 60.9177 19.2262 60.3756 19.6694 59.9187C20.8831 58.7335 22.4451 57.9693 24.1257 57.7383C25.7812 57.3948 27.4898 57.2076 29.2197 56.7503C30.1286 56.5439 31.001 56.2011 31.8072 55.7335C32.2037 55.472 32.579 55.1797 32.9157 54.9414C32.7447 55.9792 32.3745 56.9742 31.8255 57.8714ZM42.7525 52.4996C39.9093 52.8209 37.098 53.2472 34.2934 53.3331V52.9926L33.5399 53.1633C33.3489 53.2126 33.1621 53.2772 32.9813 53.3563C30.2003 53.4008 27.4534 52.7399 24.9969 51.4354C22.3628 49.9184 20.4099 47.4499 19.5396 44.5374C18.6693 41.6249 18.9478 38.4897 20.3177 35.7762C21.0238 34.4274 22.0452 33.269 23.295 32.3995C24.5415 31.5404 26.0264 31.0943 27.54 31.1241C29.0448 31.1282 30.4986 31.6699 31.6393 32.6514C32.2013 33.1301 32.6426 33.7344 32.9276 34.4154C33.2125 35.0964 33.3331 35.835 33.2794 36.5712C33.2396 37.0421 33.1059 37.5002 32.8862 37.9186C32.6665 38.337 32.3652 38.7071 32.0001 39.0072C32.3165 38.5203 32.5305 37.9741 32.6292 37.4019C32.746 36.6771 32.6602 35.9343 32.3812 35.2553C32.0831 34.5648 31.5647 33.9925 30.907 33.6277C29.6668 32.9975 28.2294 32.8767 26.9013 33.291C25.5969 33.6563 24.4284 34.3967 23.541 35.4203C22.6653 36.4555 22.0783 37.7035 21.8392 39.0381C21.6398 40.3536 21.7227 41.6964 22.0826 42.9773C22.4424 44.2581 23.0708 45.4477 23.926 46.4668C25.5871 48.4246 27.7811 49.8577 30.2414 50.5922C32.6035 51.3044 35.0458 51.7171 37.5109 51.8203C39.9498 51.9004 42.3454 52.1098 44.7573 52.3133C44.0858 52.3596 43.4182 52.4205 42.7544 52.4996H42.7525ZM64.5862 49.3274C62.9077 49.5604 61.2509 49.9292 59.6321 50.4301C57.9459 50.9342 56.407 51.8393 55.1469 53.0678C54.509 53.7026 53.9953 54.4509 53.6322 55.2742C53.3078 56.0916 53.088 56.9468 52.9781 57.8193C52.8785 58.6345 52.6989 59.4378 52.4417 60.2177C52.1849 60.9648 51.7096 61.6175 51.0775 62.0913C50.7663 62.3076 50.4026 62.4362 50.0245 62.4635C49.6465 62.4908 49.2681 62.4159 48.929 62.2466C48.5759 62.0764 48.263 61.833 48.0112 61.5326C47.7593 61.2322 47.5743 60.8817 47.4683 60.5043C47.3065 59.714 47.3412 58.896 47.5693 58.1223C47.7974 57.3485 48.2119 56.6425 48.7765 56.0663C51.0479 53.7048 53.8161 51.8782 56.8806 50.7186C63.0551 48.379 69.7327 47.689 76.2551 48.7167C77.6829 48.9035 79.0972 49.1816 80.4895 49.5493C81.3083 49.7853 82.1005 50.1057 82.8532 50.5054C76.8908 48.9817 70.6968 48.5822 64.5881 49.3274H64.5862ZM152.019 56.0644C152.584 56.6407 152.998 57.3468 153.226 58.1206C153.453 58.8943 153.488 59.7122 153.326 60.5023C153.22 60.8798 153.035 61.2304 152.784 61.5309C152.532 61.8313 152.219 62.0746 151.866 62.2447C151.527 62.414 151.148 62.4889 150.77 62.4616C150.392 62.4342 150.028 62.3057 149.717 62.0894C149.085 61.6151 148.61 60.9625 148.352 60.2158C148.096 59.4357 147.917 58.6324 147.817 57.8174C147.707 56.9448 147.487 56.0897 147.163 55.2723C146.799 54.4492 146.286 53.701 145.648 53.0659C144.388 51.8375 142.849 50.9325 141.163 50.4282C139.544 49.9272 137.887 49.5584 136.209 49.3255C130.101 48.58 123.907 48.9792 117.945 50.5025C118.697 50.103 119.489 49.7826 120.307 49.5464C121.7 49.1787 123.115 48.9007 124.543 48.7138C131.065 47.6862 137.743 48.3761 143.917 50.7157C146.982 51.8756 149.75 53.7026 152.021 56.0644H152.019ZM156.044 52.3066C158.456 52.105 160.852 51.8937 163.291 51.8136C165.756 51.7104 168.198 51.2977 170.56 50.5855C173.021 49.851 175.215 48.4179 176.876 46.4601C177.731 45.4409 178.359 44.2514 178.719 42.9705C179.079 41.6896 179.162 40.3468 178.963 39.0314C178.723 37.6967 178.136 36.4487 177.261 35.4135C176.373 34.3899 175.205 33.6495 173.9 33.2842C172.572 32.8698 171.135 32.9906 169.895 33.6209C169.237 33.9859 168.718 34.5581 168.419 35.2485C168.141 35.9278 168.056 36.6706 168.173 37.3951C168.271 37.9674 168.485 38.5136 168.802 39.0005C168.436 38.7008 168.135 38.3307 167.915 37.9123C167.695 37.4938 167.562 37.0355 167.522 36.5645C167.469 35.8283 167.589 35.0899 167.874 34.4091C168.159 33.7282 168.601 33.1241 169.162 32.6455C170.304 31.6643 171.758 31.1227 173.263 31.1183C174.776 31.0885 176.261 31.5346 177.508 32.3938C178.758 33.2632 179.779 34.4216 180.485 35.7704C181.855 38.4841 182.133 41.6196 181.263 44.5322C180.392 47.4447 178.439 49.9131 175.804 51.4296C173.348 52.7342 170.602 53.395 167.821 53.3505C167.641 53.2715 167.454 53.207 167.263 53.1575L166.508 52.9868V53.3273C163.706 53.2415 160.893 52.815 158.049 52.4938C157.38 52.4204 156.714 52.3597 156.046 52.3076L156.044 52.3066ZM180.921 62.0739C180.024 61.589 179.033 61.3025 178.015 61.2336C177.031 61.1632 176.073 61.1931 175.121 61.1777C174.171 61.1892 173.226 61.0445 172.323 60.7493C171.614 60.4859 170.96 60.0933 170.394 59.5916C169.052 58.3739 168.167 56.7342 167.885 54.9443C168.224 55.1816 168.597 55.4749 168.994 55.7364C169.8 56.2042 170.672 56.5471 171.581 56.7533C173.311 57.2106 175.02 57.3977 176.674 57.7412C178.355 57.9719 179.917 58.7362 181.131 59.9216C181.572 60.3796 181.916 60.9222 182.141 61.5166C182.366 62.1111 182.469 62.745 182.443 63.3802C182.031 62.844 181.513 62.3991 180.921 62.0739Z" fill="black"/>
<path d="M125.78 44.5855C121.921 46.708 117.65 48.2699 113.848 50.7725L113.907 50.8874C118.055 49.1865 122.379 47.9332 126.317 45.5261C128.251 44.2689 129.961 42.6983 131.378 40.8788C132.874 39.0829 133.857 36.9163 134.225 34.6078C134.436 33.4005 134.345 32.1596 133.959 30.9962C133.573 29.8328 132.905 28.7832 132.014 27.9413C131.072 27.1111 129.908 26.5745 128.665 26.3976C127.394 26.2395 126.108 26.5167 125.016 27.1839C123.903 27.8547 123.066 28.9015 122.657 30.1352C122.279 31.3663 122.342 32.691 122.836 33.8804C123.069 34.441 123.416 34.9468 123.855 35.3654C124.295 35.784 124.817 36.1061 125.388 36.3111C125.959 36.5161 126.567 36.5995 127.172 36.5559C127.777 36.5123 128.367 36.3426 128.903 36.0579L128.848 35.9402C127.851 36.2903 126.756 36.2302 125.804 35.773C124.851 35.3158 124.12 34.4989 123.769 33.5022C123.439 32.557 123.453 31.5258 123.808 30.5896C124.163 29.6535 124.836 28.8722 125.709 28.3831C126.571 27.8852 127.565 27.6661 128.556 27.7561C129.547 27.8461 130.486 28.2407 131.243 28.8858C132.03 29.5929 132.645 30.4707 133.04 31.452C133.436 32.4333 133.601 33.4919 133.524 34.547C133.401 36.7861 132.532 38.9197 131.056 40.6077C129.562 42.2522 127.772 43.6015 125.78 44.5855Z" fill="black"/>
<path d="M69.4214 40.8798C70.8383 42.6992 72.5484 44.2698 74.4816 45.527C78.4188 47.9389 82.742 49.1874 86.8924 50.8882L86.9513 50.7735C83.1482 48.2699 78.8752 46.7089 75.018 44.5864C73.0255 43.6028 71.2354 42.2538 69.7407 40.6096C68.2654 38.9211 67.397 36.7878 67.2738 34.5489C67.1969 33.4938 67.3625 32.4351 67.7578 31.4538C68.1531 30.4726 68.7677 29.5948 69.5545 28.8877C70.3119 28.2426 71.2505 27.8479 72.2412 27.7579C73.232 27.6678 74.2263 27.887 75.0875 28.385C75.9609 28.8743 76.6343 29.6554 76.9894 30.5914C77.3445 31.5274 77.3587 32.5586 77.0296 33.5041C76.6794 34.5008 75.9476 35.3176 74.9952 35.7749C74.0428 36.2321 72.9478 36.2922 71.951 35.942L71.896 36.0597C72.4319 36.3445 73.0215 36.5142 73.6268 36.5578C74.2321 36.6014 74.8398 36.518 75.411 36.313C75.9822 36.108 76.5042 35.7858 76.9436 35.3673C77.383 34.9487 77.73 34.4429 77.9625 33.8823C78.4565 32.6928 78.5196 31.3681 78.141 30.137C77.7329 28.9032 76.8964 27.8562 75.7831 27.1858C74.6907 26.5187 73.4045 26.2415 72.1343 26.3995C70.891 26.5767 69.7264 27.1133 68.7837 27.9432C67.8934 28.7855 67.2256 29.8351 66.8399 30.9984C66.4543 32.1617 66.3627 33.4024 66.5734 34.6097C66.9411 36.9179 67.925 39.0842 69.4214 40.8798Z" fill="black"/>
<path d="M91.7976 42.493C91.0674 42.1686 90.8358 40.9422 89.9704 40.9366C90.9231 43.8719 92.7297 46.5333 94.3094 49.2863C94.3484 49.4331 94.3874 49.5798 94.4665 49.7001C95.0235 50.0233 97.6291 52.6766 98.922 52.4587C98.2617 51.6289 96.0826 48.9252 96.0206 48.2191C95.805 46.58 96.6072 44.0423 96.5074 43.0164C96.3033 41.6571 93.1662 42.9147 91.7976 42.493Z" fill="#753D36"/>
<path d="M107.593 45.899C107.355 45.538 107.118 45.177 107.001 44.7368C106.962 44.5901 106.909 44.5099 106.87 44.3632C105.423 45.8316 105.846 46.3003 107.593 45.899Z" fill="#D45746"/>
<path d="M106.938 44.3767C106.977 44.5234 107.029 44.6036 107.068 44.7504C107.159 45.1504 107.356 45.5378 107.66 45.9126C108.42 45.7578 109.394 45.4047 110.609 44.8934C111.023 44.7363 111.423 44.6457 111.809 44.6216C111.945 44.1299 112.11 43.3321 112.395 42.6284C112.894 41.5532 113.46 40.4918 113.827 39.3891C110.244 41.629 108.037 43.2522 106.938 44.3767Z" fill="#B45244"/>
<path d="M85.0961 30.9859C85.2784 31.6129 85.8951 32.9883 85.9181 33.5476C85.9262 34.3465 86.0041 34.64 85.8529 35.3713C85.7429 35.9031 85.8644 35.6509 85.877 35.7575C86.3813 36.0005 86.6599 36.1621 87.045 36.3111C88.3597 36.8256 89.4293 38.1907 90.7852 38.5058C91.6094 38.7109 92.5092 39.5556 93.3207 39.6541C93.1498 37.2964 89.5873 36.4209 88.3745 34.5756C87.5308 33.2919 86.0475 32.0839 85.0961 30.9859Z" fill="#B45244"/>
<path d="M113.143 21.7427C113.182 21.8895 113.195 21.9961 113.143 21.7427V21.7427Z" fill="#D76557"/>
<path d="M112.943 21.875C111.895 23.2528 111.061 24.6054 110.279 26.0382C111.605 24.822 112.759 23.4315 113.143 21.7431C113.117 21.703 113.117 21.703 113.131 21.6365C113.104 21.5964 113.144 21.5701 113.118 21.5299C112.637 21.8463 113.077 21.7294 112.943 21.875Z" fill="#D76557"/>
<path d="M113.105 21.5972C113.119 21.528 113.105 21.5972 113.105 21.5972V21.5972Z" fill="#D76557"/>
<path d="M113.144 21.7436C113.117 21.7035 113.131 21.637 113.105 21.5969C113.105 21.5969 113.131 21.637 113.091 21.6634C113.117 21.7035 113.144 21.7436 113.144 21.7436Z" fill="#D76557"/>
<path d="M108.054 30.4306C105.882 34.7302 105.448 40.0131 106.923 44.4431C115.584 33.236 108.276 37.0626 111.199 29.9719C111.441 29.6407 114.331 27.3962 113.17 21.7833C112.786 23.4717 111.592 24.8885 110.306 26.0783C109.112 27.3221 108.796 28.8511 108.054 30.4306Z" fill="#D76557"/>
<path d="M97.9815 13.0964C91.2258 13.9176 86.2185 20.1957 87.0649 27.1645C87.191 28.2305 87.3848 29.1371 87.9225 30.3922C88.201 30.5538 88.5197 30.689 88.8383 30.8242C89.0103 30.9984 89.031 31.9039 89.6144 32.2673C89.0573 31.9441 89.0366 31.0386 88.8383 30.8242C88.5197 30.689 88.201 30.5538 87.9225 30.3922C88.7754 32.3017 90.4617 35.0422 94.0474 40.4978C95.2463 40.3992 96.5117 40.3143 97.682 40.5216C96.4853 40.2741 95.2463 40.3992 94.0474 40.4978C94.2056 40.7385 94.3638 40.9792 94.522 41.2199C95.5376 42.6778 96.9418 43.7654 98.1855 44.9585C100.646 45.2942 102.973 45.7754 105.164 46.7484C105.822 45.9139 106.399 45.1322 106.963 44.4169C105.514 40.0271 106.738 32.0998 108.909 27.8003C109.571 26.4465 110.446 26.905 111.184 26.0177C110.596 26.3468 110.022 26.6093 109.661 26.8466C109.567 26.9658 110.037 26.3697 109.997 26.3961C107.959 28.5396 104.471 30.4873 101.22 30.9586C97.2217 31.5182 93.8254 29.6719 89.7563 28.8997C91.8081 30.7106 91.6685 33.732 92.1318 36.1848C91.6685 33.732 91.8345 30.7507 89.7563 28.8997C93.7853 29.6983 97.1552 31.5045 101.22 30.9586C104.445 30.4472 107.959 28.5396 109.997 26.3961C110.198 26.2643 111.346 25.7392 111.466 25.6601C111.399 25.8194 111.305 25.9387 111.211 26.0579C112.467 25.3471 113.793 24.1309 113.169 21.7835C113.343 21.6116 113.239 21.278 113.319 21.2253C111.804 14.8113 98.5144 13.0333 97.9815 13.0964Z" fill="#ECBAB8"/>
<path d="M109.97 26.356C110.011 26.3296 109.541 26.9257 109.635 26.8064C109.996 26.5692 110.596 26.3467 111.158 25.9776C111.252 25.8584 111.346 25.7392 111.413 25.5799C111.279 25.7255 110.105 26.2104 109.97 26.356Z" fill="#ECBAB8"/>
<path d="M87.8825 24.3876C89.9469 26.305 91.0475 29.0283 91.1623 31.8251C91.183 32.7306 91.1235 33.6888 91.0112 34.5668C90.9826 34.8728 90.8874 35.1651 90.8324 35.431C90.7648 35.5904 90.6159 35.9755 90.8176 35.6706C90.7098 35.8563 90.7351 36.0695 90.9609 36.1509C92.0234 36.5439 91.9819 32.7225 91.9715 32.2697C91.8326 29.0867 90.6002 26.1629 87.8825 24.3876C87.9226 24.3612 87.8825 24.3876 87.8825 24.3876Z" fill="#E7A5A0"/>
<path d="M88.8297 22.1564C91.3297 24.6493 91.9157 28.6873 91.8403 32.0686C91.7923 33.3065 91.7442 34.5444 91.6033 35.7284C91.5334 36.2339 91.4361 36.8724 91.6206 37.1532C91.7524 37.3538 92.0058 37.3022 92.1398 37.1566C92.1272 37.05 92.1547 36.917 92.1158 36.7703C92.1948 36.8907 92.2075 36.9972 92.1536 37.0901C92.4092 36.6923 92.3484 35.8132 92.4446 35.3478C92.574 33.8841 92.6633 32.4468 92.5532 30.9682C92.3352 27.6649 91.5716 24.318 88.8297 22.1564C88.8698 22.1301 88.8297 22.1564 88.8297 22.1564Z" fill="#E7A5A0"/>
<path d="M92.1409 36.8103C92.1535 36.9169 92.126 37.0499 92.1387 37.1565L92.1788 37.1301C92.2326 37.0373 92.22 36.9307 92.1409 36.8103Z" fill="#E7A5A0"/>
<path d="M88.4573 30.1556C89.5142 31.4141 90.5837 32.7791 90.946 34.3792C91.0882 35.0325 91.0138 36.2303 91.4895 36.7793C91.6614 36.9535 91.9411 36.942 92.0225 36.7162C92.2803 35.9723 91.8493 34.7047 91.5879 33.9574C91.0261 32.316 89.9692 31.0576 88.4573 30.1556C88.4974 30.1293 88.4573 30.1556 88.4573 30.1556Z" fill="#E7A5A0"/>
<path d="M97.8672 28.739C97.8266 28.7656 97.8533 28.8061 97.8128 28.8327C97.8266 28.7656 97.8266 28.7656 97.8672 28.739Z" fill="#E7A5A0"/>
<path d="M97.8275 28.4202C97.8 28.5531 97.8126 28.6597 97.8252 28.7663C97.8653 28.74 97.8389 28.6998 97.8791 28.6735C97.8928 28.607 97.9066 28.5405 97.8275 28.4202Z" fill="#E7A5A0"/>
<path d="M94.272 14.6161C96.5325 17.0941 97.201 20.7332 97.2597 23.969C97.2919 25.1541 97.2439 26.392 97.1694 27.5898C97.1546 27.8294 97.0721 28.2283 97.1237 28.4816C97.1363 28.5882 97.2417 28.7486 97.2945 28.8289C97.44 28.9629 97.6532 28.9377 97.7873 28.7921C97.7747 28.6855 97.8022 28.5526 97.7632 28.4059C97.8423 28.5262 97.8549 28.6328 97.8011 28.7257C98.0165 28.3543 97.9557 27.4751 97.9717 27.0625C98.0335 25.7581 98.0289 24.44 97.8912 23.0944C97.6193 19.8839 96.7744 16.7628 94.272 14.6161Z" fill="#E7A5A0"/>
<path d="M100.628 27.7859C100.628 27.7859 100.602 27.7458 100.628 27.7859C100.641 27.8925 100.68 28.0392 100.692 28.1458C100.72 28.0128 100.747 27.8799 100.628 27.7859Z" fill="#E7A5A0"/>
<path d="M99.2489 21.0533C99.2111 22.7439 99.3465 24.4357 99.6286 26.0885C99.6917 26.6215 99.8212 27.1682 99.9244 27.6748C99.9634 27.8215 99.9623 27.9946 100.081 28.0886C100.134 28.1688 100.492 28.4508 100.227 28.2227C100.399 28.3969 100.64 28.2387 100.707 28.0794C100.695 27.9728 100.656 27.8261 100.643 27.7195C100.762 27.8135 100.761 27.9865 100.707 28.0794C100.91 27.6014 100.503 26.72 100.426 26.2535C100.196 24.854 100.006 23.4281 99.8816 22.016C99.7359 19.8715 99.543 14.7709 102.489 14.271C99.3974 14.6368 99.2647 18.6302 99.2489 21.0533Z" fill="#E7A5A0"/>
<path d="M99.8746 23.0546C99.948 24.0404 100.056 25.8651 100.837 26.6158C101.154 26.9241 101.622 26.6742 101.505 26.2341C100.946 24.0735 99.4871 21.2414 101.006 19.0944C99.7873 20.1249 99.7645 21.576 99.8746 23.0546Z" fill="#E7A5A0"/>
<path d="M101.932 24.0005C101.885 25.0653 101.797 26.3296 102.256 27.2912C102.545 27.9056 103.453 27.5387 103.244 26.8716C102.97 26.0177 102.923 25.0721 102.822 24.2194C102.71 23.0869 102.748 21.3963 103.274 20.3612C102.136 21.339 101.981 22.5895 101.932 24.0005Z" fill="#E7A5A0"/>
<path d="M102.762 23.1667C102.438 23.8968 101.423 26.4598 102.257 27.1177C102.469 27.2655 102.789 27.2277 102.963 27.0557C103.151 26.8173 103.061 26.4173 103.089 26.1112C103.16 25.4327 103.298 24.7679 103.421 24.1695C103.711 22.6004 104.722 20.7297 106.323 20.1943C104.433 20.1153 103.519 21.5207 102.762 23.1667Z" fill="#E7A5A0"/>
<path d="M102.795 30.3835C102.809 30.317 102.836 30.1841 102.916 30.1314C102.836 30.1841 102.782 30.2769 102.795 30.3835Z" fill="#E7A5A0"/>
<path d="M105.581 21.6009C104.365 22.2853 103.491 23.4912 103.043 24.8196C102.663 25.9888 102.548 27.213 102.607 28.4382C102.617 28.891 102.668 29.3174 102.718 29.7438C102.757 29.8905 102.73 30.0234 102.769 30.1701C102.78 30.4498 102.78 30.4498 102.794 30.3833C102.781 30.2767 102.835 30.1839 102.915 30.1312C102.835 30.1839 102.808 30.3169 102.794 30.3833C102.806 30.4899 102.886 30.6103 103.005 30.7043C103.655 31.0813 103.53 29.8423 103.545 29.6027C103.418 28.5368 103.385 27.5247 103.498 26.4736C103.654 25.05 104.142 23.6951 105.188 22.6635C106.742 21.1825 109.314 20.8132 111.364 20.7867C109.302 20.5335 107.399 20.5211 105.581 21.6009Z" fill="#E7A5A0"/>
<path d="M93.5207 33.491C93.507 33.5575 93.4669 33.5838 93.4531 33.6503C93.4669 33.5838 93.507 33.5575 93.5207 33.491Z" fill="#E7A5A0"/>
<path d="M90.527 19.1452C91.5873 19.8845 91.8683 21.7103 92.1136 22.8703C92.4759 24.4703 92.585 26.122 92.6538 27.8001C92.7113 29.1984 92.7286 30.6232 92.7459 32.0479C92.7298 32.4605 92.7539 32.8468 92.778 33.2331C92.7769 33.4061 92.8296 33.4864 92.9087 33.6067C92.9615 33.6869 93.1861 33.9414 92.9615 33.6869C93.1334 33.8611 93.3466 33.8359 93.4807 33.6903C93.4681 33.5837 93.4956 33.4508 93.4566 33.3041C93.5093 33.3843 93.562 33.4645 93.5483 33.531C93.7248 33.0129 93.5975 32.12 93.5608 31.6272C93.5309 30.0958 93.4746 28.5244 93.3117 26.9656C93.0353 24.4474 92.9273 20.6122 90.527 19.1452C90.5007 19.1051 90.527 19.1452 90.527 19.1452Z" fill="#E7A5A0"/>
<path d="M93.43 33.2644C93.4426 33.371 93.4151 33.504 93.4541 33.6507C93.4942 33.6243 93.508 33.5578 93.5217 33.4914C93.5355 33.4249 93.4827 33.3446 93.43 33.2644Z" fill="#E7A5A0"/>
<path d="M93.5293 32.2793C93.4888 32.3059 93.5154 32.3464 93.4749 32.373C93.4888 32.3059 93.5293 32.2793 93.5293 32.2793Z" fill="#E7A5A0"/>
<path d="M91.2745 18.5381C92.2821 19.1971 92.4438 20.929 92.6365 22.0087C92.906 23.5549 92.9359 25.0862 92.9257 26.6439C92.9166 28.0285 92.841 29.3994 92.832 30.784C92.816 31.1966 92.7736 31.5691 92.7977 31.9554C92.7702 32.0884 92.8092 32.2351 92.8882 32.3554C92.941 32.4357 93.1393 32.65 92.941 32.4357C93.0728 32.6362 93.3261 32.5846 93.4602 32.4391C93.4476 32.3325 93.4751 32.1995 93.4361 32.0528C93.5152 32.1731 93.5015 32.2396 93.474 32.3726C93.7433 31.9083 93.6034 30.9089 93.593 30.4561C93.6296 28.9385 93.6261 27.4473 93.5297 25.9023C93.4653 23.5319 93.5292 19.8709 91.2745 18.5381C91.2883 18.4716 91.2745 18.5381 91.2745 18.5381Z" fill="#E7A5A0"/>
<path d="M93.4925 31.96C93.465 32.0929 93.4776 32.1995 93.4902 32.3061C93.5303 32.2798 93.504 32.2396 93.5441 32.2133C93.5578 32.1468 93.5716 32.0803 93.4925 31.96Z" fill="#E7A5A0"/>
<path d="M98.4564 28.0642C98.469 28.1708 98.4415 28.3038 98.4805 28.4505C98.5206 28.4241 98.5343 28.3576 98.5882 28.2648C98.5618 28.2247 98.5091 28.1444 98.4564 28.0642Z" fill="#E7A5A0"/>
<path d="M94.0729 16.2394C95.163 16.4995 95.5918 18.1133 95.9185 19.0474C96.4551 20.4756 96.7646 21.9954 97.0077 23.5015C97.213 24.6878 97.3781 25.9005 97.5834 27.0868C97.6212 27.4066 97.6855 27.7665 97.7233 28.0863C97.7359 28.1929 97.8677 28.3934 97.9205 28.4737C98.1589 28.6616 98.4661 28.5172 98.481 28.2776C98.4672 28.3441 98.4535 28.4106 98.3732 28.4633C98.3606 28.3567 98.3881 28.2238 98.3491 28.0771C98.4019 28.1573 98.4282 28.1974 98.4145 28.2639C98.5508 27.7722 98.2505 26.8781 98.1863 26.5182C97.9432 25.0121 97.6336 23.4923 97.2438 22.0252C96.9227 20.2257 96.3069 16.6668 94.0729 16.2394Z" fill="#E7A5A0"/>
<path d="M89.0381 20.8136C91.091 22.4514 91.7744 25.851 92.0245 28.3291C92.1632 29.5016 92.2218 30.7269 92.1737 31.9648C92.1715 32.311 92.1291 32.6835 92.0867 33.056C92.0592 33.189 91.9228 33.6807 91.9767 33.5879C91.8426 33.7334 91.9206 34.0269 92.12 34.0681C93.4485 34.5162 92.8819 29.5463 92.8051 29.0798C92.4656 26.0286 91.7295 22.5488 89.0381 20.8136Z" fill="#E7A5A0"/>
<path d="M88.2127 28.8233C90.0123 30.5127 91.3581 32.3855 91.6345 34.9036C91.6724 35.2234 91.5613 35.9284 91.7458 36.2092C91.8776 36.4097 92.2765 36.4922 92.3716 36.2C92.2227 36.5851 92.4255 36.1071 92.4393 36.0406C92.4668 35.9077 92.4278 35.761 92.4289 35.5879C92.4197 34.9621 92.3841 34.2961 92.1881 33.7356C91.577 31.4948 90.2163 29.8616 88.2127 28.8233C88.2264 28.7568 88.2127 28.8233 88.2127 28.8233Z" fill="#E7A5A0"/>
<path d="M101.432 23.0647C101.112 23.1025 96.6522 25.0571 95.5956 27.8196C96.2433 28.5428 96.6146 28.7582 97.5075 28.6309C99.746 28.366 102.729 26.1754 102.649 24.2177C102.307 23.5231 101.858 23.0142 101.432 23.0647Z" fill="#B45244"/>
<g opacity="0.2">
<path opacity="0.2" d="M98.3031 30.979C98.8419 32.061 99.7544 33.0123 100.373 34.0415C100.808 34.79 101.289 36.484 101.589 37.5511C101.807 36.6605 101.978 34.9974 101.766 30.8286C101.553 30.8539 101.326 30.9456 101.112 30.9708C100.153 31.0844 99.2212 31.0649 98.3031 30.979Z" fill="#F7E3E2"/>
<path opacity="0.2" d="M100.215 25.5864C98.683 25.7894 97.4922 26.687 97.8465 29.4986C97.9096 30.0316 98.1194 30.5256 98.3028 30.9795C99.2209 31.0654 100.153 31.0848 101.152 30.9449C101.365 30.9196 101.579 30.8944 101.806 30.8027C101.734 29.4708 101.638 27.9257 101.504 26.0609C101.132 25.8454 100.429 25.5612 100.215 25.5864Z" fill="#753D36"/>
<path opacity="0.2" d="M97.8262 28.5929C97.8125 28.6594 97.8652 28.7396 97.8916 28.7797C99.2509 28.5756 98.4405 28.304 98.3408 27.2781C98.3155 27.065 98.3167 26.8919 98.3579 26.6924C97.8616 27.2484 97.7872 28.4462 97.8262 28.5929Z" fill="#E7A5A0"/>
<path opacity="0.2" d="M99.9853 26.1973C99.599 26.2214 99.3045 26.4725 99.2208 27.0444C99.1521 27.3768 98.6581 27.5866 98.3635 27.8377C98.5217 28.0784 98.3464 28.4234 98.6662 28.3855C98.7326 28.3993 101.03 27.3492 101.596 26.2878C101.556 26.3141 101.529 26.274 101.489 26.3004C101.129 26.3646 100.452 26.1205 99.9853 26.1973Z" fill="#D45746"/>
</g>
<path d="M87.0216 41.9561C87.1042 43.5676 88.9933 45.8301 89.3762 46.3252C90.0101 47.1149 92.1582 48.4604 94.453 49.7669C94.414 49.6202 94.3487 49.4334 94.2959 49.3531C92.7163 46.6001 90.9097 43.9387 89.957 41.0033C89.9168 41.0297 89.8905 40.9896 89.8905 40.9896C89.3311 41.0126 87.7987 41.2156 87.0216 41.9561Z" fill="#B45244"/>
<path d="M96.2031 50.6833C97.2726 52.0484 99.0619 53.285 101.46 53.0877C101.206 53.1393 98.804 52.0185 96.2031 50.6833Z" fill="#D45746"/>
<path d="M99.8887 31.0298C100.458 31.4596 100.935 31.8355 101.186 32.13C101.728 32.6928 102.03 33.4137 102.372 34.1083C102.484 33.2303 102.638 31.9798 102.754 30.5826C102.207 30.7121 101.621 30.868 101.114 30.9712C100.728 30.9953 100.301 31.0458 99.8887 31.0298Z" fill="#DC786F"/>
<path d="M97.3205 28.6954C96.7875 28.7585 98.5367 30.0214 99.9145 31.069C100.327 31.085 100.753 31.0345 101.18 30.9841C101.753 30.8946 102.3 30.7651 102.82 30.5954C102.966 28.719 103.072 26.696 102.882 25.2701C102.856 25.0569 102.831 24.8437 102.739 24.6168C102.395 26.4519 99.9854 28.38 97.3205 28.6954Z" fill="#DC786F"/>
<path d="M93.7579 19.7787C91.9057 20.0195 90.4387 22.4198 90.5419 22.9264C90.5924 23.3528 91.3786 23.2381 91.1093 23.7023C90.7839 24.6056 92.1261 24.9871 93.3263 26.7259C93.6586 24.7842 94.4458 22.486 96.431 22.2726C97.8168 22.1086 99.0788 22.5429 99.982 22.8684C98.6982 21.7017 95.3167 19.6158 93.7579 19.7787Z" fill="#DC786F"/>
<path d="M96.43 22.2728C95.0042 22.4631 93.2747 24.2892 93.4387 25.6749C93.4903 25.9282 93.6083 26.1953 93.5682 26.2216C93.6072 26.3684 93.488 26.2744 93.527 26.4211C93.5648 26.7409 94.8521 27.3884 95.5284 27.8056C95.9868 26.9298 96.2836 26.3326 96.9942 25.5784C97.1283 25.4328 99.1214 24.0079 100.697 23.2593C99.5557 22.7459 97.6691 22.1477 96.43 22.2728Z" fill="#D45746"/>
<path d="M92.9863 29.706C93.3646 30.8934 98.5867 30.4483 100.771 32.2867C101.222 32.6225 101.592 33.011 102.043 33.3468C101.543 32.4115 100.975 31.6356 100.34 31.019C97.8096 31.1888 95.4713 30.4279 92.9863 29.706Z" fill="#E7A5A0"/>
<path d="M93.0157 29.4006C92.9882 29.5335 92.9745 29.6 93.0272 29.6802C95.5122 30.4022 97.8242 31.123 100.381 30.9933C98.1197 28.6884 93.631 26.9282 91.593 25.0508C93.3113 26.966 93.112 28.9352 93.0157 29.4006Z" fill="#D8685C"/>
<path d="M102.73 26.002C102.768 26.3218 102.805 26.6416 102.883 26.935C103.174 29.3867 102.066 27.7019 104.771 27.3601C105.198 27.3097 105.477 27.2982 105.477 27.2982C105.797 27.2603 105.461 25.7004 102.805 24.6312C102.669 25.1229 102.679 25.5757 102.73 26.002Z" fill="#D45746"/>
<path d="M102.712 24.751C102.589 25.1763 102.41 28.051 103.09 27.9489C103.197 27.9363 103.21 27.8698 103.224 27.8033C103.211 27.6967 103.106 27.5363 103.093 27.4297C102.989 27.0961 102.951 26.7763 102.873 26.4829C102.784 25.9098 102.668 25.2966 102.712 24.751C102.752 24.7247 102.752 24.7247 102.712 24.751Z" fill="#B45244"/>
<path d="M102.963 25.2185C102.854 25.5772 102.427 27.8112 103.119 27.8157C103.226 27.8031 103.306 27.7504 103.267 27.6037C103.136 27.23 103.018 26.963 102.968 26.5366C102.984 26.1239 102.973 25.6712 102.963 25.2185C103.03 25.2322 103.003 25.1921 102.963 25.2185Z" fill="#B45244"/>
<path d="M103.335 25.2609C103.226 25.6197 102.719 27.7333 103.372 27.7642C103.478 27.7516 103.598 27.6725 103.519 27.5521C103.284 26.8449 103.25 26.0059 103.335 25.2609C103.375 25.2345 103.375 25.2345 103.335 25.2609Z" fill="#B45244"/>
<path d="M103.946 25.491C103.851 25.7833 102.933 27.7079 103.666 27.686C103.772 27.6734 103.826 27.5806 103.813 27.474C103.565 26.8333 103.849 26.1295 103.946 25.491C103.986 25.4647 103.92 25.4509 103.946 25.491Z" fill="#B45244"/>
<path d="M103.694 25.0228C103.681 25.0893 103.747 25.1031 103.84 25.1569L103.668 24.9827C103.668 24.9827 103.668 24.9827 103.694 25.0228Z" fill="#F7E3E2"/>
<path d="M90.1789 29.3678C90.9366 29.5591 91.7355 29.5511 92.5607 29.5831C91.6438 29.3241 90.6867 29.0915 89.6895 28.8853C89.9015 29.0331 90.0735 29.2073 90.1789 29.3678Z" fill="#F7E3E2"/>
<path d="M89.4533 28.3516C89.2 28.4032 88.9467 28.4548 88.6934 28.5063C89.0762 29.0015 89.6069 29.2846 90.1789 29.3682C90.007 29.194 89.9015 29.0335 89.6894 28.8857C90.6866 29.0919 91.6036 29.3509 92.5607 29.5835C93.1063 29.627 93.6118 29.6969 94.1299 29.8734C96.8121 30.9827 99.9676 30.9768 101.873 30.8161C102.779 30.6224 103.633 30.3484 104.541 29.9815C104.167 30.1122 103.741 30.1627 103.314 30.2131C98.411 30.7935 89.5198 28.3653 89.4533 28.3516Z" fill="#F7E3E2"/>
<path d="M103.842 25.1574L103.748 25.103C103.775 25.1435 103.815 25.1169 103.842 25.1574Z" fill="#F7E3E2"/>
<path d="M106.719 28.8373C106.184 29.2465 105.476 29.6546 104.475 29.9676C103.607 30.3081 102.713 30.6085 101.807 30.8022C102.086 30.7908 102.34 30.7392 102.553 30.7139C107.03 30.1841 107.731 28.804 108.217 27.7953C107.788 28.1919 107.267 28.5347 106.719 28.8373Z" fill="#F7E3E2"/>
<path d="M105.245 30.2656C105.151 30.3848 105.045 30.3974 104.938 30.41C104.618 30.4479 104.167 30.2851 103.78 30.3092C103.74 30.3356 102.431 30.9661 101.365 31.0923C101.152 31.1175 100.287 31.1118 99.3284 31.0523C99.0889 31.0374 98.8493 31.0225 98.6098 31.0076C97.4785 30.947 96.3208 30.8462 96.1615 30.7786C96.0422 30.6846 95.8829 30.617 95.7637 30.523C94.8731 30.3041 93.9297 30.0051 93.0128 29.7461C92.0683 29.6201 90.2057 29.4081 89.3804 29.3761C90.0051 29.54 91.0093 30.7182 91.258 31.3589C91.5997 32.0535 91.8737 32.9074 91.9998 33.9733C92.1019 34.653 92.0974 35.3453 92.0791 36.1041L92.1054 36.1442L92.0791 36.1041C92.0734 36.9695 91.9611 37.8475 92.0621 38.7003C92.1378 39.3399 92.2536 39.9531 92.476 40.5537C94.1804 40.5249 96.02 40.1775 97.7221 40.4948C96.02 40.1775 94.1804 40.5249 92.476 40.5537C92.8543 41.7411 93.4458 42.9033 94.1313 43.9463C95.5125 44.4746 96.1018 45.983 96.9593 47.2002C98.0677 48.7119 99.8341 49.3892 100.875 51.0603C104.584 49.8863 106.237 47.5938 107.041 44.7099C105.473 40.2261 105.841 34.7564 108.067 30.3639C108.607 29.2624 109.014 28.1334 109.38 27.0307C108.871 27.48 108.482 28.0234 108.159 28.5804C107.526 29.6281 106.183 29.4196 105.245 30.2656Z" fill="#DC786F"/>
<path d="M93.0117 29.7463C93.9287 30.0053 94.872 30.3044 95.7627 30.5233C94.8606 30.0247 93.9298 29.8322 93.0117 29.7463Z" fill="#DC786F"/>
<path d="M90.0059 29.5403C90.4025 29.9689 90.9046 30.558 91.2588 31.3592C91.0765 30.7323 90.7876 30.1179 90.3784 29.5827C90.2454 29.5552 90.1125 29.5277 90.0059 29.5403Z" fill="#DC786F"/>
<path d="M99.3681 31.0261C99.1285 31.0112 98.889 30.9963 98.6494 30.9814C98.8489 31.0227 99.1285 31.0112 99.3681 31.0261Z" fill="#DC786F"/>
<path d="M94.4327 36.7993C94.4396 37.7713 94.3537 38.6894 94.7205 39.5972C95.1264 40.6517 96.7952 39.957 96.3091 38.9552C95.3634 36.9918 94.6984 34.8439 93.6862 32.8668C94.1436 34.1746 94.428 35.4812 94.4327 36.7993Z" fill="#D8685C"/>
<path d="M96.0756 39.7391C96.0035 40.5908 95.9978 41.4562 96.352 42.2573C96.5228 42.6046 96.8541 42.8464 97.2404 42.8223C97.4536 42.7971 97.6805 42.7054 97.8284 42.4933C97.9762 42.2813 98.0851 41.9225 97.967 41.6555C96.8883 39.6646 96.4514 37.2518 96.1601 34.9732C96.1361 36.5974 96.1661 38.1287 96.0756 39.7391Z" fill="#D8685C"/>
<path d="M91.8472 30.857C92.6783 32.0341 92.8263 33.8324 93.0568 35.2319C93.3251 36.9512 93.2599 38.7748 93.4216 40.5067C93.534 41.6392 95.2797 41.411 95.1272 40.3049C94.8336 38.3724 94.046 36.6497 93.4992 34.7688C93.0945 33.5413 92.7058 31.9011 91.8472 30.857Z" fill="#D8685C"/>
<path d="M90.494 30.0229C91.4041 31.3204 91.6312 33.2391 91.8342 34.7716C91.9615 35.6644 91.9421 36.5963 91.9227 37.5282C91.9055 38.1139 91.995 38.687 91.8712 39.2853C91.6111 40.3754 93.3935 40.64 93.5871 39.5362C93.8644 37.8604 93.0768 36.1377 92.4875 34.6294C91.8582 33.1474 91.591 31.255 90.494 30.0229Z" fill="#D8685C"/>
<path d="M105.521 40.999C105.137 40.677 104.765 40.4615 104.38 40.3125C104.364 40.7252 104.282 41.124 104.239 41.4966C104.653 41.3395 105.067 41.1824 105.521 40.999Z" fill="#D8685C"/>
<path d="M104.382 40.3121C104.767 40.4611 105.138 40.6766 105.522 40.9986C105.108 41.1557 104.655 41.3391 104.241 41.4962C104.283 41.1236 104.299 40.711 104.382 40.3121C104.249 40.2846 104.142 40.2972 104.048 40.4165C103.297 41.1971 103.773 41.7461 104.529 42.2836C104.979 42.6194 105.753 42.3981 105.81 41.786C106.044 38.6454 104.666 35.5875 105.485 32.464C105.485 32.464 105.459 32.4239 105.418 32.4502C104.523 34.9341 104.652 37.6644 104.382 40.3121Z" fill="#D8685C"/>
<path d="M103.108 41.4359C102.798 42.0996 103.886 42.5328 104.131 41.8554C104.929 39.8369 104.052 37.5411 103.746 35.502C103.8 37.4196 103.866 39.6169 103.108 41.4359Z" fill="#D8685C"/>
<path d="M109.605 27.2857C109.199 28.4147 107.753 29.5369 107.254 30.6121C105.028 35.0045 104.387 41.4577 105.955 45.9415C108.603 42.0179 107.109 28.2945 110.488 26.7056C110.181 26.8501 109.94 27.0083 109.605 27.2857Z" fill="#D8685C"/>
<path d="M110.796 26.3882C110.583 26.4134 110.436 26.4524 110.275 26.5579C110.436 26.4524 110.583 26.4134 110.796 26.3882Z" fill="#D76557"/>
<path d="M107.092 44.9632C107.066 44.9231 107.053 44.8165 107.027 44.7764C106.988 44.6297 106.949 44.483 106.869 44.3626C106.452 45.0389 106.075 45.6888 105.725 46.3789C106.181 45.8493 106.623 45.3862 107.092 44.9632Z" fill="#E7A5A0"/>
<path d="M88.584 42.939C90.7504 43.5257 91.5368 45.4214 93.1129 46.6833C93.2057 46.7372 93.3261 46.6581 93.2734 46.5778C92.9203 45.6036 92.566 44.8024 91.8519 44.0654C90.9658 43.1543 89.862 42.9607 88.584 42.939Z" fill="#753D36"/>
<path d="M89.3592 44.7277C89.3592 44.7277 89.3855 44.7678 89.3592 44.7277C89.8153 44.1981 91.8191 47.2469 92.03 47.5678C92.6502 48.424 93.4159 49.4143 94.3719 49.8199C94.4384 49.8337 94.5186 49.781 94.4658 49.7007C93.8903 48.1259 92.8999 46.8812 91.6963 45.6617C91.2997 45.2331 89.9895 44.0262 89.3592 44.7277Z" fill="#753D36"/>
<path d="M89.9871 46.3828C89.947 46.4092 89.947 46.4092 89.9871 46.3828C90.3986 46.5719 90.6611 47.1461 90.9523 47.4143C91.7065 48.1249 92.368 48.7816 93.4993 48.8423C93.5657 48.8561 93.5795 48.7896 93.5932 48.7231C93.2 47.7752 92.3254 47.1437 91.3832 46.6716C90.8651 46.4951 90.4788 46.5192 89.9871 46.3828Z" fill="#753D36"/>
<path d="M112.954 22.3274C113.144 21.7428 113.268 21.1445 113.273 20.4522C113.19 20.8511 113.134 21.2901 113.092 21.6626C113.077 21.9022 112.995 22.128 112.954 22.3274Z" fill="#DC786F"/>
<path d="M113.651 19.4565C113.463 19.6949 113.354 20.0537 113.298 20.4927C113.334 21.1586 113.21 21.7569 112.98 22.3679C112.606 24.509 111.821 26.461 111.012 28.0268C109.918 28.2859 109.89 32.6129 109.614 34.1156C109.231 35.6309 108.451 36.8906 108.967 37.4132C107.579 39.9338 108.27 42.1219 106.923 44.443C106.962 44.5898 107.001 44.7365 107.081 44.8568C107.107 44.8969 107.12 45.0035 107.146 45.0436C107.949 44.3432 108.779 43.683 109.702 43.0766C115.957 39.3097 114.94 38.1979 116.024 37.313C116.907 36.5599 117.964 35.8079 118.184 34.7442C118.381 33.1212 120.874 32.6316 120.396 28.4078C120.145 26.1028 118.801 23.8839 117.496 21.9847C115.82 19.697 114.718 21.1677 113.651 19.4565Z" fill="#DC786F"/>
<path d="M84.8799 15.1002C84.5418 15.8968 83.2672 15.3559 81.994 18.6628C80.5099 21.6488 81.695 21.6166 81.0132 24.0753C80.9307 24.4741 80.8883 24.8467 80.9388 25.273C81.2416 27.8313 86.9993 33.0083 87.1312 33.2089C87.8029 34.3184 88.2603 35.6262 89.402 36.1396C89.402 36.1396 90.5655 37.3854 94.0455 38.6598C94.5681 38.1439 93.4952 37.2981 92.0532 35.8907C92.0658 35.9973 92.052 36.0637 92.1048 36.144C92.0921 36.0374 92.0658 35.9973 92.0532 35.8907C90.7303 34.5772 89.0522 32.6357 87.4405 30.7079C85.4241 27.5525 84.0015 25.2132 84.274 22.2193C84.4035 20.7556 86.1915 20.1549 87.4224 19.2309C88.2133 18.424 89.764 17.4622 90.4219 16.6277C90.7989 15.9778 86.5568 15.2044 84.8799 15.1002Z" fill="#F1CCCA"/>
<path d="M90.145 16.4664C89.0928 16.5261 86.9264 15.9394 85.7013 18.0084C84.4703 18.9323 84.2848 20.835 84.1553 22.2987C83.9229 25.2663 86.657 30.6498 91.2088 34.9535C90.6838 33.805 87.1542 27.9103 86.9776 26.418C86.3824 21.7541 89.1984 18.697 90.7169 16.5501C90.5565 16.6555 90.412 16.3484 90.145 16.4664Z" fill="#E7A5A0"/>
<path d="M78.3052 33.1515C77.8822 32.6828 77.646 32.1486 77.1829 31.7062C77.0763 31.7189 76.9835 31.665 76.917 31.6512C76.297 32.8055 76.1022 34.0824 76.2536 35.3616C76.9991 41.4776 81.8417 40.0182 82.6201 41.115C83.0167 41.5437 84.2719 43.0165 87.0434 42.6885C89.0286 42.4751 89.1695 41.2911 89.9959 41.15C89.8652 40.7764 89.7609 40.4429 89.6703 40.0428C89.3253 39.8675 88.994 39.6257 88.6765 39.3174C85.6606 36.3019 82.0202 35.133 78.3052 33.1515Z" fill="#F1CCCA"/>
<path d="M85.4595 34.4235C81.7169 30.5645 78.7655 31.9299 77.209 31.7466C77.6721 32.189 77.9082 32.7231 78.3312 33.1919C82.0462 35.1734 85.6866 36.3422 88.769 39.3714C89.0865 39.6797 89.4178 39.9216 89.7628 40.0969C89.6722 39.6969 89.5679 39.3634 89.5174 38.937C89.5816 39.2969 89.6722 39.6969 89.7628 40.0969C91.7401 41.0951 94.3683 40.2869 96.8303 40.4494C95.6015 39.0168 91.7412 40.922 85.4595 34.4235Z" fill="#E7A5A0"/>
<path d="M89.7369 40.0564C89.8274 40.4564 89.9318 40.79 90.0625 41.1636C90.0625 41.1636 90.1026 41.1373 90.1289 41.1774C91.1548 41.0776 90.7869 42.3533 91.132 42.5287C91.8874 43.0662 92.9098 43.4856 93.829 43.3984C95.2148 43.2344 95.1952 42.1559 95.8348 42.0802C96.3013 42.0033 96.5925 42.2715 96.8573 42.4996C96.9787 42.2474 97.2744 41.8233 97.2102 41.4634C97.1334 40.9969 97.0291 40.6634 96.8044 40.4089C94.3423 40.2463 91.674 41.081 89.7369 40.0564Z" fill="#F1CCCA"/>
<path d="M107.673 43.6624C107.412 42.9151 106.558 43.1891 106.403 42.4292C104.847 42.2459 102.992 42.8329 101.744 42.3321C101.014 42.0078 98.0014 40.4835 97.5751 40.534C97.5349 40.5604 97.2255 41.051 96.759 41.1278C96.6524 41.1404 96.5458 41.153 96.4392 41.1656C96.1194 41.2035 95.245 42.5824 94.6146 43.284C94.7705 43.8708 91.6757 42.7455 91.6849 43.3713C91.7997 46.168 92.3913 47.3302 93.1135 48.8661C94.6496 52.1647 99.8592 53.6235 103.723 53.2094C104.217 52.9996 104.751 52.7635 105.246 52.3806C105.394 52.1686 105.29 51.835 105.45 51.7296C106.559 51.2309 107.216 50.3964 107.901 49.602C107.995 49.4828 108.115 49.4037 108.288 49.4049C108.714 49.3544 109.352 49.6248 109.925 49.5354C111.031 49.3829 110.326 47.2613 110.05 46.7536C108.496 46.051 108.09 45.1696 107.673 43.6624Z" fill="#D45746"/>
<path d="M108.63 44.0683C108.171 42.9335 107.388 42.529 106.43 42.4695C107.739 43.8494 108.259 43.6797 107.629 44.3812C108.005 45.9148 109.074 47.453 110.627 48.1555C110.535 47.9285 110.43 47.7681 110.443 47.7016C110.444 47.5285 110.484 47.5021 110.871 47.4781C110.937 47.4918 111.03 47.5457 111.097 47.5594C111.11 47.4929 111.124 47.4265 111.164 47.4001C111.15 47.4666 111.11 47.4929 111.097 47.5594C111.575 47.7623 111.905 48.1772 112.371 48.1003C112.731 48.0361 112.759 47.9032 112.694 47.5433C112.567 46.6504 114.161 47.1534 114.023 45.9809C113.706 43.4891 109.52 46.2976 108.63 44.0683Z" fill="#D45746"/>
<path d="M115.467 18.55C114.733 18.9179 113.747 18.9914 113.569 19.6825C114.484 20.2877 118.708 23.8303 119.495 25.726C119.566 25.0475 119.51 23.303 119.368 22.6496C118.501 18.7962 116.549 18.0112 115.467 18.55Z" fill="#B45244"/>
<path d="M108.275 20.9789C104.118 21.4709 103.619 24.5565 103.522 25.0219L103.722 25.0631C103.655 25.0494 103.629 25.0092 103.643 24.9428C103.643 24.9428 103.616 24.9027 103.656 24.8763C103.656 24.8763 104.824 25.4298 105.674 25.8481C106.509 26.3329 107.729 27.1397 107.767 27.4595C107.78 27.5661 107.483 28.1633 106.693 28.7972C107.241 28.4946 107.762 28.1518 108.258 27.769C108.447 27.3575 108.662 26.9861 109.049 26.7889C109.17 26.7098 108.29 28.9541 108.463 28.9553C109.612 28.2572 115.215 24.6325 113.514 22.1316C112.951 20.6633 109.514 20.8538 108.275 20.9789Z" fill="#F1CCCA"/>
<g opacity="0.2">
<path opacity="0.2" d="M99.6366 40.9602C99.4498 41.0255 99.3283 41.2777 99.4338 41.4382C99.4991 41.625 99.7513 41.7465 99.9118 41.641C100.099 41.5757 100.22 41.3235 100.115 41.163C100.049 40.9762 99.8234 40.8949 99.6366 40.9602Z" fill="#F7E3E2"/>
</g>
<path d="M100.54 41.1128C99.4626 40.9593 98.6293 40.1284 97.5117 40.0012C98.6006 40.4344 99.2197 41.4637 100.322 41.8304C101.558 42.2246 103.25 42.0892 104.475 42.0306C104.582 42.018 104.569 41.9114 104.476 41.8576C103.322 41.2376 101.883 41.3213 100.54 41.1128Z" fill="#F1CCCA"/>
<path d="M108.242 34.2133C107.818 35.928 107.886 37.7791 107.795 39.5626C107.765 40.0417 107.761 40.561 107.732 41.0401C107.662 41.5456 107.269 42.6081 107.599 43.023C107.652 43.1033 107.718 43.117 107.825 43.1044C108.492 42.8957 108.771 40.8738 108.909 40.209C109.145 38.7327 109.354 37.2162 109.723 35.7674C110.175 33.9197 110.427 32.0307 111.263 30.332C111.628 29.5755 112.099 28.8063 112.238 27.9685C112.431 26.8646 113.275 26.1379 114.131 25.5177L114.105 25.4776C110.739 27 109.024 30.77 108.242 34.2133Z" fill="#D45746"/>
<path d="M113 29.3051C111.864 29.9368 110.912 31.0223 110.292 32.1766C109.456 33.7022 108.606 35.4675 108.488 37.2108C108.369 39.1273 108.171 40.9234 107.413 42.7425C107.332 42.9683 107.65 43.1035 107.732 42.8777C108.406 41.6306 108.694 40.2345 109.275 38.9335C109.586 38.2699 110.07 37.6073 110.354 36.9035C110.678 36.1734 110.87 35.4157 111.127 34.6718C111.628 33.4236 112.367 32.3633 112.961 31.1689C113.622 29.8152 114.231 28.3812 115.936 28.1794C115.936 28.1794 115.976 28.153 115.91 28.1393C114.805 28.1187 113.935 28.8053 113 29.3051Z" fill="#D45746"/>
<path d="M80.8851 23.356C80.4141 24.1251 80.3545 25.0833 80.6285 25.9372C80.9152 26.8977 81.4688 27.7402 82.1429 28.5035C82.8433 29.3069 83.5299 30.1768 84.6199 30.4369C84.7529 30.4644 84.8733 30.3853 84.9008 30.2524C85.3637 28.6843 83.6111 27.9406 82.8729 26.8174C82.4774 26.2156 82.2561 25.442 82.3008 24.7233C82.3443 24.1777 82.6055 22.9146 82.9941 22.5443C82.0874 22.7381 81.3963 22.5605 80.8851 23.356Z" fill="#F7E3E2"/>
<path d="M91.9814 36.9154C91.5721 36.3802 91.0414 36.0971 90.3766 35.9596C90.0442 35.8909 89.8964 36.1029 89.5112 35.9539C89.0333 35.7511 88.8235 35.2571 88.7867 34.7642C88.6984 34.0181 88.3694 33.4301 87.974 32.8284C87.5785 32.2266 86.8621 31.8358 86.3462 31.3132C85.5255 30.5888 84.9053 29.7327 84.5259 28.7183C83.946 29.8462 84.3232 31.2067 84.9823 32.2096C85.4305 32.8916 86.1068 33.3087 86.5688 33.9242C87.0571 34.5798 87.1466 35.1529 87.8893 35.5838C88.2871 35.8394 88.7249 36.0686 89.1628 36.2978C89.627 36.5671 89.9308 36.9419 90.4352 37.1849C90.9922 37.5081 91.296 37.8829 91.9883 37.8874C92.3345 37.8897 92.6531 38.0249 92.9454 38.12C93.0784 38.1475 93.7936 38.7114 93.8739 38.6587C93.7535 38.7378 93.8189 38.9246 93.9656 38.8856C94.486 38.7159 93.797 38.1922 93.6251 38.018C93.1483 37.642 92.3642 37.4106 91.9814 36.9154Z" fill="#F7E3E2"/>
<path d="M93.4778 19.7904C92.3041 20.1023 90.6193 21.2096 90.5174 22.5404C90.4326 23.2854 90.6687 23.8195 91.1846 24.3422C91.5021 24.6505 91.6718 25.1708 91.8689 25.5582C92.0799 25.8792 92.5441 26.1485 92.849 26.3502C93.5115 26.8338 94.3219 27.1054 95.0383 27.4962C96.0998 28.0624 97.0546 28.6412 98.022 29.3265C98.0484 29.3666 98.0621 29.3001 98.0621 29.3001C97.136 28.4153 95.9954 27.7288 94.9351 26.9896C93.9413 26.2641 93.2822 25.2613 92.1004 24.7742C91.2109 24.3823 90.9678 22.8762 91.1592 22.1185C91.4583 21.1752 92.0611 20.6066 92.9162 20.1595C94.3053 19.4763 95.7519 20.1914 96.999 20.8653L97.0391 20.8389C95.9651 20.1662 94.7317 19.4258 93.4778 19.7904Z" fill="#F7E3E2"/>
<path d="M98.8648 22.3954C97.9467 22.3095 96.9506 21.9302 96.0039 22.1503C94.6972 22.4347 93.5683 24.0383 93.44 25.329C93.44 25.329 93.4664 25.3691 93.44 25.329C93.6486 23.9856 95.0308 22.3304 96.5346 22.4334C97.0802 22.4769 97.6373 22.8001 98.1966 22.7772C99.1285 22.7966 99.901 22.7484 100.669 23.3925C100.695 23.4326 100.776 23.3799 100.749 23.3398C100.301 22.6578 99.6099 22.4802 98.8648 22.3954Z" fill="#E7A5A0"/>
<path d="M99.3093 23.9423C98.0508 24.9992 96.6353 25.6423 95.8663 27.1817C96.4061 26.0802 97.2623 25.46 98.358 24.8548C99.4136 24.2758 99.9924 23.321 101.39 23.4367C103.745 23.6119 101.744 26.2483 100.981 26.9223C100.003 27.7947 98.7353 28.2257 97.4952 28.5238C97.3886 28.5364 97.4275 28.6831 97.5078 28.6304C99.0414 28.2543 100.429 27.7442 101.569 26.5933C102.359 25.7863 103.219 24.6469 102.481 23.5237C101.636 22.4131 100.099 23.3084 99.3093 23.9423Z" fill="#F7E3E2"/>
<path d="M98.4701 25.9878C98.2156 26.2125 98.1733 26.585 98.1847 26.8647C98.194 27.4905 98.2043 27.9432 97.7218 28.4327C97.6817 28.4591 97.708 28.4992 97.7745 28.5129C98.2422 28.263 98.3911 27.8779 98.3945 27.3587C98.3853 26.7328 98.3222 26.1998 99.0168 25.8582C99.5509 25.6221 100.283 25.6002 100.842 25.7504C100.071 25.4524 99.0993 25.4593 98.4701 25.9878Z" fill="#E7A5A0"/>
<path d="M98.7003 29.3976C98.0893 29.1673 97.475 29.4561 97.0669 28.7478C97.2629 29.3083 97.7008 29.5375 98.2189 29.714C98.9628 29.9718 99.5978 30.5884 100.438 30.3809C100.545 30.3683 100.572 30.2353 100.479 30.1815C99.882 29.8847 99.2848 29.5878 98.7003 29.3976Z" fill="#F7E3E2"/>
<path d="M107.379 35.6978C107.463 37.1363 107.627 38.522 107.711 39.9605C107.745 40.7995 107.973 42.5452 107.41 43.2604C107.369 43.2868 107.422 43.367 107.462 43.3407C108.933 42.4316 108.275 39.2452 108.163 37.9397C107.955 35.2622 106.837 31.1141 108.834 28.997L108.808 28.9568C106.961 30.5158 107.247 33.4868 107.379 35.6978Z" fill="#B45244"/>
<path d="M107.164 36.0697C107.17 37.2148 107.11 38.3461 107.155 39.4647C107.174 40.7164 107.445 42.0895 107.183 43.3527C107.17 43.4191 107.236 43.4329 107.25 43.3664C108.021 41.4809 107.997 39.0841 108.037 37.0473C108.044 36.0089 107.998 34.8902 108.111 33.8391C108.297 31.9364 109.585 30.4004 110.898 29.0776C108.41 30.8853 107.211 32.9944 107.164 36.0697Z" fill="#B45244"/>
<path d="M107.894 36.5673C107.88 38.6442 107.933 40.7349 107.4 42.8084C107.386 42.8749 107.453 42.8886 107.467 42.8222C108.357 41.0306 108.849 39.1565 108.768 37.1988C108.653 34.4021 109.734 32.0259 111.121 29.6784C109.47 31.6248 107.898 33.8646 107.894 36.5673Z" fill="#B45244"/>
<path d="M108.214 38.3662C107.777 39.9744 107.367 41.6227 107.676 43.3156C107.702 43.3557 107.768 43.3694 107.782 43.303C108.523 39.8861 109.108 36.0554 110.912 33.0316L110.885 32.9915C109.557 34.5539 108.786 36.4394 108.214 38.3662Z" fill="#B45244"/>
<path d="M108.148 38.3528C107.804 40.0148 107.311 42.2351 108.192 43.8386C108.218 43.8787 108.325 43.8661 108.299 43.8259C108.069 42.2534 108.535 40.3392 108.784 38.7964C109.144 36.7217 109.639 34.3284 110.783 32.4852L110.756 32.4451C109.348 34.0602 108.655 36.2392 108.148 38.3528Z" fill="#B45244"/>
<path d="M108.869 40.0611C107.904 41.0401 107.534 42.662 107.366 43.979C107.282 44.5509 108.12 44.6896 108.244 44.0912C108.477 42.9611 108.591 41.91 109.21 40.9288C110.232 39.3378 112.034 38.6706 113.821 38.2429C113.821 38.2429 113.861 38.2165 113.794 38.2028C112.036 38.3244 110.249 38.7521 108.869 40.0611Z" fill="#D45746"/>
<path d="M107.692 42.9028C107.383 43.3934 108.005 43.9034 108.407 43.4667C108.823 42.9635 109.187 42.3801 109.696 41.9307C110.379 41.3094 111.087 40.9013 111.862 40.507C111.862 40.507 111.902 40.4806 111.835 40.4669C110.09 40.6951 108.701 41.3783 107.692 42.9028Z" fill="#D45746"/>
<path d="M111.357 44.4585C110.637 44.5869 110.014 44.0769 109.31 43.9657C108.299 43.826 107.997 43.105 107.296 42.4747C106.792 42.0586 106.021 41.9338 105.449 41.8501C104.585 41.6714 103.737 41.08 102.817 41.1672C101.938 41.228 101.098 41.4355 100.285 41.5101C99.6194 41.5456 99.0772 40.9829 98.8009 40.4752C98.5636 40.1141 98.0054 39.964 97.6329 39.9216C97.1538 39.8919 97.312 40.1325 96.928 39.8105C96.5703 39.5285 96.1989 39.3131 95.8276 39.0976C95.4034 38.8019 94.0429 39.1791 93.8732 38.6588C93.8435 39.1379 93.8286 39.3774 94.2263 39.633C94.5977 39.8485 96.9796 40.0638 96.8844 40.3561C96.4788 41.312 97.9265 41.8541 98.4698 42.2438C99.2515 42.8214 100.182 43.0139 101.128 42.9668C101.687 42.9439 102.194 42.8407 102.727 42.7776C103.26 42.7145 103.738 42.9174 104.297 42.8944C104.79 42.8577 105.297 42.7545 105.776 42.7843C106.055 42.7728 106.321 42.8278 106.627 42.8564C107.439 42.9549 107.448 43.5807 107.737 44.1951C108.091 44.9963 108.596 45.2392 109.433 45.3778C110.338 45.5302 110.734 45.9589 111.682 45.5657C112.15 45.3158 111.956 44.4091 111.357 44.4585Z" fill="#F1CCCA"/>
<path d="M85.0173 20.6402C85.9183 21.3118 85.8588 22.2701 86.025 23.3097C86.1787 24.2427 86.4252 25.2295 86.5789 26.1625C86.8357 27.6021 86.9963 29.5071 88.1747 30.5134C88.2011 30.5535 88.2148 30.487 88.2148 30.487C86.7602 28.973 87.0866 25.8863 86.9799 23.8884C86.8812 22.6895 86.1452 21.2201 85.0173 20.6402Z" fill="#DC786F"/>
<path d="M85.9473 18.9954C86.5686 19.6785 86.4173 20.4098 86.4518 21.2488C86.4587 22.2208 86.5986 23.2203 86.5655 24.2186C86.5702 25.5368 86.372 27.3329 87.1767 28.4699C87.2031 28.51 87.2432 28.4836 87.2168 28.4435C86.4682 26.8675 87.0297 24.488 87.2267 22.8649C87.3951 21.5479 87.1532 19.8688 85.9473 18.9954Z" fill="#DC786F"/>
<path d="M85.7715 25.5451C86.4329 26.2018 86.5075 27.0144 86.7414 27.8947C86.9489 28.7349 87.3432 29.5097 87.631 30.2971C88.273 31.8857 89.1683 33.4227 90.6939 34.2582C90.7203 34.2983 90.7341 34.2318 90.7077 34.1917C88.9849 32.9688 88.3325 30.9275 87.8395 28.9537C87.5815 27.6872 86.8845 26.3645 85.7715 25.5451Z" fill="#DC786F"/>
<path d="M87.0823 22.5577C86.4567 26.5878 87.7431 31.4293 90.72 34.298C90.7464 34.3382 90.8266 34.2854 90.8003 34.2453C88.4388 30.9146 86.9863 27.044 87.4926 22.9199C87.8741 19.5672 90.6281 15.8041 93.7652 14.5464C90.3748 15.8557 87.6517 18.9666 87.0823 22.5577Z" fill="#F7E3E2"/>
<path d="M106.562 16.188C104.627 16.8277 103.559 19.3104 103.188 21.1054C103.718 19.3781 104.54 17.9189 106.196 17.1176C107.118 16.6842 108.169 16.7976 109.099 17.1632C109.829 17.4875 110.68 17.5597 111.369 18.0834C111.462 18.1373 111.516 18.0445 111.463 17.9642C111.041 17.3224 110.194 16.5579 109.491 16.2737C108.535 15.868 107.603 15.8486 106.562 16.188Z" fill="#E7A5A0"/>
<path d="M102.738 14.7385C102.081 15.4 101.953 16.6906 101.815 17.5285C101.62 18.8054 101.691 20.1372 101.669 21.4153C101.682 19.5114 101.867 17.6087 102.744 15.8836C103.796 13.8135 106.501 15.4822 108.004 15.7583C108.07 15.772 108.164 15.6528 108.072 15.599C106.759 14.7383 104.106 13.3229 102.738 14.7385Z" fill="#E7A5A0"/>
<path d="M103.064 17.8564C103.064 17.8564 103.09 17.8965 103.064 17.8564C104.374 15.0424 106.923 16.1242 109.21 16.6318C109.343 16.6593 109.41 16.5 109.317 16.4461C107.454 14.3968 103.906 15.2923 103.064 17.8564Z" fill="#E7A5A0"/>
<path d="M97.875 13.1085C97.2217 13.2507 96.8447 13.9006 96.6544 14.4852C96.2602 15.7208 96.9939 17.5364 97.3723 18.7238C97.3723 18.7238 97.3986 18.7639 97.4124 18.6974C97.1934 17.5776 96.948 16.4177 97.3147 15.315C97.5049 14.7304 97.7204 14.359 98.2155 13.9762C98.9112 13.4615 99.7892 13.5737 100.588 13.5657C100.655 13.5794 100.602 13.4992 100.602 13.4992C99.5783 13.2528 98.8218 12.8884 97.875 13.1085Z" fill="#F1CCCA"/>
<path d="M99.0928 14.2623C98.608 15.0979 98.4144 16.2017 98.5279 17.1611C98.56 16.3358 98.7914 15.5518 99.2223 14.809C99.4241 14.5041 99.6922 14.2129 99.9868 13.9619C100.321 13.6845 100.76 13.7406 101.147 13.7165C101.253 13.7039 101.241 13.5973 101.214 13.5572C100.473 12.9532 99.4836 13.5459 99.0928 14.2623Z" fill="#F1CCCA"/>
<path d="M91.3183 15.9823C91.2782 16.0087 91.3309 16.0889 91.371 16.0625C91.6644 15.9846 91.9315 15.8665 92.2249 15.7885C92.5584 15.6842 92.8507 15.7793 93.1843 15.675C93.5843 15.5844 93.9316 15.4136 94.3568 15.5362C95.1408 15.7677 95.6384 17.0491 95.9938 17.6772C95.5203 16.7821 95.1134 15.9007 94.3855 15.2302C93.3527 14.358 92.1756 15.1891 91.3183 15.9823Z" fill="#F7E3E2"/>
<path d="M89.7499 17.7026C89.7362 17.769 89.8027 17.7828 89.8428 17.7564C90.4617 16.7752 91.4348 16.5952 92.5523 16.7224C93.4705 16.8083 94.1044 17.5979 94.4322 18.359C94.1582 17.5051 93.6481 16.1171 92.6646 15.8444C91.3224 15.4628 90.1442 16.4669 89.7499 17.7026Z" fill="#F7E3E2"/>
<path d="M88.3399 19.4908C88.3262 19.5573 88.3927 19.5711 88.4328 19.5447C89.1835 18.7641 91.3623 17.4469 92.0994 18.7432C91.8507 18.1025 91.2546 17.6326 90.5497 17.5215C89.4459 17.3279 88.6918 18.6277 88.3399 19.4908Z" fill="#F7E3E2"/>
<path d="M96.623 43.6301C96.6242 43.457 96.5852 43.3103 96.5863 43.1372C96.5852 43.3103 96.5841 43.4834 96.623 43.6301Z" fill="#B45244"/>
<path d="M96.6235 43.629C96.8093 45.7472 96.6352 47.9296 97.1672 50.05C97.752 52.2507 100.017 54.0363 102.183 52.6126C102.304 52.5335 102.252 52.2802 102.079 52.2791C100.988 52.192 99.8415 52.3709 98.874 51.6855C98.0659 51.0678 97.6475 49.9067 97.3872 48.9864C96.8793 47.2522 96.7715 45.4274 96.6235 43.629Z" fill="#B45244"/>
<path d="M96.4712 42.3508C96.5228 42.6041 96.5343 42.8838 96.5859 43.1371C96.5343 42.8838 96.4827 42.6305 96.4712 42.3508Z" fill="#B45244"/>
<path d="M98.2589 51.9751C97.3018 51.7425 96.426 51.2841 95.658 50.64C94.3605 49.5397 93.8273 47.5923 93.5452 45.9395C93.8136 47.6588 94.1358 49.2853 95.1514 50.7432C96.2335 52.2148 98.6613 53.5488 100.449 52.9481C100.596 52.9091 100.611 52.6695 100.518 52.6157C99.8017 52.2249 99.083 52.1802 98.2589 51.9751Z" fill="#B45244"/>
<path d="M99.1893 43.9529C99.1893 43.9529 99.1228 43.9392 99.1893 43.9529C98.9303 44.8699 98.9636 45.882 99.0508 46.8013C99.1357 48.0667 99.247 49.3722 99.5451 50.6123C99.8569 51.786 100.503 52.6823 101.565 53.2485C102.069 53.4914 102.641 53.5751 103.174 53.512C103.92 53.4237 104.111 52.8391 104.46 52.3221C104.608 52.1101 104.476 51.9095 104.237 51.8946C103.824 51.8786 103.466 51.5967 102.973 51.6334C102.654 51.6712 102.321 51.6025 102.043 51.4409C101.34 50.9836 100.746 50.1675 100.338 49.4592C99.3363 47.9348 98.8845 45.7617 99.1893 43.9529Z" fill="#B45244"/>
<path d="M93.329 44.4738C93.3689 44.4476 93.3427 44.4077 93.329 44.4738C93.3028 44.4339 93.329 44.4738 93.329 44.4738Z" fill="#B45244"/>
<path d="M105.54 48.1083C105.282 48.8522 105.091 49.6098 104.74 50.2999C104.39 50.9899 103.748 51.4118 103.159 51.9138C103.078 51.9666 103.065 52.0331 103.117 52.1133C103.445 52.8743 104.124 52.9454 104.831 52.7103C105.725 52.41 106.238 51.2683 106.51 50.4579C106.795 49.5811 106.787 48.7822 106.634 47.8492C106.377 46.4095 106.582 45.5854 107.522 44.3933C107.562 44.3669 107.495 44.3532 107.495 44.3532C106.342 45.5705 106.016 46.6468 105.54 48.1083Z" fill="#B45244"/>
<path d="M103.892 49.8817C103.821 50.5603 103.497 51.1173 103.081 51.6206C103.041 51.6469 103.028 51.7134 103.028 51.7134C103.134 51.7008 102.893 51.859 103.028 51.7134C103.028 51.7134 102.987 51.7398 102.921 51.726C102.841 51.7788 102.72 51.8578 102.64 51.9106C102.291 52.4275 102.66 52.9892 103.245 53.0063C103.978 52.9845 104.745 51.7912 104.882 51.1264C105.242 49.0518 104.55 46.8637 104.711 44.7478C104.327 46.4362 104.102 48.1922 103.892 49.8817Z" fill="#B45244"/>
<path d="M102.988 51.7392C102.893 51.8605 103.138 51.6995 102.988 51.7392V51.7392Z" fill="#B45244"/>
<path d="M114.62 38.2361C114.539 38.2888 114.499 38.3152 114.445 38.408C114.552 38.3954 114.659 38.3828 114.765 38.3702C114.901 38.0515 114.848 37.9713 114.62 38.2361Z" fill="#F1CCCA"/>
<path d="M114.753 38.0905C114.833 38.0378 114.954 37.9587 115.034 37.9059C115.034 37.9059 115.007 37.8658 114.967 37.8922C114.396 37.6355 115.047 37.8395 114.753 38.0905Z" fill="#F1CCCA"/>
<path d="M119.982 30.5755C119.552 31.1452 118.711 31.5258 118.6 32.2307C118.53 32.7362 118.075 33.0927 117.886 33.5042C117.723 33.9558 117.614 34.3146 117.359 34.7123C116.955 35.3222 116.47 36.1578 115.79 36.4329C114.988 36.7871 114.282 36.8491 113.864 37.6985C113.796 37.8578 113.835 38.0045 113.914 38.1248C114.02 38.2853 114.219 38.3265 114.392 38.3277C114.473 38.2749 114.513 38.2486 114.567 38.1557C114.795 37.8909 114.888 37.9448 114.712 38.2898C114.606 38.3024 114.499 38.3151 114.392 38.3277C114.232 38.4331 114.058 38.6051 113.871 38.6704C113.497 38.8011 113.162 39.2516 112.867 39.5026C112.077 40.1366 111.738 41.1063 111.015 41.7539C110.372 42.3489 109.715 43.0103 108.953 43.5112L108.979 43.5513C109.567 43.2223 110.129 42.8532 110.664 42.444C110.999 42.1666 111.347 41.8227 111.682 41.5453C111.936 41.3206 112.323 41.2965 112.603 41.1119C113.111 40.8357 113.807 40.321 114.09 39.7903C114.319 39.3524 114.511 38.5947 115.005 38.3849C115.151 38.346 115.231 38.2932 115.285 38.2004C115.313 38.0674 115.3 37.9608 115.141 37.8932C115.115 37.8531 115.048 37.8394 114.982 37.8256C114.861 37.9047 114.781 37.9574 114.701 38.0102C114.995 37.7591 114.331 37.6216 114.955 37.7855L115.022 37.7992C115.449 37.5757 115.97 37.406 116.252 37.0484C116.802 36.3996 117.536 36.0316 117.927 35.3152C118.466 34.3867 118.047 33.2257 119.262 32.7144C120.143 32.4805 120.097 31.3618 119.982 30.5755C120.048 30.5893 120.022 30.5491 119.982 30.5755Z" fill="#F1CCCA"/>
<path d="M105.748 49.2947C105.598 49.8529 105.5 50.4913 105.217 51.022C104.84 51.6719 104.212 52.0273 103.584 52.3827C103.036 52.6853 103.577 53.4211 104.098 53.2515C105.472 52.8078 106.278 51.7612 106.433 50.3376C106.589 48.9141 105.745 47.6304 106.421 46.2102C105.975 47.1925 105.994 48.2711 105.748 49.2947Z" fill="#753D36"/>
<path d="M103.212 52.5132C101.82 53.5426 100.728 51.6182 100.108 50.762C100.081 50.7219 100.041 50.7483 100.027 50.8148C100.369 51.5093 100.55 52.3094 100.958 53.0177C101.406 53.6997 102.431 53.7729 103.138 53.5379C104.86 52.9234 104.528 50.6712 104.378 49.2189C104.318 50.3502 104.242 51.7211 103.212 52.5132Z" fill="#753D36"/>
<path d="M99.3105 52.2619C98.2617 51.8023 97.6152 50.906 97.2759 49.8653C97.832 52.372 100.378 53.9731 102.846 53.2703C102.992 53.2313 102.967 53.0181 102.834 52.9906C101.597 52.7695 100.386 52.7615 99.3105 52.2619Z" fill="#753D36"/>
<path d="M108.133 46.9799C107.198 47.4797 106.712 48.4884 106.227 49.324C106.658 48.5813 107.048 48.0379 107.916 47.6974C108.864 47.3042 109.391 48.1065 109.933 48.6693C110.131 48.8836 110.584 48.8733 110.627 48.5007C110.688 47.1964 109.336 46.362 108.133 46.9799Z" fill="#B45244"/>
<path d="M106.683 48.795C107.009 47.7187 108.451 47.1157 109.452 46.8027C110.012 46.6066 110.572 46.5837 111.157 46.6008C111.743 46.618 112.02 46.9526 112.391 47.3412C112.589 47.5555 112.99 47.2918 112.938 47.0385C112.397 44.2923 106.922 46.7994 106.683 48.795Z" fill="#B45244"/>
<path d="M107.369 48.0005C105.924 49.1227 105.073 50.8879 103.8 52.1844C103.398 52.6211 104.073 53.2114 104.514 52.9213C105.571 52.1694 106.217 51.0552 106.797 49.9273C107.08 49.3966 107.244 48.7719 107.553 48.2813C108.172 47.3001 109.073 47.9717 109.642 48.5746C108.995 47.6783 108.319 47.2611 107.369 48.0005Z" fill="#753D36"/>
<path d="M114.725 32.3645C112.573 33.7218 110.907 35.9077 110.173 38.2862C111.066 36.1484 112.635 34.4279 114.745 33.4431C115.973 32.8653 117.066 32.7793 118.396 32.8812C118.809 32.8972 119.344 32.488 119.094 32.0204C118.253 30.3905 115.835 31.6928 114.725 32.3645Z" fill="#E7A5A0"/>
<path d="M116.201 30.5908C115.092 31.2626 114.098 32.5475 113.518 33.6754C114.27 32.7217 115.245 32.1956 116.484 32.0705C117.364 32.0097 118.134 32.3077 118.972 32.4463C119.876 32.5987 120.362 31.59 119.887 30.8679C119.123 29.7046 117.19 29.9981 116.201 30.5908Z" fill="#E7A5A0"/>
<path d="M117.574 28.1361C115.91 28.1385 114.993 29.89 114.611 31.2322L114.638 31.2723C115.191 30.1043 116.183 29.1655 117.564 29.6938C118.308 29.9516 118.301 30.9901 119.085 31.2216C119.603 31.3981 120.123 31.2284 120.406 30.6977C120.811 29.9148 120.27 29.179 119.7 28.7492C119.011 28.2254 118.306 28.1143 117.574 28.1361Z" fill="#E7A5A0"/>
<path d="M117.317 24.6867C115.547 24.7017 114.472 26.2125 113.77 27.5926C114.563 26.4394 115.554 25.6737 117.017 25.8031C117.935 25.889 118.463 26.6913 119.341 26.8036C119.407 26.8173 119.514 26.8047 119.568 26.7119C120.601 25.4005 118.249 24.7061 117.317 24.6867Z" fill="#E7A5A0"/>
<path d="M114.734 24.7754C115.644 24.0624 116.631 23.8159 117.626 24.3683C118.25 24.7053 118.806 25.2015 119.095 25.8159C119.174 25.9362 119.347 25.9374 119.374 25.8044C119.58 24.8072 118.867 23.8972 118.018 23.4789C116.784 22.9116 115.512 23.8619 114.734 24.7754Z" fill="#E7A5A0"/>
<path d="M103.619 24.5581C103.188 25.3008 104.515 26.0951 104.945 25.3523C105.323 24.7024 105.752 24.1327 106.156 23.5229C106.869 22.4225 108.134 22.3375 109.358 22.4521C107.152 21.8917 104.778 22.4753 103.619 24.5581Z" fill="#E7A5A0"/>
<path d="M104.851 25.4709C104.738 26.5219 106.162 26.6777 106.434 25.6943C107.047 23.568 110.192 23.1093 111.958 23.9597L111.998 23.9333C109.984 22.4422 105.272 22.2649 104.851 25.4709Z" fill="#E7A5A0"/>
<path d="M105.49 25.7411C104.87 26.8954 106.729 27.6266 107.335 26.5388C107.686 25.8487 108.392 25.7868 109.059 25.5781C109.927 25.2376 110.686 25.0828 111.616 25.4484C110.741 24.8169 109.708 24.1178 108.604 23.9242C107.3 23.6893 106.056 24.6797 105.49 25.7411Z" fill="#E7A5A0"/>
<path d="M108.323 25.9467C107.058 26.0316 106.022 27.6891 105.562 28.7379C105.075 29.9196 106.894 30.6771 107.408 29.5355C107.732 28.8053 108.135 28.1955 108.672 27.6132C109.409 26.8991 109.628 26.0085 110.93 26.4164C110.122 25.7987 109.309 25.8732 108.323 25.9467Z" fill="#E7A5A0"/>
<path d="M116.457 21.8046C115.928 21.3485 115.678 20.8809 115.014 20.5703C114.669 20.3949 114.324 20.2196 114.019 20.0179C113.264 19.4804 114.519 18.9427 114.826 18.7983C113.479 19.109 113.062 19.7853 114.362 20.5394C115.29 21.078 115.804 21.9468 116.639 22.6047C117.115 22.9806 117.713 23.2774 118.23 23.627C119.104 24.2585 119.378 25.1124 119.771 26.0603C119.771 26.0603 119.798 26.1004 119.811 26.0339C119.63 25.2339 119.463 24.3673 118.814 23.8172C118.02 23.133 117.252 22.4889 116.457 21.8046Z" fill="#E7A5A0"/>
<path d="M105.141 29.9322C105.567 29.8817 105.912 30.0571 106.3 29.8599C106.42 29.7808 106.569 29.3957 106.663 29.2765C106.771 29.0908 106.812 28.8913 106.839 28.7584C106.051 29.2192 105.236 29.6399 104.395 30.0205C104.674 30.009 104.928 29.9574 105.141 29.9322Z" fill="#D45746"/>
<path d="M105.25 27.5631C104.258 28.675 102.765 26.8412 102.491 30.0081C102.475 30.4208 102.45 30.2076 103.343 30.0803C103.703 30.0161 104.049 30.0183 104.395 30.0206C105.263 29.6801 106.235 29.6732 106.84 28.7585C106.909 28.4261 106.937 28.12 106.926 27.8403C106.635 25.5617 104.494 25.1882 103.151 24.8066C104.116 25.8381 106.283 26.4248 105.25 27.5631Z" fill="#D8685C"/>
<path d="M99.3917 27.5645C99.1648 27.6563 98.9114 27.7079 98.6845 27.7996C98.6845 27.7996 98.7109 27.8397 98.7372 27.8798C98.7109 27.8397 98.6708 27.8661 98.6444 27.8259L98.6845 27.7996C98.6581 27.7595 98.6719 27.693 98.6455 27.6529C98.5664 27.5325 98.5676 27.3594 98.5286 27.2127C98.5022 27.1726 98.4621 27.199 98.4885 27.2391C98.4999 27.5188 98.1916 27.8363 98.3762 28.1171C98.5344 28.3578 98.8817 28.187 99.0685 28.1216C99.8296 27.7938 100.765 27.2939 101.275 26.6715C100.726 27.1472 99.9923 27.3421 99.3917 27.5645Z" fill="#753D36"/>
<path d="M98.6719 27.8662C98.6719 27.8662 98.6453 27.8257 98.6186 27.7851L98.5781 27.8118C98.6453 27.8257 98.6453 27.8257 98.6719 27.8662Z" fill="#753D36"/>
<path d="M98.4762 26.9596C98.3273 27.3447 98.3112 27.7574 98.7227 27.9465C98.9486 28.0278 99.1354 27.9625 99.2958 27.857C99.5767 27.6725 99.8838 27.528 100.191 27.3836C100.191 27.3836 100.231 27.3572 100.165 27.3435C99.6981 27.4203 98.6712 27.6932 98.4762 26.9596Z" fill="#753D36"/>
<path d="M97.1368 28.2424C96.9878 28.6276 97.585 28.9244 97.7477 28.4728C97.8566 28.114 97.899 27.7415 97.9677 27.4091C98.0502 27.0102 98.1086 26.225 98.5098 25.9614C97.8668 26.5563 97.4084 27.4321 97.1368 28.2424Z" fill="#753D36"/>
<path d="M85.196 38.2167C83.7965 38.4472 81.7197 40.444 83.4563 41.6004C83.642 41.7082 83.8815 41.7231 84.042 41.6176C84.2426 41.4858 84.3778 41.1671 84.552 40.9952C84.9955 40.359 85.4368 40.069 86.144 39.834C87.4655 39.31 88.8639 39.2526 90.2485 39.2617C88.6678 38.6922 86.9416 37.9885 85.196 38.2167Z" fill="#F7E3E2"/>
<path d="M84.0604 40.6852C83.4346 40.6944 83.3097 41.4658 83.5333 41.8933C83.915 42.5615 84.7953 42.3276 85.3431 42.025C86.0916 41.5905 86.0709 40.685 86.9511 40.4511C86.9511 40.4511 86.9511 40.4511 86.9248 40.411C85.9551 40.0718 85.0725 40.6518 84.0604 40.6852Z" fill="#F7E3E2"/>
<path d="M78.6937 34.7922C77.7584 35.292 76.7258 36.4303 76.9047 37.5765C77.0836 38.7226 77.8642 39.4734 79.0631 39.3747C79.1697 39.3621 79.1835 39.2956 79.1307 39.2154C78.6825 38.5334 78.4716 38.2125 78.7168 37.362C78.8944 36.6708 79.5764 36.2226 80.1907 35.9337C82.1667 35.0945 84.3468 35.6148 86.1373 36.6783L86.1774 36.6519C84.2035 35.1345 81.0857 33.4498 78.6937 34.7922Z" fill="#F7E3E2"/>
<path d="M78.2818 38.7967C78.0388 39.301 78.487 39.983 79.1002 39.8672C79.7799 39.7651 80.1558 39.2883 80.6911 38.879C81.922 37.9551 82.1454 36.3722 84.0218 36.5176C82.8653 36.2437 81.852 36.4501 80.7448 36.7757C79.9448 36.9569 78.6462 38.0402 78.2818 38.7967Z" fill="#F7E3E2"/>
<path d="M79.1609 32.7046C77.6136 33.1471 75.8257 35.7583 76.6946 37.2552C76.9182 37.6827 77.45 37.7927 77.7721 37.4087C78.1743 36.972 78.2442 36.4665 78.4345 35.8819C78.6648 35.271 79.0281 34.6875 79.4969 34.2646C80.8631 33.022 82.1949 32.9508 83.7859 33.9731C82.5411 32.9531 80.8149 32.2494 79.1609 32.7046Z" fill="#F7E3E2"/>
<path d="M82.4186 37.3987C81.4833 37.8985 80.6512 38.905 80.9367 40.0385C81.2233 40.999 82.5437 40.6482 82.7087 39.8504C82.8187 39.3186 83.088 38.8544 83.2645 38.3363C83.5086 37.6588 84.8806 37.5613 85.4675 37.4054C85.4675 37.4054 85.5076 37.379 85.4812 37.3389C84.5895 37.2931 83.3137 36.9253 82.4186 37.3987Z" fill="#F7E3E2"/>
<path d="M87.6836 42.4394C87.6432 42.4659 87.6432 42.4659 87.6836 42.4394C87.7101 42.4797 87.7101 42.4797 87.7101 42.4797C87.7504 42.4532 87.7101 42.4797 87.6836 42.4394Z" fill="#F7E3E2"/>
<path d="M96.2136 41.0847C95.5053 41.4928 95.1409 42.2493 94.6572 42.9118C94.2939 43.4953 92.9918 43.0873 92.5001 42.951C91.6897 42.6794 91.3332 42.2244 91.0454 41.4369C90.9537 41.21 90.5571 40.7813 90.2499 40.9258C89.3284 41.3591 88.8024 42.3942 87.6699 42.5066C88.0562 42.4825 88.3496 42.4045 88.6705 42.1936C88.9112 42.0354 89.8763 41.0565 90.2213 41.2318C90.7119 41.5413 90.6546 42.1533 90.9183 42.5545C91.1556 42.9155 91.433 43.2502 91.8445 43.4393C92.7202 43.8977 93.4515 44.049 94.3867 43.5492C95.322 43.0493 95.3574 41.7048 96.24 41.1248C96.3065 41.1386 96.2537 41.0583 96.2136 41.0847Z" fill="#F7E3E2"/>
<path d="M92.4206 42.83C92.4608 42.8036 92.5009 42.7773 92.5811 42.7245L92.5948 42.6581C92.596 42.485 92.5158 42.5377 92.4206 42.83Z" fill="#F7E3E2"/>
<path d="M92.7426 40.2623C91.9677 40.6566 90.8801 42.0608 91.8338 42.8126C91.9794 42.9467 92.3118 43.0155 92.486 42.8435C92.5261 42.8172 92.5399 42.7507 92.58 42.7243C92.5399 42.7507 92.4997 42.7771 92.4195 42.8298C92.5547 42.5111 92.5949 42.4848 92.5937 42.6579L92.58 42.7243C92.6602 42.6716 92.7805 42.5925 92.8344 42.4997C93.1966 42.0893 93.639 41.6262 93.8819 41.1218C94.259 40.4719 94.8596 40.2495 95.5519 40.254C94.7679 40.0226 93.4371 39.9207 92.7426 40.2623Z" fill="#F7E3E2"/>
<path d="M94.0009 41.3896C93.4656 41.7988 92.959 41.902 92.3447 42.1909C91.8369 42.4671 91.845 43.266 92.4835 43.3634C94.0526 43.6533 94.2141 41.3643 95.429 40.853C94.8834 40.8095 94.4158 41.0594 94.0009 41.3896Z" fill="#F7E3E2"/>
<path d="M97.9733 26.7167C97.9183 26.9826 97.9402 27.715 97.5023 27.4858C97.2238 27.3242 96.8238 27.4148 96.5177 27.3862C96.3446 27.385 96.0523 27.2899 95.8919 27.3954C95.8919 27.3954 95.8518 27.4218 95.8781 27.4619C95.9297 27.7152 96.3149 27.8642 96.4868 28.0384C96.8582 28.2538 97.0829 28.5083 97.5356 28.4979C98.5076 28.491 97.9195 26.8095 98.1888 26.3453L98.1624 26.3052C98.1086 26.398 98.041 26.5574 97.9733 26.7167Z" fill="#753D36"/>
<path d="M110.223 26.4773C108.395 27.1044 108.016 30.1109 105.782 29.6835C104.878 29.5311 103.863 29.9106 102.984 29.9714C102.145 30.0059 100.881 29.9177 100.093 30.2055C99.6796 30.3625 99.2658 30.5196 98.8784 30.7167C98.4108 30.9667 97.8411 30.5369 97.4972 30.1884C96.8358 29.5317 95.6655 29.3243 94.8001 29.3187C93.7616 29.3119 92.8974 29.1331 91.9139 28.8604C90.9568 28.6278 89.7408 29.3122 89.0415 28.3356C88.9624 28.2153 88.8019 28.3208 88.8146 28.4274C89.0565 30.1065 91.2263 30.174 92.4928 29.916C93.7193 29.6844 95.0718 30.5187 96.1745 30.8854C96.7591 31.0757 97.3586 31.0263 97.9695 31.2567C98.3283 31.3655 98.726 31.6211 99.1123 31.597C99.565 31.5867 99.9925 31.3631 100.458 31.4594C100.923 31.5556 101.416 31.5189 101.856 31.402C102.67 31.1543 102.994 30.4242 104.031 30.7771C104.482 30.9399 104.949 30.863 105.415 30.7862C106.282 30.6188 107.297 30.0662 107.874 29.4576C108.772 28.4649 108.862 27.0275 110.223 26.4773C110.33 26.4647 110.316 26.5311 110.223 26.4773Z" fill="#F7E3E2"/>
<path d="M102.831 24.671C103.161 25.0859 103.666 25.3289 104.09 25.6246C104.659 26.0543 106.037 27.1019 104.598 27.3587C103.918 27.4608 103.345 27.5502 102.822 28.0661C102.394 28.4627 102.415 29.1951 102.438 29.7544C102.465 29.7946 102.505 29.7682 102.505 29.7682C102.549 29.0495 102.58 28.3973 103.315 28.0293C103.702 27.8322 104.234 27.9422 104.621 27.9181C105.047 27.8676 105.807 27.7128 105.758 27.1134C105.646 25.8078 103.612 25.4217 102.831 24.671Z" fill="#F1CCCA"/>
<defs>
<linearGradient id="paint0_linear" x1="65.0982" y1="48.1433" x2="65.0982" y2="63.0079" gradientUnits="userSpaceOnUse">
<stop stop-color="#D45746"/>
<stop offset="0.609375" stop-color="#F88880"/>
<stop offset="0.9998" stop-color="#F0BAB6"/>
<stop offset="0.9999" stop-color="#F1CCCA"/>
<stop offset="1" stop-color="#D45746" stop-opacity="0"/>
</linearGradient>
<linearGradient id="paint1_linear" x1="33.2914" y1="30.8003" x2="33.2914" y2="54.0732" gradientUnits="userSpaceOnUse">
<stop stop-color="#D45746"/>
<stop offset="0.609375" stop-color="#F88880"/>
<stop offset="0.9998" stop-color="#F0BAB6"/>
<stop offset="0.9999" stop-color="#F1CCCA"/>
<stop offset="1" stop-color="#D45746" stop-opacity="0"/>
</linearGradient>
<linearGradient id="paint2_linear" x1="25.4158" y1="53.7517" x2="25.4158" y2="64.6542" gradientUnits="userSpaceOnUse">
<stop stop-color="#D45746"/>
<stop offset="0.609375" stop-color="#F88880"/>
<stop offset="0.9998" stop-color="#F0BAB6"/>
<stop offset="0.9999" stop-color="#F1CCCA"/>
<stop offset="1" stop-color="#D45746" stop-opacity="0"/>
</linearGradient>
<linearGradient id="paint3_linear" x1="77.7953" y1="26.2571" x2="77.7953" y2="51.6756" gradientUnits="userSpaceOnUse">
<stop stop-color="#D45746"/>
<stop offset="0.609375" stop-color="#F88880"/>
<stop offset="0.9998" stop-color="#F0BAB6"/>
<stop offset="0.9999" stop-color="#F1CCCA"/>
<stop offset="1" stop-color="#D45746" stop-opacity="0"/>
</linearGradient>
<linearGradient id="paint4_linear" x1="93.8475" y1="48.4399" x2="93.8475" y2="58.4648" gradientUnits="userSpaceOnUse">
<stop stop-color="#D45746"/>
<stop offset="0.609375" stop-color="#F88880"/>
<stop offset="0.9998" stop-color="#F0BAB6"/>
<stop offset="0.9999" stop-color="#F1CCCA"/>
<stop offset="1" stop-color="#D45746" stop-opacity="0"/>
</linearGradient>
<linearGradient id="paint5_linear" x1="135.426" y1="48.1453" x2="135.426" y2="63.0099" gradientUnits="userSpaceOnUse">
<stop stop-color="#D45746"/>
<stop offset="0.609375" stop-color="#F88880"/>
<stop offset="0.9998" stop-color="#F0BAB6"/>
<stop offset="0.9999" stop-color="#F1CCCA"/>
<stop offset="1" stop-color="#D45746" stop-opacity="0"/>
</linearGradient>
<linearGradient id="paint6_linear" x1="167.237" y1="30.7988" x2="167.237" y2="54.0715" gradientUnits="userSpaceOnUse">
<stop stop-color="#D45746"/>
<stop offset="0.609375" stop-color="#F88880"/>
<stop offset="0.9998" stop-color="#F0BAB6"/>
<stop offset="0.9999" stop-color="#F1CCCA"/>
<stop offset="1" stop-color="#D45746" stop-opacity="0"/>
</linearGradient>
<linearGradient id="paint7_linear" x1="175.11" y1="53.7534" x2="175.11" y2="64.6533" gradientUnits="userSpaceOnUse">
<stop stop-color="#D45746"/>
<stop offset="0.609375" stop-color="#F88880"/>
<stop offset="0.9998" stop-color="#F0BAB6"/>
<stop offset="0.9999" stop-color="#F1CCCA"/>
<stop offset="1" stop-color="#D45746" stop-opacity="0"/>
</linearGradient>
<linearGradient id="paint8_linear" x1="122.731" y1="26.2571" x2="122.731" y2="51.6751" gradientUnits="userSpaceOnUse">
<stop stop-color="#D45746"/>
<stop offset="0.609375" stop-color="#F88880"/>
<stop offset="0.9998" stop-color="#F0BAB6"/>
<stop offset="0.9999" stop-color="#F1CCCA"/>
<stop offset="1" stop-color="#D45746" stop-opacity="0"/>
</linearGradient>
<linearGradient id="paint9_linear" x1="106.683" y1="48.4399" x2="106.683" y2="58.4648" gradientUnits="userSpaceOnUse">
<stop stop-color="#D45746"/>
<stop offset="0.609375" stop-color="#F88880"/>
<stop offset="0.9998" stop-color="#F0BAB6"/>
<stop offset="0.9999" stop-color="#F1CCCA"/>
<stop offset="1" stop-color="#D45746" stop-opacity="0"/>
</linearGradient>
</defs>
</svg>
