<svg width="303" height="156" viewBox="0 0 303 156" fill="none" xmlns="http://www.w3.org/2000/svg">
<path d="M28.0491 41.6493H15.4437V81.5323H17.6281V82.5908H0V81.5323H2.78264V1.92153H0V1.08887H29.3708C56.4738 1.46992 55.4303 42.8489 28.0491 41.6493ZM28.1464 1.92153H15.4437V40.6896H28.0491C41.9762 34.5364 40.557 9.92354 28.1464 1.92153Z" fill="#682954"/>
<path d="M112.851 81.532V82.5904H93.219V81.532H95.5007L87.7371 56.9612H62.6098L53.608 81.659H55.8758V82.6187H50.3105V81.659H52.5923L81.7684 0.509277L110.388 81.532H112.851ZM87.5563 55.9733L75.9944 19.9288L62.9159 55.9733H87.5563Z" fill="#682954"/>
<path d="M188.65 81.1508C187.049 81.916 185.3 82.3112 183.53 82.3081C182.157 82.2962 180.791 82.1017 179.468 81.7295C177.017 81.1166 174.739 79.9399 172.808 78.2904C170.878 76.6409 169.348 74.5629 168.337 72.2173C167.454 70.1484 166.981 67.9232 166.946 65.6689L167.043 61.6326C167.043 52.7979 164.01 45.5862 155.203 41.4511H145.06V81.052H147.62V82.1105H129.714V81.052H132.497V1.92071H129.714V0.989258H157.666C167.989 1.76547 179.37 8.58203 179.37 21.1708C179.37 30.5982 172.414 38.5721 162.883 40.9289C172.525 43.187 179.481 51.7394 179.481 61.1951L179.565 70.7072C179.565 72.4431 181.081 80.5157 186.522 80.5157C187.079 80.5342 187.631 80.4027 188.122 80.1347L188.65 81.1508ZM145.158 1.92071V40.4914H157.22C170.967 34.6345 170.674 9.16066 157.888 1.94894L145.158 1.92071Z" fill="#682954"/>
<path d="M220.483 81.6316H223.266V82.5913H204.942V81.6316H207.725V1.66769H204.942V0.708008H223.238V1.66769H220.456L220.483 81.6316Z" fill="#682954"/>
<path d="M299.219 58.5716C298.941 67.7874 292.499 75.86 281.98 79.9952C277.899 81.6105 273.561 82.457 269.18 82.4932C257.911 82.0133 247.114 77.977 239.531 69.2269C238.503 68.0691 237.959 66.5506 238.015 64.993C237.986 64.1485 238.128 63.3069 238.43 62.5195C238.733 61.7322 239.19 61.0156 239.775 60.4135C240.359 59.8113 241.059 59.3362 241.83 59.0171C242.601 58.698 243.429 58.5416 244.262 58.5575C245.1 58.5402 245.933 58.6948 246.712 59.012C247.49 59.3291 248.197 59.8023 248.791 60.4031C249.384 61.004 249.852 61.7202 250.167 62.5089C250.481 63.2976 250.635 64.1425 250.62 64.993C250.6 65.9297 250.382 66.8511 249.981 67.6953C249.581 68.5395 249.006 69.2869 248.297 69.8873C247.588 70.4876 246.761 70.9269 245.87 71.1757C244.98 71.4246 244.047 71.4771 243.135 71.3298C250.091 77.8641 259.232 80.7573 269.18 81.4206C279.42 81.4206 288.227 76.3258 287.184 64.3156C286.433 53.8437 265.674 48.6501 256.686 44.0352C248.63 40.1964 239.058 34.6218 239.058 24.2769C239.809 9.64171 255.351 0.609375 268.707 0.609375C278.572 0.609375 287.754 4.54691 293.445 11.7587V8.78082H294.488V16.4724H293.445V13.8756C288.52 6.46628 279.045 1.66785 268.707 1.66785C265.53 1.66777 262.37 2.14333 259.33 3.07915C251.747 5.90176 249.284 15.4704 251.093 20.3817C253.556 26.535 262.363 30.4725 262.46 30.4725L283.33 39.4061C290.607 42.511 299.984 49.3417 299.219 58.5716Z" fill="#682954"/>
<path d="M182.063 111.427C183.257 109.667 184.561 107.565 185.975 105.121C187.443 102.668 188.762 100.13 189.932 97.5074C191.095 94.8315 192.042 92.1624 192.773 89.5C193.504 86.8377 193.753 84.3865 193.519 82.1467C193.466 82.155 193.409 82.1368 193.348 82.0922C192.364 82.03 191.381 82.1572 190.4 82.4738C189.411 82.7375 188.469 83.1294 187.574 83.6495C186.678 84.1695 185.79 84.7425 184.911 85.3685C184.031 85.9944 183.205 86.612 182.431 87.2213C180.876 88.3871 179.194 89.7894 177.386 91.4284C175.578 93.0674 173.785 94.8123 172.01 96.6631C170.226 98.4609 168.529 100.299 166.92 102.178C165.364 104.048 164.033 105.802 162.929 107.439L163.008 107.427C162.711 107.961 162.354 108.64 161.938 109.465C161.567 110.228 161.231 111.039 160.929 111.9C160.627 112.76 160.43 113.604 160.34 114.431C160.25 115.259 160.359 115.973 160.667 116.575C161.577 117.57 163.023 118.346 165.004 118.902C167.037 119.45 169.278 119.939 171.727 120.367C174.221 120.734 176.775 121.146 179.391 121.603C181.998 122.006 184.388 122.58 186.56 123.323C188.784 124.057 190.592 125.075 191.982 126.374C193.416 127.612 194.155 129.258 194.197 131.311C194.229 132.227 194.033 133.071 193.609 133.842C193.238 134.605 192.722 135.31 192.063 135.955C191.448 136.54 190.772 137.079 190.035 137.574C189.298 138.07 188.583 138.534 187.891 138.968C187.004 139.541 186.014 140.157 184.923 140.816C183.893 141.52 182.794 142.126 181.626 142.635C180.518 143.188 179.391 143.609 178.243 143.898C177.096 144.186 175.934 144.206 174.759 143.957C173.233 143.546 171.698 142.893 170.153 141.997C168.616 141.155 167.407 140.152 166.526 138.99C165.636 137.774 165.253 136.506 165.376 135.186C165.545 133.805 166.58 132.423 168.481 131.04L173.822 135.161C173.065 135.876 172.413 136.574 171.867 137.256C171.321 137.938 171.093 138.57 171.182 139.153C172.362 139.076 173.574 138.858 174.82 138.5C176.11 138.081 177.335 137.59 178.495 137.029C179.708 136.459 180.856 135.818 181.939 135.106C183.075 134.385 184.127 133.651 185.097 132.902C185.247 132.825 185.532 132.563 185.952 132.118C186.424 131.664 186.893 131.184 187.357 130.678C187.813 130.118 188.168 129.602 188.421 129.128C188.665 128.602 188.635 128.227 188.33 128.004C186.781 127.435 185.028 126.951 183.071 126.554C181.16 126.095 179.305 125.654 177.507 125.232C175.543 124.782 173.491 124.291 171.351 123.76C169.265 123.22 167.158 122.548 165.031 121.744C164.051 121.356 162.979 120.901 161.816 120.379C160.698 119.795 159.621 119.124 158.584 118.366C157.548 117.607 156.658 116.744 155.914 115.777C155.118 114.818 154.623 113.703 154.429 112.433C154.194 110.897 154.41 109.292 155.075 107.615C155.732 105.886 156.508 104.409 157.405 103.184C161.133 98.1543 165.284 93.4101 169.858 88.9519C174.484 84.4853 179.603 80.7546 185.212 77.7598C187.385 77.0933 189.467 77.0647 191.455 77.6738C193.444 78.283 195.203 79.3348 196.731 80.8293C197.45 81.6379 198.029 82.4142 198.467 83.1584C198.959 83.8942 199.292 84.655 199.466 85.4407C199.64 86.2264 199.69 87.0859 199.615 88.019C199.541 88.9521 199.351 90.0118 199.044 91.1982C197.974 95.54 196.482 99.7853 194.569 103.934C192.649 108.03 190.352 111.968 187.679 115.748L182.063 111.427ZM199.922 94.3938C201.139 94.2028 202.228 94.0589 203.188 93.9624C204.193 93.8045 205.149 93.6815 206.057 93.5932C206.816 91.4685 207.46 89.6598 207.991 88.1672C208.566 86.6134 208.96 85.4675 209.173 84.7295L214.429 88.2945C214.229 88.7595 213.97 89.3693 213.652 90.1239C213.379 90.8173 213.099 91.6471 212.813 92.6135C212.919 92.5969 213.051 92.5761 213.21 92.5512C213.361 92.4733 213.515 92.4219 213.674 92.397L215.103 96.9696C214.265 97.1554 213.532 97.3246 212.906 97.4772C212.324 97.5686 211.742 97.66 211.16 97.7514C210.486 100.08 209.822 102.65 209.168 105.463C208.559 108.214 208.064 111.002 207.682 113.827C207.301 116.651 207.1 119.42 207.081 122.133C207.107 124.785 207.444 127.171 208.092 129.291C208.573 128.891 209.098 128.076 209.669 126.849C210.293 125.612 210.919 124.213 211.548 122.651C212.229 121.081 212.871 119.435 213.475 117.714C214.132 115.985 214.756 114.396 215.348 112.948L220.525 116.526C220.26 117.272 219.929 118.299 219.533 119.608C219.129 120.864 218.658 122.212 218.119 123.652C217.572 125.038 216.916 126.415 216.149 127.782C215.436 129.141 214.611 130.3 213.674 131.261C212.729 132.168 211.687 132.792 210.547 133.134C209.408 133.475 208.135 133.296 206.728 132.595C204.394 131.498 202.795 129.717 201.931 127.251C201.059 124.732 200.653 121.896 200.713 118.742C200.766 115.536 201.15 112.196 201.866 108.723C202.634 105.242 203.507 101.907 204.483 98.7186L203.213 98.918L199.922 94.3938ZM213.285 118.232C214.008 116.221 214.86 114 215.843 111.569C216.766 109.094 217.702 106.535 218.653 103.892C217.894 102.114 217.754 100.483 218.231 98.9988C218.754 97.4533 219.54 96.2186 220.591 95.2948C221.634 94.318 222.782 93.677 224.035 93.3718C225.341 93.0582 226.387 93.1651 227.171 93.6923C227.948 94.1666 228.317 95.1656 228.279 96.6893C228.232 98.16 227.435 100.209 225.886 102.838C226.63 103.1 227.185 103.365 227.551 103.633C227.917 103.901 228.242 104.256 228.526 104.7C228.855 105.082 229.205 105.596 229.574 106.242C229.989 106.828 230.567 107.604 231.311 108.571C232.115 109.583 232.494 110.825 232.448 112.295C232.447 113.705 232.237 115.174 231.821 116.703C231.457 118.224 231.036 119.726 230.559 121.21C230.073 122.642 229.748 123.885 229.584 124.941C230.757 124.106 231.753 123.001 232.572 121.626C233.444 120.242 234.203 118.822 234.847 117.366C235.483 115.857 236.044 114.387 236.53 112.955C237.069 111.516 237.564 110.327 238.017 109.388L243.286 113.033C243.07 113.392 242.815 114.028 242.521 114.942C242.219 115.802 241.835 116.838 241.37 118.049C240.95 119.199 240.458 120.415 239.895 121.696C239.385 122.968 238.806 124.143 238.158 125.221C237.563 126.29 236.895 127.235 236.153 128.056C235.404 128.824 234.604 129.437 233.753 129.896C232.955 130.347 232.098 130.59 231.183 130.625C230.312 130.599 229.477 130.27 228.676 129.637C228.127 129.235 227.578 128.833 227.029 128.432C226.534 128.022 226.038 127.612 225.542 127.202C224.916 126.65 224.526 125.871 224.373 124.865C224.264 123.798 224.275 122.631 224.407 121.363C224.591 120.088 224.851 118.773 225.186 117.42C225.513 116.013 225.826 114.69 226.124 113.451C226.476 112.203 226.741 111.105 226.921 110.155C227.101 109.205 227.106 108.527 226.936 108.12C226.48 107.975 225.998 107.834 225.49 107.697C224.973 107.507 224.465 107.37 223.965 107.286C223.736 107.918 223.504 108.524 223.267 109.103C223.083 109.674 222.896 110.218 222.704 110.736C222.063 112.571 221.388 114.358 220.678 116.095C220.013 117.771 219.289 119.592 218.505 121.558L213.285 118.232ZM243.016 118.116C242.827 119.718 242.738 121.087 242.749 122.223C242.813 123.351 242.918 124.04 243.064 124.288C243.763 124.611 244.514 124.737 245.316 124.666C246.109 124.541 246.886 124.311 247.648 123.974C248.409 123.638 249.131 123.226 249.815 122.74C250.499 122.253 251.1 121.752 251.617 121.237C252.66 120.26 253.55 119.172 254.288 117.972C255.017 116.719 255.664 115.452 256.227 114.172C256.834 112.829 257.385 111.469 257.879 110.091C258.373 108.712 258.923 107.352 259.531 106.01L264.641 109.679C264.045 111.453 263.471 113.196 262.92 114.909C262.369 116.622 261.7 118.272 260.913 119.859C260.171 121.384 259.246 122.776 258.138 124.034C257.083 125.284 255.749 126.307 254.137 127.102C253.001 127.822 251.852 128.274 250.688 128.457C249.577 128.631 248.464 128.616 247.35 128.412C246.288 128.199 245.229 127.823 244.171 127.285C243.167 126.738 242.173 126.081 241.189 125.314C240.32 124.583 239.543 123.756 238.861 122.834C238.178 121.911 237.673 120.906 237.345 119.82C236.899 118.318 236.74 116.744 236.868 115.098C236.943 113.46 237.237 111.842 237.752 110.243C238.213 108.653 238.85 107.144 239.661 105.715C240.517 104.226 241.481 102.909 242.552 101.765C244.65 99.5389 246.709 98.4837 248.731 98.5998C250.753 98.7159 252.874 99.6567 255.093 101.422C256.223 102.437 256.856 103.747 256.993 105.352C257.004 106.488 256.693 107.648 256.062 108.831C255.474 109.953 254.867 110.943 254.24 111.8C252.83 113.919 251.367 115.693 249.852 117.124C248.337 118.554 246.71 119.785 244.972 120.817L243.016 118.116ZM251.113 103.023C249.891 103.54 248.835 104.248 247.943 105.147C247.104 106.037 246.368 107.074 245.736 108.257C245.149 109.38 244.658 110.595 244.262 111.904C243.918 113.204 243.606 114.527 243.324 115.872C244.073 115.104 244.886 114.218 245.761 113.213C246.637 112.208 247.452 111.159 248.206 110.065C249.005 108.91 249.667 107.749 250.193 106.582C250.711 105.362 251.018 104.176 251.113 103.023ZM264.635 114.721C264.446 116.323 264.357 117.692 264.368 118.828C264.432 119.956 264.537 120.645 264.683 120.893C265.383 121.216 266.133 121.343 266.935 121.271C267.728 121.146 268.506 120.916 269.267 120.579C270.028 120.243 270.751 119.832 271.435 119.345C272.119 118.858 272.719 118.357 273.237 117.842C274.279 116.865 275.169 115.777 275.907 114.577C276.637 113.324 277.283 112.057 277.846 110.777C278.454 109.435 279.004 108.074 279.498 106.696C279.992 105.317 280.543 103.957 281.15 102.615L286.26 106.284C285.664 108.058 285.091 109.802 284.54 111.514C283.989 113.227 283.32 114.877 282.533 116.464C281.79 117.99 280.865 119.381 279.757 120.64C278.702 121.889 277.369 122.912 275.757 123.707C274.621 124.427 273.471 124.879 272.307 125.062C271.196 125.236 270.084 125.221 268.969 125.017C267.908 124.804 266.848 124.428 265.791 123.89C264.787 123.343 263.793 122.686 262.809 121.919C261.939 121.188 261.163 120.361 260.48 119.439C259.798 118.516 259.292 117.511 258.964 116.425C258.518 114.923 258.359 113.349 258.487 111.703C258.562 110.065 258.857 108.447 259.371 106.848C259.833 105.258 260.469 103.749 261.28 102.321C262.136 100.831 263.1 99.5143 264.171 98.3705C266.269 96.1439 268.329 95.0887 270.351 95.2049C272.373 95.321 274.493 96.2618 276.713 98.0272C277.843 99.0422 278.476 100.352 278.612 101.957C278.623 103.093 278.313 104.253 277.681 105.436C277.094 106.558 276.487 107.548 275.859 108.406C274.449 110.524 272.987 112.299 271.471 113.729C269.956 115.159 268.33 116.39 266.591 117.422L264.635 114.721ZM272.732 99.6279C271.511 100.145 270.454 100.853 269.562 101.752C268.723 102.642 267.988 103.679 267.356 104.863C266.769 105.985 266.277 107.2 265.881 108.509C265.538 109.81 265.225 111.132 264.943 112.478C265.692 111.709 266.505 110.823 267.381 109.818C268.257 108.813 269.072 107.764 269.825 106.67C270.624 105.515 271.286 104.354 271.813 103.187C272.331 101.967 272.637 100.781 272.732 99.6279ZM280.124 81.7998C281.34 81.6087 282.429 81.4649 283.389 81.3683C284.394 81.2105 285.35 81.0874 286.258 80.9991C287.017 78.8744 287.662 77.0658 288.192 75.5732C288.767 74.0193 289.161 72.8734 289.374 72.1354L294.63 75.7004C294.43 76.1654 294.171 76.7753 293.853 77.5299C293.58 78.2232 293.3 79.0531 293.014 80.0194C293.12 80.0028 293.252 79.982 293.411 79.9571C293.562 79.8792 293.716 79.8279 293.875 79.8029L295.304 84.3755C294.466 84.5613 293.733 84.7306 293.107 84.8832C292.525 84.9746 291.943 85.0659 291.361 85.1573C290.687 87.4855 290.023 90.056 289.369 92.8688C288.76 95.6204 288.265 98.4084 287.883 101.233C287.502 104.057 287.301 106.826 287.282 109.539C287.308 112.191 287.645 114.577 288.293 116.697C288.774 116.297 289.3 115.482 289.87 114.254C290.494 113.018 291.12 111.619 291.749 110.057C292.43 108.487 293.072 106.841 293.676 105.12C294.333 103.391 294.958 101.802 295.549 100.354L300.726 103.932C300.461 104.678 300.13 105.705 299.734 107.014C299.33 108.27 298.859 109.618 298.32 111.058C297.773 112.444 297.117 113.821 296.35 115.188C295.637 116.547 294.812 117.706 293.875 118.667C292.93 119.574 291.888 120.198 290.748 120.54C289.609 120.881 288.336 120.702 286.929 120.001C284.595 118.904 282.996 117.123 282.132 114.657C281.26 112.138 280.854 109.301 280.915 106.148C280.967 102.942 281.351 99.6024 282.067 96.1294C282.835 92.6481 283.708 89.3132 284.684 86.1246L283.414 86.3239L280.124 81.7998Z" fill="#5A946F"/>
</svg>
