<svg width="210" height="70" viewBox="0 0 210 70" fill="none" xmlns="http://www.w3.org/2000/svg">
<path d="M87.2123 38.9185C87.2123 38.9185 84.4048 41.2685 84.4638 44.6885H84.6132C84.6132 44.6885 84.2683 42.6151 87.2123 38.9185Z" fill="#643068"/>
<path d="M75.166 45.635C75.166 45.635 76.1437 47.1716 77.8334 47.3634L77.8426 47.2897C77.8426 47.2897 76.7985 47.3247 75.166 45.635Z" fill="#643068"/>
<path d="M123.48 38.9185C123.48 38.9185 126.288 41.2685 126.229 44.6885H126.08C126.08 44.6885 126.423 42.6151 123.48 38.9185Z" fill="#643068"/>
<path d="M135.526 45.635C135.526 45.635 134.549 47.1716 132.859 47.3634L132.85 47.2897C132.85 47.2897 133.894 47.3247 135.526 45.635Z" fill="#643068"/>
<path d="M201.185 32.0915H199.331C199.331 32.0915 199.204 30.8132 200.641 30.4295C202.078 30.0458 199.667 29.9499 199.187 30.494C198.707 31.0364 197.494 29.1677 197.494 29.1677C197.494 29.1677 198.132 28.0185 199.427 28.88C199.427 28.88 199.89 28.6236 199.235 28.2565C198.58 27.8894 198.42 27.4577 198.612 26.8675C198.803 26.2772 198.979 26.7549 198.979 26.7549C198.979 26.7549 198.005 25.5891 198.372 24.6465C198.372 24.6465 200.401 26.3399 201.679 29.0239C201.679 29.0239 202.351 31.2928 201.104 32.7943C199.859 34.2959 198.787 35.4137 194.97 34.2645C194.97 34.2645 191.567 32.7796 191.888 28.2897C192.209 23.7998 197.829 22.0437 198.357 22.171C198.885 22.2983 204.315 21.4036 206.951 26.6037C209.587 31.8037 206.424 35.9247 206.424 35.9247C206.424 35.9247 203.836 39.6306 200.833 40.7817C197.829 41.9309 194.284 43.5616 184.474 42.8587C174.666 42.1559 164.954 40.2393 158.437 38.5146C151.92 36.7898 137.223 33.2112 124.955 33.0839C112.686 32.9566 104.852 34.9692 104.852 34.9692V31.4237C104.852 31.4237 125.434 27.9742 139.811 31.9034L146.377 32.9105L160.994 36.6478C160.994 36.6478 174.729 41.0547 186.92 41.2484C186.92 41.2484 197.798 42.7813 203.502 37.4631C203.502 37.4631 208.693 33.6299 206.265 27.3028C206.265 27.3028 203.518 20.8816 195.946 23.6928C195.946 23.6928 192.144 25.163 192.463 30.0827C192.463 30.0827 192.655 33.9011 197.256 34.5228C197.256 34.5191 199.875 34.663 201.185 32.0915Z" fill="#E0A50B" fill-opacity="0.8"/>
<path d="M104.854 29.7911C104.854 29.7911 112.306 19.8226 127.64 26.6275C127.64 26.6275 144.892 38.8963 148.727 38.8963C152.562 38.8963 157.448 43.4969 167.129 29.6952C176.81 15.8935 183.998 20.6379 184.716 21.4053C185.433 22.1727 187.671 25.5429 183.742 27.4908C183.742 27.4908 180.803 28.6087 179.381 25.4949C179.381 25.4949 178.854 22.9382 180.403 21.9808C180.403 21.9808 179.652 22.5084 179.54 24.1686C179.54 24.1686 179.317 25.7974 180.833 26.9485C180.833 26.9485 183.002 28.3191 184.666 26.4966C184.666 26.4966 186.572 24.5191 184.893 22.3147C184.893 22.3147 183.395 20.3742 180.676 20.5531C180.676 20.5531 176.446 20.4461 173.38 23.6318C173.38 23.6318 171.008 25.7163 169.346 27.8413C167.684 29.9663 164.57 35.6054 163.069 36.4669C161.567 37.3302 160.673 39.981 153.899 40.7797C147.126 41.5784 139.363 36.1146 139.363 36.1146C139.363 36.1146 126.617 27.904 125.115 27.8395C123.614 27.7749 115.372 23.3348 108.214 29.9165L105.34 33.082L104.854 33.2738V29.7911Z" fill="#E0A50B" fill-opacity="0.8"/>
<path d="M113.616 35.0298C113.616 35.0298 115.803 35.5408 114.654 33.912C114.654 33.912 111.443 33.84 111.682 29.767H112.666C112.666 29.767 113.361 28.9037 112.09 28.5699C110.911 28.2581 110.847 23.2075 110.845 22.4788L110.81 22.429C110.81 22.429 110.825 22.4345 110.843 22.4419C110.843 22.4087 110.843 22.3884 110.843 22.3884L110.893 22.4622C111.572 22.7297 116.257 24.6186 116.121 25.8287C115.973 27.1347 117.03 26.799 117.03 26.799L117.386 25.884C121.269 27.1366 120.173 30.1544 120.173 30.1544C121.276 31.8164 121.592 29.5918 121.592 29.5918C121.035 27.3192 124.409 25.956 124.409 25.956C126.216 28.0976 126.379 30.1489 125.829 30.8609C125.279 31.573 126.314 31.9068 126.314 31.9068C122.606 34.9228 124.425 35.491 124.425 35.491C124.724 33.0026 130.26 34.1924 130.26 34.1924C130.26 34.1924 130.031 34.5152 129.69 36.1311C129.349 37.747 128.199 37.6437 127.779 37.7544C127.358 37.8651 128.734 38.2967 128.734 38.2967C128.734 38.2967 128.616 40.7187 126.248 39.6968C123.879 38.6749 122.996 39.1711 122.996 39.1711L122.509 39.4957L122.501 39.4847L122.033 39.813C122.033 39.813 121.251 40.4568 121.347 43.0338C121.443 45.6108 119.142 44.8452 119.142 44.8452C119.142 44.8452 119.238 43.4082 118.982 43.7587C118.725 44.1111 118.406 45.2178 116.777 44.9522C115.149 44.6866 114.765 44.7825 114.765 44.7825C114.765 44.7825 115.66 39.1914 118.087 39.8149C118.087 39.8149 118.214 37.913 114.062 40.2779C114.062 40.2779 114.127 39.1914 113.263 39.4478C112.4 39.7042 110.548 38.8095 109.205 36.3488C109.207 36.3414 111.699 33.6888 113.616 35.0298Z" fill="#3D7549" stroke="white" stroke-width="0.184465" stroke-miterlimit="10"/>
<path d="M136.511 40.8108C136.511 40.8108 136.389 41.9987 137.171 41.283C137.171 41.283 136.992 39.5859 139.156 39.4365L139.223 39.9548C139.223 39.9548 139.724 40.2629 139.815 39.5711C139.9 38.9292 142.558 38.5547 142.943 38.5031L142.967 38.481C142.967 38.481 142.965 38.4883 142.962 38.4994C142.98 38.4976 142.989 38.4957 142.989 38.4957L142.954 38.5271C142.86 38.9034 142.18 41.5007 141.532 41.5099C140.835 41.5209 141.082 42.054 141.082 42.054L141.589 42.1795C141.191 44.3119 139.525 43.9374 139.525 43.9374C138.723 44.631 139.918 44.6476 139.918 44.6476C141.078 44.2012 142.025 45.8872 142.025 45.8872C141.017 46.9848 139.948 47.208 139.534 46.9664C139.123 46.7247 139.016 47.2929 139.016 47.2929C137.177 45.5404 136.998 46.5384 136.998 46.5384C138.33 46.5273 138.075 49.5267 138.075 49.5267C138.075 49.5267 137.889 49.429 137.015 49.357C136.14 49.2851 136.116 48.6727 136.029 48.4587C135.943 48.2447 135.808 48.9992 135.808 48.9992C135.808 48.9992 134.522 49.1006 134.902 47.7835C135.282 46.4665 134.961 46.0348 134.961 46.0348L134.757 45.8005L134.762 45.795L134.557 45.57C134.557 45.57 134.165 45.201 132.812 45.4242C131.46 45.6493 131.709 44.3838 131.709 44.3838C131.709 44.3838 132.473 44.3377 132.272 44.227C132.069 44.1164 131.464 44.0223 131.495 43.1461C131.527 42.2699 131.449 42.0725 131.449 42.0725C131.449 42.0725 134.458 42.1666 134.292 43.4892C134.292 43.4892 135.303 43.4283 133.777 41.3974C133.777 41.3974 134.355 41.3586 134.161 40.9196C133.967 40.4824 134.314 39.4457 135.522 38.5713C135.524 38.575 137.09 39.7113 136.511 40.8108Z" fill="#3D7549" stroke="white" stroke-width="0.184465" stroke-miterlimit="10"/>
<path d="M8.81523 32.0915H10.6691C10.6691 32.0915 10.7964 30.8132 9.35941 30.4295C7.92242 30.0458 10.3334 29.9499 10.813 30.494C11.2926 31.0364 12.5064 29.1677 12.5064 29.1677C12.5064 29.1677 11.8681 28.0185 10.5732 28.88C10.5732 28.88 10.1102 28.6236 10.765 28.2565C11.4199 27.8894 11.5804 27.4577 11.3885 26.8675C11.1967 26.2772 11.0214 26.7549 11.0214 26.7549C11.0214 26.7549 11.9954 25.5891 11.6283 24.6465C11.6283 24.6465 9.59921 26.3399 8.32087 29.0239C8.32087 29.0239 7.64941 31.2928 8.8964 32.7943C10.1434 34.2959 11.2133 35.4137 15.0299 34.2645C15.0299 34.2645 18.4333 32.7796 18.1123 28.2897C17.7913 23.7998 12.1707 22.0437 11.6431 22.171C11.1155 22.2983 5.68486 21.4036 3.04885 26.6037C0.412846 31.8037 3.57642 35.9247 3.57642 35.9247C3.57642 35.9247 6.16447 39.6306 9.16756 40.7817C12.1707 41.9309 15.7161 43.5616 25.5259 42.8587C35.334 42.1559 45.046 40.2393 51.5632 38.5146C58.0804 36.7898 72.7767 33.2112 85.0455 33.0839C97.3143 32.9566 105.148 34.9692 105.148 34.9692V31.4237C105.148 31.4237 84.5659 27.9742 70.1886 31.9034L63.6235 32.9105L49.0065 36.6478C49.0065 36.6478 35.2712 41.0547 23.0799 41.2484C23.0799 41.2484 12.202 42.7813 6.49835 37.4631C6.49835 37.4631 1.3075 33.6299 3.73506 27.3028C3.73506 27.3028 6.48175 20.8816 14.054 23.6928C14.054 23.6928 17.8559 25.163 17.5367 30.0827C17.5367 30.0827 17.3449 33.9011 12.7443 34.5228C12.7462 34.5191 10.1249 34.663 8.81523 32.0915Z" fill="#E0A50B" fill-opacity="0.8"/>
<path d="M105.146 29.7911C105.146 29.7911 97.6937 19.8226 82.3591 26.6275C82.3591 26.6275 65.1079 38.8963 61.2729 38.8963C57.4378 38.8963 52.5513 43.4969 42.8706 29.6952C33.1899 15.8935 26.0013 20.6379 25.2837 21.4053C24.5661 22.1727 22.3286 25.5429 26.2577 27.4908C26.2577 27.4908 29.1962 28.6087 30.6184 25.4949C30.6184 25.4949 31.146 22.9382 29.5965 21.9808C29.5965 21.9808 30.3473 22.5084 30.4598 24.1686C30.4598 24.1686 30.683 25.7974 29.1667 26.9485C29.1667 26.9485 26.9974 28.3191 25.3335 26.4966C25.3335 26.4966 23.428 24.5191 25.1066 22.3147C25.1066 22.3147 26.6045 20.3742 29.3235 20.5531C29.3235 20.5531 33.5533 20.4461 36.6191 23.6318C36.6191 23.6318 38.9913 25.7163 40.6533 27.8413C42.3154 29.9663 45.4291 35.6054 46.9307 36.4669C48.4322 37.3302 49.3269 39.981 56.1005 40.7797C62.874 41.5784 70.6363 36.1146 70.6363 36.1146C70.6363 36.1146 83.3829 27.904 84.8844 27.8395C86.386 27.7749 94.6279 23.3348 101.785 29.9165L104.661 33.0801L105.148 33.272V29.7911H105.146Z" fill="#E0A50B" fill-opacity="0.8"/>
<path d="M96.3865 35.0296C96.3865 35.0296 94.1987 35.5406 95.3479 33.9117C95.3479 33.9117 98.5595 33.8398 98.3197 29.7668H97.3365C97.3365 29.7668 96.641 28.9035 97.912 28.5696C99.0907 28.2579 99.1553 23.2072 99.1572 22.4786L99.1922 22.4288C99.1922 22.4288 99.1774 22.4343 99.159 22.4417C99.159 22.4085 99.159 22.3882 99.159 22.3882L99.1092 22.462C98.4304 22.7294 93.7449 24.6184 93.8814 25.8285C94.029 27.1345 92.972 26.7987 92.972 26.7987L92.616 25.8838C88.733 27.1363 89.8287 30.1542 89.8287 30.1542C88.7256 31.8162 88.4102 29.5915 88.4102 29.5915C88.9673 27.3189 85.5934 25.9557 85.5934 25.9557C83.7857 28.0974 83.6233 30.1486 84.173 30.8607C84.7227 31.5727 83.6879 31.9066 83.6879 31.9066C87.3956 34.9226 85.5768 35.4907 85.5768 35.4907C85.278 33.0023 79.7422 34.1921 79.7422 34.1921C79.7422 34.1921 79.9709 34.5149 80.3122 36.1308C80.6534 37.7468 81.8027 37.6435 82.2232 37.7541C82.6438 37.8648 81.2677 38.2965 81.2677 38.2965C81.2677 38.2965 81.3858 40.7185 83.7543 39.6966C86.1228 38.6746 87.0064 39.1708 87.0064 39.1708L87.4934 39.4955L87.5008 39.4844L87.9693 39.8128C87.9693 39.8128 88.7515 40.4565 88.6555 43.0335C88.5596 45.6105 90.8599 44.845 90.8599 44.845C90.8599 44.845 90.764 43.408 91.0204 43.7585C91.2768 44.1108 91.5959 45.2176 93.2247 44.952C94.8536 44.6863 95.2373 44.7823 95.2373 44.7823C95.2373 44.7823 94.3426 39.1911 91.915 39.8146C91.915 39.8146 91.7878 37.9128 95.9401 40.2776C95.9401 40.2776 95.8755 39.1911 96.7388 39.4475C97.6021 39.7039 99.4541 38.8093 100.797 36.3485C100.795 36.3411 98.3031 33.6885 96.3865 35.0296Z" fill="#3D7549" stroke="white" stroke-width="0.184465" stroke-miterlimit="10"/>
<path d="M73.4882 40.8108C73.4882 40.8108 73.6099 41.9987 72.8278 41.283C72.8278 41.283 73.0067 39.5859 70.843 39.4365L70.7765 39.9548C70.7765 39.9548 70.2748 40.2629 70.1844 39.5711C70.0996 38.9292 67.4414 38.5547 67.0559 38.5031L67.0319 38.481C67.0319 38.481 67.0338 38.4883 67.0374 38.4994C67.019 38.4976 67.0098 38.4957 67.0098 38.4957L67.0448 38.5271C67.1389 38.9034 67.8196 41.5007 68.467 41.5099C69.1643 41.5209 68.9171 42.054 68.9171 42.054L68.4099 42.1795C68.8083 44.3119 70.474 43.9374 70.474 43.9374C71.2765 44.631 70.0811 44.6476 70.0811 44.6476C68.9208 44.2012 67.9745 45.8872 67.9745 45.8872C68.9817 46.9848 70.0516 47.208 70.4648 46.9664C70.8762 46.7247 70.9831 47.2929 70.9831 47.2929C72.8223 45.5404 73.0012 46.5384 73.0012 46.5384C71.6694 46.5273 71.9239 49.5267 71.9239 49.5267C71.9239 49.5267 72.1102 49.429 72.9846 49.357C73.859 49.2851 73.8829 48.6727 73.9696 48.4587C74.0563 48.2447 74.191 48.9992 74.191 48.9992C74.191 48.9992 75.4767 49.1006 75.0967 47.7835C74.7167 46.4665 75.0377 46.0348 75.0377 46.0348L75.2424 45.8005L75.2369 45.795L75.4417 45.57C75.4417 45.57 75.8346 45.201 77.1867 45.4242C78.5388 45.6493 78.2898 44.3838 78.2898 44.3838C78.2898 44.3838 77.5261 44.3377 77.7272 44.227C77.9301 44.1164 78.5352 44.0223 78.5038 43.1461C78.4724 42.2699 78.5499 42.0725 78.5499 42.0725C78.5499 42.0725 75.5413 42.1666 75.7073 43.4892C75.7073 43.4892 74.6964 43.4283 76.222 41.3974C76.222 41.3974 75.6446 41.3586 75.8383 40.9196C76.032 40.4824 75.6852 39.4457 74.4769 38.5713C74.4769 38.575 72.9108 39.7113 73.4882 40.8108Z" fill="#3D7549" stroke="white" stroke-width="0.184465" stroke-miterlimit="10"/>
</svg>
