<svg width="331" height="134" viewBox="0 0 331 134" fill="none" xmlns="http://www.w3.org/2000/svg">
<path d="M14.0805 2.18347C17.8111 2.19123 21.3866 3.67766 24.0232 6.317C26.6597 8.95635 28.1425 12.5333 28.1463 16.264V22.3445C28.1308 26.0817 26.6364 29.6608 23.9896 32.2993C21.3429 34.9378 17.7591 36.4212 14.0219 36.425H12.3662C11.216 36.4346 10.0827 36.703 9.05042 37.2102C8.0181 37.7175 7.11322 38.4507 6.40289 39.3554V66.1684H0V2.18347H14.0805ZM21.7581 16.264C21.7581 14.2277 20.9492 12.2749 19.5094 10.8351C18.0695 9.39525 16.1167 8.58636 14.0805 8.58636H6.40289V31.3554C8.2646 30.4667 10.3033 30.0109 12.3662 30.0221H14.0219C16.0572 30.0261 18.0117 29.2264 19.4604 27.7968C20.9092 26.3673 21.7349 24.4236 21.7581 22.3885V16.264Z" fill="#E0A50B"/>
<path d="M71.2235 16V52.0876C71.2844 53.9739 70.9654 55.8533 70.2855 57.6139C69.6057 59.3745 68.5788 60.9804 67.266 62.3363C65.9532 63.6922 64.3812 64.7703 62.6434 65.5066C60.9057 66.2429 59.0376 66.6223 57.1503 66.6223C55.263 66.6223 53.395 66.2429 51.6572 65.5066C49.9194 64.7703 48.3474 63.6922 47.0346 62.3363C45.7218 60.9804 44.6949 59.3745 44.0151 57.6139C43.3352 55.8533 43.0163 53.9739 43.0772 52.0876V22.4468C44.5165 24.9103 46.7865 26.7804 49.48 27.7215V52.0876C49.48 54.1161 50.2858 56.0615 51.7202 57.4958C53.1545 58.9301 55.0999 59.7359 57.1283 59.7359C59.1568 59.7359 61.1022 58.9301 62.5365 57.4958C63.9708 56.0615 64.7766 54.1161 64.7766 52.0876V16.1172C64.6561 14.1706 63.7978 12.3432 62.3767 11.0073C60.9557 9.67154 59.0787 8.92787 57.1283 8.92787C55.178 8.92787 53.301 9.67154 51.8799 11.0073C50.4589 12.3432 49.6006 14.1706 49.48 16.1172C49.4241 16.6521 49.4822 17.1929 49.6503 17.7038C49.8184 18.2147 50.0928 18.6843 50.4554 19.0815C50.8181 19.4787 51.2607 19.7947 51.7543 20.0085C52.2478 20.2224 52.781 20.3293 53.3188 20.3223V26.7252C50.6189 26.7253 48.0277 25.6609 46.1076 23.7627C44.1875 21.8646 43.0934 19.2858 43.0625 16.586C43.0656 12.9083 44.5076 9.37778 47.08 6.7494C49.6524 4.12101 53.1511 2.60341 56.8279 2.52111C60.5047 2.43881 64.0678 3.79834 66.7552 6.30898C69.4426 8.81963 71.0411 12.2821 71.2088 15.956L71.2235 16Z" fill="#E0A50B"/>
<path d="M107.427 66.168C106.682 64.3042 106.304 62.3142 106.313 60.3072C106.319 59.3247 106.407 58.3445 106.577 57.3768C107.716 53.0406 108.335 48.5845 108.423 44.1022C108.422 42.3915 107.854 40.7295 106.806 39.377C105.759 38.0245 104.292 37.0582 102.636 36.6297L93.0826 40.2048V66.168H86.6797V2.44678H100.702C102.551 2.44486 104.383 2.80774 106.092 3.51467C107.801 4.2216 109.354 5.25869 110.662 6.56657C111.97 7.87444 113.007 9.42743 113.714 11.1366C114.421 12.8458 114.784 14.6777 114.782 16.5273V22.388C114.786 24.4655 114.33 26.5181 113.446 28.398C112.562 30.2779 111.272 31.9383 109.669 33.2598C111.273 34.5828 112.565 36.2456 113.449 38.1282C114.333 40.0108 114.789 42.0662 114.782 44.1461C114.74 49.0928 114.08 54.0147 112.819 58.798C112.749 59.2836 112.71 59.7729 112.701 60.2632C112.726 62.3934 113.458 64.455 114.782 66.124L107.427 66.168ZM103.324 29.5382C104.806 29.0011 106.088 28.0243 106.999 26.7387C107.91 25.4531 108.407 23.9198 108.423 22.3441V16.4833C108.429 15.469 108.233 14.4637 107.847 13.5259C107.46 12.5881 106.891 11.7364 106.173 11.0206C105.454 10.3047 104.6 9.73896 103.661 9.3562C102.722 8.97344 101.716 8.78133 100.702 8.79106H93.0826V33.377L103.324 29.5382Z" fill="#E0A50B"/>
<path d="M155.778 10.8278C152.689 9.39227 149.324 8.64727 145.918 8.64463H145.229V66.168H138.826V8.64463C134.477 8.65215 130.18 7.70168 126.24 5.86077L128.936 0C132.025 1.4355 135.39 2.18049 138.797 2.18314H145.888C150.241 2.18793 154.538 3.15351 158.474 5.01095L155.778 10.8278Z" fill="#E0A50B"/>
<path d="M179.558 52.3071C179.612 54.3062 180.445 56.2052 181.879 57.5986C183.314 58.992 185.236 59.7694 187.236 59.7649H187.456C189.411 59.7055 191.269 58.8994 192.648 57.5123C194.026 56.1251 194.822 54.2624 194.869 52.3071V2.24146H201.272V52.4096C201.191 56.0278 199.719 59.4756 197.162 62.0374C194.606 64.5992 191.161 66.0783 187.543 66.1678H187.221C183.544 66.1613 180.015 64.7197 177.385 62.15C174.755 59.5803 173.232 56.0854 173.141 52.4096V2.24146H179.544L179.558 52.3071Z" fill="#E0A50B"/>
<path d="M247.061 74.7251C244.941 74.7174 242.911 73.872 241.412 72.3734C239.914 70.8748 239.069 68.8445 239.061 66.7252V63.8827C236.925 65.271 234.456 66.0603 231.911 66.1684H231.5C227.852 66.1717 224.344 64.7648 221.709 62.2417C219.074 59.7187 217.516 56.2748 217.361 52.63V16.264C217.361 12.5296 218.845 8.94816 221.485 6.30755C224.126 3.66695 227.707 2.18347 231.442 2.18347C235.176 2.18347 238.758 3.66695 241.398 6.30755C244.039 8.94816 245.522 12.5296 245.522 16.264C245.522 17.6108 245.257 18.9445 244.742 20.1889C244.226 21.4332 243.471 22.5639 242.518 23.5163C241.566 24.4687 240.435 25.2242 239.191 25.7396C237.947 26.255 236.613 26.5203 235.266 26.5203V20.1028C235.771 20.1067 236.272 20.01 236.74 19.8185C237.207 19.627 237.632 19.3443 237.989 18.9871C238.346 18.6299 238.629 18.2051 238.82 17.7376C239.012 17.2701 239.109 16.7692 239.105 16.264C239.105 14.2277 238.296 12.2749 236.856 10.8351C235.416 9.39525 233.463 8.58636 231.427 8.58636C229.391 8.58636 227.438 9.39525 225.998 10.8351C224.558 12.2749 223.75 14.2277 223.75 16.264V52.4688C223.84 54.4537 224.697 56.326 226.14 57.6922C227.583 59.0584 229.499 59.812 231.486 59.7948H231.852C233.756 59.6945 235.553 58.8883 236.894 57.5337C238.236 56.1791 239.024 54.3733 239.105 52.4688V36.3517H235.749C235.527 36.3508 235.306 36.3964 235.102 36.4857C234.898 36.5749 234.715 36.7059 234.565 36.8701C234.415 37.0342 234.3 37.2281 234.229 37.4391C234.158 37.6501 234.132 37.8736 234.152 38.0953C234.149 38.3047 234.19 38.5124 234.273 38.7045C234.357 38.8966 234.48 39.0686 234.636 39.2089L230.108 43.7363C228.982 42.6231 228.212 41.1995 227.898 39.647C227.584 38.0946 227.739 36.4837 228.344 35.02C228.95 33.5562 229.977 32.306 231.296 31.4289C232.615 30.5518 234.166 30.0875 235.749 30.0954H245.464V66.7252C245.475 67.1452 245.647 67.545 245.944 67.8421C246.241 68.1393 246.641 68.3111 247.061 68.3222V74.7251Z" fill="#E0A50B"/>
<path d="M289.067 66.1678H282.562L280.056 51.3986C279.67 50.0914 278.869 48.9449 277.776 48.1312C276.682 47.3175 275.354 46.8805 273.99 46.8858H270.635L267.382 66.1385H260.877L271.793 2.24146H278.196L289.067 66.1678ZM273.99 40.5269C275.467 40.524 276.932 40.7922 278.313 41.3181L274.943 21.538L271.749 40.5855L273.99 40.5269Z" fill="#E0A50B"/>
<path d="M330.649 65.0542L325.477 68.7758C324.885 67.974 324.115 67.3209 323.228 66.8682C322.34 66.4155 321.36 66.1757 320.363 66.1678H303.719V2.24146H310.122V59.7649H320.378C322.385 59.7789 324.36 60.265 326.145 61.1839C327.929 62.1028 329.472 63.4286 330.649 65.0542Z" fill="#E0A50B"/>
<path d="M231.937 100.819C232.877 99.4337 233.903 97.7782 235.016 95.8528C236.171 93.9209 237.208 91.9216 238.128 89.855C239.042 87.7467 239.785 85.6433 240.358 83.5448C240.931 81.4464 241.124 79.5138 240.936 77.747C240.894 77.7535 240.849 77.7391 240.801 77.7038C240.024 77.6531 239.248 77.7518 238.474 77.9999C237.693 78.2063 236.95 78.5138 236.243 78.9225C235.537 79.3311 234.837 79.7816 234.144 80.2738C233.45 80.7659 232.798 81.2517 232.188 81.7309C230.962 82.6477 229.636 83.7509 228.211 85.0405C226.786 86.3301 225.374 87.7033 223.974 89.1599C222.568 90.5748 221.232 92.0218 219.964 93.5008C218.738 94.9734 217.691 96.3542 216.821 97.6433L216.884 97.6336C216.65 98.0547 216.369 98.5899 216.042 99.2391C215.75 99.8402 215.486 100.48 215.249 101.158C215.011 101.836 214.858 102.501 214.788 103.153C214.718 103.806 214.805 104.369 215.05 104.845C215.77 105.631 216.913 106.245 218.478 106.687C220.084 107.122 221.855 107.511 223.789 107.853C225.759 108.147 227.777 108.476 229.843 108.84C231.903 109.163 233.79 109.619 235.507 110.208C237.264 110.791 238.693 111.596 239.793 112.623C240.928 113.602 241.514 114.901 241.551 116.52C241.577 117.243 241.424 117.908 241.09 118.516C240.798 119.117 240.392 119.671 239.872 120.179C239.388 120.639 238.855 121.064 238.274 121.453C237.692 121.842 237.129 122.208 236.583 122.549C235.883 122.999 235.103 123.483 234.242 124.001C233.43 124.555 232.563 125.031 231.642 125.43C230.768 125.865 229.879 126.195 228.973 126.421C228.067 126.646 227.15 126.66 226.221 126.462C225.016 126.135 223.803 125.618 222.581 124.909C221.366 124.242 220.41 123.449 219.712 122.531C219.007 121.571 218.703 120.57 218.798 119.529C218.929 118.44 219.744 117.352 221.243 116.265L225.468 119.523C224.871 120.086 224.357 120.636 223.927 121.173C223.497 121.71 223.318 122.208 223.389 122.667C224.32 122.608 225.278 122.439 226.26 122.158C227.279 121.83 228.245 121.445 229.16 121.004C230.117 120.556 231.023 120.053 231.877 119.493C232.773 118.927 233.603 118.349 234.367 117.761C234.486 117.699 234.71 117.494 235.041 117.143C235.413 116.786 235.782 116.408 236.148 116.01C236.508 115.569 236.787 115.163 236.985 114.79C237.178 114.375 237.153 114.08 236.912 113.903C235.688 113.451 234.303 113.067 232.757 112.75C231.247 112.386 229.782 112.035 228.361 111.699C226.809 111.341 225.188 110.95 223.498 110.528C221.849 110.099 220.185 109.566 218.504 108.928C217.729 108.62 216.882 108.26 215.963 107.846C215.079 107.384 214.227 106.853 213.408 106.253C212.588 105.653 211.884 104.971 211.295 104.207C210.665 103.45 210.272 102.57 210.117 101.567C209.929 100.356 210.097 99.0905 210.619 97.7696C211.135 96.4069 211.746 95.2434 212.452 94.2789C215.388 90.3181 218.658 86.5835 222.263 83.0751C225.909 79.5602 229.944 76.6265 234.369 74.2739C236.084 73.7518 237.728 73.7326 239.299 74.2162C240.871 74.6999 242.261 75.5323 243.47 76.7134C244.039 77.3522 244.497 77.9654 244.845 78.553C245.234 79.1341 245.498 79.7346 245.637 80.3545C245.776 80.9744 245.817 81.6523 245.759 82.388C245.702 83.1238 245.554 83.9592 245.314 84.8943C244.475 88.3166 243.304 91.6621 241.8 94.9308C240.29 98.1578 238.483 101.26 236.378 104.237L231.937 100.819ZM246.012 87.4159C246.973 87.2672 247.832 87.1556 248.59 87.081C249.383 86.9581 250.138 86.8627 250.855 86.7945C251.451 85.1202 251.957 83.6949 252.373 82.5186C252.825 81.2942 253.134 80.3911 253.301 79.8095L257.458 82.6295C257.3 82.9959 257.097 83.4764 256.847 84.071C256.632 84.6173 256.413 85.2713 256.189 86.0329C256.272 86.02 256.376 86.0038 256.502 85.9844C256.621 85.9233 256.743 85.883 256.868 85.8636L258.004 89.472C257.342 89.6172 256.764 89.7494 256.269 89.8688C255.81 89.9399 255.351 90.011 254.891 90.0821C254.363 91.917 253.843 93.9431 253.331 96.1604C252.854 98.3294 252.467 100.527 252.171 102.754C251.874 104.981 251.72 107.164 251.709 109.303C251.734 111.395 252.004 113.277 252.52 114.95C252.898 114.635 253.312 113.994 253.761 113.026C254.252 112.053 254.744 110.95 255.237 109.719C255.773 108.482 256.278 107.185 256.752 105.829C257.268 104.466 257.758 103.214 258.223 102.074L262.317 104.903C262.109 105.491 261.849 106.301 261.538 107.333C261.221 108.323 260.851 109.385 260.428 110.519C259.999 111.612 259.483 112.697 258.88 113.773C258.318 114.844 257.669 115.757 256.93 116.512C256.186 117.226 255.364 117.717 254.464 117.985C253.565 118.252 252.559 118.108 251.447 117.554C249.602 116.685 248.337 115.277 247.651 113.331C246.958 111.343 246.633 109.106 246.676 106.619C246.712 104.091 247.01 101.458 247.57 98.7198C248.171 95.9757 248.854 93.347 249.62 90.834L248.618 90.9892L246.012 87.4159ZM256.602 106.237C257.17 104.652 257.839 102.903 258.612 100.987C259.336 99.0363 260.071 97.0196 260.818 94.9371C260.216 93.5337 260.102 92.2472 260.477 91.0774C260.887 89.8594 261.506 88.887 262.334 88.1602C263.156 87.3916 264.062 86.8879 265.051 86.6493C266.082 86.4041 266.908 86.4901 267.528 86.9072C268.142 87.2825 268.435 88.0709 268.407 89.2725C268.373 90.4323 267.747 92.0472 266.528 94.1173C267.116 94.3256 267.555 94.5356 267.844 94.7474C268.133 94.9592 268.391 95.24 268.616 95.59C268.876 95.8917 269.153 96.2979 269.446 96.8084C269.774 97.2707 270.232 97.8839 270.821 98.648C271.458 99.4474 271.759 100.427 271.725 101.587C271.726 102.698 271.563 103.857 271.237 105.062C270.952 106.26 270.622 107.444 270.247 108.614C269.866 109.742 269.612 110.722 269.484 111.555C270.408 110.898 271.193 110.029 271.838 108.945C272.524 107.856 273.121 106.737 273.627 105.59C274.127 104.4 274.568 103.242 274.949 102.114C275.372 100.979 275.762 100.042 276.118 99.3032L280.284 102.186C280.114 102.469 279.914 102.97 279.683 103.69C279.446 104.368 279.145 105.184 278.779 106.139C278.449 107.045 278.063 108.003 277.621 109.012C277.22 110.015 276.765 110.941 276.255 111.789C275.786 112.631 275.26 113.376 274.676 114.022C274.086 114.626 273.455 115.109 272.784 115.469C272.154 115.823 271.478 116.013 270.755 116.04C270.068 116.018 269.407 115.757 268.774 115.256C268.34 114.939 267.906 114.621 267.472 114.303C267.08 113.979 266.688 113.655 266.295 113.331C265.8 112.895 265.491 112.28 265.368 111.486C265.281 110.645 265.288 109.724 265.39 108.725C265.533 107.719 265.736 106.683 265.999 105.616C266.255 104.507 266.5 103.465 266.733 102.488C267.009 101.504 267.217 100.638 267.357 99.8897C267.498 99.1411 267.501 98.6061 267.365 98.285C267.005 98.1697 266.625 98.0576 266.223 97.9487C265.815 97.7981 265.413 97.6893 265.018 97.6222C264.838 98.1203 264.656 98.5976 264.47 99.0539C264.326 99.5039 264.178 99.9329 264.028 100.341C263.525 101.787 262.994 103.195 262.437 104.564C261.914 105.885 261.345 107.32 260.73 108.869L256.602 106.237ZM280.079 106.194C279.933 107.457 279.865 108.536 279.875 109.433C279.927 110.323 280.011 110.866 280.127 111.061C280.68 111.318 281.273 111.419 281.906 111.363C282.532 111.266 283.146 111.086 283.746 110.822C284.347 110.558 284.917 110.234 285.456 109.852C285.995 109.469 286.469 109.075 286.876 108.67C287.698 107.901 288.399 107.044 288.98 106.099C289.554 105.112 290.062 104.114 290.505 103.105C290.982 102.048 291.415 100.976 291.803 99.8896C292.191 98.8033 292.623 97.7315 293.101 96.6741L297.142 99.5761C296.674 100.974 296.224 102.348 295.792 103.698C295.359 105.047 294.834 106.347 294.215 107.598C293.631 108.8 292.903 109.896 292.03 110.886C291.199 111.87 290.147 112.674 288.876 113.299C287.98 113.865 287.073 114.219 286.154 114.362C285.277 114.497 284.398 114.484 283.518 114.321C282.679 114.151 281.842 113.853 281.006 113.427C280.213 112.994 279.427 112.474 278.649 111.868C277.96 111.29 277.346 110.637 276.806 109.908C276.265 109.179 275.865 108.386 275.604 107.528C275.249 106.343 275.121 105.102 275.219 103.804C275.276 102.512 275.506 101.237 275.91 99.9768C276.272 98.7235 276.772 97.5344 277.41 96.4093C278.084 95.2361 278.842 94.1993 279.686 93.2989C281.339 91.5465 282.964 90.7177 284.561 90.8125C286.158 90.9074 287.834 91.6528 289.589 93.0487C290.483 93.851 290.985 94.885 291.096 96.1507C291.106 97.047 290.863 97.9613 290.366 98.8934C289.904 99.7773 289.426 100.557 288.932 101.232C287.822 102.9 286.67 104.297 285.476 105.423C284.282 106.548 282.999 107.517 281.628 108.328L280.079 106.194ZM286.448 94.3046C285.485 94.7103 284.652 95.2668 283.949 95.9743C283.288 96.6753 282.709 97.4918 282.212 98.424C281.75 99.3079 281.364 100.266 281.053 101.297C280.784 102.322 280.539 103.365 280.319 104.425C280.909 103.821 281.549 103.123 282.239 102.332C282.929 101.541 283.571 100.715 284.165 99.8534C284.793 98.9436 285.315 98.0291 285.728 97.1099C286.135 96.1489 286.375 95.2138 286.448 94.3046ZM297.146 103.552C296.999 104.815 296.931 105.894 296.942 106.791C296.994 107.681 297.078 108.223 297.194 108.419C297.746 108.676 298.339 108.777 298.972 108.721C299.599 108.624 300.212 108.444 300.812 108.18C301.413 107.916 301.983 107.592 302.522 107.21C303.062 106.827 303.535 106.433 303.943 106.028C304.765 105.259 305.466 104.402 306.046 103.457C306.62 102.47 307.129 101.472 307.571 100.463C308.049 99.4056 308.482 98.3338 308.869 97.2476C309.257 96.1613 309.69 95.0895 310.167 94.0321L314.208 96.9341C313.741 98.3321 313.291 99.7059 312.858 101.056C312.426 102.405 311.9 103.705 311.281 104.956C310.698 106.158 309.969 107.254 309.096 108.244C308.265 109.228 307.214 110.032 305.942 110.657C305.046 111.223 304.139 111.577 303.22 111.72C302.344 111.855 301.465 111.842 300.584 111.679C299.746 111.509 298.909 111.211 298.073 110.785C297.279 110.352 296.493 109.832 295.715 109.226C295.027 108.648 294.413 107.995 293.872 107.266C293.332 106.537 292.931 105.744 292.67 104.886C292.316 103.701 292.188 102.46 292.286 101.162C292.342 99.8702 292.573 98.5945 292.976 97.3348C293.338 96.0815 293.838 94.8923 294.476 93.7673C295.15 92.594 295.909 91.5572 296.753 90.6569C298.406 88.9044 300.031 88.0756 301.627 88.1705C303.224 88.2654 304.9 89.0108 306.656 90.4066C307.55 91.209 308.052 92.243 308.162 93.5087C308.173 94.405 307.929 95.3192 307.432 96.2514C306.97 97.1353 306.492 97.9148 305.998 98.5899C304.888 100.258 303.736 101.655 302.542 102.781C301.348 103.906 300.066 104.875 298.695 105.686L297.146 103.552ZM303.515 91.6625C302.551 92.0682 301.718 92.6248 301.015 93.3323C300.354 94.0332 299.775 94.8498 299.278 95.782C298.816 96.6659 298.43 97.6236 298.119 98.6552C297.85 99.6803 297.606 100.723 297.385 101.783C297.976 101.179 298.616 100.481 299.306 99.6901C299.996 98.8992 300.638 98.0729 301.231 97.2114C301.86 96.3016 302.381 95.3871 302.795 94.4679C303.202 93.5069 303.442 92.5718 303.515 91.6625ZM309.323 77.6149C310.283 77.4662 311.143 77.3545 311.901 77.2799C312.694 77.1571 313.449 77.0616 314.166 76.9935C314.762 75.3191 315.268 73.8938 315.684 72.7176C316.136 71.4931 316.445 70.5901 316.612 70.0084L320.768 72.8285C320.611 73.1949 320.408 73.6753 320.158 74.2699C319.943 74.8163 319.724 75.4703 319.499 76.2319C319.583 76.2189 319.687 76.2028 319.813 76.1834C319.931 76.1222 320.054 76.082 320.179 76.0626L321.315 79.6709C320.653 79.8161 320.075 79.9484 319.58 80.0677C319.121 80.1388 318.661 80.21 318.202 80.2811C317.674 82.116 317.154 84.1421 316.642 86.3593C316.165 88.5283 315.778 90.7261 315.482 92.9528C315.185 95.1795 315.031 97.3626 315.02 99.5023C315.045 101.594 315.315 103.476 315.83 105.149C316.209 104.834 316.623 104.193 317.072 103.225C317.563 102.252 318.055 101.149 318.548 99.9182C319.084 98.6808 319.588 97.384 320.063 96.0278C320.579 94.6652 321.069 93.4134 321.534 92.2725L325.628 95.1022C325.419 95.6903 325.16 96.5001 324.849 97.5317C324.532 98.5215 324.162 99.5836 323.739 100.718C323.31 101.811 322.793 102.896 322.19 103.972C321.629 105.043 320.98 105.956 320.241 106.711C319.497 107.425 318.675 107.916 317.775 108.184C316.876 108.451 315.87 108.307 314.758 107.753C312.913 106.884 311.648 105.476 310.962 103.53C310.269 101.542 309.944 99.3046 309.987 96.818C310.023 94.2896 310.321 91.6565 310.881 88.9188C311.482 86.1746 312.165 83.546 312.931 81.033L311.929 81.1881L309.323 77.6149Z" fill="#133E68"/>
</svg>
