<svg width="190" height="70" viewBox="0 0 190 70" fill="none" xmlns="http://www.w3.org/2000/svg">
<path d="M57.8863 30.2933C57.4065 30.3162 54.6881 30.636 49.4567 33.6286C48.4972 34.2226 44.4309 37.0553 39.2224 37.4893C37.0979 37.6721 34.6992 36.8725 33.1687 35.4562C32.2777 34.6338 31.6153 34.0398 31.0441 32.9433C30.77 32.4179 30.5416 31.5269 30.473 30.933C30.4045 30.1791 30.473 29.7679 30.4959 29.4709C30.5416 29.5623 30.7015 29.6765 31.0213 30.0649C31.2497 29.8821 31.501 29.8365 31.6153 29.7908C31.4782 30.1334 31.501 31.0701 31.5467 31.4584C31.8665 33.8799 34.151 35.7303 36.344 36.4156C38.5828 37.1238 41.0728 36.8954 43.243 36.073C47.1951 34.7708 52.792 29.905 58.96 29.8593C61.1073 29.8365 66.5215 31.664 63.5974 36.9639C63.5974 36.9639 62.9577 37.238 63.2319 36.6441C63.2319 36.6441 64.6025 34.9993 63.7573 32.8291C63.7573 32.8519 62.2952 30.0192 57.8863 30.2933Z" fill="#92193F"/>
<path d="M50.2775 43.7032C50.3232 43.7032 50.5288 43.8174 51.1456 44.023C51.8081 44.2286 52.0822 44.32 52.9503 44.4799C53.6585 44.617 54.3667 44.7312 55.0748 44.7769C56.4227 44.8682 57.7933 44.8226 59.1411 44.6398C60.5803 44.3428 67.5022 42.9722 67.7306 36.2102C67.7992 35.662 67.9134 29.197 59.2782 28.5117C58.4101 28.4431 53.7956 28.3289 48.884 31.6642C48.4957 31.9383 47.7189 32.5551 47.2164 33.0577C46.9651 33.1034 46.4854 33.1719 46.4854 33.1719C46.4854 33.1719 48.0159 31.6185 49.5693 30.4306C50.8029 29.4711 55.783 26.5014 60.192 27.3466C61.1743 27.5065 66.497 28.9686 68.0504 34.2913C68.1418 34.8624 69.2383 40.3679 63.7329 43.4519C62.4536 44.1601 61.0144 44.7083 59.2097 45.0053C56.514 45.485 54.2524 45.2109 51.3512 44.4799C50.6659 44.2971 49.9805 44.0458 49.3409 43.7717C49.912 43.7717 50.2775 43.7032 50.2775 43.7032Z" fill="#92193F"/>
<path fill-rule="evenodd" clip-rule="evenodd" d="M55.6934 40.4592C57.9778 42.0812 65.4022 40.5506 63.7574 36.2559C60.6963 38.4489 55.8761 37.124 57.361 33.4917C54.1171 34.8852 57.2925 41.2359 61.4273 38.4946C60.5821 40.3679 57.4981 40.5049 55.6934 40.4592Z" fill="#92193F"/>
<path d="M59.5528 39.4082C56.8344 39.7737 55.121 38.0147 54.8012 36.1186C54.5042 34.3139 55.3952 32.395 57.908 31.9838L57.8852 31.801C56.5831 32.0295 55.6921 32.6463 55.1667 33.4458C54.6413 34.2454 54.4814 35.2277 54.6413 36.1643C54.984 38.1746 56.7658 39.8422 59.5985 39.4539L59.5528 39.4082Z" fill="#92193F"/>
<path fill-rule="evenodd" clip-rule="evenodd" d="M51.1232 44.0916C49.6611 43.3377 47.9706 42.7666 47.4452 41.2132C49.6154 40.9391 49.4784 43.6347 51.3744 43.9774C50.2094 43.1321 50.0952 41.396 49.0443 40.3908C48.0849 39.477 46.4401 39.3171 44.6582 39.3171C45.6862 40.071 45.9146 41.5787 46.7599 42.561C47.6737 43.6576 49.0672 44.3201 51.1232 44.0916Z" fill="#92193F"/>
<path d="M45.3898 27.6892C45.0015 25.4962 42.6028 23.76 40.4098 24.1255C40.1813 24.1712 39.9529 24.1712 39.7473 24.2626C39.3361 23.7829 38.4908 23.1204 38.1253 22.9833C37.2572 22.6406 36.5947 22.5264 35.818 22.6635C35.4754 22.7092 35.1327 22.8234 34.7672 22.9376C32.5513 23.7143 31.1349 26.5242 31.0664 29.0599H31.2492C31.2949 26.6156 32.9396 24.1712 35.0642 23.4402C35.4297 23.3031 35.7723 23.2117 36.0922 23.1661C36.846 23.029 37.5085 23.1204 38.3538 23.4402C38.6736 23.5544 39.1533 23.9199 39.5645 24.3768C39.2218 24.5367 38.902 24.7652 38.605 25.0621C38.3081 25.3591 38.2167 25.7018 38.2624 25.9988C38.3538 26.5699 38.9249 27.0268 39.5188 26.9354C39.7701 26.8897 40.0214 26.7298 40.227 26.4556C40.4098 26.1815 40.4554 25.8845 40.4098 25.5876C40.3412 25.1992 40.1356 24.8108 39.8386 24.4682C40.0214 24.3997 40.227 24.354 40.4326 24.3083C41.4606 24.1255 42.58 24.4682 43.4709 25.085C44.3618 25.7246 45.0243 26.6612 45.2071 27.7121C45.2984 28.2832 45.2528 28.9 45.0015 29.5168L45.1614 29.5853C45.4584 28.9457 45.504 28.306 45.3898 27.6892ZM40.2498 25.6104C40.2955 25.8845 40.2498 26.1358 40.0899 26.3414C39.9072 26.5927 39.7016 26.7069 39.496 26.7526C39.0162 26.844 38.5137 26.4328 38.4451 25.9759C38.3995 25.7246 38.468 25.4505 38.7193 25.1992C39.0162 24.9022 39.3361 24.6966 39.6787 24.5367C39.9757 24.8794 40.2042 25.2677 40.2498 25.6104Z" fill="#92193F"/>
<path fill-rule="evenodd" clip-rule="evenodd" d="M28.3011 29.8598C27.8671 28.375 27.3645 26.9358 26.268 26.4332C25.8796 28.0095 27.9585 28.6034 28.4153 30.5223C27.7757 29.2202 26.1994 28.375 25.537 27.5297C24.943 26.753 24.9658 25.5194 25.1029 24.2173C25.5826 25.0397 26.6563 25.3138 27.3188 26.022C28.027 26.7987 28.4839 28.3293 28.3011 29.8598Z" fill="#92193F"/>
<path d="M24.0525 32.8979C24.6921 33.3776 25.2632 33.8345 25.88 34.3828C26.9765 35.388 27.6847 36.2789 29.1924 37.4668C30.3803 38.4034 31.8195 39.0887 33.1217 39.4314C34.7665 39.8655 37.5535 39.5913 39.1526 39.0887C40.7517 38.5862 43.059 37.6495 45.6861 36.119C46.2115 36.1647 43.6301 37.6952 42.0538 38.3577C38.9698 39.6827 35.6574 40.7335 32.345 39.7512C31.3855 39.4771 30.0377 38.8603 29.2153 38.2663C28.1644 37.4896 27.2278 36.5073 26.314 35.5707C25.2175 34.4285 24.3494 33.3548 22.796 32.7837C19.3237 31.4816 17.1991 33.7203 16.9479 34.1772C17.0164 33.2406 17.6103 33.0121 17.8616 32.3725C18.1129 31.7557 17.519 31.4816 16.6966 31.0475C15.8742 30.6363 15.6229 29.8368 15.7599 29.5398C16.1255 29.9281 17.1078 30.3393 19.712 31.1389C22.7275 31.9841 23.6869 32.7152 24.0525 32.8979Z" fill="#92193F"/>
<path d="M28.1878 38.6319C27.7081 38.2893 27.4797 38.0608 27.0228 37.6496C26.406 37.1014 25.8806 36.5074 25.3095 35.9363C25.0353 35.6393 24.7155 35.388 24.3957 35.1368C22.7737 33.8575 20.7177 33.4463 18.8902 34.5656C18.0449 35.0911 17.451 35.8449 17.0626 36.8729C16.3088 38.9289 17.2225 40.8707 19.2785 41.6246C19.9182 41.853 20.5578 41.853 21.2203 41.6017C21.997 41.3047 22.5453 40.7565 22.8651 39.9341C23.0935 39.3173 23.0707 38.7233 22.7737 38.1751C22.4767 37.6039 22.0656 37.2156 21.4944 37.01C21.0376 36.8501 20.6035 36.8729 20.2152 37.1014C19.8953 37.2613 19.6669 37.5583 19.507 37.9923C19.4384 38.1979 19.4384 38.4263 19.507 38.6319C19.5755 38.8604 19.7126 38.9975 19.8725 39.066C20.0324 39.1345 20.1695 39.1345 20.3065 39.0888C20.4208 39.0431 20.535 38.9061 20.6035 38.6776C20.6492 38.5634 20.672 38.472 20.672 38.4263C20.7863 38.4949 20.8776 38.5406 20.9233 38.5634C21.2432 38.8147 21.3345 39.0888 21.2203 39.4315C21.1061 39.7285 20.9233 39.9341 20.6492 40.0483C20.4436 40.1168 20.238 40.1168 20.0324 40.0483C19.5755 39.8884 19.2785 39.5914 19.1643 39.1802C19.0501 38.769 19.0729 38.335 19.2328 37.8781C19.3928 37.444 19.7126 37.1014 20.1695 36.8729C20.6264 36.6445 21.1061 36.6216 21.6087 36.8044C24.2815 37.7867 23.4591 41.4646 20.9462 42.0129C20.3979 42.1271 19.8496 42.1043 19.3471 41.9215C16.423 40.8707 15.2122 37.3755 17.9536 34.7027C16.0803 35.5023 13.773 36.3932 12.2196 36.4846C10.4835 36.5531 7.76497 35.4566 8.01626 33.2864C8.19901 31.5502 10.3692 30.4537 11.8541 31.8929C12.4709 32.4868 12.5623 33.6062 11.9912 34.1544C11.6257 34.52 11.0774 34.6799 10.6434 34.36C10.3921 34.1773 10.2322 33.8575 10.3921 33.5833C10.4835 33.4234 10.6205 33.332 10.8033 33.3549C11.2602 33.4234 11.1459 33.7661 11.2145 33.9717C11.3515 33.9945 11.5114 33.926 11.6485 33.8118C12.1282 33.4234 11.877 32.5325 11.3972 32.167C10.6205 31.573 9.45546 31.6873 8.93003 32.464C7.21671 34.954 10.6434 36.1876 12.3338 36.0505C14.6183 35.8906 16.6057 34.657 18.7303 33.926C19.7126 33.5833 20.7634 33.332 21.8143 33.492C23.5276 33.7661 24.7612 34.7484 25.9034 36.0048C26.406 36.5531 26.9314 37.0785 27.4797 37.5583C28.0736 38.0608 28.5762 38.5177 29.2387 38.9289C29.7413 39.2259 30.2438 39.5457 30.7921 39.7513C31.7287 40.094 32.6425 40.3453 33.6248 40.4138C33.2365 40.5052 32.9852 40.4823 31.8658 40.2767C31.2947 40.1854 30.7007 39.9798 30.2438 39.797C29.3301 39.4543 28.896 39.1345 28.1878 38.6319Z" fill="#92193F"/>
<path fill-rule="evenodd" clip-rule="evenodd" d="M30.7246 33.5377C30.4961 33.2864 30.2677 33.0123 30.0849 32.7153C29.925 32.4869 29.7879 32.2356 29.6737 31.9843C29.4224 31.4817 29.2397 30.9791 29.0341 30.4537C28.5087 29.0831 28.3259 26.8672 29.6966 26.0904C29.1711 25.5879 29.1254 24.9482 29.1026 24.7426C29.0112 23.9202 29.5823 23.0978 30.1306 22.5724C31.2271 21.5216 33.1232 21.5444 32.1866 19.3057C33.2603 20.1052 32.9633 21.316 32.3693 22.3211C32.0724 22.8465 31.7526 23.1664 31.4099 23.6689C30.7474 24.5827 30.1991 25.9305 29.9707 27.0499C29.7422 28.1921 29.8108 28.5119 29.7879 29.8826C29.7422 31.3218 30.8845 33.5834 31.7982 34.7028C31.4556 34.4058 31.3414 34.2002 31.0672 33.9032C30.9302 33.8118 30.7931 33.6291 30.7246 33.5377Z" fill="#92193F"/>
<path d="M37.3486 32.441C37.3258 32.441 37.3258 32.4639 37.3029 32.4639C37.0973 32.5324 36.7546 32.5324 36.6404 32.304C36.5947 32.1897 36.5947 32.0755 36.6404 31.9613C36.8003 31.6415 37.1658 31.8242 37.4171 31.8014C37.7141 31.8014 38.0111 31.5729 38.1482 31.3445C38.2852 31.0932 38.3537 30.7962 38.3537 30.5221C38.3537 30.1794 38.2395 29.8368 38.0796 29.5398C37.737 28.9458 37.1202 28.5118 36.4348 28.3747C36.2749 28.3519 36.115 28.329 35.9551 28.329C33.3737 28.3976 32.7797 30.979 34.1732 32.9893C36.709 36.5987 42.2601 36.0047 45.5269 33.9031L46.5092 33.6746C42.6942 36.256 36.6176 37.2612 33.762 33.172C32.1858 30.9105 32.8483 27.9864 35.7723 27.895C36.9602 27.8722 38.1253 28.6945 38.4223 29.8825C38.5365 30.3393 38.5365 30.8191 38.3537 31.276C38.2624 31.5273 38.1025 31.7557 37.9426 31.9613C37.8283 32.144 37.577 32.3496 37.3486 32.441Z" fill="#92193F"/>
<path fill-rule="evenodd" clip-rule="evenodd" d="M40.6367 34.1546C39.6087 33.0809 39.6087 31.9615 40.2483 31.1619C40.4539 30.9107 40.9108 30.7051 41.0707 30.7736C41.185 30.7964 41.1621 30.865 41.025 30.9107C39.0604 31.596 40.3626 33.949 41.2763 34.1546C40.9794 33.6748 41.0707 32.9895 41.5962 32.6925C41.4819 32.761 41.8931 33.3322 41.9388 33.4007C42.1444 33.6291 42.4186 33.789 42.6927 33.9033C43.2638 34.1317 44.0633 34.2231 44.6573 34.1089C44.9314 34.0632 45.2741 34.0403 45.5482 33.949C45.2284 34.3145 44.6116 34.6343 44.1776 34.817C43.6978 35.0455 43.1953 35.1597 42.6698 35.1369C41.9388 35.0683 41.185 34.7257 40.6367 34.1546Z" fill="#92193F"/>
<path d="M61.0604 41.8986C61.3117 41.8301 62.0428 42.1271 62.3626 42.1499C63.1393 42.1956 63.916 42.424 64.6927 42.424C65.6979 42.4012 66.703 42.287 67.7082 42.0814C68.759 41.7844 73.8533 40.3681 73.6248 35.3423C73.6477 34.9311 73.3507 30.1109 66.8858 30.1109C66.2461 30.1109 62.8195 30.1338 59.3471 32.8979C59.073 33.1264 58.5019 33.7889 58.1592 34.2001C57.8165 34.3828 57.6338 34.3371 57.6338 34.3371C57.6338 34.3371 58.342 33.2406 59.507 32.2126C60.3751 31.4359 64.1673 28.8545 67.5026 29.1972C68.2336 29.2428 72.2999 30.0424 73.7619 33.9259C73.8761 34.3371 74.9498 38.7918 70.8378 41.0762C69.8784 41.6017 68.9874 42.0814 67.9366 42.3784C67.0228 42.6297 66.0634 42.7667 65.1039 42.7896C64.35 42.8124 63.5733 42.8581 62.8423 42.6753C62.5225 42.6068 62.2027 42.5154 61.8828 42.4697C61.4945 42.4012 60.7635 42.0129 60.398 42.0814C60.7863 41.9443 61.0604 41.8986 61.0604 41.8986Z" fill="#92193F"/>
<path d="M133.018 29.2936C133.498 29.3164 136.216 29.6363 141.448 32.6289C142.407 33.2228 146.473 36.0555 151.682 36.4896C153.806 36.6723 156.205 35.8728 157.736 34.4564C158.627 33.634 159.289 33.0401 159.86 31.9435C160.134 31.4181 160.363 30.5272 160.431 29.9332C160.5 29.1794 160.431 28.7682 160.408 28.4712C160.363 28.5626 160.203 28.6768 159.883 29.0651C159.655 28.8824 159.403 28.8367 159.289 28.791C159.426 29.1337 159.403 30.0703 159.358 30.4587C159.038 32.8802 156.753 34.7305 154.56 35.4159C152.322 36.1241 149.831 35.8956 147.661 35.0732C143.709 33.7711 138.112 28.9052 131.944 28.8595C129.797 28.8367 124.383 30.6642 127.307 35.9641C127.307 35.9641 127.947 36.2383 127.672 35.6443C127.672 35.6443 126.302 33.9995 127.147 31.8293C127.147 31.8522 128.609 29.0195 133.018 29.2936Z" fill="#92193F"/>
<path d="M140.627 42.7034C140.581 42.7034 140.375 42.8176 139.759 43.0232C139.096 43.2288 138.822 43.3202 137.954 43.4801C137.246 43.6172 136.538 43.7314 135.829 43.7771C134.482 43.8685 133.111 43.8228 131.763 43.64C130.324 43.3431 123.402 41.9724 123.174 35.2105C123.105 34.6622 122.991 28.1972 131.626 27.5119C132.494 27.4434 137.109 27.3292 142.02 30.6644C142.409 30.9386 143.185 31.5554 143.688 32.0579C143.939 32.1036 144.419 32.1722 144.419 32.1722C144.419 32.1722 142.888 30.6188 141.335 29.4308C140.101 28.4714 135.121 25.5016 130.712 26.3469C129.73 26.5068 124.407 27.9688 122.854 33.2915C122.762 33.8627 121.666 39.3681 127.171 42.4521C128.451 43.1603 129.89 43.7086 131.695 44.0056C134.39 44.4853 136.652 44.2112 139.553 43.4801C140.238 43.2974 140.924 43.0461 141.563 42.772C140.992 42.772 140.627 42.7034 140.627 42.7034Z" fill="#92193F"/>
<path fill-rule="evenodd" clip-rule="evenodd" d="M135.211 39.4595C132.927 41.0814 125.502 39.5509 127.147 35.2561C130.208 37.4492 135.028 36.1242 133.543 32.4919C136.787 33.8854 133.612 40.2362 129.477 37.4949C130.322 39.3681 133.406 39.5052 135.211 39.4595Z" fill="#92193F"/>
<path d="M131.351 38.4084C134.07 38.774 135.783 37.0149 136.103 35.1189C136.4 33.3142 135.509 31.3952 132.996 30.984L133.019 30.8013C134.321 31.0297 135.212 31.6465 135.738 32.4461C136.263 33.2456 136.423 34.2279 136.263 35.1645C135.92 37.1748 134.138 38.8425 131.306 38.4541L131.351 38.4084Z" fill="#92193F"/>
<path fill-rule="evenodd" clip-rule="evenodd" d="M139.781 43.0919C141.243 42.338 142.934 41.7669 143.459 40.2135C141.289 39.9393 141.426 42.635 139.53 42.9776C140.695 42.1324 140.809 40.3962 141.86 39.3911C142.819 38.4773 144.464 38.3174 146.246 38.3174C145.218 39.0712 144.99 40.579 144.144 41.5613C143.231 42.6578 141.837 43.3203 139.781 43.0919Z" fill="#92193F"/>
<path d="M145.514 26.6892C145.903 24.4962 148.301 22.76 150.495 23.1255C150.723 23.1712 150.951 23.1712 151.157 23.2626C151.568 22.7829 152.413 22.1204 152.779 21.9833C153.647 21.6406 154.31 21.5264 155.086 21.6635C155.429 21.7092 155.772 21.8234 156.137 21.9376C158.353 22.7143 159.769 25.5242 159.838 28.0599H159.655C159.609 25.6156 157.965 23.1712 155.84 22.4402C155.475 22.3031 155.132 22.2117 154.812 22.1661C154.058 22.029 153.396 22.1204 152.551 22.4402C152.231 22.5544 151.751 22.9199 151.34 23.3768C151.682 23.5367 152.002 23.7652 152.299 24.0621C152.596 24.3591 152.688 24.7018 152.642 24.9988C152.551 25.5699 151.979 26.0268 151.385 25.9354C151.134 25.8897 150.883 25.7298 150.677 25.4556C150.495 25.1815 150.449 24.8845 150.495 24.5876C150.563 24.1992 150.769 23.8108 151.066 23.4682C150.883 23.3997 150.677 23.354 150.472 23.3083C149.444 23.1255 148.324 23.4682 147.433 24.085C146.542 24.7246 145.88 25.6612 145.697 26.7121C145.606 27.2832 145.652 27.9 145.903 28.5168L145.743 28.5853C145.446 27.9457 145.4 27.306 145.514 26.6892ZM150.654 24.6104C150.609 24.8845 150.654 25.1358 150.814 25.3414C150.997 25.5927 151.203 25.7069 151.408 25.7526C151.888 25.844 152.391 25.4328 152.459 24.9759C152.505 24.7246 152.436 24.4505 152.185 24.1992C151.888 23.9022 151.568 23.6966 151.226 23.5367C150.929 23.8794 150.7 24.2677 150.654 24.6104Z" fill="#92193F"/>
<path fill-rule="evenodd" clip-rule="evenodd" d="M162.603 28.8598C163.037 27.375 163.54 25.9358 164.636 25.4332C165.025 27.0095 162.946 27.6034 162.489 29.5223C163.129 28.2202 164.705 27.375 165.367 26.5297C165.961 25.753 165.938 24.5194 165.801 23.2173C165.322 24.0397 164.248 24.3138 163.585 25.022C162.877 25.7987 162.42 27.3293 162.603 28.8598Z" fill="#92193F"/>
<path d="M166.852 31.8979C166.212 32.3776 165.641 32.8345 165.024 33.3828C163.928 34.388 163.22 35.2789 161.712 36.4668C160.524 37.4034 159.085 38.0887 157.783 38.4314C156.138 38.8655 153.351 38.5913 151.752 38.0887C150.153 37.5862 147.845 36.6495 145.218 35.119C144.693 35.1647 147.274 36.6952 148.85 37.3577C151.934 38.6827 155.247 39.7335 158.559 38.7512C159.519 38.4771 160.867 37.8603 161.689 37.2663C162.74 36.4896 163.676 35.5073 164.59 34.5707C165.687 33.4285 166.555 32.3548 168.108 31.7837C171.581 30.4816 173.705 32.7203 173.956 33.1772C173.888 32.2406 173.294 32.0121 173.043 31.3725C172.791 30.7557 173.385 30.4816 174.208 30.0475C175.03 29.6363 175.281 28.8368 175.144 28.5398C174.779 28.9281 173.797 29.3393 171.192 30.1389C168.177 30.9841 167.217 31.7152 166.852 31.8979Z" fill="#92193F"/>
<path d="M162.716 37.6319C163.196 37.2893 163.425 37.0608 163.882 36.6496C164.498 36.1014 165.024 35.5074 165.595 34.9363C165.869 34.6393 166.189 34.388 166.509 34.1368C168.131 32.8575 170.187 32.4463 172.014 33.5656C172.859 34.0911 173.453 34.8449 173.842 35.8729C174.596 37.9289 173.682 39.8707 171.626 40.6246C170.986 40.853 170.346 40.853 169.684 40.6017C168.907 40.3047 168.359 39.7565 168.039 38.9341C167.811 38.3173 167.834 37.7233 168.131 37.1751C168.428 36.6039 168.839 36.2156 169.41 36.01C169.867 35.8501 170.301 35.8729 170.689 36.1014C171.009 36.2613 171.237 36.5583 171.397 36.9923C171.466 37.1979 171.466 37.4263 171.397 37.6319C171.329 37.8604 171.192 37.9975 171.032 38.066C170.872 38.1345 170.735 38.1345 170.598 38.0888C170.484 38.0431 170.369 37.9061 170.301 37.6776C170.255 37.5634 170.232 37.472 170.232 37.4263C170.118 37.4949 170.027 37.5406 169.981 37.5634C169.661 37.8147 169.57 38.0888 169.684 38.4315C169.798 38.7285 169.981 38.9341 170.255 39.0483C170.461 39.1168 170.666 39.1168 170.872 39.0483C171.329 38.8884 171.626 38.5914 171.74 38.1802C171.854 37.769 171.831 37.335 171.671 36.8781C171.512 36.444 171.192 36.1014 170.735 35.8729C170.278 35.6445 169.798 35.6216 169.296 35.8044C166.623 36.7867 167.445 40.4646 169.958 41.0129C170.506 41.1271 171.055 41.1043 171.557 40.9215C174.481 39.8707 175.692 36.3755 172.951 33.7027C174.824 34.5023 177.131 35.3932 178.685 35.4846C180.421 35.5531 183.139 34.4566 182.888 32.2864C182.705 30.5502 180.535 29.4537 179.05 30.8929C178.433 31.4868 178.342 32.6062 178.913 33.1544C179.279 33.52 179.827 33.6799 180.261 33.36C180.512 33.1773 180.672 32.8575 180.512 32.5833C180.421 32.4234 180.284 32.332 180.101 32.3549C179.644 32.4234 179.758 32.7661 179.69 32.9717C179.553 32.9945 179.393 32.926 179.256 32.8118C178.776 32.4234 179.027 31.5325 179.507 31.167C180.284 30.573 181.449 30.6873 181.974 31.464C183.688 33.954 180.261 35.1876 178.57 35.0505C176.286 34.8906 174.299 33.657 172.174 32.926C171.192 32.5833 170.141 32.332 169.09 32.492C167.377 32.7661 166.143 33.7484 165.001 35.0048C164.498 35.5531 163.973 36.0785 163.425 36.5583C162.831 37.0608 162.328 37.5177 161.666 37.9289C161.163 38.2259 160.66 38.5457 160.112 38.7513C159.176 39.094 158.262 39.3453 157.279 39.4138C157.668 39.5052 157.919 39.4823 159.039 39.2767C159.61 39.1854 160.204 38.9798 160.66 38.797C161.574 38.4543 162.008 38.1345 162.716 37.6319Z" fill="#92193F"/>
<path fill-rule="evenodd" clip-rule="evenodd" d="M160.18 32.5377C160.408 32.2864 160.637 32.0123 160.819 31.7153C160.979 31.4869 161.116 31.2356 161.231 30.9843C161.482 30.4817 161.665 29.9791 161.87 29.4537C162.396 28.0831 162.578 25.8672 161.208 25.0904C161.733 24.5879 161.779 23.9482 161.802 23.7426C161.893 22.9202 161.322 22.0978 160.774 21.5724C159.677 20.5216 157.781 20.5444 158.718 18.3057C157.644 19.1052 157.941 20.316 158.535 21.3211C158.832 21.8465 159.152 22.1664 159.494 22.6689C160.157 23.5827 160.705 24.9305 160.934 26.0499C161.162 27.1921 161.094 27.5119 161.116 28.8826C161.162 30.3218 160.02 32.5834 159.106 33.7028C159.449 33.4058 159.563 33.2002 159.837 32.9032C159.974 32.8118 160.111 32.6291 160.18 32.5377Z" fill="#92193F"/>
<path d="M153.556 31.441C153.579 31.441 153.579 31.4639 153.601 31.4639C153.807 31.5324 154.15 31.5324 154.264 31.304C154.31 31.1897 154.31 31.0755 154.264 30.9613C154.104 30.6415 153.738 30.8242 153.487 30.8014C153.19 30.8014 152.893 30.5729 152.756 30.3445C152.619 30.0932 152.551 29.7962 152.551 29.5221C152.551 29.1794 152.665 28.8368 152.825 28.5398C153.167 27.9458 153.784 27.5118 154.469 27.3747C154.629 27.3519 154.789 27.329 154.949 27.329C157.531 27.3976 158.125 29.979 156.731 31.9893C154.195 35.5987 148.644 35.0047 145.377 32.9031L144.395 32.6746C148.21 35.256 154.287 36.2612 157.142 32.172C158.719 29.9105 158.056 26.9864 155.132 26.895C153.944 26.8722 152.779 27.6945 152.482 28.8825C152.368 29.3393 152.368 29.8191 152.551 30.276C152.642 30.5273 152.802 30.7557 152.962 30.9613C153.076 31.144 153.327 31.3496 153.556 31.441Z" fill="#92193F"/>
<path fill-rule="evenodd" clip-rule="evenodd" d="M150.268 33.1546C151.296 32.0809 151.296 30.9615 150.656 30.1619C150.45 29.9107 149.993 29.7051 149.834 29.7736C149.719 29.7964 149.742 29.865 149.879 29.9107C151.844 30.596 150.542 32.949 149.628 33.1546C149.925 32.6748 149.834 31.9895 149.308 31.6925C149.422 31.761 149.011 32.3322 148.965 32.4007C148.76 32.6291 148.486 32.789 148.212 32.9033C147.641 33.1317 146.841 33.2231 146.247 33.1089C145.973 33.0632 145.63 33.0403 145.356 32.949C145.676 33.3145 146.293 33.6343 146.727 33.817C147.206 34.0455 147.709 34.1597 148.234 34.1369C148.965 34.0683 149.719 33.7257 150.268 33.1546Z" fill="#92193F"/>
<path d="M129.844 40.8986C129.593 40.8301 128.862 41.1271 128.542 41.1499C127.765 41.1956 126.988 41.424 126.212 41.424C125.206 41.4012 124.201 41.287 123.196 41.0814C122.145 40.7844 117.051 39.3681 117.279 34.3423C117.257 33.9311 117.554 29.1109 124.019 29.1109C124.658 29.1109 128.085 29.1338 131.557 31.8979C131.831 32.1264 132.402 32.7889 132.745 33.2001C133.088 33.3828 133.271 33.3371 133.271 33.3371C133.271 33.3371 132.562 32.2406 131.397 31.2126C130.529 30.4359 126.737 27.8545 123.402 28.1972C122.671 28.2428 118.604 29.0424 117.142 32.9259C117.028 33.3371 115.954 37.7918 120.066 40.0762C121.026 40.6017 121.917 41.0814 122.968 41.3784C123.881 41.6297 124.841 41.7667 125.8 41.7896C126.554 41.8124 127.331 41.8581 128.062 41.6753C128.382 41.6068 128.702 41.5154 129.021 41.4697C129.41 41.4012 130.141 41.0129 130.506 41.0814C130.118 40.9443 129.844 40.8986 129.844 40.8986Z" fill="#92193F"/>
<g clip-path="url(#clip0)">
<path d="M96.4993 38.1992C96.5419 38.8798 96.712 39.7305 97.0948 40.6237C97.4351 41.5169 97.9455 42.4952 98.4984 43.5585C99.0514 44.6219 99.6894 45.7703 100.072 47.0038C100.157 47.3015 100.242 47.6418 100.285 47.9395C100.327 48.2372 100.327 48.62 100.327 48.9178C100.327 49.5983 100.2 50.2789 99.9871 50.9594C99.5618 52.3205 98.7536 53.6816 97.7753 55.0427L96.2441 57.1694L95.8613 57.7223L95.6486 58.02L95.5636 58.1477L95.3934 57.8499L95.0106 57.297C94.5002 56.5314 93.9473 55.8508 93.4369 55.1703C92.4161 53.8092 91.5229 52.5757 91.14 51.2146C90.9274 50.5341 90.8423 49.8535 90.7998 49.1305V48.62C90.7998 48.535 90.8423 48.3648 90.8423 48.1947C90.8848 47.897 91.0124 47.5567 91.0975 47.259C91.5229 45.9829 92.0758 44.792 92.5011 43.6861C93.3943 41.4743 93.9898 39.5603 94.1174 38.1992C94.1174 38.1142 94.1174 38.0291 94.1174 37.944C94.0324 38.0291 93.9473 38.0716 93.8622 38.1567C93.8197 38.1992 93.7772 38.2418 93.7346 38.2843C93.3943 39.5603 92.6287 41.2191 91.5654 43.2182C91.0124 44.2816 90.3744 45.3875 89.8215 46.7486C89.6939 47.0888 89.5238 47.4291 89.4387 47.8544C89.3962 48.0671 89.3536 48.2372 89.3111 48.535C89.3111 48.7477 89.2686 48.9603 89.2686 49.1305C89.2686 49.9386 89.3111 50.7467 89.5238 51.5974C89.7364 52.4481 90.0767 53.2562 90.502 54.0644C90.9274 54.83 91.4378 55.5531 91.9482 56.2762C92.4586 56.9992 92.969 57.6798 93.4369 58.4029L93.7772 58.9558L93.9473 59.2535L94.2876 59.849C94.7554 60.6146 95.1808 61.5078 95.6061 62.316L95.6912 62.1033C96.1591 61.2526 96.5844 60.3594 97.0523 59.5938L97.5201 58.8707L97.9029 58.3178L99.3916 56.1486C100.37 54.7024 101.263 53.1286 101.688 51.4273C101.901 50.5766 101.986 49.7259 101.944 48.9178C101.901 48.4924 101.901 48.1096 101.816 47.7268C101.731 47.3015 101.603 46.9187 101.476 46.5784C100.88 45.1748 100.115 44.0689 99.4767 43.0906C98.7962 42.1124 98.2432 41.2191 97.7753 40.3685C97.35 39.5603 97.0523 38.7947 96.9247 38.1567C96.8821 38.0291 96.8821 37.9015 96.8821 37.7739C96.7971 37.6888 96.712 37.6463 96.6269 37.6038C96.4993 37.7739 96.4568 37.9866 96.4993 38.1992Z" fill="#92193F"/>
<path d="M95.521 48.9175C95.4785 48.9175 95.4785 48.9175 95.521 48.9175C95.4785 48.9175 95.4785 48.9175 95.521 48.9175C95.4785 48.9175 95.4785 48.96 95.436 48.875L95.0957 48.2795C94.6278 47.5564 94.2876 46.9184 94.16 46.2379C94.0749 45.8976 94.0324 45.5573 93.9898 45.2171C93.9898 45.0044 93.9898 44.9618 93.9898 44.7917C93.9898 44.6216 94.0324 44.494 94.0749 44.3238C94.2025 43.6433 94.4152 43.0053 94.5428 42.4098C94.8405 41.2189 95.0106 40.198 94.9681 39.475C94.9681 38.7519 94.798 38.4116 94.798 38.4116C94.798 38.4116 94.8405 38.7944 94.6704 39.4324C94.5002 40.0704 94.1174 40.9637 93.607 42.0695C93.3518 42.6225 93.0541 43.218 92.7989 43.941C92.7138 44.1112 92.6713 44.3238 92.5862 44.5365C92.5437 44.7492 92.5011 45.0469 92.4586 45.2596C92.4161 45.6849 92.4161 46.1103 92.5011 46.5781C92.6287 47.5139 93.0115 48.4496 93.4369 49.2152L93.7346 49.8107L94.0324 50.3637C94.1174 50.5763 94.245 50.789 94.3301 51.0017C94.7129 51.8949 95.0957 52.9157 95.4785 53.8089V53.7664C95.8613 52.8306 96.2867 51.7247 96.6695 50.9166L97.5627 49.1727C97.9455 48.3646 98.3283 47.4288 98.4559 46.5356C98.5835 45.5999 98.541 44.7066 98.2432 43.8985C97.9455 43.1329 97.6052 42.5374 97.3075 42.027C96.6695 40.9637 96.2441 40.113 96.1165 39.475C95.9464 38.837 96.074 38.4116 96.074 38.4542C96.074 38.4542 95.8613 38.7944 95.8188 39.5175C95.7763 40.2406 96.0315 41.3039 96.4143 42.4523C96.6269 43.0478 96.8396 43.6858 96.9247 44.2813C97.0097 44.8768 96.9672 45.5573 96.7971 46.2379C96.6269 46.9184 96.2867 47.599 95.8613 48.322L95.5636 48.8324L95.521 48.9175C95.521 48.9175 95.4785 48.96 95.521 48.9175Z" fill="#92193F"/>
<path d="M93.9899 32.0317C93.8623 30.6706 93.2669 28.7991 92.3736 26.5448C91.9483 25.4389 91.3954 24.248 90.97 22.9719C90.8849 22.6742 90.7573 22.3339 90.7148 22.0362C90.6723 21.9086 90.6723 21.7385 90.6723 21.6109V21.1005C90.7148 20.4199 90.7999 19.6968 91.0126 19.0163C91.3954 17.6552 92.2886 16.4217 93.3094 15.0606C93.8198 14.3801 94.3727 13.657 94.8831 12.9339L95.2659 12.381L95.4361 12.0833L95.5211 12.2109L95.7338 12.5086L96.1166 13.0615L97.6478 15.1882C98.6261 16.5493 99.4768 17.8679 99.8596 19.2715C100.072 19.952 100.2 20.6326 100.2 21.3131C100.2 21.6534 100.2 21.9937 100.157 22.2914C100.115 22.5891 100.03 22.9294 99.9447 23.2271C99.5619 24.4606 98.9239 25.6091 98.3709 26.6724C97.818 27.7357 97.3076 28.714 96.9673 29.6072C96.627 30.5005 96.4144 31.3511 96.3718 32.0317C96.3293 32.457 96.3718 32.7973 96.4569 33.095C96.4994 33.0525 96.542 33.0525 96.627 33.01C96.627 32.7548 96.627 32.4145 96.7121 32.0742C96.8397 31.4362 97.1374 30.6706 97.5628 29.8624C97.9881 29.0543 98.5836 28.1611 99.2641 27.1403C99.9021 26.1195 100.668 25.0561 101.263 23.6525C101.391 23.3122 101.518 22.9294 101.604 22.5041C101.689 22.0787 101.731 21.6959 101.731 21.3131C101.774 20.505 101.689 19.6543 101.476 18.8036C101.051 17.1023 100.157 15.571 99.1791 14.0824L97.6904 11.9131L97.4352 11.4027L96.9673 10.6796C96.4994 9.91403 96.0741 9.02081 95.6062 8.17014L95.4786 8C95.0533 8.80814 94.5854 9.70136 94.1601 10.467L93.8198 11.0624L93.6497 11.3602L93.3094 11.9131C92.8415 12.6362 92.3311 13.3167 91.8207 14.0398C91.3103 14.7204 90.7999 15.4434 90.3745 16.2516C89.9492 16.9321 89.6089 17.7828 89.4388 18.6335C89.2261 19.4842 89.1836 20.3348 89.1836 21.1005C89.1836 21.3131 89.1836 21.4833 89.2261 21.6959C89.2687 21.9511 89.3112 22.1638 89.3537 22.3765C89.4813 22.7593 89.6089 23.1421 89.7365 23.4824C90.332 24.8009 90.97 25.9493 91.4804 27.0127C92.5863 29.0968 93.3945 30.8407 93.6922 32.1167C93.7347 32.3294 93.7773 32.5421 93.8198 32.7548C93.9049 32.7973 93.9474 32.8398 94.0325 32.9249C94.0325 32.6272 94.0325 32.3294 93.9899 32.0317Z" fill="#92193F"/>
<path d="M96.7971 24.0354C96.9672 24.7159 97.0097 25.3965 96.9247 25.992C96.7971 26.63 96.5844 27.268 96.4143 27.8209C95.9889 28.9693 95.7763 30.0327 95.8188 30.7558C95.8613 31.4788 96.074 31.8191 96.074 31.8191C96.074 31.8191 95.9889 31.4363 96.1165 30.7983C96.2441 30.1603 96.712 29.3096 97.3075 28.2463C97.6052 27.6933 97.988 27.1404 98.2432 26.3748C98.541 25.5666 98.5835 24.6734 98.4559 23.7377C98.3283 22.8019 97.988 21.9087 97.5627 21.1006L96.6695 19.3567C96.2867 18.506 95.8613 17.4001 95.4785 16.5069V16.4644C95.0957 17.3576 94.7129 18.3784 94.3301 19.2716C94.245 19.4843 94.1174 19.6969 94.0324 19.9096L93.7346 20.4625L93.4369 21.058C93.0115 21.8236 92.5862 22.7594 92.5011 23.6951C92.4161 24.1205 92.4161 24.5883 92.4586 25.0137C92.4586 25.2263 92.5011 25.5241 92.5862 25.7368C92.6287 25.9494 92.7138 26.1196 92.7989 26.3322C93.0541 27.0553 93.3518 27.6508 93.607 28.2037C94.1174 29.3096 94.5002 30.2028 94.6704 30.8408C94.8405 31.4788 94.798 31.8616 94.798 31.8616C94.798 31.8616 94.9681 31.4788 94.9681 30.7983C94.9681 30.0752 94.8405 29.0544 94.5428 27.8635C94.4152 27.268 94.2025 26.5874 94.0749 25.9494C94.0324 25.7793 94.0324 25.6092 93.9898 25.4815C93.9898 25.3114 93.9898 25.2689 93.9898 25.0562C94.0324 24.7159 94.0749 24.3757 94.16 24.0354C94.3301 23.3549 94.6704 22.7594 95.0957 21.9938L95.436 21.3983C95.4785 21.3132 95.4785 21.3558 95.4785 21.3558L95.521 21.4408L95.8613 21.9938C96.2867 22.7168 96.6269 23.3974 96.7971 24.0354Z" fill="#92193F"/>
<path d="M117.384 46.0679L117.001 45.3023L116.703 44.7068L115.598 42.3249C114.832 40.7511 113.939 39.2199 112.663 37.9864C112.025 37.3909 111.344 36.8805 110.621 36.4977C110.238 36.2851 109.898 36.1575 109.515 36.0299C109.132 35.9023 108.75 35.8172 108.367 35.7747C106.878 35.562 105.517 35.6896 104.326 35.7747C103.135 35.8597 102.072 35.9023 101.136 35.9023C100.2 35.8597 99.4346 35.7321 98.7966 35.5194C98.669 35.4769 98.5414 35.4344 98.4563 35.3918C98.3713 35.4344 98.2437 35.4769 98.1586 35.5194C98.3287 35.6045 98.4989 35.7321 98.669 35.8172C99.2645 36.1149 100.115 36.3701 101.051 36.5403C102.029 36.7104 103.093 36.7529 104.326 36.7955C105.517 36.838 106.836 36.8805 108.112 37.1357C108.409 37.2208 108.75 37.3059 109.005 37.4335C109.26 37.5611 109.6 37.7312 109.898 37.9013C110.493 38.2416 111.004 38.7095 111.514 39.2199C112.493 40.2832 113.216 41.6443 113.939 43.1756L115.002 45.5575L115.3 46.1955L115.47 46.4932L115.512 46.6208H115.172L114.407 46.7059C113.513 46.7909 112.62 46.876 111.769 47.0036C110.068 47.2163 108.579 47.3864 107.176 47.0461C106.495 46.876 105.815 46.6208 105.219 46.3231L104.794 46.0679C104.709 46.0253 104.581 45.8977 104.454 45.8127C104.198 45.6 103.986 45.3448 103.773 45.1321C102.88 44.1113 102.114 43.048 101.349 42.1122C99.86 40.2407 98.5414 38.7946 97.393 37.9864C97.1378 37.8163 96.8826 37.6461 96.6699 37.5185C96.6699 37.6036 96.6699 37.6887 96.7125 37.7737C96.8826 37.9013 97.0102 38.0289 97.1803 38.1991C98.1161 39.0923 99.2645 40.6661 100.498 42.6651C101.136 43.686 101.817 44.7918 102.667 45.9403C102.88 46.238 103.135 46.5357 103.39 46.8335C103.56 47.0036 103.688 47.1312 103.901 47.3013C104.071 47.429 104.241 47.514 104.411 47.6416C105.092 48.067 105.857 48.4072 106.665 48.6624C107.516 48.9176 108.409 49.0452 109.26 49.0452C110.153 49.0452 111.004 49.0027 111.855 48.9176C112.705 48.8326 113.556 48.7475 114.407 48.705L115.045 48.6624H115.385H116.065C116.959 48.6624 117.937 48.705 118.873 48.7475L118.745 48.5774C118.362 47.6842 117.809 46.8335 117.384 46.0679Z" fill="#92193F"/>
<path d="M96.5 37.4336C96.5 37.4761 96.5 37.5612 96.5 37.6037C96.5851 37.6463 96.6701 37.7313 96.7552 37.7739C96.7552 37.6888 96.7552 37.6037 96.7127 37.5187C96.6276 37.4761 96.5851 37.4336 96.5 37.4336Z" fill="#92193F"/>
<path d="M107.431 42.0694C107.431 42.0694 107.474 42.0694 107.389 42.0694H106.708C105.858 42.112 105.135 42.0694 104.497 41.8568C104.156 41.7717 103.859 41.6441 103.518 41.4739C103.348 41.3889 103.306 41.3463 103.135 41.2613C103.008 41.1762 102.88 41.0486 102.753 40.9635C102.242 40.4957 101.774 40.0278 101.306 39.6025C100.413 38.7518 99.6051 38.1138 98.9671 37.7735C98.3291 37.4332 97.9463 37.3907 97.9463 37.3907C97.9463 37.3907 98.2866 37.5608 98.7544 38.0287C99.2223 38.4966 99.8178 39.2622 100.498 40.283C100.839 40.7934 101.221 41.3463 101.689 41.9418C101.817 42.0694 101.944 42.2396 102.115 42.4097C102.242 42.5798 102.497 42.75 102.668 42.835C103.008 43.0902 103.391 43.3029 103.816 43.473C104.667 43.8558 105.687 43.9409 106.581 43.9834L107.261 44.026L107.857 44.0685C108.069 44.0685 108.325 44.1111 108.537 44.1111C109.473 44.2387 110.579 44.4088 111.557 44.4939L111.515 44.4513C110.919 43.6432 110.154 42.75 109.643 41.9844L108.58 40.3681C108.069 39.6025 107.474 38.8368 106.751 38.2839C106.028 37.731 105.22 37.3056 104.369 37.178C103.561 37.0504 102.88 37.0504 102.285 37.0504C101.051 37.0504 100.116 37.0079 99.4775 36.8377C98.8395 36.6251 98.5418 36.3699 98.5418 36.3699C98.5418 36.3699 98.7119 36.7101 99.3499 37.1355C99.9454 37.5608 100.966 37.8586 102.2 38.0712C102.795 38.1988 103.476 38.3264 104.071 38.5391C104.624 38.7518 105.22 39.1346 105.687 39.6025C106.198 40.1129 106.623 40.7083 107.049 41.4314L107.389 41.9844L107.431 42.0694C107.474 42.0269 107.474 42.0269 107.431 42.0694C107.431 42.0269 107.431 42.0269 107.431 42.0694C107.431 42.0269 107.431 42.0269 107.431 42.0694Z" fill="#92193F"/>
<path d="M92.076 34.8816C90.8425 34.3287 88.9285 33.8608 86.5466 33.5205C85.3557 33.3504 84.0371 33.1803 82.7611 32.9251C82.4208 32.84 82.1231 32.7975 81.8253 32.6699C81.6977 32.6273 81.5276 32.5423 81.4425 32.4997L81.0172 32.2445C80.4217 31.8617 79.8688 31.4364 79.4009 30.926C78.4226 29.9052 77.7846 28.5015 77.1466 26.9278C76.8063 26.1622 76.4661 25.3115 76.0833 24.5034L75.7855 23.8653L75.6154 23.5676H75.743L76.0833 23.5251L76.7638 23.4825L79.3584 23.2273C81.0172 23.0572 82.591 23.0147 83.9946 23.3124C84.6751 23.4825 85.3557 23.6952 85.9511 24.0355C86.2489 24.2056 86.5466 24.3758 86.8018 24.5459C87.057 24.716 87.2697 24.9287 87.4824 25.1839C88.3756 26.1196 89.0136 27.2681 89.6941 28.2463C90.3321 29.2672 90.9276 30.1604 91.5656 30.926C92.1611 31.6916 92.7991 32.2871 93.3946 32.6273C93.5647 32.7549 93.7348 32.84 93.905 32.9251C93.905 32.84 93.8624 32.7124 93.8624 32.6273C93.7774 32.5423 93.6498 32.4572 93.5647 32.3721C93.0543 31.9468 92.5864 31.3088 92.076 30.5432C91.5656 29.735 91.0977 28.7993 90.5873 27.7359C90.0344 26.6726 89.4814 25.4816 88.5457 24.2482C88.2905 23.9504 88.0353 23.6527 87.7376 23.3975C87.3973 23.0997 87.0995 22.8871 86.7593 22.6744C86.0787 22.2491 85.2706 21.8662 84.4624 21.6536C82.8036 21.1857 80.9747 21.1432 79.2308 21.2708L76.6362 21.4834L75.9131 21.611L75.0624 21.6536C74.1692 21.6961 73.1484 21.611 72.2127 21.5685H72C72.4679 22.3341 73.0208 23.1848 73.4887 23.9504L73.829 24.5459L73.9991 24.8436L74.2968 25.3966C74.6796 26.1622 75.0199 26.9278 75.4027 27.7359C75.743 28.5015 76.1258 29.3097 76.5937 30.0753C77.0615 30.8409 77.6145 31.564 78.21 32.1595C78.848 32.7549 79.5285 33.2228 80.2516 33.6056C80.4217 33.6907 80.5919 33.7758 80.8045 33.9034C81.0597 34.031 81.2299 34.0735 81.4425 34.116C81.8253 34.2011 82.2081 34.2862 82.5909 34.3287C84.0371 34.4988 85.3131 34.4988 86.5041 34.5414C88.886 34.6264 90.7575 34.7966 92.0335 35.1794C92.2462 35.2644 92.4588 35.307 92.629 35.392C92.714 35.3495 92.7991 35.307 92.8842 35.2644C92.5864 35.1368 92.3312 35.0092 92.076 34.8816Z" fill="#92193F"/>
<path d="M94.032 33.0952C94.032 33.0101 94.032 32.9251 94.032 32.8825C93.9469 32.84 93.9044 32.7975 93.8193 32.7124C93.8193 32.84 93.8619 32.9251 93.8619 33.0101C93.9044 33.0527 93.9469 33.0952 94.032 33.0952Z" fill="#92193F"/>
<path d="M83.6543 28.2037H84.2923C85.143 28.2037 85.9086 28.2462 86.5466 28.4589C87.2272 28.629 87.8227 28.9268 88.2905 29.3096C88.7584 29.7349 89.2263 30.2453 89.6091 30.6706C90.4172 31.6064 91.1828 32.3295 91.8634 32.6697C92.5014 33.01 92.9267 32.9675 92.9267 32.9675C92.9267 32.9675 92.5439 32.8399 92.076 32.4145C91.5656 31.9892 91.0552 31.1811 90.4598 30.0752C90.162 29.5648 89.8217 28.9268 89.3113 28.3313C88.7584 27.6933 87.9928 27.1829 87.1421 26.8426C86.2914 26.5023 85.3132 26.3322 84.4199 26.2896L82.4634 26.2046C81.5276 26.1195 80.3792 25.9068 79.4009 25.8218H79.3584C79.9539 26.5874 80.6344 27.4806 81.2299 28.2462C81.3575 28.4589 81.4851 28.629 81.6127 28.7992L81.953 29.3096L82.2932 29.8625C82.7611 30.6281 83.3566 31.4363 84.1222 31.9892C84.505 32.2869 84.8878 32.4996 85.2706 32.6697C85.4408 32.7548 85.7385 32.8824 85.9512 32.9249C86.1638 32.9675 86.3765 33.01 86.5466 33.0525C87.3122 33.1801 87.9503 33.2227 88.5883 33.2652C89.8217 33.3503 90.7575 33.4779 91.3955 33.648C92.0335 33.8182 92.3738 34.0308 92.3738 34.0308C92.3738 34.0308 92.1186 33.6906 91.5231 33.3503C90.9276 32.9675 89.9493 32.6272 88.7584 32.2444C88.1629 32.0743 87.5249 31.9041 86.8444 31.6915C86.6742 31.6489 86.5466 31.5639 86.3765 31.5213C86.2064 31.4363 86.1638 31.4363 85.9937 31.3087C85.696 31.096 85.4408 30.8833 85.1855 30.6706C84.6751 30.2028 84.3349 29.6073 83.9095 28.8417L83.5693 28.2462C83.5267 28.1611 83.5267 28.2037 83.5267 28.2037H83.6543Z" fill="#92193F"/>
<path d="M97.648 32.7123C98.2435 32.3294 98.8389 31.734 99.4769 31.0109C100.072 30.2453 100.71 29.3521 101.348 28.3313C101.986 27.3104 102.667 26.2046 103.56 25.2688C103.773 25.0136 104.028 24.8009 104.241 24.6308C104.496 24.4607 104.794 24.248 105.091 24.1204C105.687 23.7801 106.325 23.5675 107.048 23.3973C108.452 23.0571 110.025 23.1421 111.684 23.3123L114.279 23.5675L114.959 23.61L115.3 23.6525H115.427L115.257 23.9503L114.959 24.5883C114.576 25.3964 114.236 26.2471 113.896 27.0127C113.258 28.5865 112.62 29.9901 111.642 31.0109C111.174 31.5213 110.621 31.9466 110.025 32.3295L109.6 32.5847C109.515 32.6272 109.345 32.7123 109.217 32.7548C108.919 32.8399 108.579 32.9249 108.281 33.01C106.963 33.2652 105.644 33.4353 104.496 33.6055C102.114 33.9457 100.2 34.3711 98.9665 34.9666C98.6688 35.0942 98.4136 35.2218 98.2009 35.3494C98.286 35.3919 98.3711 35.4344 98.4561 35.477C98.6263 35.3919 98.8389 35.3494 99.0516 35.2643C100.328 34.8815 102.199 34.7114 104.581 34.6263C105.772 34.5837 107.048 34.5412 108.494 34.4136C108.877 34.3711 109.217 34.3285 109.643 34.2009C109.855 34.1584 110.025 34.0733 110.281 33.9883C110.451 33.9032 110.663 33.8181 110.834 33.6905C111.514 33.3077 112.237 32.8399 112.875 32.2444C113.513 31.6489 114.066 30.9258 114.491 30.1602C114.959 29.3946 115.3 28.629 115.682 27.8209C116.023 27.0552 116.405 26.2471 116.788 25.4815L117.086 24.9285L117.256 24.6308L117.596 24.0353C118.064 23.2697 118.575 22.419 119.085 21.6534H118.872C117.937 21.696 116.916 21.7385 116.023 21.7385L115.172 21.696L114.534 21.6534L111.939 21.4408C110.196 21.3132 108.409 21.3132 106.708 21.8236C105.857 22.0788 105.091 22.419 104.411 22.8444C104.071 23.0571 103.773 23.2697 103.433 23.5675C103.135 23.8227 102.837 24.1204 102.624 24.4181C101.689 25.6091 101.136 26.8426 100.583 27.9059C100.072 28.9693 99.562 29.9476 99.0941 30.7132C98.6263 31.5213 98.1159 32.1168 97.6055 32.5421C97.3503 32.7973 97.0525 32.9675 96.8398 33.0951C96.8398 33.1376 96.8398 33.2227 96.8398 33.2652C97.01 33.0951 97.3077 32.9675 97.648 32.7123Z" fill="#92193F"/>
<path d="M96.5845 33.2652C96.6271 33.2652 96.6696 33.2226 96.7121 33.2226C96.7121 33.1801 96.7121 33.095 96.7121 33.0525C96.6696 33.0525 96.5845 33.095 96.542 33.095C96.542 33.1376 96.5845 33.2226 96.5845 33.2652Z" fill="#92193F"/>
<path d="M97.9883 35.3918C98.0308 35.4344 98.0733 35.4769 98.1584 35.4769C98.2435 35.4343 98.3286 35.3918 98.4562 35.3493C98.3711 35.3067 98.286 35.2642 98.201 35.2217C98.1159 35.3067 98.0308 35.3493 97.9883 35.3918Z" fill="#92193F"/>
<path d="M101.349 30.7131C101.774 30.2453 102.199 29.7348 102.667 29.352C103.135 28.9692 103.731 28.6715 104.411 28.5014C105.092 28.3312 105.815 28.2462 106.666 28.2462H107.304H107.389C107.431 28.2462 107.389 28.2462 107.389 28.2462C107.389 28.2462 107.389 28.2462 107.346 28.2887L107.006 28.8842C106.58 29.6498 106.24 30.2453 105.73 30.7131C105.475 30.9683 105.219 31.181 104.922 31.3511C104.752 31.4787 104.709 31.4787 104.539 31.5638C104.411 31.6063 104.241 31.6914 104.071 31.7339C103.433 31.9466 102.752 32.1167 102.157 32.2869C100.966 32.6272 99.9877 33.01 99.3922 33.3928C98.7542 33.733 98.5416 34.0733 98.5416 34.0733C98.5416 34.0733 98.8818 33.8606 99.5198 33.6905C100.158 33.5204 101.136 33.3928 102.327 33.3077C102.923 33.2652 103.603 33.2226 104.369 33.095C104.539 33.0525 104.752 33.01 104.964 32.9674C105.177 32.9249 105.475 32.7973 105.645 32.7122C106.028 32.5421 106.41 32.2869 106.793 32.0317C107.559 31.4787 108.154 30.6281 108.622 29.905L108.962 29.352L109.303 28.8416C109.43 28.6715 109.558 28.4588 109.685 28.2887C110.238 27.5231 110.961 26.6724 111.557 25.8643H111.514C110.536 25.9919 109.345 26.162 108.452 26.2471L106.623 26.2896C105.73 26.3321 104.752 26.5023 103.901 26.8425C103.05 27.1828 102.285 27.6932 101.732 28.3312C101.221 28.9692 100.881 29.5647 100.583 30.0751C99.9877 31.1385 99.4773 31.9466 98.9669 32.4145C98.499 32.8824 98.0737 32.9674 98.1162 32.9674C98.1162 32.9674 98.499 32.9674 99.1796 32.6697C99.775 32.3719 100.541 31.6489 101.349 30.7131Z" fill="#92193F"/>
<path d="M93.7774 37.8588C93.6923 37.9013 93.6498 37.9438 93.5647 37.9864C92.4588 38.752 91.0977 40.2407 89.6091 42.1122C88.886 43.0479 88.0778 44.1113 87.1846 45.1321C86.9719 45.3873 86.7167 45.6425 86.5041 45.8126C86.3765 45.8977 86.2489 46.0253 86.1638 46.0678L85.7385 46.323C85.1005 46.6208 84.4624 46.9185 83.7819 47.0461C82.4208 47.3864 80.8896 47.2588 79.1882 47.0036C78.3376 46.876 77.4443 46.7909 76.5511 46.7058L75.8706 46.6633H75.5303L75.5729 46.5357L75.743 46.2379L76.0407 45.5999L77.1041 43.218C77.7846 41.6868 78.5502 40.2832 79.5285 39.2624C79.9964 38.752 80.5493 38.2841 81.1448 37.9438C81.4425 37.7737 81.7403 37.6036 82.038 37.476C82.3357 37.3484 82.6335 37.2633 82.9312 37.1782C84.2072 36.8805 85.5258 36.8805 86.7167 36.8379C87.9077 36.7954 89.0136 36.7103 89.9919 36.5827C90.9701 36.4551 91.7783 36.1999 92.3738 35.8597C92.5864 35.7746 92.7566 35.647 92.8842 35.5619C92.7991 35.5194 92.714 35.4769 92.5864 35.4343C92.4588 35.4769 92.3738 35.5194 92.2462 35.5619C91.6507 35.7746 90.8425 35.9022 89.9068 35.9447C88.971 35.9873 87.9077 35.9022 86.7167 35.8171C85.5258 35.7746 84.2072 35.647 82.676 35.8171C82.2932 35.8597 81.9104 35.9447 81.5276 36.0723C81.1448 36.1999 80.8045 36.3701 80.4217 36.5402C79.6986 36.923 78.9756 37.4334 78.3801 38.0289C77.1041 39.2198 76.2109 40.7936 75.4452 42.3674L74.3394 44.7493L74.0416 45.3447L73.6588 46.1103C73.2335 46.876 72.6805 47.7266 72.1701 48.5348L72 48.7049C72.9357 48.6624 73.914 48.6198 74.8072 48.6198H75.4878H75.8281L76.4661 48.6624C77.3167 48.7049 78.1674 48.79 79.0181 48.875C79.8688 48.9601 80.762 49.0452 81.6127 49.0027C82.5059 49.0027 83.3991 48.8751 84.2072 48.6198C85.0579 48.3646 85.8235 48.0244 86.4615 47.599C86.6317 47.514 86.8018 47.3864 86.9719 47.2588C87.1846 47.0886 87.3122 46.961 87.4824 46.7909C87.7801 46.4931 87.9928 46.1954 88.2054 45.8977C89.0561 44.7067 89.7367 43.6008 90.3747 42.6226C91.5656 40.7085 92.6715 39.2198 93.5647 38.2841C93.5647 38.2416 93.6072 38.1565 93.6072 38.114C93.7348 38.0714 93.7348 37.9438 93.7774 37.8588Z" fill="#92193F"/>
<path d="M93.9902 37.9865C93.9902 37.8589 93.9902 37.7738 93.9902 37.6462C93.9052 37.6888 93.8201 37.7738 93.735 37.8164C93.735 37.944 93.6925 38.029 93.65 38.1566C93.65 38.1992 93.6074 38.2843 93.6074 38.3268C93.65 38.2843 93.6925 38.2417 93.735 38.1992C93.8626 38.1141 93.9052 38.0716 93.9902 37.9865Z" fill="#92193F"/>
<path d="M93.0118 35.3918C92.9693 35.3492 92.8842 35.3067 92.7991 35.2642C92.7141 35.3067 92.629 35.3492 92.5439 35.3918C92.629 35.4343 92.7566 35.4768 92.8417 35.5194C92.8842 35.4768 92.9693 35.4343 93.0118 35.3918Z" fill="#92193F"/>
<path d="M89.6511 39.6025C89.1832 40.0278 88.7153 40.4957 88.2049 40.9635C88.0773 41.0911 87.9497 41.1762 87.8221 41.2613C87.6945 41.3463 87.6094 41.3889 87.4393 41.4739C87.1416 41.6441 86.8013 41.7717 86.461 41.8568C85.7805 42.0694 85.0999 42.0694 84.2493 42.0694H83.5687C83.4836 42.0694 83.5262 42.0694 83.5262 42.0694L83.5687 41.9844L83.909 41.4314C84.3343 40.7083 84.7597 40.0703 85.2701 39.6025C85.7805 39.1346 86.3334 38.7092 86.8864 38.5391C87.4818 38.3264 88.1624 38.1988 88.7579 38.0712C89.9488 37.8586 91.0122 37.5183 91.6076 37.1355C92.2031 36.7527 92.4158 36.3699 92.4158 36.3699C92.4158 36.3699 92.118 36.6251 91.48 36.8377C90.842 37.0504 89.9063 37.093 88.6728 37.0504C88.0773 37.0504 87.3542 37.0504 86.5886 37.178C85.7379 37.3482 84.9298 37.731 84.2067 38.2839C83.4836 38.8368 82.8882 39.6025 82.3778 40.3681L81.3144 41.9844C80.7615 42.75 80.0384 43.6432 79.4429 44.4513L79.4004 44.4939C80.3787 44.3663 81.4846 44.1961 82.4203 44.1111C82.6755 44.0685 82.8882 44.0685 83.1008 44.0685L83.6963 44.026L84.3769 43.9834C85.2701 43.9409 86.2909 43.8558 87.1416 43.473C87.5669 43.3029 87.9497 43.0902 88.29 42.835C88.4601 42.75 88.7153 42.5373 88.8429 42.4097C89.0131 42.2396 89.1407 42.112 89.2683 41.9418C89.7361 41.3463 90.1189 40.7934 90.4592 40.283C91.1398 39.2622 91.7352 38.4966 92.2031 38.0287C92.671 37.5608 93.0538 37.3907 93.0112 37.3907C93.0112 37.3907 92.6284 37.4332 91.9904 37.7735C91.3524 38.1138 90.5443 38.7518 89.6511 39.6025Z" fill="#92193F"/>
</g>
<defs>
<clipPath id="clip0">
<rect width="47" height="54.2733" fill="white" transform="translate(72 8)"/>
</clipPath>
</defs>
</svg>
