<svg width="346" height="103" viewBox="0 0 346 103" fill="none" xmlns="http://www.w3.org/2000/svg">
<path d="M10.8285 25.7777L7.5366 23.7852C5.47198 22.5291 3.99931 21.2947 3.11859 20.0819C2.25232 18.8547 1.81918 17.447 1.81918 15.8588C1.81918 13.4766 2.64214 11.5419 4.28807 10.0548C5.94843 8.56766 8.09968 7.8241 10.7418 7.8241C13.2685 7.8241 15.5858 8.53156 17.6937 9.94648V14.8626C15.5136 12.7691 13.1674 11.7223 10.6552 11.7223C9.24028 11.7223 8.07803 12.0544 7.16844 12.7186C6.25885 13.3683 5.80405 14.2057 5.80405 15.2308C5.80405 16.1404 6.13612 16.9922 6.80027 17.7863C7.46441 18.5804 8.54004 19.4105 10.0271 20.2768L13.3407 22.2259C17.0368 24.4205 18.8848 27.2215 18.8848 30.6288C18.8848 33.0544 18.0691 35.0252 16.4376 36.5412C14.8205 38.0571 12.7126 38.8151 10.1138 38.8151C7.12512 38.8151 4.40357 37.8983 1.94912 36.0647V30.5639C4.28807 33.5236 6.99518 35.0035 10.0705 35.0035C11.4276 35.0035 12.5538 34.6281 13.4489 33.8774C14.3585 33.1122 14.8133 32.1592 14.8133 31.0187C14.8133 29.1706 13.485 27.4236 10.8285 25.7777ZM33.3083 8.04067H36.3619L49.8975 38.4686H45.4579L41.4297 29.5027H28.5655L24.7538 38.4686H20.3142L33.3083 8.04067ZM39.6538 25.6477L34.781 14.6893L30.2547 25.6477H39.6538ZM77.2718 8.21393H81.3867V38.4686H77.6617L57.4341 15.1875V38.4686H53.3626V8.21393H56.871L77.2718 31.69V8.21393ZM100.271 8.21393H116.406V12.0689H104.603V20.5151H116.406V24.37H104.603V38.4686H100.271V8.21393ZM121.192 38.4686V8.21393H128.772C131.833 8.21393 134.258 8.97192 136.049 10.4879C137.853 12.0039 138.756 14.0541 138.756 16.6385C138.756 18.3999 138.315 19.9231 137.435 21.2081C136.554 22.493 135.291 23.4532 133.645 24.0884C134.612 24.7237 135.558 25.59 136.482 26.6873C137.406 27.7846 138.705 29.6976 140.38 32.4264C141.434 34.1445 142.279 35.4367 142.914 36.3029L144.517 38.4686H139.362L138.041 36.4762C137.998 36.404 137.911 36.2813 137.781 36.108L136.937 34.9169L135.594 32.7079L134.143 30.3473C133.248 29.1056 132.425 28.1166 131.674 27.3803C130.938 26.644 130.266 26.117 129.66 25.7993C129.068 25.4673 128.065 25.3012 126.65 25.3012H125.523V38.4686H121.192ZM126.823 11.8956H125.523V21.4463H127.169C129.364 21.4463 130.865 21.2586 131.674 20.8832C132.497 20.5078 133.132 19.9448 133.58 19.194C134.042 18.4288 134.273 17.5625 134.273 16.5952C134.273 15.6422 134.02 14.7832 133.515 14.018C133.01 13.2383 132.295 12.6897 131.371 12.3721C130.461 12.0544 128.945 11.8956 126.823 11.8956ZM157.532 8.04067H160.586L174.122 38.4686H169.682L165.654 29.5027H152.789L148.978 38.4686H144.538L157.532 8.04067ZM163.878 25.6477L159.005 14.6893L154.479 25.6477H163.878ZM201.496 8.21393H205.611V38.4686H201.886L181.658 15.1875V38.4686H177.587V8.21393H181.095L201.496 31.69V8.21393ZM238.183 31.4518V36.2163C235.006 37.9489 231.339 38.8151 227.181 38.8151C223.802 38.8151 220.937 38.1366 218.583 36.7794C216.23 35.4222 214.367 33.5525 212.996 31.1702C211.624 28.788 210.938 26.2108 210.938 23.4387C210.938 19.0352 212.505 15.3318 215.638 12.3287C218.785 9.32565 222.662 7.8241 227.268 7.8241C230.444 7.8241 233.974 8.65428 237.858 10.3146V14.9709C234.321 12.9496 230.863 11.9389 227.484 11.9389C224.019 11.9389 221.139 13.0362 218.843 15.2308C216.562 17.4109 215.421 20.1469 215.421 23.4387C215.421 26.7595 216.547 29.4882 218.8 31.625C221.052 33.7619 223.932 34.8303 227.441 34.8303C231.108 34.8303 234.689 33.7041 238.183 31.4518ZM243.554 8.21393H247.885V38.4686H243.554V8.21393ZM262.092 25.7777L258.8 23.7852C256.735 22.5291 255.263 21.2947 254.382 20.0819C253.516 18.8547 253.083 17.447 253.083 15.8588C253.083 13.4766 253.906 11.5419 255.552 10.0548C257.212 8.56766 259.363 7.8241 262.005 7.8241C264.532 7.8241 266.849 8.53156 268.957 9.94648V14.8626C266.777 12.7691 264.431 11.7223 261.919 11.7223C260.504 11.7223 259.341 12.0544 258.432 12.7186C257.522 13.3683 257.068 14.2057 257.068 15.2308C257.068 16.1404 257.4 16.9922 258.064 17.7863C258.728 18.5804 259.803 19.4105 261.291 20.2768L264.604 22.2259C268.3 24.4205 270.148 27.2215 270.148 30.6288C270.148 33.0544 269.333 35.0252 267.701 36.5412C266.084 38.0571 263.976 38.8151 261.377 38.8151C258.389 38.8151 255.667 37.8983 253.213 36.0647V30.5639C255.552 33.5236 258.259 35.0035 261.334 35.0035C262.691 35.0035 263.817 34.6281 264.712 33.8774C265.622 33.1122 266.077 32.1592 266.077 31.0187C266.077 29.1706 264.748 27.4236 262.092 25.7777ZM300.988 31.4518V36.2163C297.811 37.9489 294.144 38.8151 289.986 38.8151C286.608 38.8151 283.742 38.1366 281.388 36.7794C279.035 35.4222 277.172 33.5525 275.801 31.1702C274.429 28.788 273.743 26.2108 273.743 23.4387C273.743 19.0352 275.31 15.3318 278.443 12.3287C281.59 9.32565 285.467 7.8241 290.073 7.8241C293.249 7.8241 296.779 8.65428 300.663 10.3146V14.9709C297.126 12.9496 293.668 11.9389 290.289 11.9389C286.824 11.9389 283.944 13.0362 281.648 15.2308C279.367 17.4109 278.226 20.1469 278.226 23.4387C278.226 26.7595 279.352 29.4882 281.605 31.625C283.857 33.7619 286.737 34.8303 290.246 34.8303C293.913 34.8303 297.494 33.7041 300.988 31.4518ZM321.172 7.78079C325.85 7.78079 329.741 9.26068 332.845 12.2205C335.964 15.1802 337.523 18.8908 337.523 23.3521C337.523 27.8134 335.949 31.5095 332.802 34.4404C329.669 37.3569 325.713 38.8151 320.934 38.8151C316.371 38.8151 312.567 37.3569 309.521 34.4404C306.489 31.5095 304.973 27.8423 304.973 23.4387C304.973 18.9197 306.503 15.1802 309.564 12.2205C312.625 9.26068 316.494 7.78079 321.172 7.78079ZM321.345 11.8956C317.88 11.8956 315.029 12.9784 312.791 15.1441C310.567 17.3098 309.456 20.0747 309.456 23.4387C309.456 26.7017 310.575 29.416 312.812 31.5817C315.05 33.7474 317.851 34.8303 321.215 34.8303C324.594 34.8303 327.409 33.7258 329.661 31.5168C331.928 29.3078 333.062 26.5573 333.062 23.2655C333.062 20.0603 331.928 17.3676 329.661 15.1875C327.409 12.9929 324.637 11.8956 321.345 11.8956Z" fill="#92193F"/>
<path d="M245.493 75.2038C246.461 73.7641 247.514 72.0416 248.653 70.0363C249.836 68.0252 250.892 65.9402 251.819 63.7813C252.739 61.5782 253.476 59.3762 254.031 57.1755C254.586 54.9747 254.738 52.9398 254.486 51.0708C254.441 51.0767 254.393 51.0604 254.34 51.022C253.505 50.9499 252.676 51.0355 251.854 51.2788C251.023 51.4779 250.234 51.7846 249.489 52.199C248.743 52.6134 248.006 53.072 247.276 53.5748C246.547 54.0776 245.862 54.5746 245.221 55.0658C243.933 56.0039 242.543 57.1364 241.052 58.4633C239.56 59.7901 238.085 61.2054 236.626 62.7092C235.159 64.1687 233.767 65.6637 232.451 67.1942C231.178 68.7188 230.094 70.151 229.199 71.4906L229.266 71.4818C229.027 71.9206 228.741 72.4786 228.409 73.156C228.113 73.7833 227.848 74.4519 227.613 75.1618C227.378 75.8718 227.232 76.57 227.175 77.2567C227.119 77.9433 227.228 78.5403 227.504 79.0477C228.298 79.8949 229.541 80.5703 231.231 81.0741C232.966 81.572 234.875 82.0245 236.958 82.4316C239.078 82.7887 241.251 83.1842 243.476 83.6181C245.693 84.0077 247.73 84.5341 249.586 85.1973C251.487 85.8546 253.041 86.7384 254.249 87.8485C255.494 88.9086 256.159 90.2934 256.244 92.003C256.293 92.7664 256.147 93.4647 255.807 94.0978C255.511 94.7251 255.092 95.3007 254.549 95.8244C254.042 96.2981 253.483 96.7334 252.871 97.1303C252.259 97.5272 251.665 97.8991 251.09 98.246C250.352 98.7046 249.53 99.1969 248.622 99.7231C247.767 100.288 246.851 100.769 245.874 101.169C244.95 101.606 244.006 101.934 243.041 102.15C242.077 102.367 241.094 102.359 240.093 102.128C238.792 101.754 237.476 101.179 236.147 100.402C234.825 99.6685 233.778 98.8092 233.003 97.8235C232.221 96.7937 231.866 95.7306 231.939 94.6343C232.048 93.488 232.891 92.359 234.467 91.2475L239.088 94.7872C238.464 95.3669 237.929 95.9348 237.484 96.4912C237.038 97.0475 236.86 97.5689 236.949 98.0553C237.946 98.0157 238.967 97.8596 240.013 97.5872C241.095 97.2647 242.12 96.8817 243.089 96.4383C244.102 95.9889 245.059 95.4791 245.958 94.9088C246.902 94.3326 247.776 93.7431 248.578 93.1402C248.704 93.0785 248.939 92.8666 249.283 92.5047C249.672 92.1369 250.057 91.747 250.438 91.335C250.811 90.8787 251.099 90.4563 251.301 90.0675C251.496 89.6346 251.461 89.3221 251.198 89.1301C249.872 88.624 248.377 88.1854 246.711 87.8143C245.081 87.3932 243.501 86.9884 241.969 86.5998C240.295 86.1845 238.546 85.7337 236.722 85.2474C234.942 84.7553 233.143 84.1526 231.323 83.4394C230.484 83.0962 229.566 82.6954 228.568 82.2369C227.608 81.7285 226.68 81.1478 225.784 80.495C224.888 79.8422 224.114 79.1056 223.461 78.2852C222.764 77.4707 222.318 76.5327 222.123 75.4714C221.888 74.1889 222.031 72.8569 222.554 71.4755C223.068 70.0498 223.69 68.8365 224.42 67.8356C227.455 63.726 230.854 59.8631 234.619 56.2469C238.428 52.6249 242.671 49.6254 247.348 47.2485C249.172 46.7386 250.933 46.7576 252.631 47.3056C254.329 47.8536 255.843 48.7653 257.173 50.0406C257.801 50.7284 258.31 51.3864 258.699 52.0148C259.133 52.6374 259.433 53.2775 259.599 53.935C259.766 54.5925 259.829 55.3088 259.788 56.0839C259.748 56.8589 259.612 57.737 259.381 58.7181C258.58 62.3096 257.419 65.8121 255.9 69.2256C254.372 72.5949 252.523 75.8251 250.351 78.9163L245.493 75.2038ZM260.202 61.3958C261.227 61.2619 262.145 61.1646 262.956 61.1041C263.803 60.9934 264.609 60.9107 265.375 60.8559C265.967 59.1032 266.469 57.6112 266.882 56.3799C267.332 55.0985 267.638 54.1529 267.8 53.5431L272.336 56.6185C272.178 57.0014 271.973 57.5036 271.722 58.1251C271.507 58.6965 271.29 59.3814 271.072 60.1798C271.161 60.1682 271.272 60.1536 271.406 60.1361C271.532 60.0745 271.661 60.0349 271.795 60.0174L273.115 63.8525C272.41 63.9899 271.794 64.1156 271.267 64.2297C270.777 64.2938 270.286 64.3578 269.796 64.4219C269.281 66.3457 268.781 68.4714 268.295 70.799C267.846 73.0765 267.494 75.3866 267.239 77.7293C266.984 80.0721 266.881 82.3723 266.93 84.63C267.015 86.8377 267.358 88.8306 267.958 90.6088C268.355 90.2852 268.781 89.6183 269.235 88.6081C269.733 87.5921 270.229 86.4405 270.724 85.1533C271.262 83.8603 271.767 82.5039 272.237 81.084C272.751 79.6584 273.241 78.3491 273.707 77.1561L278.176 80.2403C277.97 80.856 277.714 81.7044 277.411 82.7856C277.099 83.8225 276.732 84.9345 276.311 86.1216C275.881 87.2645 275.359 88.3969 274.743 89.5188C274.172 90.635 273.501 91.5829 272.731 92.3627C271.953 93.0983 271.086 93.5965 270.129 93.8573C269.173 94.118 268.091 93.9424 266.883 93.3304C264.88 92.3693 263.484 90.8536 262.693 88.7833C261.894 86.6688 261.483 84.3 261.458 81.6769C261.425 79.0095 261.67 76.2379 262.192 73.3622C262.759 70.4806 263.417 67.723 264.166 65.0893L263.096 65.229L260.202 61.3958ZM272.088 81.511C272.651 79.8525 273.32 78.0219 274.093 76.0189C274.814 73.9776 275.546 71.867 276.287 69.6872C275.602 68.1918 275.443 66.8314 275.812 65.6059C276.217 64.3303 276.853 63.3189 277.72 62.5717C278.58 61.7803 279.536 61.2704 280.59 61.0422C281.688 60.8082 282.576 60.9187 283.253 61.3737C283.921 61.7844 284.258 62.6235 284.262 63.8908C284.258 65.1139 283.633 66.8032 282.385 68.9587C283.021 69.1925 283.497 69.4246 283.813 69.655C284.13 69.8854 284.413 70.188 284.665 70.5627C284.953 70.8874 285.261 71.3226 285.589 71.8684C285.954 72.3641 286.463 73.0222 287.115 73.8426C287.821 74.7014 288.172 75.7423 288.168 76.9655C288.2 78.1385 288.059 79.357 287.743 80.6209C287.471 81.879 287.152 83.1208 286.783 84.3463C286.406 85.5275 286.161 86.5558 286.048 87.4309C287.02 86.7605 287.837 85.8614 288.497 84.7336C289.202 83.6 289.81 82.4339 290.321 81.2351C290.823 79.9922 291.263 78.7801 291.639 77.5988C292.061 76.4117 292.451 75.4324 292.812 74.6607L297.36 77.8025C297.186 78.0969 296.985 78.6212 296.759 79.3754C296.524 80.0853 296.224 80.9396 295.859 81.9381C295.531 82.8866 295.144 83.8881 294.699 84.9425C294.298 85.9911 293.836 86.9571 293.313 87.8405C292.835 88.718 292.292 89.4908 291.684 90.1589C291.068 90.7827 290.406 91.2768 289.696 91.6411C289.032 91.9996 288.312 92.1841 287.538 92.1947C286.801 92.1552 286.085 91.8637 285.392 91.3203C284.918 90.9747 284.443 90.6291 283.969 90.2835C283.539 89.9321 283.11 89.5807 282.68 89.2293C282.137 88.7568 281.788 88.1005 281.634 87.2603C281.516 86.37 281.498 85.3988 281.579 84.3468C281.704 83.2889 281.893 82.2001 282.144 81.0806C282.387 79.9168 282.619 78.8222 282.842 77.7969C283.109 76.7658 283.308 75.8568 283.437 75.0701C283.567 74.2834 283.555 73.719 283.401 73.3768C283.012 73.2465 282.6 73.1191 282.166 72.9947C281.725 72.8259 281.291 72.7015 280.865 72.6212C280.687 73.1426 280.505 73.6419 280.319 74.119C280.177 74.5904 280.031 75.0396 279.881 75.4667C279.383 76.9809 278.854 78.4537 278.295 79.8852C277.772 81.2666 277.203 82.7674 276.588 84.3874L272.088 81.511ZM297.254 82.0276C297.133 83.3566 297.091 84.4942 297.127 85.4404C297.208 86.3807 297.314 86.9556 297.444 87.1651C298.044 87.449 298.682 87.5694 299.359 87.5262C300.027 87.4389 300.68 87.2631 301.316 86.9989C301.953 86.7346 302.554 86.407 303.122 86.0159C303.689 85.6248 304.186 85.2203 304.611 84.8025C305.47 84.011 306.197 83.1236 306.793 82.1401C307.381 81.1125 307.897 80.0714 308.343 79.017C308.825 77.9125 309.258 76.7918 309.643 75.6547C310.028 74.5177 310.462 73.3969 310.944 72.2925L315.358 75.4517C314.896 76.9158 314.453 78.3548 314.027 79.7688C313.602 81.1829 313.075 82.5422 312.447 83.8469C311.856 85.1015 311.106 86.2409 310.199 87.2651C309.335 88.2835 308.231 89.107 306.886 89.7355C305.941 90.3117 304.979 90.6638 303.998 90.7919C303.062 90.9142 302.119 90.8788 301.171 90.6857C300.267 90.4868 299.361 90.1523 298.453 89.6822C297.59 89.2063 296.733 88.6391 295.881 87.9804C295.127 87.3544 294.45 86.6504 293.85 85.8684C293.25 85.0864 292.798 84.2398 292.494 83.3286C292.081 82.0694 291.908 80.7561 291.977 79.3887C292.001 78.027 292.211 76.6863 292.608 75.3666C292.961 74.0527 293.463 72.8097 294.115 71.6377C294.804 70.4157 295.588 69.3397 296.468 68.4097C298.19 66.5999 299.908 65.7642 301.623 65.9025C303.337 66.0408 305.155 66.8675 307.076 68.3825C308.057 69.2506 308.625 70.3538 308.779 71.6922C308.816 72.6383 308.581 73.5973 308.074 74.5691C307.605 75.4908 307.114 76.302 306.604 77.0027C305.461 78.7368 304.266 80.1835 303.018 81.3427C301.769 82.502 300.422 83.4931 298.975 84.316L297.254 82.0276ZM303.745 69.6328C302.724 70.0378 301.846 70.6053 301.113 71.335C300.424 72.059 299.826 72.9068 299.32 73.8786C298.85 74.8004 298.463 75.8019 298.159 76.883C297.9 77.9584 297.667 79.0529 297.461 80.1667C298.077 79.5429 298.743 78.8218 299.46 78.0036C300.178 77.1854 300.842 76.3288 301.454 75.4338C302.102 74.4888 302.635 73.5362 303.052 72.576C303.462 71.5716 303.692 70.5905 303.745 69.6328ZM315.475 79.6477C315.353 80.9768 315.311 82.1144 315.348 83.0605C315.429 84.0008 315.534 84.5757 315.664 84.7852C316.264 85.0691 316.902 85.1895 317.579 85.1464C318.248 85.059 318.9 84.8832 319.537 84.619C320.173 84.3547 320.775 84.0271 321.342 83.636C321.909 83.2449 322.406 82.8404 322.831 82.4226C323.69 81.6312 324.418 80.7437 325.013 79.7603C325.601 78.7326 326.118 77.6915 326.563 76.6371C327.045 75.5327 327.479 74.4119 327.864 73.2748C328.248 72.1378 328.682 71.017 329.164 69.9126L333.578 73.0718C333.117 74.5359 332.673 75.9749 332.248 77.389C331.822 78.803 331.296 80.1623 330.668 81.467C330.076 82.7216 329.327 83.861 328.419 84.8852C327.556 85.9036 326.451 86.7271 325.106 87.3556C324.162 87.9318 323.199 88.2839 322.218 88.412C321.282 88.5343 320.34 88.4989 319.391 88.3058C318.488 88.1069 317.582 87.7724 316.674 87.3023C315.81 86.8264 314.953 86.2592 314.102 85.6006C313.348 84.9745 312.671 84.2705 312.071 83.4885C311.471 82.7065 311.019 81.8599 310.715 80.9487C310.301 79.6895 310.128 78.3762 310.197 77.0088C310.221 75.6472 310.432 74.3065 310.829 72.9867C311.181 71.6728 311.683 70.4298 312.336 69.2578C313.025 68.0358 313.809 66.9598 314.688 66.0299C316.41 64.22 318.128 63.3843 319.843 63.5226C321.557 63.6609 323.375 64.4876 325.297 66.0027C326.278 66.8707 326.845 67.9739 327 69.3123C327.036 70.2584 326.801 71.2174 326.295 72.1892C325.825 73.111 325.335 73.9221 324.824 74.6228C323.681 76.3569 322.486 77.8036 321.238 78.9629C319.99 80.1221 318.642 81.1132 317.196 81.9361L315.475 79.6477ZM321.965 67.2529C320.944 67.658 320.067 68.2254 319.333 68.9551C318.644 69.6791 318.047 70.527 317.54 71.4988C317.07 72.4205 316.683 73.422 316.38 74.5032C316.12 75.5785 315.888 76.6731 315.681 77.7868C316.297 77.163 316.964 76.4419 317.681 75.6237C318.398 74.8055 319.063 73.9489 319.674 73.0539C320.323 72.1089 320.856 71.1563 321.273 70.1961C321.682 69.1918 321.913 68.2107 321.965 67.2529ZM327.793 52.5672C328.819 52.4333 329.737 52.3361 330.547 52.2755C331.394 52.1648 332.201 52.0821 332.967 52.0273C333.558 50.2746 334.061 48.7826 334.474 47.5513C334.924 46.27 335.229 45.3244 335.391 44.7145L339.927 47.7899C339.769 48.1728 339.565 48.675 339.314 49.2965C339.099 49.8679 338.882 50.5528 338.663 51.3512C338.753 51.3396 338.864 51.325 338.998 51.3075C339.123 51.2459 339.253 51.2063 339.387 51.1888L340.707 55.0239C340.002 55.1613 339.386 55.287 338.859 55.4011C338.368 55.4652 337.878 55.5293 337.387 55.5933C336.873 57.5171 336.373 59.6428 335.887 61.9704C335.437 64.2479 335.085 66.558 334.83 68.9008C334.575 71.2435 334.473 73.5437 334.522 75.8014C334.607 78.0091 334.95 80.002 335.55 81.7802C335.947 81.4566 336.373 80.7897 336.826 79.7795C337.325 78.7635 337.821 77.6119 338.315 76.3247C338.854 75.0317 339.358 73.6753 339.828 72.2554C340.343 70.8298 340.833 69.5205 341.299 68.3276L345.768 71.4117C345.561 72.0274 345.306 72.8758 345.002 73.957C344.69 74.9939 344.324 76.1059 343.903 77.293C343.473 78.4359 342.951 79.5683 342.335 80.6902C341.763 81.8064 341.093 82.7543 340.323 83.5341C339.545 84.2697 338.678 84.7679 337.721 85.0287C336.765 85.2894 335.682 85.1138 334.474 84.5018C332.472 83.5407 331.076 82.025 330.285 79.9547C329.486 77.8402 329.074 75.4714 329.049 72.8483C329.017 70.1809 329.261 67.4093 329.784 64.5336C330.35 61.652 331.009 58.8944 331.758 56.2607L330.688 56.4005L327.793 52.5672Z" fill="#5A946F"/>
</svg>
