<svg width="350" height="160" viewBox="0 0 350 160" fill="none" xmlns="http://www.w3.org/2000/svg">
<path d="M244.936 107.82C245.876 106.434 246.903 104.778 248.016 102.853C249.17 100.921 250.208 98.9219 251.128 96.8553C252.041 94.7469 252.785 92.6435 253.358 90.5451C253.931 88.4467 254.124 86.5141 253.936 84.7473C253.894 84.7537 253.849 84.7393 253.801 84.704C253.023 84.6534 252.247 84.7521 251.473 85.0002C250.693 85.2065 249.949 85.514 249.243 85.9227C248.537 86.3314 247.837 86.7818 247.143 87.274C246.45 87.7662 245.798 88.2519 245.188 88.7312C243.962 89.6479 242.636 90.7511 241.211 92.0408C239.785 93.3304 238.373 94.7035 236.974 96.1602C235.568 97.5751 234.231 99.022 232.964 100.501C231.738 101.974 230.69 103.354 229.821 104.644L229.883 104.634C229.649 105.055 229.369 105.59 229.041 106.239C228.75 106.84 228.485 107.48 228.248 108.158C228.011 108.836 227.857 109.501 227.787 110.154C227.717 110.806 227.805 111.37 228.049 111.845C228.77 112.631 229.912 113.245 231.477 113.687C233.084 114.123 234.855 114.511 236.789 114.853C238.758 115.147 240.776 115.476 242.842 115.84C244.902 116.163 246.79 116.619 248.506 117.208C250.264 117.791 251.693 118.597 252.792 119.624C253.927 120.602 254.513 121.901 254.55 123.52C254.577 124.243 254.423 124.908 254.089 125.516C253.798 126.117 253.392 126.672 252.872 127.18C252.387 127.64 251.854 128.064 251.273 128.453C250.692 128.843 250.129 129.208 249.583 129.549C248.883 129.999 248.103 130.484 247.242 131.002C246.43 131.555 245.563 132.031 244.641 132.43C243.768 132.865 242.878 133.195 241.972 133.421C241.067 133.647 240.149 133.66 239.221 133.462C238.016 133.135 236.802 132.618 235.581 131.909C234.366 131.242 233.409 130.449 232.711 129.531C232.007 128.571 231.702 127.571 231.798 126.53C231.928 125.44 232.743 124.352 234.243 123.265L238.467 126.523C237.87 127.086 237.357 127.636 236.927 128.173C236.497 128.71 236.317 129.208 236.388 129.667C237.32 129.609 238.277 129.439 239.26 129.159C240.278 128.83 241.245 128.445 242.16 128.004C243.117 127.557 244.022 127.053 244.876 126.493C245.772 125.927 246.602 125.35 247.366 124.761C247.485 124.7 247.71 124.494 248.04 124.143C248.413 123.786 248.782 123.409 249.148 123.01C249.507 122.569 249.786 122.163 249.985 121.79C250.177 121.375 250.153 121.08 249.912 120.903C248.687 120.451 247.302 120.067 245.757 119.751C244.247 119.386 242.781 119.035 241.361 118.699C239.809 118.341 238.188 117.951 236.497 117.528C234.849 117.099 233.184 116.566 231.503 115.928C230.729 115.62 229.882 115.26 228.963 114.846C228.079 114.384 227.227 113.854 226.407 113.254C225.587 112.654 224.883 111.971 224.295 111.207C223.664 110.45 223.271 109.57 223.116 108.568C222.929 107.357 223.096 106.091 223.619 104.77C224.135 103.407 224.746 102.244 225.451 101.279C228.387 97.3184 231.658 93.5838 235.262 90.0754C238.908 86.5605 242.944 83.6267 247.369 81.2741C249.084 80.7521 250.727 80.7328 252.299 81.2165C253.87 81.7001 255.26 82.5325 256.469 83.7136C257.039 84.3524 257.497 84.9656 257.845 85.5532C258.234 86.1343 258.498 86.7348 258.637 87.3548C258.775 87.9747 258.816 88.6525 258.759 89.3883C258.702 90.124 258.553 90.9595 258.313 91.8946C257.475 95.3169 256.303 98.6624 254.8 101.931C253.29 105.158 251.482 108.26 249.378 111.237L244.936 107.82ZM259.012 94.4161C259.972 94.2675 260.831 94.1558 261.589 94.0812C262.383 93.9584 263.138 93.8629 263.854 93.7948C264.45 92.1204 264.956 90.6951 265.373 89.5189C265.825 88.2944 266.134 87.3914 266.3 86.8097L270.457 89.6297C270.3 89.9961 270.096 90.4766 269.846 91.0712C269.632 91.6176 269.412 92.2715 269.188 93.0332C269.272 93.0202 269.376 93.0041 269.501 92.9847C269.62 92.9235 269.742 92.8833 269.867 92.8639L271.003 96.4722C270.342 96.6174 269.763 96.7497 269.269 96.869C268.809 96.9401 268.35 97.0112 267.891 97.0824C267.362 98.9173 266.842 100.943 266.33 103.161C265.854 105.33 265.467 107.527 265.17 109.754C264.874 111.981 264.72 114.164 264.709 116.304C264.733 118.395 265.003 120.277 265.519 121.951C265.898 121.635 266.312 120.994 266.761 120.027C267.251 119.053 267.743 117.95 268.237 116.72C268.772 115.482 269.277 114.185 269.751 112.829C270.267 111.466 270.758 110.215 271.222 109.074L275.316 111.903C275.108 112.492 274.849 113.301 274.538 114.333C274.221 115.323 273.851 116.385 273.428 117.519C272.998 118.612 272.482 119.697 271.879 120.774C271.318 121.844 270.668 122.757 269.93 123.513C269.185 124.227 268.363 124.717 267.464 124.985C266.565 125.252 265.559 125.109 264.447 124.554C262.602 123.685 261.336 122.277 260.65 120.331C259.958 118.343 259.633 116.106 259.675 113.619C259.712 111.091 260.009 108.458 260.569 105.72C261.171 102.976 261.854 100.347 262.619 97.8343L261.617 97.9894L259.012 94.4161ZM269.602 113.237C270.169 111.653 270.839 109.903 271.611 107.987C272.336 106.037 273.071 104.02 273.818 101.937C273.215 100.534 273.102 99.2474 273.477 98.0777C273.887 96.8597 274.506 95.8872 275.334 95.1604C276.156 94.3918 277.061 93.8882 278.051 93.6495C279.082 93.4044 279.907 93.4903 280.528 93.9074C281.142 94.2827 281.435 95.0711 281.407 96.2727C281.373 97.4325 280.746 99.0475 279.527 101.118C280.115 101.326 280.554 101.536 280.844 101.748C281.133 101.959 281.39 102.24 281.615 102.59C281.876 102.892 282.153 103.298 282.445 103.809C282.773 104.271 283.232 104.884 283.821 105.648C284.457 106.448 284.759 107.427 284.724 108.587C284.725 109.699 284.563 110.857 284.236 112.062C283.951 113.261 283.622 114.445 283.247 115.614C282.866 116.743 282.611 117.723 282.483 118.555C283.408 117.899 284.193 117.029 284.837 115.946C285.524 114.856 286.12 113.737 286.627 112.59C287.127 111.401 287.568 110.242 287.949 109.114C288.372 107.98 288.761 107.043 289.117 106.303L293.284 109.186C293.114 109.469 292.913 109.97 292.683 110.69C292.445 111.368 292.144 112.185 291.779 113.139C291.449 114.045 291.063 115.003 290.62 116.012C290.22 117.015 289.764 117.941 289.254 118.789C288.786 119.632 288.26 120.376 287.676 121.022C287.085 121.627 286.454 122.109 285.783 122.47C285.154 122.824 284.478 123.014 283.755 123.04C283.067 123.018 282.407 122.757 281.774 122.256C281.34 121.939 280.906 121.621 280.472 121.304C280.079 120.979 279.687 120.655 279.295 120.331C278.8 119.895 278.491 119.28 278.368 118.486C278.28 117.645 278.287 116.724 278.389 115.725C278.533 114.719 278.736 113.683 278.998 112.616C279.254 111.508 279.499 110.465 279.733 109.488C280.008 108.505 280.216 107.639 280.357 106.89C280.497 106.141 280.5 105.606 280.365 105.285C280.005 105.17 279.624 105.058 279.223 104.949C278.814 104.798 278.413 104.69 278.017 104.622C277.838 105.121 277.655 105.598 277.469 106.054C277.325 106.504 277.178 106.933 277.027 107.341C276.524 108.787 275.994 110.195 275.436 111.564C274.914 112.885 274.345 114.32 273.729 115.869L269.602 113.237ZM293.079 113.194C292.932 114.457 292.864 115.537 292.875 116.433C292.927 117.323 293.011 117.866 293.127 118.062C293.68 118.318 294.272 118.419 294.905 118.364C295.532 118.267 296.145 118.086 296.746 117.822C297.346 117.558 297.916 117.235 298.455 116.852C298.995 116.469 299.468 116.075 299.876 115.67C300.698 114.901 301.399 114.044 301.979 113.099C302.554 112.113 303.062 111.115 303.504 110.105C303.982 109.048 304.415 107.976 304.802 106.89C305.19 105.804 305.623 104.732 306.1 103.674L310.142 106.576C309.674 107.974 309.224 109.348 308.791 110.698C308.359 112.048 307.833 113.348 307.214 114.598C306.631 115.8 305.902 116.896 305.03 117.887C304.198 118.87 303.147 119.675 301.875 120.299C300.98 120.865 300.072 121.22 299.154 121.362C298.277 121.498 297.398 121.484 296.518 121.321C295.679 121.151 294.842 120.853 294.006 120.427C293.212 119.994 292.426 119.474 291.648 118.868C290.96 118.29 290.346 117.637 289.805 116.908C289.265 116.179 288.864 115.386 288.603 114.529C288.249 113.344 288.121 112.102 288.219 110.804C288.276 109.512 288.506 108.237 288.909 106.977C289.271 105.724 289.771 104.535 290.409 103.41C291.083 102.236 291.842 101.2 292.686 100.299C294.339 98.5467 295.964 97.7179 297.56 97.8128C299.157 97.9077 300.833 98.653 302.589 100.049C303.483 100.851 303.985 101.885 304.095 103.151C304.106 104.047 303.862 104.961 303.365 105.894C302.904 106.778 302.426 107.557 301.931 108.232C300.821 109.901 299.669 111.298 298.475 112.423C297.281 113.549 295.999 114.517 294.628 115.328L293.079 113.194ZM299.448 101.305C298.485 101.711 297.651 102.267 296.948 102.975C296.287 103.676 295.708 104.492 295.211 105.424C294.749 106.308 294.363 107.266 294.052 108.297C293.784 109.323 293.539 110.365 293.318 111.426C293.909 110.821 294.549 110.123 295.239 109.332C295.929 108.541 296.571 107.715 297.164 106.854C297.793 105.944 298.314 105.029 298.728 104.11C299.135 103.149 299.375 102.214 299.448 101.305ZM310.145 110.552C309.999 111.815 309.931 112.895 309.941 113.791C309.993 114.681 310.077 115.224 310.193 115.42C310.746 115.676 311.339 115.777 311.972 115.722C312.598 115.625 313.211 115.444 313.812 115.18C314.413 114.916 314.982 114.593 315.522 114.21C316.061 113.827 316.535 113.433 316.942 113.028C317.764 112.259 318.465 111.402 319.046 110.457C319.62 109.471 320.128 108.473 320.571 107.463C321.048 106.406 321.481 105.334 321.869 104.248C322.256 103.162 322.689 102.09 323.167 101.032L327.208 103.934C326.74 105.332 326.29 106.706 325.858 108.056C325.425 109.406 324.9 110.706 324.281 111.956C323.697 113.158 322.969 114.254 322.096 115.245C321.265 116.228 320.213 117.033 318.942 117.657C318.046 118.223 317.139 118.578 316.22 118.72C315.343 118.856 314.464 118.842 313.584 118.679C312.745 118.509 311.908 118.211 311.072 117.785C310.278 117.352 309.493 116.832 308.714 116.226C308.026 115.648 307.412 114.995 306.872 114.266C306.331 113.537 305.931 112.744 305.67 111.887C305.315 110.702 305.187 109.46 305.285 108.162C305.342 106.87 305.572 105.595 305.976 104.335C306.338 103.082 306.838 101.893 307.476 100.768C308.149 99.5943 308.908 98.5575 309.752 97.6571C311.405 95.9047 313.03 95.0759 314.627 95.1708C316.224 95.2657 317.9 96.011 319.655 97.4069C320.549 98.2092 321.051 99.2432 321.162 100.509C321.172 101.405 320.929 102.319 320.432 103.252C319.97 104.136 319.492 104.915 318.998 105.59C317.888 107.259 316.736 108.656 315.542 109.781C314.348 110.907 313.065 111.875 311.694 112.686L310.145 110.552ZM316.514 98.6628C315.551 99.0685 314.718 99.6251 314.015 100.333C313.354 101.033 312.775 101.85 312.278 102.782C311.816 103.666 311.43 104.624 311.119 105.655C310.85 106.681 310.605 107.723 310.384 108.784C310.975 108.179 311.615 107.481 312.305 106.69C312.995 105.899 313.637 105.073 314.231 104.212C314.859 103.302 315.381 102.387 315.794 101.468C316.201 100.507 316.441 99.572 316.514 98.6628ZM322.323 84.6151C323.283 84.4664 324.142 84.3548 324.9 84.2802C325.694 84.1573 326.449 84.0619 327.165 83.9937C327.761 82.3194 328.267 80.8941 328.684 79.7178C329.136 78.4934 329.445 77.5903 329.611 77.0087L333.768 79.8287C333.611 80.1951 333.407 80.6756 333.157 81.2702C332.943 81.8165 332.723 82.4705 332.499 83.2321C332.583 83.2192 332.687 83.203 332.812 83.1836C332.931 83.1225 333.053 83.0822 333.178 83.0628L334.314 86.6712C333.652 86.8164 333.074 86.9486 332.58 87.068C332.12 87.1391 331.661 87.2102 331.202 87.2813C330.673 89.1162 330.153 91.1423 329.641 93.3595C329.165 95.5286 328.778 97.7264 328.481 99.953C328.184 102.18 328.031 104.363 328.02 106.503C328.044 108.594 328.314 110.476 328.83 112.15C329.209 111.834 329.623 111.193 330.071 110.226C330.562 109.252 331.054 108.149 331.548 106.918C332.083 105.681 332.588 104.384 333.062 103.028C333.578 101.665 334.068 100.414 334.533 99.2727L338.627 102.102C338.419 102.691 338.159 103.5 337.849 104.532C337.532 105.522 337.162 106.584 336.739 107.718C336.309 108.811 335.793 109.896 335.19 110.973C334.629 112.043 333.979 112.956 333.241 113.712C332.496 114.426 331.674 114.916 330.775 115.184C329.876 115.451 328.87 115.308 327.758 114.753C325.913 113.884 324.647 112.476 323.961 110.53C323.269 108.542 322.944 106.305 322.986 103.818C323.022 101.29 323.32 98.6568 323.88 95.919C324.481 93.1748 325.165 90.5462 325.93 88.0332L324.928 88.1884L322.323 84.6151Z" fill="#133E68"/>
<path d="M24.18 61H37.68L42.48 73H48.72L30.84 25L13.2 73H19.44L24.18 61ZM30.84 41.02L35.76 55H26.16L30.84 41.02ZM92.2978 25L72.3778 51.22L52.4578 25V73H58.4578V43L72.3778 61L86.2978 43V73H92.2978V25ZM107.873 25C101.573 25 96.173 29.8 95.993 35.74V36.04C95.993 41.74 100.553 45.7 106.913 46.3C113.753 46.96 121.673 48.46 121.673 56.5V56.92C121.493 62.86 116.093 67.24 109.793 67.24C106.313 67.24 103.373 66.1 101.333 63.82L96.713 67.36C99.713 70.78 104.393 73 109.613 73C119.153 73 127.133 65.92 127.433 57.04V56.44C127.433 47.86 121.073 41.38 107.273 40.54C103.673 40.3 101.813 38.5 101.813 35.86V35.56C101.813 32.56 104.573 30.34 107.693 30.34C109.433 30.34 110.873 31.06 111.893 32.14L116.333 28.6C114.353 26.38 111.293 25 107.873 25ZM125.055 31H134.055V73H140.055V31H149.055V25H125.055V31ZM155.583 73H182.643V67H161.583V61H176.583V55H161.583V31H182.583V25H155.583V73ZM189.157 73H195.157V61H196.117C197.437 61 198.697 60.88 199.957 60.58L207.097 73H214.057L205.597 58.3C210.697 55.12 214.117 49.48 214.117 43C214.117 33.04 206.077 25 196.117 25C195.757 25 195.457 25 195.157 25.06L189.157 25V73ZM196.117 31.12C202.717 31.12 208.117 36.52 208.117 43.12C208.117 49.72 202.717 55.06 196.117 55.06H195.157V31.18C195.457 31.12 195.757 31.12 196.117 31.12ZM220.622 73H226.622C239.882 73 250.622 62.26 250.622 49C250.622 35.74 239.882 25 226.622 25H220.622V73ZM226.682 31C236.702 31 244.742 39.04 244.742 49.06C244.742 59.08 236.702 67.12 226.682 67.12V31ZM262.071 61H275.571L280.371 73H286.611L268.731 25L251.091 73H257.331L262.071 61ZM268.731 41.02L273.651 55H264.051L268.731 41.02ZM330.188 25L310.268 51.22L290.348 25V73H296.348V43L310.268 61L324.188 43V73H330.188V25Z" fill="#FAF7F2"/>
</svg>
