<svg width="332" height="122" viewBox="0 0 332 122" fill="none" xmlns="http://www.w3.org/2000/svg">
<path d="M235.936 88.8195C236.876 87.434 237.903 85.7785 239.016 83.853C240.17 81.9211 241.208 79.9219 242.128 77.8553C243.041 75.7469 243.785 73.6435 244.358 71.5451C244.931 69.4467 245.124 67.5141 244.936 65.7473C244.894 65.7537 244.849 65.7393 244.801 65.704C244.023 65.6534 243.247 65.7521 242.473 66.0002C241.693 66.2065 240.949 66.514 240.243 66.9227C239.537 67.3314 238.837 67.7818 238.143 68.274C237.45 68.7662 236.798 69.2519 236.188 69.7312C234.962 70.6479 233.636 71.7511 232.211 73.0408C230.785 74.3304 229.373 75.7035 227.974 77.1602C226.568 78.5751 225.231 80.022 223.964 81.5011C222.738 82.9736 221.69 84.3544 220.821 85.6435L220.883 85.6338C220.649 86.0549 220.369 86.5901 220.041 87.2394C219.75 87.8404 219.485 88.48 219.248 89.1581C219.011 89.8362 218.857 90.5013 218.787 91.1536C218.717 91.8058 218.805 92.3696 219.049 92.8448C219.77 93.6312 220.912 94.2454 222.477 94.6873C224.084 95.1227 225.855 95.5114 227.789 95.8533C229.758 96.147 231.776 96.476 233.842 96.8403C235.902 97.1629 237.79 97.6189 239.506 98.2084C241.264 98.7915 242.693 99.5965 243.792 100.624C244.927 101.602 245.513 102.901 245.55 104.52C245.577 105.243 245.423 105.908 245.089 106.516C244.798 107.117 244.392 107.672 243.872 108.18C243.387 108.64 242.854 109.064 242.273 109.453C241.692 109.843 241.129 110.208 240.583 110.549C239.883 110.999 239.103 111.484 238.242 112.002C237.43 112.555 236.563 113.031 235.641 113.43C234.768 113.865 233.878 114.195 232.972 114.421C232.067 114.647 231.149 114.66 230.221 114.462C229.016 114.135 227.802 113.618 226.581 112.909C225.366 112.242 224.409 111.449 223.711 110.531C223.007 109.571 222.702 108.571 222.798 107.53C222.928 106.44 223.743 105.352 225.243 104.265L229.467 107.523C228.87 108.086 228.357 108.636 227.927 109.173C227.497 109.71 227.317 110.208 227.388 110.667C228.32 110.609 229.277 110.439 230.26 110.159C231.278 109.83 232.245 109.445 233.16 109.004C234.117 108.557 235.022 108.053 235.876 107.493C236.772 106.927 237.602 106.35 238.366 105.761C238.485 105.7 238.71 105.494 239.04 105.143C239.413 104.786 239.782 104.409 240.148 104.01C240.507 103.569 240.786 103.163 240.985 102.79C241.177 102.375 241.153 102.08 240.912 101.903C239.687 101.451 238.302 101.067 236.757 100.751C235.247 100.386 233.781 100.035 232.361 99.6994C230.809 99.341 229.188 98.9506 227.497 98.5281C225.849 98.0992 224.184 97.5658 222.503 96.9281C221.729 96.6204 220.882 96.2598 219.963 95.8462C219.079 95.3844 218.227 94.8535 217.407 94.2535C216.587 93.6535 215.883 92.9715 215.295 92.2074C214.664 91.4498 214.271 90.5699 214.116 89.5677C213.929 88.3567 214.096 87.0907 214.619 85.7698C215.135 84.4072 215.746 83.2436 216.451 82.2792C219.387 78.3184 222.658 74.5838 226.262 71.0754C229.908 67.5605 233.944 64.6267 238.369 62.2741C240.084 61.7521 241.727 61.7328 243.299 62.2165C244.87 62.7001 246.26 63.5325 247.469 64.7136C248.039 65.3524 248.497 65.9656 248.845 66.5532C249.234 67.1343 249.498 67.7348 249.637 68.3548C249.775 68.9747 249.816 69.6525 249.759 70.3883C249.702 71.124 249.553 71.9595 249.313 72.8946C248.475 76.3169 247.303 79.6624 245.8 82.9311C244.29 86.158 242.482 89.2599 240.378 92.2368L235.936 88.8195ZM250.012 75.4161C250.972 75.2675 251.831 75.1558 252.589 75.0812C253.383 74.9584 254.138 74.8629 254.854 74.7948C255.45 73.1204 255.956 71.6951 256.373 70.5189C256.825 69.2944 257.134 68.3914 257.3 67.8097L261.457 70.6297C261.3 70.9961 261.096 71.4766 260.846 72.0712C260.632 72.6176 260.412 73.2715 260.188 74.0332C260.272 74.0202 260.376 74.0041 260.501 73.9847C260.62 73.9235 260.742 73.8833 260.867 73.8639L262.003 77.4722C261.342 77.6174 260.763 77.7497 260.269 77.869C259.809 77.9401 259.35 78.0112 258.891 78.0824C258.362 79.9173 257.842 81.9434 257.33 84.1606C256.854 86.3296 256.467 88.5274 256.17 90.7541C255.874 92.9808 255.72 95.1639 255.709 97.3036C255.733 99.395 256.003 101.277 256.519 102.951C256.898 102.635 257.312 101.994 257.761 101.027C258.251 100.053 258.743 98.9504 259.237 97.7195C259.772 96.4821 260.277 95.1853 260.751 93.8291C261.267 92.4665 261.758 91.2147 262.222 90.0737L266.316 92.9035C266.108 93.4916 265.849 94.3014 265.538 95.333C265.221 96.3228 264.851 97.3849 264.428 98.5194C263.998 99.6121 263.482 100.697 262.879 101.774C262.318 102.844 261.668 103.757 260.93 104.513C260.185 105.227 259.363 105.717 258.464 105.985C257.565 106.252 256.559 106.109 255.447 105.554C253.602 104.685 252.336 103.277 251.65 101.331C250.958 99.3433 250.633 97.1059 250.675 94.6193C250.712 92.0909 251.009 89.4578 251.569 86.7201C252.171 83.9759 252.854 81.3473 253.619 78.8343L252.617 78.9894L250.012 75.4161ZM260.602 94.2371C261.169 92.6527 261.839 90.9028 262.611 88.9873C263.336 87.0365 264.071 85.0199 264.818 82.9374C264.215 81.534 264.102 80.2474 264.477 79.0777C264.887 77.8597 265.506 76.8872 266.334 76.1604C267.156 75.3918 268.061 74.8882 269.051 74.6495C270.082 74.4044 270.907 74.4903 271.528 74.9074C272.142 75.2827 272.435 76.0711 272.407 77.2727C272.373 78.4325 271.746 80.0475 270.527 82.1176C271.115 82.3259 271.554 82.5359 271.844 82.7476C272.133 82.9594 272.39 83.2403 272.615 83.5902C272.876 83.892 273.153 84.2981 273.445 84.8087C273.773 85.271 274.232 85.8842 274.821 86.6482C275.457 87.4476 275.759 88.4272 275.724 89.587C275.725 90.6986 275.563 91.8569 275.236 93.062C274.951 94.2606 274.622 95.4447 274.247 96.6145C273.866 97.7425 273.611 98.7226 273.483 99.5548C274.408 98.8986 275.193 98.0288 275.837 96.9455C276.524 95.8558 277.12 94.7372 277.627 93.5898C278.127 92.4006 278.568 91.2421 278.949 90.1141C279.372 88.9796 279.761 88.0427 280.117 87.3035L284.284 90.1861C284.114 90.469 283.913 90.9704 283.683 91.6902C283.445 92.3683 283.144 93.1846 282.779 94.1391C282.449 95.0454 282.063 96.0032 281.62 97.0124C281.22 98.0151 280.764 98.9408 280.254 99.7894C279.786 100.632 279.26 101.376 278.676 102.022C278.085 102.627 277.454 103.109 276.783 103.47C276.154 103.824 275.478 104.014 274.755 104.04C274.067 104.018 273.407 103.757 272.774 103.256C272.34 102.939 271.906 102.621 271.472 102.304C271.079 101.979 270.687 101.655 270.295 101.331C269.8 100.895 269.491 100.28 269.368 99.4864C269.28 98.6448 269.287 97.7243 269.389 96.7251C269.533 95.7194 269.736 94.6831 269.998 93.6162C270.254 92.5076 270.499 91.4649 270.733 90.488C271.008 89.5047 271.216 88.6387 271.357 87.89C271.497 87.1413 271.5 86.6064 271.365 86.2852C271.005 86.1699 270.624 86.0578 270.223 85.949C269.814 85.7984 269.413 85.6895 269.017 85.6224C268.838 86.1206 268.655 86.5978 268.469 87.0542C268.325 87.5041 268.178 87.9331 268.027 88.3413C267.524 89.7875 266.994 91.1951 266.436 92.5642C265.914 93.8851 265.345 95.3201 264.729 96.8692L260.602 94.2371ZM284.079 94.1945C283.932 95.4572 283.864 96.5367 283.875 97.433C283.927 98.3229 284.011 98.8658 284.127 99.0616C284.68 99.3181 285.272 99.4188 285.905 99.3636C286.532 99.2666 287.145 99.0861 287.746 98.8221C288.346 98.5581 288.916 98.2347 289.455 97.8519C289.995 97.4691 290.468 97.0751 290.876 96.6699C291.698 95.9013 292.399 95.0444 292.979 94.0994C293.554 93.1125 294.062 92.1145 294.504 91.1053C294.982 90.0479 295.415 88.9761 295.802 87.8898C296.19 86.8036 296.623 85.7317 297.1 84.6743L301.142 87.5764C300.674 88.9743 300.224 90.3482 299.791 91.6979C299.359 93.0476 298.833 94.3477 298.214 95.598C297.631 96.8001 296.902 97.8963 296.03 98.8866C295.198 99.8705 294.147 100.675 292.875 101.299C291.98 101.865 291.072 102.22 290.154 102.362C289.277 102.498 288.398 102.484 287.518 102.321C286.679 102.151 285.842 101.853 285.006 101.427C284.212 100.994 283.426 100.474 282.648 99.8678C281.96 99.2902 281.346 98.637 280.805 97.9082C280.265 97.1794 279.864 96.3863 279.603 95.5287C279.249 94.3436 279.121 93.102 279.219 91.804C279.276 90.5124 279.506 89.2368 279.909 87.977C280.271 86.7238 280.771 85.5346 281.409 84.4096C282.083 83.2363 282.842 82.1995 283.686 81.2992C285.339 79.5467 286.964 78.7179 288.56 78.8128C290.157 78.9077 291.833 79.653 293.589 81.0489C294.483 81.8512 294.985 82.8852 295.095 84.1509C295.106 85.0473 294.862 85.9615 294.365 86.8936C293.904 87.7776 293.426 88.5571 292.931 89.2322C291.821 90.9006 290.669 92.2976 289.475 93.4232C288.281 94.5487 286.999 95.517 285.628 96.3278L284.079 94.1945ZM290.448 82.3048C289.485 82.7105 288.651 83.2671 287.948 83.9745C287.287 84.6755 286.708 85.4921 286.211 86.4242C285.749 87.3081 285.363 88.2659 285.052 89.2974C284.784 90.3225 284.539 91.3653 284.318 92.4257C284.909 91.8211 285.549 91.1234 286.239 90.3324C286.929 89.5414 287.571 88.7152 288.164 87.8536C288.793 86.9439 289.314 86.0294 289.728 85.1101C290.135 84.1492 290.375 83.2141 290.448 82.3048ZM301.145 91.5525C300.999 92.8152 300.931 93.8947 300.941 94.791C300.993 95.6809 301.077 96.2237 301.193 96.4196C301.746 96.6761 302.339 96.7767 302.972 96.7215C303.598 96.6246 304.211 96.4441 304.812 96.1801C305.413 95.9161 305.982 95.5927 306.522 95.2098C307.061 94.827 307.535 94.433 307.942 94.0279C308.764 93.2593 309.465 92.4024 310.046 91.4573C310.62 90.4705 311.128 89.4725 311.571 88.4633C312.048 87.4059 312.481 86.3341 312.869 85.2478C313.256 84.1616 313.689 83.0897 314.167 82.0323L318.208 84.9344C317.74 86.3323 317.29 87.7062 316.858 89.0559C316.425 90.4056 315.9 91.7056 315.281 92.956C314.697 94.158 313.969 95.2543 313.096 96.2446C312.265 97.2284 311.213 98.0326 309.942 98.657C309.046 99.2233 308.139 99.5776 307.22 99.7198C306.343 99.8555 305.464 99.8419 304.584 99.6789C303.745 99.5094 302.908 99.2114 302.072 98.7849C301.278 98.352 300.493 97.8322 299.714 97.2258C299.026 96.6481 298.412 95.9949 297.872 95.2662C297.331 94.5374 296.931 93.7442 296.67 92.8867C296.315 91.7016 296.187 90.46 296.285 89.162C296.342 87.8704 296.572 86.5948 296.976 85.335C297.338 84.0817 297.838 82.8926 298.476 81.7675C299.149 80.5943 299.908 79.5575 300.752 78.6571C302.405 76.9047 304.03 76.0759 305.627 76.1708C307.224 76.2657 308.9 77.011 310.655 78.4069C311.549 79.2092 312.051 80.2432 312.162 81.5089C312.172 82.4052 311.929 83.3195 311.432 84.2516C310.97 85.1355 310.492 85.9151 309.998 86.5902C308.888 88.2586 307.736 89.6556 306.542 90.7812C305.348 91.9067 304.065 92.8749 302.694 93.6858L301.145 91.5525ZM307.514 79.6628C306.551 80.0685 305.718 80.6251 305.015 81.3325C304.354 82.0335 303.775 82.8501 303.278 83.7822C302.816 84.6661 302.43 85.6239 302.119 86.6554C301.85 87.6805 301.605 88.7233 301.384 89.7836C301.975 89.1791 302.615 88.4814 303.305 87.6904C303.995 86.8994 304.637 86.0732 305.231 85.2116C305.859 84.3018 306.381 83.3873 306.794 82.4681C307.201 81.5072 307.441 80.572 307.514 79.6628ZM313.323 65.6151C314.283 65.4664 315.142 65.3548 315.9 65.2802C316.694 65.1573 317.449 65.0619 318.165 64.9937C318.761 63.3194 319.267 61.8941 319.684 60.7178C320.136 59.4934 320.445 58.5903 320.611 58.0087L324.768 60.8287C324.611 61.1951 324.407 61.6756 324.157 62.2702C323.943 62.8165 323.723 63.4705 323.499 64.2321C323.583 64.2192 323.687 64.203 323.812 64.1836C323.931 64.1225 324.053 64.0822 324.178 64.0628L325.314 67.6712C324.652 67.8164 324.074 67.9486 323.58 68.068C323.12 68.1391 322.661 68.2102 322.202 68.2813C321.673 70.1162 321.153 72.1423 320.641 74.3595C320.165 76.5286 319.778 78.7264 319.481 80.953C319.184 83.1797 319.031 85.3629 319.02 87.5025C319.044 89.5939 319.314 91.4763 319.83 93.1496C320.209 92.8344 320.623 92.1931 321.071 91.2257C321.562 90.2518 322.054 89.1494 322.548 87.9185C323.083 86.6811 323.588 85.3843 324.062 84.0281C324.578 82.6654 325.068 81.4136 325.533 80.2727L329.627 83.1024C329.419 83.6905 329.159 84.5004 328.849 85.5319C328.532 86.5217 328.162 87.5839 327.739 88.7184C327.309 89.8111 326.793 90.8958 326.19 91.9726C325.629 93.043 324.979 93.956 324.241 94.7117C323.496 95.4256 322.674 95.9163 321.775 96.1838C320.876 96.4513 319.87 96.3077 318.758 95.7529C316.913 94.884 315.647 93.4764 314.961 91.5302C314.269 89.5422 313.944 87.3049 313.986 84.8182C314.022 82.2898 314.32 79.6568 314.88 76.919C315.481 74.1748 316.165 71.5462 316.93 69.0332L315.928 69.1884L313.323 65.6151Z" fill="#133E68"/>
<path d="M15.18 42H28.68L33.48 54H39.72L21.84 6L4.2 54H10.44L15.18 42ZM21.84 22.02L26.76 36H17.16L21.84 22.02ZM83.2978 6L63.3778 32.22L43.4578 6V54H49.4578V24L63.3778 42L77.2978 24V54H83.2978V6ZM98.873 6C92.573 6 87.173 10.8 86.993 16.74V17.04C86.993 22.74 91.553 26.7 97.913 27.3C104.753 27.96 112.673 29.46 112.673 37.5V37.92C112.493 43.86 107.093 48.24 100.793 48.24C97.313 48.24 94.373 47.1 92.333 44.82L87.713 48.36C90.713 51.78 95.393 54 100.613 54C110.153 54 118.133 46.92 118.433 38.04V37.44C118.433 28.86 112.073 22.38 98.273 21.54C94.673 21.3 92.813 19.5 92.813 16.86V16.56C92.813 13.56 95.573 11.34 98.693 11.34C100.433 11.34 101.873 12.06 102.893 13.14L107.333 9.6C105.353 7.38 102.293 6 98.873 6ZM116.055 12H125.055V54H131.055V12H140.055V6H116.055V12ZM146.583 54H173.643V48H152.583V42H167.583V36H152.583V12H173.583V6H146.583V54ZM180.157 54H186.157V42H187.117C188.437 42 189.697 41.88 190.957 41.58L198.097 54H205.057L196.597 39.3C201.697 36.12 205.117 30.48 205.117 24C205.117 14.04 197.077 6 187.117 6C186.757 6 186.457 6 186.157 6.06L180.157 6V54ZM187.117 12.12C193.717 12.12 199.117 17.52 199.117 24.12C199.117 30.72 193.717 36.06 187.117 36.06H186.157V12.18C186.457 12.12 186.757 12.12 187.117 12.12ZM211.622 54H217.622C230.882 54 241.622 43.26 241.622 30C241.622 16.74 230.882 6 217.622 6H211.622V54ZM217.682 12C227.702 12 235.742 20.04 235.742 30.06C235.742 40.08 227.702 48.12 217.682 48.12V12ZM253.071 42H266.571L271.371 54H277.611L259.731 6L242.091 54H248.331L253.071 42ZM259.731 22.02L264.651 36H255.051L259.731 22.02ZM321.188 6L301.268 32.22L281.348 6V54H287.348V24L301.268 42L315.188 24V54H321.188V6Z" fill="#FAF7F2"/>
</svg>
