<svg width="76" height="44" viewBox="0 0 76 44" fill="none" xmlns="http://www.w3.org/2000/svg">
<path fill-rule="evenodd" clip-rule="evenodd" d="M37.517 2.60401C37.517 2.60401 60.2136 16.8135 38.2243 31.666C38.2243 31.666 38.4493 24.8184 37.517 18.5495C36.5847 24.8184 36.8097 31.666 36.8097 31.666C14.8525 16.8457 37.517 2.60401 37.517 2.60401ZM17.3279 22.4073C17.3279 22.4073 5.56165 22.4073 5.94742 16.1063C5.94742 16.1063 8.68002 18.003 12.1199 17.3279C12.1199 17.3279 13.2772 19.4175 16.1063 21.5393C11.8306 21.2821 9.77306 19.3532 9.77306 19.3532C12.7307 22.1501 17.3279 22.4073 17.3279 22.4073ZM34.7844 33.3377C34.7844 33.3377 27.5832 38.6422 19.2889 37.4527C23.629 47.3544 37.1955 46.1006 36.5204 33.177C36.5204 33.177 35.9739 40.9569 25.0435 40.4103C30.3801 39.8317 32.9198 38.4493 34.7844 33.3377ZM6.07602 29.2549C6.07602 29.2549 3.15053 31.6339 0 31.7946C0 31.7946 4.24357 41.4712 17.0707 37.517C17.0707 37.517 9.29084 38.1278 5.07942 33.5306C5.07942 33.5306 8.51928 36.5525 14.9811 36.8097C12.2163 35.7488 7.55484 33.3699 6.07602 29.2549ZM4.4686 17.6172C7.61913 28.0976 25.3328 18.9032 33.7556 32.534C33.7556 32.534 19.6747 32.4697 12.7628 27.551C12.7628 27.551 18.6781 32.8555 30.5408 33.402C17.4565 41.3748 4.5329 31.9553 4.4686 17.6172ZM19.2246 10.0624C19.2246 10.0624 19.1282 15.9777 22.0215 20.7678C15.624 16.5242 13.8237 10.9304 13.8237 10.9304C15.6562 19.0961 24.3684 23.6932 24.3684 23.6932C24.3684 23.6932 9.22654 21.2178 10.6089 5.75453C12.795 7.81202 16.3313 9.35514 19.2246 10.0624ZM30.8302 6.14031C30.8302 6.14031 30.2836 3.05408 26.8438 0C26.8438 0 12.2485 11.4448 28.5476 25.3007C28.5476 25.3007 22.1823 19.0961 24.079 7.71558C24.079 7.71558 23.0503 14.0166 26.3937 20.2534C25.1721 15.174 26.4901 9.54803 30.8302 6.14031ZM57.7061 22.4073C57.7061 22.4073 69.4723 22.4073 69.0866 16.1063C69.0866 16.1063 66.354 18.003 62.9141 17.3279C62.9141 17.3279 61.7568 19.4175 58.9277 21.5393C63.2034 21.2821 65.2609 19.3532 65.2609 19.3532C62.3033 22.1501 57.7061 22.4073 57.7061 22.4073ZM40.2496 33.3377C40.2496 33.3377 47.4508 38.6422 55.745 37.4527C51.405 47.3544 37.8385 46.1006 38.5136 33.177C38.5136 33.177 39.0601 40.9569 49.9905 40.4103C44.6539 39.8317 42.1463 38.4493 40.2496 33.3377ZM68.958 29.2549C68.958 29.2549 71.8835 31.6339 75.034 31.7946C75.034 31.7946 70.7904 41.4712 57.9633 37.517C57.9633 37.517 65.7431 38.1278 69.9546 33.5306C69.9546 33.5306 66.5147 36.5525 60.0529 36.8097C62.8177 35.7488 67.4791 33.3699 68.958 29.2549ZM70.5975 17.6172C67.447 28.0976 49.7333 18.9032 41.3105 32.534C41.3105 32.534 55.3914 32.4697 62.3033 27.551C62.3033 27.551 56.388 32.8555 44.5575 33.402C57.5775 41.3748 70.5011 31.9553 70.5975 17.6172ZM55.8093 10.0624C55.8093 10.0624 55.9058 15.9777 53.0124 20.7678C59.4099 16.5242 61.2102 10.9304 61.2102 10.9304C59.3778 19.0961 50.6656 23.6932 50.6656 23.6932C50.6656 23.6932 65.8074 21.2178 64.4251 5.78668C62.239 7.81202 58.7027 9.35514 55.8093 10.0624ZM44.2038 6.14031C44.2038 6.14031 44.7503 3.05408 48.1902 0C48.1902 0 62.7855 11.4448 46.4864 25.3007C46.4864 25.3007 52.8517 19.0961 50.955 7.71558C50.955 7.71558 51.9837 14.0166 48.6403 20.2534C49.8619 15.174 48.5438 9.54803 44.2038 6.14031Z" fill="#D6EFFF"/>
</svg>
