<svg width="338" height="144" viewBox="0 0 338 144" fill="none" xmlns="http://www.w3.org/2000/svg">
<path d="M241.937 110.82C242.877 109.434 243.903 107.778 245.016 105.853C246.171 103.921 247.208 101.922 248.128 99.8553C249.042 97.7469 249.785 95.6435 250.358 93.5451C250.931 91.4467 251.124 89.5141 250.936 87.7473C250.894 87.7537 250.849 87.7393 250.801 87.704C250.024 87.6534 249.248 87.7521 248.474 88.0002C247.693 88.2065 246.95 88.514 246.243 88.9227C245.537 89.3314 244.837 89.7818 244.144 90.274C243.45 90.7662 242.798 91.2519 242.188 91.7312C240.962 92.6479 239.636 93.7511 238.211 95.0408C236.786 96.3304 235.374 97.7035 233.974 99.1602C232.568 100.575 231.232 102.022 229.964 103.501C228.738 104.974 227.691 106.354 226.821 107.644L226.884 107.634C226.65 108.055 226.369 108.59 226.042 109.239C225.75 109.84 225.486 110.48 225.249 111.158C225.011 111.836 224.858 112.501 224.788 113.154C224.718 113.806 224.805 114.37 225.05 114.845C225.77 115.631 226.913 116.245 228.478 116.687C230.084 117.123 231.855 117.511 233.789 117.853C235.759 118.147 237.777 118.476 239.843 118.84C241.903 119.163 243.79 119.619 245.507 120.208C247.264 120.791 248.693 121.597 249.793 122.624C250.928 123.602 251.514 124.901 251.551 126.52C251.577 127.243 251.424 127.908 251.09 128.516C250.798 129.117 250.392 129.672 249.872 130.18C249.388 130.64 248.855 131.064 248.274 131.453C247.692 131.843 247.129 132.208 246.583 132.549C245.883 132.999 245.103 133.484 244.242 134.002C243.43 134.555 242.563 135.031 241.642 135.43C240.768 135.865 239.879 136.195 238.973 136.421C238.067 136.647 237.15 136.66 236.221 136.462C235.016 136.135 233.803 135.618 232.581 134.909C231.366 134.242 230.41 133.449 229.712 132.531C229.007 131.571 228.703 130.571 228.798 129.53C228.929 128.44 229.744 127.352 231.243 126.265L235.468 129.523C234.871 130.086 234.357 130.636 233.927 131.173C233.497 131.71 233.318 132.208 233.389 132.667C234.32 132.609 235.278 132.439 236.26 132.159C237.279 131.83 238.245 131.445 239.16 131.004C240.117 130.557 241.023 130.053 241.877 129.493C242.773 128.927 243.603 128.35 244.367 127.761C244.486 127.7 244.71 127.494 245.041 127.143C245.413 126.786 245.782 126.409 246.148 126.01C246.508 125.569 246.787 125.163 246.985 124.79C247.178 124.375 247.153 124.08 246.912 123.903C245.688 123.451 244.303 123.067 242.757 122.751C241.247 122.386 239.782 122.035 238.361 121.699C236.809 121.341 235.188 120.951 233.498 120.528C231.849 120.099 230.185 119.566 228.504 118.928C227.729 118.62 226.882 118.26 225.963 117.846C225.079 117.384 224.227 116.854 223.408 116.254C222.588 115.654 221.884 114.971 221.295 114.207C220.665 113.45 220.272 112.57 220.117 111.568C219.929 110.357 220.097 109.091 220.619 107.77C221.135 106.407 221.746 105.244 222.452 104.279C225.388 100.318 228.658 96.5838 232.263 93.0754C235.909 89.5605 239.944 86.6267 244.369 84.2741C246.084 83.7521 247.728 83.7328 249.299 84.2165C250.871 84.7001 252.261 85.5325 253.47 86.7136C254.039 87.3524 254.497 87.9656 254.845 88.5532C255.234 89.1343 255.498 89.7348 255.637 90.3548C255.776 90.9747 255.817 91.6525 255.759 92.3883C255.702 93.124 255.554 93.9595 255.314 94.8946C254.475 98.3169 253.304 101.662 251.8 104.931C250.29 108.158 248.483 111.26 246.378 114.237L241.937 110.82ZM256.012 97.4161C256.973 97.2675 257.832 97.1558 258.59 97.0812C259.383 96.9584 260.138 96.8629 260.855 96.7948C261.451 95.1204 261.957 93.6951 262.373 92.5189C262.825 91.2944 263.134 90.3914 263.301 89.8097L267.458 92.6297C267.3 92.9961 267.097 93.4766 266.847 94.0712C266.632 94.6176 266.413 95.2715 266.189 96.0332C266.272 96.0202 266.376 96.0041 266.502 95.9847C266.621 95.9235 266.743 95.8833 266.868 95.8639L268.004 99.4722C267.342 99.6174 266.764 99.7497 266.269 99.869C265.81 99.9401 265.351 100.011 264.891 100.082C264.363 101.917 263.843 103.943 263.331 106.161C262.854 108.33 262.467 110.527 262.171 112.754C261.874 114.981 261.72 117.164 261.709 119.304C261.734 121.395 262.004 123.277 262.52 124.951C262.898 124.635 263.312 123.994 263.761 123.027C264.252 122.053 264.744 120.95 265.237 119.72C265.773 118.482 266.278 117.185 266.752 115.829C267.268 114.466 267.758 113.215 268.223 112.074L272.317 114.903C272.109 115.492 271.849 116.301 271.538 117.333C271.221 118.323 270.851 119.385 270.428 120.519C269.999 121.612 269.483 122.697 268.88 123.774C268.318 124.844 267.669 125.757 266.93 126.513C266.186 127.227 265.364 127.717 264.464 127.985C263.565 128.252 262.559 128.109 261.447 127.554C259.602 126.685 258.337 125.277 257.651 123.331C256.958 121.343 256.633 119.106 256.676 116.619C256.712 114.091 257.01 111.458 257.57 108.72C258.171 105.976 258.854 103.347 259.62 100.834L258.618 100.989L256.012 97.4161ZM266.602 116.237C267.17 114.653 267.839 112.903 268.612 110.987C269.336 109.037 270.071 107.02 270.818 104.937C270.216 103.534 270.102 102.247 270.477 101.078C270.887 99.8597 271.506 98.8872 272.334 98.1604C273.156 97.3918 274.062 96.8882 275.051 96.6495C276.082 96.4044 276.908 96.4903 277.528 96.9074C278.142 97.2827 278.435 98.0711 278.407 99.2727C278.373 100.433 277.747 102.047 276.528 104.118C277.116 104.326 277.555 104.536 277.844 104.748C278.133 104.959 278.391 105.24 278.616 105.59C278.876 105.892 279.153 106.298 279.446 106.809C279.774 107.271 280.232 107.884 280.821 108.648C281.458 109.448 281.759 110.427 281.725 111.587C281.726 112.699 281.563 113.857 281.237 115.062C280.952 116.261 280.622 117.445 280.247 118.614C279.866 119.743 279.612 120.723 279.484 121.555C280.408 120.899 281.193 120.029 281.838 118.946C282.524 117.856 283.121 116.737 283.627 115.59C284.127 114.401 284.568 113.242 284.949 112.114C285.372 110.98 285.762 110.043 286.118 109.303L290.284 112.186C290.114 112.469 289.914 112.97 289.683 113.69C289.446 114.368 289.145 115.185 288.779 116.139C288.449 117.045 288.063 118.003 287.621 119.012C287.22 120.015 286.765 120.941 286.255 121.789C285.786 122.632 285.26 123.376 284.676 124.022C284.086 124.627 283.455 125.109 282.784 125.47C282.154 125.824 281.478 126.014 280.755 126.04C280.068 126.018 279.407 125.757 278.774 125.256C278.34 124.939 277.906 124.621 277.472 124.304C277.08 123.979 276.688 123.655 276.295 123.331C275.8 122.895 275.491 122.28 275.368 121.486C275.281 120.645 275.288 119.724 275.39 118.725C275.533 117.719 275.736 116.683 275.999 115.616C276.255 114.508 276.5 113.465 276.733 112.488C277.009 111.505 277.217 110.639 277.357 109.89C277.498 109.141 277.501 108.606 277.365 108.285C277.005 108.17 276.625 108.058 276.223 107.949C275.815 107.798 275.413 107.69 275.018 107.622C274.838 108.121 274.656 108.598 274.47 109.054C274.326 109.504 274.178 109.933 274.028 110.341C273.525 111.787 272.994 113.195 272.437 114.564C271.914 115.885 271.345 117.32 270.73 118.869L266.602 116.237ZM290.079 116.194C289.933 117.457 289.865 118.537 289.875 119.433C289.927 120.323 290.011 120.866 290.127 121.062C290.68 121.318 291.273 121.419 291.906 121.364C292.532 121.267 293.146 121.086 293.746 120.822C294.347 120.558 294.917 120.235 295.456 119.852C295.995 119.469 296.469 119.075 296.876 118.67C297.698 117.901 298.399 117.044 298.98 116.099C299.554 115.113 300.062 114.115 300.505 113.105C300.982 112.048 301.415 110.976 301.803 109.89C302.191 108.804 302.623 107.732 303.101 106.674L307.142 109.576C306.674 110.974 306.224 112.348 305.792 113.698C305.359 115.048 304.834 116.348 304.215 117.598C303.631 118.8 302.903 119.896 302.03 120.887C301.199 121.87 300.147 122.675 298.876 123.299C297.98 123.865 297.073 124.22 296.154 124.362C295.277 124.498 294.398 124.484 293.518 124.321C292.679 124.151 291.842 123.853 291.006 123.427C290.213 122.994 289.427 122.474 288.649 121.868C287.96 121.29 287.346 120.637 286.806 119.908C286.265 119.179 285.865 118.386 285.604 117.529C285.249 116.344 285.121 115.102 285.219 113.804C285.276 112.512 285.506 111.237 285.91 109.977C286.272 108.724 286.772 107.535 287.41 106.41C288.084 105.236 288.842 104.2 289.686 103.299C291.339 101.547 292.964 100.718 294.561 100.813C296.158 100.908 297.834 101.653 299.589 103.049C300.483 103.851 300.985 104.885 301.096 106.151C301.106 107.047 300.863 107.961 300.366 108.894C299.904 109.778 299.426 110.557 298.932 111.232C297.822 112.901 296.67 114.298 295.476 115.423C294.282 116.549 292.999 117.517 291.628 118.328L290.079 116.194ZM296.448 104.305C295.485 104.711 294.652 105.267 293.949 105.975C293.288 106.676 292.709 107.492 292.212 108.424C291.75 109.308 291.364 110.266 291.053 111.297C290.784 112.323 290.539 113.365 290.319 114.426C290.909 113.821 291.549 113.123 292.239 112.332C292.929 111.541 293.571 110.715 294.165 109.854C294.793 108.944 295.315 108.029 295.728 107.11C296.135 106.149 296.375 105.214 296.448 104.305ZM307.146 113.552C306.999 114.815 306.931 115.895 306.942 116.791C306.994 117.681 307.078 118.224 307.194 118.42C307.746 118.676 308.339 118.777 308.972 118.722C309.599 118.625 310.212 118.444 310.812 118.18C311.413 117.916 311.983 117.593 312.522 117.21C313.062 116.827 313.535 116.433 313.943 116.028C314.765 115.259 315.466 114.402 316.046 113.457C316.62 112.471 317.129 111.473 317.571 110.463C318.049 109.406 318.482 108.334 318.869 107.248C319.257 106.162 319.69 105.09 320.167 104.032L324.208 106.934C323.741 108.332 323.291 109.706 322.858 111.056C322.426 112.406 321.9 113.706 321.281 114.956C320.698 116.158 319.969 117.254 319.096 118.245C318.265 119.228 317.214 120.033 315.942 120.657C315.046 121.223 314.139 121.578 313.22 121.72C312.344 121.856 311.465 121.842 310.584 121.679C309.746 121.509 308.909 121.211 308.073 120.785C307.279 120.352 306.493 119.832 305.715 119.226C305.027 118.648 304.413 117.995 303.872 117.266C303.332 116.537 302.931 115.744 302.67 114.887C302.316 113.702 302.188 112.46 302.286 111.162C302.342 109.87 302.573 108.595 302.976 107.335C303.338 106.082 303.838 104.893 304.476 103.768C305.15 102.594 305.909 101.557 306.753 100.657C308.406 98.9047 310.031 98.0759 311.627 98.1708C313.224 98.2657 314.9 99.011 316.656 100.407C317.55 101.209 318.052 102.243 318.162 103.509C318.173 104.405 317.929 105.319 317.432 106.252C316.97 107.136 316.492 107.915 315.998 108.59C314.888 110.259 313.736 111.656 312.542 112.781C311.348 113.907 310.066 114.875 308.695 115.686L307.146 113.552ZM313.515 101.663C312.551 102.068 311.718 102.625 311.015 103.333C310.354 104.033 309.775 104.85 309.278 105.782C308.816 106.666 308.43 107.624 308.119 108.655C307.85 109.681 307.606 110.723 307.385 111.784C307.976 111.179 308.616 110.481 309.306 109.69C309.996 108.899 310.638 108.073 311.231 107.212C311.86 106.302 312.381 105.387 312.795 104.468C313.202 103.507 313.442 102.572 313.515 101.663ZM319.323 87.6151C320.283 87.4664 321.143 87.3548 321.901 87.2802C322.694 87.1573 323.449 87.0619 324.166 86.9937C324.762 85.3194 325.268 83.8941 325.684 82.7178C326.136 81.4934 326.445 80.5903 326.612 80.0087L330.768 82.8287C330.611 83.1951 330.408 83.6756 330.158 84.2702C329.943 84.8165 329.724 85.4705 329.499 86.2321C329.583 86.2192 329.687 86.203 329.813 86.1836C329.931 86.1225 330.054 86.0822 330.179 86.0628L331.315 89.6712C330.653 89.8164 330.075 89.9486 329.58 90.068C329.121 90.1391 328.661 90.2102 328.202 90.2813C327.674 92.1162 327.154 94.1423 326.642 96.3595C326.165 98.5286 325.778 100.726 325.482 102.953C325.185 105.18 325.031 107.363 325.02 109.503C325.045 111.594 325.315 113.476 325.83 115.15C326.209 114.834 326.623 114.193 327.072 113.226C327.563 112.252 328.055 111.149 328.548 109.918C329.084 108.681 329.588 107.384 330.063 106.028C330.579 104.665 331.069 103.414 331.534 102.273L335.628 105.102C335.419 105.691 335.16 106.5 334.849 107.532C334.532 108.522 334.162 109.584 333.739 110.718C333.31 111.811 332.793 112.896 332.19 113.973C331.629 115.043 330.98 115.956 330.241 116.712C329.497 117.426 328.675 117.916 327.775 118.184C326.876 118.451 325.87 118.308 324.758 117.753C322.913 116.884 321.648 115.476 320.962 113.53C320.269 111.542 319.944 109.305 319.987 106.818C320.023 104.29 320.321 101.657 320.881 98.919C321.482 96.1748 322.165 93.5462 322.931 91.0332L321.929 91.1884L319.323 87.6151Z" fill="#133E68"/>
<path d="M77.8 52.4C77.8 52.4 77.7 52.6 77.6 52.9C77.5 53 77.4 53 77.2 53L76.6 52.7L76.1 52.5C76 52.4 75.9 52.4 75.7 52.4C75.5 52.4 75.4 52.4 75.4 52.3L75.1 52.2C74.7 52.2 74.3 52.1 74.1 52C74 51.9 73.9 51.9 73.8 51.9C72.8 51.8 72.4 51.7 72.4 51.6C72.3 51.5 72.2 51.5 72.2 51.6C71.9 51.7 71.7 51.7 71.5 51.7C71.2 51.7 71 51.7 70.9 51.8C70.8 51.8 70.8 51.9 70.9 52H71.1C71.2 52 71.2 52.1 71.3 52.2C71.3 52.3 71.3 52.4 71.2 52.5C71.1 52.6 71.1 52.7 71.2 52.9V53.1L71.1 53.3C71.1 53.4 71.1 53.5 71 53.6C71 53.7 71 53.8 71.1 53.8C71.2 53.7 71.2 53.7 71.3 53.8C71.4 53.9 71.3 53.9 71.2 53.9L70.9 54H71C71.1 54 71.1 54 71.1 54.1V54.2C70.9 54.2 70.8 54.5 70.8 55.1C70.8 55.2 70.8 55.4 70.7 55.6V55.8C70.8 55.8 70.8 55.9 70.8 56C70.8 56.1 70.8 56.2 70.9 56.3C70.9 56.6 70.9 56.7 70.8 56.7C70.7 56.7 70.7 56.7 70.6 56.8C70.5 56.9 70.5 56.9 70.6 57L70.5 57.2C70.4 57.3 70.5 57.3 70.7 57.4C70.8 57.4 70.9 57.5 70.9 57.8C70.9 58 70.8 58.1 70.7 58.1C70.6 58.1 70.5 58.1 70.5 58.2L70.7 58.3C70.8 58.3 70.8 58.4 70.9 58.5C70.9 58.6 70.9 58.7 70.8 58.8C70.7 58.8 70.7 58.9 70.8 59.1C70.9 59.2 70.9 59.4 70.8 59.5C70.6 59.7 70.6 60 70.7 60.3V60.5C70.6 60.5 70.6 60.6 70.6 60.7C70.7 60.8 70.7 60.8 70.6 60.9L70.5 61.3C70.4 61.4 70.5 61.5 70.6 61.8C70.7 61.9 70.7 62.1 70.6 62.2C70.5 62.3 70.5 62.4 70.6 62.5V62.6C70.6 63.2 70.5 63.6 70.3 63.8C70.2 63.8 70.2 63.8 70.2 63.9C70.2 63.9 70.3 64 70.4 64.1C70.5 64.2 70.5 64.4 70.5 64.7C70.4 64.8 70.4 64.9 70.4 65C70.4 65.1 70.4 65.2 70.3 65.3C70.2 65.4 70.2 65.5 70.3 65.5C70.4 65.5 70.4 65.5 70.4 65.4C70.5 65.4 70.5 65.4 70.5 65.5L70.4 65.8C70.3 65.8 70.3 65.8 70.3 65.9C70.4 65.9 70.4 66 70.3 66.1C70.2 66.3 70.2 66.4 70.3 66.4C70.4 66.4 70.4 66.5 70.4 66.7C70.4 67 70.3 67.2 70.1 67.2C70 67.2 70 67.2 70 67.3C70 67.4 70 67.4 70.1 67.5C70.1 67.5 70.2 67.5 70.3 67.4C70.3 67.3 70.3 67.3 70.4 67.3C70.5 67.4 70.5 67.5 70.5 67.6C70.5 67.7 70.4 67.8 70.4 67.9C70.3 67.9 70.3 67.9 70.4 68C70.5 68.1 70.5 68.3 70.5 68.4C70.5 68.5 70.5 68.6 70.4 68.7L70.1 69C70.1 69.1 70.2 69.1 70.3 69.1C70.4 69.1 70.4 69.2 70.4 69.3V69.7L70.2 69.9C70 70 70 70.1 70.2 70.1C70.3 70.1 70.3 70.3 70.2 70.7V71.4L70.1 71.6C70.1 71.8 70.1 71.9 70 71.9C69.9 72 69.9 72.1 70 72.2L70.1 72.4V72.6C70.2 72.7 70.2 72.9 70.2 73C70.2 73.1 70.1 73.2 70 73.2C69.9 73.2 69.8 73.3 69.8 73.4C69.8 73.6 69.9 73.7 70 73.7C70.1 73.6 70.1 73.6 70.1 73.7V73.9C70.2 74 70.2 74 70.2 74.1C70.2 74.2 70.1 74.2 70 74.3C69.7 74.3 69.7 74.4 70 74.6C70.1 74.7 70.1 74.8 70 74.9V75C70.1 75 70.1 75.1 70.1 75.2C70.1 75.3 70.1 75.4 70 75.4C69.7 75.4 69.7 75.6 69.9 75.9C70 76 70 76.1 69.9 76.2H69.7V76.3L69.6 76.5C69.5 76.6 69.4 76.7 69.4 76.8C69.4 76.9 69.4 76.9 69.5 76.8C69.6 76.7 69.7 76.6 69.8 76.6C69.9 76.6 69.9 76.7 69.9 76.8C69.9 77 69.8 77.1 69.7 77.1C69.6 77.2 69.6 77.3 69.6 77.4C69.6 77.5 69.6 77.5 69.7 77.5C69.8 77.5 69.8 77.5 69.8 77.6V78C69.9 78.1 69.9 78.2 69.9 78.3C69.9 78.4 69.8 78.5 69.8 78.6C69.7 78.7 69.7 78.7 69.7 78.8C69.7 78.9 69.7 78.9 69.8 78.9C69.9 78.8 69.9 78.8 69.9 79C69.9 79.1 69.9 79.2 69.8 79.3V79.6C69.8 79.8 69.8 79.9 69.7 79.9V80C69.8 80.2 69.7 80.3 69.5 80.3C69.4 80.3 69.3 80.3 69.2 80.4C69.2 80.5 69.2 80.5 69.4 80.5C69.5 80.6 69.7 80.7 69.8 80.8C69.9 80.9 69.9 81 69.7 81.1V81.2C69.9 81.3 69.9 81.4 69.6 81.7C69.5 81.8 69.5 81.9 69.6 82C69.7 82.1 69.8 82.2 69.7 82.3C69.6 82.3 69.6 82.4 69.7 82.5C69.8 82.5 69.8 82.6 69.8 82.7C69.8 82.8 69.7 82.9 69.6 83C69.5 83.1 69.5 83.2 69.6 83.3C69.7 83.5 69.7 83.7 69.6 83.8C69.5 83.9 69.5 84.1 69.5 84.2C69.5 84.3 69.5 84.4 69.6 84.4L69.7 84.6C69.6 84.7 69.6 84.8 69.7 85V85.2L69.6 85.8V86.4C69.5 86.4 69.5 86.4 69.5 86.5C69.5 86.6 69.5 86.6 69.6 86.7C69.6 86.9 69.6 87 69.5 87C69.4 87 69.4 87 69.4 87.1H69.5C69.6 87.1 69.7 87.2 69.7 87.4C69.7 87.5 69.7 87.5 69.6 87.6C69.6 87.6 69.5 87.6 69.4 87.5C69.3 87.5 69.3 87.5 69.3 87.6C69.3 87.7 69.4 87.7 69.5 87.8C69.6 87.8 69.6 87.8 69.6 87.9V88.1C69.7 88.2 69.7 88.3 69.6 88.4V88.7C69.7 88.8 69.7 88.9 69.7 89.1C69.7 89.3 69.7 89.4 69.6 89.5V89.6C69.7 89.7 69.7 89.9 69.7 90.1C69.7 90.3 69.7 90.4 69.6 90.5C69.5 90.6 69.5 90.7 69.7 90.7C69.8 90.7 69.8 91.2 69.8 92.3C69.9 92.6 69.9 93.1 69.9 93.5C70 93.7 70 93.8 69.7 93.8C69.6 93.8 69.5 93.9 69.4 94H69.1C68.7 94 68.3 93.9 68.1 93.6C68 93.5 68 93.4 68 93.2C68.1 93.1 68.1 92.9 68 92.8V92.5C68 92.4 68 92.4 67.9 92.4C67.8 92.4 67.8 92.4 67.9 92.3C68 92.2 68 92 67.9 91.7L67.8 91.1L67.7 91V89.9C67.6 88.7 67.6 88.1 67.5 88C67.5 87.9 67.5 87.8 67.6 87.9C67.7 87.9 67.8 87.9 67.8 87.8C67.8 87.7 67.7 87.7 67.6 87.7C67.5 87.7 67.5 87.3 67.5 86.5V84.2C67.4 83.8 67.4 83.4 67.5 83C67.6 82.9 67.6 82.9 67.5 82.9C67.4 82.8 67.4 82.7 67.4 82.6L67.6 81.7C67.7 81.4 67.7 81.1 67.8 81C67.8 80.9 67.8 80.8 67.6 80.7C67.5 80.6 67.5 80.4 67.4 79.9C67.4 79.4 67.4 79 67.5 78.8C67.6 78.7 67.6 78.6 67.7 78.4C67.7 78.2 67.7 78 67.6 77.9C67.5 77.8 67.5 77.7 67.6 77.6L67.7 77.1C67.7 76.8 67.7 76.7 67.8 76.6C67.8 76.5 67.8 76.5 67.7 76.5C67.6 76.4 67.6 76.3 67.6 76C67.6 75.8 67.6 75.5 67.7 75.3C67.8 75.1 67.8 75 67.7 75C67.6 74.9 67.6 74.7 67.6 74.4C67.6 74.2 67.6 74 67.7 73.9V73.5C67.6 73.3 67.6 73.2 67.7 73.1C67.8 73 67.8 72.9 67.8 72.8C67.7 72.7 67.7 72.7 67.7 72.6C67.7 72.5 67.8 72.5 67.8 72.4C67.9 72.3 67.9 72.2 67.8 72.1C67.7 72 67.7 71.9 67.7 71.8C67.7 71.7 67.7 71.6 67.8 71.5C67.9 71.4 67.9 71.4 68 71.3C68 71.2 68 71.2 67.9 71.2C67.8 71.2 67.8 71.1 67.8 71V70.7V70.5C67.9 70.4 67.9 70.4 67.8 70.4L67.7 70L67.8 69.8H67.9C67.9 69.7 67.9 69.7 67.8 69.7C67.7 69.2 67.7 68.7 67.8 68.3C67.8 67.3 67.8 66.7 67.9 66.6V66C67.8 65.8 67.8 65.6 67.9 65.5C68 65.3 68 65.2 67.9 65.1C67.9 64.8 67.9 64.5 68 64.3V63.7L67.9 63.5C68 63.4 68 63.2 68 62.9C68 62.7 68 62.4 67.9 62.2V62L68 61.4V60.9C68.1 60.8 68.1 60.6 68.1 60.4C68.1 60.2 68.1 60 68 59.9V59.7C68.1 59.6 68.1 59.4 68.1 59.3C68.1 59.2 68.1 59.1 68 59.1C68 59 68 58.7 68 58.4C68 58.1 68 57.7 68.1 57.3V56.6L68.2 56.4V56.3C68.1 56.3 68.1 56.1 68.2 55.6V54.3C68.2 53.4 68.2 53 68.3 53C68.3 52.9 68.3 52.6 68.3 52.2C68.3 51.8 68.3 51.6 68.2 51.4V51.2V51C68.2 50.9 68.2 50.9 68.1 50.9C68.1 51 68 51 67.9 51C67.9 50.9 67.8 50.9 67.6 50.9H67.4C67.3 50.8 67.2 50.8 67 50.8C66.9 50.9 66.8 50.9 66.5 50.8C66.4 50.7 66 50.6 65.3 50.5C64.9 50.5 64.7 50.5 64.7 50.6C64.7 50.7 64.6 50.7 64.4 50.6H64C63.7 50.7 63.6 50.7 63.8 50.5C63.9 50.4 63.9 50.4 63.8 50.3C63.7 50.3 63.6 50.2 63.5 50.2H61.5H59.8L59.4 50.1C59.3 50 59.2 50 59.1 50C59 50 58.9 50.1 58.8 50.2C58.7 50.3 58.6 50.3 58.5 50.3C58.4 50.3 58.4 50.3 58.4 50.2C58.4 50.1 58.4 50.1 58.3 50.1C58.2 50.1 58.2 50.1 58.2 50.2H57.7C57.6 50.1 57.4 50.1 57.3 50.2C57.3 50.3 57.2 50.3 57.1 50.2H56.8C56.7 50.2 56.7 50.2 56.7 50.1C56.7 50 56.6 50 56.5 50C56.4 50 56.3 50.1 56.2 50.2C56.1 50.3 55.9 50.4 55.8 50.3C55.7 50.2 55.6 50.2 55.5 50.3C55.4 50.4 55.4 50.4 55.3 50.3C55.2 50.2 55.2 50.2 55.1 50.3L54.9 50.4C54.8 50.4 54.7 50.4 54.7 50.5H54.4C54.1 50.5 53.9 50.5 53.7 50.6C53.6 50.7 53.3 50.7 53 50.7C52.9 50.7 52.8 50.8 52.8 50.9L52.6 51.1C52.5 51.1 52.5 51.1 52.5 51.2C52.5 51.3 52.5 51.4 52.6 51.4C52.7 51.4 52.8 51.4 52.8 51.5C52.8 51.6 52.8 51.6 52.7 51.6L52.4 52C52.1 52.4 52 52.6 51.9 52.6C51.8 52.5 51.8 52.7 51.8 53C51.8 53.1 51.7 53.2 51.6 53.2L51.4 53.3V53.4C51.4 53.8 51.3 54.2 51.1 54.6C51 54.8 51 54.9 51 55L50.9 55.1L50.8 55.3C50.8 55.4 50.7 55.4 50.6 55.4L50.4 55.5C50.2 55.7 50.2 55.8 50.3 55.8C50.4 55.9 50.3 56 50.2 56.1L50 56.4C50 56.5 50 56.5 49.9 56.5C49.8 56.5 49.7 56.6 49.7 56.8C49.7 57 49.6 57.2 49.5 57.3C49.4 57.3 49.4 57.4 49.4 57.5C49.5 57.6 49.5 57.7 49.4 57.7C49.3 57.7 49.1 57.8 49 57.9C48.9 58 48.8 58.1 48.8 58.2C48.9 58.5 48.9 58.6 48.8 58.6L48.7 58.8L48.5 58.9C48.4 58.9 48.4 58.9 48.4 59C48.4 59 48.4 59.1 48.5 59.1C48.6 59.3 48.5 59.4 48.4 59.5L48.1 59.7L48 59.9C47.9 59.9 47.9 60 47.8 60.1C47.7 60.2 47.7 60.3 47.7 60.4C47.8 60.5 47.8 60.5 47.7 60.6L47.6 60.8C47.6 60.9 47.6 61 47.5 61C47.4 61 47.3 61.1 47.4 61.2C47.4 61.3 47.4 61.4 47.3 61.4C47.2 61.4 47.2 61.4 47.1 61.5C47.1 61.6 47.1 61.6 47.2 61.7C47.3 61.7 47.2 61.8 47.1 61.9C47 61.9 46.9 62 46.9 62.1L46.6 62.2C46.5 62.2 46.5 62.2 46.5 62.3C46.5 62.3 46.5 62.4 46.6 62.5C46.7 62.5 46.7 62.6 46.7 62.7C46.7 62.8 46.6 62.9 46.5 62.9C46.4 62.9 46.4 62.9 46.4 63C46.4 63.1 46.3 63.2 46.2 63.3C46.1 63.4 46.1 63.5 46 63.6C46 63.7 46 63.8 46.1 63.8C46.2 63.8 46.2 63.9 45.9 64.2L45.5 64.8C45.4 65.1 45.3 65.2 45.2 65H45.1C45 64.9 45 65 45.1 65C45.2 65.1 45.2 65.2 45.1 65.2C45 65.1 45 65.1 44.9 65.2C44.9 65.3 44.8 65.4 44.8 65.5C44.8 65.7 44.8 65.8 44.7 65.8C44.6 65.7 44.6 65.7 44.5 65.7C44.5 65.7 44.5 65.8 44.6 65.9C44.6 66 44.5 66.1 44.4 66.2L44.2 66.4L44.4 66.5C44.6 66.6 44.6 66.7 44.3 66.8C44 66.8 43.9 66.9 44 67.1C44.1 67.2 44.1 67.3 44 67.4C43.9 67.5 43.8 67.6 43.8 67.7L43.6 68L43.4 68.2C43.4 68.4 43.3 68.5 43.2 68.5C43.1 68.5 43.1 68.6 43.1 68.7C43.1 68.8 43 68.8 42.9 68.8C42.8 68.7 42.8 68.7 42.7 68.7C42.7 68.7 42.6 68.8 42.6 68.9C42.6 69 42.6 69.1 42.7 69.2C42.7 69.3 42.7 69.3 42.6 69.4C42.5 69.4 42.5 69.4 42.5 69.5C42.5 69.6 42.6 69.6 42.7 69.6C42.8 69.5 42.8 69.5 42.9 69.6C42.9 69.7 42.9 69.7 42.8 69.7V70V70.2C42.7 70.3 42.6 70.4 42.6 70.5L42.5 70.7C42.3 70.7 42.2 70.8 42.2 70.9C42.2 71 42.1 71.1 41.9 71.1C41.8 71.1 41.7 71.2 41.7 71.3L41.5 71.5C41.4 71.5 41.3 71.5 41.2 71.6C41.1 71.7 41 71.8 40.8 71.9C40.6 72 40.4 72 40.3 71.9C40.2 71.8 40 71.7 39.9 71.5C39.8 71.3 39.7 71.2 39.6 71.1V70.8C39.5 70.7 39.5 70.6 39.6 70.6L39.5 70.4L39.4 69.9C39.4 69.7 39.4 69.6 39.3 69.6L39.4 69.4C39.5 69.3 39.6 69.2 39.7 69.2C40 69.2 40 69.1 39.9 69L40 68.8C40.1 68.8 40.1 68.7 40.1 68.6C40.1 68.4 40.1 68.3 40.2 68.2C40.3 68.1 40.3 68.1 40.2 68C40.1 67.9 40.1 67.7 40.2 67.6C40.2 67.5 40.2 67.5 40.3 67.4C40.4 67.4 40.4 67.4 40.4 67.5L40.6 67.4C40.6 67.3 40.5 67.3 40.4 67.3L40.5 67.1L40.7 66.8H40.9C41 66.7 41 66.6 41 66.5L41.2 66.3C41.3 66.3 41.3 66.2 41.3 66.1L41.6 65.3L42.1 64.3L42.4 63.7C42.5 63.7 42.5 63.7 42.6 63.6C42.6 63.6 42.6 63.5 42.5 63.4L42.7 62.9L43 62.4L43.2 61.9L43.5 61.4L43.9 60.6C44 60.4 44.2 60.2 44.3 60C44.4 59.8 44.5 59.7 44.5 59.6C44.5 59.5 44.6 59.3 44.8 59.1L45 58.6L45.2 58.5C45.3 58.5 45.3 58.4 45.3 58.3C45.3 58.2 45.4 58.1 45.5 58.1L45.6 57.8C45.5 57.7 45.5 57.7 45.6 57.6H45.8C45.8 57.5 45.8 57.5 45.9 57.5C46 57.5 46 57.5 46 57.4V57.1C46 57 46.1 56.9 46.2 56.9C46.3 56.8 46.3 56.8 46.3 56.7C46.3 56.7 46.3 56.6 46.2 56.6C46.2 56.5 46.2 56.5 46.3 56.5L46.6 56.1C46.7 55.9 46.7 55.8 46.6 55.8C46.5 55.7 46.5 55.7 46.6 55.6L47 54.9C47.2 54.5 47.3 54.3 47.4 54.3C47.5 54.2 47.6 54.2 47.5 54.1C47.4 54 47.4 53.9 47.5 53.8C47.6 53.7 47.7 53.6 47.8 53.6C48.1 53.6 48.1 53.5 47.9 53.3C47.8 53.2 47.8 53.1 47.9 53L48.6 51.4H48.3L47.2 51.5C46.6 51.5 46.2 51.5 46.2 51.6C45.2 51.6 44.7 51.6 44.6 51.5H44.4C44.2 51.6 43.9 51.6 43.6 51.7C43.3 51.8 42.9 51.8 42.6 51.7C42.2 51.7 41.9 51.7 41.8 51.8C41.5 51.9 41.2 52 40.8 52L40 51.7L39.8 51.6C39.7 51.6 39.7 51.7 39.8 51.8C39.9 51.8 39.9 51.8 39.9 51.9C39.7 51.9 39.5 51.8 39.4 51.7C39.3 51.6 39.2 51.6 39 51.8C38.9 51.9 38.8 51.9 38.7 51.9L38.4 52C38.3 52.1 38.3 52.1 38.3 52C38.4 51.9 38.4 51.9 38.3 51.8L37.7 52.1C37.7 52.2 37.6 52.2 37.5 52.1H36.4L35.7 52.2C35 52.3 34.6 52.4 34.6 52.5C34.4 52.6 34.2 52.6 34.1 52.6C33.7 52.6 33.5 52.6 33.5 52.7C33.5 52.8 33.4 52.8 33.2 52.7C33.1 52.7 33 52.7 33 52.8C33 52.9 32.9 53 32.7 53C32.4 53 32.1 53 32.1 53.1L31.8 53.2C31.7 53.2 31.6 53.2 31.5 53.3C31.1 53.5 30.7 53.6 30.3 53.6C29.9 53.6 29.6 53.7 29.4 53.8C29.2 54 29 54.1 28.9 54.1C28.8 54.1 28.7 54.1 28.7 54.2H28.3C28.1 54.1 28 54.2 28 54.3C28 54.4 27.8 54.5 27.5 54.5L26.9 54.6C26.9 54.5 26.8 54.6 26.7 54.7C26.6 54.8 26.5 54.8 26.3 54.9C26.1 55 26 55 25.8 54.9C25.7 54.8 25.6 54.8 25.5 54.8C25.4 54.8 25.3 54.9 25.2 55C25.1 55.1 25 55.1 24.8 55.1C24.6 55 24.4 55 24.3 55.1H24.1C24.1 55 24 55.1 23.8 55.2L23.2 55.3H22.9L22.1 55.4H21.3L21.1 55.1C21 55 20.9 55 20.8 54.9C20.7 55 20.6 55 20.5 54.9L20.3 54.7L20.1 54.6L19.9 54.2C19.8 53.9 19.6 53.4 19.4 52.9C19.2 52.4 19.1 51.9 19 51.5C19.1 50.9 19.7 50.1 20.8 48.9C21.2 48.5 21.4 48.2 21.4 48.1C21.4 48 21.4 47.9 21.5 48C21.5 48.1 21.6 48.3 21.7 48.5C21.8 48.6 21.8 48.7 21.9 48.8C21.9 48.9 22 49.1 22.1 49.2C22.4 49.7 22.5 50.1 22.4 50.3C22.3 50.4 22.3 50.4 22.3 50.5C22.3 50.6 22.3 50.6 22.4 50.6C22.4 50.7 22.5 50.7 22.7 50.8C22.9 50.8 23.1 50.8 23.5 50.7C24.3 50.7 25.2 50.6 26.2 50.4L27.5 50.3L28.7 50.1L31.9 49.8L33.6 49.6C34.6 49.5 35.3 49.4 35.7 49.5C36.5 49.5 37.1 49.4 37.7 49.3L38.3 49.2C38.8 49.2 39.2 49.2 39.6 49.1H40.3C40.3 49.2 40.3 49.2 40.4 49.2C40.5 49.1 40.6 49.1 40.9 49.1C41 49.2 41 49.2 41 49.1H41.3C41.6 49.2 41.7 49.2 41.6 49.1C41.5 49 41.6 49 41.9 49L42.3 48.9C42.4 49 42.4 49 42.5 48.9C42.6 48.8 42.8 48.8 42.9 48.9C43 49 43.1 49 43.1 48.9C43.2 48.8 43.4 48.8 43.7 48.8C43.9 48.8 44.1 48.8 44.3 48.9C44.3 49 44.3 49 44.4 49C44.5 49 44.5 49 44.6 48.9C44.6 48.8 44.7 48.8 44.8 48.7C44.9 48.7 45 48.7 45.1 48.8C45.1 48.9 45.1 48.9 45.2 48.9C45.3 48.8 45.5 48.8 46 48.7C46.2 48.7 46.3 48.7 46.2 48.8C46.2 48.9 46.3 49 46.4 49C46.6 49 46.6 48.9 46.5 48.8C46.4 48.7 46.5 48.7 46.7 48.7C46.9 48.7 47 48.7 47.1 48.8H47.2C47.3 48.7 47.4 48.7 47.6 48.6C47.8 48.5 48 48.5 48.1 48.5H48.4L48.1 48.6L47.9 48.8L48.1 48.9C48.2 49.1 48.3 49.1 48.4 49C48.7 49 48.7 48.9 48.6 48.8C48.6 48.7 48.6 48.7 48.7 48.7L48.9 48.6C49.3 48.6 49.7 48.6 49.9 48.5H50.8L50.9 48.2L51.1 47.8C51.1 47.7 51.1 47.6 51.2 47.6C51.3 47.5 51.3 47.5 51.2 47.4C51.2 47.2 51.4 46.7 51.7 46.1C52.3 44.9 52.6 44.2 52.6 44L52.8 43.7L53.2 43.1L53.8 41.8L54.5 40.6C54.5 40.5 54.5 40.4 54.6 40.3C54.7 40.2 54.7 40.2 54.7 40.1C54.8 40 54.9 39.9 55 39.7C55.1 39.5 55.2 39.3 55.2 39.2C55.2 39.1 55.2 39.1 55.3 39.1L55.5 38.6C55.6 38.3 55.6 38.1 55.7 38.1C55.9 38.1 56 37.9 56.1 37.5C56.4 36.9 56.5 36.5 56.5 36.2L56.8 35.8C57 35.6 57.4 35 57.8 33.9C58 33.6 58 33.4 57.8 33.4C57.7 33.4 57.7 33.4 57.7 33.3C57.7 33.3 57.8 33.2 57.9 33.1L58.3 32.6L59 31.2C59.1 31.1 59.2 30.8 59.2 30.5C59.1 30.5 59.1 30.5 59.1 30.6L59 30.7C58.9 30.7 58.9 30.7 58.9 30.6C58.9 30.5 59 30.5 59.1 30.4L59.3 30C59.3 29.8 59.4 29.6 59.6 29.3C59.8 29 59.9 28.8 60 28.8C60.1 28.8 60.2 28.7 60.3 28.4L60.5 27.9L60.6 27.7C60.7 27.6 60.7 27.6 60.7 27.5C60.7 27.4 60.7 27.4 60.6 27.4C60.5 27.5 60.5 27.5 60.5 27.5C60.5 27.5 60.5 27.4 60.6 27.3C60.7 27.3 60.7 27.2 60.8 27.1C60.8 27 60.8 26.9 60.9 26.9L61.2 26.6C61.4 26.3 61.4 26.2 61.2 26.3C61.1 26.3 61.1 26.2 61.2 26.1C61.3 26 61.4 25.9 61.5 25.9C61.6 25.8 61.8 25.6 61.9 25.3C62 25.1 62.1 24.9 62.2 24.7C62.1 24.6 62.2 24.4 62.5 24.3C62.6 24.2 62.6 24.1 62.7 24C62.8 23.9 62.8 23.8 62.8 23.7L62.9 23.5C63 23.4 63 23.3 62.9 23.3C62.8 23.3 62.8 23.4 62.7 23.5L62.5 23.7C62.4 23.7 62.4 23.6 62.7 23.3C63 23.2 63.1 23 63.1 22.9L63.4 22.5C63.5 22.4 63.6 22.2 63.6 21.9C63.7 21.8 63.7 21.7 63.7 21.6L63.9 21.4L64 21.1L64.2 20.9C64.1 20.8 64.1 20.8 64.1 20.7C64.1 20.7 64.2 20.6 64.3 20.6C64.4 20.6 64.4 20.6 64.4 20.5L64.5 20.3C64.6 20.3 64.7 20.1 64.8 19.8C64.9 19.7 65 19.5 65.1 19.4C65.1 19.3 65.2 19.2 65.3 19.1C65.4 19 65.4 18.9 65.4 18.8C65.4 18.7 65.5 18.6 65.6 18.5L65.8 18.2L65.9 17.8C66 17.7 66 17.7 66.1 17.6C66.1 17.5 66.2 17.3 66.3 17.2C66.4 17.1 66.5 17 66.6 17C66.6 16.9 66.6 16.9 66.7 16.9C66.7 16.8 66.8 16.7 66.9 16.6C67 16.5 67.1 16.4 67.2 16.3L67.3 15.9C67.3 15.8 67.4 15.6 67.6 15.4L68 14.6C68.4 13.7 68.7 13.2 68.9 13V12.9C68.9 12.8 69 12.7 69.1 12.6C69.2 12.6 69.2 12.5 69.2 12.4C69.2 12.2 69.3 12 69.5 11.7L69.8 11L70.3 10.1C70.8 9.1 71.1 8.5 71.2 8.1C71.3 7.8 71.4 7.3 71.4 6.7C71.4 6.1 71.3 5.7 71.2 5.5C70.9 4.7 70.1 4.2 68.7 3.7C68.5 3.6 68.1 3.4 67.4 3.3C66.7 3.2 66.3 3.1 66.1 3.1C66 3.1 65.9 3.1 65.8 3L64 2.8C63.7 2.8 63.6 2.8 63.5 2.7C63.5 2.6 63.5 2.6 63.4 2.6C63.4 2.6 63.3 2.6 63.3 2.7H62.2H60.1L59 2.6H58.9C58.8 2.6 58.7 2.6 58.5 2.7C58.3 2.7 58.1 2.8 57.8 2.8H53.6H53C52.9 2.9 52 2.9 50.1 2.9C48.2 2.9 47.3 2.8 47.2 2.8H47C46.9 2.9 46.8 2.9 46.7 2.9H44.2C41.7 3 40.5 3 40.5 2.9C40.6 2.9 40.6 2.9 40.6 2.8C40.6 2.7 40.6 2.7 40.5 2.8C40.4 2.8 40.2 2.8 39.9 2.9C39.6 2.9 39 3 38.3 3L36.4 3.1C35.6 3.2 35 3.2 34.5 3.1H33.4C33.2 3.2 32.9 3.2 32.5 3.2C32.3 3.1 32.1 3.1 31.9 3.2C31.8 3.2 31.5 3.2 31 3.3C30.5 3.3 29.5 3.4 28.2 3.4C27.4 3.5 26.7 3.5 25.9 3.5C25.1 3.5 24.5 3.5 23.9 3.6L21.7 3L21.3 3.1L20.4 3.3L19.4 3.4C19.2 3.5 18.5 3.6 17.4 3.8L16.5 4.1L15.7 4.2L15.5 4.3C15.4 4.3 15.3 4.3 15.2 4.4C15.1 4.5 14.9 4.5 14.8 4.6C13.5 4.9 12.2 5.5 10.9 6.3L10.4 6.6C10.3 6.6 10.1 6.7 10 6.8L9.4 7.2C8.8 7.6 8 8.3 6.9 9.3L5.9 10.3C5.5 10.7 5.3 11 5.3 11.1L5.2 11.2L5 11.5C5 11.6 4.9 11.7 4.6 12L4.4 12.3C4.4 12.4 4.3 12.5 4.2 12.6C4 12.9 3.8 13.3 3.5 13.7C3.3 14.2 3.1 14.6 3 14.8C3 15 3 15.2 2.9 15.3C2.8 15.6 2.8 15.7 2.8 15.8L2.7 16L2.6 17.2L2.7 18.5L2.8 19C2.8 19.5 2.8 19.8 2.9 19.9C3 20 3.1 20.2 3.1 20.5L3.6 21.7L4.3 23.6L4.5 23.8C4.8 24.5 5 25 5 25.2L5.2 25.5C5.3 25.5 5.3 25.5 5.3 25.6C5.3 25.7 5.3 25.7 5.4 25.8C5.4 25.9 5.4 26 5.5 26L5.6 26.2C5.7 26.7 5.9 26.9 6 26.9L6.2 27.3L6.6 28.3L7.3 29.6C7.7 30.5 8.1 31.2 8.3 31.6C8.4 31.6 8.4 31.7 8.4 31.8C8.4 31.9 8.4 32 8.5 32.1L8.7 32.4C8.8 32.4 8.9 32.5 8.9 32.6C9 32.8 9 32.9 9.1 33L9.5 33.7C9.5 33.8 9.6 33.9 9.7 34C9.8 34 9.8 34.1 9.8 34.2L10 34.4L10.2 34.6C10.2 34.8 10.4 35.1 10.8 35.5L11.2 36.2C11.2 36.3 11.3 36.5 11.5 36.7L11.7 37L12.3 37.6L13 38.2C13.3 38.4 13.6 38.6 14 38.8C14.4 39 14.8 39.1 15.1 39.2L16.4 39.5C16.9 39.5 17.2 39.6 17.3 39.7L17.6 39.8L17.3 40C16.9 40.1 16.4 40.2 15.9 40.2C15.2 40.2 14.8 40.2 14.8 40.3L15 40.7L14.7 40.8C14.5 40.9 14.1 41 13.6 41C12.8 41 12 40.8 11.1 40.4C10.8 40.3 10.5 40 10.2 39.7C9.9 39.4 9.7 39.2 9.7 39.1L9.4 38.6L8.8 37.8L8.5 37.3C8.4 37.2 8.4 37.1 8.3 37C8.2 36.9 8.2 36.8 8.2 36.7L7.7 36L7.2 35.3L7 35.1C6.9 35 6.7 34.8 6.5 34.5C6.3 34.2 6.2 34 6.1 33.8C6.1 33.7 6.1 33.7 6 33.7V33.5C6 33.4 6 33.3 5.9 33.3C5.8 33.2 5.7 33.1 5.8 33.1C5.8 33 5.7 32.9 5.6 32.8L5 31.6L4.5 30.6L4.3 30.2L4 29.7L3.9 29.5C4 29.4 4 29.3 4 29.2C4 29.1 3.9 29 3.8 28.8C3.8 28.7 3.8 28.7 3.7 28.6C3.7 28.6 3.6 28.6 3.5 28.7L3.3 28.4C3.2 28.3 3.2 28.2 3.1 28.1C3.1 28 3.1 28 3.2 28.1H3.3L3.2 27.9C3.1 27.9 3 27.8 2.9 27.7C2.8 27.5 2.8 27.4 2.9 27.4C3 27.5 3 27.5 3 27.4C3 27.3 3 27.2 2.9 27.2C2.9 27.3 2.9 27.3 2.8 27.3C2.7 27.3 2.7 27.2 2.6 27V26.8C2.7 26.9 2.8 26.8 2.8 26.5C2.6 26.4 2.5 26.4 2.5 26.5C2.5 26.6 2.5 26.6 2.4 26.6C2.4 26.6 2.3 26.6 2.3 26.5C2.2 26.4 2.2 26.4 2.3 26.3C2.4 26.3 2.4 26.3 2.4 26.2C2.4 26.1 2.3 25.8 2.1 25.4C2.1 25 2 24.7 2 24.6L1.9 24.4C1.8 24.3 1.8 24.2 1.7 24.1C1.6 24 1.6 23.9 1.7 23.8C1.8 23.7 1.8 23.7 1.6 23.6C1.5 23.6 1.4 23.5 1.3 23.5L1 23.6C0.9 23.5 1 23.5 1.1 23.5C1.2 23.5 1.2 23.4 1.2 23.2C1.1 22.9 1.1 22.8 1 22.8C0.9 22.8 0.9 22.8 0.9 22.7V22.5C0.8 22.5 0.8 22.6 0.8 22.7C0.8 22.8 0.8 22.8 0.7 22.7C0.6 22.6 0.6 22.6 0.7 22.6C0.8 22.3 0.8 22.2 0.7 22.1C0.6 22 0.6 21.9 0.7 21.8C0.8 21.7 0.8 21.6 0.7 21.6C0.6 21.6 0.6 21.5 0.5 21.3C0.4 21.1 0.4 21 0.5 20.9C0.5 20.8 0.5 20.7 0.4 20.7C0.3 20.6 0.2 20.1 0.1 19.4C0 18.7 0 17.9 0 17.1C0 16.3 0 15.9 0.1 15.9C0.2 15.8 0.2 15.6 0.3 15.4C0.4 15.2 0.4 15 0.3 14.8C0.3 14.7 0.3 14.7 0.4 14.7C0.5 14.7 0.5 14.7 0.5 14.6C0.5 14.5 0.6 14.3 0.7 14C0.8 13.8 0.9 13.6 1 13.4C1 13.3 1 13.3 1 13.4C0.9 13.6 0.9 13.8 1 13.9C1.1 13.8 1.3 13.5 1.4 13.2C1.5 12.9 1.6 12.6 1.7 12.4L2 11.9C2.1 11.7 2.2 11.5 2.3 11.4C2.3 11.3 2.3 11.2 2.1 11.3C2 11.3 1.9 11.3 2 11.2L2.3 10.8C2.4 10.7 2.4 10.7 2.5 10.6C2.5 10.6 2.6 10.6 2.6 10.7C2.6 10.8 2.7 10.7 2.9 10.4C3.2 10.1 3.3 9.9 3.2 9.8C3.2 9.6 3.4 9.4 3.9 9.1L4.2 8.8C4.3 8.5 4.5 8.3 5 7.9C5.4 7.5 5.8 7.2 6.2 7C6.6 6.7 6.9 6.6 7 6.4C7.6 5.9 8.9 5.1 11 4.1C11.7 3.8 12.9 3.4 14.6 2.8L15.8 2.5L16.7 2.3C18.3 1.8 19.5 1.6 20.2 1.6C20.5 1.6 20.6 1.6 20.7 1.5C21 1.4 22.7 1.2 25.8 1.1C27.5 1 29.7 1 32.5 1C33.3 0.9 34.3 0.9 35.3 0.9L37.4 0.8C38 0.7 38.8 0.7 39.7 0.7C39.9 0.6 40.4 0.6 41 0.6L42 0.5L43.9 0.4C45.1 0.4 45.8 0.4 46.1 0.3H49.3C50.2 0.2 51.6 0.2 53.6 0.2L58.1 0C60.7 0 62.4 0.1 63.3 0.2H63.7C64.3 0.2 64.9 0.3 65.4 0.4C65.9 0.5 66.2 0.6 66.4 0.6L67.5 0.8L67.9 1C68 1.1 68.1 1.1 68.3 1.1H68.7L69 1.3C69.2 1.3 69.3 1.3 69.4 1.4C69.5 1.5 69.6 1.5 69.7 1.5C69.9 1.5 70 1.5 70.1 1.6L70.6 1.8L71.2 2.1L71.6 2.3L72 2.5L72.4 2.7C72.6 2.8 72.7 2.9 72.7 3L73 3.2C73.1 3.2 73.3 3.3 73.4 3.4C73.5 3.5 73.6 3.6 73.7 3.8C73.7 3.9 73.8 4 73.9 4L74.1 4.2L74.2 4.4C74.3 4.5 74.5 4.7 74.7 4.9C74.9 5.1 75 5.3 75.1 5.5L75.3 5.7C75.4 5.8 75.4 5.9 75.4 6C75.3 6.2 75.4 6.4 75.6 6.6C75.7 6.9 75.8 7.3 75.8 7.8C75.8 8.4 75.8 8.7 75.7 8.7C75.7 8.9 75.7 9 75.8 9.1L75.7 9.3L75.6 9.5L75.4 11.1V11.4C75.3 11.4 75.3 11.7 75.3 12.2C75.2 12.5 75.2 12.8 75.2 13.2L75 14.2C75 14.8 74.8 16 74.5 17.9L74.3 18.7C74.3 18.9 74.3 19 74.2 19.1V19.6C74.1 19.8 74.1 20.1 74 20.4C74 20.7 73.9 21 73.8 21.2L73.7 21.8C73.7 22.3 73.7 22.5 73.6 22.5C73.6 22.7 73.6 22.9 73.5 23V23.7L73.4 25L73.2 26.1C73.1 26.2 73.1 26.3 73.1 26.6C73.1 27.9 73 29 72.8 29.8L72.7 30.6C72.8 30.7 72.8 30.9 72.7 31.1L72.6 31.3C72.7 31.4 72.7 31.4 72.7 31.5C72.7 31.5 72.6 31.6 72.6 31.7C72.5 31.7 72.5 32 72.5 32.5L72.4 33.3V33.5V33.7C72.3 33.8 72.3 33.9 72.3 34C72.3 34.5 72.3 34.9 72.2 35.1C72.2 35.7 72.1 36 72 36.1C71.9 36.2 71.9 36.2 72 36.3L72.1 36.4C72 36.5 71.9 36.7 72 36.9C72.1 37 72.1 37.1 72.1 37.2C72 37.2 72 37.3 72 37.6C72 37.9 72 38 71.9 38C71.7 38 71.7 38.1 71.8 38.2C71.9 38.3 71.9 38.5 72 38.8C72 39 72 39.3 71.9 39.5L71.8 40.1C71.8 40.3 71.8 40.4 71.7 40.4V40.8C71.8 41 71.8 41.2 71.7 41.4V41.8V41.9C71.7 42.5 71.6 42.8 71.4 42.9C71.2 43.1 71.2 43.2 71.5 43.2C71.6 43.2 71.7 43.3 71.7 43.5L71.6 43.8C71.5 43.9 71.5 44 71.5 44.3C71.6 44.6 71.6 44.7 71.5 44.8C71.4 44.9 71.4 44.9 71.5 45C71.6 45.1 71.6 45.2 71.5 45.3C71.4 45.4 71.4 45.4 71.5 45.4C71.6 45.5 71.6 45.6 71.5 45.7L71.4 46C71.4 46.1 71.4 46.2 71.3 46.2C71.2 46.3 71.2 46.4 71.2 46.5C71.2 46.6 71.2 46.7 71.3 46.8C71.4 46.9 71.5 46.9 71.4 47C71.3 47.1 71.3 47.2 71.4 47.2C71.4 47.3 71.3 47.4 71.2 47.5C70.9 47.8 70.9 48.1 71.1 48.3C71.2 48.3 71.2 48.4 71.2 48.5C71.2 48.6 71.3 48.7 71.4 48.7C71.6 48.8 71.9 48.9 72.3 49C72.7 49.1 73 49.2 73.3 49.2C73.9 49.2 74.2 49.3 74.2 49.4H74.3H74.4C74.7 49.4 75.1 49.5 75.5 49.7C75.9 49.9 76.3 50 76.5 50.2L76.9 50.4C77 50.5 77.2 50.6 77.3 50.9C77.4 51.2 77.5 51.4 77.5 51.6C77.7 52.3 77.8 52.4 77.8 52.4ZM39.4 51.1C39.4 51.1 39.4 51.1 39.4 51L39.3 50.9C39.2 50.9 39.2 50.9 39.2 51C39.2 51.1 39.2 51.1 39.3 51.1C39.4 51.1 39.4 51.1 39.4 51.1ZM41.7 49.2H41.5H41.3C41.3 49.3 41.4 49.3 41.5 49.3C41.6 49.3 41.7 49.3 41.7 49.2ZM42.4 62.6L42.6 62.2L42.8 62.1C42.8 62.2 42.8 62.3 42.7 62.4C42.6 62.5 42.5 62.7 42.4 62.8C42.3 62.9 42.3 62.8 42.4 62.6ZM42.5 70.3C42.5 70.2 42.6 70.1 42.6 70C42.5 70 42.5 70 42.4 70.1C42.3 70.2 42.3 70.2 42.3 70.3L42.4 70.5C42.5 70.5 42.5 70.5 42.5 70.3ZM43.6 49.2H43.5H43.4C43.3 49.3 43.4 49.3 43.5 49.3C43.6 49.3 43.6 49.3 43.6 49.2ZM44.8 49.2C44.8 49.1 44.8 49.1 44.7 49.1V49.2V49.3L44.8 49.2ZM47.5 51C47.5 50.9 47.5 50.9 47.4 50.9C47.3 50.9 47.3 50.9 47.3 51H47.5ZM47.9 53.8C47.9 53.7 47.9 53.7 47.8 53.7C47.7 53.7 47.7 53.7 47.7 53.8C47.8 53.9 47.8 53.9 47.8 53.8H47.9ZM48.5 50.3C48.5 50.3 48.5 50.3 48.4 50.2H48.3C48.2 50.3 48.2 50.3 48.3 50.4C48.4 50.4 48.4 50.4 48.4 50.3C48.5 50.3 48.5 50.3 48.5 50.3ZM70.1 20.5L69.7 20.8L69.2 21.3L69 21.7C69 21.8 68.9 22 68.7 22.1C68.6 22.2 68.6 22.3 68.5 22.5C68.5 22.6 68.5 22.7 68.4 22.7L68.1 23C68 23.3 67.8 23.6 67.7 23.7C67.6 23.7 67.6 23.8 67.6 23.9C67.5 24 67.4 24.2 67.3 24.4C67.2 24.6 67.1 24.7 67 24.8V24.9C67 25.1 66.8 25.6 66.5 26.2L66.3 26.7C65.9 27.6 65.6 28 65.4 28C65.3 28.1 65.3 28.2 65.3 28.3C65.3 28.4 65.3 28.4 65.2 28.4L65 28.8C65 28.9 64.9 29.1 64.7 29.3L64.4 29.7C64.4 29.8 64.3 29.9 64.2 30C64.1 30 64 30.1 64 30.3L63.5 31.3L63.4 31.5L63.1 32.3L62.7 33C62.7 33.2 62.6 33.3 62.5 33.3C62.4 33.3 62.4 33.3 62.4 33.4C62.5 33.5 62.5 33.6 62.3 33.7C62.2 33.8 62.1 33.9 62.1 34C62 34.1 62 34.2 61.9 34.3C61.8 34.4 61.8 34.4 61.8 34.5C61.8 34.6 61.7 34.7 61.6 34.8C61.5 34.9 61.4 35 61.4 35.1C61.3 35.3 61.3 35.4 61.2 35.4C61.1 35.4 61.1 35.4 61.1 35.5L60.9 35.8C60.8 35.9 60.7 36 60.7 36.1C60.8 36.2 60.7 36.3 60.6 36.4L60.5 36.6L60.4 37C60.2 37.2 60.1 37.4 60.1 37.5C60.1 37.6 60 37.7 59.9 37.7C59.8 37.7 59.8 37.8 59.8 37.9C59.8 38 59.7 38.2 59.6 38.3C59.5 38.4 59.4 38.5 59.4 38.7C59.4 38.9 59.3 39.1 59.2 39.2L58.9 39.7C58.9 39.9 58.8 40 58.7 40C58.6 40.1 58.5 40.2 58.5 40.5C58.6 40.7 58.6 40.8 58.5 40.8C58.4 40.8 58.3 40.8 58.3 40.9L58.2 41.1L58 41.5C58 41.7 57.9 41.8 57.8 41.8C57.7 41.8 57.7 41.8 57.7 41.9C57.7 42.1 57.6 42.3 57.5 42.4C57.4 42.5 57.3 42.6 57.2 42.7C57 43.1 57 43.2 57 43.2C57.1 43.3 57.1 43.4 56.9 43.6L56.6 44.1C56.6 44.2 56.5 44.4 56.3 44.6C56 44.8 56 44.9 56 45V45.1C56 45.3 55.9 45.6 55.6 45.9C55.3 46.2 55.2 46.3 55.2 46.4L55 46.6C54.9 46.6 54.8 46.6 54.8 46.7C54.8 46.8 54.9 46.8 55 46.8C55.1 46.8 55.1 46.9 55.1 47L54.7 47.5L54.5 47.8C54.5 47.9 54.4 47.9 54.3 47.9C54.2 47.9 54.2 48 54.1 48.1C54 48.2 54 48.3 54.1 48.4C54.1 48.5 54.2 48.5 54.3 48.6C54.4 48.6 54.6 48.7 54.9 48.7C55 48.7 55 48.7 55.1 48.8C55.2 48.8 55.2 48.9 55.1 48.9C55 48.9 55 48.9 55 49C55.1 49.1 55.2 49.1 55.5 49.1C55.7 49.1 55.9 49.1 56.1 49H56.4C56.5 49.1 56.7 49.1 56.8 49C56.9 48.9 56.9 48.9 56.7 48.8H56.8C57 48.8 57.1 48.8 57.1 48.9C57.1 49 57.3 49 57.7 49H58.3C58.4 49 58.5 49 58.5 48.9C58.5 48.8 58.4 48.8 58.3 48.8H58.2C58.3 48.7 58.5 48.7 58.8 48.7C59.1 48.8 59.2 48.8 59.1 48.9L58.8 49V49.1C58.8 49.2 59 49.1 59.3 49L59.5 48.9C59.6 48.9 59.6 48.9 59.6 48.8C59.7 48.7 59.8 48.7 59.9 48.7H60.9H61.6C62.1 48.7 62.4 48.8 62.5 48.9H62.3C62.2 48.9 62.1 49 62 49.1L61.9 49H62.1L62.3 48.9L62.8 48.8L63.1 48.7H63C62.9 48.7 62.8 48.7 62.8 48.6C62.9 48.5 63 48.5 63.2 48.5C63.4 48.5 63.5 48.5 63.6 48.6H64.3L65.5 48.7L65.4 48.8C65.3 48.8 65.3 48.8 65.4 48.9L65.6 48.8C65.6 48.7 65.8 48.7 66.2 48.8C66.5 48.8 66.7 48.8 66.7 48.7L67.4 48.8C67.5 48.8 67.7 48.8 67.9 48.9C68.1 48.9 68.2 48.9 68.2 48.8C68.3 48.8 68.3 48.6 68.3 48.1C68.3 47.7 68.3 47.5 68.4 47.5C68.5 47.5 68.5 47.4 68.4 47.3C68.3 47.2 68.3 46.6 68.3 45.5C68.3 45.1 68.4 44.8 68.5 44.7C68.6 44.6 68.6 44.5 68.5 44.3C68.3 44.1 68.3 44 68.4 44C68.5 44 68.6 43.7 68.6 43C68.6 42.6 68.6 42.4 68.5 42.4C68.4 42.5 68.4 42.4 68.4 42.2C68.4 42 68.4 41.9 68.5 41.7C68.6 41.7 68.6 41.7 68.6 41.6C68.5 41.5 68.5 41.3 68.5 41C68.5 40.8 68.5 40.5 68.6 40.3V39.9C68.6 39.2 68.7 38.9 68.8 38.9C68.9 38.9 68.9 38.8 68.8 38.6C68.7 38.3 68.6 38 68.7 37.7C68.7 37 68.7 36.5 68.8 36.3V35.2C68.9 34.8 68.9 34.6 68.8 34.6L68.6 34.4H68.8C68.9 34.4 68.9 34.4 68.9 34.3C68.9 34.1 68.8 34 68.7 34.1C68.6 34.1 68.6 34.1 68.6 34C68.6 34 68.7 33.9 68.8 33.8C68.9 33.5 69 33.1 69 32.5C69.1 32.1 69.1 31.6 69.1 31.2C69.2 31.1 69.2 30.9 69.2 30.4L69.3 29.5C69.4 29.4 69.4 29.2 69.3 29.1V28.8C69.4 28.7 69.4 28.6 69.4 28.5C69.4 28.4 69.4 28.3 69.3 28.3L69.2 28.1C69.2 27.8 69.3 27.5 69.4 27.3C69.5 27 69.6 26.8 69.8 26.7H69.7V26.4C69.7 26.3 69.7 26.2 69.6 26.1C69.6 26 69.5 26.1 69.5 26.2C69.4 26.2 69.4 26.2 69.4 26.1L69.6 25.8C69.7 25.7 69.7 25.5 69.7 25.4C69.7 25.3 69.6 25.3 69.5 25.3L69.6 25.2C69.7 25.1 69.7 25 69.6 25V24.9V24.8C69.7 24.9 69.7 24.8 69.7 24.6C69.6 24.5 69.6 24.4 69.6 24.2C69.6 24 69.7 23.8 69.7 23.7C69.8 23.5 69.8 23.1 69.8 22.6L69.9 21.4L70.1 20.5ZM57 50C57 50 57.1 50 57.1 49.9L57 49.8L56.9 49.9C56.9 50 56.9 50 57 50ZM57.6 50H57.5C57.4 50 57.4 50 57.4 50.1C57.5 50.2 57.6 50.1 57.6 50ZM60.5 48.7H60.4C60.3 48.7 60.2 48.7 60.3 48.8L60.5 48.7ZM61.4 48.7C61.3 48.7 61.2 48.7 61.2 48.8C61.2 48.9 61.3 48.9 61.5 48.8C61.7 48.8 61.8 48.8 61.8 48.7C62 48.6 61.8 48.6 61.4 48.7ZM67.5 49.1C67.5 49.1 67.5 49.1 67.5 49C67.4 48.9 67.3 48.9 67.2 48.9C67.1 48.9 67.1 48.9 67 49C67 49.1 67.1 49.1 67.2 49.1C67.4 49.1 67.5 49.1 67.5 49.1ZM68.1 74C68.1 73.9 68 73.8 67.9 73.9C67.8 73.9 67.8 74.1 67.8 74.4C67.9 74.5 67.9 74.5 68 74.4C68.1 74.3 68.1 74.2 68.1 74ZM67.9 72.4C67.9 72.4 67.9 72.4 67.9 72.5C67.9 72.6 67.9 72.6 68 72.5V72.4H67.9ZM69.5 75.2C69.5 75.1 69.4 75 69.3 75V75.1L69.5 75.2ZM69.4 63.6C69.4 63.6 69.4 63.6 69.5 63.6L69.6 63.4H69.5L69.4 63.5C69.4 63.6 69.4 63.6 69.4 63.6ZM69.6 70.5C69.6 70.5 69.7 70.5 69.7 70.4L69.6 70.2H69.5L69.6 70.4C69.6 70.5 69.6 70.5 69.6 70.5ZM69.5 78C69.5 78 69.5 78.1 69.5 78.2C69.5 78.3 69.5 78.3 69.6 78.3L69.7 78.2L69.6 78C69.5 78 69.5 78 69.5 78ZM70.1 19.5L70 19.8C69.9 19.9 69.8 20.1 69.7 20.3C69.6 20.5 69.6 20.6 69.6 20.7C69.6 20.8 69.6 20.8 69.7 20.8C69.8 20.8 69.8 20.7 69.9 20.6C70 20.3 70.1 20.1 70.1 20V19.5ZM69.7 73.8V73.9C69.7 74.2 69.8 74.2 69.9 74.1C70 74.1 70 74.1 70 74C70 73.9 70 73.9 69.9 73.9L69.7 73.8ZM71.1 48.7C71.1 48.7 71.1 48.7 71.1 48.6L71.2 48.5L71.3 48.6C71.3 48.7 71.3 48.7 71.2 48.7H71.1Z" fill="#FAF7F2"/>
<path d="M79.5996 63.5999C79.5996 63.5999 79.5996 63.1 79.5996 62.2C79.5996 61.2 79.5996 60.4 79.6996 60L80.4996 56.2999C80.5996 56.1999 80.5996 56.2 80.4996 56.2C80.4996 55.9 80.4996 55.6 80.5996 55.4L80.9996 54C80.9996 53.8 80.9996 53.6 81.0996 53.4C81.1996 53.2 81.1996 53.1 81.1996 53C81.2996 53 81.2996 53 81.2996 52.9V52.7999L81.4996 51.2C81.7996 49.5 81.8996 48.2999 81.8996 47.7999C81.8996 47.3999 81.8996 47.1 81.7996 46.9C81.7996 46.7 81.5996 46.6 81.3996 46.5C81.2996 46.4 81.0996 46.3 80.9996 46.2C80.8996 46.1 80.7996 46 80.6996 45.9L80.5996 45.7C80.3996 45.7 80.2996 45.6 80.2996 45.5C80.2996 45.4 80.4996 45.2999 80.6996 45.2999L81.1996 45.2H81.5996C82.3996 45.2 83.1996 45.3 83.9996 45.4C85.6996 45.9 86.3996 46.3 86.2996 46.5C86.2996 46.6 86.2996 46.5999 86.3996 46.5999C86.4996 46.5999 86.5996 46.7 86.5996 46.9C86.7996 47 86.9996 47.2 87.1996 47.5C87.7996 48.2 88.1996 49.0999 88.1996 50.0999L88.3996 51.7C88.3996 52 88.3996 52.1 88.2996 52.2V52.5C88.3996 52.6 88.3996 52.8999 88.3996 53.2999C88.3996 53.6999 88.3996 53.8999 88.2996 54.0999V54.2999L88.0996 56.0999L87.7996 57.9C87.8996 57.9 87.8996 57.9 87.9996 57.7999C88.0996 57.6999 88.0996 57.6 88.1996 57.5C88.5996 57 88.9996 56.6 89.3996 56.2C89.7996 55.8 90.0996 55.6 90.2996 55.4L90.3996 55.2C90.5996 54.9 90.8996 54.5999 91.1996 54.2999C91.4996 53.9999 91.7996 53.7999 91.9996 53.5999C92.0996 53.4999 92.2996 53.4 92.3996 53.2999C92.4996 53.1999 92.5996 53.1 92.6996 52.9C92.7996 52.8 92.8996 52.6 93.0996 52.5C93.2996 52.4 93.3996 52.4 93.4996 52.4C93.5996 52.3 93.6996 52.3 93.7996 52.2C93.9996 52 94.6996 51.9 95.7996 51.9C96.5996 51.9 97.1996 51.9 97.6996 52C98.0996 52 98.4996 52.1 98.6996 52.2C98.6996 52.3 98.7996 52.4 99.0996 52.7C99.1996 52.8 99.2996 52.9 99.3996 53.2C99.4996 53.4 99.6996 53.6999 99.7996 54.0999C100.1 55.7999 100.3 56.9999 100.3 57.5999V61.2999V64.9C100.2 65.1 100.2 65.2999 100.2 65.5C100.2 65.7 100.3 65.8 100.4 65.9L100.7 65.8C100.7 65.6 100.7 65.5 100.8 65.5C100.9 65.5 100.9 65.5 100.9 65.4L101 65.1999C101.1 64.9999 101.2 64.9 101.3 64.8C101.3 64.7 101.3 64.6 101.4 64.5C101.5 64.4 101.5 64.2999 101.5 64.1999L101.9 63.5999L102.2 63.2L102.6 62.5C102.7 62.4 102.9 62 103.2 61.4C103.5 60.8 103.8 60.3 104.2 60C104.3 59.9 104.3 59.8 104.4 59.7C104.5 59.6 104.5 59.5 104.5 59.4C104.9 58.6 105.2 58.2999 105.4 58.2999C105.5 58.2999 105.5 58.3 105.5 58.2C105.4 58.1 105.5 57.8999 105.8 57.5999C106 57.2999 106.3 56.8999 106.7 56.5999C107 56.3999 107.2 56.2 107.2 56C107.2 55.9 107.3 55.7999 107.4 55.7999C107.5 55.7999 107.7 55.6 108.1 55.2C108.6 54.7 108.9 54.5 109 54.5C109.1 54.4 109.2 54.3 109.3 54.2L110 54C110.3 53.7 110.5 53.5999 110.7 53.5999L111.1 53.5C111.4 53.3 112.1 53.2 113.1 53.2C113.7 53.2 114.3 53.3 114.9 53.4C115.5 53.5 115.7 53.5999 115.7 53.7999C115.8 53.9 115.8 53.9999 115.8 54.0999C115.9 54.1999 116.1 54.3999 116.2 54.5999C116.3 54.7999 116.4 54.9 116.4 55L116.5 55.2C116.5 55.3 116.5 55.4 116.6 55.5C116.6 55.6 116.6 55.6 116.5 55.7C116.6 55.8 116.6 55.7999 116.7 55.7999L116.8 56.2V56.7C116.9 56.7 116.9 57.1 116.9 57.9C117 58.4 117 58.8999 117 59.5999L117.1 60.5999C117.2 60.6999 117.3 60.9999 117.3 61.2999C117.3 61.5999 117.3 61.6999 117.4 61.7999L117.5 62.5999V63.2999C117.6 63.4 117.6 63.5 117.6 63.7C117.6 63.9 117.6 64.0999 117.7 64.1999C117.7 64.4999 117.7 64.7 117.8 64.8C117.8 64.9 117.9 64.9999 117.9 65.0999C118.1 65.2999 118.2 65.9999 118.2 67.1999L118.3 68L118.4 68.3C118.4 68.4 118.4 68.4999 118.5 68.5999C118.5 68.6999 118.6 68.7 118.6 68.8L118.8 69.1999L118.9 69.9C119 70.3 119.1 70.7999 119.2 71.1999C119.3 71.6999 119.4 71.9999 119.5 72.1999L119.6 72.9L119.7 73.5999C119.8 73.6999 119.8 73.7999 119.9 74C120 74.2 120 74.3 120 74.4C119.9 74.4 119.9 74.4 119.9 74.5C119.9 74.6 120 74.5999 120 74.6999C120.1 74.7999 120.2 75 120.2 75.3C120.2 75.4 120.3 75.6 120.4 75.9C120.5 76 120.6 76.1 120.7 76.4C120.8 76.7 120.9 76.9999 120.9 77.1999C120.9 77.2999 121 77.4 121.1 77.5C121.3 77.7 121.4 77.8 121.4 77.9L121.5 78.4L121.6 78.5999C121.5 78.6999 121.5 78.7 121.6 78.8C121.9 79.1 122 79.5 122 80L122.1 80.1999C122.2 80.2999 122.3 80.4 122.3 80.5C122.4 80.7999 122.5 80.9 122.6 80.9L122.8 81.1999C122.8 81.4999 122.9 81.7999 123.2 82C123.3 82.0999 123.5 82.2999 123.6 82.5999C123.7 82.6999 124 82.9 124.4 83.3C124.6 83.5 124.7 83.7 124.7 84C124.7 84.2 124.7 84.4 124.8 84.5C125.1 84.7 125.1 84.8999 124.8 85.0999C124.7 85.0999 124.6 85.0999 124.6 85.1999L123.9 85.3C123.6 85.3 123.1 85.2 122.3 84.9C122 84.8 121.6 84.4999 121.2 84.1999C120.8 83.8999 120.6 83.5999 120.6 83.5H120.4C120.3 83.5 119.8 83 118.9 82.0999C118 81.1999 117.5 80.4999 117.4 80.1999C117.2 80.0999 117.1 79.9999 117.1 79.6999C117 79.5999 116.9 79.5 116.8 79.3C116.7 79.1 116.5 78.8999 116.3 78.5999L115.2 76.0999L114.6 74.4L114.4 73.5C114 72.5 113.8 71.7 113.8 71.3C113.8 71.1 113.8 71 113.7 71C113.7 70.7999 113.6 70.4 113.5 69.9C113.4 69.4 113.2 68.7999 113.1 68.0999C112.9 67.4999 112.8 67.1 112.8 66.9C112.4 64.9 112.1 61.5 112.1 56.7C112.1 55.3 112.1 54.5 112 54.5C111.9 54.5 111.5 54.8 110.9 55.5C110.3 56.2 109.8 56.6999 109.6 57.0999C109.5 57.3999 109.3 57.6 109.1 57.7L107.9 59.5C107.8 59.7 107.6 59.8999 107.5 60.0999C107.4 60.2999 107.3 60.3999 107.2 60.5999C107.1 60.6999 107 60.8 107 60.9L106.7 61.2L106.6 61.4C106.6 61.5 106.5 61.7999 106.4 62.0999C106.3 62.3999 106.1 62.7 105.9 63C105.9 63.1 105.8 63.2 105.7 63.5C105.4 63.9 105.3 64.2 105.2 64.4C105.1 64.5 105 64.7 104.9 64.8C104.8 64.9 104.8 64.9999 104.8 65.0999L104.7 65.4C104.6 65.4 104.5 65.4999 104.5 65.6999C104.4 65.7999 104.4 65.9 104.3 66L104 66.4L103.4 67.3C103.3 67.3 103.3 67.4 103.3 67.5L103 67.8L102.6 68.3L102 68.5999C101.9 68.5999 101.7 68.7 101.5 68.8C101.4 68.9 101 69 100.5 69C99.8996 69 99.3996 68.9 99.0996 68.8C98.7996 68.7 98.4996 68.4 98.0996 68C97.7996 67.7 97.5996 67.4 97.3996 67C97.1996 66.6 97.0996 66.2 96.9996 65.8C96.5996 64.6 96.3996 62.2999 96.5996 59C96.5996 56.4 96.5996 54.7999 96.4996 54.2999C96.3996 53.9999 96.2996 53.7 96.1996 53.7C96.0996 53.6 96.0996 53.4999 95.9996 53.5999C95.8996 53.6999 95.7996 53.8 95.5996 53.9L94.9996 54.5L94.2996 55.2C94.1996 55.3 94.0996 55.5 93.8996 55.7C93.6996 55.9 93.5996 56.1 93.4996 56.2C93.1996 56.5 92.8996 56.8999 92.7996 57.0999C92.6996 57.1999 92.5996 57.4 92.2996 57.7C92.1996 57.8 92.1996 57.9 92.0996 58C92.0996 58.1 91.9996 58.1999 91.7996 58.2999C91.7996 58.4 91.6996 58.5 91.5996 58.5L91.0996 59.4C90.9996 59.6 90.7996 59.8 90.6996 59.9C90.5996 60 90.4996 60.1 90.3996 60.2C90.2996 60.2 90.2996 60.1999 90.2996 60.2999C90.2996 60.4 90.2996 60.4999 90.1996 60.5999C90.0996 60.6999 89.9996 60.8 89.8996 61L89.5996 61.5999C89.5996 61.6999 89.5996 61.8 89.4996 61.9C89.3996 62 89.2996 62.1 89.1996 62.2L88.2996 63C88.2996 63.1 88.1996 63.2999 87.8996 63.5999L87.6996 64.3L87.5996 64.5C87.3996 64.5 87.2996 64.7 87.2996 65L86.8996 65.5999C86.8996 65.6999 86.7996 65.8999 86.5996 66.0999L86.3996 66.5C86.0996 66.7999 85.8996 67.1 85.7996 67.3C85.4996 67.7 85.2996 67.9 85.1996 67.9L84.7996 68.0999C84.6996 68.1999 84.5996 68.1999 84.4996 68.1999C84.3996 68.2999 84.2996 68.4 84.2996 68.5C84.0996 68.6 83.8996 68.5999 83.6996 68.5999C83.2996 68.5999 82.8996 68.4999 82.6996 68.1999L82.0996 68C81.8996 68 81.6996 67.9 81.4996 67.8C81.2996 67.7 81.1996 67.5 81.0996 67.4L80.7996 66.8C80.5996 66.5 80.4996 66.1999 80.4996 66.0999L79.9996 65.5L79.6996 64.3C79.6996 63.8 79.5996 63.5999 79.5996 63.5999Z" fill="#FAF7F2"/>
<path d="M142.399 43.8999C142.399 43.8999 142.399 44.0999 142.299 44.3999V45.0999C142.199 45.0999 142.099 45.1999 142.099 45.4999L141.999 45.6999L141.899 45.9999L141.799 46.1999L141.499 46.6999L141.199 47.2999C141.099 47.2999 140.999 47.3999 140.999 47.4999L140.799 47.8999C140.699 47.9999 140.699 48.0999 140.699 48.1999C140.699 48.2999 140.699 48.2999 140.599 48.3999C140.599 48.3999 140.499 48.4999 140.399 48.5999C140.399 48.6999 140.299 48.7999 140.199 48.8999L139.899 49.2999C139.799 49.2999 139.799 49.2999 139.799 49.3999L139.599 49.6999L139.399 49.8999C139.399 49.9999 139.399 50.1999 139.299 50.2999L139.099 50.4999L138.799 51.0999L138.699 51.1999C138.699 51.2999 138.699 51.2999 138.599 51.2999V51.4999C138.599 51.6999 138.599 51.7999 138.499 51.7999C138.399 51.8999 138.299 51.8999 138.299 51.9999C138.199 52.0999 138.099 52.1999 137.999 52.1999C137.799 52.2999 137.799 52.3999 137.899 52.4999C137.999 52.4999 137.999 52.4999 137.999 52.5999C137.999 52.6999 137.999 52.6999 137.899 52.6999V52.9999L137.799 53.1999L137.699 53.2999C137.799 53.2999 137.599 53.4999 137.299 53.7999L136.899 54.2999H136.999L137.199 54.3999C137.199 54.5999 137.099 54.6999 136.999 54.6999C136.899 54.6999 136.899 54.7999 136.899 54.8999L136.799 55.0999C136.699 55.1999 136.599 55.2999 136.599 55.3999C136.699 55.4999 136.699 55.5999 136.599 55.6999L136.499 55.7999C136.499 55.8999 136.499 55.9999 136.399 56.0999V55.9999C136.299 55.9999 136.299 55.9999 136.299 56.0999C136.299 56.1999 136.299 56.1999 136.399 56.1999C136.299 56.1999 136.199 56.3999 136.099 56.6999C136.099 56.9999 135.999 57.1999 135.799 57.1999H135.599C135.499 56.9999 135.399 56.9999 135.199 57.1999H134.999H134.799L133.999 56.9999C133.899 56.8999 133.799 56.6999 133.699 56.4999C133.699 56.2999 133.699 56.1999 133.799 56.0999C133.899 55.9999 133.899 55.7999 133.999 55.6999C133.999 55.5999 133.999 55.4999 133.899 55.3999C133.799 55.3999 133.799 55.2999 133.799 55.1999C133.799 55.0999 133.899 54.9999 133.999 54.9999L134.099 54.7999C134.099 54.6999 134.099 54.4999 134.199 54.1999C134.299 53.8999 134.399 53.6999 134.499 53.4999C134.499 53.3999 134.499 53.3999 134.599 53.3999C134.699 53.3999 134.699 53.4999 134.499 53.6999C134.399 53.7999 134.399 53.7999 134.399 53.8999C134.399 53.9999 134.399 53.9999 134.499 53.9999H134.599L134.499 54.1999V54.2999L134.399 54.4999C134.299 54.5999 134.299 54.6999 134.399 54.7999C134.499 54.8999 134.499 54.9999 134.399 54.9999C134.399 55.0999 134.399 55.0999 134.499 55.1999C134.499 55.1999 134.599 55.1999 134.699 55.0999C134.799 55.0999 134.799 54.9999 134.799 54.7999C134.899 54.6999 134.899 54.4999 134.999 54.3999C134.999 54.2999 135.099 54.1999 135.199 54.0999V53.4999C135.199 53.2999 135.199 53.1999 135.299 53.0999L135.699 52.4999C135.699 52.2999 135.699 52.0999 135.799 51.9999C135.899 51.8999 135.999 51.6999 135.999 51.3999L136.099 51.1999C136.199 51.1999 136.199 51.1999 136.199 51.0999L136.299 50.6999C136.399 50.6999 136.399 50.5999 136.499 50.4999V50.2999C136.599 49.9999 136.599 49.8999 136.499 49.8999V49.9999C136.499 50.0999 136.499 50.0999 136.399 50.0999V49.8999H136.299C136.199 49.8999 136.299 49.5999 136.499 49.0999C136.599 48.9999 136.699 48.7999 136.899 48.3999L136.999 48.0999V47.8999L137.099 47.6999C137.199 47.5999 137.199 47.4999 136.899 47.5999L136.499 47.7999C136.399 47.7999 136.199 47.8999 135.899 47.9999C135.699 48.0999 135.499 48.1999 135.299 48.2999L135.099 48.3999C134.999 48.4999 134.899 48.5999 134.799 48.6999C134.099 49.0999 133.799 49.3999 133.799 49.4999L133.599 49.6999C133.399 49.6999 133.299 49.7999 133.299 49.8999V49.9999C133.099 49.9999 132.999 49.9999 132.999 50.0999C132.899 50.1999 132.799 50.1999 132.699 50.1999L132.399 50.4999C132.299 50.5999 132.099 50.8999 131.699 51.2999C131.399 51.5999 131.099 51.8999 131.099 51.9999C130.999 52.1999 130.899 52.2999 130.699 52.2999C130.699 52.3999 130.599 52.4999 130.499 52.5999L130.399 52.7999L129.999 52.9999C129.799 53.1999 129.699 53.4999 129.699 53.7999C129.599 53.7999 129.599 53.7999 129.599 53.8999C129.599 53.9999 129.599 53.9999 129.499 54.0999C129.399 54.2999 129.199 54.6999 128.999 55.0999C128.799 55.5999 128.699 55.8999 128.599 55.9999V56.2999C128.499 56.3999 128.499 56.5999 128.499 56.8999C128.399 56.9999 128.399 57.0999 128.399 57.1999C128.399 57.2999 128.399 57.3999 128.299 57.4999V57.5999V58.0999C128.199 58.2999 128.199 58.4999 128.299 58.5999V58.7999C128.199 58.8999 128.199 59.0999 128.299 59.1999C128.399 59.2999 128.599 59.3999 128.799 59.4999C128.999 59.6999 129.099 59.7999 129.199 59.7999L130.199 60.0999C130.799 60.3999 131.299 60.8999 131.899 61.3999C132.499 61.9999 132.999 62.5999 133.499 63.1999C133.499 63.2999 133.599 63.3999 133.699 63.4999C133.699 63.5999 133.699 63.6999 133.799 63.7999L133.899 64.1999C134.199 64.7999 134.199 65.3999 134.099 66.2999C133.999 66.7999 133.999 67.0999 133.899 67.0999C133.799 67.1999 133.799 67.2999 133.799 67.3999C133.699 67.4999 133.699 67.5999 133.699 67.6999C133.599 67.6999 133.599 67.6999 133.599 67.7999C133.599 67.8999 133.599 67.9999 133.499 67.9999C133.499 68.0999 133.399 68.2999 133.299 68.3999C133.199 68.4999 133.099 68.5999 133.099 68.7999L132.999 69.1999L132.799 69.5999V69.6999C132.699 69.6999 132.699 69.6999 132.699 69.7999L132.499 70.1999C132.399 70.2999 132.299 70.3999 132.299 70.4999L132.099 70.6999C131.999 70.7999 131.899 70.8999 131.899 70.9999L131.799 71.1999C131.699 71.1999 131.699 71.2999 131.699 71.3999L131.499 71.4999L131.299 71.9999C131.199 72.0999 131.099 72.1999 130.999 72.1999L130.899 72.4999L130.699 72.6999L130.499 72.8999C130.499 72.9999 130.399 73.0999 130.299 73.0999L130.199 73.2999L128.299 75.1999L127.799 75.4999C127.699 75.5999 127.599 75.6999 127.499 75.6999C127.399 75.6999 127.199 75.7999 127.099 75.8999L126.899 75.9999L126.699 76.1999L126.499 76.3999C126.199 76.3999 125.999 76.4999 125.899 76.5999L125.499 76.6999H125.299C125.199 76.7999 125.199 76.7999 125.099 76.7999C124.999 76.7999 124.999 76.7999 124.999 76.8999C124.699 76.9999 124.399 76.9999 124.399 76.8999L123.899 76.9999C123.799 77.0999 123.599 76.9999 123.399 76.8999C123.399 76.7999 123.299 76.7999 123.199 76.6999C123.099 76.6999 122.999 76.6999 122.899 76.5999C122.799 76.4999 122.799 76.4999 122.899 76.3999C122.899 76.2999 122.999 76.1999 123.099 76.1999C123.199 76.1999 123.499 75.9999 124.199 75.6999C124.199 75.4999 124.299 75.3999 124.499 75.3999C124.599 75.3999 124.699 75.2999 124.699 75.1999L124.899 75.0999C124.999 75.0999 125.199 74.8999 125.299 74.5999L125.999 73.8999C126.099 73.6999 126.299 73.4999 126.599 73.1999C126.799 72.9999 126.999 72.6999 127.099 72.4999C127.199 72.3999 127.199 72.3999 127.199 72.2999C127.199 72.1999 127.199 72.1999 127.299 72.1999L127.399 71.9999C127.499 71.7999 127.599 71.6999 127.699 71.6999C127.699 71.5999 128.099 70.7999 128.799 69.2999C128.799 69.1999 128.799 69.0999 128.899 68.9999C128.999 68.9999 128.999 68.8999 128.999 68.7999L129.199 68.3999L129.299 68.1999L129.699 66.7999L130.199 64.8999L130.299 64.1999C130.299 63.8999 130.199 63.4999 129.999 63.0999C129.899 62.7999 129.799 62.4999 129.499 62.1999C129.299 61.8999 129.099 61.6999 128.899 61.6999L128.699 61.5999C128.599 61.4999 128.399 61.2999 128.099 61.1999C127.799 61.0999 127.499 60.9999 127.299 60.8999C126.199 60.5999 125.399 59.9999 124.899 59.2999C124.599 58.8999 124.299 58.3999 124.199 57.8999C124.099 57.5999 124.099 57.0999 124.099 56.5999C124.099 55.5999 124.199 54.6999 124.399 53.8999L124.499 53.3999C124.599 53.2999 124.599 53.1999 124.599 53.0999C124.599 52.9999 124.599 52.8999 124.699 52.7999L124.799 52.3999L124.899 52.1999C124.999 51.9999 124.999 51.7999 125.099 51.6999C125.199 51.5999 125.199 51.3999 125.199 51.2999L126.299 49.0999C127.299 47.8999 127.799 47.2999 127.999 47.2999C128.199 47.1999 128.299 46.9999 128.399 46.8999C128.499 46.7999 128.699 46.6999 128.799 46.5999C128.899 46.4999 128.999 46.4999 128.999 46.3999L129.699 45.9999L129.799 45.8999L130.099 45.5999C130.399 45.3999 130.899 45.1999 131.299 44.8999C131.799 44.6999 132.199 44.4999 132.399 44.3999C132.499 44.3999 132.599 44.3999 132.599 44.2999L135.199 43.7999H136.099C137.299 43.7999 137.999 43.8999 138.199 44.0999C138.499 44.1999 138.599 44.1999 138.699 44.0999L138.999 43.7999V43.5999C139.099 43.4999 139.199 43.2999 139.499 42.9999C139.699 42.7999 139.899 42.5999 140.099 42.4999L140.299 42.3999C140.399 42.2999 140.599 42.2999 140.699 42.4999L140.899 42.5999H140.999C140.999 42.6999 141.099 42.6999 141.199 42.7999C141.299 42.8999 141.499 42.8999 141.599 42.8999C141.699 42.9999 141.899 43.0999 142.199 43.3999C142.299 43.8999 142.399 43.8999 142.399 43.8999ZM134.199 55.6999C134.199 55.6999 134.299 55.6999 134.299 55.5999C134.299 55.4999 134.299 55.4999 134.199 55.4999V55.5999V55.6999C134.099 55.6999 134.099 55.6999 134.199 55.6999ZM135.399 51.4999C135.399 51.4999 135.399 51.5999 135.499 51.6999C135.599 51.6999 135.499 51.8999 135.299 52.1999C135.099 52.4999 134.999 52.7999 134.999 52.9999V53.1999C134.899 53.1999 134.899 53.1999 134.899 53.0999C134.799 52.9999 134.899 52.7999 135.099 52.2999C135.199 51.7999 135.399 51.4999 135.399 51.4999ZM135.599 51.3999C135.599 51.3999 135.499 51.3999 135.399 51.3999C135.399 51.2999 135.399 51.2999 135.499 51.2999C135.499 51.1999 135.499 51.1999 135.599 51.1999C135.599 51.1999 135.699 51.1999 135.699 51.2999C135.599 51.3999 135.599 51.3999 135.599 51.3999ZM135.899 50.8999C135.799 50.9999 135.799 51.0999 135.699 51.0999C135.599 51.0999 135.599 51.0999 135.599 50.9999C135.599 50.8999 135.599 50.8999 135.699 50.7999L135.899 50.4999L135.999 49.9999C136.099 49.9999 136.199 50.0999 136.099 50.2999L135.999 50.5999C135.999 50.6999 135.899 50.7999 135.899 50.8999ZM136.799 49.2999C136.799 49.2999 136.799 49.1999 136.899 48.9999C136.899 48.8999 136.799 48.8999 136.699 48.9999V49.1999C136.699 49.2999 136.599 49.3999 136.499 49.4999C136.399 49.5999 136.399 49.5999 136.399 49.6999C136.399 49.7999 136.399 49.7999 136.499 49.7999C136.599 49.7999 136.699 49.6999 136.699 49.4999C136.799 49.3999 136.799 49.2999 136.799 49.2999Z" fill="#FAF7F2"/>
<path d="M155 22.6001C155.3 22.6001 155.7 22.7001 155.9 22.8001L156.4 22.9001C156.5 22.8001 156.7 22.9001 157.1 23.1001C157.5 23.3001 157.9 23.5001 158.1 23.6001C158.6 24.0001 158.9 24.4001 158.9 24.7001L158.8 24.9001V25.4001C158.9 25.8001 159 26.4001 159 27.1001C159 27.5001 159 27.8001 158.9 27.9001C158.9 28.0001 158.9 28.2001 158.8 28.4001V29.0001L158.7 29.2001C158.6 29.2001 158.6 29.3001 158.6 29.6001C158.6 29.9001 158.5 30.1001 158.3 30.3001L158.1 31.0001L157.6 32.3001C157.4 32.6001 157.5 32.9001 157.8 33.0001H158.9L162.3 33.1001C162.8 33.2001 163.5 33.2001 164.4 33.3001C165.3 33.4001 166.1 33.5001 166.6 33.6001L167.5 33.8001C168.2 34.1001 168.7 34.4001 169.1 34.8001C169.2 35.0001 169.3 35.3001 169.5 35.6001C169.7 35.9001 169.8 36.3001 169.9 36.5001C169.9 36.8001 169.7 36.7001 169.3 36.3001C169.1 36.0001 168.7 35.9001 168.2 35.9001L167 35.7001C166 35.5001 164.8 35.4001 163.6 35.4001L159.4 35.2001L157.7 35.3001H156.5L156.4 35.7001L156.1 36.3001C156.1 36.6001 156 36.8001 155.8 36.9001C155.7 37.0001 155.6 37.1001 155.6 37.4001L155.5 37.5001L155.4 37.7001C155.3 38.1001 155.1 38.5001 154.9 39.0001C154.7 39.4001 154.5 39.7001 154.4 39.9001C154.3 39.9001 154.2 40.1001 154.2 40.4001C154.1 41.1001 153.8 41.5001 153.4 41.7001L153.2 42.1001C153.3 42.1001 153.3 42.1001 153.2 42.2001C153.1 42.4001 153.1 42.6001 153.1 42.7001C153.1 43.2001 153 43.5001 152.8 43.7001C152.7 43.9001 152.7 44.1001 152.7 44.2001L152.5 44.6001C152.4 44.7001 152.4 44.7001 152.4 44.8001C152.4 44.9001 152.3 45.0001 152.2 45.1001L152.1 45.6001C152 45.9001 151.9 46.0001 151.7 46.1001C151.6 46.1001 151.6 46.2001 151.6 46.3001C151.6 46.6001 151.4 46.7001 151.1 46.7001C151 46.7001 151 46.7001 151 46.8001C151 46.9001 151 46.9001 151.1 46.9001C151.2 46.9001 151.2 47.0001 151.3 47.1001C151.3 47.2001 151.3 47.2001 151.2 47.3001C151.1 47.4001 151.1 47.5001 151.1 47.7001C151 48.2001 150.9 48.4001 150.8 48.2001C150.7 48.1001 150.6 48.1001 150.6 48.2001C150.7 48.3001 150.7 48.3001 150.8 48.3001C150.9 48.3001 150.9 48.3001 150.9 48.4001C150.9 48.6001 150.8 48.7001 150.5 48.8001C150.4 48.9001 150.3 49.1001 150.3 49.4001C150.4 49.6001 150.4 49.8001 150.2 50.0001C150.2 50.1001 150.2 50.1001 150.1 50.2001C150.1 50.2001 150.1 50.3001 150.2 50.3001C150.1 50.4001 150.1 50.5001 150 50.6001V50.9001C150 51.0001 150 51.1001 149.9 51.1001L149.7 51.7001L149.4 52.2001V52.4001C149.4 52.6001 149.3 52.8001 149.2 53.1001C149.1 53.4001 149 53.5001 148.9 53.6001V53.9001C149 54.0001 149 54.0001 148.9 54.1001C148.8 54.1001 148.7 54.4001 148.6 55.0001C148.6 55.6001 148.5 55.9001 148.2 55.9001L148.1 56.5001C148.1 56.7001 148.1 56.8001 148 56.9001C147.9 57.1001 147.9 57.3001 147.9 57.4001C147.9 57.5001 147.8 57.8001 147.6 58.2001L147.5 58.7001C147.6 58.7001 147.5 58.8001 147.4 59.0001C147.3 59.1001 147.3 59.2001 147.4 59.2001C147.4 59.4001 147.3 59.5001 147.2 59.5001C147.1 59.6001 147.1 59.7001 147.1 59.8001V60.1001C147 60.2001 147 60.3001 147 60.4001C147 60.8001 146.9 61.3001 146.8 62.0001V62.7001C146.8 62.8001 146.8 62.9001 146.7 63.0001C146.6 63.1001 146.6 63.3001 146.6 63.4001L146.5 64.2001L146.4 65.5001C146.2 67.9001 146.1 69.6001 146.1 70.6001C146.4 71.2001 146.4 71.6001 146.1 71.7001C146.1 71.8001 146 71.8001 145.7 71.7001C145.1 71.6001 144.7 71.1001 144.3 70.3001L144.1 69.6001C143.9 69.4001 143.8 69.2001 143.8 68.9001C143.7 68.8001 143.6 68.4001 143.6 67.8001C143.5 67.2001 143.4 66.8001 143.4 66.4001C143.3 66.2001 143.2 65.7001 143.2 65.0001C143.1 64.7001 143.1 64.1001 143.1 63.2001C143.1 62.7001 143.1 62.0001 143.2 61.0001C143.2 60.0001 143.3 59.6001 143.5 59.6001V60.0001L143.6 59.8001C143.7 59.7001 143.7 59.6001 143.7 59.4001C143.7 59.2001 143.7 59.1001 143.8 58.9001C143.8 58.3001 143.9 57.6001 144.1 56.7001C144.3 55.8001 144.4 55.1001 144.6 54.7001C144.7 54.6001 144.8 54.6001 144.8 54.5001C144.8 54.2001 144.8 53.9001 144.9 53.8001C144.9 53.4001 145 52.8001 145.3 52.1001C145.6 50.2001 146.3 48.1001 147.2 45.7001L148 43.3001C148.9 40.4001 149.4 38.9001 149.7 38.6001L149.8 38.1001C149.9 37.9001 150 37.7001 150.1 37.5001C150.1 37.3001 150.2 37.2001 150.3 37.1001C150.6 36.2001 150.8 35.7001 150.8 35.4001C150.8 35.3001 150.8 35.3001 150.7 35.3001C150.7 35.4001 150.2 35.4001 149.1 35.4001C148.2 35.4001 147.7 35.4001 147.5 35.5001C147.4 35.5001 147.4 35.5001 147.4 35.4001H147.2C147.1 35.5001 146.4 35.5001 145.1 35.5001C144.5 35.6001 143.8 35.7001 143.1 35.7001C142.7 35.8001 142.2 35.8001 141.7 35.8001C141.2 35.8001 140.7 35.8001 140.2 35.9001H138.8C138.7 36.0001 138.3 36.0001 137.6 36.0001C136.7 36.0001 136.2 36.2001 136 36.5001C135.9 36.6001 135.8 36.5001 135.6 36.3001C135.4 36.1001 135.3 35.9001 135.2 35.8001L135.1 35.5001V35.3001L135.2 34.2001C135.2 33.6001 135.2 33.2001 135.3 33.2001C135.7 32.9001 136 32.9001 136.1 33.2001C136.1 33.3001 136.1 33.4001 136.2 33.5001C136.2 33.6001 136.3 33.7001 136.4 33.7001C138.4 33.7001 139.8 33.7001 140.7 33.6001C141.1 33.5001 141.7 33.4001 142.5 33.4001H143.6L147.3 33.2001L149 33.1001C149.1 33.1001 149.2 33.1001 149.2 33.2001C149.3 33.3001 149.3 33.3001 149.4 33.3001C149.5 33.3001 149.5 33.3001 149.5 33.2001C149.5 33.1001 149.7 33.1001 150.2 33.1001C150.6 33.1001 150.9 33.1001 150.9 33.2001C150.9 33.3001 150.9 33.3001 151 33.2001L151.4 33.1001C151.7 33.2001 151.8 33.0001 151.9 32.7001L152.6 31.3001C153.2 29.9001 153.5 29.0001 153.5 28.6001L153.6 28.2001C153.7 28.2001 154 27.4001 154.7 25.8001C154.7 25.5001 154.8 25.3001 154.9 25.2001C154.9 25.1001 154.9 25.1001 155 25.0001C155.1 24.9001 155.1 24.8001 155.1 24.6001C155.2 24.5001 155.2 24.3001 155.2 24.2001C155.2 24.1001 155.1 24.0001 154.9 23.9001C154.8 23.8001 154.8 23.6001 154.8 23.3001C154.8 23.2001 154.8 23.1001 154.9 23.0001C154.9 22.9001 155 22.9001 155 22.8001V22.6001ZM145.1 51.8001L145 51.9001C145 52.0001 145 52.0001 145.1 52.0001C145.2 52.0001 145.3 52.0001 145.3 51.9001L145.1 51.8001ZM146.4 59.2001V59.3001L146.5 59.4001V59.3001C146.5 59.3001 146.5 59.2001 146.4 59.2001ZM150.9 46.9001H151.1V46.7001C150.9 46.7001 150.9 46.8001 150.9 46.9001Z" fill="#FAF7F2"/>
<path d="M169.501 50.6C169.501 50.6 169.501 50.8 169.501 51.2C169.501 51.7 169.501 52.1 169.401 52.3C169.301 53.2 169.201 53.8 169.101 54.1L168.901 54.9C168.901 55 168.801 55.1 168.701 55.4C168.601 55.4 168.601 55.5 168.501 55.7C168.501 55.9 168.501 56 168.401 56.1L168.001 56.8C167.901 57.1 167.801 57.2 167.701 57.2C167.601 57.3 167.501 57.4 167.501 57.5C167.401 57.6 167.301 57.7 167.201 57.8C167.101 57.9 167.001 58.1 166.901 58.3L166.301 58.9C165.801 59.4 165.501 59.6 165.401 59.6C165.201 59.6 165.001 59.7 164.801 60C164.701 60.1 164.501 60.2 164.401 60.2L164.001 60.4C164.001 60.5 163.901 60.5 163.801 60.5C163.701 60.5 163.601 60.6 163.501 60.7C163.401 60.8 163.301 60.9 163.201 60.9H163.101H163.001C162.901 60.9 162.901 60.9 162.801 61L162.401 61.2C162.101 61.3 162.001 61.3 161.901 61.2H161.701C161.701 61.3 161.501 61.4 161.201 61.5C160.901 61.6 160.501 61.6 160.301 61.5C160.001 61.5 159.901 61.6 159.801 61.7L159.601 61.8V61.9C159.601 62.7 159.501 63.1 159.301 63.3L159.101 63.5C159.001 63.5 159.001 63.5 159.001 63.6C159.101 63.7 159.101 63.8 159.101 64C159.101 64.2 159.101 64.3 159.001 64.4H158.901C159.001 64.7 159.001 64.8 158.901 64.8L158.801 65.8C158.801 66.1 158.801 66.4 158.701 66.4L158.601 67L158.501 67.5C158.401 67.6 158.301 67.8 158.301 68.1C158.401 68.4 158.501 68.5 158.601 68.4C158.701 68.3 158.801 68.4 158.701 68.5C158.601 68.6 158.501 68.8 158.501 69.2C158.501 69.7 158.501 70 158.601 70C158.701 70 158.701 70.1 158.701 70.4C158.701 70.7 158.701 70.8 158.801 70.8C158.801 70.9 158.801 71.1 158.901 71.4C159.001 71.6 159.001 71.8 159.001 72L159.101 72.2C159.201 72.3 159.201 72.4 159.201 72.6V72.7C159.301 72.8 159.401 72.9 159.401 73C159.401 73.1 159.401 73.1 159.501 73.2C159.601 73.3 159.601 73.4 159.701 73.5L159.901 73.9C160.001 74 160.101 74.2 160.301 74.4C160.501 74.6 160.701 74.7 160.901 74.9C161.501 75.2 162.001 75.4 162.701 75.4C163.001 75.4 163.101 75.3 163.201 75.2L163.401 74.9L163.701 74.8C163.801 74.7 163.901 74.8 164.001 74.9C164.201 75.1 164.301 75.3 164.201 75.6C163.901 75.9 163.501 76.2 163.301 76.3C163.001 76.3 162.801 76.3 162.601 76.4L161.801 76.6C160.801 76.6 160.101 76.5 159.701 76.4C157.801 75.8 156.901 75.3 156.901 75.1C157.001 75 157.001 75 157.001 74.9C157.001 74.8 156.901 74.7 156.901 74.6C156.301 74 156.001 73.7 155.901 73.5C155.801 73.1 155.701 72.9 155.601 72.9C155.301 72.6 155.001 72.3 155.001 72.2C154.901 71.4 154.801 71 154.801 71.1C154.801 71 154.801 70.9 154.701 70.8C154.701 70.7 154.601 70.7 154.601 70.6C154.501 70.6 154.501 70.5 154.401 70.4C154.401 70.3 154.301 70.2 154.301 70.1C154.301 69.9 154.201 69.8 154.101 69.8V69.5C154.101 69.2 154.001 69 153.901 69C153.801 68.9 153.801 67.9 153.801 66V64.6C153.801 63.7 153.901 62.8 154.001 61.8C154.101 61.2 154.201 60.7 154.301 60.2C154.401 59.7 154.501 59.3 154.501 58.9C154.601 58.2 154.801 57.5 155.101 56.6C155.401 55.8 155.601 55.2 155.801 54.8C156.101 54.2 156.301 53.8 156.501 53.6C156.601 53.1 156.901 52.5 157.201 51.9C157.501 51.2 157.701 50.8 157.801 50.6L158.001 50.3C158.201 49.7 158.601 49 159.101 48C159.401 47.7 159.601 47.4 159.601 47.4C159.801 47.1 160.001 46.9 160.201 46.9C160.501 46.4 160.901 46 161.301 45.7C161.701 45.4 161.901 45.2 162.101 45.1C162.201 45.1 162.201 45 162.201 44.9C162.301 44.8 162.501 44.7 162.801 44.8C163.001 44.9 163.201 45 163.301 45.2C163.301 45.3 163.401 45.4 163.701 45.4C163.901 45.6 164.001 45.6 164.001 45.5C164.101 45.4 164.201 45.4 164.301 45.6C164.401 45.7 164.601 45.8 164.801 45.9C164.801 46 164.801 46.1 164.901 46.2C165.001 46.3 165.001 46.3 165.101 46.2C165.101 46.1 165.101 46 165.201 46C165.201 46 165.301 46 165.301 46.1C165.301 46.2 165.301 46.2 165.401 46.2L166.001 46.5L166.501 46.7L166.801 46.9H167.101C167.201 46.9 167.301 46.9 167.301 47C167.301 47.1 167.301 47.1 167.401 47.1C167.501 47.2 167.701 47.3 167.901 47.4C168.101 47.5 168.201 47.7 168.301 47.8C168.301 47.9 168.401 48 168.601 48C168.701 48.1 168.801 48.2 168.901 48.4C169.001 48.6 169.101 48.7 169.201 48.9L169.301 49C169.401 49.1 169.501 49.3 169.601 49.5C169.701 49.7 169.801 49.9 169.801 50.1V50.3C169.401 50.6 169.501 50.6 169.501 50.6ZM160.101 60.9H160.001H159.901C159.901 61 159.901 61.1 160.001 61.1L160.101 60.9ZM166.901 51C166.901 51 166.901 50.5 166.901 49.6C166.901 49.5 166.901 49.4 166.801 49.3C166.801 49.2 166.701 49.2 166.701 49.1L165.901 49.3C165.901 49.4 165.801 49.5 165.601 49.6C165.001 50.2 164.801 50.5 164.801 50.7C164.801 50.8 164.701 51 164.501 51.2L164.401 51.4L164.001 51.9L163.601 52.3V52.5C163.501 52.5 163.501 52.5 163.501 52.6L163.301 53L163.001 53.3L162.801 53.6C162.701 53.7 162.601 53.8 162.601 54C162.601 54.3 162.501 54.6 162.201 55C162.101 55.1 162.001 55.3 161.901 55.6C161.801 55.9 161.701 56.2 161.601 56.2L161.501 56.6L161.301 57C161.301 57.1 161.301 57.3 161.201 57.4C161.101 57.5 161.101 57.6 161.101 57.7L160.901 57.9L160.701 58.5L160.401 59.4C160.401 59.7 160.301 59.8 160.201 59.8C160.101 60 160.201 60.1 160.301 60C160.401 60 160.401 60 160.301 60.1C160.201 60.2 160.201 60.3 160.301 60.3C160.501 60.3 160.601 60.2 160.501 60C160.501 59.9 160.601 59.7 160.801 59.6C161.001 59.5 161.201 59.4 161.301 59.4L161.501 59.3C161.601 59.2 161.701 59.2 161.801 59.1L162.201 58.8C162.201 58.7 162.201 58.7 162.301 58.7C162.401 58.7 162.601 58.6 162.701 58.4C162.801 58.2 162.901 58.1 162.801 58L162.901 57.8L163.301 57.5L163.801 56.8C164.101 56.7 164.301 56.5 164.501 56.1C164.501 55.9 164.601 55.8 164.801 55.7L164.901 55.4C165.001 55.2 165.201 55.1 165.301 55L166.101 53.2C166.101 53 166.201 52.8 166.301 52.6C166.701 51.6 166.901 51 166.901 51ZM162.301 59.1V59L162.101 59.1L162.301 59.2V59.1Z" fill="#FAF7F2"/>
<path d="M202.6 36.8999C202.6 36.8999 202.7 36.9999 202.8 37.0999C204 37.1999 204.6 37.3999 204.8 37.4999L205 37.5999C205.1 37.5999 205.1 37.6999 205.2 37.7999C205.3 37.8999 205.3 38.0999 205.2 38.1999C205.1 38.2999 205.1 38.4999 205.3 38.6999C205.6 39.1999 205.5 39.5999 205.2 39.9999C205.1 40.0999 205.1 40.1999 205.1 40.3999C205.1 40.4999 205 40.7999 204.7 41.0999C204.5 41.3999 204.3 41.6999 204.1 41.8999C203.9 42.0999 203.8 42.1999 203.8 42.2999C203.8 42.3999 203.7 42.5999 203.6 42.6999C203.6 42.7999 203.6 42.7999 203.5 42.8999C203.4 42.8999 203.4 42.9999 203.4 43.0999C203.4 43.1999 203.3 43.2999 203.2 43.3999L202.7 44.3999C202.6 44.7999 202.4 44.9999 202.3 44.9999C202.2 44.9999 202.2 45.0999 202.2 45.2999L202 45.6999C201.9 45.7999 201.8 45.8999 201.8 45.9999L201.6 46.3999C201.5 46.6999 201.4 46.7999 201.5 46.8999C201.5 46.9999 201.5 46.9999 201.4 46.9999C201.3 46.9999 201.3 47.0999 201.3 47.1999C201.4 47.2999 201.4 47.3999 201.2 47.5999C201.1 47.7999 201 47.8999 200.9 47.9999C200.7 47.9999 200.5 47.6999 200.3 47.1999C200.1 46.5999 200 46.0999 200 45.4999C200.3 43.1999 200.5 41.9999 200.6 41.9999L200.7 41.6999L200.9 40.7999L201.1 40.1999C201.1 40.0999 201.1 40.0999 201 40.0999C200.9 40.0999 200.6 40.2999 200.3 40.5999L199.7 41.1999L199.4 41.3999C199.4 41.4999 199.3 41.5999 199 41.6999L198.6 41.9999L197.9 42.5999C197.3 43.1999 197 43.4999 196.9 43.4999L196.5 43.8999C196.4 43.8999 196.3 43.9999 196.2 44.0999C196 44.2999 195.8 44.5999 195.5 44.8999C195.2 45.1999 195 45.3999 194.9 45.4999C194.8 45.5999 194.7 45.6999 194.6 45.7999C194.6 45.8999 194.6 45.9999 194.5 46.0999C194.4 46.1999 194.4 46.2999 194.3 46.3999L193.7 47.0999L192 48.8999L191.7 49.2999L190.9 50.2999C189.8 51.3999 189.2 51.9999 189.2 52.1999L189 52.3999L188.9 52.5999C188.8 52.6999 188.7 52.8999 188.5 53.1999C188.3 53.4999 188.1 53.6999 187.9 53.8999V54.0999L187.5 54.4999C187.3 54.6999 187.2 54.8999 187.2 55.0999L186.9 55.4999C186.6 55.7999 186.4 56.0999 186.2 56.4999C185.9 57.0999 185.8 57.2999 185.7 57.2999C185.6 57.5999 185.4 57.7999 185.3 57.8999C185.1 58.1999 185 58.4999 184.9 58.4999C184.8 58.4999 184.7 58.6999 184.7 58.9999L184.5 59.3999V59.9999C184.5 60.0999 184.4 60.1999 184.3 60.2999L183.3 61.9999C183.2 62.4999 183 62.6999 182.9 62.6999L181.9 64.5999L181.4 65.5999C181.3 65.7999 181.2 65.9999 181.1 66.1999C181 66.3999 180.9 66.5999 180.8 66.7999C180.5 67.3999 180.3 67.6999 180.1 67.8999C180.1 67.9999 180.1 68.0999 180 68.1999C179.9 68.2999 179.9 68.4999 179.9 68.6999C179.8 68.9999 179.7 69.1999 179.5 69.3999L178.8 70.6999C178.8 70.8999 178.7 71.0999 178.5 71.2999L178.3 71.6999C178.2 71.7999 178.1 71.8999 178 72.0999C177.9 72.2999 177.7 72.5999 177.4 72.8999L177 73.2999C176.9 73.3999 176.8 73.4999 176.5 73.5999C176.3 73.6999 176 73.6999 175.7 73.6999L175.3 73.7999C175.2 73.7999 174.9 73.6999 174.5 73.4999C174.2 73.2999 173.8 72.9999 173.5 72.5999C173.4 72.3999 173.2 72.1999 173.1 71.8999C173 71.6999 172.9 71.3999 172.8 71.1999C172.7 70.6999 172.6 69.9999 172.6 68.8999V67.8999C172.6 66.8999 172.6 66.0999 172.7 65.2999C172.8 63.8999 173.1 62.1999 173.6 60.1999C173.8 59.5999 173.9 59.1999 174 58.8999C174.1 58.5999 174.1 58.2999 174.2 58.0999C174.2 57.6999 174.3 57.4999 174.4 57.4999V57.2999C174.4 56.9999 174.4 56.6999 174.5 56.4999L174.7 55.3999L174.8 54.5999L175 53.3999C175 53.0999 175 52.8999 175.1 52.7999C175.2 52.6999 175.2 52.5999 175.2 52.4999L175.3 51.6999L175.2 50.9999L174.6 50.3999C174.3 49.9999 174.1 49.6999 174.1 49.5999C174.1 49.4999 174.2 49.3999 174.5 49.2999C174.6 49.1999 174.9 49.1999 175.3 49.1999C175.9 49.1999 176.4 49.2999 176.6 49.3999L179.1 50.2999C179.4 50.4999 179.9 50.8999 180.4 51.3999C181 51.9999 181.2 52.2999 181.2 52.2999L181.4 52.6999C181.5 52.9999 181.5 53.2999 181.6 53.6999C181.7 54.0999 181.7 54.4999 181.6 54.6999L181.4 55.8999C181.4 56.5999 181.4 56.8999 181.3 56.8999L181.2 57.4999C181.2 57.8999 181.1 58.3999 181 59.0999C180.9 59.6999 180.8 60.1999 180.6 60.6999C180.5 60.8999 180.5 61.0999 180.4 61.3999C180.3 61.6999 180.3 61.7999 180.4 61.7999L180.7 61.3999C180.7 61.0999 180.8 60.8999 181.1 60.7999L181.3 60.4999L181.5 60.0999C181.6 59.9999 181.7 59.8999 181.7 59.6999C181.8 59.5999 181.9 59.4999 182 59.4999L182.2 59.1999C182.1 59.0999 182.1 58.9999 182.3 58.8999C182.4 58.7999 182.5 58.6999 182.5 58.5999C182.9 57.9999 183.2 57.6999 183.2 57.5999C183.2 57.4999 183.3 57.3999 183.4 57.3999C183.5 57.3999 183.5 57.3999 183.5 57.2999C183.6 57.0999 183.7 56.8999 183.9 56.5999C184.1 56.2999 184.3 55.9999 184.5 55.7999C184.6 55.6999 184.6 55.6999 184.7 55.5999C184.8 55.4999 184.8 55.4999 184.8 55.3999L185 55.0999L185.2 54.7999L185.4 54.3999L187 52.2999C187.2 51.9999 187.4 51.7999 187.5 51.7999L187.6 51.5999C187.7 51.2999 187.8 51.0999 187.9 51.0999L188.5 50.3999L189.1 49.6999L189.3 49.3999C189.3 49.2999 189.4 49.1999 189.5 49.1999C189.5 49.0999 189.7 48.8999 190.2 48.3999L191.3 47.1999L192 46.3999L192.6 45.5999L194.7 43.3999C195 43.0999 195.3 42.8999 195.3 42.8999L195.5 42.4999L195.7 42.3999C195.9 42.2999 196.2 41.9999 196.5 41.6999C196.8 41.3999 197.1 41.1999 197.3 40.9999C197.3 40.8999 197.4 40.7999 197.6 40.6999C197.7 40.5999 197.8 40.4999 197.9 40.3999C197.9 40.2999 198 40.0999 198.2 39.9999C198.4 39.8999 198.5 39.7999 198.7 39.7999C198.8 39.7999 198.9 39.6999 199 39.5999C199.1 39.4999 199.3 39.3999 199.4 39.3999C199.5 39.2999 199.5 39.2999 199.4 39.1999L199.8 38.8999C200.2 38.7999 200.4 38.5999 200.4 38.4999C200.5 38.3999 200.6 38.3999 200.7 38.3999C200.8 38.3999 200.9 38.3999 200.9 38.2999C201.1 38.1999 201.3 37.9999 201.4 37.7999C201.7 37.4999 201.8 37.3999 201.9 37.3999H202.3C202.5 36.9999 202.6 36.8999 202.6 36.8999Z" fill="#FAF7F2"/>
<path d="M232.8 81.0001C232.8 81.0001 232.8 81.0001 232.8 81.1001C232.8 81.2001 232.8 81.2001 232.7 81.2001C232.6 81.2001 232.6 81.2001 232.5 81.3001C232.5 81.4001 232.4 81.5001 232.4 81.7001C232.4 81.9001 232.2 82.0001 231.8 82.1001C231.2 82.2001 230.6 82.3001 229.9 82.3001C229.4 82.3001 229.1 82.3001 228.9 82.2001L228 81.9001H227.5L227.1 81.7001C226.7 81.6001 226.1 81.3001 225.2 80.8001C224.4 80.2001 223.9 79.9001 223.8 79.7001C223.8 79.5001 223.7 79.4001 223.5 79.4001C223 79.2001 222.3 78.5001 221.3 77.2001C221 76.8001 220.9 76.6001 220.8 76.6001L220.6 76.4001L220.5 76.1001C220.3 75.9001 220.2 75.8001 220.2 75.7001C220.2 75.6001 220.2 75.5001 220.1 75.5001C220 75.4001 219.8 75.2001 219.6 74.9001C219.4 74.6001 219.3 74.4001 219.2 74.2001C219.2 74.1001 219.1 74.0001 219 73.9001C218.9 73.9001 218.6 73.5001 218.2 72.6001L218.1 72.3001C218 72.3001 218 72.2001 217.9 72.1001C217.8 72.0001 217.8 71.9001 217.7 71.8001L217.4 70.9001C217.2 70.6001 216.7 69.1001 215.8 66.5001C215.7 66.4001 215.7 66.1001 215.6 65.8001C215.6 65.5001 215.5 65.3001 215.4 65.1001L214.5 59.8001L214.2 58.2001L214.1 56.8001C214.1 56.4001 214 56.0001 213.9 55.8001C213.9 55.2001 213.9 54.7001 213.8 54.4001V53.1001C213.7 53.0001 213.7 52.9001 213.6 52.9001C213.5 52.9001 213.5 53.1001 213.5 53.3001C213.5 53.6001 213.4 53.8001 213.3 53.9001C213.2 54.0001 213 54.2001 212.9 54.5001C212.8 54.8001 212.7 55.0001 212.7 55.1001C212.7 55.4001 212.6 55.7001 212.4 55.9001L212.1 56.7001C212 56.9001 211.9 57.1001 211.9 57.2001L211.6 57.7001C211.6 57.9001 211.6 58.0001 211.5 58.1001C211.3 58.2001 211.2 58.3001 211.2 58.5001L211 59.1001C210.9 59.4001 210.8 59.6001 210.8 59.8001L210.6 60.2001C210.5 60.3001 210.4 60.4001 210.4 60.5001C210.4 60.7001 210.3 60.9001 210.2 61.0001C210.1 61.1001 210 61.3001 209.9 61.7001L209.6 62.5001L209.4 63.0001C209.4 63.1001 209.3 63.1001 209.2 63.1001C208.9 63.8001 208.7 64.2001 208.7 64.4001C208.7 64.6001 208.5 64.9001 208.2 65.2001L208.1 65.6001L208 65.8001L207.8 66.2001C207.7 66.3001 207.7 66.4001 207.7 66.5001L207.5 66.7001C207.4 66.8001 207.3 66.9001 207.2 67.1001C207.1 67.3001 207 67.5001 207 67.7001L206.7 68.0001C206.6 68.1001 206.5 68.2001 206.5 68.3001C206.4 68.5001 206.3 68.7001 206.2 69.0001C206.1 69.2001 205.9 69.5001 205.7 69.7001C205.5 69.9001 205.4 70.1001 205.4 70.2001L204.9 70.9001L204.5 71.4001C204.4 71.5001 204.1 71.7001 203.8 72.0001C203.5 72.3001 203.2 72.6001 202.9 72.8001C202.5 73.0001 202 73.2001 201.5 73.4001C200.9 73.6001 200.5 73.6001 200.2 73.6001C199.3 73.5001 198.6 73.3001 198.1 73.2001C197.8 72.9001 197.5 72.6001 197.1 72.1001C196.7 71.7001 196.4 71.3001 196.4 71.1001L196.2 70.4001L196.1 69.6001C196.1 69.5001 196.1 69.4001 196 69.4001C195.9 69.1001 195.8 68.5001 195.7 67.8001C195.6 67.1001 195.5 66.4001 195.5 65.6001V65.0001L195.8 64.0001C195.9 63.2001 196.1 62.5001 196.2 62.0001L196.6 61.1001L196.9 60.1001C197 59.9001 197.1 59.7001 197.2 59.4001C197.3 59.2001 197.4 58.9001 197.5 58.6001C197.6 58.5001 197.9 58.2001 198.2 57.6001L198.8 56.5001L198.9 56.4001C198.9 56.3001 199 56.1001 199.1 55.9001C199.2 55.7001 199.4 55.6001 199.5 55.6001C199.6 55.6001 199.6 55.6001 199.6 55.5001C199.6 55.4001 199.6 55.2001 199.7 55.1001C199.8 55.0001 199.8 54.9001 199.9 54.8001L200.2 54.6001C200.1 54.5001 200.2 54.3001 200.4 54.1001L200.8 53.6001L202.4 51.7001L202.6 51.4001C202.7 51.3001 202.8 51.1001 203 50.9001C203.2 50.7001 203.4 50.5001 203.6 50.1001L204.4 49.3001L204.7 49.5001L205 49.7001L205.6 49.8001C206.1 50.1001 206.4 50.2001 206.6 50.3001C206.8 50.4001 207 50.4001 207.1 50.5001C207.7 50.6001 208 50.7001 208.2 50.6001C209.1 50.6001 209.6 50.7001 209.9 51.0001C209.9 51.1001 210 51.2001 210.2 51.2001C210.3 51.2001 210.4 51.2001 210.5 51.3001V51.4001C210.6 51.4001 210.8 51.1001 211 50.5001C211.1 50.3001 211.3 50.1001 211.4 50.0001C211.5 49.9001 211.6 49.8001 211.7 49.7001C211.8 49.7001 211.8 49.6001 211.8 49.5001C211.8 49.3001 211.8 49.1001 211.9 49.0001L212.2 48.8001C212.2 48.7001 212.2 48.6001 212.3 48.6001L212.5 48.2001V48.1001L212.7 48.2001C212.9 48.1001 212.9 48.0001 212.8 47.9001C212.8 47.7001 212.8 47.5001 212.9 47.4001C213.1 47.2001 213.2 47.0001 213.2 46.9001C213.2 46.6001 213.2 46.5001 213.3 46.5001L213.4 46.3001C213.4 46.2001 213.5 46.1001 213.6 46.0001C213.7 45.9001 213.7 45.9001 213.6 45.8001C213.6 45.6001 213.6 45.5001 213.7 45.5001L213.8 45.3001C213.7 45.2001 213.7 45.2001 213.7 45.1001C213.7 45.1001 213.8 45.0001 213.8 44.9001C213.9 44.8001 214.1 44.0001 214.3 42.7001L214.7 39.2001L214.8 38.6001C214.8 38.5001 214.9 38.1001 215.1 37.5001L215.4 35.7001V35.3001C215.4 35.2001 215.4 35.2001 215.5 35.1001C215.5 35.1001 215.5 35.0001 215.4 34.9001L215.5 34.7001L215.6 34.4001C215.6 33.9001 215.7 33.2001 216 32.2001L216.2 31.4001C216.3 31.3001 216.3 31.1001 216.3 30.8001C216.3 30.6001 216.5 29.7001 216.9 28.1001L217.3 26.7001L217.6 25.9001C217.6 25.7001 217.6 25.6001 217.7 25.6001L217.8 25.4001C217.8 25.3001 217.8 25.2001 217.9 25.2001L218 24.8001C218 24.6001 218.1 24.5001 218.2 24.5001C218.3 24.2001 218.4 23.8001 218.5 23.5001C218.6 23.2001 218.7 23.0001 218.8 22.8001L219.1 22.5001C219.4 22.2001 219.5 22.0001 219.5 21.8001C219.5 21.7001 219.6 21.6001 219.8 21.6001C220 21.6001 220.1 21.6001 220.1 21.7001H220.3C220.4 21.7001 220.5 21.7001 220.7 21.7001C220.9 21.7001 221 21.7001 221.1 21.8001L221.8 21.9001C222.1 21.9001 222.5 22.0001 222.9 22.1001L223.5 22.2001V22.6001C223.5 22.9001 223.5 23.0001 223.6 23.1001C223.7 23.2001 223.7 23.4001 223.7 23.7001C223.6 24.9001 223.4 25.6001 223.3 26.0001C223.2 26.1001 223.2 26.3001 223.2 26.7001L223 27.3001C222.9 27.4001 222.8 27.5001 222.8 27.6001C222.8 27.9001 222.8 28.0001 222.7 28.1001C222.6 28.3001 222.5 28.5001 222.4 28.7001C222.4 28.9001 222.3 29.0001 222.2 29.1001L221.9 29.5001C221.8 29.6001 221.8 29.7001 221.8 29.8001V30.2001L221.7 30.6001L221.2 31.8001C221.1 31.9001 221.1 32.2001 221 32.7001C220.9 32.8001 220.9 33.0001 220.9 33.1001C220.9 33.2001 220.9 33.3001 220.9 33.4001L220.6 34.3001L220.3 36.7001C220 37.7001 219.8 38.5001 219.8 39.1001C219.7 39.2001 219.7 39.4001 219.7 39.6001C219.7 39.8001 219.7 40.0001 219.6 40.1001L219.5 40.7001C219.4 41.4001 219.3 41.9001 219.2 42.1001C219.2 42.2001 219.2 42.3001 219.1 42.4001C219.1 42.5001 219.1 42.6001 219.2 42.7001L219.1 43.8001L219 44.6001V45.0001C218.9 45.0001 218.9 45.3001 218.9 45.9001L218.7 47.8001L218.6 49.2001V49.8001C218.5 49.8001 218.5 50.2001 218.5 51.0001C218.6 51.4001 218.6 51.9001 218.6 52.3001L218.5 54.0001C218.5 55.0001 218.5 55.6001 218.6 55.9001C218.7 56.3001 218.7 56.6001 218.6 56.6001C218.6 56.7001 218.6 56.7001 218.6 56.8001C218.6 56.9001 218.6 57.0001 218.7 57.1001L218.8 58.2001L218.9 59.4001C219 59.7001 219 59.9001 218.9 59.9001C218.9 60.0001 218.9 60.1001 219 60.1001L219.1 61.0001V62.1001C219.2 62.3001 219.3 62.5001 219.2 62.8001C219.2 63.0001 219.2 63.1001 219.3 63.2001L219.6 64.0001C219.7 64.6001 219.7 64.8001 219.6 64.8001C219.5 64.9001 219.5 64.9001 219.4 65.0001C219.4 65.1001 219.4 65.1001 219.5 65.1001C219.6 65.1001 219.7 65.2001 219.8 65.5001L220.1 66.4001C220.3 67.2001 220.4 67.6001 220.4 67.5001L220.6 68.3001C220.7 68.4001 220.7 68.5001 220.6 68.6001L220.5 68.7001C220.7 68.9001 220.8 69.0001 220.8 69.1001L220.9 69.4001L221.1 69.9001C221.1 70.0001 221.2 70.2001 221.4 70.4001L221.6 71.1001C221.6 71.2001 221.7 71.3001 221.8 71.3001L222.3 72.4001C222.3 72.5001 222.4 72.7001 222.7 73.0001L223.1 73.7001L223.3 74.1001L223.9 74.9001C224.2 75.4001 224.5 75.8001 224.7 76.1001L225.4 76.8001L225.7 77.4001H225.8L226.4 77.8001C227.4 78.6001 228.3 79.2001 228.9 79.6001C229.4 79.9001 230.1 80.0001 231.1 80.0001C231.7 80.0001 232 80.1001 232 80.2001C232.7 81.0001 232.8 81.0001 232.8 81.0001ZM210 54.6001C210 54.6001 210 54.5001 209.9 54.4001C209.9 54.3001 209.8 54.2001 209.6 54.1001L208.8 53.9001L208.1 53.7001L207.7 53.9001C207.4 54.1001 207.2 54.3001 207.1 54.5001C206.5 55.4001 206.1 56.1001 206 56.6001C205.9 56.7001 205.8 56.9001 205.5 57.2001L205.3 57.6001C205.3 57.7001 205.2 57.9001 204.9 58.2001C204.6 58.3001 204.5 58.6001 204.5 59.0001L203.9 59.6001C203.7 59.8001 203.6 60.0001 203.6 60.1001C203.6 60.2001 203.5 60.5001 203.3 60.9001L203.2 61.2001C203.2 61.3001 203.1 61.4001 203 61.5001L202.8 61.9001L202.5 62.9001L201.9 64.7001L201.7 65.5001C201.5 65.6001 201.3 66.2001 201.2 67.1001L201 67.7001L200.8 68.0001V69.6001C200.8 69.7001 200.8 69.7001 200.9 69.7001C201.1 69.7001 201.5 69.3001 202 68.6001L204.2 65.5001C204.3 65.4001 204.3 65.3001 204.4 65.2001C204.5 65.1001 204.5 64.9001 204.6 64.8001L206 62.3001L206.9 60.9001L207.2 60.3001L207.3 59.8001C207.4 59.8001 207.5 59.7001 207.6 59.4001C207.7 59.2001 207.8 59.1001 207.9 59.1001C208 59.1001 208 59.1001 207.9 59.0001L208.4 57.7001L208.7 57.1001C208.7 57.0001 208.7 56.9001 208.8 56.8001C208.9 56.7001 209 56.6001 209 56.5001V56.3001L209.1 56.1001C209.3 56.1001 209.4 55.9001 209.4 55.6001C209.4 55.4001 209.4 55.3001 209.5 55.3001L209.6 55.0001L209.7 54.8001C209.8 54.8001 209.9 54.8001 209.8 54.7001H209.9C210 54.6001 210 54.6001 210 54.6001ZM212.2 50.2001C212.2 50.2001 212.2 50.2001 212.2 50.1001C212.1 50.0001 212 50.0001 212 50.2001C212 50.3001 212 50.3001 212.1 50.2001H212.2ZM212.4 49.2001C212.4 49.2001 212.5 49.2001 212.5 49.1001L212.4 49.0001C212.3 49.0001 212.3 49.0001 212.3 49.1001C212.3 49.2001 212.3 49.2001 212.4 49.2001ZM219 62.6001C219 62.6001 219 62.6001 219 62.5001L218.9 62.4001C218.8 62.4001 218.8 62.4001 218.8 62.5001L218.9 62.6001C219 62.6001 219 62.6001 219 62.6001Z" fill="#FAF7F2"/>
<path d="M266 57.2C266 57.2 265.9 57.3 265.7 57.5C265.6 57.6 264.7 58.5 263.1 60C261.5 61.5 260.4 62.7 259.9 63.4C258.8 64.8 258.1 65.5 257.9 65.6C257.8 65.7 257.7 65.9 257.7 66C257.1 66.5 256.8 66.9 256.8 67.1C256.7 67.1 256.5 67.2 256.4 67.3C256.3 67.3 256.3 67.3 256.2 67.4C256.1 67.5 256.1 67.5 256.1 67.6C256 67.8 255.9 68.1 255.6 68.4C255.3 68.7 255.1 68.9 255 68.9C255 69 255 69.1 254.9 69.2C254.8 69.3 254.8 69.4 254.8 69.5C254.7 69.6 254.5 69.8 254.3 70C254.1 70.2 253.9 70.4 253.7 70.5C253.6 70.5 253.5 70.5 253.5 70.6C253.5 70.7 253.1 71.2 252.2 71.9C251.6 72.5 250.9 72.7 250 72.7H249.3C249.3 72.8 249.2 72.8 249.1 72.8C249 72.8 248.8 72.7 248.7 72.7C247.9 72.4 247.5 72.2 247.5 72.1C247.5 72 247.5 71.9 247.4 71.9C247.3 71.8 247.1 71.6 246.9 71.2C246.7 70.8 246.6 70.4 246.5 70C246.3 68.9 246.6 66.4 247.4 62.5C247.4 62.2 247.5 61.9 247.6 61.5C247.7 61.1 247.8 60.7 247.9 60.2C248.2 58.9 248.4 57.8 248.4 56.9C248.4 56.7 248.4 56.6 248.3 56.5C248.3 56.4 248.2 56.4 248 56.4C247.8 56.4 247.6 56.4 247.5 56.5C247.4 56.6 247.3 56.6 247.2 56.7C247.1 56.8 247 56.9 246.9 56.9C246.8 57 246.6 57 246.3 57.1C246.1 57.2 245.8 57.3 245.5 57.5L245 57.9L244.5 58.2C244.4 58.2 244.2 58.3 243.8 58.5C243.7 58.5 243.6 58.5 243.5 58.6C243.4 58.7 243.3 58.7 243.2 58.8L242.8 59C242.7 59.1 242.6 59.1 242.6 59.2C242.5 59.3 242.3 59.4 242 59.6C241.8 59.8 241.6 59.9 241.4 60L241 60.3C240.9 60.4 240.8 60.5 240.7 60.5C240.6 60.5 240.1 60.9 239.4 61.6C239.3 61.7 239.1 61.8 239 61.9C238.9 62 238.7 62.2 238.4 62.3C238.1 62.4 237.8 62.7 237.6 63.1L237 63.4C236.9 63.5 236.8 63.6 236.8 63.7C236.7 63.7 236.6 63.7 236.5 63.8C236.4 63.9 236.3 63.9 236.2 63.9L236.1 64C236 64.2 235.9 64.4 235.6 64.7C235.4 64.9 235.2 65.1 235 65.1V65.3L234 66.1C233.3 66.8 232.8 67.2 232.4 67.4C232 68 231.7 68.2 231.5 68.2C231.4 68.2 231.3 68.2 231.2 68.3C231.1 68.4 231.1 68.4 231.1 68.5C231 68.5 230.8 68.6 230.7 68.9C230.6 68.9 230.5 68.9 230.4 69C230.3 69.1 230.2 69.1 230.2 69.2C230.1 69.2 230 69.2 229.9 69.3C229.8 69.4 229.7 69.5 229.5 69.7C229.2 69.9 228.7 70 228.3 70C227.9 70 227.6 69.9 227.5 69.8L226.5 69.3C226.4 69.2 226.1 69 225.8 68.7C225.5 68.4 225.3 68.1 225.1 67.9V67.2C225.1 66.4 225.2 65.8 225.3 65.3C225.5 65.2 225.6 64.9 225.6 64.5C225.6 64.4 225.6 64.4 225.7 64.3C225.8 64.2 225.8 64.1 225.8 64C225.9 64 226 63.9 226.1 63.7C226.2 63.5 226.3 63.3 226.4 63.2C227.2 61.9 227.8 61.1 228.2 60.7C228.3 60.6 228.4 60.5 228.6 60.2C228.8 60 229 59.8 229.2 59.6C229.7 58.8 230 58.5 230.1 58.5L230.6 58L231.4 57C231.6 56.9 231.8 56.7 231.9 56.6C232 56.5 232.1 56.4 232.2 56.3L232.4 56.1V55.9C232.5 55.8 232.6 55.7 232.7 55.6C232.8 55.5 233 55.4 233.2 55.2C235.3 53.1 237.6 51.5 240.2 50.4C240.5 50.3 240.7 50.3 240.8 50.2C240.9 50.1 241 50.1 241.1 50.1C241.2 50 241.3 50 241.5 50C242.4 50 243 50.1 243.4 50.3C243.6 50.4 243.9 50.5 244.2 50.6C244.5 50.7 244.9 50.8 245.1 50.8C245.2 50.9 245.3 50.9 245.4 50.9C245.6 51.1 245.9 51.3 246.4 51.6C246.8 51.9 247.2 52 247.4 52.1H247.8C247.9 52.2 248 52.2 248.1 52.2C248.4 52.4 248.6 52.8 248.7 53.4V53.9L249.5 54C250.5 54.2 251.3 54.6 251.8 55.2C252.1 55.5 252.3 56.2 252.3 57.2C252.3 57.5 252.2 57.9 252.1 58.3C252 58.7 251.9 59 251.8 59.4C251.8 59.5 251.7 59.8 251.6 60.1C251.5 60.4 251.4 60.7 251.4 61.1C251.4 61.3 251.4 61.5 251.3 61.7C251.2 61.9 251.2 62 251.2 62.1C251.1 62.1 251.1 62.3 251.1 62.7C251.1 62.8 251.1 63 251 63.1C250.9 63.2 250.9 63.3 250.9 63.5C250.9 63.6 250.9 63.6 250.8 63.7C250.7 63.8 250.7 63.9 250.7 64.1L250.6 65.8C250.5 65.9 250.4 66.3 250.4 66.8C250.3 67.8 250.1 68.5 249.8 69L249.7 69.4C249.7 69.5 249.7 69.5 249.8 69.5C250 69.5 250.5 69.1 251.2 68.4C251.5 68.1 252.1 67.4 253 66.5C254.4 64.8 255.2 64 255.3 63.9C255.9 63.5 256.9 62.4 258.5 60.6C258.6 60.5 258.8 60.3 259 60.2C259.2 60.1 259.3 60 259.3 60.1C259.4 60.1 259.4 60 259.4 59.9C259.9 59.3 260.8 58.5 262 57.2C263.3 56 264.4 54.9 265.3 54.1C265.5 54 265.7 53.8 266 53.5C266.2 53.3 266.4 53.1 266.6 53C266.7 52.8 266.9 52.6 267.4 52.3H267.9C268.5 52.3 268.7 52.5 268.7 52.8V52.9C268.7 53.3 268.4 53.8 267.9 54.3C267.2 55.2 266.7 55.7 266.3 56C266.2 56.1 266.1 56.3 266 56.4C265.9 56.5 265.9 56.6 265.8 56.6C265.7 56.6 265.6 56.7 265.5 56.8C266 57.1 266 57.2 266 57.2ZM245.1 55.2C245.1 55.2 245.2 55.1 245.4 55C245.4 54.9 245.3 54.9 245.2 54.8L244.1 55.3H243.8C243.5 55.3 243.2 55.4 243 55.5L242 56C241.5 56.1 241.2 56.3 241 56.6L240 57.3C239.7 57.4 239.4 57.6 239.1 57.9L237.9 59.1C237.8 59.1 237.6 59.2 237.4 59.4C237.2 59.6 237.1 59.7 237 59.8C237.1 59.7 237.2 59.6 237.5 59.5C237.8 59.4 238.1 59.2 238.3 58.9C240.7 57.3 243 56 245 55.1C245 55.2 245.1 55.2 245.1 55.2Z" fill="#FAF7F2"/>
<path d="M264.4 63.6C264.4 63.6 264.4 63.1 264.4 62.2001C264.4 61.2001 264.4 60.4 264.5 60L265.3 56.3C265.4 56.2 265.4 56.2001 265.3 56.2001C265.3 55.9001 265.3 55.6001 265.4 55.4001L265.7 54.1C265.7 53.9 265.7 53.7 265.8 53.5C265.9 53.3 265.9 53.2 265.9 53.1C266 53.1 266 53.1 266 53V52.9001L266.2 51.3C266.5 49.6 266.6 48.4001 266.6 47.9001C266.6 47.5001 266.6 47.2 266.5 47C266.5 46.8 266.3 46.7 266.1 46.6C266 46.5 265.8 46.4 265.7 46.3C265.6 46.2 265.5 46.1 265.4 46L265.3 45.8C265.1 45.8 265 45.7 265 45.6C265 45.5 265.2 45.4001 265.4 45.4001L265.9 45.3H266.3C267.1 45.3 267.9 45.4 268.7 45.5C270.4 46 271.1 46.4 271 46.6C271 46.7 271 46.7001 271.1 46.7001C271.2 46.7001 271.3 46.8 271.3 47C271.5 47.1 271.7 47.3 271.9 47.6C272.5 48.3 272.9 49.2001 272.9 50.2001L273.1 51.8C273.1 52.1 273.1 52.2 273 52.3V52.6C273.1 52.7 273.1 53.0001 273.1 53.4001C273.1 53.8001 273.1 54.0001 273 54.2001V54.4001L272.8 56.2001L272.5 58C272.6 58 272.6 58.0001 272.7 57.9001C272.8 57.8001 272.8 57.7 272.9 57.6C273.3 57.1 273.7 56.7 274.1 56.3C274.5 55.9 274.8 55.7 275 55.5L275.1 55.3C275.3 55 275.6 54.7001 275.9 54.4001C276.2 54.1001 276.5 53.9001 276.7 53.7001C276.8 53.6 277 53.5001 277.1 53.4001C277.2 53.3001 277.3 53.2 277.4 53C277.5 52.9 277.6 52.7 277.8 52.6C278 52.5 278.1 52.5 278.2 52.5C278.3 52.4 278.4 52.4 278.5 52.3C278.7 52.1 279.4 52 280.5 52C281.3 52 281.9 52 282.4 52.1C282.8 52.1 283.2 52.2 283.4 52.3C283.4 52.4 283.5 52.5 283.8 52.8C283.9 52.9 284 53 284.1 53.3C284.2 53.5 284.4 53.8001 284.5 54.2001C284.8 55.9001 285 57.1 285 57.7001V61.4001V65C284.9 65.2001 284.9 65.4 284.9 65.6C284.9 65.8 285 65.9 285.1 66L285.4 65.9001C285.4 65.7001 285.4 65.6 285.5 65.6C285.6 65.6 285.6 65.6 285.6 65.5L285.7 65.3001C285.8 65.1001 285.9 65.0001 286 64.9001C286 64.8001 286 64.7 286.1 64.6C286.2 64.5 286.2 64.4001 286.2 64.3001L286.6 63.7001L286.9 63.3L287.3 62.6C287.4 62.5 287.6 62.1 287.9 61.5C288.2 60.9 288.5 60.4 288.9 60.1C289 60 289 59.9 289.1 59.8C289.2 59.7 289.2 59.6 289.2 59.5C289.6 58.7 289.9 58.4001 290.1 58.4001C290.2 58.4001 290.2 58.4 290.2 58.3C290.1 58.2 290.2 58.0001 290.5 57.7001C290.7 57.4001 291 57.0001 291.4 56.7001C291.7 56.5001 291.9 56.3 291.9 56.1C291.9 56 292 55.9001 292.1 55.9001C292.2 55.9001 292.4 55.7 292.8 55.3C293.3 54.8 293.6 54.6 293.7 54.6C293.8 54.5 293.9 54.4 294 54.3L294.5 53.9001C294.8 53.6001 295 53.5 295.2 53.5L295.6 53.4001C295.9 53.2001 296.6 53.1 297.6 53.1C298.2 53.1 298.8 53.2 299.4 53.3C300 53.4 300.2 53.5001 300.2 53.7001C300.3 53.8001 300.3 53.9 300.3 54C300.4 54.1 300.6 54.3 300.7 54.5C300.8 54.7 300.9 54.8001 300.9 54.9001L301 55.1C301 55.2 301 55.3001 301.1 55.4001C301.1 55.5001 301.1 55.5 301 55.6C301.1 55.7 301.1 55.7001 301.2 55.7001L301.3 56.1V56.6C301.4 56.6 301.4 57 301.4 57.8C301.5 58.3 301.5 58.8 301.5 59.5L301.6 60.5C301.7 60.6 301.8 60.9001 301.8 61.2001C301.8 61.5 301.8 61.6 301.9 61.7001L302 62.5V63.2001C302.1 63.3001 302.1 63.4 302.1 63.6C302.1 63.8 302.1 64 302.2 64.1C302.2 64.4 302.2 64.6 302.3 64.7C302.3 64.8 302.4 64.9 302.4 65C302.6 65.2001 302.7 65.9 302.7 67.1L303 68L303.1 68.3001C303.1 68.4001 303.1 68.5 303.2 68.6C303.2 68.7 303.3 68.7001 303.3 68.8001L303.5 69.2L303.6 69.9001C303.7 70.3001 303.8 70.8 303.9 71.2C304 71.7 304.1 72 304.2 72.2L304.3 72.9001L304.4 73.6C304.5 73.7 304.5 73.8 304.6 74C304.7 74.2001 304.7 74.3001 304.7 74.4001C304.6 74.4001 304.6 74.4 304.6 74.5C304.6 74.6 304.7 74.6 304.7 74.7C304.8 74.8 304.9 75.0001 304.9 75.3001C304.9 75.4001 305 75.6001 305.1 75.9001C305.2 76.0001 305.3 76.1001 305.4 76.4001C305.5 76.7001 305.6 77 305.6 77.2C305.6 77.3 305.7 77.4001 305.8 77.5C306 77.7001 306.1 77.8001 306.1 77.9001L306.2 78.4001L306.3 78.6C306.2 78.7 306.2 78.7001 306.3 78.8001C306.6 79.1001 306.7 79.5 306.7 80L306.8 80.2C306.9 80.3 307 80.4001 307 80.5C307.1 80.8 307.2 80.9001 307.3 80.9001L307.5 81.2C307.5 81.5 307.6 81.8 307.9 82C308 82.1 308.2 82.3 308.3 82.6C308.4 82.7 308.7 82.9001 309.1 83.3001C309.3 83.5001 309.4 83.7001 309.4 84C309.4 84.2001 309.4 84.4001 309.5 84.5C309.8 84.7001 309.8 84.9 309.5 85.1C309.4 85.1 309.3 85.1 309.3 85.2L308.6 85.3001C308.3 85.3001 307.8 85.2001 307 84.9001C306.7 84.8001 306.3 84.5 305.9 84.2C305.5 83.9 305.3 83.6 305.3 83.5H305C304.9 83.5 304.4 83 303.5 82.1C302.6 81.2 302.1 80.5 302 80.2C301.8 80.1 301.7 80 301.7 79.7C301.6 79.6 301.5 79.5001 301.4 79.3001C301.3 79.1001 301.1 78.9 300.9 78.6L299.8 76.1L299.2 74.4001L299 73.5C298.6 72.5 298.4 71.7001 298.4 71.3001C298.4 71.1001 298.4 71 298.3 71C298.3 70.8 298.2 70.4001 298.1 69.9001C298 69.4001 297.8 68.8 297.7 68.1C297.5 67.5 297.4 67.1001 297.4 66.9001C297 64.9001 296.7 61.5 296.7 56.7001C296.7 55.3001 296.7 54.5 296.6 54.5C296.5 54.5 296.1 54.8 295.5 55.5C294.9 56.2 294.4 56.7 294.2 57.1C294.1 57.4 293.9 57.6 293.7 57.7001L292.5 59.5C292.4 59.7 292.2 59.9 292.1 60.1C292 60.3 291.9 60.4 291.8 60.6C291.7 60.7 291.6 60.8001 291.6 60.9001L291.3 61.2001L291.2 61.4001C291.2 61.5001 291.1 61.8 291 62.1C290.9 62.4 290.7 62.7001 290.5 63C290.5 63.1 290.4 63.2001 290.3 63.5C290 63.9 289.9 64.2001 289.8 64.4001C289.7 64.5001 289.6 64.7001 289.5 64.8001C289.4 64.9001 289.4 65 289.4 65.1L289.3 65.4001C289.2 65.4001 289.1 65.5 289.1 65.7C289 65.8 289 65.9 288.9 66L288.6 66.4001L288 67.3001C287.9 67.3001 287.9 67.4 287.9 67.5L287.6 67.8001L287.2 68.3001L286.6 68.6C286.5 68.6 286.3 68.7001 286.1 68.8001C286 68.9001 285.6 69 285.1 69C284.5 69 284 68.9001 283.7 68.8001C283.4 68.7001 283.1 68.4 282.7 68C282.4 67.7001 282.2 67.4 282 67C281.8 66.6 281.7 66.2001 281.6 65.8001C281.2 64.6001 281 62.3 281.2 59C281.2 56.4 281.2 54.8 281.1 54.3C281 54 280.9 53.7001 280.8 53.7001C280.7 53.6 280.7 53.5 280.6 53.6C280.5 53.7 280.4 53.8001 280.2 53.9001L279.6 54.5L278.9 55.2001C278.8 55.3001 278.7 55.5001 278.5 55.7001C278.3 55.9001 278.2 56.1 278.1 56.2001C277.8 56.5001 277.5 56.9 277.4 57.1C277.3 57.2 277.2 57.4001 276.9 57.7001C276.8 57.8001 276.8 57.9 276.7 58C276.7 58.1 276.6 58.2 276.4 58.3C276.4 58.4 276.3 58.5 276.2 58.5L275.7 59.4001C275.6 59.6001 275.4 59.8001 275.3 59.9001C275.2 60.0001 275.1 60.1 275 60.2001C274.9 60.2001 274.9 60.2 274.9 60.3C274.9 60.4 274.9 60.5 274.8 60.6C274.7 60.7 274.6 60.8 274.5 61L274.2 61.6C274.2 61.7 274.2 61.8001 274.1 61.9001C274 62.0001 273.9 62.1 273.8 62.2001L273.6 62.7001C273.6 62.8001 273.5 63 273.2 63.3L273 64L272.9 64.2C272.7 64.2 272.6 64.4 272.6 64.7L272.2 65.3001C272.2 65.4001 272.1 65.6001 271.9 65.8001L271.7 66.2C271.4 66.5 271.2 66.8 271.1 67C270.8 67.4 270.6 67.6 270.5 67.6L270.1 67.8001C270 67.9001 269.9 67.9001 269.8 67.9001C269.7 68.0001 269.6 68.1 269.6 68.2C269.4 68.3 269.2 68.3001 269 68.3001C268.6 68.3001 268.2 68.2001 268 67.9001L267.4 67.7C267.2 67.7 267 67.6 266.8 67.5C266.6 67.4 266.5 67.2 266.4 67.1L266.1 66.5C265.9 66.2001 265.8 65.9001 265.8 65.8001L265.6 65.1L265.3 63.9001C264.4 63.8001 264.4 63.6 264.4 63.6Z" fill="#FAF7F2"/>
</svg>
