<svg width="67" height="71" viewBox="0 0 67 71" fill="none" xmlns="http://www.w3.org/2000/svg">
<path d="M49.225 9.70353C49.1978 9.5751 49.1272 9.45999 49.0251 9.37754C48.6151 7.80754 48.038 5.79653 46.633 5.13653C46.5823 5.11375 46.5276 5.10086 46.472 5.09853C46.445 5.04853 46.4161 4.99853 46.3911 4.94753C46.2111 4.58853 45.7021 4.84753 45.7751 5.20853C45.8751 5.68253 45.989 6.14053 46.116 6.60853C46.1278 6.65082 46.1475 6.69052 46.174 6.72553C46.226 7.16153 46.2571 7.56753 46.2621 7.70953C46.2471 8.66107 46.0782 9.60393 45.7621 10.5015C45.4437 11.6602 45.2338 12.846 45.135 14.0435C45.0483 14.1431 45.0045 14.2728 45.013 14.4045C45.048 15.3045 44.013 16.7385 43.633 17.5675C43.1766 18.5168 42.6315 19.4208 42.005 20.2675C41.109 21.5699 40.3916 22.9865 39.872 24.4795C39.8413 24.493 39.8147 24.5144 39.795 24.5415L39.786 24.5365L39.767 24.5835C39.667 24.8145 39.567 25.0425 39.467 25.2715C39.4322 25.2794 39.4001 25.2964 39.3741 25.3209C39.3481 25.3453 39.329 25.3763 39.319 25.4105C39.23 25.6965 39.135 25.9795 39.036 26.2625C38.775 26.8515 38.514 27.4415 38.264 28.0345C38.2486 28.07 38.2427 28.1088 38.2469 28.1472C38.2512 28.1856 38.2653 28.2223 38.2881 28.2535C37.7414 29.5732 37.2739 30.9242 36.888 32.2995C36.872 32.3405 36.853 32.3785 36.837 32.4195C36.7453 32.6749 36.6924 32.9425 36.6801 33.2135C36.6151 33.5465 36.558 33.8815 36.519 34.2205C36.5192 34.2309 36.5228 34.241 36.5292 34.2492C36.5356 34.2573 36.5445 34.2632 36.5545 34.2659C36.5646 34.2686 36.5752 34.268 36.5849 34.2642C36.5945 34.2603 36.6026 34.2534 36.608 34.2445C36.619 34.2175 36.628 34.1895 36.64 34.1635C36.6753 34.2137 36.721 34.2557 36.774 34.2865C37.019 34.7155 37.674 34.3265 37.442 33.8865C37.4268 33.8597 37.4098 33.834 37.3911 33.8095C37.4343 33.4479 37.5041 33.0899 37.6 32.7385C37.673 32.5305 37.7561 32.3235 37.8391 32.1175C37.8461 32.1035 37.856 32.0945 37.862 32.0785L37.912 31.9385C37.993 31.7475 38.075 31.5585 38.155 31.3695C38.2714 31.3259 38.3689 31.2432 38.431 31.1355C38.665 30.7485 38.902 30.3585 39.148 29.9745C39.366 29.6875 39.5761 29.3935 39.7881 29.0995C39.8769 29.0451 39.9516 28.9704 40.006 28.8815C41.234 26.9495 42.806 25.2905 44.126 23.4295C44.935 22.2935 46.051 21.3615 46.544 20.1025C46.668 20.0508 46.774 19.9639 46.849 19.8525C49.037 16.6685 50.2 13.5515 49.225 9.70353Z" fill="#F79764"/>
<path d="M30.4522 33.9516L30.4452 33.9276C30.1868 32.3474 29.6944 30.8146 28.9842 29.3796C28.9892 29.3448 28.9892 29.3094 28.9842 29.2746C28.8232 28.3252 28.535 27.4019 28.1272 26.5296C28.0897 26.4564 28.0257 26.4002 27.9482 26.3726C27.5744 25.3086 27.1153 24.2766 26.5752 23.2866C25.8624 21.7457 24.9763 20.291 23.9342 18.9506C23.9317 18.9167 23.9257 18.8832 23.9162 18.8506C23.6087 18.094 23.2453 17.3613 22.8292 16.6586C22.3845 15.6469 22.0011 14.6094 21.6812 13.5516C20.8982 11.0186 20.1972 7.91357 20.9432 5.30057C21.0282 5.00657 20.6242 4.74257 20.4122 4.99057C19.9397 5.54622 19.5432 6.1623 19.2332 6.82257C19.1578 6.78455 19.0707 6.77717 18.9899 6.80196C18.9092 6.82675 18.8413 6.88179 18.8002 6.95557C18.4973 7.54151 18.2624 8.16021 18.1002 8.79958C17.9632 9.16158 17.8322 9.52657 17.6912 9.88957C17.66 9.95906 17.6571 10.038 17.6833 10.1096C17.7094 10.1811 17.7625 10.2396 17.8312 10.2726C17.7715 10.8115 17.7411 11.3533 17.7402 11.8956C17.6659 12.6324 17.6659 13.3748 17.7402 14.1116C17.7445 14.1638 17.7611 14.2143 17.7885 14.2589C17.816 14.3036 17.8536 14.3411 17.8982 14.3686C18.1212 16.4526 19.4062 18.1096 20.4602 19.9146C20.9933 20.9188 21.6589 21.8467 22.4392 22.6736C23.2932 23.5176 23.8312 24.5656 24.7192 25.3626C25.1489 26.1401 25.6721 26.8621 26.2772 27.5126C26.8202 28.2506 27.4032 28.9356 27.9432 29.6646C27.9542 29.7056 27.9652 29.7466 27.9762 29.7866C28.03 29.8287 28.0814 29.8737 28.1302 29.9216C28.3605 30.1613 28.5249 30.4565 28.6072 30.7786C28.6716 30.7766 28.7352 30.7638 28.7952 30.7406C28.8202 30.7926 28.8462 30.8406 28.8702 30.8976C29.1282 31.9906 29.4842 33.0566 29.7842 34.1396C29.8842 34.4996 30.5092 34.4446 30.4602 34.0476C30.4632 34.0126 30.4562 33.9806 30.4522 33.9516Z" fill="#F79764"/>
<path d="M49.2539 12.3616C48.508 14.5199 47.5748 16.6089 46.4649 18.6046C45.8688 19.5449 45.1912 20.431 44.4399 21.2526C45.2991 19.5638 46.0395 17.8173 46.6559 16.0256C46.7259 15.8256 46.3959 15.6806 46.3079 15.8796C44.9657 18.8712 43.3204 21.7174 41.3979 24.3735C41.0829 24.6855 40.7709 25.0026 40.4659 25.3276C40.7856 24.704 41.1371 24.0972 41.5189 23.5096C42.6099 22.0221 43.5212 20.4109 44.2339 18.7095C44.3339 18.4365 43.9069 18.3266 43.8029 18.5906C42.9929 20.6556 41.2699 22.2085 40.1029 24.0655C39.1144 25.6251 38.3636 27.323 37.8749 29.1036C37.8418 29.2138 37.8518 29.3324 37.9029 29.4356C37.8889 29.4726 37.8719 29.5076 37.8579 29.5456C37.2584 30.9135 36.802 32.3397 36.4959 33.8016C36.471 33.9148 36.4906 34.0332 36.5504 34.1325C36.6103 34.2318 36.7059 34.3043 36.8177 34.3352C36.9294 34.3661 37.0488 34.353 37.1511 34.2985C37.2535 34.2441 37.331 34.1525 37.3679 34.0426C37.8308 32.5681 38.3702 31.1189 38.9839 29.7006L39.0449 29.6215C39.1441 29.6619 39.2549 29.663 39.3548 29.6246C39.4548 29.5861 39.5363 29.511 39.5829 29.4145C39.7989 29.0145 40.0232 28.6249 40.2559 28.2456C41.6219 26.1506 43.5559 24.4766 44.8619 22.3316C45.3285 21.8282 45.8035 21.3252 46.2869 20.8226C48.2228 18.7476 49.3651 16.0565 49.5129 13.2225C49.5165 13.1952 49.5103 13.1675 49.4955 13.1443C49.4807 13.1211 49.4582 13.1038 49.4319 13.0955C49.4912 12.8835 49.5489 12.6696 49.6049 12.4536C49.6129 12.4085 49.6037 12.3621 49.5791 12.3235C49.5544 12.2849 49.5162 12.2571 49.4719 12.2455C49.4276 12.2338 49.3806 12.2393 49.3402 12.2609C49.2998 12.2824 49.2689 12.3183 49.2539 12.3616Z" fill="#AF4C54"/>
<path d="M30.4602 33.7876C30.2772 33.2046 30.0701 32.6406 29.8501 32.0876C29.8496 32.0678 29.8476 32.0481 29.8442 32.0286C28.9159 28.0066 27.0185 24.2726 24.3172 21.1516C24.1462 20.9356 23.8531 21.2386 24.0171 21.4516C24.733 22.388 25.3782 23.3764 25.9472 24.4086C24.399 22.3974 22.9577 20.3062 21.6291 18.1436C21.4681 17.8526 21.0291 18.1116 21.1851 18.4046C22.0908 20.3331 23.1763 22.1719 24.4271 23.8966C24.5571 24.0616 24.6782 24.2276 24.8002 24.3966C23.9092 23.3656 23.0371 22.3266 22.2121 21.2246C21.1661 19.8246 19.7692 18.3366 19.2262 16.6486C19.2129 16.6022 19.1817 16.5629 19.1395 16.5395C19.0973 16.5161 19.0476 16.5103 19.0011 16.5236C18.9547 16.5369 18.9155 16.568 18.892 16.6102C18.8686 16.6524 18.8629 16.7022 18.8761 16.7486C19.2136 18.1312 19.8721 19.4149 20.7981 20.4956C21.7321 21.8096 22.6751 23.1186 23.6861 24.3756C25.7713 26.7288 27.5172 29.362 28.8732 32.1986C28.8802 32.2316 28.8901 32.2666 28.8971 32.2986C28.9133 32.3818 28.952 32.459 29.0091 32.5216C29.2091 33.0106 29.3951 33.5156 29.5621 34.0466C29.7451 34.6046 30.6412 34.3606 30.4602 33.7876Z" fill="#AF4C54"/>
<path d="M66.6753 5.68155C66.5852 5.23745 66.4626 4.80061 66.3082 4.37456C66.0172 3.86118 65.6827 3.37372 65.3082 2.91756C65.2944 2.89475 65.2761 2.87494 65.2544 2.85932C65.2328 2.84369 65.2083 2.83255 65.1822 2.82655C65.0197 2.5055 64.8218 2.20363 64.5922 1.92656C64.1798 1.44479 63.6725 1.05326 63.1019 0.776414C62.5314 0.499568 61.9099 0.34336 61.2762 0.317559C60.8651 0.245104 60.4442 0.248487 60.0342 0.327554C59.9835 0.315327 59.9309 0.312955 59.8792 0.320558C59.0072 0.461233 58.2058 0.884966 57.5986 1.52637C56.9913 2.16777 56.612 2.99118 56.5192 3.86955C56.5085 3.92573 56.5102 3.98358 56.5242 4.03903C56.5382 4.09449 56.5641 4.1462 56.6002 4.19055C56.5926 4.52973 56.678 4.86453 56.8472 5.15856C57.0977 5.77874 57.5741 6.28084 58.1803 6.56355C58.9008 6.82305 59.6858 6.84335 60.4188 6.62142C61.1518 6.39948 61.7937 5.94716 62.2493 5.33156C62.4763 5.03156 61.9562 4.71456 61.7382 5.03156C61.3593 5.5864 60.7909 5.98395 60.1397 6.14964C59.4886 6.31534 58.7993 6.23778 58.2013 5.93155C57.8106 5.73479 57.5122 5.39317 57.3699 4.97955C57.2275 4.56594 57.2524 4.11308 57.4392 3.71756C57.4462 3.70756 57.4562 3.70155 57.4632 3.69055C57.7372 3.25455 57.9832 2.80956 58.2132 2.34956C58.9825 1.65091 59.914 1.15527 60.9232 0.907563C60.9506 0.964445 60.9958 1.01084 61.0519 1.03972C61.108 1.0686 61.1721 1.07836 61.2342 1.06755C62.6832 0.915552 63.7993 2.21756 64.4343 3.32456C64.8854 4.29373 65.1668 5.33315 65.2663 6.39755C65.222 6.43534 65.1873 6.48301 65.1649 6.53668C65.1425 6.59036 65.133 6.64855 65.1373 6.70656C65.1547 7.99637 64.7969 9.26345 64.1073 10.3536C63.7057 11.1437 63.3741 11.9675 63.1162 12.8156C62.3348 13.8954 61.4482 14.8949 60.4693 15.7996C59.6665 16.439 58.9137 17.1387 58.2172 17.8926C58.1411 17.8975 58.0683 17.9262 58.0092 17.9746C56.7872 18.9216 55.5262 19.8166 54.2472 20.6836C53.4033 21.1602 52.6202 21.7374 51.9152 22.4026C51.8488 22.4051 51.7838 22.4229 51.7252 22.4546C50.1189 23.3392 48.6122 24.3939 47.2313 25.6006C46.3041 26.2055 45.482 26.9577 44.7972 27.8276C44.7216 27.8009 44.6396 27.7976 44.562 27.8181C44.4845 27.8386 44.4148 27.882 44.3622 27.9426C43.2832 29.1026 42.2223 30.2826 41.2623 31.5426C40.4683 32.5856 39.8863 33.6856 39.1933 34.7836C39.1732 34.8224 39.1648 34.8663 39.1691 34.9099C39.1733 34.9534 39.1901 34.9948 39.2174 35.0291C39.2447 35.0633 39.2812 35.0889 39.3227 35.1028C39.3642 35.1168 39.4089 35.1184 39.4513 35.1076C39.4762 35.1681 39.5133 35.2228 39.5602 35.2684C39.6072 35.314 39.663 35.3494 39.7242 35.3726C41.0462 35.8986 40.7853 36.2726 41.9123 35.1786C42.0765 35.0659 42.232 34.9408 42.3772 34.8046C42.3894 34.793 42.4007 34.7806 42.4112 34.7676C42.4918 34.765 42.5706 34.7434 42.6413 34.7046C43.1822 34.4098 43.7448 34.1567 44.3242 33.9476L44.4433 33.8986C44.5162 33.868 44.5785 33.8165 44.6222 33.7505C45.3748 33.4608 46.1553 33.2493 46.9513 33.1196C47.0152 33.1432 47.0831 33.1545 47.1512 33.1526C48.0809 33.1287 49.0074 33.2692 49.8882 33.5676C51.2072 34.6175 51.8232 36.8236 53.5172 37.6756C54.191 37.9799 54.9304 38.1101 55.6676 38.0542C56.4048 37.9982 57.1161 37.758 57.7363 37.3556C57.791 37.3744 57.849 37.3823 57.9069 37.3787C57.9647 37.3751 58.0212 37.3601 58.0732 37.3345C58.3732 37.1965 58.6793 37.0526 58.9813 36.9086C59.0466 36.8787 59.1023 36.8312 59.1422 36.7716C59.2895 36.6942 59.4208 36.5897 59.5293 36.4636C59.7943 36.1196 59.5493 35.6896 59.4383 35.3256C59.18 34.2951 58.5926 33.3769 57.7652 32.7106C57.7022 32.6616 57.6372 32.6106 57.5562 32.5516C57.5115 32.5208 57.4601 32.5012 57.4062 32.4946C57.3466 32.4618 57.2848 32.433 57.2212 32.4086C58.0718 32.4454 58.9153 32.5796 59.7353 32.8086C60.0933 32.9976 60.3953 33.1776 60.5673 33.2856C61.6016 33.8945 62.5575 34.6279 63.4133 35.4696C63.5097 35.5631 63.6388 35.6155 63.7732 35.6155C63.9077 35.6155 64.0368 35.5631 64.1332 35.4696C64.7783 34.977 65.2423 34.285 65.453 33.5013C65.6637 32.7176 65.6093 31.8861 65.2982 31.1366C65.0485 30.4499 64.5967 29.8551 64.0023 29.4302C63.4079 29.0054 62.6987 28.7705 61.9683 28.7566C62.8453 28.0216 61.9242 26.3376 61.2432 25.7676C60.3962 25.0859 59.3198 24.7555 58.2363 24.8446C60.3025 24.1257 62.2002 22.9925 63.8133 21.5146C65.0683 20.223 65.8693 18.5583 66.0952 16.7716C66.0961 16.7156 66.0818 16.6605 66.054 16.6119C66.0262 16.5634 65.9859 16.5232 65.9372 16.4956C65.6397 16.3665 65.3115 16.3252 64.9912 16.3766C64.9982 16.3636 65.0062 16.3536 65.0132 16.3376C66.0364 14.2354 66.6332 11.9515 66.7692 9.61755C66.8547 9.54273 66.909 9.43851 66.9213 9.32556C67.0729 8.10634 66.9894 6.86933 66.6753 5.68155Z" fill="#A9C1A3"/>
<path d="M27.0942 33.3985C27.0728 33.3642 27.0466 33.3332 27.0162 33.3065C26.8672 33.0855 26.7272 32.8615 26.5992 32.6265C26.5788 32.5905 26.55 32.5599 26.5152 32.5375C26.5055 32.5176 26.4942 32.4985 26.4812 32.4805C26.1312 32.0095 25.7942 31.5135 25.4462 31.0255C25.4421 31.0143 25.4374 31.0033 25.4322 30.9925C25.0757 30.3904 24.63 29.8459 24.1102 29.3775C24.0485 29.323 23.9719 29.2882 23.8902 29.2775C23.1957 28.2863 22.3905 27.3774 21.4902 26.5685C19.6057 24.9996 17.6149 23.5628 15.5322 22.2685C15.4742 22.2312 15.4072 22.2101 15.3382 22.2075C14.9849 21.9688 14.6292 21.7338 14.2712 21.5025C14.2363 21.4498 14.1889 21.4065 14.1332 21.3765C13.9552 21.2765 13.7832 21.1825 13.6142 21.0765L13.5342 21.0265C13.5232 20.9766 13.5017 20.9296 13.471 20.8887C13.4402 20.8478 13.4011 20.814 13.3562 20.7895C12.28 20.1773 11.2553 19.4787 10.2922 18.7005C10.2148 18.6359 10.1171 18.6005 10.0162 18.6005C9.42239 18.281 8.92562 17.8074 8.5782 17.2295C8.54945 17.176 8.50113 17.1357 8.44334 17.1171C8.38555 17.0984 8.32278 17.1029 8.2682 17.1295C7.7442 16.6295 7.1682 16.2115 6.6182 15.7165C5.68337 14.7605 4.87144 13.6915 4.20121 12.5345C2.80471 10.4664 1.98551 8.06301 1.8282 5.57251C1.8282 5.56451 1.82321 5.55851 1.82221 5.55151C1.90506 4.79865 2.10232 4.06284 2.40721 3.3695C2.54321 3.0975 2.68719 2.82851 2.84019 2.55751C2.85985 2.52717 2.87312 2.49314 2.87919 2.4575C3.65099 1.76713 4.5949 1.29797 5.61122 1.09951C5.63973 1.1533 5.68151 1.1989 5.73261 1.23198C5.78372 1.26506 5.84246 1.28452 5.90321 1.28851C6.86971 1.34525 7.78032 1.76028 8.45719 2.45251C8.77419 2.81398 9.00311 3.24401 9.12596 3.70883C9.2488 4.17365 9.26222 4.66062 9.1652 5.13151L9.15321 5.15751C8.85991 5.61991 8.41531 5.96626 7.89521 6.13751C7.00389 6.13295 6.14232 5.81627 5.46021 5.2425C5.22021 5.0105 4.99119 4.7745 4.78419 4.5935C4.70847 4.51818 4.60596 4.47603 4.49916 4.47632C4.39235 4.4766 4.29002 4.51929 4.2147 4.59501C4.13938 4.67073 4.09723 4.77326 4.09751 4.88006C4.09779 4.98686 4.14048 5.08918 4.2162 5.1645C4.43428 5.40136 4.67586 5.61546 4.9372 5.80351C5.56286 6.46287 6.41094 6.8666 7.31721 6.9365C7.57687 6.92754 7.83415 6.88381 8.08219 6.8065C8.41545 6.76809 8.73438 6.64916 9.01139 6.45996C9.28841 6.27075 9.51518 6.01696 9.67219 5.7205C9.72519 5.6275 9.7722 5.5345 9.8122 5.4425C9.8932 5.3185 9.96922 5.1885 10.0382 5.0545C10.3343 4.43626 10.4223 3.73876 10.2889 3.06637C10.1555 2.39398 9.80791 1.78287 9.2982 1.32451C9.27316 1.25786 9.22899 1.2001 9.17121 1.1585C9.10221 1.1075 9.03419 1.06551 8.96519 1.01751C8.65052 0.753116 8.30093 0.533372 7.92622 0.364506L7.8982 0.348507C7.8702 0.335507 7.84319 0.321506 7.8152 0.309506C7.75572 0.282686 7.68878 0.277401 7.62583 0.294552C7.56288 0.311704 7.50784 0.350224 7.47019 0.403508C5.76869 0.201943 4.05587 0.674299 2.69819 1.71951C1.85172 2.36434 1.22347 3.25333 0.898203 4.26651C0.739921 4.62962 0.609861 5.0044 0.509195 5.38751C0.470831 5.42873 0.446063 5.48075 0.438211 5.53651C0.414211 5.70351 0.385208 5.87151 0.360208 6.03651C0.265208 6.52951 0.199213 7.02551 0.115213 7.56651C0.0785466 7.78851 0.041864 8.01084 0.00519738 8.2335C-0.0048845 8.2904 -0.000246489 8.34894 0.0186556 8.40355C0.0375578 8.45815 0.0700982 8.50702 0.113199 8.54551C0.0656165 9.5477 0.180429 10.551 0.453195 11.5165C0.491173 12.1969 0.6186 12.8694 0.832193 13.5165L0.838205 13.5675C0.845288 13.6156 0.86268 13.6617 0.8892 13.7025C0.9322 13.8445 0.977189 13.9875 1.02119 14.1315C1.03265 14.168 1.051 14.2019 1.0752 14.2315C1.29054 14.9255 1.49054 15.6255 1.67521 16.3315C1.53227 16.3346 1.38965 16.3466 1.24821 16.3675C1.13353 16.4011 1.03646 16.4781 0.97764 16.5821C0.918819 16.6861 0.90288 16.8089 0.933206 16.9245C1.47019 18.9228 2.57722 20.7217 4.11921 22.1015C4.83517 22.7315 5.62575 23.2712 6.47322 23.7085C7.44796 24.1467 8.46581 24.4819 9.5102 24.7085C8.13044 24.7286 6.78652 25.1509 5.6432 25.9235C5.2837 26.2398 5.05613 26.6796 5.00556 27.1558C4.955 27.632 5.08516 28.1098 5.37022 28.4945C4.75 28.5307 4.14379 28.6938 3.58921 28.9739C3.03463 29.2539 2.54348 29.6449 2.14619 30.1225C1.63204 30.8017 1.36681 31.6369 1.39485 32.4883C1.42288 33.3397 1.7425 34.1556 2.30021 34.7995C2.28616 34.8542 2.28448 34.9113 2.29533 34.9667C2.30618 35.0221 2.32928 35.0744 2.36292 35.1197C2.39656 35.165 2.43991 35.2023 2.48979 35.2287C2.53966 35.2551 2.59479 35.2701 2.65119 35.2725L2.8632 35.2555C2.95115 35.2475 3.03397 35.2105 3.09873 35.1505C3.16349 35.0904 3.20655 35.0106 3.2212 34.9235C3.9072 34.3902 4.59888 33.8645 5.29621 33.3465C5.49506 33.2462 5.68477 33.1288 5.8632 32.9955C6.91765 32.4213 8.08565 32.0863 9.28419 32.0145C9.29764 32.0176 9.3114 32.0193 9.3252 32.0195C9.3882 32.0125 9.44922 32.0085 9.51222 32.0025C9.72922 31.9965 9.94919 32.0025 10.1722 32.0145C8.69719 32.8877 7.59194 34.2697 7.06419 35.9005C7.02849 35.9647 7.00766 36.0362 7.00318 36.1095C6.99871 36.1829 7.01075 36.2563 7.03837 36.3244C7.06599 36.3925 7.10851 36.4536 7.16282 36.5031C7.21713 36.5526 7.28185 36.5893 7.35221 36.6105C8.38321 36.8585 9.13719 37.6605 10.2072 37.8845C11.0441 38.0571 11.9118 38.0053 12.7222 37.7345C13.4035 37.487 14.0236 37.0958 14.5404 36.5875C15.0572 36.0792 15.4585 35.4656 15.7172 34.7885L15.7272 34.7755C15.7422 34.7395 15.7602 34.7055 15.7742 34.6705C15.809 34.5912 15.8164 34.5025 15.7952 34.4185C16.1907 33.7655 16.7965 33.2665 17.5132 33.0035C17.592 32.9712 17.661 32.9188 17.7132 32.8515C19.2606 32.6789 20.8269 32.8658 22.2901 33.3978C23.7534 33.9297 25.074 34.7924 26.1492 35.9185C26.1758 35.9452 26.2077 35.966 26.2428 35.9796C26.278 35.9933 26.3155 35.9995 26.3532 35.9978C26.3908 35.9961 26.4277 35.9865 26.4614 35.9698C26.4952 35.9531 26.5251 35.9295 26.5492 35.9005C26.6129 35.9148 26.6794 35.9112 26.7412 35.89C26.803 35.8689 26.8577 35.8309 26.8992 35.7805C27.1882 35.4615 27.9132 35.2245 28.0152 34.7645C28.1022 34.3515 27.4172 33.7395 27.0942 33.3985Z" fill="#A9C1A3"/>
<path d="M56.3731 51.5224C56.3985 51.4161 56.4056 51.3062 56.3941 51.1975C56.201 49.7337 55.7033 48.3266 54.9331 47.067C54.1628 45.8074 53.1371 44.7233 51.922 43.8844C49.822 42.4974 46.3221 41.2505 43.8471 42.3085C43.928 41.3376 43.8072 40.3605 43.4922 39.4386C43.1773 38.5167 42.675 37.6699 42.017 36.9515C41.1215 36.0001 40.0205 35.2659 38.798 34.8049C37.5755 34.3439 36.2638 34.1683 34.9631 34.2914C34.2259 34.4423 33.4697 34.4761 32.7221 34.3915C32.0871 34.2548 31.4384 34.1927 30.789 34.2065C29.4425 34.3062 28.1412 34.7358 27 35.4574C25.3643 36.4706 24.1934 38.0873 23.741 39.9574C23.6183 39.9653 23.5014 40.0132 23.4084 40.0937C23.3154 40.1743 23.2514 40.283 23.2261 40.4034C23.0541 41.0522 23.013 41.7287 23.1051 42.3935C21.8893 42.0528 20.615 41.9747 19.3667 42.1643C18.1184 42.354 16.9248 42.807 15.8651 43.4935C14.3011 44.3493 13.0218 45.6442 12.185 47.2184C12.0996 47.2885 12.0313 47.3771 11.9851 47.4775C11.6946 48.0784 11.4386 48.6954 11.2181 49.3255C11.0458 49.451 10.9289 49.6385 10.892 49.8485C10.2674 52.5987 10.679 55.4827 12.048 57.9485C12.6216 59.098 13.5482 60.0336 14.6921 60.6185C14.7434 60.8092 14.8561 60.9778 15.0128 61.0982C15.1695 61.2185 15.3615 61.284 15.5591 61.2845C16.6452 61.351 17.7354 61.2984 18.81 61.1275C18.9991 61.0993 19.1706 61.0007 19.29 60.8515L19.777 60.6985C19.9804 60.6401 20.1572 60.5128 20.277 60.3385C20.9582 60.0036 21.5498 59.5113 22.0031 58.9025C21.9745 60.5437 22.3169 62.1701 23.0049 63.6605C23.6928 65.1508 24.7085 66.4665 25.9761 67.5094C27.3475 68.4425 28.9663 68.9446 30.625 68.9515C31.4653 69.1295 32.3415 69.0007 33.095 68.5885C33.105 68.5885 33.114 68.5984 33.125 68.6025C34.6442 69.0348 36.2444 69.0999 37.7936 68.7925C39.3429 68.4851 40.797 67.814 42.0361 66.8344C42.9949 65.907 43.7539 64.7932 44.2662 63.5615C44.7785 62.3298 45.0334 61.0063 45.0151 59.6725L45.536 60.0114C45.5733 60.1428 45.6468 60.2609 45.7481 60.3525C45.9942 60.588 46.2666 60.7944 46.56 60.9675C46.6538 61.0278 46.7603 61.0657 46.871 61.0783C46.9818 61.091 47.0941 61.078 47.199 61.0405C47.28 61.0875 47.36 61.1405 47.441 61.1805C47.455 61.1885 47.4681 61.1915 47.4821 61.1985C47.8542 61.5331 48.3182 61.7484 48.814 61.8165C49.3729 61.8953 49.9426 61.8102 50.454 61.5715C51.3936 61.4803 52.2869 61.1203 53.027 60.5345C55.627 58.5695 56.183 55.3345 56.38 52.2345C56.3835 52.1828 56.3819 52.1308 56.375 52.0795C56.385 51.8965 56.3831 51.7104 56.3731 51.5224Z" fill="#F8DFDD"/>
<path d="M38.5761 48.3655C38.4581 47.8909 38.2375 47.4479 37.9298 47.0678C37.6221 46.6877 37.2347 46.3797 36.7951 46.1655C35.6951 45.6815 34.4761 46.3105 33.3251 46.2335C31.7591 46.1335 29.1311 45.9135 28.8941 47.9415C27.8508 47.1457 26.5898 46.6867 25.2791 46.6255C25.2981 46.3094 25.2765 45.9921 25.2151 45.6815C25.6681 41.9585 19.5241 41.5655 16.8561 42.6605C14.9216 43.3995 13.3095 44.7967 12.3031 46.6065C11.2451 48.7005 11.5121 51.0535 11.8221 53.2915C11.8611 53.5745 12.2781 53.4815 12.2941 53.2265C12.3272 51.5352 12.6252 49.8595 13.1771 48.2605C14.1115 46.6984 15.5377 45.4904 17.2321 44.8255C18.6471 44.2835 22.5511 43.7545 23.2031 45.6315C23.1819 45.7077 23.1552 45.7822 23.1231 45.8545C23.0619 45.9899 23.0302 46.1368 23.0302 46.2855C23.0302 46.4341 23.0619 46.581 23.1231 46.7165C22.2633 46.8366 21.4365 47.1288 20.6921 47.5755C17.8521 49.4015 16.6741 54.7345 19.3471 57.1425C19.4306 57.223 19.5423 57.2675 19.6583 57.2664C19.7743 57.2653 19.8852 57.2186 19.9671 57.1365C20.049 57.0543 20.0953 56.9433 20.096 56.8273C20.0968 56.7113 20.0519 56.5997 19.9711 56.5165C18.5051 54.6165 19.2711 50.9585 21.0021 49.4445C22.3391 48.2715 28.0951 47.7705 28.0951 50.6445C28.0951 50.7965 27.9531 50.8395 28.0001 50.9575C24.8861 51.7345 22.2881 55.1395 22.0101 58.8025C21.5721 64.6025 27.8671 71.2155 33.6431 68.1965C33.7144 68.1525 33.7697 68.0867 33.8006 68.0088C33.8315 67.9308 33.8364 67.8451 33.8146 67.7641C33.7928 67.6832 33.7454 67.6115 33.6796 67.5597C33.6137 67.5078 33.5329 67.4787 33.4491 67.4765C29.0731 67.7245 24.8651 65.1995 24.2291 60.5905C23.6431 56.3505 27.9401 49.8105 32.1511 54.2705C32.1641 54.2845 32.1781 54.2925 32.1911 54.3065C30.8911 57.8575 31.2181 62.2985 33.8561 65.0625C34.1331 65.3525 34.6431 64.9735 34.4181 64.6285C33.4206 62.9606 32.8809 61.0591 32.8535 59.1159C32.8261 57.1728 33.312 55.2568 34.2621 53.5615C34.3591 53.4069 34.3954 53.2218 34.3638 53.0421C34.3322 52.8623 34.235 52.7007 34.0911 52.5885C34.6418 52.0517 35.2407 51.5667 35.8801 51.1395C36.0396 51.2542 36.2295 51.3191 36.4259 51.3257C36.6223 51.3324 36.8162 51.2806 36.9831 51.1769C37.15 51.0732 37.2823 50.9223 37.3633 50.7433C37.4443 50.5643 37.4704 50.3653 37.4381 50.1715C38.1171 49.7635 38.7041 49.2515 38.5761 48.3655Z" fill="#AF4C54"/>
<path d="M48.9614 42.5756C47.2334 41.9956 45.0774 41.8306 43.5224 42.9546C42.2464 43.8766 41.4904 45.7326 42.4224 47.1296C42.4671 47.1944 42.521 47.2523 42.5824 47.3016C40.4904 47.2896 38.2204 48.0816 37.6154 50.2416C37.5568 50.4879 37.5961 50.7474 37.7249 50.9654C37.8537 51.1835 38.0621 51.343 38.3062 51.4105C38.5503 51.478 38.811 51.4482 39.0336 51.3273C39.2561 51.2065 39.4231 51.004 39.4994 50.7626C40.1504 48.6446 43.7674 49.1626 45.2444 49.8146C46.8795 50.6684 48.2718 51.9224 49.2914 53.4596C49.6454 53.9176 50.3174 53.3346 50.0634 52.8596C48.6174 50.1596 46.9514 47.8756 43.7454 47.3856H43.7194C43.8357 47.313 43.9283 47.2082 43.986 47.0839C44.0437 46.9596 44.064 46.8212 44.0444 46.6856C43.7114 43.0106 48.2024 44.0936 50.1944 45.2666C51.8154 46.2206 54.8754 48.6546 55.0294 50.6666C55.0574 51.0316 55.6294 51.1666 55.7094 50.7586C56.4504 47.1416 51.9344 43.5736 48.9614 42.5756Z" fill="#AF4C54"/>
<path d="M31.0582 46.4196C29.9718 46.5291 28.8771 46.3181 27.9093 45.8126C26.9414 45.3071 26.1428 44.5293 25.6119 43.5752C25.081 42.621 24.8411 41.5323 24.9218 40.4434C25.0026 39.3545 25.4004 38.313 26.0662 37.4476C26.2592 37.1906 25.8792 36.8166 25.6232 37.0036C24.5764 37.7738 23.8223 38.8767 23.4844 40.1316C23.1465 41.3865 23.2448 42.7189 23.7632 43.9106C23.9627 44.4097 24.2183 44.8844 24.5252 45.3256C24.4482 45.4274 24.3935 45.5441 24.3646 45.6684C24.3356 45.7926 24.333 45.9215 24.3571 46.0468C24.3811 46.1721 24.4312 46.291 24.5041 46.3957C24.577 46.5004 24.671 46.5886 24.7802 46.6546C26.4481 47.7942 28.4221 48.4018 30.4422 48.3976C30.6422 48.3976 30.8512 48.3906 31.0582 48.3746C32.2912 48.2686 32.3172 46.3356 31.0582 46.4196Z" fill="#AF4C54"/>
<path d="M44.3254 42.2876L44.1584 42.2587C44.0688 42.2419 43.9769 42.2419 43.8874 42.2587C43.8589 40.7891 43.4313 39.3549 42.6504 38.1097C42.608 38.0442 42.5438 37.9957 42.4692 37.9729C42.3946 37.9501 42.3143 37.9544 42.2426 37.985C42.1708 38.0157 42.1122 38.0706 42.077 38.1403C42.0418 38.2099 42.0324 38.2897 42.0504 38.3656C42.4714 40.0356 42.7394 42.4287 41.8014 43.9507C41.307 44.7517 40.6115 45.4093 39.7842 45.8583C38.9568 46.3072 38.0264 46.5318 37.0854 46.5096C35.9774 46.5266 35.6264 48.3616 36.8114 48.5356C37.867 48.6868 38.9439 48.5284 39.9114 48.0797C40.0286 48.1597 40.1665 48.2041 40.3084 48.2077C40.4503 48.2112 40.5902 48.1737 40.7113 48.0997C41.1513 47.8087 41.6114 47.5437 42.0584 47.2697C42.2094 47.1767 42.3186 47.0289 42.3633 46.8573C42.408 46.6857 42.3848 46.5035 42.2984 46.3486C42.2904 46.3366 42.2814 46.3277 42.2744 46.3167C42.5563 46.0018 42.8127 45.6651 43.0414 45.3096C43.4174 44.7173 43.6745 44.0573 43.7984 43.3667C43.8174 43.3747 43.8364 43.3846 43.8584 43.3916L44.0194 43.4436C44.1722 43.4848 44.3352 43.4638 44.4726 43.3853C44.6101 43.3068 44.711 43.1772 44.7534 43.0246C44.7929 42.8702 44.7702 42.7064 44.6901 42.5686C44.6101 42.4308 44.4791 42.3299 44.3254 42.2876Z" fill="#AF4C54"/>
<path d="M33.5843 39.1785C33.5516 39.0748 33.48 38.9879 33.3846 38.9361C33.2891 38.8842 33.1772 38.8715 33.0725 38.9005C32.9678 38.9296 32.8785 38.9982 32.8234 39.0918C32.7683 39.1855 32.7518 39.2969 32.7773 39.4025C33.1652 41.8744 32.8014 44.4058 31.7332 46.6685C31.6717 46.785 31.635 46.9129 31.6255 47.0443C31.616 47.1757 31.6339 47.3077 31.6781 47.4318C31.7223 47.5559 31.7918 47.6695 31.8822 47.7653C31.9726 47.8612 32.0819 47.9372 32.2032 47.9886C32.3245 48.04 32.4552 48.0656 32.5869 48.0638C32.7186 48.062 32.8485 48.0329 32.9684 47.9782C33.0883 47.9236 33.1955 47.8447 33.2833 47.7464C33.3711 47.6482 33.4374 47.5327 33.4782 47.4075C34.4487 44.7564 34.4861 41.8537 33.5843 39.1785Z" fill="#AF4C54"/>
<path d="M64.952 17.9965C66.1408 15.4553 66.7817 12.6925 66.833 9.88747C66.8195 8.36069 66.4234 6.86166 65.681 5.52747C64.922 4.16523 63.7416 3.0859 62.317 2.45146C61.5894 2.12307 60.7948 1.97009 59.9972 2.00483C59.1997 2.03957 58.4214 2.26105 57.725 2.65147C57.0218 3.07159 56.4612 3.69353 56.116 4.43646C55.7742 5.19593 55.7303 6.05614 55.993 6.84647C56.2232 7.61858 56.7168 8.28556 57.3878 8.73137C58.0589 9.17718 58.8651 9.37361 59.666 9.28647C60.4365 9.15465 61.1417 8.77183 61.672 8.1976C62.2023 7.62337 62.5279 6.88994 62.5981 6.11147L62.635 5.47046L62.274 6.00046C61.6993 7.05435 60.7319 7.83886 59.582 8.18347C59.0115 8.27267 58.4284 8.14146 57.951 7.81647C57.7176 7.6696 57.5311 7.45894 57.4136 7.20943C57.2961 6.95991 57.2526 6.68197 57.2881 6.40846C57.4181 5.84829 57.7309 5.34732 58.177 4.98447C58.6093 4.58318 59.0999 4.24973 59.632 3.99547C60.1398 3.75148 60.7083 3.66306 61.2661 3.74135C61.8239 3.81964 62.3461 4.06115 62.767 4.43547C63.6293 5.19093 64.1578 6.2568 64.237 7.40047C64.3311 8.57401 64.1991 9.7547 63.8481 10.8785C63.1219 13.1582 61.8596 15.2305 60.1671 16.9215C56.8721 20.4465 52.399 22.6515 48.467 25.6695C44.5732 28.5264 41.3496 32.1984 39.021 36.4295C38.91 36.3835 38.806 36.3215 38.694 36.2815C38.263 36.1256 37.8203 36.0043 37.3701 35.9185C37.9141 33.2185 39.777 31.1245 41.508 29.0525C43.361 26.8915 45.2381 24.7185 46.9601 22.4215C48.8227 20.0725 49.8303 17.1594 49.817 14.1615C49.7618 12.6695 49.3975 11.2053 48.747 9.86147C48.4112 9.19762 47.994 8.57819 47.505 8.01747C47.0302 7.4109 46.3918 6.95286 45.665 6.69747L45.2141 6.56447L45.386 7.00647C45.7864 8.22193 45.9437 9.50428 45.849 10.7805C45.7985 12.0742 45.5907 13.357 45.23 14.6005C44.4855 17.0693 43.3508 19.4031 41.869 21.5135C40.4467 23.7341 39.2771 26.1069 38.382 28.5875C37.5212 30.9315 36.8658 33.3459 36.423 35.8035C35.4615 35.7181 34.4925 35.8041 33.561 36.0575L33.45 36.0635L33.511 36.0705C32.571 35.9165 31.6129 35.9074 30.67 36.0435C30.2299 33.5028 29.5605 31.0073 28.67 28.5875C27.775 26.1069 26.6054 23.7341 25.183 21.5135C23.701 19.4031 22.566 17.0693 21.821 14.6005C21.4614 13.3568 21.2535 12.0741 21.202 10.7805C21.1085 9.50431 21.2658 8.22218 21.665 7.00647L21.838 6.56447L21.386 6.69747C20.6594 6.95311 20.021 7.4111 19.5461 8.01747C19.0574 8.57822 18.6405 9.19765 18.3051 9.86147C17.6546 11.2053 17.2903 12.6695 17.235 14.1615C17.221 17.1595 18.2286 20.0728 20.092 22.4215C21.813 24.7215 23.692 26.8915 25.543 29.0525C27.336 31.1985 29.282 33.3645 29.743 36.2015C29.3113 36.2999 28.8859 36.4242 28.4691 36.5735C28.3691 36.6085 28.277 36.6595 28.179 36.6985C25.8412 32.3525 22.5612 28.5842 18.579 25.6695C14.645 22.6515 10.171 20.4465 6.87903 16.9215C5.18716 15.2299 3.92497 13.1578 3.19803 10.8785C2.84782 9.75454 2.71611 8.57394 2.81003 7.40047C2.88886 6.25669 3.41739 5.19066 4.28003 4.43547C4.7008 4.06123 5.22284 3.81978 5.78049 3.74149C6.33813 3.6632 6.90648 3.75156 7.41403 3.99547C7.94635 4.24949 8.43698 4.58297 8.86905 4.98447C9.31584 5.34676 9.62872 5.84797 9.75803 6.40846C9.79376 6.68199 9.7503 6.96002 9.63278 7.20958C9.51527 7.45914 9.32864 7.66977 9.09503 7.81647C8.61808 8.14149 8.03526 8.27272 7.46503 8.18347C6.31515 7.83886 5.34775 7.05435 4.77304 6.00046L4.41104 5.47046L4.44904 6.11147C4.51901 6.88985 4.8444 7.62327 5.37451 8.19751C5.90463 8.77176 6.60971 9.15461 7.38004 9.28647C8.18102 9.37381 8.98728 9.17747 9.65842 8.73163C10.3296 8.28579 10.8231 7.61868 11.053 6.84647C11.3168 6.05628 11.2729 5.1957 10.9301 4.43646C10.5836 3.69314 10.0216 3.07121 9.31705 2.65147C8.6207 2.26105 7.84243 2.03957 7.04486 2.00483C6.24729 1.97009 5.45269 2.12307 4.72504 2.45146C3.29942 3.08505 2.11816 4.16455 1.35904 5.52747C0.616149 6.86147 0.220034 8.36062 0.207031 9.88747C0.258351 12.6925 0.899242 15.4553 2.08804 17.9965C1.75034 17.998 1.41425 18.0431 1.08804 18.1305L0.707031 18.2395L0.764038 18.6325C1.17838 20.4535 2.13143 22.1077 3.49905 23.3795C4.72153 24.7434 6.19583 25.8585 7.84103 26.6635L7.92203 26.6985C7.82203 26.7485 7.72204 26.7985 7.62204 26.8405C7.29645 26.961 6.96215 27.0566 6.62204 27.1265C6.26142 27.1977 5.92036 27.3457 5.62204 27.5605C5.28637 27.7806 5.01488 28.0856 4.83505 28.4445C4.65255 28.8396 4.62159 29.288 4.74805 29.7045C4.79935 29.8637 4.88386 30.0103 4.99603 30.1345C4.72257 30.1888 4.45476 30.2685 4.19604 30.3725C3.63675 30.6248 3.13995 30.9973 2.74103 31.4635C1.93287 32.3515 1.50245 33.5194 1.54105 34.7195C1.68508 35.9256 2.27073 37.0357 3.18503 37.8355L3.53104 38.1565L3.86005 37.7775C4.7542 36.7855 5.81778 35.9606 7.00104 35.3415C7.76281 34.9356 8.56789 34.617 9.40103 34.3915C8.86844 34.7341 8.40365 35.1721 8.03003 35.6835C7.47966 36.4462 7.13118 37.3358 7.01703 38.2695L6.96204 38.6895L7.39105 38.7675C8.22596 39.0392 9.04121 39.368 9.83105 39.7515C10.7539 40.0665 11.7479 40.1085 12.694 39.8725C13.6374 39.6695 14.5105 39.221 15.225 38.5725C15.5813 38.2303 15.8847 37.837 16.125 37.4055C16.3222 37.0086 16.5447 36.6248 16.791 36.2565C17.0187 35.9452 17.3216 35.6968 17.6714 35.5345C18.0211 35.3722 18.4064 35.3013 18.791 35.3285C19.6547 35.3326 20.5146 35.4414 21.3521 35.6525C23.0591 36.0603 24.6742 36.7855 26.113 37.7905C25.4153 38.2877 24.8036 38.8958 24.302 39.5905C23.7986 40.3093 23.4109 41.1026 23.153 41.9415C22.9991 42.3719 22.8984 42.8196 22.853 43.2745C22.8431 43.4928 22.8671 43.7114 22.924 43.9225C21.5276 43.5046 20.0507 43.4315 18.6198 43.7092C17.1889 43.987 15.8467 44.6075 14.708 45.5175C13.5278 46.5226 12.5857 47.7775 11.95 49.1915C11.2824 50.5685 10.8469 52.0464 10.661 53.5655C10.463 55.1143 10.6126 56.6878 11.099 58.1715C11.5571 59.708 12.4437 61.082 13.655 62.1325C14.2905 62.6549 15.032 63.033 15.828 63.2405C16.6177 63.4261 17.4372 63.4462 18.235 63.2995C19.0042 63.1452 19.7434 62.8676 20.424 62.4775C20.8723 62.2295 21.2775 61.9107 21.6241 61.5335C21.7009 62.8753 22.0464 64.1881 22.64 65.394C23.2337 66.5999 24.0634 67.6743 25.08 68.5535C26.2363 69.4897 27.618 70.1063 29.087 70.3416C30.5561 70.5769 32.0612 70.4227 33.452 69.8945L33.536 69.8895C34.9245 70.4259 36.4304 70.5842 37.9 70.3482C39.3696 70.1123 40.7503 69.4905 41.901 68.5465C42.9203 67.6557 43.7451 66.5644 44.3241 65.3408C44.903 64.1172 45.2237 62.7875 45.2661 61.4345C45.6364 61.8538 46.0762 62.2062 46.566 62.4765C47.2462 62.8667 47.9851 63.1443 48.754 63.2985C49.5522 63.4451 50.372 63.425 51.162 63.2395C51.9579 63.0322 52.6991 62.6541 53.334 62.1315C54.5453 61.0808 55.4322 59.7069 55.8911 58.1705C56.3765 56.6866 56.5261 55.1133 56.329 53.5645C56.1427 52.0455 55.7072 50.5677 55.04 49.1905C54.404 47.7765 53.4616 46.5215 52.281 45.5165C51.144 44.6068 49.8035 43.9862 48.3742 43.7076C46.945 43.4289 45.4695 43.5006 44.074 43.9165C44.1306 43.706 44.1552 43.4882 44.147 43.2705C44.1116 42.813 44.0202 42.3617 43.875 41.9265C43.6267 41.0794 43.2605 40.2715 42.787 39.5265C42.3254 38.8149 41.7512 38.183 41.087 37.6555C42.4699 36.719 44.0112 36.0414 45.636 35.6555C46.4735 35.4444 47.3334 35.3357 48.1971 35.3315C48.5817 35.3042 48.967 35.3751 49.3168 35.5374C49.6666 35.6997 49.9695 35.9481 50.1971 36.2595C50.4438 36.6278 50.6665 37.0116 50.864 37.4085C51.1041 37.8402 51.4074 38.2336 51.764 38.5755C52.4783 39.2238 53.351 39.6722 54.294 39.8755C55.2405 40.1115 56.2349 40.0695 57.1581 39.7545C57.9477 39.3706 58.763 39.0418 59.5981 38.7705L60.027 38.6925L59.972 38.2725C59.8574 37.3389 59.509 36.4495 58.959 35.6865C58.5854 35.1751 58.1206 34.7371 57.588 34.3945C58.4213 34.6197 59.2264 34.9384 59.988 35.3445C61.1716 35.9636 62.2355 36.7885 63.13 37.7805L63.459 38.1595L63.8051 37.8385C64.7191 37.0386 65.3044 35.9285 65.448 34.7225C65.4876 33.5222 65.057 32.354 64.248 31.4665C63.8493 31.0001 63.3525 30.6275 62.793 30.3755C62.5344 30.2714 62.2665 30.1917 61.993 30.1375C62.1051 30.0131 62.1899 29.8666 62.242 29.7075C62.3685 29.291 62.3375 28.8426 62.155 28.4475C61.9746 28.089 61.7032 27.7842 61.368 27.5635C61.0697 27.3488 60.7286 27.2008 60.368 27.1295C60.028 27.0595 59.6937 26.9639 59.368 26.8435C59.268 26.8045 59.168 26.7515 59.074 26.7015L59.155 26.6665C60.8002 25.8615 62.2746 24.7464 63.497 23.3825C64.8647 22.1106 65.8177 20.4565 66.2321 18.6355L66.289 18.2425L65.9081 18.1335C65.5962 18.0487 65.2751 18.0027 64.952 17.9965ZM63.8521 4.52246C63.772 4.43046 63.6731 4.35747 63.5851 4.27147C63.6791 4.35147 63.765 4.43746 63.853 4.52246H63.8521ZM59.4081 3.52246C58.8405 3.82014 58.3218 4.20291 57.8701 4.65747C57.3764 5.10315 57.0411 5.69741 56.915 6.35047C56.8751 6.69097 56.9327 7.03581 57.0811 7.3449C57.2294 7.65398 57.4624 7.9146 57.7531 8.09647C58.3066 8.46356 58.9796 8.6049 59.634 8.49147C60.6033 8.23546 61.4573 7.65882 62.057 6.85547C61.8576 7.36803 61.5239 7.81744 61.0909 8.15651C60.6578 8.49558 60.1415 8.71181 59.596 8.78247C58.9349 8.8199 58.2815 8.62554 57.7483 8.2329C57.2151 7.84025 56.8355 7.27391 56.675 6.63147C56.5309 6.00365 56.5983 5.34579 56.8666 4.76021C57.135 4.17463 57.5894 3.69414 58.159 3.39346C58.7462 3.09039 59.3937 2.92208 60.0541 2.9008C60.7146 2.87953 61.3715 3.00581 61.9771 3.27046C61.9921 3.27646 62.0051 3.28647 62.0201 3.29247C61.7996 3.21841 61.572 3.16748 61.341 3.14047C60.6733 3.07784 60.0018 3.21165 59.409 3.52547L59.4081 3.52246ZM39.0891 28.8625C40.0643 26.4767 41.235 24.1755 42.5891 21.9825C43.9815 19.7304 44.9928 17.2639 45.582 14.6825C46.2266 12.284 46.3426 9.77416 45.922 7.32646C46.3588 7.60699 46.7385 7.96768 47.041 8.38947C47.456 8.93604 47.8016 9.53191 48.07 10.1635C48.6054 11.431 48.8828 12.7925 48.886 14.1685C48.8054 16.9358 47.8221 19.6009 46.086 21.7575C44.386 24.0385 42.627 26.2675 40.872 28.5315C39.9731 29.6616 39.1582 30.8561 38.4341 32.1055C37.7594 33.2642 37.3457 34.5563 37.222 35.8915C37.005 35.8525 36.785 35.8325 36.565 35.8115C37.308 33.4515 38.131 31.1285 39.09 28.8645L39.0891 28.8625ZM28.5981 32.1095C27.8742 30.8602 27.0597 29.6656 26.161 28.5355C24.406 26.2715 22.6431 24.0425 20.9471 21.7615C19.2111 19.6048 18.2278 16.9398 18.147 14.1725C18.1513 12.7966 18.4286 11.4353 18.963 10.1675C19.2322 9.53607 19.5781 8.94025 19.993 8.39346C20.2953 7.97172 20.6746 7.61103 21.1111 7.33046C20.6903 9.7782 20.8066 12.2881 21.452 14.6865C22.0414 17.2677 23.0523 19.7341 24.444 21.9865C25.7985 24.1793 26.9692 26.4805 27.944 28.8665C28.931 31.2193 29.7987 33.6203 30.544 36.0605C30.308 36.0955 30.071 36.1305 29.838 36.1815C29.7516 34.7464 29.327 33.3522 28.599 32.1125L28.5981 32.1095ZM8.87903 3.39247C9.44852 3.6933 9.90268 4.17385 10.1709 4.75942C10.4391 5.34499 10.5063 6.00276 10.362 6.63046C10.2019 7.27292 9.82266 7.83935 9.28958 8.23204C8.7565 8.62473 8.10308 8.81904 7.44205 8.78147C6.89662 8.7108 6.38027 8.49457 5.94724 8.1555C5.5142 7.81643 5.18047 7.36702 4.98105 6.85446C5.58081 7.65775 6.43482 8.23438 7.40405 8.49046C8.05817 8.60363 8.73076 8.4623 9.28403 8.09546C9.57475 7.91364 9.80794 7.65306 9.95645 7.344C10.105 7.03493 10.1627 6.69007 10.123 6.34947C9.99663 5.69632 9.66107 5.10205 9.16705 4.65647C8.71548 4.20167 8.19675 3.81888 7.62903 3.52147C7.03575 3.20833 6.36385 3.07554 5.69604 3.13947C5.46473 3.16647 5.23685 3.21741 5.01605 3.29146C5.03105 3.28546 5.04503 3.27547 5.06003 3.26947C5.66603 3.00497 6.32343 2.87902 6.98428 2.90082C7.64513 2.92262 8.29278 3.0916 8.88004 3.39546L8.87903 3.39247ZM3.45203 4.26947C3.36403 4.35447 3.26405 4.42746 3.18405 4.52046C3.27505 4.43746 3.36103 4.35147 3.45303 4.27147L3.45203 4.26947ZM21.6411 34.6645C20.7112 34.3595 19.7352 34.2194 18.757 34.2505C18.229 34.2826 17.7125 34.4185 17.237 34.6505C16.7455 34.8991 16.3365 35.2846 16.0591 35.7605C15.7197 36.6049 15.3165 37.4223 14.853 38.2055C14.3017 38.906 13.5202 39.3889 12.647 39.5685C11.7823 39.7537 10.8795 39.6047 10.1201 39.1515C9.45596 38.6826 8.7382 38.2949 7.98206 37.9965C8.0891 37.3172 8.30699 36.6601 8.62704 36.0515C9.00459 35.373 9.4857 34.7576 10.053 34.2275C10.332 34.1645 10.613 34.1055 10.901 34.0605V33.9605C9.44867 33.691 7.94905 33.8573 6.59103 34.4385C5.36233 34.9543 4.2837 35.7719 3.45505 36.8155C2.74509 36.2691 2.22121 35.5168 1.95505 34.6615C1.859 34.1339 1.92177 33.5896 2.13541 33.0977C2.34904 32.6058 2.7039 32.1884 3.15503 31.8985C4.01366 31.3202 5.00342 30.9661 6.03403 30.8685C7.12301 30.7799 8.21798 30.7953 9.30405 30.9145L9.33105 30.8145C8.29671 30.2709 7.14237 29.9958 5.97403 30.0145C5.84003 30.0195 5.70504 30.0465 5.57404 30.0605C5.50474 29.6683 5.59044 29.2646 5.81305 28.9345C6.11002 28.4474 6.47429 28.0047 6.89505 27.6195C7.11491 27.3833 7.40172 27.22 7.71704 27.1515C8.03738 27.1323 8.35869 27.1661 8.66803 27.2515C8.88203 27.2685 9.09204 27.2745 9.30304 27.2745C10.5033 27.7278 11.7415 28.0735 13.0031 28.3075C14.7353 28.4775 16.3634 29.213 17.636 30.4005L17.721 30.3445C17.2953 29.5062 16.6274 28.8153 15.804 28.3615C14.9945 27.9161 14.1343 27.5696 13.242 27.3295C11.523 26.8355 9.82504 26.4565 8.19904 25.8165C6.52888 25.2718 4.99881 24.3668 3.71704 23.1655C2.64212 21.9848 1.94793 20.5076 1.72504 18.9265C2.43546 18.8097 3.16386 18.8736 3.84305 19.1125C4.70228 19.4102 5.4565 19.9511 6.01404 20.6695L6.10403 20.6215C5.7546 19.6656 5.0445 18.8848 4.12604 18.4465C3.5371 18.1568 2.89033 18.004 2.23404 17.9995C1.28743 15.4132 0.823423 12.6752 0.865051 9.92146C0.948326 8.52017 1.35164 7.1566 2.04404 5.93547C2.34155 5.44717 2.69898 4.99801 3.10803 4.59847C2.49075 5.37673 2.10288 6.31178 1.98804 7.29846C1.83822 8.5836 1.94462 9.8857 2.30106 11.1295C3.0286 13.574 4.33168 15.8085 6.10104 17.6455C7.84005 19.4398 9.78717 21.02 11.901 22.3525C13.951 23.7345 16.06 24.9815 18.044 26.3855C20.029 27.7973 21.8894 29.3764 23.605 31.1055C25.2799 32.8268 26.7725 34.7165 28.0591 36.7445C27.4171 36.9973 26.8059 37.322 26.237 37.7125C25.0259 36.2817 23.4324 35.2252 21.643 34.6665L21.6411 34.6645ZM14.364 61.2905C13.3349 60.2958 12.5249 59.097 11.9861 57.771C11.4472 56.4451 11.1914 55.0211 11.235 53.5905C11.2285 52.1084 11.582 50.6468 12.265 49.3315C12.9811 48.0551 14.0005 46.9746 15.233 46.1855C17.499 44.5808 20.2715 43.8553 23.0331 44.1445C23.146 44.3644 23.3053 44.5571 23.5 44.7095C23.83 44.922 24.1323 45.1746 24.4001 45.4615C24.6489 45.7588 24.849 46.0936 24.993 46.4535C25.2808 47.1576 25.3241 47.9378 25.116 48.6695C24.985 48.6815 24.852 48.6945 24.716 48.7045C24.2175 48.7065 23.721 48.7659 23.2361 48.8815C22.7561 49.0489 22.3266 49.3354 21.9878 49.7143C21.649 50.0932 21.412 50.5519 21.299 51.0475L21.385 51.1015C22.0878 50.5727 22.8225 50.0877 23.5851 49.6495C23.9372 49.3735 24.3362 49.1635 24.763 49.0295C25.2039 48.9367 25.6624 48.9775 26.08 49.1465C26.8671 49.4638 27.5898 49.9216 28.213 50.4975C28.7187 50.9285 29.1715 51.4179 29.562 51.9555C28.2569 51.8286 26.9447 52.1129 25.8091 52.7685C24.4662 53.5432 23.3835 54.699 22.698 56.0895C22.0202 57.4577 21.6505 58.9579 21.6151 60.4845C21.6091 60.7215 21.625 60.9595 21.634 61.1965C19.417 62.8035 16.2661 63.0675 14.3651 61.2925L14.364 61.2905ZM33.485 48.5725L33.553 48.5835H33.566L33.6971 48.5415C34.4997 48.27 35.3719 48.2873 36.1631 48.5905C36.8595 48.8566 37.468 49.3116 37.92 49.9045C37.3314 50.5516 37.0063 51.3957 37.009 52.2705C36.938 52.2815 36.866 52.2775 36.795 52.2915C36.0554 52.4227 35.3527 52.7119 34.735 53.1395C34.233 53.5026 33.8222 53.9774 33.535 54.5265C33.2727 53.9461 32.8778 53.4354 32.382 53.0355C31.7681 52.5524 31.0485 52.2217 30.282 52.0705C30.195 52.0505 30.1051 52.0385 30.0161 52.0215C29.957 51.2375 29.6406 50.4951 29.116 49.9095C29.3171 49.6537 29.5403 49.4161 29.7831 49.1995C30.1057 48.9267 30.4548 48.6869 30.825 48.4835C31.1974 48.2245 31.6319 48.0691 32.084 48.0335C32.5509 48.0367 32.9995 48.2152 33.341 48.5335L33.36 48.5505L33.485 48.5725ZM41.425 67.9465C40.3666 68.87 39.0981 69.5202 37.7304 69.8403C36.3626 70.1603 34.9373 70.1405 33.579 69.7825L33.468 69.7765H33.462H33.449C32.0935 70.1408 30.6688 70.1635 29.3023 69.8424C27.9359 69.5213 26.6704 68.8665 25.619 67.9365C24.6285 66.9812 23.8552 65.8239 23.3515 64.5433C22.8478 63.2626 22.6257 61.8886 22.7 60.5145C22.787 57.8085 23.947 54.9705 26.289 53.5945C27.437 52.8885 28.8037 52.6274 30.131 52.8605C30.7928 52.9404 31.4224 53.1909 31.9581 53.5874C32.4938 53.984 32.9173 54.5129 33.187 55.1225L33.26 55.3075L33.446 55.3025H33.592L33.7921 55.2975L33.8481 55.1265C34.0826 54.4806 34.4862 53.9095 35.0167 53.4728C35.5472 53.036 36.1852 52.7496 36.864 52.6435C38.2482 52.3396 39.6963 52.5891 40.899 53.3385C42.106 54.0687 43.0537 55.1587 43.609 56.4555C44.1719 57.7352 44.4614 59.1184 44.459 60.5165C44.5048 61.8994 44.2583 63.2764 43.7357 64.5575C43.2131 65.8387 42.4261 66.9952 41.4261 67.9515L41.425 67.9465ZM44.0161 44.1465C46.7741 43.8598 49.5424 44.5855 51.8051 46.1885C53.0378 46.9774 54.0572 48.0579 54.773 49.3345C55.4564 50.6497 55.8102 52.1113 55.804 53.5935C55.8474 55.0241 55.5915 56.4479 55.0527 57.7739C54.5139 59.0998 53.704 60.2986 52.675 61.2935C50.744 63.0935 47.526 62.7935 45.293 61.1245C45.293 60.9135 45.307 60.7025 45.293 60.4925C45.2165 58.9938 44.8142 57.5298 44.114 56.2025C43.4168 54.882 42.3623 53.7843 41.071 53.0345C39.9141 52.3847 38.5835 52.111 37.264 52.2515C37.7003 51.6016 38.2224 51.0136 38.816 50.5035C39.439 49.9277 40.1614 49.4699 40.948 49.1525C41.3663 48.9832 41.8255 48.9425 42.267 49.0355C42.6937 49.1697 43.0928 49.3797 43.445 49.6555C44.2074 50.0939 44.9422 50.5789 45.6451 51.1075L45.731 51.0535C45.6181 50.5579 45.3811 50.0992 45.0423 49.7203C44.7035 49.3414 44.2739 49.0549 43.794 48.8875C43.3091 48.7719 42.8125 48.7125 42.314 48.7105C42.183 48.7015 42.05 48.6885 41.914 48.6755C41.6979 47.9443 41.7388 47.1611 42.03 46.4565C42.1763 46.0964 42.3788 45.7619 42.63 45.4655C42.9006 45.1798 43.2056 44.9289 43.5381 44.7185C43.7375 44.5671 43.9011 44.3734 44.017 44.1515L44.0161 44.1465ZM41.916 40.1185C42.3576 40.7802 42.7156 41.4939 42.9821 42.2435C43.1297 42.5947 43.2348 42.9623 43.295 43.3385C43.3352 43.4787 43.3316 43.6278 43.2848 43.7659C43.2379 43.904 43.1502 44.0246 43.0331 44.1115C42.3335 44.61 41.8266 45.3338 41.5972 46.1617C41.3678 46.9895 41.4299 47.871 41.773 48.6585C41.473 48.6315 41.173 48.6045 40.862 48.5985C39.8872 48.5877 38.9442 48.9448 38.221 49.5985C38.1192 49.1594 37.9173 48.7498 37.6311 48.4017C37.3449 48.0536 36.9821 47.7763 36.571 47.5915C36.0618 47.3772 35.5043 47.3037 34.9569 47.3784C34.4095 47.4532 33.8922 47.6735 33.459 48.0165C33.0206 47.8724 32.5701 47.7676 32.113 47.7035C31.586 47.5877 31.0401 47.5877 30.513 47.7035C29.9794 47.8768 29.5188 48.223 29.204 48.6875C29.0149 48.9612 28.881 49.2694 28.81 49.5945C28.0879 48.9458 27.1487 48.5918 26.178 48.6025C25.867 48.6085 25.567 48.6345 25.269 48.6625C25.6174 47.8757 25.6819 46.9925 25.4513 46.1635C25.2208 45.3346 24.7096 44.6114 24.005 44.1175C23.887 44.0305 23.7979 43.9098 23.7495 43.7714C23.7012 43.6329 23.6958 43.4831 23.734 43.3415C23.786 42.9624 23.8827 42.5908 24.022 42.2345C24.2805 41.4757 24.6177 40.746 25.028 40.0575C25.8256 38.6217 27.0861 37.4985 28.604 36.8711C30.1218 36.2437 31.8075 36.149 33.386 36.6025H33.403H33.4471L33.5941 36.6105H33.608L33.656 36.6035C35.2418 36.3615 36.8636 36.5561 38.347 37.1665C39.8051 37.7728 41.0485 38.8016 41.9171 40.1205L41.916 40.1185ZM63.316 23.1625C62.0347 24.3638 60.5049 25.2688 58.8351 25.8135C57.2091 26.4525 55.5101 26.8325 53.7921 27.3265C52.8995 27.5666 52.039 27.9131 51.229 28.3585C50.4059 28.8123 49.7384 29.5033 49.313 30.3415L49.398 30.3975C50.6707 29.21 52.2988 28.4745 54.031 28.3045C55.2926 28.0707 56.5308 27.725 57.731 27.2715C57.9431 27.2715 58.153 27.2655 58.368 27.2485C58.677 27.1631 58.998 27.1293 59.3181 27.1485C59.6343 27.2141 59.9229 27.375 60.1451 27.6095C60.5661 27.9947 60.9307 28.4374 61.228 28.9245C61.4502 29.2548 61.5359 29.6583 61.467 30.0505C61.333 30.0375 61.198 30.0095 61.067 30.0045C59.8984 29.9858 58.7437 30.2608 57.709 30.8045L57.7361 30.9045C58.8225 30.7853 59.9177 30.7699 61.007 30.8585C62.0376 30.9563 63.0273 31.3104 63.886 31.8885C64.3372 32.1784 64.692 32.5958 64.9057 33.0877C65.1193 33.5796 65.1821 34.1238 65.086 34.6515C64.8194 35.5066 64.2956 36.2588 63.586 36.8055C62.7574 35.7619 61.6787 34.9443 60.45 34.4285C59.0924 33.8472 57.5931 33.6809 56.1411 33.9505V34.0505C56.4291 34.0965 56.71 34.1505 56.989 34.2175C57.5564 34.7478 58.0378 35.3632 58.416 36.0415C58.7362 36.65 58.9538 37.3071 59.06 37.9865C58.3015 38.2873 57.582 38.6785 56.9171 39.1515C56.1574 39.605 55.2541 39.754 54.389 39.5685C53.516 39.3884 52.7347 38.9056 52.183 38.2055C51.7195 37.4225 51.3166 36.6051 50.978 35.7605C50.7007 35.2846 50.2916 34.8991 49.8 34.6505C49.3245 34.4187 48.808 34.2828 48.28 34.2505C47.3022 34.2194 46.3266 34.3595 45.397 34.6645C43.6897 35.2019 42.1586 36.1896 40.965 37.5235C40.4036 37.1003 39.7911 36.7495 39.142 36.4795C40.3901 34.5499 41.8247 32.7476 43.425 31.0985C45.1403 29.3694 47.0004 27.7903 48.985 26.3785C50.97 24.9785 53.078 23.7275 55.129 22.3455C57.2427 21.0128 59.1898 19.4326 60.929 17.6385C62.6978 15.801 64.0007 13.5667 64.729 11.1225C65.0845 9.87851 65.1909 8.57661 65.0421 7.29146C64.9263 6.30502 64.5385 5.37021 63.922 4.59146C64.3308 4.99126 64.6882 5.44039 64.9861 5.92847C65.678 7.14979 66.0813 8.51325 66.165 9.91446C66.2063 12.6683 65.742 15.4063 64.795 17.9925C64.1391 17.9971 63.4927 18.15 62.9041 18.4395C61.9851 18.8772 61.2748 19.6582 60.9261 20.6145L61.015 20.6625C61.5731 19.9442 62.3276 19.4034 63.187 19.1055C63.8659 18.8666 64.594 18.8027 65.304 18.9195C65.0844 20.5026 64.3918 21.9825 63.317 23.1655L63.316 23.1625Z" fill="black"/>
</svg>
