<svg width="331" height="127" viewBox="0 0 331 127" fill="none" xmlns="http://www.w3.org/2000/svg">
<path d="M29.4447 71.5087L24.4691 56.7863H10.9736L5.72536 71.5087H10.8373V72.8037H0.408954V71.5087H3.61243L20.993 24.6835H26.582L43.7581 71.5087H46.8934V72.8037H24.6054V71.5087H29.4447ZM17.994 37.4292L11.587 55.2868H23.9238L17.994 37.4292ZM94.1089 25.0924L94.7905 42.2003H93.4955C91.4962 36.1569 89.724 32.0446 88.1791 29.8635C86.6342 27.637 84.4076 26.5238 81.4995 26.5238H80.6816V71.3724H86.4751V72.8037H61.5971V71.3724H67.3906V26.5238H66.5045C63.5964 26.5238 61.3472 27.6825 59.7568 29.9999C58.1664 32.2718 56.417 36.3386 54.5086 42.2003H53.2135L53.8951 25.0924H94.1089ZM108.942 25.0924H130.207V26.3874H126.254V47.5167H139.818V26.3874H135.796V25.0924H157.13V26.3874H153.109V71.5087H157.13V72.8037H135.796V71.5087H139.818V49.2889H126.254V71.5087H130.207V72.8037H108.942V71.5087H112.963V26.3874H108.942V25.0924ZM170.218 25.0924H205.661L206.342 38.5879H205.115C203.207 33.9985 201.208 30.8632 199.117 29.182C197.027 27.4553 193.96 26.5919 189.916 26.5919H187.53V47.653H189.848C191.983 47.653 193.778 46.8579 195.232 45.2675C196.686 43.6317 197.709 41.4506 198.3 38.7242H199.322V58.8993H198.163C197.345 55.4913 196.232 53.0603 194.823 51.6063C193.46 50.1522 191.575 49.4252 189.166 49.4252H187.53V71.3042H190.12C194.301 71.3042 197.845 70.0546 200.753 67.5555C203.707 65.0563 205.729 61.8528 206.819 57.945H208.183L207.637 72.8037H170.218V71.3042H174.239V26.5919H170.218V25.0924ZM261.757 26.3874V72.8037H252.215L228.836 28.7048V71.5087H232.585V72.8037H223.247V71.5087H226.996V26.3874H223.247V25.0924H242.059L259.917 59.3082V26.3874H256.168V25.0924H265.506V26.3874H261.757ZM299.58 72.054C301.852 72.054 303.851 71.4405 305.578 70.2137C307.35 68.9868 308.236 67.1465 308.236 64.6928C308.236 62.1936 307.282 60.2852 305.374 58.9674C303.511 57.6497 300.83 56.5137 297.331 55.5595C293.877 54.5598 291.356 53.6965 289.765 52.9694C288.22 52.2424 286.743 51.2882 285.335 50.1068C282.518 47.7439 281.109 44.0861 281.109 39.1332C281.109 35.0891 282.54 31.613 285.403 28.7048C288.311 25.7967 292.264 24.3427 297.263 24.3427C299.671 24.3427 302.17 24.7062 304.76 25.4332C307.396 26.1148 309.031 26.4556 309.668 26.4556C310.304 26.4556 310.872 26.0012 311.372 25.0924H312.121L312.598 38.8605H311.508C309.327 34.9073 307.032 31.7493 304.624 29.3864C302.261 26.9781 299.671 25.774 296.854 25.774C294.082 25.774 291.924 26.4329 290.379 27.7506C288.834 29.0229 288.061 30.7496 288.061 32.9307C288.061 35.0663 288.97 36.7249 290.788 37.9063C292.651 39.0423 294.923 39.9738 297.603 40.7008C300.284 41.4279 302.034 41.9277 302.852 42.2003C303.715 42.473 304.76 42.8592 305.987 43.359C307.259 43.8134 308.282 44.3132 309.054 44.8585C309.872 45.3584 310.713 46.0172 311.576 46.8351C312.485 47.6076 313.189 48.4709 313.689 49.4252C314.916 51.6063 315.529 54.1963 315.529 57.1953C315.529 62.1027 313.984 66.056 310.894 69.055C307.85 72.0085 303.829 73.4853 298.83 73.4853C296.24 73.4853 293.264 73.1445 289.902 72.4629C286.584 71.7813 284.744 71.4405 284.381 71.4405C283.744 71.4405 283.131 72.1221 282.54 73.4853H281.586L280.905 57.2635H282.063C284.063 61.2167 286.607 64.6701 289.697 67.6236C292.832 70.5772 296.127 72.054 299.58 72.054Z" fill="#FCFFF7"/>
<path d="M216.793 96.2168C217.71 94.4906 218.694 92.4402 219.744 90.0656C220.842 87.6783 221.796 85.2276 222.604 82.7134C223.4 80.1515 223.999 77.6167 224.401 75.1092C224.803 72.6016 224.784 70.3342 224.344 68.307C224.296 68.3198 224.242 68.3087 224.182 68.2738C223.273 68.3125 222.385 68.5245 221.518 68.9096C220.638 69.247 219.813 69.6972 219.045 70.2602C218.276 70.8232 217.52 71.4339 216.777 72.0922C216.034 72.7505 215.338 73.3961 214.69 74.0289C213.382 75.2469 211.981 76.6938 210.489 78.3695C208.996 80.0452 207.53 81.8163 206.088 83.6827C204.634 85.5014 203.264 87.3486 201.978 89.2244C200.74 91.0875 199.697 92.8217 198.85 94.4271L198.921 94.4079C198.702 94.9261 198.444 95.5825 198.146 96.3771C197.882 97.1114 197.656 97.887 197.466 98.7038C197.275 99.5206 197.181 100.312 197.181 101.078C197.182 101.844 197.354 102.487 197.697 103.008C198.632 103.83 200.036 104.4 201.908 104.716C203.827 105.02 205.931 105.249 208.219 105.403C210.542 105.497 212.926 105.626 215.37 105.789C217.801 105.905 220.049 106.198 222.115 106.667C224.229 107.123 225.988 107.878 227.393 108.932C228.834 109.926 229.677 111.36 229.923 113.235C230.044 114.07 229.949 114.862 229.638 115.609C229.375 116.343 228.974 117.038 228.434 117.693C227.929 118.287 227.364 118.847 226.738 119.372C226.112 119.896 225.504 120.391 224.913 120.855C224.157 121.466 223.313 122.126 222.379 122.835C221.505 123.58 220.559 124.241 219.539 124.82C218.58 125.434 217.589 125.929 216.566 126.305C215.543 126.68 214.48 126.811 213.377 126.698C211.937 126.47 210.464 126.021 208.957 125.352C207.463 124.73 206.254 123.93 205.328 122.952C204.39 121.926 203.911 120.803 203.891 119.583C203.906 118.302 204.715 116.937 206.319 115.486L211.632 118.738C211.009 119.467 210.482 120.169 210.051 120.846C209.619 121.524 209.473 122.124 209.613 122.649C210.687 122.463 211.777 122.147 212.883 121.698C214.023 121.189 215.097 120.621 216.104 119.994C217.158 119.354 218.146 118.656 219.067 117.899C220.036 117.13 220.927 116.355 221.74 115.576C221.87 115.49 222.105 115.223 222.445 114.775C222.832 114.314 223.213 113.829 223.588 113.32C223.95 112.764 224.223 112.257 224.407 111.799C224.578 111.294 224.513 110.954 224.211 110.779C222.733 110.408 221.077 110.136 219.243 109.962C217.444 109.728 215.699 109.506 214.009 109.294C212.162 109.073 210.231 108.823 208.217 108.545C206.249 108.254 204.25 107.843 202.219 107.314C201.281 107.054 200.253 106.742 199.134 106.377C198.05 105.952 196.995 105.443 195.968 104.849C194.941 104.256 194.038 103.552 193.259 102.739C192.433 101.939 191.866 100.967 191.56 99.8232C191.191 98.4411 191.226 96.9507 191.667 95.3519C192.095 93.7055 192.658 92.2783 193.356 91.0702C196.267 86.1045 199.594 81.3593 203.338 76.8347C207.129 72.2973 211.445 68.3857 216.286 65.0997C218.211 64.2785 220.116 64.05 222.001 64.4142C223.885 64.7784 225.604 65.5701 227.155 66.7893C227.896 67.4593 228.505 68.1135 228.982 68.752C229.507 69.3776 229.889 70.0416 230.128 70.7437C230.366 71.4458 230.499 72.2275 230.525 73.0887C230.551 73.9499 230.483 74.9382 230.322 76.0537C229.778 80.1313 228.839 84.1614 227.503 88.1441C226.155 92.0792 224.447 95.9065 222.377 99.626L216.793 96.2168ZM231.449 78.8929C232.545 78.5998 233.529 78.3624 234.399 78.1807C235.305 77.9386 236.169 77.733 236.992 77.564C237.474 75.5458 237.882 73.8279 238.218 72.4103C238.589 70.9324 238.835 69.8454 238.955 69.1493L244.133 71.901C243.997 72.346 243.821 72.9293 243.606 73.6508C243.425 74.3119 243.252 75.0985 243.088 76.0107C243.183 75.9852 243.302 75.9533 243.445 75.9151C243.575 75.8292 243.712 75.7672 243.855 75.7289L245.626 79.7747C244.876 80.0263 244.222 80.2523 243.663 80.4529C243.138 80.5931 242.614 80.7333 242.09 80.8735C241.707 83.0696 241.357 85.4866 241.041 88.1244C240.76 90.7018 240.587 93.3014 240.522 95.9232C240.457 98.5449 240.553 101.098 240.809 103.583C241.099 106.008 241.649 108.159 242.458 110.036C242.858 109.623 243.258 108.827 243.657 107.647C244.104 106.455 244.537 105.114 244.956 103.623C245.422 102.12 245.845 100.551 246.225 98.9176C246.653 97.2712 247.065 95.7567 247.462 94.3741L252.569 97.1449C252.401 97.8536 252.201 98.8262 251.97 100.063C251.726 101.251 251.43 102.53 251.081 103.9C250.72 105.223 250.257 106.546 249.692 107.872C249.175 109.185 248.535 110.326 247.773 111.296C246.999 112.218 246.106 112.891 245.096 113.314C244.086 113.737 242.9 113.697 241.54 113.192C239.289 112.415 237.644 110.94 236.603 108.767C235.55 106.547 234.892 103.991 234.629 101.099C234.354 98.1598 234.369 95.0662 234.675 91.8182C235.029 88.5575 235.493 85.4206 236.066 82.4077L234.922 82.7135L231.449 78.8929ZM246.103 99.4099C246.563 97.4997 247.121 95.3844 247.777 93.0642C248.373 90.709 248.973 88.276 249.578 85.765C248.703 84.2117 248.41 82.7326 248.698 81.3278C249.021 79.8626 249.618 78.6562 250.488 77.7086C251.346 76.7134 252.333 76.0152 253.452 75.614C254.618 75.2001 255.587 75.1963 256.359 75.6025C257.119 75.9611 257.558 76.8395 257.677 78.2376C257.783 79.5881 257.258 81.5413 256.103 84.097C256.812 84.265 257.347 84.4537 257.71 84.6632C258.072 84.8727 258.406 85.1664 258.711 85.5444C259.052 85.8619 259.424 86.2986 259.828 86.8545C260.267 87.3499 260.876 88.0041 261.655 88.8171C262.494 89.6651 262.967 90.7643 263.073 92.1148C263.213 93.4049 263.17 94.7698 262.942 96.2095C262.762 97.6365 262.528 99.0524 262.239 100.457C261.938 101.814 261.766 102.984 261.722 103.966C262.713 103.088 263.515 101.98 264.127 100.642C264.787 99.2908 265.339 97.9176 265.783 96.5222C266.214 95.0792 266.58 93.6791 266.881 92.3219C267.23 90.952 267.565 89.8157 267.885 88.913L273.083 91.7362C272.921 92.0859 272.751 92.6929 272.574 93.5574C272.384 94.3743 272.136 95.3596 271.832 96.5133C271.563 97.6067 271.235 98.7668 270.848 99.9937C270.509 101.208 270.096 102.339 269.611 103.389C269.173 104.425 268.656 105.355 268.059 106.178C267.449 106.954 266.777 107.593 266.044 108.096C265.358 108.586 264.597 108.891 263.761 109.012C262.96 109.073 262.161 108.853 261.363 108.352C260.819 108.037 260.276 107.723 259.732 107.409C259.236 107.082 258.74 106.755 258.244 106.428C257.615 105.983 257.179 105.308 256.937 104.403C256.729 103.437 256.622 102.368 256.615 101.195C256.656 100.01 256.761 98.7814 256.932 97.5101C257.09 96.1912 257.243 94.9502 257.392 93.787C257.588 92.6111 257.721 91.5798 257.79 90.6931C257.859 89.8064 257.795 89.1852 257.598 88.8294C257.166 88.7407 256.71 88.6584 256.23 88.5825C255.737 88.4589 255.257 88.3829 254.79 88.3546C254.644 88.9553 254.492 89.5322 254.334 90.0853C254.223 90.6256 254.106 91.1421 253.982 91.6347C253.58 93.3764 253.141 95.0769 252.665 96.736C252.225 98.3348 251.744 100.072 251.224 101.947L246.103 99.4099ZM273.348 96.4144C273.336 97.8985 273.393 99.1601 273.517 100.199C273.69 101.225 273.855 101.845 274.014 102.058C274.688 102.286 275.389 102.329 276.117 102.185C276.831 101.994 277.521 101.707 278.185 101.326C278.849 100.944 279.47 100.497 280.048 99.985C280.626 99.473 281.126 98.9562 281.548 98.4348C282.405 97.4395 283.112 96.357 283.667 95.1872C284.21 93.9697 284.674 92.7475 285.061 91.5206C285.483 90.2333 285.851 88.9349 286.165 87.6254C286.478 86.3159 286.846 85.0175 287.268 83.7302L292.322 86.5916C291.955 88.2729 291.605 89.9241 291.272 91.545C290.94 93.1659 290.493 94.7408 289.931 96.2697C289.405 97.7383 288.697 99.102 287.808 100.361C286.967 101.607 285.847 102.673 284.45 103.557C283.481 104.327 282.472 104.852 281.424 105.132C280.423 105.4 279.401 105.494 278.359 105.415C277.364 105.324 276.355 105.083 275.332 104.693C274.356 104.29 273.378 103.785 272.399 103.179C271.528 102.595 270.733 101.914 270.014 101.136C269.296 100.358 268.731 99.4874 268.32 98.5247C267.76 97.1936 267.456 95.7686 267.407 94.2496C267.311 92.7434 267.418 91.2338 267.728 89.7209C267.991 88.2208 268.422 86.7778 269.022 85.3918C269.656 83.9455 270.407 82.6468 271.274 81.4959C272.972 79.2544 274.754 78.0885 276.62 77.9982C278.485 77.908 280.524 78.5628 282.737 79.9628C283.875 80.7819 284.588 81.9191 284.875 83.3743C284.999 84.4134 284.832 85.5051 284.372 86.6494C283.946 87.7334 283.49 88.6981 283.001 89.5438C281.922 91.6196 280.76 93.3857 279.515 94.842C278.27 96.2983 276.903 97.5831 275.413 98.6963L273.348 96.4144ZM279.249 81.8146C278.181 82.4064 277.284 83.157 276.557 84.0664C275.878 84.963 275.308 85.9834 274.848 87.1278C274.423 88.2117 274.095 89.3718 273.864 90.6082C273.68 91.8318 273.527 93.0728 273.404 94.3313C274.013 93.5555 274.669 92.6653 275.371 91.6606C276.072 90.6559 276.713 89.6163 277.294 88.5418C277.91 87.4069 278.4 86.2801 278.765 85.1612C279.117 83.9947 279.278 82.8792 279.249 81.8146ZM292.826 91.2062C292.814 92.6903 292.87 93.9519 292.995 94.9909C293.167 96.0173 293.333 96.6368 293.492 96.8496C294.166 97.078 294.867 97.1204 295.594 96.9769C296.309 96.7858 296.999 96.4993 297.663 96.1175C298.326 95.7357 298.947 95.2888 299.525 94.7768C300.103 94.2647 300.604 93.748 301.026 93.2266C301.883 92.2313 302.59 91.1488 303.145 89.979C303.688 88.7615 304.152 87.5393 304.539 86.3124C304.961 85.0251 305.329 83.7267 305.642 82.4172C305.956 81.1077 306.324 79.8093 306.746 78.522L311.8 81.3834C311.433 83.0647 311.083 84.7159 310.75 86.3368C310.418 87.9577 309.971 89.5326 309.409 91.0615C308.883 92.5301 308.175 93.8938 307.286 95.1529C306.445 96.3991 305.325 97.4645 303.928 98.3489C302.959 99.1186 301.95 99.6436 300.902 99.9239C299.901 100.192 298.879 100.286 297.837 100.207C296.842 100.116 295.833 99.8749 294.81 99.4848C293.834 99.0818 292.856 98.5772 291.877 97.9709C291.006 97.3868 290.211 96.7057 289.492 95.9276C288.773 95.1495 288.209 94.2792 287.798 93.3165C287.238 91.9854 286.934 90.5604 286.885 89.0414C286.789 87.5351 286.896 86.0256 287.206 84.5127C287.469 83.0126 287.9 81.5696 288.5 80.1836C289.134 78.7373 289.885 77.4386 290.752 76.2877C292.45 74.0462 294.232 72.8803 296.098 72.79C297.963 72.6998 300.002 73.3546 302.215 74.7546C303.353 75.5737 304.065 76.7109 304.352 78.1661C304.477 79.2052 304.309 80.2969 303.849 81.4412C303.424 82.5251 302.967 83.4899 302.479 84.3356C301.399 86.4114 300.238 88.1775 298.993 89.6338C297.748 91.0901 296.381 92.3749 294.891 93.4881L292.826 91.2062ZM298.727 76.6064C297.659 77.1982 296.762 77.9488 296.035 78.8582C295.355 79.7548 294.786 80.7752 294.326 81.9196C293.901 83.0035 293.573 84.1636 293.341 85.4C293.158 86.6236 293.005 87.8646 292.882 89.1231C293.491 88.3473 294.147 87.4571 294.848 86.4524C295.55 85.4477 296.191 84.4081 296.772 83.3336C297.388 82.1987 297.878 81.0719 298.243 79.953C298.595 78.7865 298.756 77.671 298.727 76.6064ZM303.705 59.5722C304.802 59.2791 305.785 59.0416 306.656 58.8599C307.561 58.6178 308.425 58.4122 309.248 58.2433C309.73 56.225 310.139 54.5071 310.475 53.0896C310.845 51.6116 311.091 50.5246 311.211 49.8286L316.39 52.5803C316.254 53.0253 316.078 53.6085 315.862 54.33C315.681 54.9911 315.509 55.7778 315.344 56.6899C315.439 56.6644 315.558 56.6326 315.701 56.5944C315.832 56.5085 315.968 56.4464 316.111 56.4082L317.882 60.454C317.133 60.7055 316.478 60.9316 315.919 61.1322C315.395 61.2723 314.87 61.4125 314.346 61.5527C313.963 63.7488 313.614 66.1658 313.298 68.8036C313.017 71.3811 312.844 73.9807 312.779 76.6024C312.714 79.2242 312.809 81.7775 313.065 84.2624C313.356 86.6869 313.905 88.8379 314.714 90.7155C315.114 90.3021 315.514 89.5058 315.914 88.3265C316.361 87.1345 316.794 85.7932 317.212 84.3025C317.678 82.7991 318.101 81.2305 318.482 79.5969C318.91 77.9504 319.322 76.4359 319.718 75.0533L324.825 77.8241C324.657 78.5329 324.458 79.5054 324.226 80.7418C323.983 81.9304 323.686 83.2097 323.338 84.5796C322.976 85.9018 322.513 87.2257 321.948 88.5513C321.431 89.864 320.792 91.0053 320.03 91.9751C319.255 92.8972 318.362 93.5699 317.352 93.9932C316.342 94.4166 315.157 94.3761 313.796 93.8717C311.546 93.0947 309.9 91.6197 308.86 89.4467C307.806 87.2261 307.148 84.67 306.886 81.7783C306.61 78.839 306.626 75.7454 306.932 72.4974C307.286 69.2367 307.749 66.0999 308.322 63.0869L307.178 63.3928L303.705 59.5722Z" fill="#083D68"/>
</svg>
