<svg width="350" height="160" viewBox="0 0 350 160" fill="none" xmlns="http://www.w3.org/2000/svg">
<path d="M39.4447 79.705L34.4691 64.9826H20.9736L15.7254 79.705H20.8373V81H10.409V79.705H13.6124L30.993 32.8797H36.582L53.7581 79.705H56.8934V81H34.6054V79.705H39.4447ZM27.994 45.6255L21.587 63.4831H33.9238L27.994 45.6255ZM104.109 33.2887L104.791 50.3966H103.496C101.496 44.3532 99.724 40.2409 98.1791 38.0598C96.6342 35.8333 94.4076 34.72 91.4995 34.72H90.6816V79.5687H96.4751V81H71.5971V79.5687H77.3906V34.72H76.5045C73.5964 34.72 71.3472 35.8787 69.7568 38.1961C68.1664 40.4681 66.417 44.5349 64.5086 50.3966H63.2135L63.8951 33.2887H104.109ZM118.942 33.2887H140.207V34.5837H136.254V55.713H149.818V34.5837H145.796V33.2887H167.13V34.5837H163.109V79.705H167.13V81H145.796V79.705H149.818V57.4851H136.254V79.705H140.207V81H118.942V79.705H122.963V34.5837H118.942V33.2887ZM180.218 33.2887H215.661L216.342 46.7842H215.115C213.207 42.1948 211.208 39.0595 209.117 37.3782C207.027 35.6515 203.96 34.7882 199.916 34.7882H197.53V55.8493H199.848C201.983 55.8493 203.778 55.0541 205.232 53.4638C206.686 51.8279 207.709 49.6469 208.3 46.9205H209.322V67.0956H208.163C207.345 63.6876 206.232 61.2566 204.823 59.8026C203.46 58.3485 201.575 57.6215 199.166 57.6215H197.53V79.5005H200.12C204.301 79.5005 207.845 78.2509 210.753 75.7518C213.707 73.2526 215.729 70.0491 216.819 66.1413H218.183L217.637 81H180.218V79.5005H184.239V34.7882H180.218V33.2887ZM271.757 34.5837V81H262.215L238.836 36.9011V79.705H242.585V81H233.247V79.705H236.996V34.5837H233.247V33.2887H252.059L269.917 67.5045V34.5837H266.168V33.2887H275.506V34.5837H271.757ZM309.58 80.2503C311.852 80.2503 313.851 79.6368 315.578 78.41C317.35 77.1831 318.236 75.3428 318.236 72.8891C318.236 70.3899 317.282 68.4815 315.374 67.1637C313.511 65.846 310.83 64.71 307.331 63.7558C303.877 62.7561 301.356 61.8928 299.765 61.1657C298.22 60.4387 296.743 59.4845 295.335 58.3031C292.518 55.9402 291.109 52.2823 291.109 47.3295C291.109 43.2854 292.54 39.8092 295.403 36.9011C298.311 33.993 302.264 32.539 307.263 32.539C309.671 32.539 312.17 32.9025 314.76 33.6295C317.396 34.3111 319.031 34.6519 319.668 34.6519C320.304 34.6519 320.872 34.1975 321.372 33.2887H322.121L322.598 47.0568H321.508C319.327 43.1036 317.032 39.9456 314.624 37.5827C312.261 35.1744 309.671 33.9703 306.854 33.9703C304.082 33.9703 301.924 34.6292 300.379 35.9469C298.834 37.2192 298.061 38.9459 298.061 41.127C298.061 43.2626 298.97 44.9212 300.788 46.1026C302.651 47.2386 304.923 48.1701 307.603 48.8971C310.284 49.6241 312.034 50.124 312.852 50.3966C313.715 50.6692 314.76 51.0555 315.987 51.5553C317.259 52.0097 318.282 52.5095 319.054 53.0548C319.872 53.5546 320.713 54.2135 321.576 55.0314C322.485 55.8039 323.189 56.6672 323.689 57.6215C324.916 59.8026 325.529 62.3926 325.529 65.3916C325.529 70.299 323.984 74.2523 320.894 77.2513C317.85 80.2048 313.829 81.6816 308.83 81.6816C306.24 81.6816 303.264 81.3408 299.902 80.6592C296.584 79.9776 294.744 79.6368 294.381 79.6368C293.744 79.6368 293.131 80.3184 292.54 81.6816H291.586L290.905 65.4597H292.063C294.063 69.413 296.607 72.8664 299.697 75.8199C302.832 78.7735 306.127 80.2503 309.58 80.2503Z" fill="#FCFFF7"/>
<path d="M225.654 123.444C226.692 121.788 227.82 119.813 229.037 117.519C230.303 115.216 231.428 112.84 232.414 110.39C233.391 107.891 234.17 105.406 234.749 102.933C235.329 100.461 235.472 98.1978 235.178 96.1444C235.13 96.1537 235.077 96.1388 235.019 96.0997C234.109 96.0734 233.209 96.2214 232.316 96.5436C231.414 96.8174 230.56 97.2076 229.753 97.7143C228.946 98.221 228.148 98.7762 227.36 99.3797C226.572 99.9833 225.832 100.578 225.141 101.163C223.749 102.284 222.248 103.627 220.64 105.192C219.032 106.757 217.442 108.419 215.871 110.178C214.291 111.888 212.793 113.633 211.376 115.412C210.008 117.182 208.844 118.837 207.885 120.378L207.957 120.364C207.702 120.865 207.397 121.501 207.043 122.273C206.728 122.986 206.446 123.744 206.199 124.545C205.951 125.346 205.8 126.129 205.745 126.893C205.691 127.657 205.817 128.311 206.122 128.855C206.996 129.742 208.355 130.41 210.2 130.859C212.093 131.299 214.175 131.678 216.446 131.995C218.757 132.254 221.125 132.553 223.551 132.891C225.968 133.18 228.19 133.632 230.217 134.247C232.292 134.853 233.993 135.732 235.32 136.883C236.686 137.977 237.424 139.468 237.536 141.356C237.597 142.198 237.446 142.981 237.082 143.703C236.767 144.417 236.317 145.081 235.732 145.696C235.186 146.253 234.582 146.771 233.921 147.25C233.259 147.728 232.617 148.178 231.995 148.599C231.197 149.155 230.308 149.752 229.325 150.393C228.401 151.073 227.41 151.666 226.351 152.17C225.351 152.714 224.327 153.137 223.28 153.439C222.232 153.741 221.163 153.795 220.071 153.603C218.651 153.273 217.214 152.721 215.759 151.945C214.313 151.218 213.163 150.334 212.31 149.292C211.448 148.202 211.05 147.048 211.117 145.829C211.224 144.553 212.128 143.249 213.832 141.917L218.898 145.54C218.226 146.222 217.65 146.885 217.171 147.529C216.692 148.174 216.503 148.763 216.606 149.296C217.69 149.188 218.8 148.95 219.935 148.581C221.109 148.154 222.22 147.664 223.269 147.111C224.367 146.549 225.402 145.923 226.375 145.233C227.396 144.535 228.34 143.826 229.206 143.107C229.342 143.031 229.596 142.781 229.967 142.358C230.386 141.926 230.801 141.469 231.211 140.989C231.611 140.46 231.92 139.973 232.136 139.53C232.343 139.038 232.302 138.694 232.013 138.498C230.566 138.023 228.933 137.633 227.117 137.329C225.339 136.968 223.615 136.621 221.943 136.289C220.117 135.936 218.21 135.55 216.22 135.128C214.278 134.697 212.313 134.146 210.325 133.473C209.409 133.146 208.405 132.761 207.315 132.318C206.264 131.816 205.248 131.233 204.266 130.568C203.284 129.902 202.434 129.136 201.715 128.27C200.947 127.413 200.452 126.403 200.228 125.24C199.958 123.835 200.1 122.351 200.654 120.788C201.198 119.176 201.862 117.793 202.645 116.637C205.902 111.892 209.56 107.397 213.617 103.151C217.722 98.8957 222.307 95.3021 227.37 92.37C229.348 91.6884 231.265 91.5964 233.119 92.0942C234.973 92.592 236.63 93.5043 238.091 94.8312C238.782 95.5524 239.343 96.2485 239.773 96.9193C240.252 97.5809 240.585 98.2703 240.773 98.9877C240.961 99.7051 241.037 100.494 241.002 101.355C240.966 102.216 240.828 103.197 240.588 104.298C239.754 108.326 238.53 112.279 236.913 116.156C235.288 119.985 233.311 123.681 230.981 127.243L225.654 123.444ZM241.509 107.21C242.624 106.996 243.622 106.83 244.503 106.711C245.423 106.534 246.3 106.39 247.133 106.281C247.758 104.302 248.288 102.618 248.724 101.228C249.2 99.7799 249.522 98.7132 249.692 98.0276L254.661 101.142C254.493 101.576 254.276 102.145 254.009 102.85C253.782 103.496 253.553 104.268 253.324 105.166C253.421 105.148 253.542 105.125 253.687 105.097C253.823 105.02 253.964 104.968 254.109 104.94L255.587 109.102C254.821 109.299 254.153 109.478 253.58 109.638C253.048 109.741 252.515 109.843 251.982 109.946C251.443 112.109 250.922 114.495 250.418 117.103C249.954 119.654 249.596 122.235 249.344 124.845C249.092 127.455 249.005 130.009 249.083 132.506C249.2 134.945 249.594 137.13 250.267 139.06C250.695 138.676 251.151 137.911 251.634 136.763C252.165 135.606 252.693 134.299 253.216 132.842C253.789 131.376 254.323 129.841 254.819 128.239C255.363 126.627 255.882 125.146 256.376 123.795L261.272 126.923C261.054 127.618 260.786 128.574 260.467 129.791C260.139 130.959 259.752 132.214 259.306 133.556C258.852 134.849 258.295 136.136 257.637 137.418C257.028 138.69 256.308 139.783 255.479 140.696C254.64 141.56 253.702 142.168 252.664 142.518C251.626 142.868 250.447 142.743 249.126 142.143C246.937 141.207 245.401 139.618 244.518 137.377C243.626 135.087 243.152 132.49 243.096 129.587C243.032 126.636 243.268 123.551 243.805 120.333C244.39 117.106 245.077 114.01 245.863 111.046L244.701 111.269L241.509 107.21ZM254.662 128.721C255.256 126.849 255.964 124.779 256.784 122.511C257.546 120.204 258.319 117.821 259.102 115.359C258.34 113.747 258.153 112.251 258.541 110.87C258.968 109.432 259.649 108.271 260.585 107.388C261.511 106.457 262.546 105.831 263.69 105.511C264.883 105.181 265.85 105.246 266.591 105.707C267.323 106.119 267.699 107.026 267.717 108.429C267.726 109.784 267.064 111.694 265.729 114.161C266.424 114.379 266.945 114.606 267.291 114.841C267.638 115.075 267.95 115.392 268.227 115.791C268.544 116.132 268.884 116.594 269.247 117.177C269.65 117.703 270.211 118.399 270.93 119.266C271.706 120.171 272.099 121.301 272.109 122.656C272.157 123.953 272.016 125.311 271.686 126.731C271.404 128.141 271.07 129.537 270.682 130.918C270.285 132.25 270.029 133.404 269.916 134.38C270.967 133.576 271.845 132.528 272.552 131.237C273.306 129.936 273.955 128.606 274.498 127.246C275.031 125.837 275.496 124.467 275.893 123.135C276.338 121.793 276.753 120.684 277.137 119.806L282.12 122.993C281.934 123.33 281.721 123.924 281.482 124.773C281.235 125.574 280.918 126.54 280.532 127.669C280.185 128.74 279.775 129.874 279.301 131.07C278.876 132.257 278.384 133.356 277.825 134.368C277.315 135.37 276.732 136.261 276.078 137.039C275.415 137.77 274.699 138.359 273.931 138.808C273.212 139.248 272.431 139.498 271.589 139.56C270.786 139.563 270.004 139.287 269.244 138.729C268.724 138.377 268.204 138.025 267.685 137.673C267.213 137.311 266.742 136.949 266.271 136.588C265.674 136.1 265.288 135.395 265.111 134.475C264.973 133.497 264.943 132.422 265.019 131.252C265.144 130.073 265.337 128.855 265.598 127.599C265.85 126.295 266.092 125.068 266.323 123.918C266.603 122.76 266.809 121.74 266.941 120.861C267.073 119.981 267.054 119.357 266.883 118.988C266.458 118.869 266.009 118.754 265.535 118.644C265.053 118.486 264.58 118.376 264.116 118.314C263.927 118.903 263.734 119.468 263.537 120.008C263.388 120.539 263.234 121.046 263.075 121.528C262.55 123.237 261.991 124.902 261.398 126.523C260.844 128.086 260.241 129.784 259.589 131.617L254.662 128.721ZM282.051 127.678C281.933 129.158 281.899 130.42 281.949 131.465C282.048 132.501 282.169 133.131 282.313 133.355C282.968 133.631 283.664 133.723 284.4 133.632C285.127 133.492 285.835 133.256 286.525 132.922C287.214 132.589 287.865 132.187 288.478 131.718C289.092 131.248 289.627 130.769 290.086 130.279C291.012 129.347 291.794 128.318 292.431 127.191C293.059 126.015 293.61 124.829 294.084 123.633C294.596 122.379 295.056 121.11 295.462 119.826C295.868 118.543 296.328 117.274 296.84 116.02L301.678 119.235C301.191 120.886 300.724 122.508 300.277 124.101C299.83 125.694 299.271 127.233 298.602 128.718C297.972 130.145 297.169 131.455 296.192 132.647C295.264 133.83 294.072 134.813 292.614 135.595C291.593 136.294 290.55 136.745 289.484 136.95C288.466 137.146 287.441 137.167 286.407 137.014C285.421 136.852 284.432 136.539 283.438 136.077C282.494 135.606 281.555 135.033 280.621 134.358C279.794 133.713 279.05 132.977 278.389 132.15C277.727 131.322 277.226 130.414 276.885 129.424C276.422 128.057 276.22 126.613 276.28 125.095C276.291 123.586 276.505 122.087 276.923 120.601C277.292 119.123 277.825 117.715 278.522 116.375C279.259 114.978 280.1 113.736 281.047 112.65C282.901 110.535 284.762 109.499 286.629 109.543C288.496 109.586 290.483 110.384 292.59 111.939C293.667 112.837 294.296 114.022 294.479 115.494C294.529 116.539 294.284 117.616 293.743 118.725C293.242 119.776 292.717 120.706 292.169 121.514C290.945 123.508 289.66 125.186 288.314 126.55C286.969 127.914 285.513 129.098 283.948 130.102L282.051 127.678ZM288.979 113.537C287.872 114.051 286.923 114.736 286.133 115.591C285.391 116.437 284.75 117.414 284.21 118.522C283.708 119.573 283.298 120.707 282.979 121.924C282.709 123.131 282.468 124.358 282.255 125.604C282.918 124.874 283.636 124.033 284.408 123.081C285.179 122.129 285.893 121.138 286.549 120.107C287.244 119.019 287.813 117.93 288.257 116.84C288.691 115.702 288.932 114.601 288.979 113.537ZM301.851 123.874C301.733 125.353 301.699 126.616 301.749 127.661C301.848 128.697 301.969 129.327 302.112 129.55C302.768 129.826 303.464 129.918 304.2 129.827C304.927 129.688 305.635 129.451 306.324 129.118C307.014 128.784 307.665 128.383 308.278 127.913C308.891 127.444 309.427 126.964 309.886 126.474C310.812 125.543 311.594 124.513 312.231 123.386C312.859 122.211 313.41 121.025 313.883 119.828C314.396 118.575 314.856 117.306 315.262 116.022C315.668 114.738 316.128 113.469 316.64 112.215L321.478 115.43C320.991 117.081 320.524 118.703 320.077 120.296C319.629 121.889 319.071 123.428 318.402 124.913C317.772 126.34 316.969 127.65 315.992 128.842C315.064 130.026 313.871 131.008 312.414 131.791C311.393 132.489 310.35 132.941 309.284 133.146C308.266 133.341 307.241 133.362 306.206 133.209C305.221 133.047 304.231 132.735 303.238 132.273C302.294 131.801 301.355 131.228 300.421 130.553C299.594 129.909 298.85 129.172 298.189 128.345C297.527 127.518 297.026 126.609 296.685 125.62C296.222 124.252 296.02 122.809 296.079 121.29C296.091 119.781 296.305 118.283 296.723 116.796C297.092 115.319 297.625 113.91 298.322 112.57C299.059 111.173 299.9 109.931 300.847 108.845C302.701 106.731 304.562 105.695 306.429 105.738C308.296 105.781 310.283 106.58 312.39 108.134C313.467 109.032 314.096 110.218 314.279 111.69C314.329 112.735 314.084 113.812 313.543 114.92C313.042 115.971 312.517 116.901 311.969 117.71C310.745 119.703 309.46 121.382 308.114 122.745C306.769 124.109 305.313 125.293 303.748 126.297L301.851 123.874ZM308.779 109.732C307.672 110.246 306.723 110.931 305.933 111.786C305.191 112.632 304.55 113.609 304.01 114.718C303.508 115.769 303.098 116.902 302.779 118.119C302.509 119.326 302.268 120.553 302.055 121.8C302.718 121.07 303.436 120.228 304.207 119.276C304.979 118.324 305.693 117.333 306.349 116.303C307.044 115.215 307.613 114.126 308.057 113.036C308.491 111.897 308.732 110.796 308.779 109.732ZM314.961 93.097C316.075 92.8828 317.073 92.7162 317.954 92.5971C318.875 92.4203 319.751 92.2769 320.584 92.1671C321.209 90.1884 321.739 88.504 322.175 87.1141C322.651 85.6664 322.973 84.5997 323.143 83.914L328.112 87.0284C327.944 87.4625 327.727 88.0317 327.46 88.736C327.233 89.3825 327.005 90.1548 326.775 91.0529C326.872 91.0343 326.993 91.011 327.139 90.9831C327.275 90.9067 327.415 90.8545 327.561 90.8266L329.039 94.9885C328.273 95.1859 327.604 95.3647 327.032 95.5248C326.499 95.6272 325.966 95.7296 325.433 95.832C324.894 97.9952 324.373 100.381 323.869 102.99C323.405 105.54 323.047 108.121 322.795 110.731C322.543 113.342 322.456 115.896 322.534 118.392C322.651 120.831 323.046 123.016 323.718 124.947C324.147 124.563 324.602 123.797 325.085 122.649C325.616 121.492 326.144 120.185 326.668 118.728C327.24 117.262 327.774 115.728 328.27 114.125C328.814 112.514 329.333 111.032 329.827 109.682L334.724 112.81C334.505 113.505 334.237 114.461 333.918 115.677C333.59 116.846 333.203 118.101 332.758 119.442C332.303 120.735 331.746 122.023 331.088 123.304C330.479 124.577 329.76 125.67 328.93 126.583C328.092 127.447 327.153 128.054 326.116 128.404C325.078 128.755 323.898 128.629 322.577 128.029C320.388 127.094 318.852 125.505 317.969 123.263C317.077 120.973 316.603 118.377 316.548 115.474C316.483 112.522 316.719 109.437 317.256 106.22C317.842 102.992 318.528 99.8967 319.315 96.9323L318.152 97.1557L314.961 93.097Z" fill="#083D68"/>
</svg>
