<svg width="331" height="156" viewBox="0 0 331 156" fill="none" xmlns="http://www.w3.org/2000/svg">
<path d="M29.4447 71.5087L24.4691 56.7863H10.9736L5.72536 71.5087H10.8373V72.8037H0.408954V71.5087H3.61243L20.993 24.6835H26.582L43.7581 71.5087H46.8934V72.8037H24.6054V71.5087H29.4447ZM17.994 37.4292L11.587 55.2868H23.9238L17.994 37.4292ZM94.1089 25.0924L94.7905 42.2003H93.4955C91.4962 36.1569 89.724 32.0446 88.1791 29.8635C86.6342 27.637 84.4076 26.5238 81.4995 26.5238H80.6816V71.3724H86.4751V72.8037H61.5971V71.3724H67.3906V26.5238H66.5045C63.5964 26.5238 61.3472 27.6825 59.7568 29.9999C58.1664 32.2718 56.417 36.3386 54.5086 42.2003H53.2135L53.8951 25.0924H94.1089ZM108.942 25.0924H130.207V26.3874H126.254V47.5167H139.818V26.3874H135.796V25.0924H157.13V26.3874H153.109V71.5087H157.13V72.8037H135.796V71.5087H139.818V49.2889H126.254V71.5087H130.207V72.8037H108.942V71.5087H112.963V26.3874H108.942V25.0924ZM170.218 25.0924H205.661L206.342 38.5879H205.115C203.207 33.9985 201.208 30.8632 199.117 29.182C197.027 27.4553 193.96 26.5919 189.916 26.5919H187.53V47.653H189.848C191.983 47.653 193.778 46.8579 195.232 45.2675C196.686 43.6317 197.709 41.4506 198.3 38.7242H199.322V58.8993H198.163C197.345 55.4913 196.232 53.0603 194.823 51.6063C193.46 50.1522 191.575 49.4252 189.166 49.4252H187.53V71.3042H190.12C194.301 71.3042 197.845 70.0546 200.753 67.5555C203.707 65.0563 205.729 61.8528 206.819 57.945H208.183L207.637 72.8037H170.218V71.3042H174.239V26.5919H170.218V25.0924ZM261.757 26.3874V72.8037H252.215L228.836 28.7048V71.5087H232.585V72.8037H223.247V71.5087H226.996V26.3874H223.247V25.0924H242.059L259.917 59.3082V26.3874H256.168V25.0924H265.506V26.3874H261.757ZM299.58 72.054C301.852 72.054 303.851 71.4405 305.578 70.2137C307.35 68.9868 308.236 67.1465 308.236 64.6928C308.236 62.1936 307.282 60.2852 305.374 58.9674C303.511 57.6497 300.83 56.5137 297.331 55.5595C293.877 54.5598 291.356 53.6965 289.765 52.9694C288.22 52.2424 286.743 51.2882 285.335 50.1068C282.518 47.7439 281.109 44.0861 281.109 39.1332C281.109 35.0891 282.54 31.613 285.403 28.7048C288.311 25.7967 292.264 24.3427 297.263 24.3427C299.671 24.3427 302.17 24.7062 304.76 25.4332C307.396 26.1148 309.031 26.4556 309.668 26.4556C310.304 26.4556 310.872 26.0012 311.372 25.0924H312.121L312.598 38.8605H311.508C309.327 34.9073 307.032 31.7493 304.624 29.3864C302.261 26.9781 299.671 25.774 296.854 25.774C294.082 25.774 291.924 26.4329 290.379 27.7506C288.834 29.0229 288.061 30.7496 288.061 32.9307C288.061 35.0663 288.97 36.7249 290.788 37.9063C292.651 39.0423 294.923 39.9738 297.603 40.7008C300.284 41.4279 302.034 41.9277 302.852 42.2003C303.715 42.473 304.76 42.8592 305.987 43.359C307.259 43.8134 308.282 44.3132 309.054 44.8585C309.872 45.3584 310.713 46.0172 311.576 46.8351C312.485 47.6076 313.189 48.4709 313.689 49.4252C314.916 51.6063 315.529 54.1963 315.529 57.1953C315.529 62.1027 313.984 66.056 310.894 69.055C307.85 72.0085 303.829 73.4853 298.83 73.4853C296.24 73.4853 293.264 73.1445 289.902 72.4629C286.584 71.7813 284.744 71.4405 284.381 71.4405C283.744 71.4405 283.131 72.1221 282.54 73.4853H281.586L280.905 57.2635H282.063C284.063 61.2167 286.607 64.6701 289.697 67.6236C292.832 70.5772 296.127 72.054 299.58 72.054Z" fill="#FCFFF7"/>
<path d="M216.793 125.217C217.71 123.491 218.694 121.44 219.744 119.066C220.842 116.678 221.796 114.228 222.604 111.713C223.4 109.151 223.999 106.617 224.401 104.109C224.803 101.602 224.784 99.3342 224.344 97.307C224.296 97.3198 224.242 97.3087 224.182 97.2738C223.273 97.3125 222.385 97.5245 221.518 97.9096C220.638 98.247 219.813 98.6972 219.045 99.2602C218.276 99.8232 217.52 100.434 216.777 101.092C216.034 101.751 215.338 102.396 214.69 103.029C213.382 104.247 211.981 105.694 210.489 107.37C208.996 109.045 207.53 110.816 206.088 112.683C204.634 114.501 203.264 116.349 201.978 118.224C200.74 120.087 199.697 121.822 198.85 123.427L198.921 123.408C198.702 123.926 198.444 124.582 198.146 125.377C197.882 126.111 197.656 126.887 197.466 127.704C197.275 128.521 197.181 129.312 197.181 130.078C197.182 130.844 197.354 131.487 197.697 132.008C198.632 132.83 200.036 133.4 201.908 133.716C203.827 134.02 205.931 134.249 208.219 134.403C210.542 134.497 212.926 134.626 215.37 134.789C217.801 134.905 220.049 135.198 222.115 135.667C224.229 136.123 225.988 136.878 227.393 137.932C228.834 138.926 229.677 140.36 229.923 142.235C230.044 143.07 229.949 143.862 229.638 144.609C229.375 145.343 228.974 146.038 228.434 146.693C227.929 147.287 227.364 147.847 226.738 148.372C226.112 148.896 225.504 149.391 224.913 149.855C224.157 150.466 223.313 151.126 222.379 151.835C221.505 152.58 220.559 153.241 219.539 153.82C218.58 154.434 217.589 154.929 216.566 155.305C215.543 155.68 214.48 155.811 213.377 155.698C211.937 155.47 210.464 155.021 208.957 154.352C207.463 153.73 206.254 152.93 205.328 151.952C204.39 150.926 203.911 149.803 203.891 148.583C203.906 147.302 204.715 145.937 206.319 144.486L211.632 147.738C211.009 148.467 210.482 149.169 210.051 149.846C209.619 150.524 209.473 151.124 209.613 151.649C210.687 151.463 211.777 151.147 212.883 150.698C214.023 150.189 215.097 149.621 216.104 148.994C217.158 148.354 218.146 147.656 219.067 146.899C220.036 146.13 220.927 145.355 221.74 144.576C221.87 144.49 222.105 144.223 222.445 143.775C222.832 143.314 223.213 142.829 223.588 142.32C223.95 141.764 224.223 141.257 224.407 140.799C224.578 140.294 224.513 139.954 224.211 139.779C222.733 139.408 221.077 139.136 219.243 138.962C217.444 138.728 215.699 138.506 214.009 138.294C212.162 138.073 210.231 137.823 208.217 137.545C206.249 137.254 204.25 136.843 202.219 136.314C201.281 136.054 200.253 135.742 199.134 135.377C198.05 134.952 196.995 134.443 195.968 133.849C194.941 133.256 194.038 132.552 193.259 131.739C192.433 130.939 191.866 129.967 191.56 128.823C191.191 127.441 191.226 125.951 191.667 124.352C192.095 122.705 192.658 121.278 193.356 120.07C196.267 115.104 199.594 110.359 203.338 105.835C207.129 101.297 211.445 97.3857 216.286 94.0997C218.211 93.2785 220.116 93.05 222.001 93.4142C223.885 93.7784 225.604 94.5701 227.155 95.7893C227.896 96.4593 228.505 97.1135 228.982 97.752C229.507 98.3776 229.889 99.0416 230.128 99.7437C230.366 100.446 230.499 101.227 230.525 102.089C230.551 102.95 230.483 103.938 230.322 105.054C229.778 109.131 228.839 113.161 227.503 117.144C226.155 121.079 224.447 124.907 222.377 128.626L216.793 125.217ZM231.449 107.893C232.545 107.6 233.529 107.362 234.399 107.181C235.305 106.939 236.169 106.733 236.992 106.564C237.474 104.546 237.882 102.828 238.218 101.41C238.589 99.9324 238.835 98.8454 238.955 98.1493L244.133 100.901C243.997 101.346 243.821 101.929 243.606 102.651C243.425 103.312 243.252 104.099 243.088 105.011C243.183 104.985 243.302 104.953 243.445 104.915C243.575 104.829 243.712 104.767 243.855 104.729L245.626 108.775C244.876 109.026 244.222 109.252 243.663 109.453C243.138 109.593 242.614 109.733 242.09 109.873C241.707 112.07 241.357 114.487 241.041 117.124C240.76 119.702 240.587 122.301 240.522 124.923C240.457 127.545 240.553 130.098 240.809 132.583C241.099 135.008 241.649 137.159 242.458 139.036C242.858 138.623 243.258 137.827 243.657 136.647C244.104 135.455 244.537 134.114 244.956 132.623C245.422 131.12 245.845 129.551 246.225 127.918C246.653 126.271 247.065 124.757 247.462 123.374L252.569 126.145C252.401 126.854 252.201 127.826 251.97 129.063C251.726 130.251 251.43 131.53 251.081 132.9C250.72 134.223 250.257 135.546 249.692 136.872C249.175 138.185 248.535 139.326 247.773 140.296C246.999 141.218 246.106 141.891 245.096 142.314C244.086 142.737 242.9 142.697 241.54 142.192C239.289 141.415 237.644 139.94 236.603 137.767C235.55 135.547 234.892 132.991 234.629 130.099C234.354 127.16 234.369 124.066 234.675 120.818C235.029 117.557 235.493 114.421 236.066 111.408L234.922 111.714L231.449 107.893ZM246.103 128.41C246.563 126.5 247.121 124.384 247.777 122.064C248.373 119.709 248.973 117.276 249.578 114.765C248.703 113.212 248.41 111.733 248.698 110.328C249.021 108.863 249.618 107.656 250.488 106.709C251.346 105.713 252.333 105.015 253.452 104.614C254.618 104.2 255.587 104.196 256.359 104.602C257.119 104.961 257.558 105.839 257.677 107.238C257.783 108.588 257.258 110.541 256.103 113.097C256.812 113.265 257.347 113.454 257.71 113.663C258.072 113.873 258.406 114.166 258.711 114.544C259.052 114.862 259.424 115.299 259.828 115.854C260.267 116.35 260.876 117.004 261.655 117.817C262.494 118.665 262.967 119.764 263.073 121.115C263.213 122.405 263.17 123.77 262.942 125.21C262.762 126.636 262.528 128.052 262.239 129.457C261.938 130.814 261.766 131.984 261.722 132.966C262.713 132.088 263.515 130.98 264.127 129.642C264.787 128.291 265.339 126.918 265.783 125.522C266.214 124.079 266.58 122.679 266.881 121.322C267.23 119.952 267.565 118.816 267.885 117.913L273.083 120.736C272.921 121.086 272.751 121.693 272.574 122.557C272.384 123.374 272.136 124.36 271.832 125.513C271.563 126.607 271.235 127.767 270.848 128.994C270.509 130.208 270.096 131.339 269.611 132.389C269.173 133.425 268.656 134.355 268.059 135.178C267.449 135.954 266.777 136.593 266.044 137.096C265.358 137.586 264.597 137.891 263.761 138.012C262.96 138.073 262.161 137.853 261.363 137.352C260.819 137.037 260.276 136.723 259.732 136.409C259.236 136.082 258.74 135.755 258.244 135.428C257.615 134.983 257.179 134.308 256.937 133.403C256.729 132.437 256.622 131.368 256.615 130.195C256.656 129.01 256.761 127.781 256.932 126.51C257.09 125.191 257.243 123.95 257.392 122.787C257.588 121.611 257.721 120.58 257.79 119.693C257.859 118.806 257.795 118.185 257.598 117.829C257.166 117.741 256.71 117.658 256.23 117.582C255.737 117.459 255.257 117.383 254.79 117.355C254.644 117.955 254.492 118.532 254.334 119.085C254.223 119.626 254.106 120.142 253.982 120.635C253.58 122.376 253.141 124.077 252.665 125.736C252.225 127.335 251.744 129.072 251.224 130.947L246.103 128.41ZM273.348 125.414C273.336 126.898 273.393 128.16 273.517 129.199C273.69 130.225 273.855 130.845 274.014 131.058C274.688 131.286 275.389 131.329 276.117 131.185C276.831 130.994 277.521 130.707 278.185 130.326C278.849 129.944 279.47 129.497 280.048 128.985C280.626 128.473 281.126 127.956 281.548 127.435C282.405 126.44 283.112 125.357 283.667 124.187C284.21 122.97 284.674 121.747 285.061 120.521C285.483 119.233 285.851 117.935 286.165 116.625C286.478 115.316 286.846 114.018 287.268 112.73L292.322 115.592C291.955 117.273 291.605 118.924 291.272 120.545C290.94 122.166 290.493 123.741 289.931 125.27C289.405 126.738 288.697 128.102 287.808 129.361C286.967 130.607 285.847 131.673 284.45 132.557C283.481 133.327 282.472 133.852 281.424 134.132C280.423 134.4 279.401 134.494 278.359 134.415C277.364 134.324 276.355 134.083 275.332 133.693C274.356 133.29 273.378 132.785 272.399 132.179C271.528 131.595 270.733 130.914 270.014 130.136C269.296 129.358 268.731 128.487 268.32 127.525C267.76 126.194 267.456 124.769 267.407 123.25C267.311 121.743 267.418 120.234 267.728 118.721C267.991 117.221 268.422 115.778 269.022 114.392C269.656 112.946 270.407 111.647 271.274 110.496C272.972 108.254 274.754 107.088 276.62 106.998C278.485 106.908 280.524 107.563 282.737 108.963C283.875 109.782 284.588 110.919 284.875 112.374C284.999 113.413 284.832 114.505 284.372 115.649C283.946 116.733 283.49 117.698 283.001 118.544C281.922 120.62 280.76 122.386 279.515 123.842C278.27 125.298 276.903 126.583 275.413 127.696L273.348 125.414ZM279.249 110.815C278.181 111.406 277.284 112.157 276.557 113.066C275.878 113.963 275.308 114.983 274.848 116.128C274.423 117.212 274.095 118.372 273.864 119.608C273.68 120.832 273.527 122.073 273.404 123.331C274.013 122.556 274.669 121.665 275.371 120.661C276.072 119.656 276.713 118.616 277.294 117.542C277.91 116.407 278.4 115.28 278.765 114.161C279.117 112.995 279.278 111.879 279.249 110.815ZM292.826 120.206C292.814 121.69 292.87 122.952 292.995 123.991C293.167 125.017 293.333 125.637 293.492 125.85C294.166 126.078 294.867 126.12 295.594 125.977C296.309 125.786 296.999 125.499 297.663 125.117C298.326 124.736 298.947 124.289 299.525 123.777C300.103 123.265 300.604 122.748 301.026 122.227C301.883 121.231 302.59 120.149 303.145 118.979C303.688 117.761 304.152 116.539 304.539 115.312C304.961 114.025 305.329 112.727 305.642 111.417C305.956 110.108 306.324 108.809 306.746 107.522L311.8 110.383C311.433 112.065 311.083 113.716 310.75 115.337C310.418 116.958 309.971 118.533 309.409 120.062C308.883 121.53 308.175 122.894 307.286 124.153C306.445 125.399 305.325 126.464 303.928 127.349C302.959 128.119 301.95 128.644 300.902 128.924C299.901 129.192 298.879 129.286 297.837 129.207C296.842 129.116 295.833 128.875 294.81 128.485C293.834 128.082 292.856 127.577 291.877 126.971C291.006 126.387 290.211 125.706 289.492 124.928C288.773 124.149 288.209 123.279 287.798 122.317C287.238 120.985 286.934 119.56 286.885 118.041C286.789 116.535 286.896 115.026 287.206 113.513C287.469 112.013 287.9 110.57 288.5 109.184C289.134 107.737 289.885 106.439 290.752 105.288C292.45 103.046 294.232 101.88 296.098 101.79C297.963 101.7 300.002 102.355 302.215 103.755C303.353 104.574 304.065 105.711 304.352 107.166C304.477 108.205 304.309 109.297 303.849 110.441C303.424 111.525 302.967 112.49 302.479 113.336C301.399 115.411 300.238 117.178 298.993 118.634C297.748 120.09 296.381 121.375 294.891 122.488L292.826 120.206ZM298.727 105.606C297.659 106.198 296.762 106.949 296.035 107.858C295.355 108.755 294.786 109.775 294.326 110.92C293.901 112.004 293.573 113.164 293.341 114.4C293.158 115.624 293.005 116.865 292.882 118.123C293.491 117.347 294.147 116.457 294.848 115.452C295.55 114.448 296.191 113.408 296.772 112.334C297.388 111.199 297.878 110.072 298.243 108.953C298.595 107.787 298.756 106.671 298.727 105.606ZM303.705 88.5722C304.802 88.2791 305.785 88.0416 306.656 87.8599C307.561 87.6178 308.425 87.4122 309.248 87.2433C309.73 85.225 310.139 83.5071 310.475 82.0896C310.845 80.6116 311.091 79.5246 311.211 78.8286L316.39 81.5803C316.254 82.0253 316.078 82.6085 315.862 83.33C315.681 83.9911 315.509 84.7778 315.344 85.6899C315.439 85.6644 315.558 85.6326 315.701 85.5944C315.832 85.5085 315.968 85.4464 316.111 85.4082L317.882 89.454C317.133 89.7055 316.478 89.9316 315.919 90.1322C315.395 90.2723 314.87 90.4125 314.346 90.5527C313.963 92.7488 313.614 95.1658 313.298 97.8036C313.017 100.381 312.844 102.981 312.779 105.602C312.714 108.224 312.809 110.778 313.065 113.262C313.356 115.687 313.905 117.838 314.714 119.715C315.114 119.302 315.514 118.506 315.914 117.327C316.361 116.135 316.794 114.793 317.212 113.303C317.678 111.799 318.101 110.231 318.482 108.597C318.91 106.95 319.322 105.436 319.718 104.053L324.825 106.824C324.657 107.533 324.458 108.505 324.226 109.742C323.983 110.93 323.686 112.21 323.338 113.58C322.976 114.902 322.513 116.226 321.948 117.551C321.431 118.864 320.792 120.005 320.03 120.975C319.255 121.897 318.362 122.57 317.352 122.993C316.342 123.417 315.157 123.376 313.796 122.872C311.546 122.095 309.9 120.62 308.86 118.447C307.806 116.226 307.148 113.67 306.886 110.778C306.61 107.839 306.626 104.745 306.932 101.497C307.286 98.2367 307.749 95.0999 308.322 92.0869L307.178 92.3928L303.705 88.5722Z" fill="#083D68"/>
</svg>
