<svg width="20" height="22" viewBox="0 0 20 22" fill="none" xmlns="http://www.w3.org/2000/svg">
<path d="M18.8882 16.0169V18.994C18.8892 19.2704 18.8379 19.5439 18.7375 19.7972C18.6372 20.0504 18.49 20.2777 18.3054 20.4645C18.1208 20.6514 17.9029 20.7936 17.6656 20.8822C17.4283 20.9707 17.1769 21.0036 16.9274 20.9787C14.1597 20.6469 11.5011 19.6035 9.16523 17.9322C6.99202 16.4086 5.14953 14.3758 3.76858 11.9781C2.24851 9.38922 1.30254 6.44172 1.0073 3.37436C0.984824 3.09995 1.01438 2.82337 1.0941 2.56225C1.17381 2.30112 1.30193 2.06117 1.4703 1.85767C1.63867 1.65417 1.8436 1.49158 2.07205 1.38025C2.3005 1.26892 2.54745 1.21129 2.79719 1.21103H5.49551C5.93201 1.20629 6.35519 1.37683 6.68615 1.69087C7.01712 2.0049 7.2333 2.441 7.29439 2.91788C7.40828 3.87061 7.61949 4.80606 7.924 5.7064C8.04501 6.06158 8.0712 6.4476 7.99947 6.8187C7.92773 7.18981 7.76108 7.53045 7.51925 7.80026L6.37696 9.06055C7.65736 11.545 9.52181 13.602 11.7736 15.0147L12.9159 13.7544C13.1604 13.4876 13.4692 13.3037 13.8055 13.2246C14.1419 13.1454 14.4918 13.1743 14.8137 13.3078C15.6298 13.6438 16.4776 13.8768 17.3411 14.0025C17.7781 14.0705 18.1771 14.3133 18.4623 14.6847C18.7476 15.0561 18.8991 15.5303 18.8882 16.0169Z" stroke="#03518B" stroke-width="1.61899" stroke-linecap="round" stroke-linejoin="round"/>
</svg>
