<svg width="18" height="23" viewBox="0 0 18 23" fill="none" xmlns="http://www.w3.org/2000/svg">
<path d="M8.52941 0C3.81085 0 0 3.89632 0 8.6412C0 10.3524 0.526265 11.7141 1.34191 13.0068L7.77574 21.893C7.85448 22.0196 7.96518 22.1243 8.09717 22.1969C8.22916 22.2696 8.37801 22.3077 8.52941 22.3077C8.68081 22.3077 8.82966 22.2696 8.96166 22.1969C9.09365 22.1243 9.20434 22.0196 9.28309 21.893L15.7169 13.0068C16.5326 11.714 17.0588 10.3524 17.0588 8.6412C17.0588 3.89632 13.248 0 8.52941 0ZM8.52941 1.72824C12.2576 1.72824 15.2941 4.79575 15.2941 8.6412C15.2941 10.026 14.9235 10.9661 14.2096 12.0977L8.52941 19.7867L2.84926 12.0977C2.13532 10.9661 1.76471 10.026 1.76471 8.6412C1.76471 4.79575 4.80126 1.72824 8.52941 1.72824ZM8.52941 4.03256C6.10332 4.03256 4.11765 5.97721 4.11765 8.35316C4.11765 10.7291 6.10329 12.6738 8.52941 12.6738C10.9555 12.6738 12.9412 10.7291 12.9412 8.35316C12.9412 5.97721 10.9555 4.03256 8.52941 4.03256ZM8.52941 5.7608C10.0018 5.7608 11.1765 6.9112 11.1765 8.35316C11.1765 9.79506 10.0018 10.9455 8.52941 10.9455C7.05706 10.9455 5.88235 9.79506 5.88235 8.35316C5.88235 6.9112 7.05703 5.7608 8.52941 5.7608Z" fill="#03518B"/>
</svg>
