<svg width="191" height="71" viewBox="0 0 191 71" fill="none" xmlns="http://www.w3.org/2000/svg">
<path d="M35.0148 17.4809C32.5367 18.2716 30.2354 19.4827 27.8522 20.4985C26.2485 21.1831 24.6225 21.7654 22.8402 21.6427C20.9054 21.5087 19.4543 20.6752 18.7846 18.7553C18.6153 18.5879 18.8311 18.08 18.312 18.2232C18.312 18.7441 18.312 19.2669 18.312 19.7878C20.3045 22.5803 23.0319 23.0677 26.1406 22.2324C29.4931 21.332 32.4232 19.5497 35.3348 17.7339C35.2994 17.5609 35.1413 17.5423 35.0148 17.4809Z" fill="#03518B"/>
<path d="M18.312 18.2231C18.4701 18.3998 18.6264 18.5784 18.7846 18.7552C18.859 17.6426 19.2255 16.8278 20.5612 16.9227C20.8515 16.9431 21.2608 16.8762 21.2254 16.5078C21.1863 16.1171 20.7901 16.1971 20.4906 16.2399C19.5324 16.3813 18.8906 16.9934 18.312 17.7022C18.312 17.8752 18.312 18.0501 18.312 18.2231Z" fill="#03518B"/>
<path d="M149.789 28.1258C150.371 26.6356 149.901 25.4171 148.788 24.3864C146.857 22.5967 144.457 21.9214 141.934 21.62C140.565 21.4563 139.177 21.4377 137.799 21.3539C137.629 21.1995 137.462 21.1977 137.298 21.3651C135.211 21.6553 133.109 21.6293 131.008 21.6814C130.619 21.6907 130.23 21.7037 129.94 21.3725C129.832 21.2888 129.71 21.2497 129.574 21.2535C127.7 21.3837 125.862 21.1474 124.074 20.6135C122.731 20.2135 121.483 19.6219 120.858 18.2266C120.592 17.9047 120.741 17.2722 120.114 17.2201C119.576 18.9001 120.147 20.4144 121.751 21.4321C124.158 22.9595 126.885 23.1325 129.624 23.2646C130.206 23.2925 130.861 23.0916 131.324 23.6627C132.02 23.0711 132.904 23.4543 133.667 23.2143C134.781 23.2125 135.895 23.2125 137.01 23.2088C137.441 23.2069 137.884 23.1678 138.12 23.6515C138.98 23.5753 139.841 23.3781 140.699 23.6739C142.865 24.1185 145.071 24.405 147.073 25.445C147.815 25.8301 148.494 26.2803 148.974 26.9798C149.329 27.2998 149.069 28.0644 149.789 28.1258Z" fill="#03518B"/>
<path d="M55.1016 21.3561C52.8579 21.4361 50.6087 21.4808 48.4264 22.1077C46.8302 22.5673 45.34 23.2221 44.114 24.383C43.0145 25.4249 42.5345 26.6323 43.1113 28.1225C43.8331 28.0573 43.5652 27.2946 43.9261 26.9746C44.9624 25.7114 46.3726 25.0732 47.8832 24.6249C49.2953 24.2081 50.7445 23.9365 52.1938 23.6742C53.0514 23.371 53.9165 23.5793 54.7779 23.6519C54.9435 23.3784 55.1611 23.2054 55.5053 23.2128C57.308 23.2426 59.1089 23.2631 60.9117 23.2891C61.1851 23.2928 61.2875 23.4398 61.2279 23.704C61.3507 23.8044 61.4642 23.7951 61.5702 23.6761C62.0242 23.09 62.6828 23.2928 63.2651 23.2649C66.0073 23.1328 68.7384 22.9617 71.1514 21.4343C72.7587 20.4148 73.3317 18.906 72.7922 17.2205C72.0983 17.3284 72.3662 18.0595 72.0239 18.3981C71.3076 19.6576 70.1002 20.2157 68.8054 20.6269C67.5236 21.0343 66.1822 21.1403 64.865 21.3729C64.2325 21.6799 63.5944 21.4008 62.9581 21.3822C62.5842 21.7896 62.0912 21.6873 61.6316 21.6761C59.6224 21.6259 57.6076 21.6557 55.6095 21.3617C55.4402 21.1999 55.2709 21.1999 55.1016 21.3561Z" fill="#03518B"/>
<path d="M142.956 34.1089C143.793 32.6819 143.51 31.5675 142.074 30.8066C140.498 29.9713 138.777 29.895 137.043 29.9322C136.528 29.9434 136.011 29.9322 135.494 29.9304C135.294 29.8225 135.097 29.8002 134.906 29.949C133.101 29.9397 131.298 29.9304 129.494 29.9211C129.105 29.8634 128.774 29.6643 128.443 29.4709C127.096 29.2327 125.752 28.9816 124.478 28.4476C123.63 28.0923 122.904 27.5919 122.361 26.8384C122.169 26.6505 121.967 26.4849 121.671 26.6003C121.624 28.1425 122.413 29.1974 123.674 29.9397C125.031 30.7397 126.525 31.1397 128.084 31.3108C128.284 31.3722 128.381 31.7089 128.671 31.5303C130.971 31.5136 133.27 31.4987 135.57 31.4801C135.921 31.4782 136.267 31.4857 136.539 31.7573C136.768 31.8745 137.012 31.8782 137.261 31.8689C138.385 31.9285 139.46 32.2354 140.548 32.4903C141.49 32.7117 142.152 33.2735 142.628 34.0903C142.731 34.1833 142.84 34.1889 142.956 34.1089Z" fill="#03518B"/>
<path d="M56.363 31.7595C56.7146 31.4097 57.1648 31.4804 57.5927 31.4823C59.8047 31.4934 62.0167 31.512 64.2306 31.5269C64.519 31.7055 64.6157 31.3706 64.8148 31.3074C65.8976 31.2218 66.9319 30.9334 67.9459 30.5595C69.8026 29.873 71.1551 28.7642 71.2295 26.5987C70.93 26.4833 70.7328 26.6526 70.5411 26.8405C69.423 28.407 67.6984 28.7903 65.9757 29.1902C65.4734 29.3074 64.9599 29.3484 64.4613 29.4693C64.1264 29.6628 63.7972 29.8656 63.4046 29.9232C61.6019 29.9325 59.7973 29.94 57.9945 29.9493C57.8029 29.8005 57.6038 29.8228 57.4048 29.9307C55.7769 30.0014 54.1342 29.7837 52.5231 30.1949C51.7677 30.3883 51.0236 30.6116 50.3929 31.0786C49.3492 31.8506 49.219 32.7511 49.9073 34.1203C50.0152 34.2152 50.1269 34.2133 50.2403 34.1315C50.9622 32.7064 52.3463 32.4385 53.7175 32.1706C54.3537 32.046 54.9825 31.8562 55.6411 31.8748C55.8885 31.886 56.1341 31.8748 56.363 31.7595Z" fill="#03518B"/>
<path d="M35.5208 23.4603C35.1041 21.8994 35.491 20.8985 37.1208 19.7432C40.0472 17.6688 43.3401 16.5116 46.8879 16.1265C48.8841 15.9107 50.8766 15.9889 52.7296 16.9358C53.0049 17.0586 53.0384 16.9228 52.9863 16.6958C51.7454 15.8233 50.3297 15.3786 48.8506 15.241C45.5596 14.934 42.2722 14.854 39.1226 16.1451C39.1542 16.1749 39.1821 16.2084 39.2174 16.2307C39.2491 16.2512 39.2881 16.2605 39.3235 16.2754C38.7207 16.5526 38.1272 16.8446 37.491 17.0511C37.0128 17.2056 36.5217 17.4269 36.3264 17.9758C35.8464 18.4055 35.3236 18.7981 34.8938 19.2743C33.4967 20.8278 33.6083 22.318 35.1822 23.743C35.4668 23.8565 35.5524 23.73 35.5208 23.4603Z" fill="#03518B"/>
<path d="M157.722 23.7467C159.361 22.2602 159.404 20.7123 157.828 19.0882C157.439 18.6882 156.993 18.3459 156.572 17.9775C155.897 16.9803 154.79 16.7943 153.752 16.4725C153.586 16.4204 153.815 16.4855 153.679 16.3832C153.608 16.3311 153.675 16.2362 153.791 16.2213C152.766 15.479 151.536 15.3916 150.36 15.2799C147.173 14.9785 143.97 14.7088 140.933 16.1413C140.88 16.4018 140.956 16.5301 141.242 16.4464C146.647 15.3041 151.447 16.8557 155.882 19.8342C157.106 20.6565 158.034 21.7821 157.378 23.4657C157.359 23.7243 157.422 23.8806 157.722 23.7467Z" fill="#03518B"/>
<path d="M157.141 17.676C158.81 18.5764 160.471 19.4917 162.151 20.3736C164.032 21.3614 165.971 22.1763 168.097 22.5074C169.755 22.766 171.28 22.4702 172.709 21.6405C173.999 20.8889 174.8 19.8415 174.557 18.2434C174.045 18.1039 174.287 18.6024 174.121 18.7569C173.109 21.1456 171.031 22.1056 168.127 21.5214C166.153 21.1252 164.401 20.1578 162.57 19.3875C160.62 18.569 158.743 17.5643 156.671 17.0583C156.622 17.4211 156.875 17.5532 157.141 17.676Z" fill="#03518B"/>
<path d="M149.789 28.1258C149.344 27.7984 149.798 27.1286 149.29 26.8254C149.103 26.9631 149.049 27.1696 148.985 27.3798C148.595 28.6616 148.07 29.0076 146.678 28.8011C144.567 28.4905 142.682 27.6589 141.138 26.1612C140.465 25.5082 139.694 24.9222 139.285 24.0385C139.674 23.5511 140.381 23.9287 140.688 23.4022C139.802 23.1678 138.9 22.7697 138.122 23.6515C140.15 27.0579 143.034 29.19 147.06 29.536C148.204 29.6327 149.341 29.4876 149.789 28.1258Z" fill="#1166A5"/>
<path d="M43.6098 26.8273C43.1019 27.1287 43.5522 27.7985 43.1094 28.124C43.5577 29.484 44.6926 29.6328 45.8386 29.5342C49.8645 29.1901 52.75 27.0636 54.776 23.6535C53.9984 22.7698 53.0961 23.1679 52.2086 23.4023C52.5193 23.8786 53.1054 23.6293 53.483 23.8767C53.5984 24.007 53.5853 24.1465 53.5072 24.2507C51.7547 26.5911 49.5148 28.204 46.6107 28.7771C44.9512 29.1045 44.5438 28.8124 43.6098 26.8273Z" fill="#1166A5"/>
<path d="M72.3196 18.487C72.7959 18.1837 72.3885 17.5531 72.7885 17.2219C72.2062 15.9419 71.1308 15.9847 70.0351 16.2582C66.9989 17.0191 64.7348 18.8702 62.9543 21.3818C63.4715 22.0534 64.0966 21.9976 64.7645 21.6497C64.4371 21.3316 63.9943 21.112 64.5599 20.5427C65.9533 19.1437 67.3951 17.8507 69.3318 17.2461C71.1569 16.6768 71.5494 16.8294 72.3196 18.487Z" fill="#1166A5"/>
<path d="M67.6445 35.3946C68.9914 36.1388 70.4649 36.4625 71.9606 36.7192C72.5578 36.8215 72.8685 36.5908 72.9243 35.9974C73.0025 35.1695 72.3625 35.5248 72.0406 35.5192C70.7421 35.4913 69.4472 35.4727 68.1766 35.1583C67.9235 35.0672 67.6408 34.909 67.6445 35.3946Z" fill="#03518B"/>
<path d="M124.722 35.1583C123.407 35.4671 122.071 35.5192 120.728 35.5155C120.424 35.5155 119.848 35.255 119.974 35.9992C120.054 36.4699 120.21 36.8141 120.804 36.7341C122.359 36.5238 123.853 36.1257 125.254 35.4039C125.263 34.909 124.979 35.0653 124.722 35.1583Z" fill="#03518B"/>
<path d="M120.112 17.222C120.249 17.5624 120.387 17.9048 120.525 18.2452C121.39 16.8741 121.801 16.7271 123.468 17.2294C124.982 17.6871 126.264 18.5112 127.403 19.6126C128.065 20.2544 128.547 21.153 129.568 21.3577C129.693 21.3614 129.816 21.367 129.94 21.3707C128.162 18.8629 125.896 17.0173 122.865 16.2546C121.767 15.983 120.694 15.9476 120.112 17.222Z" fill="#1166A5"/>
<path d="M128.37 29.672C128.727 29.832 129.064 30.0832 129.494 29.9213C128.858 29.6906 128.837 29.1065 128.679 28.5707C128.074 26.5149 126.798 25.1047 124.662 24.5968C123.159 24.2396 122.017 25.0191 121.671 26.6005C121.812 26.6842 121.954 26.7698 122.095 26.8535C123.481 24.9224 125.341 24.9187 126.934 26.7977C127.656 27.6479 127.836 28.7418 128.37 29.672Z" fill="#1166A5"/>
<path d="M70.8091 26.8536C70.9486 26.768 71.0881 26.6843 71.2295 26.5987C70.8965 25.0248 69.7449 24.2415 68.238 24.5987C66.0985 25.1066 64.826 26.5224 64.2214 28.5763C64.0632 29.1139 64.0409 29.6925 63.4028 29.9214C63.8251 30.0851 64.16 29.8414 64.5134 29.6851C64.8464 29.313 64.8874 28.8181 65.0641 28.3809C65.479 27.354 66.0706 26.4722 67.0417 25.8861C68.6026 24.9429 69.5961 25.1959 70.8091 26.8536Z" fill="#1166A5"/>
<path d="M134.906 29.9491C135.101 29.9435 135.298 29.9361 135.494 29.9305C134.271 27.8413 133.049 25.752 131.754 23.5381C132.452 23.4209 133.06 23.3186 133.667 23.2163C132.861 23.2386 131.964 22.7772 131.324 23.6646C132.517 25.7595 133.711 27.8543 134.906 29.9491Z" fill="#1166A5"/>
<path d="M35.5208 23.46C35.4073 23.5549 35.2938 23.6497 35.1803 23.7446C36.5142 25.0116 38.1607 25.1604 39.876 25.0488C40.3336 25.019 40.715 24.8181 40.8955 24.3697C40.9625 24.2041 40.8769 24.0423 40.7057 23.9381C40.276 23.6776 39.8536 23.8246 39.4685 24.0069C37.7458 24.8255 36.9365 24.7232 35.5208 23.46Z" fill="#03518B"/>
<path d="M157.722 23.7467C157.606 23.6537 157.493 23.5606 157.378 23.4658C155.962 24.7271 155.166 24.8257 153.434 24.0071C153.048 23.8248 152.626 23.6797 152.196 23.9402C152.025 24.0444 151.943 24.2062 152.009 24.3718C152.187 24.822 152.572 25.0192 153.028 25.049C154.741 25.1569 156.392 25.0211 157.722 23.7467Z" fill="#03518B"/>
<path d="M57.4029 29.9288C57.6001 29.9344 57.7955 29.9418 57.9927 29.9474C59.1852 27.8582 60.3759 25.7671 61.5684 23.6778C61.4549 23.6871 61.3414 23.6964 61.2279 23.7057C59.6224 25.5773 58.841 27.9549 57.4029 29.9288Z" fill="#1166A5"/>
<path d="M142.956 34.1093C142.866 34.1148 142.777 34.1204 142.69 34.126C140.362 34.219 138.705 32.8479 137.023 31.5307C136.861 31.6051 136.701 31.6814 136.539 31.7558C137.853 33.3335 139.388 34.5539 141.533 34.6953C142.063 34.7306 142.701 34.8311 142.956 34.1093Z" fill="#1166A5"/>
<path d="M56.363 31.7593C56.1993 31.6831 56.0356 31.6086 55.8718 31.5324C55.3807 31.8003 54.9472 32.1351 54.5417 32.5258C53.338 33.6849 51.8217 34.0327 50.2162 34.1258C50.112 34.1239 50.0078 34.122 49.9018 34.1202C50.6162 35.1006 51.6096 34.7955 52.4617 34.5295C54.0393 34.0402 55.3677 33.11 56.363 31.7593Z" fill="#1166A5"/>
<path d="M141.242 16.4463C141.14 16.344 141.036 16.2435 140.933 16.1412C138.599 17.1011 137.399 18.8499 137.298 21.3652C137.466 21.3615 137.631 21.3578 137.799 21.354C137.706 18.8481 139.183 17.4435 141.242 16.4463Z" fill="#1166A5"/>
<path d="M124.722 35.1582C124.899 35.2401 125.075 35.3201 125.252 35.402C126.988 34.6373 128.141 33.3592 128.671 31.5305C128.476 31.4579 128.281 31.3835 128.084 31.3109C127.914 33.4225 126.352 34.3192 124.722 35.1582Z" fill="#1166A5"/>
<path d="M52.9863 16.6955C52.9007 16.7755 52.8151 16.8555 52.7296 16.9355C54.177 18.0573 55.2225 19.3931 55.1016 21.3558C55.269 21.3577 55.4383 21.3595 55.6058 21.3614C55.5592 19.3428 54.7351 17.7596 52.9863 16.6955Z" fill="#1166A5"/>
<path d="M157.141 17.6759C156.985 17.4712 156.829 17.2666 156.671 17.062C155.703 16.8034 154.831 16.2211 153.791 16.2211C153.586 16.1932 153.38 16.1634 153.175 16.1355C153.158 16.1801 153.143 16.2248 153.127 16.2694C154.276 16.8387 155.424 17.408 156.574 17.9773C156.682 17.7243 156.924 17.7243 157.141 17.6759Z" fill="#03518B"/>
<path d="M67.6445 35.3948C67.8212 35.3166 67.9998 35.2366 68.1766 35.1585C66.5413 34.325 64.9841 33.4209 64.8148 31.3075C64.6195 31.38 64.426 31.4544 64.2307 31.527C64.772 33.3427 65.9348 34.6115 67.6445 35.3948Z" fill="#1166A5"/>
<path d="M174.119 18.7569C174.265 18.5857 174.41 18.4146 174.555 18.2434C174.408 16.9969 173.522 16.5281 172.456 16.2565C172.157 16.1802 171.762 16.1021 171.686 16.4741C171.604 16.8779 172.032 16.9393 172.311 16.9188C173.658 16.8202 174.045 17.6257 174.119 18.7569Z" fill="#1166A5"/>
<path d="M36.3245 17.9773C37.4687 17.4136 38.6147 16.848 39.7756 16.2769C39.5951 16.0276 39.3384 16.1801 39.1226 16.1448C38.5719 16.0518 38.3021 16.7122 37.7626 16.649C37.1189 17.0396 36.1608 16.8182 35.7571 17.6796C35.9747 17.7243 36.2147 17.7298 36.3245 17.9773Z" fill="#03518B"/>
<path d="M35.7589 17.6777C36.4268 17.3335 37.0965 16.9912 37.7644 16.647C36.7523 16.6098 35.8947 17.0805 35.0166 17.4786C35.1226 17.5642 35.2287 17.6479 35.3366 17.7335C35.4761 17.7167 35.6175 17.6981 35.7589 17.6777Z" fill="#03518B"/>
<path fill-rule="evenodd" clip-rule="evenodd" d="M96.1422 22.7808C96.1627 22.8533 96.2073 22.9017 96.265 22.937C96.2762 22.9501 96.2855 22.9612 96.2966 22.9742V22.9556C96.5013 23.0487 96.8231 22.9463 96.8585 22.6468C96.864 22.5984 96.8659 22.5519 96.8696 22.5036C96.9626 22.377 97.0557 22.2524 97.1524 22.1315C97.5226 21.9864 97.7552 21.6794 97.8519 21.3259C98.9793 20.1483 100.269 19.3427 101.751 18.7511C101.829 19.2292 101.898 19.6329 101.967 20.0534C103.361 19.2516 104.605 18.3269 105.926 17.8935C106.505 17.9586 106.092 18.7679 106.739 18.5744C107.576 18.3325 108.298 17.5549 109.282 18.0088C109.26 18.2432 108.966 18.4832 109.375 18.6227C110.172 18.7976 110.871 17.8376 111.699 18.42C111.848 19.7781 110.512 19.9734 109.859 20.6636C109.971 21.0394 110.458 21.1417 110.387 21.5138C108.983 22.3454 107.316 22.6636 106.302 24.4347C109.997 25.27 113.623 26.0402 116.809 28.0494C115.701 28.7434 114.469 29.3387 113.055 30.0066C114.957 31.0614 116.22 32.7879 118.036 33.8335C117.71 34.4753 116.886 34.2762 116.462 35.1171C119.548 36.7078 118.568 40.4826 120.527 42.8862L113.829 41.6546C112.287 41.316 111.074 40.4937 109.946 39.411C109.831 39.8426 109.742 40.1793 109.649 40.5253C108.84 40.5346 108.259 40.1272 107.924 39.5226C106.938 37.7496 105.087 36.9868 103.643 35.7515C103.366 35.5134 102.944 35.5171 102.695 35.798C103.072 37.3347 103.281 38.89 104.495 40.0305C104.938 40.4453 105.351 40.8881 105.694 41.4425C107.009 43.5764 106.804 46.1345 108.092 48.6311C106.131 47.5465 104.332 47.42 102.278 46.741C103.091 49.3865 101.854 51.5166 102.149 53.8031C101.216 53.6747 100.657 52.8561 99.7384 53.0813C99.3775 56.0058 97.1301 58.1174 96.6185 61.3043" fill="#1B6FB5"/>
<path fill-rule="evenodd" clip-rule="evenodd" d="M96.9553 61.3002C95.5246 59.2909 95.9376 56.9059 93.9209 55.7357C93.9879 54.7813 93.6512 53.8939 93.3182 53.1274C92.2857 52.6976 91.9638 54.279 91.0057 53.6836C91.1768 51.4344 90.4662 49.2373 90.7303 46.8504C88.9146 47.7099 86.9053 47.2634 85.1566 48.6922C85.2477 47.5554 85.8765 46.9769 85.9807 46.1769C86.3063 43.6802 87.1212 41.4105 88.9871 39.5259C89.9304 38.5697 90.4085 37.1762 90.4624 35.5335C87.4523 36.4321 86.1016 39.3045 83.9808 40.564C83.1008 40.4692 83.5027 39.7771 82.8943 39.7101C81.7892 40.5715 80.7437 41.8124 78.487 41.7566C76.967 42.6347 74.6527 42.3854 72.2714 42.9509C72.9467 41.911 73.7281 41.191 73.8918 40.3501C74.2732 38.378 74.7922 36.5809 76.554 35.3865C76.675 35.3028 76.874 35.1781 76.6154 34.7782C76.4201 34.2777 75.462 34.5549 75.1438 33.8703C76.8777 32.6778 78.2768 31.0369 80.4441 30.1234C79.0153 29.3904 77.754 28.7448 76.3754 28.0379C77.9344 27.0668 79.7893 26.9403 80.8776 25.4556C82.8906 25.5189 84.8254 25.2622 86.6802 24.2575C85.9454 22.6278 84.3584 22.3041 83.0896 21.6641C82.7138 21.2176 83.1734 20.9497 83.1864 20.6279C82.658 19.8521 81.5399 19.5023 81.445 18.4047C82.3157 17.9396 82.9576 18.6372 83.7519 18.6447C84.7342 16.8996 85.7835 18.4382 86.7807 18.6261C87.1974 18.507 86.9556 17.8056 87.4523 17.8875C88.8104 18.4717 89.949 19.2865 91.1657 20.1163C91.2196 19.6065 91.2661 19.1768 91.3127 18.7377C93.4614 19.387 94.9684 20.8455 96.4883 22.7748" fill="#1B6FB5"/>
</svg>
