<svg width="60" height="85" viewBox="0 0 60 85" fill="none" xmlns="http://www.w3.org/2000/svg">
<path d="M10.1167 49.937C8.03971 50.42 6.59893 51.871 5.78308 53.7935C5.01123 55.6871 4.77753 57.9201 5.24664 59.8802C5.77236 62.1182 6.52945 64.7082 7.90507 66.5136C7.96292 66.6016 8.05092 66.5437 8.03708 66.4268C7.46488 64.5975 6.40101 62.02 7.14394 60.0825C7.66436 58.6692 7.4417 56.9882 7.81627 55.5448C8.14684 54.1303 9.06081 52.8365 10.4086 52.2027C11.3314 51.7852 12.5146 51.7637 13.494 51.6241C14.5464 51.4996 15.5221 51.9295 16.5443 51.9508C16.5443 51.9508 16.5883 51.9219 16.5593 51.8779C15.7018 51.2442 14.579 50.974 13.6624 50.4422C12.5848 49.9532 11.3162 49.6528 10.1167 49.937Z" fill="#95A05B"/>
<path d="M12.8952 51.5763C11.5511 51.6405 10.3064 52.1435 9.26418 52.9545C7.53171 54.3453 6.98874 56.9705 6.97506 59.0589C6.96013 61.3372 6.74151 63.4973 7.50109 65.7076C8.24682 67.8009 11.0797 70.0978 8.8607 72.1864C8.71361 72.3461 8.91606 72.6541 9.06315 72.4944C10.1066 71.4935 10.3907 70.4876 9.78587 69.1838C9.33945 68.217 8.6881 67.3219 8.21277 66.311C7.57899 64.9632 7.48585 63.5752 7.52472 62.1003C7.5824 59.983 8.70877 57.4784 10.3972 56.1166C11.5426 55.1748 12.6829 54.9924 14.0295 54.5485C14.4834 54.3762 14.6908 53.9248 15.0868 53.6645C15.4829 53.4042 15.8198 53.2458 16.158 52.8975L16.1291 52.8535C14.9032 52.714 14.3122 51.5271 12.8952 51.5763Z" fill="#C3CB79"/>
<path d="M7.50763 62.553C7.38323 63.706 7.33301 64.6842 7.74926 65.7968C8.20951 66.8806 9.03564 67.8499 9.5839 68.8759C9.92971 69.5938 10.2026 70.2966 9.89084 71.0686C9.53383 72.0594 8.5984 72.1701 7.77866 72.4568C7.73465 72.4857 7.74849 72.6027 7.82142 72.6177C10.2304 72.7358 11.7931 70.5115 11.1215 68.2433C10.7216 66.8679 9.48687 65.852 8.99894 64.5344C8.38148 62.9238 7.32524 61.4126 8.13985 59.68C7.56407 60.6255 7.64586 61.517 7.50763 62.553Z" fill="#51563A"/>
<path d="M18.1351 52.1658C17.167 52.802 16.126 53.4232 15.129 54.0155C14.0591 54.5927 13.6229 56.5176 13.4407 57.5826C12.9103 60.5147 14.0132 63.8226 14.798 66.6464C14.9979 67.3342 15.2419 67.993 15.5299 68.6229C15.7022 69.0767 15.9914 69.5168 15.9298 69.9983C15.8343 71.1953 15.3604 72.1999 14.9443 73.2926C14.3497 74.8806 14.0016 76.7477 15.3369 78.0125C15.3658 78.0565 15.4979 77.9697 15.4689 77.9257C14.4152 76.0348 15.3178 74.2443 16.1475 72.4388C16.9923 70.5603 17.9238 68.8138 17.9086 66.6814C17.8958 64.1693 16.6849 61.7516 16.4382 59.2672C16.3149 58.025 16.2356 56.7538 16.5939 55.5732C17.0112 54.2907 17.499 53.403 18.1929 52.2538C18.2369 52.2249 18.1791 52.1368 18.1351 52.1658Z" fill="#95A05B"/>
<path d="M18.8663 51.9369C19.7376 52.6874 20.6392 53.2921 21.3484 54.2753C21.9997 55.1704 22.0929 56.5585 22.1734 57.6398C22.2905 59.8313 21.2685 62.0153 20.5104 64.0258C20.347 64.4482 20.2125 64.9147 20.0051 65.3661C19.8266 65.8615 19.926 66.3003 19.7475 66.7957C19.2874 67.9172 18.4186 68.9923 17.697 69.9077C16.4889 71.5209 15.6152 73.3554 15.135 75.3092C15.9257 72.7732 17.4468 70.1981 19.5753 68.5471C21.6008 67.0269 22.5046 65.0466 23.367 62.7155C24.1702 60.4862 24.7409 58.0947 24.0404 55.7826C23.4682 53.9533 20.8076 52.1102 19.0134 51.7772C18.8235 51.7759 18.7644 51.8778 18.8663 51.9369Z" fill="#C3CB79"/>
<path d="M19.4614 52.5539C19.2426 52.5087 19.0817 52.5514 18.8768 52.6231C18.6165 52.2271 18.3273 51.787 18.023 51.4199C17.994 51.3759 17.9211 51.3608 17.906 51.4338C17.9903 51.9455 18.5536 52.8985 18.2155 53.2468C17.4511 54.0012 17.8799 55.4207 18.1666 56.2404C18.4534 57.0602 18.5352 57.9516 18.588 58.799C18.6246 59.9092 18.0626 60.9717 18.2161 62.068C18.4212 64.2017 18.9066 65.899 17.9148 67.9372C17.1894 69.4221 16.0126 70.6996 15.8845 72.4222C15.8694 72.4951 15.9864 72.4812 15.9575 72.4372C16.4816 70.4544 18.0972 69.0776 19.1456 67.3172C19.6032 66.5754 20.0759 65.7606 20.6354 65.0779C21.2979 64.2643 22.1817 63.1164 22.3929 62.0954C22.8013 59.9366 22.9898 57.9224 22.405 55.7862C22.1057 54.6597 21.7623 53.5621 20.803 52.8694C20.3227 52.618 19.7531 52.6142 19.4614 52.5539Z" fill="#D4DA98"/>
<path d="M16.8062 54.3622C16.184 55.7164 16.0294 57.0152 16.0346 58.4611C16.0045 60.8123 16.778 63.1395 17.4206 65.3636C17.8054 66.812 17.9011 67.8204 17.3366 69.2625C16.9206 70.3552 16.2857 71.4025 15.7967 72.4801C15.7816 72.553 15.8834 72.6121 15.8985 72.5392C17.1205 71.0429 18.0219 69.4423 18.7636 67.6946C19.5505 65.7281 20.2054 63.8484 19.7816 61.6695C19.486 59.9734 19.0735 58.2911 18.7779 56.595C18.5678 55.2208 17.5706 53.6078 18.5575 52.329C17.7239 52.4988 17.1758 53.6782 16.8062 54.3622Z" fill="#D4DA98"/>
<path d="M24.4532 50.6587C24.5261 50.6738 24.555 50.7178 24.6279 50.7329C24.3953 50.5707 24.3513 50.5997 24.4532 50.6587Z" fill="#D4DA98"/>
<path d="M21.3411 51.0033C21.2971 51.0322 21.3701 51.0473 21.3701 51.0473C22.3243 50.2941 23.3478 50.1255 24.4253 50.6145C24.3385 50.4825 24.3675 50.5265 24.6001 50.6887C24.5711 50.6447 24.4982 50.6296 24.4253 50.6145C24.4542 50.6585 24.5561 50.7176 24.7158 50.8647C24.9484 51.0269 25.181 51.1891 25.4576 51.3223C25.9668 51.6178 26.4911 51.8403 27.0004 52.1357C27.7573 52.5204 28.0604 53.0774 28.3332 53.7802C28.8501 55.1418 29.4235 56.7813 29.5456 58.2134C29.8048 61.0046 29.7283 63.7644 30.1334 66.5857C30.2579 67.6381 30.8942 68.6062 31.5606 69.4284C32.647 70.7938 33.5033 71.6172 32.9213 73.512C32.9062 73.585 32.9792 73.6001 33.0232 73.5711C33.5411 72.5376 33.6781 71.6914 33.1298 70.6655C32.8846 70.1965 32.5514 69.7854 32.2182 69.3743C31.509 68.3911 31.3983 67.4557 31.4938 66.2587C31.593 64.4922 31.926 62.698 32.2151 60.9327C32.5192 59.0945 32.6775 57.2261 32.8358 55.3578C33.1197 52.1466 30.8198 48.7432 27.6262 48.0067C25.3077 47.4511 22.333 48.9651 21.3411 51.0033Z" fill="#D4DA98"/>
<path d="M21.9834 51.0223C21.4868 51.0336 20.9889 51.2348 20.4922 51.2462C19.7328 51.2412 18.9922 50.5937 18.4842 50.1084L18.4402 50.1374C19.3205 51.7643 20.8897 53.0013 22.181 54.295C22.9355 55.0594 24.2041 55.3598 25.1195 56.0814C25.9041 56.7 26.3668 57.404 26.6963 58.3847C26.9969 59.3214 26.8146 60.3863 27.1881 61.3381C27.6622 62.5388 28.6933 63.4364 29.1674 64.6371C30.0426 67.0234 30.2012 69.5657 32.7776 70.897C32.8505 70.9121 32.9096 70.8102 32.8366 70.7952C30.3093 68.6755 30.0224 65.6505 30.495 62.6304C30.5565 62.1488 30.9387 61.7716 31.0443 61.2611C31.136 60.6337 31.1398 60.0642 31.1146 59.4506C31.034 58.3693 30.8655 57.3459 30.5071 56.3212C29.7186 54.0669 27.5685 52.3294 25.4863 51.3665C24.1032 50.7002 23.2105 50.9719 21.9834 51.0223Z" fill="#C3CB79"/>
<path d="M22.3416 49.8417C21.1573 50.053 19.8547 50.468 18.9583 51.3092C20.3489 50.8364 21.1951 50.9734 22.1959 52.0169C22.9215 52.7373 23.8821 53.2401 24.5636 53.9894C25.274 54.7827 26.2787 55.2567 26.9891 56.05C28.3232 57.5046 28.4089 60.0318 28.6014 61.8586C28.6303 61.9026 28.7032 61.9177 28.6743 61.8737C28.6301 59.6973 28.3232 57.5046 28.0892 55.3269C27.9244 53.7339 27.4503 52.5332 26.2746 51.4156C25.2876 50.489 23.8768 49.5889 22.3416 49.8417Z" fill="#95A05B"/>
<path d="M19.1329 51.3833C19.0889 51.4122 19.0738 51.4851 19.1467 51.5002C20.8227 52.037 22.0852 53.2866 23.3778 54.3905C24.859 55.6854 25.709 57.4581 26.1932 59.3453C26.4359 60.194 26.7227 61.0137 27.0974 61.7756C27.4432 62.4935 28.038 63.1108 28.3838 63.8287C29.0905 65.1916 29.4892 66.7569 30.1959 68.1198C30.2248 68.1638 30.2688 68.1349 30.2839 68.062C29.6803 66.5683 29.3407 64.9011 28.649 63.4653C28.2743 62.7034 27.7676 62.0283 27.4079 61.1935C26.9917 60.0808 26.8244 58.8675 26.686 57.6982C26.3627 55.7683 25.2763 54.4029 23.8089 53.2249C22.632 52.2971 20.7259 51.2185 19.1329 51.3833Z" fill="#95A05B"/>
<path d="M23.5993 56.2614C24.5575 59.3493 23.4376 63.11 21.5807 65.6537C20.6227 66.9764 19.1706 67.9308 18.0529 69.1065C15.6416 71.5735 13.3523 75.4726 15.6823 78.7301C15.7113 78.7741 15.7993 78.7163 15.7704 78.6723C14.8348 76.5776 14.9503 74.5483 16.2339 72.5705C17.2811 71.0001 18.7508 69.593 20.0595 68.2287C23.1473 65.0651 24.9726 60.6518 23.5993 56.2614Z" fill="#51563A"/>
<path d="M19.8842 59.3333C20.6375 62.4929 19.7714 65.3936 18.0893 68.0114C17.4696 68.9859 16.9516 70.0194 16.4048 71.009C15.8579 71.9985 15.2381 72.973 15.0408 74.1108C15.0257 74.1838 15.0986 74.1988 15.1137 74.1259C16.4287 71.8124 18.2089 69.8232 19.3491 67.4355C20.5057 64.785 20.7129 62.1283 19.8842 59.3333C19.9282 59.3044 19.8842 59.3333 19.8842 59.3333Z" fill="#95A05B"/>
<path d="M21.4044 56.9483C22.9436 60.5365 21.6073 63.8722 19.4123 66.7642C18.4694 68.0141 17.5844 69.3519 16.7144 70.6168C16.0506 71.6202 15.3428 72.6525 15.0864 73.8922C15.0713 73.9651 15.1442 73.9802 15.1593 73.9073C16.6239 71.0544 19.0617 69.0111 20.657 66.2612C22.4585 63.2498 22.8732 60.1417 21.4044 56.9483Z" fill="#737B51"/>
<path d="M19.2054 55.8091C20.3949 57.0437 21.582 58.658 20.8981 60.4937C21.6826 58.9069 21.3341 56.3634 20.3068 54.8962C19.8151 54.1481 18.5818 55.1478 19.2054 55.8091Z" fill="#737B51"/>
<path d="M20.9912 55.266C22.1807 56.5006 23.3677 58.1149 22.6838 59.9506C23.4683 58.3638 23.1198 55.8203 22.0925 54.3531C21.6448 53.5761 20.3386 54.5607 20.9912 55.266Z" fill="#737B51"/>
<path d="M17.6347 54.9524C15.4219 56.0916 16.7587 59.3719 16.9801 61.2427C16.9801 61.2427 17.009 61.2867 17.0241 61.2138C17.107 59.7101 16.3662 56.8573 18.066 55.9921C18.667 55.6602 18.2797 54.5915 17.6347 54.9524Z" fill="#737B51"/>
<path d="M30.6602 61.8286C30.4038 63.0683 29.8406 64.3207 29.847 65.5767C29.8232 66.9786 30.2684 68.1353 31.0053 69.3523C31.9446 70.8774 33.4899 71.311 32.9205 73.5126C33.2787 72.332 33.0511 71.4104 32.2979 70.4561C31.1825 69.0468 31.0315 67.5707 30.824 65.8168C30.6881 64.2678 30.566 62.8357 30.8098 61.2892C30.8714 60.8077 30.977 60.2972 30.9367 59.7565C30.9757 60.487 30.7369 61.2741 30.6602 61.8286Z" fill="#51563A"/>
<path d="M30.8251 59.0108C30.883 59.0988 30.8968 59.2157 30.9546 59.3037C30.8968 59.2157 30.883 59.0988 30.8251 59.0108Z" fill="#51563A"/>
<path d="M30.9656 59.8001C30.9668 59.6102 30.9241 59.4493 30.8813 59.2884C30.9241 59.4493 30.9668 59.6102 30.9656 59.8001Z" fill="#51563A"/>
<path d="M28.7583 64.591C29.1908 65.4409 29.5933 66.4366 29.704 67.3721C29.8008 68.1906 29.7971 68.7601 30.1869 69.4491C30.4321 69.9181 31.0005 70.1117 31.4078 70.348C32.63 71.057 32.9004 72.1396 32.7748 73.4824C32.9607 71.8479 32.6174 70.7503 31.5297 69.5747C30.3415 68.1503 29.6234 66.2908 28.7583 64.591Z" fill="#51563A"/>
<path d="M22.0375 53.8857C23.4621 54.9028 24.4894 56.37 25.3558 57.88C26.1644 59.3019 26.548 60.9402 27.6205 62.1886C27.6494 62.2326 27.6935 62.2037 27.6645 62.1597C26.4486 60.5014 26.7251 58.4293 25.67 56.7283C24.7735 55.3641 23.5237 54.4212 22.0375 53.8857Z" fill="#737B51"/>
<path d="M23.6254 52.2746C23.5374 52.3324 23.5802 52.4934 23.6971 52.4795C24.4415 52.5574 25.2537 53.4098 25.7617 53.8951C26.11 54.2333 26.6054 54.4118 26.9097 54.7789C27.2869 55.1611 27.5321 55.6301 27.7334 56.128C27.7334 56.128 27.7623 56.172 27.7774 56.099C27.6088 55.0756 27.2981 53.4524 26.6606 52.6742C25.7465 51.7627 24.6677 51.4636 23.6254 52.2746Z" fill="#737B51"/>
<path d="M8.44626 53.0517C7.25567 54.2123 6.63216 55.7563 6.62097 57.465C6.602 55.9021 7.57381 54.6963 8.77699 53.8425C9.92109 53.0906 11.1193 52.9962 12.4055 52.844C12.5224 52.8301 12.5526 52.6843 12.4508 52.6252C11.392 51.4937 9.48976 52.0508 8.44626 53.0517Z" fill="#737B51"/>
<path d="M7.69473 51.907C6.18476 52.7734 5.60525 54.2885 5.08358 55.8916L5.1125 55.9356C6.54441 53.6082 8.95964 52.777 11.5899 52.5605C11.7068 52.5467 11.737 52.4009 11.6352 52.3418C10.3099 51.7635 8.99975 51.1123 7.69473 51.907Z" fill="#737B51"/>
<path d="M7.31454 45.2885C6.51361 44.9328 6.25953 43.5875 5.31027 43.5813C6.35532 46.8012 8.33705 49.7205 10.0698 52.7404C10.1126 52.9013 10.1554 53.0623 10.2421 53.1943C10.8532 53.5488 13.7113 56.4593 15.1295 56.2203C14.4052 55.31 12.0149 52.3442 11.9469 51.5697C11.7104 49.7718 12.5903 46.988 12.4809 45.8628C12.257 44.3716 8.8158 45.7511 7.31454 45.2885Z" fill="#753D36"/>
<path d="M24.6399 49.0243C24.3796 48.6283 24.1193 48.2323 23.991 47.7495C23.9482 47.5885 23.8904 47.5005 23.8476 47.3396C22.2598 48.9503 22.7237 49.4645 24.6399 49.0243Z" fill="#D45746"/>
<path d="M23.9215 47.3546C23.9642 47.5155 24.0221 47.6035 24.0648 47.7644C24.1642 48.2032 24.3805 48.6282 24.7137 49.0393C25.5473 48.8695 26.616 48.4822 27.9487 47.9213C28.4025 47.749 28.8413 47.6497 29.265 47.6232C29.4146 47.0839 29.5956 46.2088 29.9074 45.4367C30.4555 44.2573 31.0765 43.093 31.4788 41.8835C27.5486 44.3405 25.1271 46.1211 23.9215 47.3546Z" fill="#B45244"/>
<path d="M-0.0367584 32.6657C0.163203 33.3534 0.839743 34.8621 0.864934 35.4757C0.873798 36.352 0.959319 36.6739 0.793412 37.4761C0.672752 38.0595 0.806006 37.7828 0.819845 37.8998C1.37308 38.1663 1.67862 38.3435 2.10109 38.507C3.54326 39.0714 4.71644 40.5688 6.20386 40.9144C7.10788 41.1394 8.09493 42.066 8.98512 42.174C8.79759 39.5878 4.88981 38.6275 3.55943 36.6033C2.63395 35.1952 1.00689 33.8701 -0.0367584 32.6657Z" fill="#B45244"/>
<path d="M30.729 22.5274C30.7717 22.6883 30.7856 22.8053 30.729 22.5274V22.5274Z" fill="#D76557"/>
<path d="M30.5085 22.672C29.3595 24.1834 28.4443 25.6671 27.5869 27.2388C29.0415 25.9047 30.3075 24.3795 30.7286 22.5274C30.6996 22.4834 30.6996 22.4834 30.7147 22.4105C30.6858 22.3665 30.7298 22.3376 30.7009 22.2936C30.1728 22.6406 30.6556 22.5123 30.5085 22.672Z" fill="#D76557"/>
<path d="M30.685 22.3659C30.6998 22.2947 30.685 22.3659 30.685 22.3659V22.3659Z" fill="#D76557"/>
<path d="M30.7281 22.5273C30.6991 22.4833 30.7142 22.4103 30.6853 22.3663C30.6853 22.3663 30.7142 22.4103 30.6702 22.4393C30.6991 22.4833 30.7281 22.5273 30.7281 22.5273Z" fill="#D76557"/>
<path d="M25.1452 32.0569C22.763 36.7732 22.2869 42.5682 23.9054 47.4276C33.406 35.1342 25.3897 39.3316 28.5952 31.5537C28.8605 31.1903 32.0313 28.7283 30.7572 22.5713C30.3361 24.4234 29.0261 25.9775 27.6155 27.2827C26.3067 28.647 25.9598 30.3242 25.1452 32.0569Z" fill="#D76557"/>
<path d="M14.0977 13.0425C6.68717 13.9432 1.19448 20.8299 2.12293 28.4743C2.26131 29.6436 2.47387 30.6381 3.06365 32.0148C3.36919 32.192 3.71873 32.3404 4.06827 32.4887C4.25688 32.6798 4.27959 33.6731 4.91958 34.0716C4.30851 33.7171 4.2858 32.7238 4.06827 32.4887C3.71873 32.3404 3.36919 32.192 3.06365 32.0148C3.99924 34.1094 5.84895 37.1155 9.78225 43.1C11.0974 42.9918 12.4854 42.8986 13.7692 43.1261C12.4565 42.8546 11.0974 42.9918 9.78225 43.1C9.95577 43.364 10.1293 43.628 10.3028 43.8921C11.4169 45.4913 12.9572 46.6844 14.3215 47.9931C17.0209 48.3613 19.5733 48.8892 21.9761 49.9565C22.6977 49.0411 23.3314 48.1836 23.9499 47.399C22.3603 42.5836 23.7025 33.8879 26.0848 29.1716C26.8101 27.6867 27.7707 28.1895 28.5804 27.2163C27.9354 27.5772 27.3055 27.8652 26.9095 28.1255C26.8064 28.2562 27.3218 27.6024 27.2778 27.6313C25.0425 29.9827 21.2167 32.1191 17.6497 32.6361C13.2643 33.25 9.53873 31.2247 5.07522 30.3776C7.32595 32.364 7.1728 35.6783 7.68094 38.3689C7.1728 35.6783 7.35487 32.408 5.07522 30.3776C9.49473 31.2537 13.1914 33.2349 17.6497 32.6361C21.1878 32.0751 25.0425 29.9827 27.2778 27.6313C27.4979 27.4867 28.7576 26.9108 28.8897 26.824C28.8155 26.9988 28.7124 27.1296 28.6093 27.2603C29.9873 26.4807 31.4419 25.1466 30.7577 22.5717C30.9488 22.3831 30.8344 22.0172 30.9224 21.9593C29.2597 14.9236 14.6823 12.9733 14.0977 13.0425Z" fill="#ECBAB8"/>
<path d="M27.2485 27.587C27.2925 27.5581 26.7771 28.2119 26.8802 28.0811C27.2762 27.8208 27.935 27.5769 28.5511 27.172C28.6542 27.0412 28.7572 26.9104 28.8314 26.7357C28.6843 26.8954 27.3956 27.4273 27.2485 27.587Z" fill="#ECBAB8"/>
<path d="M3.01906 25.428C5.28363 27.5313 6.49086 30.5186 6.61681 33.5864C6.63951 34.5797 6.57421 35.6308 6.45106 36.5939C6.41965 36.9296 6.31532 37.2502 6.25499 37.5419C6.18082 37.7167 6.0174 38.1392 6.23866 37.8047C6.12049 38.0084 6.14817 38.2422 6.39586 38.3315C7.56142 38.7627 7.51586 34.5708 7.5045 34.0742C7.35212 30.5826 6.00028 27.3753 3.01906 25.428C3.06307 25.3991 3.01906 25.428 3.01906 25.428Z" fill="#E7A5A0"/>
<path d="M4.0571 22.9808C6.79949 25.7152 7.44229 30.1447 7.35957 33.8537C7.30686 35.2116 7.25415 36.5695 7.0996 37.8683C7.02294 38.4228 6.91612 39.1232 7.11857 39.4312C7.26317 39.6512 7.54104 39.5946 7.68813 39.4349C7.67429 39.318 7.70446 39.1721 7.6617 39.0112C7.74846 39.1432 7.7623 39.2601 7.70321 39.362C7.98356 38.9257 7.91685 37.9613 8.02243 37.4509C8.16439 35.8453 8.26235 34.2686 8.14153 32.6467C7.90238 29.0231 7.06475 25.3518 4.0571 22.9808C4.1011 22.9518 4.0571 22.9808 4.0571 22.9808Z" fill="#E7A5A0"/>
<path d="M7.69062 39.055C7.70446 39.1719 7.6743 39.3177 7.68814 39.4347L7.73214 39.4058C7.79123 39.3039 7.77739 39.187 7.69062 39.055Z" fill="#E7A5A0"/>
<path d="M3.64971 31.7553C4.80905 33.1358 5.98222 34.6331 6.37966 36.3883C6.53562 37.105 6.45399 38.4189 6.97581 39.0211C7.16442 39.2122 7.4712 39.1996 7.56046 38.9519C7.84329 38.1359 7.37044 36.7453 7.08372 35.9256C6.46751 34.1251 5.30817 32.7447 3.64971 31.7553C3.69371 31.7264 3.64971 31.7553 3.64971 31.7553Z" fill="#E7A5A0"/>
<path d="M13.9711 30.2017C13.9271 30.2306 13.956 30.2746 13.912 30.3035C13.9271 30.2306 13.9271 30.2306 13.9711 30.2017Z" fill="#E7A5A0"/>
<path d="M13.9286 29.8512C13.8985 29.9971 13.9123 30.114 13.9261 30.2309C13.9701 30.202 13.9412 30.158 13.9852 30.1291C14.0003 30.0562 14.0154 29.9832 13.9286 29.8512Z" fill="#E7A5A0"/>
<path d="M10.0271 14.7095C12.5068 17.4277 13.2401 21.4196 13.3044 24.9689C13.3397 26.269 13.287 27.6269 13.2054 28.9408C13.1891 29.2036 13.0986 29.6411 13.1552 29.919C13.169 30.0359 13.2847 30.2119 13.3425 30.2999C13.5022 30.447 13.7361 30.4193 13.8832 30.2596C13.8693 30.1427 13.8995 29.9969 13.8567 29.8359C13.9435 29.9679 13.9573 30.0849 13.8983 30.1867C14.1346 29.7793 14.0679 28.815 14.0855 28.3624C14.1533 26.9315 14.1481 25.4856 13.9971 24.0096C13.6989 20.4879 12.772 17.0643 10.0271 14.7095Z" fill="#E7A5A0"/>
<path d="M17.0004 29.1558C17.0004 29.1558 16.9715 29.1118 17.0004 29.1558C17.0143 29.2727 17.057 29.4337 17.0709 29.5506C17.101 29.4048 17.1312 29.2589 17.0004 29.1558Z" fill="#E7A5A0"/>
<path d="M15.4865 21.7705C15.4452 23.625 15.5937 25.4808 15.9031 27.2938C15.9723 27.8784 16.1144 28.4782 16.2276 29.0339C16.2704 29.1948 16.2691 29.3847 16.3999 29.4878C16.4577 29.5758 16.85 29.885 16.5596 29.6349C16.7482 29.826 17.0122 29.6524 17.0864 29.4777C17.0725 29.3607 17.0298 29.1998 17.0159 29.0829C17.1467 29.186 17.1455 29.3758 17.0864 29.4777C17.3089 28.9533 16.8625 27.9865 16.7782 27.4748C16.5254 25.9396 16.3165 24.3755 16.1806 22.8266C16.0208 20.4741 15.8092 14.8791 19.0404 14.3307C15.6495 14.732 15.5039 19.1125 15.4865 21.7705Z" fill="#E7A5A0"/>
<path d="M16.1731 23.966C16.2537 25.0473 16.372 27.0489 17.2283 27.8724C17.5766 28.2106 18.0896 27.9365 17.9613 27.4537C17.3488 25.0837 15.748 21.977 17.4138 19.6219C16.0774 20.7523 16.0523 22.3441 16.1731 23.966Z" fill="#E7A5A0"/>
<path d="M18.4296 25.0031C18.3781 26.1711 18.2814 27.5579 18.7856 28.6128C19.1025 29.2867 20.0983 28.8843 19.8694 28.1525C19.5688 27.2159 19.5172 26.1786 19.4065 25.2432C19.2832 24.0009 19.3246 22.1464 19.9016 21.011C18.6531 22.0836 18.4835 23.4553 18.4296 25.0031Z" fill="#E7A5A0"/>
<path d="M19.3416 24.0889C18.9859 24.8899 17.8721 27.7013 18.7875 28.4229C19.0201 28.5851 19.3709 28.5436 19.562 28.355C19.7681 28.0934 19.6688 27.6546 19.7002 27.3189C19.7781 26.5746 19.9289 25.8453 20.0646 25.189C20.3826 23.4677 21.4914 21.4157 23.2478 20.8285C21.1745 20.7418 20.1713 22.2834 19.3416 24.0889Z" fill="#E7A5A0"/>
<path d="M19.3775 32.0049C19.3926 31.932 19.4227 31.7862 19.5107 31.7283C19.4227 31.7862 19.3636 31.888 19.3775 32.0049Z" fill="#E7A5A0"/>
<path d="M22.4339 22.3713C21.0999 23.122 20.142 24.4448 19.6505 25.9021C19.2331 27.1845 19.1075 28.5274 19.1717 29.8714C19.1831 30.3681 19.2384 30.8358 19.2938 31.3035C19.3365 31.4644 19.3064 31.6103 19.3491 31.7712C19.3617 32.078 19.3617 32.078 19.3768 32.0051C19.363 31.8881 19.4221 31.7863 19.5101 31.7284C19.4221 31.7863 19.3919 31.9321 19.3768 32.0051C19.3906 32.122 19.4774 32.254 19.6082 32.3571C20.3211 32.7707 20.184 31.4115 20.2003 31.1488C20.0619 29.9795 20.0254 28.8693 20.1497 27.7163C20.3206 26.1547 20.8561 24.6686 22.0027 23.5369C23.7075 21.9123 26.5289 21.5073 28.7782 21.4782C26.5163 21.2005 24.4279 21.1868 22.4339 22.3713Z" fill="#E7A5A0"/>
<path d="M9.20413 35.4138C9.18905 35.4868 9.14504 35.5157 9.12996 35.5886C9.14504 35.5157 9.18905 35.4868 9.20413 35.4138Z" fill="#E7A5A0"/>
<path d="M5.91935 19.6775C7.08241 20.4883 7.3906 22.4912 7.65975 23.7636C8.05719 25.5188 8.17676 27.3305 8.25234 29.1712C8.31531 30.7051 8.33428 32.268 8.35326 33.8308C8.33569 34.2834 8.36212 34.7072 8.38855 35.1309C8.38731 35.3207 8.44515 35.4087 8.53192 35.5407C8.58976 35.6287 8.83621 35.9079 8.58976 35.6287C8.77837 35.8198 9.01223 35.7922 9.15932 35.6325C9.14548 35.5155 9.17565 35.3697 9.13289 35.2088C9.19073 35.2968 9.24857 35.3848 9.23349 35.4577C9.42707 34.8894 9.28744 33.91 9.24717 33.3693C9.21436 31.6896 9.15263 29.9658 8.97397 28.2559C8.67076 25.4936 8.55227 21.2866 5.91935 19.6775C5.89042 19.6335 5.91935 19.6775 5.91935 19.6775Z" fill="#E7A5A0"/>
<path d="M9.10446 35.1648C9.1183 35.2818 9.08814 35.4276 9.1309 35.5885C9.1749 35.5596 9.18998 35.4867 9.20506 35.4138C9.22015 35.3408 9.16231 35.2528 9.10446 35.1648Z" fill="#E7A5A0"/>
<path d="M9.21267 34.0852C9.16866 34.1141 9.19759 34.1581 9.15358 34.1871C9.16866 34.1141 9.21267 34.0852 9.21267 34.0852Z" fill="#E7A5A0"/>
<path d="M6.74115 19.011C7.84638 19.7339 8.0238 21.6337 8.23511 22.818C8.5307 24.5141 8.56351 26.1939 8.55232 27.9026C8.54237 29.4214 8.45949 30.9251 8.44954 32.444C8.43197 32.8966 8.38548 33.3052 8.41191 33.7289C8.38175 33.8748 8.42451 34.0357 8.51127 34.1677C8.56912 34.2558 8.78665 34.4909 8.56912 34.2558C8.71372 34.4758 8.99158 34.4192 9.13868 34.2595C9.12484 34.1426 9.155 33.9967 9.11224 33.8358C9.19901 33.9678 9.18393 34.0407 9.15376 34.1866C9.44919 33.6773 9.29572 32.581 9.28437 32.0843C9.32448 30.4196 9.32059 28.7839 9.21486 27.089C9.14426 24.4889 9.21438 20.4731 6.74115 19.011C6.75623 18.9381 6.74115 19.011 6.74115 19.011Z" fill="#E7A5A0"/>
<path d="M9.17265 33.7342C9.14249 33.88 9.15633 33.9969 9.17017 34.1139C9.21417 34.085 9.18525 34.041 9.22925 34.012C9.24433 33.9391 9.25942 33.8662 9.17265 33.7342Z" fill="#E7A5A0"/>
<path d="M14.6182 29.4616C14.632 29.5785 14.6019 29.7244 14.6446 29.8853C14.6886 29.8564 14.7037 29.7834 14.7628 29.6816C14.7339 29.6376 14.676 29.5496 14.6182 29.4616Z" fill="#E7A5A0"/>
<path d="M9.81062 16.4903C11.0063 16.7756 11.4767 18.5459 11.8351 19.5706C12.4236 21.1371 12.7632 22.8043 13.0299 24.4564C13.2551 25.7577 13.4362 27.0879 13.6614 28.3892C13.7029 28.74 13.7733 29.1348 13.8148 29.4856C13.8287 29.6025 13.9733 29.8225 14.0311 29.9105C14.2926 30.1167 14.6296 29.9583 14.6459 29.6955C14.6308 29.7684 14.6158 29.8413 14.5277 29.8992C14.5139 29.7822 14.5441 29.6364 14.5013 29.4755C14.5592 29.5635 14.5881 29.6075 14.573 29.6804C14.7226 29.141 14.3931 28.1603 14.3227 27.7655C14.056 26.1134 13.7164 24.4463 13.2888 22.837C12.9366 20.863 12.2611 16.9591 9.81062 16.4903Z" fill="#E7A5A0"/>
<path d="M4.28633 21.5076C6.5383 23.3041 7.28792 27.0333 7.56221 29.7515C7.71444 31.0378 7.77866 32.3818 7.72595 33.7397C7.72346 34.1194 7.67697 34.5281 7.63048 34.9367C7.60031 35.0825 7.45073 35.6219 7.50982 35.5201C7.36272 35.6798 7.44824 36.0016 7.66702 36.0469C9.12427 36.5384 8.50277 31.0867 8.4185 30.575C8.04609 27.2281 7.23863 23.411 4.28633 21.5076Z" fill="#E7A5A0"/>
<path d="M3.38132 30.2936C5.35543 32.1467 6.83165 34.201 7.13486 36.9633C7.17638 37.3141 7.05448 38.0874 7.25693 38.3954C7.40153 38.6154 7.83908 38.7059 7.94342 38.3853C7.78 38.8078 8.0025 38.2834 8.01758 38.2105C8.04775 38.0647 8.00499 37.9037 8.00623 37.7139C7.99613 37.0274 7.9571 36.2969 7.74205 35.6821C7.07173 33.2241 5.57918 31.4325 3.38132 30.2936C3.3964 30.2207 3.38132 30.2936 3.38132 30.2936Z" fill="#E7A5A0"/>
<path d="M17.8812 23.9768C17.5304 24.0183 12.6384 26.1624 11.4794 29.1926C12.1898 29.9859 12.5972 30.2222 13.5766 30.0826C16.0321 29.792 19.3047 27.389 19.2166 25.2416C18.8418 24.4797 18.3489 23.9215 17.8812 23.9768Z" fill="#B45244"/>
<g opacity="0.2">
<path opacity="0.2" d="M14.4496 32.6589C15.0406 33.8457 16.0415 34.8892 16.7205 36.0182C17.1971 36.8392 17.7253 38.6975 18.0535 39.868C18.2936 38.8911 18.4808 37.0667 18.2479 32.4939C18.014 32.5216 17.7651 32.6222 17.5312 32.6498C16.4789 32.7744 15.4567 32.7531 14.4496 32.6589Z" fill="#F7E3E2"/>
<path opacity="0.2" d="M16.5473 26.7433C14.8663 26.966 13.5601 27.9505 13.9488 31.0347C14.018 31.6193 14.2481 32.1612 14.4493 32.6591C15.4564 32.7533 16.4786 32.7746 17.575 32.6212C17.8088 32.5935 18.0427 32.5658 18.2916 32.4652C18.2136 31.0042 18.1078 29.3094 17.9606 27.2637C17.5532 27.0274 16.7812 26.7156 16.5473 26.7433Z" fill="#753D36"/>
<path opacity="0.2" d="M13.9269 30.0411C13.9118 30.1141 13.9697 30.2021 13.9986 30.2461C15.4898 30.0222 14.6008 29.7242 14.4913 28.599C14.4637 28.3651 14.4649 28.1753 14.5102 27.9565C13.9658 28.5663 13.8842 29.8802 13.9269 30.0411Z" fill="#E7A5A0"/>
<path opacity="0.2" d="M16.2952 27.4132C15.8715 27.4396 15.5484 27.715 15.4567 28.3424C15.3813 28.707 14.8394 28.9372 14.5163 29.2125C14.6898 29.4766 14.4975 29.855 14.8483 29.8135C14.9212 29.8286 17.4407 28.6767 18.0618 27.5124C18.0178 27.5413 17.9888 27.4973 17.9448 27.5263C17.5501 27.5967 16.807 27.3289 16.2952 27.4132Z" fill="#D45746"/>
</g>
<path d="M2.07417 44.6995C2.16482 46.4673 4.23704 48.9491 4.65702 49.4922C5.35238 50.3584 7.70868 51.8344 10.2259 53.2675C10.1832 53.1066 10.1115 52.9016 10.0536 52.8136C8.32084 49.7937 6.33911 46.8744 5.29406 43.6545C5.25005 43.6834 5.22113 43.6394 5.22113 43.6394C4.60757 43.6646 2.92656 43.8872 2.07417 44.6995Z" fill="#B45244"/>
<path d="M12.1471 54.2731C13.3203 55.7704 15.2831 57.1269 17.9133 56.9105C17.6355 56.9671 15.0001 55.7376 12.1471 54.2731Z" fill="#D45746"/>
<path d="M16.1885 32.7139C16.8134 33.1853 17.3365 33.5977 17.6119 33.9208C18.2066 34.5381 18.5374 35.3289 18.9121 36.0908C19.0352 35.1277 19.2049 33.756 19.3317 32.2233C18.732 32.3654 18.0883 32.5364 17.5326 32.6496C17.1089 32.6761 16.6411 32.7314 16.1885 32.7139Z" fill="#DC786F"/>
<path d="M13.3716 30.1539C12.787 30.223 14.7057 31.6085 16.2171 32.7575C16.6697 32.7751 17.1374 32.7197 17.6051 32.6644C18.2338 32.5663 18.8335 32.4242 19.4043 32.238C19.5638 30.1798 19.6806 27.9607 19.4718 26.3966C19.4441 26.1627 19.4164 25.9289 19.3158 25.6799C18.9375 27.6929 16.2948 29.8079 13.3716 30.1539Z" fill="#DC786F"/>
<path d="M9.46407 20.3728C7.43228 20.637 5.82311 23.2699 5.93631 23.8256C5.99166 24.2933 6.85417 24.1675 6.55874 24.6768C6.20173 25.6676 7.67407 26.0861 8.99061 27.9934C9.35508 25.8635 10.2187 23.3425 12.3963 23.1085C13.9164 22.9286 15.3007 23.405 16.2915 23.762C14.8832 22.4822 11.174 20.1941 9.46407 20.3728Z" fill="#DC786F"/>
<path d="M12.3957 23.1084C10.8316 23.3172 8.93444 25.3202 9.11435 26.8403C9.17095 27.1182 9.30047 27.4111 9.25647 27.44C9.29923 27.601 9.16846 27.4979 9.21122 27.6588C9.25274 28.0096 10.6647 28.7199 11.4066 29.1775C11.9094 28.2169 12.235 27.5618 13.0145 26.7344C13.1616 26.5747 15.348 25.0117 17.0767 24.1906C15.8244 23.6274 13.7548 22.9712 12.3957 23.1084Z" fill="#D45746"/>
<path d="M8.61815 31.2622C9.03316 32.5647 14.7614 32.0765 17.158 34.093C17.6521 34.4614 18.0583 34.8876 18.5524 35.2559C18.0042 34.23 17.3817 33.3788 16.6851 32.7025C13.909 32.8887 11.3441 32.0541 8.61815 31.2622Z" fill="#E7A5A0"/>
<path d="M8.64973 30.9269C8.61956 31.0728 8.60448 31.1457 8.66232 31.2337C11.3882 32.0256 13.9243 32.8163 16.7293 32.674C14.2485 30.1457 9.32471 28.2148 7.08906 26.1555C8.97392 28.2564 8.7553 30.4164 8.64973 30.9269Z" fill="#D8685C"/>
<path d="M19.3059 27.1993C19.3474 27.5501 19.3889 27.9009 19.4745 28.2227C19.7928 30.9121 18.5781 29.0639 21.5453 28.6891C22.013 28.6337 22.3198 28.6211 22.3198 28.6211C22.6706 28.5796 22.302 26.8684 19.3888 25.6956C19.2392 26.2349 19.2505 26.7316 19.3059 27.1993Z" fill="#D45746"/>
<path d="M19.2862 25.8264C19.1517 26.2928 18.9558 29.4462 19.7014 29.3342C19.8183 29.3204 19.8334 29.2475 19.8485 29.1745C19.8346 29.0576 19.7189 28.8816 19.7051 28.7647C19.5907 28.3988 19.5491 28.048 19.4636 27.7261C19.3655 27.0975 19.2385 26.4248 19.2862 25.8264C19.3302 25.7974 19.3302 25.7974 19.2862 25.8264Z" fill="#B45244"/>
<path d="M19.5615 26.3392C19.4421 26.7327 18.9733 29.1833 19.7327 29.1882C19.8496 29.1744 19.9376 29.1166 19.8949 28.9556C19.7515 28.5458 19.622 28.2528 19.5666 27.7851C19.5842 27.3325 19.5729 26.8358 19.5615 26.3392C19.6344 26.3543 19.6055 26.3103 19.5615 26.3392Z" fill="#B45244"/>
<path d="M19.9693 26.3857C19.8499 26.7792 19.2943 29.0977 20.0097 29.1316C20.1266 29.1178 20.2586 29.031 20.1719 28.899C19.9141 28.1233 19.8763 27.2029 19.9693 26.3857C20.0133 26.3567 20.0133 26.3567 19.9693 26.3857Z" fill="#B45244"/>
<path d="M20.6401 26.6382C20.5358 26.9588 19.5288 29.0699 20.3323 29.046C20.4492 29.0321 20.5083 28.9303 20.4944 28.8134C20.2216 28.1105 20.5333 27.3385 20.6401 26.6382C20.6841 26.6093 20.6112 26.5942 20.6401 26.6382Z" fill="#B45244"/>
<path d="M20.365 26.125C20.3499 26.198 20.4229 26.213 20.5247 26.2721L20.3361 26.081C20.3361 26.081 20.3361 26.081 20.365 26.125Z" fill="#F7E3E2"/>
<path d="M5.53904 30.8912C6.37014 31.1011 7.24648 31.0923 8.15175 31.1274C7.14588 30.8433 6.09601 30.5882 5.00213 30.3619C5.23475 30.5241 5.42335 30.7152 5.53904 30.8912Z" fill="#F7E3E2"/>
<path d="M4.74273 29.7766C4.46487 29.8332 4.18701 29.8898 3.90915 29.9464C4.32913 30.4895 4.91128 30.8001 5.53869 30.8918C5.35008 30.7007 5.23439 30.5247 5.00178 30.3625C6.09565 30.5887 7.10152 30.8728 8.15139 31.128C8.74987 31.1757 9.30435 31.2524 9.87267 31.446C12.8149 32.6628 16.2762 32.6563 18.3659 32.4801C19.3604 32.2675 20.2971 31.967 21.2928 31.5646C20.8829 31.7079 20.4152 31.7633 19.9475 31.8186C14.5688 32.4552 4.81565 29.7917 4.74273 29.7766Z" fill="#F7E3E2"/>
<path d="M20.5244 26.2721L20.4226 26.213C20.4515 26.257 20.4955 26.2281 20.5244 26.2721Z" fill="#F7E3E2"/>
<path d="M23.6812 30.3094C23.0941 30.7583 22.3171 31.206 21.2195 31.5493C20.2677 31.9228 19.287 32.2523 18.2925 32.4648C18.5993 32.4522 18.8772 32.3956 19.111 32.368C24.022 31.7867 24.7914 30.2729 25.3244 29.1664C24.8542 29.6015 24.2822 29.9775 23.6812 30.3094Z" fill="#F7E3E2"/>
<path d="M22.0649 31.8759C21.9618 32.0067 21.8449 32.0205 21.7279 32.0343C21.3771 32.0758 20.8817 31.8973 20.458 31.9238C20.414 31.9527 18.9782 32.6443 17.8089 32.7827C17.5751 32.8104 16.6258 32.8042 15.5747 32.7389C15.3119 32.7225 15.0491 32.7062 14.7864 32.6899C13.5454 32.6233 12.2755 32.5128 12.1007 32.4386C11.97 32.3355 11.7952 32.2614 11.6644 32.1583C10.6875 31.9182 9.6527 31.5901 8.64683 31.306C7.6108 31.1678 5.56765 30.9353 4.66239 30.9002C5.34763 31.08 6.44913 32.3724 6.72201 33.0752C7.09675 33.8371 7.39731 34.7738 7.5357 35.9431C7.64766 36.6886 7.64268 37.4481 7.62262 38.2804L7.65154 38.3244L7.62262 38.2804C7.6164 39.2297 7.49326 40.1928 7.60397 41.1282C7.687 41.8298 7.81404 42.5024 8.058 43.1612C9.92762 43.1297 11.9456 42.7486 13.8127 43.0967C11.9456 42.7486 9.92762 43.1297 8.058 43.1612C8.47301 44.4638 9.12187 45.7386 9.87382 46.8827C11.3889 47.4622 12.0353 49.1168 12.9759 50.452C14.1918 52.1103 16.1294 52.8533 17.2711 54.6863C21.3397 53.3985 23.1526 50.8838 24.035 47.7203C22.3146 42.8019 22.719 36.802 25.1604 31.9838C25.7525 30.7755 26.1987 29.537 26.601 28.3274C26.0428 28.8203 25.6153 29.4163 25.2608 30.0274C24.5669 31.1766 23.0933 30.9479 22.0649 31.8759Z" fill="#DC786F"/>
<path d="M8.64688 31.3063C9.65275 31.5904 10.6875 31.9184 11.6645 32.1585C10.6749 31.6117 9.654 31.4005 8.64688 31.3063Z" fill="#DC786F"/>
<path d="M5.34804 31.0803C5.78311 31.5505 6.33385 32.1967 6.72242 33.0756C6.52246 32.3878 6.20557 31.7139 5.75667 31.1268C5.61082 31.0966 5.46497 31.0665 5.34804 31.0803Z" fill="#DC786F"/>
<path d="M15.6187 32.7102C15.3559 32.6939 15.0931 32.6776 14.8303 32.6613C15.0491 32.7065 15.3559 32.6939 15.6187 32.7102Z" fill="#DC786F"/>
<path d="M10.2035 39.0424C10.2111 40.1086 10.1169 41.1157 10.5193 42.1114C10.9644 43.2681 12.795 42.5061 12.2619 41.4072C11.2244 39.2535 10.495 36.8974 9.38465 34.7286C9.88642 36.1631 10.1983 37.5965 10.2035 39.0424Z" fill="#D8685C"/>
<path d="M12.0074 42.2673C11.9283 43.2015 11.9221 44.1507 12.3106 45.0296C12.498 45.4105 12.8614 45.6758 13.2851 45.6494C13.5189 45.6217 13.7679 45.5211 13.9301 45.2885C14.0922 45.0559 14.2117 44.6623 14.0821 44.3694C12.8988 42.1855 12.4196 39.5389 12.1001 37.0394C12.0738 38.821 12.1066 40.5008 12.0074 42.2673Z" fill="#D8685C"/>
<path d="M7.36887 32.5243C8.28051 33.8155 8.44285 35.7882 8.69568 37.3234C8.99002 39.2093 8.9185 41.2097 9.09592 43.1095C9.21922 44.3517 11.1341 44.1013 10.9668 42.8881C10.6448 40.7683 9.78084 38.8786 9.18096 36.8154C8.73703 35.4688 8.31068 33.6697 7.36887 32.5243Z" fill="#D8685C"/>
<path d="M5.88403 31.6095C6.88243 33.0327 7.13153 35.1375 7.3542 36.8185C7.49383 37.7979 7.47253 38.8201 7.45123 39.8423C7.43241 40.4848 7.53053 41.1134 7.39478 41.7697C7.10946 42.9655 9.0646 43.2558 9.277 42.045C9.58113 40.2067 8.71723 38.3171 8.07085 36.6625C7.38047 35.0368 7.08737 32.9611 5.88403 31.6095Z" fill="#D8685C"/>
<path d="M22.3678 43.6494C21.9466 43.2962 21.5392 43.0598 21.1167 42.8964C21.0991 43.349 21.0087 43.7866 20.9622 44.1952C21.416 44.0229 21.8699 43.8506 22.3678 43.6494Z" fill="#D8685C"/>
<path d="M21.1175 42.8959C21.5399 43.0593 21.9473 43.2956 22.3685 43.6489C21.9147 43.8212 21.4168 44.0224 20.9629 44.1947C21.0094 43.786 21.027 43.3334 21.1175 42.8959C20.9716 42.8657 20.8547 42.8795 20.7516 43.0103C19.9281 43.8666 20.45 44.4688 21.2786 45.0584C21.7727 45.4268 22.6214 45.1841 22.6842 44.5126C22.9404 41.0676 21.4289 37.7132 22.3276 34.287C22.3276 34.287 22.2987 34.243 22.2547 34.2719C21.273 36.9966 21.414 39.9915 21.1175 42.8959Z" fill="#D8685C"/>
<path d="M19.721 44.1288C19.3803 44.8568 20.5748 45.332 20.8426 44.5889C21.7188 42.3747 20.7567 39.8564 20.4209 37.6197C20.4801 39.7232 20.552 42.1334 19.721 44.1288Z" fill="#D8685C"/>
<path d="M26.8476 28.6068C26.4013 29.8453 24.8159 31.0763 24.2678 32.2557C21.8265 37.0738 21.1229 44.1526 22.8433 49.071C25.7486 44.767 24.1092 29.7134 27.8156 27.9705C27.4787 28.129 27.2147 28.3025 26.8476 28.6068Z" fill="#D8685C"/>
<path d="M28.1536 27.6223C27.9198 27.65 27.7588 27.6928 27.5828 27.8085C27.7588 27.6928 27.9198 27.65 28.1536 27.6223Z" fill="#D76557"/>
<path d="M24.091 47.9983C24.0621 47.9543 24.0482 47.8374 24.0193 47.7934C23.9765 47.6325 23.9338 47.4715 23.847 47.3395C23.3894 48.0814 22.9758 48.7943 22.5911 49.5512C23.0915 48.9703 23.5768 48.4623 24.091 47.9983Z" fill="#E7A5A0"/>
<path d="M3.79061 45.7773C6.16697 46.4209 7.02963 48.5004 8.75853 49.8846C8.86038 49.9437 8.99239 49.8569 8.93455 49.7689C8.54722 48.7002 8.15865 47.8214 7.37529 47.013C6.40332 46.0135 5.19251 45.8011 3.79061 45.7773Z" fill="#753D36"/>
<path d="M4.63961 47.7403C4.63961 47.7403 4.66853 47.7843 4.63961 47.7403C5.13997 47.1594 7.33799 50.5037 7.56936 50.8557C8.24963 51.7949 9.08959 52.8811 10.1382 53.3261C10.2111 53.3412 10.2992 53.2834 10.2413 53.1954C9.61002 51.4679 8.5236 50.1025 7.20333 48.7648C6.76827 48.2946 5.33107 46.9708 4.63961 47.7403Z" fill="#753D36"/>
<path d="M5.32917 49.5557C5.28517 49.5846 5.28517 49.5846 5.32917 49.5557C5.78056 49.7631 6.06853 50.393 6.38791 50.6872C7.21527 51.4667 7.94079 52.1871 9.18176 52.2536C9.25468 52.2687 9.26977 52.1958 9.28485 52.1228C8.85352 51.0831 7.89414 50.3904 6.8606 49.8724C6.29228 49.6789 5.86857 49.7053 5.32917 49.5557Z" fill="#753D36"/>
<path d="M30.5202 23.1684C30.7288 22.5272 30.8646 21.8709 30.8696 21.1115C30.7791 21.549 30.7175 22.0306 30.671 22.4392C30.6547 22.702 30.5654 22.9497 30.5202 23.1684Z" fill="#DC786F"/>
<path d="M31.2856 20.0191C31.0794 20.2806 30.96 20.6742 30.8984 21.1557C30.9374 21.8862 30.8017 22.5425 30.549 23.2127C30.1393 25.5614 29.2782 27.7026 28.3907 29.4202C27.1912 29.7044 27.1601 34.4508 26.8572 36.0991C26.4374 37.7613 25.5813 39.1432 26.1471 39.7164C24.6247 42.4814 25.383 44.8815 23.9059 47.4277C23.9486 47.5886 23.9914 47.7495 24.0782 47.8816C24.1071 47.9256 24.1209 48.0425 24.1498 48.0865C25.0312 47.3182 25.9414 46.5939 26.9535 45.9287C33.8156 41.7967 32.699 40.5772 33.8884 39.6065C34.8577 38.7804 36.0169 37.9555 36.2582 36.7887C36.4743 35.0083 39.2089 34.4713 38.6843 29.8381C38.4087 27.3097 36.935 24.8757 35.5028 22.7924C33.6644 20.2829 32.4563 21.8962 31.2856 20.0191Z" fill="#DC786F"/>
<path d="M-0.273865 15.2406C-0.644708 16.1144 -2.04288 15.5211 -3.43949 19.1485C-5.06747 22.4239 -3.76741 22.3886 -4.51532 25.0856C-4.60581 25.5232 -4.6523 25.9318 -4.59695 26.3995C-4.26482 29.2058 2.05105 34.8846 2.19566 35.1046C2.93253 36.3216 3.4343 37.7562 4.68662 38.3194C4.68662 38.3194 5.96289 39.686 9.78018 41.0838C10.3535 40.518 9.17656 39.5902 7.59476 38.0463C7.60859 38.1633 7.59351 38.2362 7.65136 38.3242C7.63752 38.2073 7.60859 38.1633 7.59476 38.0463C6.14372 36.6056 4.30287 34.4758 2.53494 32.3612C0.323083 28.8999 -1.23742 26.3339 -0.938418 23.0498C-0.796458 21.4442 1.1649 20.7852 2.51517 19.7717C3.38265 18.8865 5.08371 17.8315 5.80534 16.9161C6.21895 16.2032 1.56559 15.3549 -0.273865 15.2406Z" fill="#F1CCCA"/>
<path d="M5.5006 16.7393C4.34639 16.8048 1.97003 16.1612 0.626131 18.4308C-0.724146 19.4442 -0.927681 21.5314 -1.06964 23.137C-1.32464 26.3922 1.67447 32.2975 6.66758 37.0184C6.09164 35.7586 2.21992 29.2925 2.02618 27.6555C1.37327 22.5396 4.46223 19.1861 6.128 16.8311C5.95198 16.9467 5.79354 16.6098 5.5006 16.7393Z" fill="#E7A5A0"/>
<path d="M-7.48603 35.0414C-7.95001 34.5272 -8.20906 33.9413 -8.71705 33.456C-8.83397 33.4699 -8.93582 33.4108 -9.00874 33.3957C-9.68886 34.6619 -9.9025 36.0625 -9.73643 37.4657C-8.9187 44.1746 -3.60669 42.5737 -2.75289 43.7769C-2.31783 44.2471 -0.940956 45.8626 2.09919 45.5028C4.27683 45.2688 4.43139 43.97 5.3379 43.8153C5.19454 43.4054 5.08009 43.0395 4.98073 42.6007C4.60227 42.4084 4.23889 42.1431 3.89059 41.8049C0.582373 38.4972 -3.41093 37.215 -7.48603 35.0414Z" fill="#F1CCCA"/>
<path d="M0.361367 36.4369C-3.74405 32.2038 -6.98151 33.7015 -8.68895 33.5005C-8.18096 33.9858 -7.92192 34.5717 -7.45793 35.0859C-3.38284 37.2595 0.610466 38.5416 3.99161 41.8645C4.33991 42.2026 4.70329 42.4679 5.08175 42.6602C4.98239 42.2215 4.86795 41.8556 4.8126 41.3879C4.88303 41.7827 4.98239 42.2215 5.08175 42.6602C7.25069 43.7552 10.1336 42.8686 12.8343 43.0469C11.4864 41.4754 7.25193 43.5654 0.361367 36.4369Z" fill="#E7A5A0"/>
<path d="M5.05281 42.6158C5.15217 43.0546 5.26661 43.4205 5.40997 43.8303C5.40997 43.8303 5.45398 43.8014 5.4829 43.8454C6.60818 43.7359 6.20469 45.1354 6.58315 45.3277C7.41176 45.9173 8.53331 46.3774 9.54167 46.2818C11.0617 46.1019 11.0403 44.9187 11.7419 44.8357C12.2536 44.7514 12.5729 45.0456 12.8634 45.2958C12.9967 45.0192 13.321 44.554 13.2506 44.1592C13.1663 43.6475 13.0519 43.2816 12.8054 43.0025C10.1047 42.8241 7.17774 43.7397 5.05281 42.6158Z" fill="#F1CCCA"/>
<path d="M24.729 46.5715C24.4423 45.7518 23.5056 46.0523 23.3358 45.2188C21.6284 45.0177 19.5941 45.6616 18.2249 45.1122C17.4239 44.7565 14.1196 43.0845 13.6519 43.1399C13.6079 43.1688 13.2684 43.7069 12.7567 43.7912C12.6398 43.805 12.5229 43.8189 12.4059 43.8327C12.0552 43.8742 11.0959 45.3869 10.4045 46.1564C10.5755 46.8001 7.18069 45.5657 7.1908 46.2522C7.31675 49.32 7.96561 50.5949 8.75784 52.2796C10.4429 55.898 16.1575 57.4981 20.3958 57.044C20.9377 56.8138 21.5236 56.5548 22.0667 56.1348C22.2289 55.9022 22.1145 55.5363 22.2905 55.4206C23.5063 54.8736 24.2279 53.9582 24.9784 53.0869C25.0815 52.9561 25.2135 52.8693 25.4034 52.8706C25.8711 52.8152 26.5702 53.1119 27.1988 53.0138C28.4121 52.8465 27.6387 50.5193 27.3357 49.9623C25.632 49.1917 25.1855 48.2248 24.729 46.5715Z" fill="#D45746"/>
<path d="M25.7774 47.0165C25.2744 45.7718 24.4156 45.328 23.3645 45.2627C24.8005 46.7764 25.3713 46.5903 24.6798 47.3598C25.0923 49.042 26.2643 50.7293 27.968 51.4999C27.8674 51.2509 27.7517 51.0749 27.7668 51.002C27.768 50.8121 27.812 50.7832 28.2357 50.7568C28.3086 50.7719 28.4105 50.8309 28.4834 50.846C28.4985 50.7731 28.5136 50.7002 28.5576 50.6713C28.5425 50.7442 28.4985 50.7731 28.4834 50.846C29.0077 51.0685 29.3699 51.5237 29.8816 51.4394C30.2764 51.3689 30.3065 51.2231 30.2361 50.8283C30.0965 49.8489 31.8454 50.4007 31.6932 49.1145C31.346 46.3811 26.7545 49.4619 25.7774 47.0165Z" fill="#D45746"/>
<path d="M33.2783 19.0244C32.4724 19.4281 31.3911 19.5086 31.1963 20.2668C32.1997 20.9306 36.8331 24.8166 37.6958 26.8961C37.7737 26.1518 37.7132 24.2382 37.5572 23.5215C36.6064 19.2945 34.4651 18.4334 33.2783 19.0244Z" fill="#B45244"/>
<path d="M25.3887 21.6889C20.8285 22.2286 20.2805 25.6133 20.1749 26.1238L20.3937 26.169C20.3208 26.154 20.2919 26.11 20.3069 26.037C20.3069 26.037 20.278 25.993 20.322 25.9641C20.322 25.9641 21.6033 26.5713 22.535 27.0301C23.4516 27.5619 24.7894 28.447 24.8309 28.7978C24.8448 28.9147 24.5192 29.5698 23.6529 30.2651C24.2539 29.9331 24.826 29.5572 25.3691 29.1372C25.5765 28.6858 25.8129 28.2784 26.2378 28.0621C26.3698 27.9754 25.4044 30.4372 25.5942 30.4385C26.8553 29.6727 33.0007 25.6966 31.1347 22.9533C30.5172 21.3428 26.7478 21.5517 25.3887 21.6889Z" fill="#F1CCCA"/>
<g opacity="0.2">
<path opacity="0.2" d="M15.9129 43.6073C15.708 43.6789 15.5747 43.9556 15.6904 44.1316C15.7621 44.3365 16.0387 44.4698 16.2147 44.3541C16.4197 44.2824 16.5529 44.0058 16.4372 43.8298C16.3655 43.6248 16.1179 43.5356 15.9129 43.6073Z" fill="#F7E3E2"/>
</g>
<path d="M16.9042 43.7744C15.7223 43.606 14.8082 42.6945 13.5823 42.5551C14.7768 43.0302 15.4558 44.1592 16.6654 44.5615C18.0208 44.9939 19.8766 44.8454 21.2206 44.7812C21.3375 44.7674 21.3237 44.6504 21.2219 44.5913C19.9557 43.9112 18.3778 44.0031 16.9042 43.7744Z" fill="#F1CCCA"/>
<path d="M25.3518 36.2063C24.8868 38.0873 24.9611 40.1179 24.8606 42.0742C24.828 42.5998 24.8243 43.1694 24.7916 43.6949C24.715 44.2494 24.2838 45.4149 24.6459 45.8701C24.7038 45.9581 24.7767 45.9732 24.8936 45.9593C25.6253 45.7304 25.932 43.5125 26.0828 42.7833C26.3417 41.1638 26.5717 39.5004 26.9764 37.9111C27.4716 35.8843 27.7481 33.8123 28.6658 31.9489C29.0656 31.119 29.5822 30.2753 29.7343 29.3562C29.9467 28.1454 30.872 27.3482 31.8112 26.6679L31.7823 26.6239C28.0909 28.2939 26.209 32.4293 25.3518 36.2063Z" fill="#D45746"/>
<path d="M30.5723 30.822C29.3263 31.5149 28.2816 32.7056 27.6015 33.9718C26.685 35.6453 25.7522 37.5816 25.6229 39.494C25.4923 41.5962 25.2749 43.5665 24.4439 45.5619C24.3547 45.8096 24.7042 45.9579 24.7935 45.7102C25.5327 44.3422 25.8494 42.8108 26.4868 41.3837C26.8274 40.6557 27.358 39.9289 27.6697 39.1569C28.0255 38.356 28.2354 37.5249 28.5182 36.7089C29.0676 35.3396 29.8785 34.1765 30.5297 32.8664C31.255 31.3814 31.9225 29.8085 33.7934 29.5871C33.7934 29.5871 33.8374 29.5582 33.7645 29.5431C32.5524 29.5205 31.5982 30.2737 30.5723 30.822Z" fill="#D45746"/>
<path d="M-4.65621 24.2963C-5.1729 25.14 -5.2382 26.1911 -4.93764 27.1278C-4.62324 28.1814 -4.01589 29.1055 -3.27653 29.9428C-2.50825 30.8241 -1.75506 31.7783 -0.559336 32.0637C-0.413486 32.0938 -0.281476 32.0071 -0.251311 31.8612C0.256518 30.1412 -1.66596 29.3253 -2.47576 28.0932C-2.90958 27.4332 -3.1523 26.5845 -3.10332 25.7962C-3.05559 25.1977 -2.76902 23.8121 -2.34282 23.406C-3.33734 23.6185 -4.09551 23.4237 -4.65621 24.2963Z" fill="#F7E3E2"/>
<path d="M7.51515 39.1705C7.06625 38.5833 6.48409 38.2728 5.75484 38.122C5.39022 38.0466 5.22804 38.2792 4.80557 38.1158C4.28126 37.8933 4.05113 37.3514 4.01086 36.8107C3.91399 35.9922 3.5531 35.3473 3.11928 34.6872C2.68546 34.0272 1.89961 33.5985 1.33378 33.0252C0.433489 32.2306 -0.246783 31.2915 -0.663032 30.1788C-1.29914 31.416 -0.885379 32.9084 -0.162348 34.0085C0.329314 34.7566 1.07116 35.2142 1.5779 35.8893C2.11357 36.6084 2.21168 37.2371 3.02645 37.7098C3.46276 37.9901 3.94307 38.2416 4.42338 38.493C4.93261 38.7884 5.26583 39.1995 5.81906 39.466C6.43014 39.8206 6.76336 40.2317 7.52277 40.2367C7.90248 40.2391 8.25202 40.3875 8.57264 40.4918C8.71849 40.522 9.5031 41.1405 9.5911 41.0827C9.45909 41.1694 9.53077 41.3744 9.69171 41.3316C10.2625 41.1455 9.50683 40.571 9.31822 40.3799C8.79515 39.9675 7.93513 39.7136 7.51515 39.1705Z" fill="#F7E3E2"/>
<path d="M9.15706 20.3854C7.8696 20.7274 6.02144 21.9421 5.90965 23.4019C5.81667 24.2191 6.07571 24.805 6.64154 25.3783C6.98984 25.7165 7.17597 26.2873 7.39225 26.7123C7.62362 27.0643 8.13285 27.3597 8.46731 27.581C9.19408 28.1115 10.083 28.4094 10.8689 28.8381C12.0332 29.4591 13.0806 30.094 14.1418 30.8458C14.1707 30.8898 14.1858 30.8169 14.1858 30.8169C13.1698 29.8463 11.9187 29.0933 10.7557 28.2824C9.66552 27.4866 8.94249 26.3865 7.64617 25.8522C6.67046 25.4223 6.4038 23.7702 6.61371 22.9391C6.94179 21.9043 7.60309 21.2807 8.54101 20.7903C10.0648 20.0408 11.6516 20.8252 13.0196 21.5644L13.0636 21.5355C11.8854 20.7976 10.5325 19.9854 9.15706 20.3854Z" fill="#F7E3E2"/>
<path d="M15.0669 23.2429C14.0598 23.1487 12.9672 22.7326 11.9286 22.9741C10.4953 23.286 9.25701 25.0451 9.11629 26.4608C9.11629 26.4608 9.14521 26.5048 9.11629 26.4608C9.34502 24.9872 10.8612 23.1716 12.5108 23.2846C13.1093 23.3324 13.7204 23.6869 14.3339 23.6617C15.3561 23.683 16.2035 23.6301 17.046 24.3367C17.0749 24.3807 17.1629 24.3228 17.134 24.2788C16.6423 23.5308 15.8842 23.3359 15.0669 23.2429Z" fill="#E7A5A0"/>
<path d="M15.5534 24.9395C14.173 26.0988 12.6203 26.8043 11.7767 28.4929C12.3688 27.2846 13.308 26.6043 14.5099 25.9404C15.6679 25.3054 16.3027 24.258 17.8354 24.3849C20.4192 24.5771 18.2241 27.469 17.3868 28.2084C16.3144 29.1653 14.9239 29.6381 13.5635 29.9651C13.4465 29.979 13.4893 30.1399 13.5773 30.082C15.2596 29.6695 16.7821 29.1099 18.0318 27.8475C18.8993 26.9623 19.8422 25.7124 19.0324 24.4803C18.1056 23.2621 16.4197 24.2442 15.5534 24.9395Z" fill="#F7E3E2"/>
<path d="M14.6327 27.1834C14.3536 27.4298 14.3071 27.8385 14.3197 28.1453C14.3298 28.8317 14.3411 29.3284 13.8118 29.8653C13.7678 29.8942 13.7967 29.9382 13.8697 29.9533C14.3826 29.6792 14.5461 29.2567 14.5498 28.6871C14.5397 28.0007 14.4705 27.416 15.2324 27.0413C15.8183 26.7822 16.6217 26.7583 17.234 26.9229C16.3891 26.5961 15.3229 26.6037 14.6327 27.1834Z" fill="#E7A5A0"/>
<path d="M14.8853 30.9238C14.2151 30.6711 13.5412 30.988 13.0936 30.211C13.3086 30.8258 13.7889 31.0772 14.3572 31.2708C15.1732 31.5537 15.8698 32.23 16.7914 32.0024C16.9084 31.9886 16.9385 31.8427 16.8367 31.7836C16.1816 31.458 15.5265 31.1324 14.8853 30.9238Z" fill="#F7E3E2"/>
<path d="M24.4069 37.8355C24.4988 39.4134 24.6787 40.9335 24.7706 42.5114C24.8084 43.4317 25.0587 45.3466 24.4402 46.1312C24.3962 46.1601 24.454 46.2481 24.498 46.2192C26.1111 45.222 25.3892 41.7268 25.2671 40.2947C25.038 37.3577 23.8118 32.8075 26.0032 30.4851L25.9742 30.4411C23.9476 32.1512 24.2621 35.4101 24.4069 37.8355Z" fill="#B45244"/>
<path d="M24.1712 38.2428C24.1775 39.4989 24.111 40.7398 24.1614 41.967C24.1816 43.3399 24.4784 44.8462 24.1919 46.2317C24.1768 46.3047 24.2497 46.3198 24.2648 46.2468C25.1108 44.1785 25.0842 41.5495 25.1281 39.3152C25.1355 38.1761 25.0851 36.949 25.2095 35.796C25.4131 33.7089 26.8262 32.024 28.2669 30.5729C25.5375 32.5559 24.2225 34.8694 24.1712 38.2428Z" fill="#B45244"/>
<path d="M24.971 38.7884C24.9561 41.0667 25.0141 43.36 24.4296 45.6345C24.4145 45.7074 24.4874 45.7225 24.5025 45.6496C25.4793 43.6843 26.0185 41.6286 25.9304 39.4811C25.8044 36.4133 26.9899 33.8068 28.511 31.2317C26.7007 33.3668 24.9758 35.8237 24.971 38.7884Z" fill="#B45244"/>
<path d="M25.3226 40.7624C24.8437 42.5264 24.3937 44.3344 24.732 46.1915C24.7609 46.2355 24.8339 46.2505 24.849 46.1776C25.6622 42.4295 26.3031 38.2276 28.2819 34.9106L28.2529 34.8666C26.7958 36.5804 25.9498 38.6488 25.3226 40.7624Z" fill="#B45244"/>
<path d="M25.2504 40.7473C24.8733 42.5704 24.3316 45.0058 25.2986 46.7648C25.3275 46.8088 25.4445 46.7949 25.4155 46.7509C25.164 45.0259 25.6743 42.9262 25.9482 41.2338C26.3429 38.9581 26.8858 36.3328 28.1405 34.3109L28.1116 34.2669C26.5665 36.0386 25.806 38.4288 25.2504 40.7473Z" fill="#B45244"/>
<path d="M26.041 42.6219C24.9825 43.6957 24.5765 45.4748 24.3918 46.9195C24.3 47.5469 25.2191 47.699 25.3549 47.0426C25.6113 45.8029 25.7357 44.65 26.4145 43.5736C27.5359 41.8284 29.5124 41.0965 31.4725 40.6274C31.4725 40.6274 31.5165 40.5985 31.4436 40.5834C29.5149 40.7168 27.5547 41.1859 26.041 42.6219Z" fill="#D45746"/>
<path d="M24.7506 45.7386C24.4112 46.2768 25.094 46.8362 25.5352 46.3571C25.9916 45.8051 26.3901 45.1651 26.9483 44.6722C27.6976 43.9907 28.4746 43.5431 29.3245 43.1105C29.3245 43.1105 29.3685 43.0816 29.2956 43.0665C27.3808 43.3168 25.857 44.0663 24.7506 45.7386Z" fill="#D45746"/>
<path d="M28.769 47.4445C27.9795 47.5854 27.2967 47.0259 26.5234 46.904C25.4145 46.7507 25.0838 45.9599 24.3142 45.2684C23.7622 44.812 22.9161 44.6751 22.2887 44.5833C21.3406 44.3872 20.4102 43.7385 19.4018 43.8342C18.4375 43.9009 17.5159 44.1285 16.6245 44.2103C15.894 44.2493 15.2992 43.632 14.9962 43.0751C14.7359 42.679 14.1235 42.5144 13.7149 42.4679C13.1894 42.4352 13.3629 42.6993 12.9417 42.346C12.5494 42.0367 12.142 41.8004 11.7346 41.564C11.2694 41.2397 9.77697 41.6534 9.59085 41.0826C9.55819 41.6082 9.54187 41.871 9.97817 42.1513C10.3856 42.3877 12.9983 42.6238 12.8939 42.9445C12.4489 43.9931 14.0369 44.5877 14.6329 45.0151C15.4905 45.6487 16.5114 45.8599 17.5487 45.8083C18.1623 45.7831 18.718 45.6699 19.3026 45.6007C19.8873 45.5315 20.4116 45.754 21.0251 45.7288C21.5658 45.6885 22.1215 45.5753 22.6471 45.608C22.9538 45.5954 23.2455 45.6557 23.5813 45.6871C24.4714 45.7952 24.4815 46.4817 24.7984 47.1556C25.187 48.0344 25.7402 48.3009 26.6593 48.453C27.6514 48.6202 28.0864 49.0904 29.1262 48.659C29.6392 48.3849 29.4266 47.3904 28.769 47.4445Z" fill="#F1CCCA"/>
<path d="M-0.123615 21.3177C0.864682 22.0544 0.799378 23.1055 0.98177 24.2459C1.15032 25.2693 1.42072 26.3518 1.58928 27.3753C1.87103 28.9544 2.0472 31.0441 3.33979 32.1479C3.36871 32.1919 3.38379 32.119 3.38379 32.119C1.78815 30.4582 2.14624 27.0722 2.02915 24.8807C1.92093 23.5656 1.11362 21.9538 -0.123615 21.3177Z" fill="#DC786F"/>
<path d="M0.896045 19.513C1.57756 20.2623 1.41165 21.0645 1.44944 21.9848C1.45706 23.051 1.61053 24.1474 1.57414 25.2425C1.57928 26.6884 1.36191 28.6586 2.24463 29.9058C2.27355 29.9498 2.31755 29.9209 2.28863 29.8769C1.46748 28.1482 2.08338 25.5379 2.29951 23.7576C2.48423 22.3129 2.2188 20.471 0.896045 19.513Z" fill="#DC786F"/>
<path d="M0.70337 26.6976C1.42889 27.418 1.51068 28.3094 1.76724 29.275C1.99488 30.1966 2.42745 31.0465 2.7431 31.9103C3.44732 33.6529 4.4294 35.3388 6.10294 36.2553C6.13186 36.2993 6.14695 36.2264 6.11802 36.1824C4.22819 34.841 3.51262 32.6017 2.97182 30.4367C2.68883 29.0474 1.92428 27.5965 0.70337 26.6976Z" fill="#DC786F"/>
<path d="M2.14123 23.4208C1.45506 27.8415 2.86614 33.1523 6.1316 36.2991C6.16052 36.3431 6.24853 36.2853 6.2196 36.2413C3.62929 32.5877 2.03597 28.3419 2.59138 23.8181C3.0098 20.1404 6.03081 16.0124 9.47197 14.6329C5.75295 16.069 2.76583 19.4816 2.14123 23.4208Z" fill="#F7E3E2"/>
<path d="M23.5098 16.4336C21.3875 17.1353 20.2159 19.8587 19.8087 21.8277C20.3907 19.9329 21.292 18.3322 23.1088 17.4533C24.1196 16.9779 25.2726 17.1023 26.2923 17.5033C27.0932 17.8591 28.0274 17.9382 28.7831 18.5128C28.8849 18.5718 28.944 18.47 28.8862 18.382C28.4234 17.6779 27.4942 16.8394 26.7222 16.5276C25.6736 16.0826 24.6514 16.0613 23.5098 16.4336Z" fill="#E7A5A0"/>
<path d="M19.314 14.8437C18.5936 15.5692 18.4529 16.985 18.3008 17.9041C18.0872 19.3047 18.1652 20.7657 18.1415 22.1676C18.1551 20.0792 18.3587 17.9921 19.3204 16.0997C20.4744 13.829 23.4418 15.6594 25.0902 15.9623C25.1631 15.9774 25.2662 15.8466 25.1643 15.7875C23.7246 14.8434 20.8139 13.2908 19.314 14.8437Z" fill="#E7A5A0"/>
<path d="M19.6715 18.2637C19.6715 18.2637 19.7005 18.3077 19.6715 18.2637C21.1084 15.1769 23.9048 16.3636 26.4131 16.9204C26.559 16.9505 26.6332 16.7758 26.5313 16.7167C24.4868 14.4688 20.5955 15.451 19.6715 18.2637Z" fill="#E7A5A0"/>
<path d="M13.9804 13.0557C13.2637 13.2116 12.8501 13.9246 12.6415 14.5658C12.2091 15.9212 13.0139 17.9127 13.4289 19.2153C13.4289 19.2153 13.4578 19.2593 13.4729 19.1864C13.2326 17.958 12.9635 16.6856 13.3657 15.476C13.5744 14.8348 13.8108 14.4274 14.3539 14.0074C15.117 13.4428 16.0801 13.566 16.9565 13.5571C17.0294 13.5722 16.9716 13.4842 16.9716 13.4842C15.8488 13.214 15.0189 12.8142 13.9804 13.0557Z" fill="#F1CCCA"/>
<path d="M15.316 14.3207C14.7843 15.2373 14.5719 16.4481 14.6964 17.5004C14.7315 16.5952 14.9855 15.7352 15.4581 14.9204C15.6794 14.5859 15.9736 14.2665 16.2967 13.9912C16.6638 13.6869 17.1454 13.7485 17.5691 13.722C17.686 13.7082 17.6722 13.5913 17.6433 13.5472C16.8297 12.8847 15.7447 13.5348 15.316 14.3207Z" fill="#F1CCCA"/>
<path d="M6.78897 16.2075C6.74497 16.2364 6.80281 16.3244 6.84681 16.2955C7.16868 16.21 7.46162 16.0805 7.78349 15.9949C8.14936 15.8805 8.46998 15.9848 8.83585 15.8704C9.27464 15.771 9.65559 15.5837 10.1221 15.7182C10.9821 15.9721 11.5279 17.3777 11.9177 18.0667C11.3983 17.0848 10.9519 16.1179 10.1535 15.3825C9.02057 14.4257 7.72938 15.3374 6.78897 16.2075Z" fill="#F7E3E2"/>
<path d="M5.06808 18.0949C5.05299 18.1678 5.12592 18.1829 5.16992 18.154C5.84879 17.0777 6.91623 16.8802 8.14212 17.0197C9.14923 17.1139 9.84459 17.9801 10.2042 18.815C9.90367 17.8783 9.34406 16.3557 8.26527 16.0566C6.79293 15.638 5.50049 16.7395 5.06808 18.0949Z" fill="#F7E3E2"/>
<path d="M3.5217 20.0564C3.50662 20.1293 3.57955 20.1444 3.62355 20.1155C4.44702 19.2592 6.83706 17.8144 7.64562 19.2364C7.37273 18.5335 6.71889 18.0181 5.94564 17.8962C4.73484 17.6838 3.90763 19.1096 3.5217 20.0564Z" fill="#F7E3E2"/>
<path d="M12.6079 46.5358C12.6091 46.3459 12.5664 46.185 12.5676 45.9952C12.5664 46.185 12.5651 46.3749 12.6079 46.5358Z" fill="#B45244"/>
<path d="M12.6085 46.5351C12.8124 48.8586 12.6214 51.2525 13.205 53.5785C13.8464 55.9925 16.331 57.9512 18.7072 56.3894C18.8392 56.3027 18.7826 56.0248 18.5927 56.0236C17.3958 55.9281 16.1385 56.1243 15.0772 55.3725C14.1908 54.6949 13.7318 53.4213 13.4463 52.4117C12.8892 50.5094 12.7709 48.5078 12.6085 46.5351Z" fill="#B45244"/>
<path d="M12.4416 45.1321C12.4982 45.41 12.5108 45.7168 12.5674 45.9947C12.5108 45.7168 12.4542 45.4389 12.4416 45.1321Z" fill="#B45244"/>
<path d="M14.4022 55.6897C13.3523 55.4346 12.3917 54.9317 11.5493 54.2252C10.1259 53.0183 9.54111 50.8821 9.23168 49.0691C9.52602 50.9551 9.87946 52.7392 10.9935 54.3384C12.1806 55.9527 14.8436 57.416 16.805 56.757C16.9659 56.7143 16.9823 56.4515 16.8804 56.3924C16.0946 55.9637 15.3062 55.9147 14.4022 55.6897Z" fill="#B45244"/>
<path d="M15.4237 46.8899C15.4237 46.8899 15.3508 46.8748 15.4237 46.8899C15.1396 47.8957 15.1761 49.0059 15.2718 50.0143C15.3649 51.4024 15.487 52.8344 15.814 54.1948C16.1561 55.4823 16.8652 56.4654 18.0296 57.0865C18.5828 57.353 19.2102 57.4447 19.7948 57.3755C20.6133 57.2786 20.822 56.6374 21.2054 56.0703C21.3676 55.8377 21.223 55.6177 20.9602 55.6014C20.5076 55.5838 20.1153 55.2745 19.5747 55.3148C19.2239 55.3563 18.8593 55.2809 18.5537 55.1036C17.7829 54.602 17.1316 53.7069 16.6839 52.9299C15.5849 51.2577 15.0894 48.8739 15.4237 46.8899Z" fill="#B45244"/>
<path d="M8.99438 47.461C9.03784 47.4324 9.00928 47.3889 8.99438 47.461C8.96582 47.4175 8.99438 47.461 8.99438 47.461Z" fill="#B45244"/>
<path d="M22.3905 51.4485C22.1077 52.2645 21.8977 53.0956 21.5131 53.8525C21.1284 54.6095 20.4243 55.0722 19.7781 55.6229C19.6901 55.6808 19.675 55.7537 19.7329 55.8417C20.0925 56.6765 20.8368 56.7544 21.6126 56.4966C22.5933 56.1672 23.1564 54.9148 23.4544 54.0259C23.7674 53.064 23.7585 52.1877 23.5899 51.1643C23.3082 49.5851 23.5332 48.6811 24.5641 47.3734C24.6081 47.3445 24.5352 47.3294 24.5352 47.3294C23.2704 48.6647 22.9122 49.8454 22.3905 51.4485Z" fill="#B45244"/>
<path d="M20.5814 53.3936C20.5035 54.1379 20.149 54.749 19.6926 55.301C19.6486 55.3299 19.6335 55.4028 19.6335 55.4028C19.7505 55.389 19.4864 55.5625 19.6335 55.4028C19.6335 55.4028 19.5895 55.4317 19.5166 55.4167C19.4286 55.4745 19.2966 55.5613 19.2086 55.6191C18.8251 56.1862 19.23 56.8022 19.8725 56.821C20.6759 56.7971 21.517 55.4882 21.6678 54.7589C22.0624 52.4832 21.3041 50.083 21.48 47.762C21.0589 49.6141 20.8126 51.5403 20.5814 53.3936Z" fill="#B45244"/>
<path d="M19.5896 55.4315C19.4865 55.5623 19.7505 55.3887 19.5896 55.4315V55.4315Z" fill="#B45244"/>
<path d="M32.3486 40.6188C32.2606 40.6766 32.2166 40.7056 32.1575 40.8074C32.2744 40.7936 32.3913 40.7797 32.5083 40.7659C32.6566 40.4164 32.5988 40.3283 32.3486 40.6188Z" fill="#F1CCCA"/>
<path d="M32.4949 40.459C32.5829 40.4011 32.7149 40.3143 32.8029 40.2565C32.8029 40.2565 32.774 40.2125 32.73 40.2414C32.1038 39.9598 32.818 40.1836 32.4949 40.459Z" fill="#F1CCCA"/>
<path d="M38.23 32.2158C37.7586 32.8408 36.8357 33.2583 36.7138 34.0315C36.6372 34.586 36.138 34.977 35.9306 35.4284C35.7521 35.9238 35.6327 36.3174 35.3524 36.7537C34.9098 37.4226 34.3781 38.3392 33.6312 38.641C32.7524 39.0296 31.9779 39.0975 31.5191 40.0292C31.4449 40.204 31.4876 40.3649 31.5744 40.497C31.6901 40.673 31.9089 40.7182 32.0987 40.7195C32.1867 40.6616 32.2307 40.6327 32.2898 40.5309C32.54 40.2404 32.6419 40.2995 32.4495 40.6779C32.3326 40.6918 32.2157 40.7056 32.0987 40.7195C31.9227 40.8351 31.7316 41.0238 31.5267 41.0954C31.1168 41.2388 30.7484 41.733 30.4253 42.0083C29.5591 42.7037 29.187 43.7674 28.3937 44.4778C27.6884 45.1304 26.968 45.8559 26.1319 46.4054L26.1609 46.4494C26.8058 46.0886 27.4219 45.6837 28.009 45.2348C28.3761 44.9305 28.7583 44.5532 29.1254 44.2489C29.4045 44.0025 29.8283 43.9761 30.1363 43.7736C30.6933 43.4706 31.4564 42.906 31.7669 42.3238C32.0183 41.8435 32.2282 41.0124 32.7701 40.7823C32.9311 40.7395 33.0191 40.6817 33.0782 40.5798C33.1083 40.434 33.0945 40.3171 32.9197 40.2429C32.8908 40.1989 32.8179 40.1838 32.7449 40.1687C32.6129 40.2555 32.5249 40.3133 32.4369 40.3712C32.76 40.0958 32.0308 39.945 32.716 40.1247L32.7889 40.1398C33.2579 39.8946 33.8287 39.7085 34.138 39.3162C34.7414 38.6045 35.5473 38.2008 35.976 37.415C36.5669 36.3965 36.1079 35.1229 37.4406 34.562C38.4062 34.3055 38.3558 33.0783 38.23 32.2158C38.3029 32.2309 38.274 32.1869 38.23 32.2158Z" fill="#F1CCCA"/>
<path d="M22.6152 52.7494C22.4505 53.3617 22.3437 54.062 22.0332 54.6442C21.6196 55.3571 20.9306 55.7469 20.2417 56.1367C19.6407 56.4687 20.2342 57.2759 20.805 57.0897C22.3125 56.603 23.1963 55.4551 23.3672 53.8935C23.538 52.3319 22.6126 50.9238 23.353 49.3659C22.864 50.4435 22.8855 51.6266 22.6152 52.7494Z" fill="#753D36"/>
<path d="M19.8325 56.2798C18.3062 57.409 17.1078 55.2981 16.4275 54.3589C16.3986 54.3149 16.3546 54.3438 16.3395 54.4168C16.7142 55.1787 16.913 56.0562 17.3606 56.8332C17.8523 57.5813 18.9763 57.6617 19.7521 57.4039C21.6405 56.7298 21.277 54.2592 21.1121 52.6662C21.0456 53.9072 20.9627 55.411 19.8325 56.2798Z" fill="#753D36"/>
<path d="M15.5545 56.0042C14.404 55.5001 13.6948 54.5169 13.3226 53.3753C13.9326 56.125 16.7252 57.8813 19.4321 57.1103C19.593 57.0676 19.5654 56.8337 19.4195 56.8035C18.0629 56.561 16.7339 56.5523 15.5545 56.0042Z" fill="#753D36"/>
<path d="M25.232 50.2106C24.206 50.7589 23.673 51.8653 23.1412 52.782C23.6139 51.9672 24.0414 51.3712 24.9931 50.9977C26.0329 50.5664 26.6113 51.4464 27.2061 52.0637C27.4236 52.2988 27.9202 52.2875 27.9667 51.8789C28.0345 50.448 26.5508 49.5328 25.232 50.2106Z" fill="#B45244"/>
<path d="M23.6408 52.2011C23.9991 51.0204 25.5807 50.359 26.6783 50.0156C27.2931 49.8006 27.9067 49.7754 28.5492 49.7942C29.1916 49.813 29.4959 50.1801 29.9021 50.6063C30.1196 50.8414 30.5597 50.5522 30.5031 50.2744C29.9094 47.2619 23.9034 50.0121 23.6408 52.2011Z" fill="#B45244"/>
<path d="M24.3924 51.3297C22.807 52.5608 21.8742 54.4971 20.4775 55.9192C20.0362 56.3983 20.7768 57.0457 21.2608 56.7276C22.42 55.9027 23.129 54.6806 23.7652 53.4433C24.0757 52.8612 24.2554 52.1759 24.5948 51.6378C25.2737 50.5615 26.262 51.2982 26.8857 51.9595C26.1765 50.9763 25.4346 50.5187 24.3924 51.3297Z" fill="#753D36"/>
<path d="M32.4635 34.1786C30.1024 35.6674 28.2757 38.0652 27.4699 40.6742C28.4492 38.3292 30.1703 36.4419 32.4849 35.3617C33.8327 34.7279 35.0309 34.6335 36.4907 34.7453C36.9433 34.7629 37.5304 34.314 37.2563 33.801C36.3333 32.0132 33.6805 33.4417 32.4635 34.1786Z" fill="#E7A5A0"/>
<path d="M34.083 32.2322C32.866 32.9691 31.776 34.3786 31.1399 35.6158C31.9646 34.5697 33.0345 33.9925 34.3937 33.8554C35.358 33.7886 36.203 34.1155 37.1221 34.2676C38.1141 34.4347 38.6471 33.3282 38.1265 32.5362C37.2878 31.2601 35.168 31.5821 34.083 32.2322Z" fill="#E7A5A0"/>
<path d="M35.5896 29.5399C33.764 29.5425 32.7583 31.4638 32.3397 32.9361L32.3686 32.9801C32.9758 31.6989 34.0633 30.6691 35.5784 31.2486C36.3944 31.5314 36.3869 32.6705 37.2469 32.9244C37.8153 33.118 38.3861 32.9319 38.6966 32.3497C39.1404 31.491 38.5468 30.6838 37.9219 30.2124C37.1662 29.6378 36.393 29.5159 35.5896 29.5399Z" fill="#E7A5A0"/>
<path d="M35.3081 25.7559C33.3656 25.7723 32.1864 27.4296 31.417 28.9434C32.287 27.6785 33.3732 26.8385 34.9788 26.9805C35.9859 27.0747 36.5643 27.9548 37.5274 28.0779C37.6004 28.093 37.7173 28.0792 37.7764 27.9773C38.9104 26.5389 36.3303 25.7772 35.3081 25.7559Z" fill="#E7A5A0"/>
<path d="M32.4736 25.8538C33.4719 25.0716 34.5544 24.8012 35.6458 25.4072C36.3298 25.7768 36.9396 26.3212 37.2565 26.9951C37.3433 27.1271 37.5331 27.1283 37.5633 26.9825C37.7895 25.8886 37.0074 24.8903 36.0757 24.4315C34.7215 23.8092 33.3273 24.8516 32.4736 25.8538Z" fill="#E7A5A0"/>
<path d="M20.2806 25.6145C19.8079 26.4292 21.2627 27.3004 21.7354 26.4857C22.149 25.7728 22.6204 25.1478 23.0629 24.4789C23.8449 23.2718 25.2329 23.1787 26.5758 23.3043C24.1554 22.6897 21.5516 23.3298 20.2806 25.6145Z" fill="#E7A5A0"/>
<path d="M21.6325 26.6162C21.5081 27.7692 23.0697 27.9401 23.3688 26.8613C24.0413 24.5289 27.4914 24.0258 29.4277 24.9585L29.4717 24.9296C27.2625 23.294 22.0937 23.0995 21.6325 26.6162Z" fill="#E7A5A0"/>
<path d="M22.3321 26.9126C21.6519 28.1788 23.6913 28.9808 24.3564 27.7876C24.7411 27.0307 25.5156 26.9627 26.2473 26.7338C27.1991 26.3603 28.0326 26.1905 29.0523 26.5916C28.093 25.8988 26.9588 25.132 25.748 24.9196C24.3184 24.6619 22.9531 25.7483 22.3321 26.9126Z" fill="#E7A5A0"/>
<path d="M25.4407 27.1378C24.0527 27.2309 22.9162 29.0491 22.4121 30.1996C21.8778 31.4959 23.8732 32.3268 24.4364 31.0745C24.7922 30.2736 25.2347 29.6047 25.8231 28.9659C26.6315 28.1825 26.8716 27.2056 28.2999 27.6531C27.4134 26.9755 26.522 27.0573 25.4407 27.1378Z" fill="#E7A5A0"/>
<path d="M34.3642 22.5948C33.7833 22.0944 33.5092 21.5815 32.7812 21.2408C32.4027 21.0484 32.0242 20.8561 31.6898 20.6348C30.8612 20.0452 32.2379 19.4554 32.5748 19.297C31.0975 19.6378 30.6399 20.3797 32.0658 21.2069C33.0842 21.7977 33.6476 22.7507 34.5629 23.4724C35.086 23.8847 35.7411 24.2103 36.3082 24.5938C37.2675 25.2865 37.5681 26.2231 37.9994 27.2629C37.9994 27.2629 38.0284 27.3069 38.0434 27.234C37.8447 26.3564 37.6611 25.4059 36.9494 24.8024C36.078 24.0519 35.2356 23.3453 34.3642 22.5948Z" fill="#E7A5A0"/>
<path d="M21.9504 31.5099C22.4181 31.4546 22.7965 31.6469 23.2215 31.4306C23.3535 31.3439 23.5169 30.9214 23.62 30.7906C23.7382 30.5869 23.7834 30.3682 23.8136 30.2223C22.9486 30.7278 22.0547 31.1893 21.1319 31.6068C21.4386 31.5942 21.7165 31.5376 21.9504 31.5099Z" fill="#D45746"/>
<path d="M22.0699 28.9111C20.9812 30.1308 19.344 28.1192 19.0438 31.5932C19.0262 32.0458 18.9985 31.812 19.978 31.6723C20.3728 31.6019 20.7525 31.6044 21.1322 31.6069C22.0839 31.2334 23.1501 31.2258 23.8139 30.2224C23.8893 29.8578 23.9207 29.5221 23.9081 29.2153C23.5886 26.7158 21.2399 26.306 19.7676 25.8875C20.8263 27.019 23.2027 27.6625 22.0699 28.9111Z" fill="#D8685C"/>
<path d="M15.6436 28.9128C15.3947 29.0134 15.1168 29.07 14.8679 29.1706C14.8679 29.1706 14.8968 29.2146 14.9257 29.2586C14.8968 29.2146 14.8528 29.2436 14.8239 29.1996L14.8679 29.1706C14.8389 29.1266 14.854 29.0537 14.8251 29.0097C14.7383 28.8777 14.7396 28.6878 14.6968 28.5269C14.6679 28.4829 14.6239 28.5118 14.6528 28.5558C14.6654 28.8626 14.3272 29.2109 14.5297 29.5189C14.7032 29.7829 15.0842 29.5956 15.2891 29.5239C16.1239 29.1643 17.1498 28.616 17.7093 27.9332C17.1071 28.4551 16.3024 28.6689 15.6436 28.9128Z" fill="#753D36"/>
<path d="M14.8532 29.2439C14.8532 29.2439 14.8243 29.1999 14.7954 29.1559L14.7514 29.1848C14.8243 29.1999 14.8243 29.1999 14.8532 29.2439Z" fill="#753D36"/>
<path d="M14.6407 28.2492C14.4772 28.6716 14.4597 29.1243 14.9111 29.3317C15.1588 29.4209 15.3637 29.3492 15.5397 29.2336C15.8477 29.0311 16.1847 28.8727 16.5216 28.7142C16.5216 28.7142 16.5656 28.6853 16.4927 28.6702C15.981 28.7545 14.8545 29.0538 14.6407 28.2492Z" fill="#753D36"/>
<path d="M13.1702 29.6567C13.0068 30.0791 13.6618 30.4047 13.8403 29.9093C13.9598 29.5158 14.0062 29.1072 14.0817 28.7425C14.1722 28.305 14.2362 27.4437 14.6763 27.1545C13.971 27.8071 13.4681 28.7677 13.1702 29.6567Z" fill="#753D36"/>
<path d="M0.0718171 40.5975C-1.46334 40.8503 -3.74142 43.0407 -1.83651 44.3092C-1.63282 44.4274 -1.37004 44.4437 -1.19402 44.328C-0.974006 44.1834 -0.825669 43.8339 -0.634571 43.6453C-0.148043 42.9474 0.335998 42.6293 1.11174 42.3715C2.56137 41.7968 4.09529 41.7338 5.61412 41.7438C3.88024 41.119 1.98668 40.3472 0.0718171 40.5975Z" fill="#F7E3E2"/>
<path d="M-1.17295 43.3055C-1.85944 43.3157 -1.99643 44.1618 -1.75122 44.6308C-1.33248 45.3638 -0.366888 45.1072 0.234082 44.7752C1.05507 44.2987 1.03237 43.3054 1.99796 43.0488C1.99796 43.0488 1.99796 43.0488 1.96904 43.0048C0.905331 42.6327 -0.0627527 43.269 -1.17295 43.3055Z" fill="#F7E3E2"/>
<path d="M-7.0605 36.8407C-8.08643 37.389 -9.21917 38.6375 -9.02294 39.8948C-8.82671 41.1521 -7.97043 41.9756 -6.65529 41.8674C-6.53836 41.8535 -6.52328 41.7806 -6.58112 41.6926C-7.07278 40.9446 -7.30415 40.5925 -7.03516 39.6596C-6.84033 38.9014 -6.09226 38.4097 -5.41837 38.0929C-3.25083 37.1723 -0.859392 37.743 1.10461 38.9096L1.14861 38.8807C-1.01659 37.2162 -4.43661 35.3682 -7.0605 36.8407Z" fill="#F7E3E2"/>
<path d="M-2.97493 39.7008C-4.00085 40.2491 -4.91358 41.3531 -4.60042 42.5965C-4.28601 43.6501 -2.83762 43.2653 -2.65663 42.3902C-2.53597 41.8068 -2.24054 41.2976 -2.04696 40.7293C-1.7792 39.9862 -0.274213 39.8792 0.369517 39.7082C0.369517 39.7082 0.413521 39.6792 0.3846 39.6352C-0.59359 39.585 -1.993 39.1815 -2.97493 39.7008Z" fill="#F7E3E2"/>
<path d="M2.80153 45.23C2.75807 45.2586 2.75807 45.2586 2.80153 45.23C2.83009 45.2735 2.83009 45.2735 2.83009 45.2735C2.87355 45.2449 2.83009 45.2735 2.80153 45.23Z" fill="#F7E3E2"/>
<path d="M12.1584 43.7432C11.3814 44.1909 10.9817 45.0208 10.4512 45.7475C10.0526 46.3875 8.6243 45.94 8.0849 45.7904C7.19596 45.4925 6.8049 44.9934 6.48926 44.1296C6.38865 43.8807 5.95359 43.4105 5.61664 43.5689C4.6058 44.0443 4.02878 45.1797 2.78657 45.303C3.21028 45.2765 3.53214 45.191 3.88417 44.9597C4.14819 44.7861 5.20677 43.7123 5.58523 43.9046C6.12339 44.2441 6.06057 44.9155 6.34978 45.3555C6.61007 45.7516 6.91437 46.1187 7.36576 46.3261C8.32638 46.829 9.12855 46.9949 10.1545 46.4466C11.1804 45.8983 11.2193 44.4235 12.1874 43.7872C12.2603 43.8023 12.2024 43.7143 12.1584 43.7432Z" fill="#F7E3E2"/>
<path d="M7.99833 45.6581C8.04233 45.6292 8.08633 45.6003 8.17434 45.5424L8.18942 45.4695C8.19067 45.2797 8.10266 45.3375 7.99833 45.6581Z" fill="#F7E3E2"/>
<path d="M8.35184 42.8419C7.50193 43.2745 6.30886 44.8148 7.355 45.6395C7.51469 45.7866 7.87931 45.862 8.07041 45.6734C8.11441 45.6445 8.12949 45.5715 8.1735 45.5426C8.12949 45.5715 8.08549 45.6004 7.99748 45.6583C8.14582 45.3087 8.18982 45.2798 8.18858 45.4697L8.1735 45.5426C8.26151 45.4848 8.39352 45.398 8.4526 45.2962C8.84988 44.846 9.33516 44.338 9.60167 43.7848C10.0153 43.0719 10.6741 42.8279 11.4335 42.8329C10.5735 42.579 9.11374 42.4672 8.35184 42.8419Z" fill="#F7E3E2"/>
<path d="M9.73111 44.078C9.14398 44.5269 8.58826 44.6401 7.91436 44.957C7.3574 45.2601 7.36626 46.1364 8.06659 46.2432C9.78787 46.5612 9.96497 44.0504 11.2977 43.4895C10.6992 43.4418 10.1862 43.7159 9.73111 44.078Z" fill="#F7E3E2"/>
<path d="M14.0876 27.9827C14.0273 28.2744 14.0513 29.0778 13.5709 28.8264C13.2654 28.6491 12.8266 28.7485 12.4909 28.7171C12.3011 28.7159 11.9804 28.6115 11.8044 28.7272C11.8044 28.7272 11.7604 28.7561 11.7893 28.8001C11.8459 29.078 12.2684 29.2414 12.457 29.4325C12.8644 29.6689 13.1109 29.948 13.6075 29.9366C14.6737 29.929 14.0286 28.0846 14.324 27.5753L14.2951 27.5313C14.236 27.6332 14.1618 27.8079 14.0876 27.9827Z" fill="#753D36"/>
<path d="M27.5255 27.7205C25.5201 28.4084 25.1042 31.7063 22.6537 31.2375C21.6616 31.0704 20.549 31.4866 19.5846 31.5533C18.6643 31.5911 17.2774 31.4944 16.4137 31.81C15.9598 31.9823 15.5059 32.1546 15.081 32.3709C14.568 32.645 13.9431 32.1736 13.5659 31.7914C12.8404 31.071 11.5566 30.8435 10.6074 30.8373C9.46825 30.8298 8.52022 30.6338 7.44143 30.3346C6.39156 30.0794 5.05761 30.8301 4.29057 29.759C4.20381 29.627 4.02779 29.7427 4.04163 29.8596C4.30706 31.7015 6.68715 31.7755 8.07645 31.4925C9.42176 31.2385 10.9054 32.1537 12.115 32.5559C12.7562 32.7646 13.4138 32.7105 14.084 32.9632C14.4775 33.0826 14.9138 33.3629 15.3375 33.3365C15.8342 33.3251 16.3031 33.0799 16.8136 33.1855C17.3241 33.2911 17.8647 33.2508 18.3475 33.1225C19.2402 32.8509 19.596 32.05 20.7326 32.4371C21.228 32.6156 21.7397 32.5313 22.2514 32.4471C23.2019 32.2634 24.3159 31.6573 24.9482 30.9897C25.9339 29.9008 26.0319 28.3241 27.5255 27.7205C27.6424 27.7066 27.6273 27.7796 27.5255 27.7205Z" fill="#F7E3E2"/>
<path d="M19.4181 25.7395C19.7803 26.1946 20.3335 26.4611 20.7987 26.7855C21.4237 27.2569 22.935 28.406 21.3559 28.6878C20.6103 28.7997 19.9816 28.8978 19.4083 29.4637C18.9381 29.8987 18.9621 30.7021 18.9873 31.3157C19.0162 31.3597 19.0602 31.3308 19.0602 31.3308C19.1092 30.5424 19.1431 29.827 19.949 29.4234C20.3739 29.2071 20.9573 29.3278 21.3811 29.3013C21.8488 29.246 22.6823 29.0762 22.6282 28.4186C22.5062 26.9865 20.2744 26.563 19.4181 25.7395Z" fill="#F1CCCA"/>
</svg>
