<svg width="191" height="71" viewBox="0 0 191 71" fill="none" xmlns="http://www.w3.org/2000/svg">
<path d="M35.0148 17.4807C32.5367 18.2714 30.2354 19.4825 27.8522 20.4983C26.2485 21.1829 24.6225 21.7652 22.8402 21.6424C20.9054 21.5085 19.4543 20.675 18.7846 18.7551C18.6153 18.5876 18.8311 18.0797 18.312 18.223C18.312 18.7439 18.312 19.2667 18.312 19.7876C20.3045 22.5801 23.0319 23.0675 26.1406 22.2322C29.4931 21.3317 32.4232 19.5495 35.3348 17.7337C35.2994 17.5607 35.1413 17.5421 35.0148 17.4807Z" fill="#03518B"/>
<path d="M18.312 18.2228C18.4701 18.3995 18.6264 18.5781 18.7846 18.7549C18.859 17.6424 19.2255 16.8275 20.5612 16.9224C20.8515 16.9428 21.2608 16.8759 21.2254 16.5075C21.1863 16.1168 20.7901 16.1968 20.4906 16.2396C19.5324 16.381 18.8906 16.9931 18.312 17.7019C18.312 17.8749 18.312 18.0498 18.312 18.2228Z" fill="#03518B"/>
<path d="M149.789 28.1255C150.371 26.6353 149.901 25.4167 148.788 24.3861C146.857 22.5963 144.457 21.921 141.934 21.6196C140.565 21.4559 139.177 21.4373 137.799 21.3536C137.629 21.1992 137.462 21.1973 137.298 21.3648C135.211 21.655 133.108 21.6289 131.008 21.681C130.619 21.6903 130.23 21.7034 129.94 21.3722C129.832 21.2885 129.709 21.2494 129.574 21.2531C127.7 21.3834 125.862 21.1471 124.074 20.6132C122.731 20.2132 121.483 19.6216 120.858 18.2262C120.592 17.9044 120.74 17.2719 120.114 17.2198C119.576 18.8997 120.147 20.4141 121.751 21.4317C124.158 22.9591 126.885 23.1321 129.624 23.2642C130.206 23.2921 130.861 23.0912 131.324 23.6624C132.02 23.0708 132.904 23.454 133.667 23.214C134.781 23.2121 135.895 23.2121 137.01 23.2084C137.441 23.2066 137.884 23.1675 138.12 23.6512C138.98 23.5749 139.841 23.3777 140.699 23.6735C142.864 24.1182 145.071 24.4047 147.073 25.4446C147.815 25.8297 148.494 26.28 148.974 26.9795C149.329 27.2995 149.069 28.0641 149.789 28.1255Z" fill="#03518B"/>
<path d="M55.1016 21.3558C52.858 21.4358 50.6087 21.4804 48.4265 22.1074C46.8302 22.5669 45.3401 23.2218 44.114 24.3826C43.0145 25.4245 42.5346 26.6319 43.1113 28.1221C43.8331 28.057 43.5652 27.2942 43.9261 26.9742C44.9624 25.711 46.3726 25.0729 47.8832 24.6245C49.2953 24.2078 50.7445 23.9361 52.1938 23.6738C53.0515 23.3706 53.9165 23.579 54.7779 23.6515C54.9435 23.378 55.1612 23.205 55.5053 23.2124C57.3081 23.2422 59.1089 23.2627 60.9117 23.2887C61.1852 23.2924 61.2875 23.4394 61.228 23.7036C61.3507 23.8041 61.4642 23.7948 61.5703 23.6757C62.0242 23.0897 62.6828 23.2924 63.2651 23.2645C66.0073 23.1325 68.7384 22.9613 71.1514 21.4339C72.7588 20.4144 73.3318 18.9056 72.7923 17.2201C72.0983 17.328 72.3662 18.0591 72.0239 18.3977C71.3077 19.6572 70.1003 20.2153 68.8054 20.6265C67.5236 21.0339 66.1822 21.14 64.8651 21.3725C64.2325 21.6795 63.5944 21.4004 62.9581 21.3818C62.5842 21.7892 62.0912 21.6869 61.6317 21.6757C59.6224 21.6255 57.6076 21.6553 55.6095 21.3613C55.4402 21.1995 55.2709 21.1995 55.1016 21.3558Z" fill="#03518B"/>
<path d="M142.956 34.1087C143.793 32.6817 143.51 31.5673 142.074 30.8064C140.498 29.9711 138.777 29.8948 137.043 29.932C136.528 29.9432 136.011 29.932 135.494 29.9302C135.295 29.8223 135.097 29.7999 134.906 29.9488C133.101 29.9395 131.298 29.9302 129.494 29.9209C129.105 29.8632 128.774 29.6641 128.443 29.4707C127.096 29.2325 125.753 28.9814 124.478 28.4474C123.63 28.0921 122.904 27.5916 122.361 26.8382C122.169 26.6503 121.967 26.4847 121.671 26.6C121.624 28.1423 122.413 29.1972 123.674 29.9395C125.031 30.7395 126.525 31.1394 128.084 31.3106C128.285 31.372 128.381 31.7087 128.671 31.5301C130.971 31.5134 133.27 31.4985 135.57 31.4799C135.922 31.478 136.268 31.4855 136.539 31.7571C136.768 31.8743 137.012 31.878 137.261 31.8687C138.385 31.9283 139.46 32.2352 140.548 32.4901C141.49 32.7115 142.152 33.2733 142.628 34.09C142.731 34.1831 142.84 34.1887 142.956 34.1087Z" fill="#03518B"/>
<path d="M56.3629 31.7591C56.7145 31.4094 57.1648 31.4801 57.5927 31.4819C59.8047 31.4931 62.0167 31.5117 64.2306 31.5266C64.519 31.7052 64.6157 31.3703 64.8148 31.307C65.8975 31.2215 66.9319 30.9331 67.9458 30.5592C69.8025 29.8727 71.155 28.7639 71.2295 26.5984C70.9299 26.483 70.7327 26.6523 70.5411 26.8402C69.423 28.4067 67.6984 28.7899 65.9757 29.1899C65.4734 29.3071 64.9599 29.348 64.4613 29.469C64.1264 29.6624 63.7971 29.8652 63.4046 29.9229C61.6018 29.9322 59.7972 29.9397 57.9945 29.949C57.8029 29.8001 57.6038 29.8224 57.4048 29.9303C55.7769 30.001 54.1342 29.7834 52.523 30.1945C51.7677 30.388 51.0235 30.6113 50.3929 31.0782C49.3492 31.8503 49.219 32.7507 49.9073 34.12C50.0152 34.2149 50.1268 34.213 50.2403 34.1312C50.9622 32.7061 52.3463 32.4382 53.7174 32.1703C54.3537 32.0456 54.9825 31.8559 55.6411 31.8745C55.8885 31.8856 56.1341 31.8745 56.3629 31.7591Z" fill="#03518B"/>
<path d="M35.5208 23.46C35.1041 21.8991 35.491 20.8982 37.1208 19.7429C40.0472 17.6686 43.3401 16.5114 46.8879 16.1263C48.8841 15.9105 50.8766 15.9886 52.7296 16.9356C53.0049 17.0583 53.0384 16.9225 52.9863 16.6956C51.7454 15.823 50.3297 15.3784 48.8506 15.2407C45.5596 14.9338 42.2722 14.8538 39.1226 16.1449C39.1542 16.1746 39.1821 16.2081 39.2174 16.2305C39.2491 16.2509 39.2881 16.2602 39.3235 16.2751C38.7207 16.5523 38.1272 16.8444 37.491 17.0509C37.0128 17.2053 36.5217 17.4267 36.3264 17.9755C35.8464 18.4053 35.3236 18.7978 34.8938 19.2741C33.4967 20.8275 33.6083 22.3177 35.1822 23.7428C35.4668 23.8563 35.5524 23.7298 35.5208 23.46Z" fill="#03518B"/>
<path d="M157.722 23.7464C159.361 22.26 159.404 20.7121 157.828 19.088C157.439 18.688 156.993 18.3457 156.572 17.9773C155.897 16.9801 154.79 16.7941 153.752 16.4722C153.586 16.4201 153.815 16.4853 153.679 16.3829C153.608 16.3308 153.675 16.236 153.791 16.2211C152.766 15.4788 151.536 15.3913 150.36 15.2797C147.173 14.9783 143.97 14.7086 140.933 16.1411C140.88 16.4015 140.956 16.5299 141.242 16.4462C146.647 15.3039 151.447 16.8555 155.882 19.834C157.106 20.6563 158.034 21.7818 157.378 23.4655C157.359 23.7241 157.422 23.8804 157.722 23.7464Z" fill="#03518B"/>
<path d="M157.141 17.6757C158.81 18.5761 160.471 19.4914 162.151 20.3733C164.032 21.3612 165.971 22.176 168.097 22.5072C169.755 22.7658 171.28 22.47 172.709 21.6402C173.999 20.8886 174.8 19.8412 174.557 18.2431C174.045 18.1036 174.287 18.6022 174.121 18.7566C173.109 21.1454 171.031 22.1053 168.127 21.5212C166.153 21.1249 164.401 20.1575 162.57 19.3873C160.62 18.5687 158.743 17.5641 156.671 17.058C156.622 17.4208 156.875 17.5529 157.141 17.6757Z" fill="#03518B"/>
<path d="M149.789 28.1255C149.344 27.798 149.798 27.1283 149.29 26.825C149.102 26.9627 149.049 27.1692 148.985 27.3794C148.595 28.6612 148.07 29.0073 146.678 28.8008C144.567 28.4901 142.682 27.6585 141.138 26.1609C140.465 25.5079 139.694 24.9218 139.285 24.0381C139.674 23.5507 140.381 23.9284 140.688 23.4019C139.802 23.1675 138.9 22.7693 138.122 23.6512C140.15 27.0576 143.034 29.1896 147.06 29.5356C148.204 29.6324 149.341 29.4873 149.789 28.1255Z" fill="#1166A5"/>
<path d="M43.6098 26.827C43.1019 27.1284 43.5522 27.7982 43.1094 28.1237C43.5577 29.4837 44.6926 29.6325 45.8386 29.5339C49.8645 29.1897 52.75 27.0633 54.776 23.6532C53.9984 22.7695 53.0961 23.1676 52.2086 23.402C52.5193 23.8783 53.1054 23.629 53.483 23.8764C53.5984 24.0066 53.5853 24.1462 53.5072 24.2504C51.7547 26.5908 49.5148 28.2037 46.6107 28.7767C44.9512 29.1042 44.5438 28.8121 43.6098 26.827Z" fill="#1166A5"/>
<path d="M72.3196 18.4868C72.7959 18.1836 72.3885 17.5529 72.7885 17.2218C72.2062 15.9418 71.1308 15.9846 70.0351 16.2581C66.9989 17.019 64.7348 18.8701 62.9543 21.3816C63.4715 22.0532 64.0966 21.9974 64.7645 21.6495C64.4371 21.3314 63.9943 21.1119 64.5599 20.5426C65.9533 19.1436 67.3951 17.8506 69.3318 17.2459C71.1569 16.6767 71.5494 16.8292 72.3196 18.4868Z" fill="#1166A5"/>
<path d="M67.6444 35.3943C68.9914 36.1385 70.4648 36.4622 71.9606 36.719C72.5578 36.8213 72.8685 36.5906 72.9243 35.9971C73.0024 35.1692 72.3624 35.5246 72.0406 35.519C70.742 35.4911 69.4472 35.4725 68.1765 35.1581C67.9235 35.0669 67.6407 34.9088 67.6444 35.3943Z" fill="#03518B"/>
<path d="M124.722 35.158C123.406 35.4668 122.071 35.5189 120.727 35.5152C120.424 35.5152 119.848 35.2548 119.974 35.9989C120.054 36.4696 120.21 36.8138 120.804 36.7338C122.359 36.5236 123.853 36.1254 125.254 35.4036C125.263 34.9087 124.979 35.065 124.722 35.158Z" fill="#03518B"/>
<path d="M120.112 17.2216C120.249 17.5621 120.387 17.9044 120.525 18.2449C121.39 16.8737 121.801 16.7268 123.468 17.2291C124.982 17.6867 126.264 18.5109 127.403 19.6123C128.065 20.2541 128.547 21.1527 129.568 21.3573C129.693 21.3611 129.816 21.3666 129.94 21.3704C128.162 18.8625 125.896 17.017 122.865 16.2542C121.767 15.9826 120.694 15.9473 120.112 17.2216Z" fill="#1166A5"/>
<path d="M128.37 29.6718C128.727 29.8318 129.064 30.083 129.494 29.9211C128.858 29.6904 128.837 29.1063 128.679 28.5705C128.074 26.5147 126.798 25.1045 124.662 24.5966C123.159 24.2394 122.017 25.0189 121.671 26.6003C121.812 26.684 121.954 26.7696 122.095 26.8533C123.481 24.9222 125.341 24.9185 126.934 26.7975C127.656 27.6477 127.836 28.7416 128.37 29.6718Z" fill="#1166A5"/>
<path d="M70.8091 26.8532C70.9487 26.7676 71.0882 26.6839 71.2296 26.5983C70.8966 25.0244 69.745 24.2412 68.238 24.5984C66.0986 25.1063 64.826 26.522 64.2214 28.5759C64.0633 29.1136 64.041 29.6922 63.4028 29.921C63.8251 30.0847 64.16 29.841 64.5135 29.6847C64.8465 29.3126 64.8874 28.8178 65.0642 28.3806C65.4791 27.3536 66.0707 26.4718 67.0418 25.8858C68.6027 24.9425 69.5961 25.1956 70.8091 26.8532Z" fill="#1166A5"/>
<path d="M134.906 29.9487C135.101 29.9431 135.298 29.9357 135.494 29.9301C134.271 27.8409 133.049 25.7516 131.754 23.5378C132.452 23.4206 133.06 23.3182 133.667 23.2159C132.861 23.2382 131.964 22.7768 131.324 23.6643C132.517 25.7591 133.711 27.8539 134.906 29.9487Z" fill="#1166A5"/>
<path d="M35.5208 23.4597C35.4073 23.5546 35.2938 23.6494 35.1803 23.7443C36.5142 25.0113 38.1607 25.1601 39.876 25.0485C40.3336 25.0187 40.715 24.8178 40.8955 24.3694C40.9625 24.2038 40.8769 24.042 40.7057 23.9378C40.276 23.6774 39.8536 23.8243 39.4685 24.0066C37.7458 24.8252 36.9365 24.7229 35.5208 23.4597Z" fill="#03518B"/>
<path d="M157.722 23.7463C157.606 23.6533 157.493 23.5603 157.378 23.4654C155.962 24.7268 155.166 24.8254 153.434 24.0068C153.048 23.8245 152.626 23.6794 152.196 23.9398C152.025 24.044 151.943 24.2059 152.009 24.3714C152.187 24.8216 152.572 25.0189 153.028 25.0486C154.741 25.1565 156.392 25.0207 157.722 23.7463Z" fill="#03518B"/>
<path d="M57.403 29.9284C57.6002 29.934 57.7955 29.9414 57.9927 29.947C59.1852 27.8578 60.3759 25.7667 61.5684 23.6774C61.4549 23.6867 61.3414 23.696 61.228 23.7053C59.6224 25.5769 58.8411 27.9545 57.403 29.9284Z" fill="#1166A5"/>
<path d="M142.956 34.1089C142.866 34.1145 142.777 34.12 142.69 34.1256C140.362 34.2186 138.705 32.8475 137.023 31.5304C136.861 31.6048 136.701 31.681 136.539 31.7555C137.853 33.3331 139.387 34.5535 141.533 34.6949C142.063 34.7303 142.701 34.8307 142.956 34.1089Z" fill="#1166A5"/>
<path d="M56.3631 31.759C56.1993 31.6827 56.0356 31.6083 55.8719 31.532C55.3808 31.7999 54.9473 32.1348 54.5417 32.5255C53.338 33.6845 51.8218 34.0324 50.2163 34.1254C50.1121 34.1235 50.0079 34.1217 49.9019 34.1198C50.6163 35.1003 51.6097 34.7952 52.4618 34.5291C54.0394 34.0398 55.3677 33.1096 56.3631 31.759Z" fill="#1166A5"/>
<path d="M141.242 16.4461C141.14 16.3437 141.036 16.2433 140.933 16.141C138.599 17.1009 137.399 18.8497 137.298 21.365C137.466 21.3613 137.631 21.3575 137.799 21.3538C137.706 18.8479 139.183 17.4432 141.242 16.4461Z" fill="#1166A5"/>
<path d="M124.722 35.1579C124.899 35.2398 125.075 35.3198 125.252 35.4016C126.988 34.637 128.141 33.3589 128.671 31.5301C128.476 31.4575 128.281 31.3831 128.084 31.3106C127.914 33.4221 126.352 34.3189 124.722 35.1579Z" fill="#1166A5"/>
<path d="M52.9862 16.6952C52.9007 16.7752 52.8151 16.8552 52.7295 16.9352C54.1769 18.057 55.2224 19.3928 55.1015 21.3555C55.269 21.3574 55.4383 21.3592 55.6057 21.3611C55.5592 19.3425 54.735 17.7593 52.9862 16.6952Z" fill="#1166A5"/>
<path d="M157.141 17.6757C156.985 17.471 156.829 17.2664 156.671 17.0617C155.703 16.8031 154.831 16.2208 153.791 16.2208C153.586 16.1929 153.38 16.1632 153.175 16.1352C153.158 16.1799 153.143 16.2245 153.127 16.2692C154.276 16.8385 155.424 17.4078 156.574 17.9771C156.682 17.724 156.924 17.724 157.141 17.6757Z" fill="#03518B"/>
<path d="M67.6444 35.3945C67.8212 35.3164 67.9998 35.2364 68.1765 35.1583C66.5412 34.3248 64.9841 33.4206 64.8148 31.3072C64.6194 31.3798 64.4259 31.4542 64.2306 31.5267C64.772 33.3425 65.9347 34.6113 67.6444 35.3945Z" fill="#1166A5"/>
<path d="M174.119 18.7566C174.265 18.5854 174.41 18.4143 174.555 18.2431C174.408 16.9966 173.522 16.5278 172.456 16.2562C172.157 16.1799 171.762 16.1018 171.686 16.4739C171.604 16.8776 172.032 16.939 172.311 16.9185C173.658 16.8199 174.045 17.6255 174.119 18.7566Z" fill="#1166A5"/>
<path d="M36.3245 17.9771C37.4687 17.4133 38.6147 16.8478 39.7756 16.2766C39.5951 16.0273 39.3384 16.1799 39.1226 16.1446C38.5719 16.0515 38.3021 16.712 37.7626 16.6487C37.1189 17.0394 36.1608 16.818 35.7571 17.6794C35.9747 17.724 36.2147 17.7296 36.3245 17.9771Z" fill="#03518B"/>
<path d="M35.7589 17.6773C36.4268 17.3332 37.0965 16.9909 37.7644 16.6467C36.7524 16.6095 35.8947 17.0802 35.0166 17.4783C35.1226 17.5639 35.2287 17.6476 35.3366 17.7332C35.4761 17.7164 35.6175 17.6978 35.7589 17.6773Z" fill="#03518B"/>
<path fill-rule="evenodd" clip-rule="evenodd" d="M96.1422 22.7804C96.1627 22.853 96.2073 22.9014 96.265 22.9367C96.2762 22.9497 96.2855 22.9609 96.2966 22.9739V22.9553C96.5013 23.0484 96.8231 22.946 96.8585 22.6465C96.864 22.5981 96.8659 22.5516 96.8696 22.5033C96.9626 22.3767 97.0557 22.2521 97.1524 22.1312C97.5226 21.9861 97.7552 21.6791 97.8519 21.3256C98.9793 20.148 100.269 19.3424 101.751 18.7508C101.829 19.2289 101.898 19.6326 101.967 20.0531C103.361 19.2513 104.605 18.3266 105.926 17.8932C106.505 17.9583 106.092 18.7676 106.739 18.5741C107.576 18.3322 108.298 17.5546 109.282 18.0085C109.26 18.2429 108.966 18.4829 109.375 18.6224C110.172 18.7973 110.871 17.8373 111.699 18.4197C111.848 19.7777 110.512 19.9731 109.859 20.6633C109.971 21.0391 110.458 21.1414 110.387 21.5135C108.983 22.3451 107.316 22.6632 106.302 24.4344C109.997 25.2697 113.623 26.0399 116.809 28.0491C115.701 28.7431 114.469 29.3384 113.055 30.0063C114.957 31.0611 116.22 32.7876 118.036 33.8331C117.71 34.475 116.886 34.2759 116.462 35.1168C119.548 36.7075 118.568 40.4823 120.527 42.8859L113.829 41.6543C112.287 41.3157 111.074 40.4934 109.946 39.4107C109.831 39.8423 109.742 40.179 109.649 40.525C108.84 40.5343 108.259 40.1269 107.924 39.5223C106.938 37.7493 105.087 36.9865 103.643 35.7512C103.366 35.5131 102.944 35.5168 102.695 35.7977C103.072 37.3344 103.281 38.8897 104.495 40.0302C104.938 40.445 105.351 40.8878 105.694 41.4422C107.009 43.5761 106.804 46.1342 108.092 48.6308C106.131 47.5462 104.332 47.4197 102.278 46.7407C103.091 49.3862 101.854 51.5163 102.149 53.8028C101.216 53.6744 100.657 52.8558 99.7384 53.0809C99.3775 56.0055 97.1301 58.1171 96.6185 61.304" fill="#1B6FB5"/>
<path fill-rule="evenodd" clip-rule="evenodd" d="M96.9553 61.2998C95.5246 59.2906 95.9376 56.9055 93.9209 55.7353C93.9879 54.7809 93.6512 53.8935 93.3182 53.127C92.2857 52.6973 91.9638 54.2786 91.0057 53.6833C91.1768 51.4341 90.4662 49.2369 90.7303 46.85C88.9146 47.7095 86.9053 47.263 85.1566 48.6918C85.2477 47.5551 85.8765 46.9765 85.9807 46.1765C86.3063 43.6799 87.1212 41.4102 88.9871 39.5256C89.9304 38.5693 90.4085 37.1759 90.4624 35.5331C87.4523 36.4317 86.1016 39.3042 83.9808 40.5637C83.1008 40.4688 83.5027 39.7767 82.8943 39.7097C81.7892 40.5711 80.7437 41.812 78.487 41.7562C76.967 42.6343 74.6527 42.385 72.2714 42.9506C72.9467 41.9106 73.7281 41.1906 73.8918 40.3497C74.2732 38.3777 74.7922 36.5805 76.554 35.3862C76.675 35.3024 76.874 35.1778 76.6154 34.7778C76.4201 34.2774 75.462 34.5546 75.1438 33.8699C76.8777 32.6774 78.2768 31.0365 80.4441 30.1231C79.0153 29.3901 77.754 28.7445 76.3754 28.0375C77.9344 27.0664 79.7893 26.9399 80.8776 25.4553C82.8906 25.5185 84.8254 25.2618 86.6802 24.2572C85.9454 22.6275 84.3584 22.3038 83.0896 21.6638C82.7138 21.2173 83.1734 20.9494 83.1864 20.6275C82.658 19.8517 81.5399 19.502 81.445 18.4043C82.3157 17.9392 82.9576 18.6369 83.7519 18.6443C84.7342 16.8993 85.7835 18.4378 86.7807 18.6257C87.1974 18.5067 86.9556 17.8053 87.4523 17.8871C88.8104 18.4713 89.949 19.2862 91.1657 20.1159C91.2196 19.6062 91.2661 19.1764 91.3127 18.7374C93.4614 19.3866 94.9684 20.8452 96.4883 22.7744" fill="#1B6FB5"/>
</svg>
