<svg width="317" height="107" viewBox="0 0 317 107" fill="none" xmlns="http://www.w3.org/2000/svg">
<path d="M12.4333 28.7486C6.90739 25.5435 2.76296 23.1582 0 21.5925V0.95322L1.61633 0L3.24647 0.95322V19.6861C7.39091 22.0346 10.4025 23.8305 12.4195 25.0048L24.8528 17.7934V40.2701C24.3284 40.6192 23.7841 40.9374 23.2226 41.2233C22.5181 40.8089 21.9793 40.5049 21.6063 40.2701V23.4851L12.4333 28.7486ZM3.24647 40.2701C2.72203 40.6192 2.17773 40.9374 1.61633 41.2233C0.911776 40.8089 0.372999 40.5049 0 40.2701V24.0515L3.24647 25.958V40.2701ZM21.6478 0.95322C22.3938 0.538776 22.9325 0.221037 23.2641 0C24.0101 0.414443 24.5627 0.732183 24.8942 0.95322V15.3206C23.5128 16.1495 22.3938 16.7021 21.6478 17.1718V0.95322Z" fill="white"/>
<path d="M63.1197 34.0673C60.3567 35.6698 56.2123 38.0551 50.6864 41.2233C47.9234 39.6208 43.779 37.2354 38.2531 34.0673V7.15606C41.016 5.59959 45.1604 3.21424 50.6864 0L63.1197 7.15606V34.0673ZM59.8732 9.0625C57.8562 7.87443 54.8032 6.09232 50.7002 3.74381C48.6556 4.94569 45.5887 6.71398 41.5272 9.0625V32.2161L50.7002 37.5348L59.8732 32.2161V9.0625Z" fill="white"/>
<path d="M101.345 17.1718C91.73 11.6459 84.514 7.50143 79.6973 4.73847V40.2701C79.1771 40.6184 78.6375 40.9367 78.081 41.2233C77.3764 40.8089 76.8238 40.5049 76.4508 40.2701V0.95322L78.081 0C86.9869 5.15752 93.6548 8.99803 98.0848 11.5215V0.95322C98.8308 0.538776 99.3833 0.221037 99.7149 0C100.461 0.414443 101 0.732183 101.331 0.95322L101.345 17.1718ZM101.345 19.6861V40.2701C100.825 40.6184 100.285 40.9367 99.7287 41.2233C99.0242 40.8089 98.4716 40.5049 98.0986 40.2701V17.7934L101.345 19.6861Z" fill="white"/>
<path d="M117.923 9.0625V32.2161L127.096 37.4795C132.622 34.3205 136.766 31.9352 139.529 30.3234V34.0673L127.096 41.2233C121.57 38.0643 117.426 35.679 114.663 34.0673V7.15606L127.096 0C132.622 3.20503 136.766 5.59038 139.529 7.15606V9.0625L137.899 10.0157C133.092 7.25276 129.477 5.16212 127.055 3.74381L117.923 9.0625ZM136.338 29.7018V27.7953L130.909 24.6732V22.822L132.622 21.8688C135.716 23.6647 138.051 25.0186 139.626 26.0132V27.8506C138.148 28.6657 137.084 29.2873 136.338 29.7018ZM139.529 40.2701C139.003 40.6162 138.459 40.9344 137.899 41.2233C137.195 40.8089 136.656 40.5049 136.283 40.2701V38.4327L139.529 36.5815V40.2701Z" fill="white"/>
<path d="M195.783 7.15606V0.95322C196.529 0.538776 197.068 0.221037 197.413 0C198.159 0.414443 198.698 0.732183 199.029 0.95322V9.0625L181.181 19.3407L174.135 15.3068V0.95322L175.765 0L177.381 0.95322V13.3865L181.181 15.5693C187.673 11.8669 192.541 9.0625 195.783 7.15606ZM177.381 19.6861V40.2701C176.859 40.6154 176.32 40.9336 175.765 41.2233C175.047 40.8089 174.508 40.5049 174.135 40.2701V17.7934L177.381 19.6861ZM195.783 40.2701C196.529 40.726 197.068 41.0437 197.413 41.2233C198.159 40.8089 198.698 40.5049 199.029 40.2701V19.6861C195.935 17.8625 193.6 16.4949 192.039 15.6107C190.657 16.4672 189.483 17.1027 188.737 17.5033C191.869 19.3453 194.217 20.7268 195.783 21.6478V40.2701Z" fill="white"/>
<path d="M237.31 34.0673C234.547 35.6698 230.403 38.0551 224.877 41.2233C222.114 39.6208 217.969 37.2354 212.443 34.0673V7.15606C215.206 5.59959 219.351 3.21424 224.877 0L237.31 7.15606V34.0673ZM234.063 9.0625C232.06 7.87443 228.993 6.09232 224.89 3.74381C222.846 4.94569 219.779 6.71398 215.717 9.0625V32.2161L224.89 37.5348L234.063 32.2161V9.0625Z" fill="white"/>
<path d="M275.536 17.1718C265.921 11.6459 258.705 7.50143 253.888 4.73847V40.2701C253.368 40.6184 252.828 40.9367 252.272 41.2233C251.567 40.8089 251.028 40.5049 250.655 40.2701V0.95322L252.272 0C261.178 5.15752 267.855 8.99803 272.303 11.5215V0.95322C273.049 0.538776 273.588 0.221037 273.919 0C274.665 0.414443 275.204 0.732183 275.536 0.95322V17.1718ZM275.536 19.6861V40.2701C275.016 40.6184 274.476 40.9367 273.919 41.2233C273.215 40.8089 272.676 40.5049 272.303 40.2701V17.7934L275.536 19.6861Z" fill="white"/>
<path d="M292.127 9.0625V32.2161L301.3 37.4795C306.826 34.3205 310.971 31.9352 313.734 30.3234V34.0673L301.3 41.2233C295.775 38.0643 291.63 35.679 288.867 34.0673V7.15606L301.3 0C306.826 3.20503 310.971 5.59038 313.734 7.15606V9.0625L312.214 10.0157C307.407 7.25276 303.792 5.16212 301.37 3.74381C297.225 6.09232 294.172 7.87443 292.127 9.0625ZM310.529 29.7018V27.7953L305.1 24.6732V22.822L306.785 21.8688C309.879 23.6647 312.2 25.0186 313.775 26.0132V27.8506C312.352 28.6657 311.275 29.2873 310.529 29.7018ZM313.775 40.2701C313.249 40.6162 312.705 40.9344 312.145 41.2233C311.441 40.8089 310.902 40.5049 310.529 40.2701V38.4327L313.775 36.5815V40.2701Z" fill="white"/>
<path d="M226.24 75.7993C227.126 74.4929 228.094 72.932 229.143 71.1166C230.232 69.2951 231.21 67.4101 232.078 65.4615C232.939 63.4736 233.64 61.4904 234.18 59.5119C234.721 57.5333 234.902 55.7112 234.725 54.0453C234.686 54.0514 234.643 54.0378 234.598 54.0045C233.865 53.9568 233.133 54.0498 232.404 54.2838C231.668 54.4783 230.967 54.7683 230.301 55.1536C229.635 55.5389 228.975 55.9636 228.321 56.4277C227.667 56.8917 227.052 57.3497 226.477 57.8016C225.321 58.666 224.071 59.7061 222.727 60.9221C221.383 62.138 220.052 63.4327 218.732 64.8061C217.407 66.1402 216.147 67.5045 214.951 68.899C213.796 70.2874 212.808 71.5894 211.988 72.8048L212.047 72.7957C211.826 73.1927 211.562 73.6973 211.253 74.3095C210.978 74.8762 210.729 75.4792 210.505 76.1185C210.282 76.7579 210.137 77.3851 210.071 78C210.005 78.615 210.087 79.1465 210.318 79.5946C210.997 80.3361 212.074 80.9152 213.55 81.3318C215.065 81.7424 216.734 82.1088 218.558 82.4312C220.415 82.7082 222.318 83.0184 224.266 83.3619C226.208 83.666 227.988 84.096 229.606 84.6518C231.263 85.2015 232.61 85.9606 233.647 86.9289C234.718 87.8518 235.27 89.0766 235.305 90.6032C235.33 91.2847 235.185 91.9119 234.87 92.4847C234.595 93.0514 234.212 93.5743 233.722 94.0533C233.265 94.4869 232.763 94.8873 232.215 95.2543C231.667 95.6213 231.136 95.9656 230.621 96.2872C229.961 96.7119 229.225 97.1685 228.414 97.6569C227.648 98.1787 226.831 98.6277 225.962 99.0042C225.138 99.4139 224.299 99.7251 223.445 99.938C222.591 100.151 221.727 100.164 220.851 99.9768C219.715 99.6689 218.571 99.1807 217.419 98.5124C216.274 97.8834 215.372 97.1361 214.714 96.2703C214.049 95.3653 213.762 94.422 213.852 93.4404C213.975 92.4135 214.744 91.3874 216.157 90.3622L220.141 93.4345C219.578 93.9652 219.093 94.4836 218.688 94.9898C218.283 95.4961 218.113 95.9658 218.18 96.3989C219.059 96.3435 219.961 96.1836 220.888 95.9192C221.848 95.6094 222.759 95.2465 223.622 94.8307C224.525 94.4088 225.378 93.934 226.184 93.4061C227.028 92.8722 227.811 92.3278 228.531 91.7728C228.643 91.7151 228.855 91.521 229.167 91.1906C229.518 90.854 229.866 90.4978 230.211 90.1218C230.55 89.7065 230.813 89.3231 231 88.9715C231.182 88.5806 231.159 88.3019 230.931 88.1356C229.777 87.7095 228.471 87.3473 227.014 87.0488C225.59 86.7048 224.208 86.3744 222.869 86.0576C221.406 85.7197 219.877 85.3516 218.283 84.9532C216.729 84.5488 215.159 84.0459 213.575 83.4446C212.844 83.1545 212.046 82.8145 211.179 82.4245C210.346 81.9891 209.543 81.4886 208.77 80.9228C207.997 80.3571 207.333 79.7141 206.778 78.9936C206.183 78.2793 205.813 77.4497 205.667 76.5048C205.49 75.3629 205.648 74.1693 206.14 72.9239C206.627 71.6391 207.203 70.542 207.868 69.6326C210.637 65.8982 213.72 62.3769 217.119 59.069C220.557 55.7549 224.362 52.9888 228.534 50.7706C230.151 50.2783 231.7 50.2602 233.182 50.7162C234.663 51.1722 235.974 51.9571 237.114 53.0707C237.651 53.673 238.083 54.2512 238.411 54.8052C238.778 55.3531 239.027 55.9193 239.158 56.5038C239.288 57.0883 239.327 57.7274 239.273 58.4211C239.219 59.1149 239.079 59.9026 238.853 60.7842C238.062 64.011 236.958 67.1654 235.54 70.2473C234.116 73.2899 232.412 76.2146 230.428 79.0214L226.24 75.7993ZM239.511 63.1617C240.417 63.0216 241.227 62.9163 241.942 62.846C242.69 62.7301 243.402 62.6401 244.077 62.5759C244.639 60.9972 245.116 59.6533 245.509 58.5443C245.935 57.3898 246.227 56.5383 246.384 55.9899L250.303 58.6488C250.155 58.9943 249.963 59.4473 249.727 60.0079C249.524 60.5231 249.318 61.1397 249.106 61.8578C249.185 61.8456 249.283 61.8304 249.402 61.8121C249.514 61.7544 249.629 61.7164 249.747 61.6982L250.818 65.1004C250.194 65.2373 249.649 65.362 249.182 65.4745C248.749 65.5415 248.316 65.6086 247.883 65.6756C247.385 67.4057 246.894 69.316 246.412 71.4066C245.962 73.4517 245.598 75.5239 245.318 77.6234C245.038 79.7228 244.893 81.7812 244.883 83.7986C244.906 85.7706 245.161 87.5454 245.647 89.1231C246.004 88.8259 246.394 88.2212 246.817 87.3091C247.28 86.3908 247.744 85.3514 248.209 84.1908C248.714 83.0241 249.19 81.8014 249.637 80.5227C250.124 79.2379 250.586 78.0576 251.024 76.9819L254.884 79.6499C254.688 80.2045 254.443 80.968 254.15 81.9406C253.851 82.8739 253.502 83.8754 253.104 84.945C252.699 85.9753 252.212 86.9981 251.643 88.0134C251.114 89.0226 250.502 89.8834 249.806 90.5959C249.104 91.269 248.329 91.7317 247.481 91.9839C246.633 92.2361 245.684 92.1007 244.636 91.5776C242.896 90.7584 241.703 89.4312 241.056 87.5962C240.403 85.7218 240.097 83.6123 240.137 81.2677C240.171 78.8838 240.452 76.4011 240.98 73.8198C241.547 71.2324 242.191 68.754 242.913 66.3846L241.968 66.5308L239.511 63.1617ZM249.496 80.9074C250.031 79.4135 250.663 77.7636 251.391 75.9575C252.074 74.1182 252.767 72.2168 253.471 70.2532C252.904 68.93 252.796 67.717 253.15 66.6141C253.536 65.4657 254.12 64.5488 254.901 63.8635C255.676 63.1388 256.53 62.6639 257.462 62.4389C258.434 62.2078 259.213 62.2888 259.798 62.6821C260.377 63.0359 260.653 63.7793 260.627 64.9122C260.595 66.0058 260.004 67.5285 258.855 69.4803C259.409 69.6767 259.823 69.8747 260.096 70.0744C260.369 70.274 260.611 70.5388 260.823 70.8688C261.069 71.1533 261.33 71.5363 261.606 72.0176C261.915 72.4535 262.348 73.0317 262.903 73.7521C263.503 74.5058 263.787 75.4294 263.755 76.5229C263.756 77.571 263.602 78.6632 263.295 79.7994C263.026 80.9295 262.715 82.046 262.362 83.1489C262.002 84.2125 261.762 85.1366 261.642 85.9213C262.514 85.3025 263.253 84.4824 263.861 83.461C264.509 82.4336 265.071 81.3789 265.549 80.2971C266.02 79.1758 266.436 78.0834 266.795 77.0199C267.194 75.9502 267.561 75.0669 267.897 74.3699L271.825 77.0879C271.665 77.3546 271.476 77.8273 271.258 78.506C271.035 79.1454 270.751 79.915 270.406 80.815C270.095 81.6695 269.731 82.5725 269.314 83.5241C268.936 84.4695 268.507 85.3423 268.026 86.1424C267.584 86.9365 267.088 87.6382 266.538 88.2476C265.981 88.8176 265.386 89.2725 264.753 89.6123C264.16 89.9461 263.522 90.1254 262.841 90.1503C262.193 90.1297 261.57 89.8834 260.973 89.4114C260.563 89.1119 260.154 88.8124 259.745 88.5129C259.375 88.2073 259.005 87.9017 258.635 87.5962C258.169 87.1846 257.877 86.6048 257.761 85.8567C257.679 85.0632 257.686 84.1953 257.782 83.2532C257.917 82.305 258.109 81.3279 258.356 80.322C258.597 79.2767 258.828 78.2935 259.048 77.3725C259.308 76.4453 259.504 75.6288 259.637 74.9229C259.769 74.217 259.772 73.7126 259.644 73.4098C259.305 73.3011 258.946 73.1954 258.567 73.0928C258.183 72.9508 257.804 72.8482 257.431 72.7849C257.262 73.2546 257.09 73.7046 256.914 74.1349C256.779 74.5591 256.64 74.9636 256.498 75.3484C256.023 76.712 255.523 78.0392 254.997 79.3301C254.505 80.5755 253.968 81.9285 253.388 83.3891L249.496 80.9074ZM271.632 80.8672C271.494 82.0578 271.43 83.0756 271.439 83.9207C271.489 84.7597 271.568 85.2716 271.677 85.4563C272.198 85.6981 272.757 85.793 273.354 85.7409C273.945 85.6495 274.523 85.4793 275.089 85.2304C275.655 84.9815 276.193 84.6766 276.701 84.3156C277.21 83.9547 277.656 83.5832 278.041 83.2012C278.815 82.4765 279.477 81.6686 280.024 80.7775C280.565 79.8471 281.045 78.9061 281.462 77.9545C281.912 76.9575 282.32 75.9469 282.686 74.9227C283.051 73.8986 283.459 72.888 283.91 71.891L287.72 74.6272C287.279 75.9453 286.854 77.2407 286.447 78.5133C286.039 79.7859 285.543 81.0116 284.96 82.1905C284.41 83.3239 283.723 84.3575 282.9 85.2912C282.116 86.2189 281.125 86.9771 279.926 87.5659C279.081 88.0998 278.226 88.4338 277.36 88.5679C276.533 88.6959 275.704 88.683 274.874 88.5293C274.083 88.3695 273.294 88.0886 272.506 87.6864C271.758 87.2782 271.017 86.7882 270.283 86.2164C269.634 85.6717 269.055 85.0558 268.546 84.3687C268.036 83.6816 267.658 82.9337 267.412 82.1252C267.078 81.0078 266.957 79.8371 267.05 78.6133C267.103 77.3955 267.32 76.1928 267.701 75.005C268.042 73.8233 268.513 72.7021 269.115 71.6413C269.75 70.5351 270.466 69.5575 271.262 68.7086C272.82 67.0563 274.352 66.2749 275.858 66.3643C277.363 66.4538 278.943 67.1566 280.599 68.4727C281.441 69.2292 281.915 70.2041 282.019 71.3975C282.029 72.2426 281.799 73.1046 281.331 73.9835C280.895 74.8169 280.445 75.5519 279.979 76.1884C278.932 77.7615 277.846 79.0787 276.72 80.14C275.594 81.2012 274.385 82.1141 273.092 82.8787L271.632 80.8672ZM277.637 69.6568C276.729 70.0393 275.943 70.5641 275.281 71.2311C274.657 71.8921 274.111 72.662 273.642 73.5409C273.207 74.3743 272.843 75.2773 272.55 76.2499C272.296 77.2165 272.066 78.1996 271.858 79.1994C272.414 78.6294 273.018 77.9716 273.669 77.2258C274.319 76.48 274.924 75.701 275.484 74.8886C276.077 74.0308 276.568 73.1686 276.958 72.3019C277.342 71.3958 277.568 70.5141 277.637 69.6568ZM287.723 78.3761C287.585 79.5667 287.521 80.5845 287.531 81.4296C287.58 82.2687 287.659 82.7805 287.768 82.9652C288.29 83.207 288.849 83.3019 289.445 83.2499C290.036 83.1584 290.614 82.9883 291.181 82.7393C291.747 82.4904 292.284 82.1855 292.793 81.8245C293.301 81.4636 293.748 81.0921 294.132 80.7101C294.907 79.9854 295.568 79.1775 296.115 78.2864C296.657 77.356 297.136 76.415 297.553 75.4635C298.003 74.4665 298.411 73.4559 298.777 72.4317C299.143 71.4075 299.551 70.3969 300.001 69.3999L303.811 72.1362C303.37 73.4542 302.946 74.7496 302.538 76.0222C302.13 77.2948 301.635 78.5206 301.051 79.6994C300.501 80.8328 299.814 81.8664 298.991 82.8002C298.208 83.7278 297.216 84.486 296.017 85.0748C295.173 85.6087 294.317 85.9427 293.451 86.0768C292.624 86.2048 291.796 86.192 290.966 86.0382C290.175 85.8784 289.385 85.5975 288.598 85.1953C287.849 84.7871 287.108 84.2971 286.374 83.7253C285.726 83.1807 285.146 82.5648 284.637 81.8776C284.127 81.1905 283.749 80.4427 283.503 79.6341C283.169 78.5167 283.048 77.3461 283.141 76.1222C283.195 74.9044 283.411 73.7017 283.792 72.5139C284.133 71.3322 284.605 70.211 285.206 69.1503C285.842 68.044 286.557 67.0665 287.353 66.2176C288.911 64.5652 290.443 63.7838 291.949 63.8733C293.454 63.9627 295.035 64.6655 296.69 65.9816C297.533 66.7381 298.006 67.713 298.11 68.9064C298.12 69.7515 297.891 70.6135 297.422 71.4924C296.987 72.3258 296.536 73.0608 296.07 73.6974C295.024 75.2705 293.937 76.5876 292.812 77.6489C291.686 78.7101 290.476 79.623 289.184 80.3876L287.723 78.3761ZM293.729 67.1658C292.82 67.5483 292.035 68.073 291.372 68.7401C290.748 69.401 290.202 70.1709 289.734 71.0498C289.298 71.8832 288.934 72.7862 288.641 73.7589C288.388 74.7254 288.157 75.7086 287.949 76.7084C288.506 76.1384 289.109 75.4805 289.76 74.7347C290.411 73.9889 291.016 73.2099 291.575 72.3975C292.168 71.5398 292.66 70.6775 293.05 69.8108C293.433 68.9047 293.66 68.0231 293.729 67.1658ZM299.205 53.9207C300.11 53.7805 300.921 53.6752 301.635 53.6049C302.384 53.4891 303.095 53.399 303.771 53.3348C304.333 51.7561 304.81 50.4122 305.203 49.3032C305.629 48.1487 305.92 47.2973 306.077 46.7488L309.996 49.4078C309.848 49.7532 309.656 50.2062 309.421 50.7669C309.218 51.282 309.011 51.8986 308.8 52.6167C308.879 52.6045 308.977 52.5893 309.095 52.571C309.207 52.5133 309.322 52.4754 309.44 52.4571L310.511 55.8593C309.887 55.9962 309.342 56.1209 308.876 56.2334C308.443 56.3005 308.01 56.3675 307.577 56.4346C307.078 58.1646 306.588 60.075 306.105 62.1655C305.656 64.2106 305.291 66.2829 305.012 68.3823C304.732 70.4817 304.587 72.5402 304.577 74.5576C304.6 76.5295 304.854 78.3043 305.34 79.882C305.698 79.5849 306.088 78.9802 306.511 78.068C306.974 77.1498 307.438 76.1103 307.903 74.9497C308.408 73.7831 308.884 72.5604 309.331 71.2817C309.817 69.9968 310.28 68.8166 310.718 67.7408L314.578 70.4089C314.382 70.9634 314.137 71.727 313.844 72.6996C313.545 73.6328 313.196 74.6343 312.797 75.7039C312.392 76.7342 311.906 77.757 311.337 78.7723C310.808 79.7815 310.195 80.6423 309.499 81.3548C308.797 82.028 308.022 82.4906 307.174 82.7428C306.326 82.9951 305.378 82.8596 304.33 82.3366C302.59 81.5173 301.397 80.1902 300.75 78.3551C300.097 76.4807 299.791 74.3712 299.831 72.0267C299.865 69.6427 300.146 67.1601 300.673 64.5788C301.24 61.9914 301.885 59.5129 302.607 57.1435L301.662 57.2898L299.205 53.9207Z" fill="#133E68"/>
</svg>
