<svg width="317" height="94" viewBox="0 0 317 94" fill="none" xmlns="http://www.w3.org/2000/svg">
<path d="M12.4333 28.7486C6.90739 25.5435 2.76296 23.1582 0 21.5925V0.95322L1.61633 0L3.24647 0.95322V19.6861C7.39091 22.0346 10.4025 23.8305 12.4195 25.0048L24.8528 17.7934V40.2701C24.3284 40.6192 23.7841 40.9374 23.2226 41.2233C22.5181 40.8089 21.9793 40.5049 21.6063 40.2701V23.4851L12.4333 28.7486ZM3.24647 40.2701C2.72203 40.6192 2.17773 40.9374 1.61633 41.2233C0.911776 40.8089 0.372999 40.5049 0 40.2701V24.0515L3.24647 25.958V40.2701ZM21.6478 0.95322C22.3938 0.538776 22.9325 0.221037 23.2641 0C24.0101 0.414443 24.5627 0.732183 24.8942 0.95322V15.3206C23.5128 16.1495 22.3938 16.7021 21.6478 17.1718V0.95322Z" fill="white"/>
<path d="M63.1205 34.0673C60.3576 35.6698 56.2131 38.0551 50.6872 41.2233C47.9243 39.6208 43.7798 37.2354 38.2539 34.0673V7.15606C41.0169 5.59959 45.1613 3.21424 50.6872 0L63.1205 7.15606V34.0673ZM59.874 9.0625C57.8571 7.87443 54.804 6.09232 50.701 3.74381C48.6564 4.94569 45.5896 6.71398 41.528 9.0625V32.2161L50.701 37.5348L59.874 32.2161V9.0625Z" fill="white"/>
<path d="M101.345 17.1718C91.7303 11.6459 84.5144 7.50143 79.6976 4.73847V40.2701C79.1775 40.6184 78.6378 40.9367 78.0813 41.2233C77.3768 40.8089 76.8242 40.5049 76.4512 40.2701V0.95322L78.0813 0C86.9872 5.15752 93.6552 8.99803 98.0851 11.5215V0.95322C98.8311 0.538776 99.3837 0.221037 99.7153 0C100.461 0.414443 101 0.732183 101.332 0.95322L101.345 17.1718ZM101.345 19.6861V40.2701C100.825 40.6184 100.286 40.9367 99.7291 41.2233C99.0245 40.8089 98.4719 40.5049 98.0989 40.2701V17.7934L101.345 19.6861Z" fill="white"/>
<path d="M117.922 9.0625V32.2161L127.095 37.4795C132.621 34.3205 136.766 31.9352 139.529 30.3234V34.0673L127.095 41.2233C121.57 38.0643 117.425 35.679 114.662 34.0673V7.15606L127.095 0C132.621 3.20503 136.766 5.59038 139.529 7.15606V9.0625L137.899 10.0157C133.091 7.25276 129.476 5.16212 127.054 3.74381L117.922 9.0625ZM136.338 29.7018V27.7953L130.908 24.6732V22.822L132.621 21.8688C135.716 23.6647 138.051 25.0186 139.625 26.0132V27.8506C138.147 28.6657 137.084 29.2873 136.338 29.7018ZM139.529 40.2701C139.002 40.6162 138.458 40.9344 137.899 41.2233C137.194 40.8089 136.655 40.5049 136.282 40.2701V38.4327L139.529 36.5815V40.2701Z" fill="white"/>
<path d="M195.783 7.15606V0.95322C196.529 0.538776 197.067 0.221037 197.413 0C198.159 0.414443 198.697 0.732183 199.029 0.95322V9.0625L181.18 19.3407L174.135 15.3068V0.95322L175.765 0L177.381 0.95322V13.3865L181.18 15.5693C187.673 11.8669 192.541 9.0625 195.783 7.15606ZM177.381 19.6861V40.2701C176.859 40.6154 176.32 40.9336 175.765 41.2233C175.047 40.8089 174.508 40.5049 174.135 40.2701V17.7934L177.381 19.6861ZM195.783 40.2701C196.529 40.726 197.067 41.0437 197.413 41.2233C198.159 40.8089 198.697 40.5049 199.029 40.2701V19.6861C195.934 17.8625 193.6 16.4949 192.039 15.6107C190.657 16.4672 189.483 17.1027 188.737 17.5033C191.868 19.3453 194.217 20.7268 195.783 21.6478V40.2701Z" fill="white"/>
<path d="M237.31 34.0673C234.547 35.6698 230.403 38.0551 224.877 41.2233C222.114 39.6208 217.969 37.2354 212.443 34.0673V7.15606C215.206 5.59959 219.351 3.21424 224.877 0L237.31 7.15606V34.0673ZM234.063 9.0625C232.06 7.87443 228.993 6.09232 224.89 3.74381C222.846 4.94569 219.779 6.71398 215.717 9.0625V32.2161L224.89 37.5348L234.063 32.2161V9.0625Z" fill="white"/>
<path d="M275.537 17.1718C265.922 11.6459 258.706 7.50143 253.889 4.73847V40.2701C253.369 40.6184 252.829 40.9367 252.273 41.2233C251.568 40.8089 251.029 40.5049 250.656 40.2701V0.95322L252.273 0C261.179 5.15752 267.856 8.99803 272.304 11.5215V0.95322C273.05 0.538776 273.589 0.221037 273.92 0C274.666 0.414443 275.205 0.732183 275.537 0.95322V17.1718ZM275.537 19.6861V40.2701C275.017 40.6184 274.477 40.9367 273.92 41.2233C273.216 40.8089 272.677 40.5049 272.304 40.2701V17.7934L275.537 19.6861Z" fill="white"/>
<path d="M292.127 9.0625V32.2161L301.3 37.4795C306.826 34.3205 310.971 31.9352 313.734 30.3234V34.0673L301.3 41.2233C295.775 38.0643 291.63 35.679 288.867 34.0673V7.15606L301.3 0C306.826 3.20503 310.971 5.59038 313.734 7.15606V9.0625L312.214 10.0157C307.407 7.25276 303.792 5.16212 301.37 3.74381C297.225 6.09232 294.172 7.87443 292.127 9.0625ZM310.529 29.7018V27.7953L305.1 24.6732V22.822L306.785 21.8688C309.879 23.6647 312.2 25.0186 313.775 26.0132V27.8506C312.352 28.6657 311.275 29.2873 310.529 29.7018ZM313.775 40.2701C313.249 40.6162 312.705 40.9344 312.145 41.2233C311.441 40.8089 310.902 40.5049 310.529 40.2701V38.4327L313.775 36.5815V40.2701Z" fill="white"/>
<path d="M226.239 62.7994C227.126 61.493 228.094 59.9321 229.143 58.1167C230.232 56.2952 231.21 54.4101 232.077 52.4616C232.939 50.4737 233.64 48.4905 234.18 46.5119C234.72 44.5334 234.902 42.7112 234.725 41.0454C234.685 41.0515 234.643 41.0379 234.597 41.0046C233.864 40.9568 233.133 41.0499 232.403 41.2838C231.667 41.4784 230.966 41.7683 230.3 42.1537C229.634 42.539 228.974 42.9637 228.32 43.4277C227.667 43.8918 227.052 44.3498 226.477 44.8017C225.321 45.6661 224.071 46.7062 222.727 47.9222C221.383 49.1381 220.051 50.4328 218.732 51.8062C217.407 53.1403 216.146 54.5046 214.951 55.8991C213.795 57.2875 212.807 58.5894 211.988 59.8049L212.047 59.7957C211.826 60.1928 211.561 60.6974 211.253 61.3095C210.978 61.8762 210.729 62.4793 210.505 63.1186C210.281 63.758 210.137 64.3851 210.071 65.0001C210.004 65.6151 210.087 66.1466 210.317 66.5947C210.997 67.3362 212.074 67.9153 213.55 68.3319C215.065 68.7424 216.734 69.1089 218.558 69.4313C220.415 69.7082 222.317 70.0185 224.265 70.3619C226.207 70.6661 227.987 71.096 229.606 71.6519C231.263 72.2016 232.61 72.9607 233.647 73.929C234.717 74.8519 235.27 76.0766 235.304 77.6033C235.329 78.2848 235.184 78.912 234.87 79.4848C234.595 80.0515 234.212 80.5744 233.722 81.0534C233.265 81.487 232.762 81.8873 232.214 82.2544C231.667 82.6214 231.135 82.9657 230.621 83.2873C229.961 83.712 229.225 84.1686 228.414 84.657C227.648 85.1787 226.83 85.6278 225.961 86.0042C225.138 86.4139 224.299 86.7252 223.445 86.9381C222.591 87.1509 221.726 87.1638 220.851 86.9768C219.714 86.6689 218.57 86.1808 217.419 85.5125C216.273 84.8835 215.371 84.1361 214.713 83.2704C214.049 82.3653 213.762 81.422 213.852 80.4405C213.975 79.4135 214.743 78.3875 216.157 77.3623L220.14 80.4346C219.577 80.9652 219.093 81.4837 218.688 81.9899C218.282 82.4962 218.113 82.9658 218.18 83.3989C219.059 83.3436 219.961 83.1837 220.888 82.9193C221.848 82.6094 222.759 82.2466 223.622 81.8308C224.524 81.4089 225.378 80.934 226.183 80.4062C227.028 79.8723 227.81 79.3278 228.531 78.7728C228.643 78.7152 228.855 78.5211 229.166 78.1906C229.517 77.8541 229.865 77.4978 230.21 77.1219C230.549 76.7066 230.812 76.3232 231 75.9716C231.181 75.5807 231.158 75.302 230.931 75.1356C229.777 74.7096 228.471 74.3473 227.013 74.0488C225.589 73.7048 224.208 73.3745 222.869 73.0577C221.405 72.7198 219.877 72.3517 218.283 71.9533C216.729 71.5489 215.159 71.046 213.574 70.4447C212.844 70.1546 212.046 69.8146 211.179 69.4246C210.345 68.9892 209.542 68.4886 208.769 67.9229C207.996 67.3572 207.332 66.7141 206.777 65.9937C206.183 65.2794 205.813 64.4498 205.666 63.5048C205.49 62.363 205.647 61.1694 206.14 59.924C206.627 58.6392 207.203 57.5421 207.868 56.6327C210.636 52.8982 213.72 49.377 217.118 46.0691C220.556 42.755 224.361 39.9889 228.533 37.7707C230.15 37.2784 231.7 37.2603 233.181 37.7163C234.663 38.1723 235.974 38.9571 237.114 40.0708C237.651 40.6731 238.083 41.2512 238.41 41.8053C238.777 42.3532 239.026 42.9194 239.157 43.5039C239.288 44.0884 239.326 44.7275 239.273 45.4212C239.219 46.1149 239.079 46.9026 238.852 47.7843C238.062 51.0111 236.957 54.1654 235.54 57.2474C234.116 60.2899 232.412 63.2147 230.427 66.0215L226.239 62.7994ZM239.511 50.1618C240.416 50.0216 241.227 49.9164 241.941 49.846C242.689 49.7302 243.401 49.6402 244.077 49.5759C244.639 47.9972 245.116 46.6534 245.509 45.5444C245.935 44.3899 246.226 43.5384 246.383 42.99L250.302 45.6489C250.154 45.9944 249.962 46.4474 249.727 47.008C249.524 47.5231 249.317 48.1398 249.106 48.8579C249.185 48.8457 249.283 48.8304 249.401 48.8121C249.513 48.7545 249.628 48.7165 249.746 48.6982L250.817 52.1004C250.193 52.2373 249.648 52.362 249.182 52.4746C248.749 52.5416 248.316 52.6087 247.883 52.6757C247.384 54.4058 246.894 56.3161 246.411 58.4067C245.962 60.4517 245.597 62.524 245.318 64.6234C245.038 66.7229 244.893 68.7813 244.883 70.7987C244.906 72.7706 245.16 74.5455 245.646 76.1232C246.004 75.826 246.394 75.2213 246.817 74.3092C247.28 73.3909 247.744 72.3515 248.209 71.1909C248.714 70.0242 249.19 68.8015 249.637 67.5228C250.123 66.238 250.586 65.0577 251.024 63.982L254.884 66.65C254.688 67.2045 254.443 67.9681 254.15 68.9407C253.851 69.874 253.502 70.8754 253.103 71.9451C252.698 72.9754 252.212 73.9981 251.643 75.0134C251.114 76.0226 250.501 76.8835 249.805 77.596C249.103 78.2691 248.328 78.7318 247.48 78.984C246.632 79.2362 245.684 79.1008 244.636 78.5777C242.896 77.7585 241.703 76.4313 241.056 74.5963C240.403 72.7219 240.096 70.6124 240.137 68.2678C240.171 65.8838 240.452 63.4012 240.979 60.8199C241.546 58.2325 242.191 55.7541 242.913 53.3846L241.968 53.5309L239.511 50.1618ZM249.496 67.9074C250.031 66.4136 250.662 64.7636 251.391 62.9576C252.073 61.1183 252.767 59.2168 253.471 57.2533C252.903 55.9301 252.796 54.7171 253.149 53.6141C253.536 52.4657 254.12 51.5489 254.901 50.8636C255.675 50.1389 256.529 49.664 257.462 49.439C258.434 49.2079 259.213 49.2889 259.798 49.6821C260.377 50.036 260.653 50.7794 260.627 51.9123C260.594 53.0059 260.004 54.5285 258.854 56.4804C259.409 56.6767 259.823 56.8748 260.095 57.0744C260.368 57.2741 260.611 57.5389 260.823 57.8689C261.069 58.1534 261.33 58.5363 261.606 59.0177C261.915 59.4536 262.347 60.0318 262.902 60.7522C263.503 61.5059 263.787 62.4295 263.755 63.523C263.756 64.5711 263.602 65.6632 263.294 66.7994C263.026 67.9296 262.715 69.0461 262.361 70.149C262.002 71.2126 261.762 72.1367 261.641 72.9213C262.513 72.3026 263.253 71.4825 263.861 70.4611C264.508 69.4336 265.071 68.379 265.548 67.2971C266.02 66.1759 266.435 65.0835 266.795 64.02C267.194 62.9503 267.561 62.067 267.896 61.37L271.825 64.0879C271.664 64.3547 271.475 64.8274 271.258 65.5061C271.034 66.1455 270.75 66.9151 270.406 67.8151C270.095 68.6696 269.731 69.5726 269.313 70.5241C268.936 71.4696 268.506 72.3424 268.026 73.1425C267.584 73.9366 267.088 74.6383 266.537 75.2476C265.98 75.8176 265.386 76.2726 264.753 76.6124C264.159 76.9462 263.522 77.1255 262.84 77.1504C262.192 77.1298 261.569 76.8835 260.972 76.4115C260.563 76.112 260.154 75.8125 259.745 75.513C259.375 75.2074 259.005 74.9018 258.635 74.5962C258.168 74.1847 257.877 73.6049 257.761 72.8568C257.679 72.0633 257.685 71.1954 257.781 70.2533C257.917 69.305 258.108 68.328 258.356 67.3221C258.597 66.2768 258.828 65.2936 259.048 64.3726C259.308 63.4454 259.504 62.6289 259.636 61.923C259.769 61.2171 259.772 60.7127 259.644 60.4099C259.305 60.3012 258.946 60.1955 258.567 60.0929C258.182 59.9509 257.803 59.8482 257.431 59.785C257.262 60.2546 257.089 60.7046 256.914 61.1349C256.778 61.5591 256.639 61.9636 256.497 62.3485C256.023 63.712 255.523 65.0393 254.997 66.3302C254.504 67.5756 253.968 68.9286 253.388 70.3892L249.496 67.9074ZM271.632 67.8673C271.493 69.0578 271.429 70.0757 271.439 70.9208C271.488 71.7598 271.568 72.2717 271.677 72.4563C272.198 72.6982 272.757 72.7931 273.354 72.741C273.944 72.6496 274.523 72.4794 275.089 72.2305C275.655 71.9816 276.192 71.6766 276.701 71.3157C277.21 70.9547 277.656 70.5833 278.04 70.2012C278.815 69.4765 279.476 68.6687 280.024 67.7776C280.565 66.8471 281.044 65.9061 281.461 64.9546C281.912 63.9576 282.32 62.947 282.685 61.9228C283.051 60.8986 283.459 59.888 283.909 58.891L287.719 61.6273C287.278 62.9454 286.854 64.2407 286.446 65.5133C286.039 66.786 285.543 68.0117 284.959 69.1906C284.409 70.324 283.723 71.3576 282.9 72.2913C282.116 73.2189 281.125 73.9772 279.926 74.5659C279.081 75.0999 278.225 75.4339 277.359 75.568C276.532 75.696 275.704 75.6831 274.874 75.5294C274.083 75.3696 273.294 75.0886 272.506 74.6865C271.757 74.2783 271.016 73.7882 270.283 73.2164C269.634 72.6718 269.055 72.0559 268.545 71.3688C268.036 70.6817 267.658 69.9338 267.412 69.1253C267.077 68.0078 266.957 66.8372 267.049 65.6134C267.103 64.3956 267.32 63.1928 267.7 62.0051C268.041 60.8234 268.513 59.7022 269.115 58.6414C269.75 57.5352 270.465 56.5576 271.261 55.7087C272.82 54.0564 274.352 53.2749 275.857 53.3644C277.363 53.4539 278.943 54.1566 280.598 55.4728C281.441 56.2292 281.914 57.2042 282.019 58.3976C282.028 59.2427 281.799 60.1047 281.33 60.9836C280.895 61.817 280.444 62.552 279.978 63.1885C278.932 64.7616 277.846 66.0788 276.72 67.14C275.594 68.2013 274.385 69.1142 273.092 69.8787L271.632 67.8673ZM277.637 56.6569C276.728 57.0394 275.943 57.5642 275.28 58.2312C274.657 58.8922 274.111 59.6621 273.642 60.541C273.207 61.3744 272.843 62.2774 272.55 63.25C272.296 64.2165 272.065 65.1997 271.857 66.1995C272.414 65.6295 273.018 64.9716 273.668 64.2259C274.319 63.4801 274.924 62.701 275.484 61.8887C276.076 61.0309 276.568 60.1687 276.958 59.302C277.342 58.3959 277.568 57.5142 277.637 56.6569ZM287.723 65.3762C287.585 66.5668 287.521 67.5846 287.53 68.4297C287.58 69.2687 287.659 69.7806 287.768 69.9653C288.289 70.2071 288.848 70.302 289.445 70.2499C290.036 70.1585 290.614 69.9883 291.18 69.7394C291.746 69.4905 292.284 69.1856 292.792 68.8246C293.301 68.4637 293.747 68.0922 294.132 67.7102C294.906 66.9855 295.568 66.1776 296.115 65.2865C296.656 64.3561 297.136 63.4151 297.553 62.4635C298.003 61.4665 298.411 60.4559 298.777 59.4318C299.142 58.4076 299.55 57.397 300.001 56.4L303.811 59.1362C303.37 60.4543 302.945 61.7497 302.538 63.0223C302.13 64.2949 301.634 65.5206 301.051 66.6995C300.501 67.8329 299.814 68.8665 298.991 69.8002C298.207 70.7279 297.216 71.4861 296.017 72.0749C295.172 72.6088 294.317 72.9428 293.451 73.0769C292.624 73.2049 291.795 73.192 290.965 73.0383C290.174 72.8785 289.385 72.5976 288.597 72.1954C287.849 71.7872 287.107 71.2972 286.374 70.7254C285.725 70.1807 285.146 69.5648 284.636 68.8777C284.127 68.1906 283.749 67.4427 283.503 66.6342C283.169 65.5168 283.048 64.3461 283.141 63.1223C283.194 61.9045 283.411 60.7018 283.792 59.514C284.133 58.3323 284.604 57.2111 285.206 56.1503C285.841 55.0441 286.557 54.0665 287.353 53.2176C288.911 51.5653 290.443 50.7839 291.949 50.8733C293.454 50.9628 295.034 51.6656 296.69 52.9817C297.532 53.7382 298.006 54.7131 298.11 55.9065C298.12 56.7516 297.89 57.6136 297.422 58.4925C296.986 59.3259 296.536 60.0609 296.07 60.6974C295.023 62.2705 293.937 63.5877 292.811 64.649C291.685 65.7102 290.476 66.6231 289.183 67.3877L287.723 65.3762ZM293.728 54.1658C292.82 54.5484 292.034 55.0731 291.372 55.7402C290.748 56.4011 290.202 57.171 289.733 58.0499C289.298 58.8833 288.934 59.7863 288.641 60.7589C288.387 61.7255 288.157 62.7086 287.949 63.7084C288.505 63.1384 289.109 62.4806 289.76 61.7348C290.41 60.989 291.015 60.21 291.575 59.3976C292.168 58.5398 292.659 57.6776 293.049 56.8109C293.433 55.9048 293.659 55.0231 293.728 54.1658ZM299.204 40.9208C300.11 40.7806 300.92 40.6753 301.635 40.605C302.383 40.4891 303.095 40.3991 303.77 40.3349C304.332 38.7562 304.81 37.4123 305.202 36.3033C305.628 35.1488 305.92 34.2973 306.077 33.7489L309.996 36.4078C309.848 36.7533 309.656 37.2063 309.42 37.7669C309.218 38.2821 309.011 38.8987 308.8 39.6168C308.878 39.6046 308.977 39.5894 309.095 39.5711C309.207 39.5134 309.322 39.4754 309.44 39.4572L310.511 42.8594C309.887 42.9963 309.342 43.121 308.876 43.2335C308.443 43.3005 308.009 43.3676 307.576 43.4346C307.078 45.1647 306.588 47.075 306.105 49.1656C305.656 51.2107 305.291 53.2829 305.011 55.3824C304.732 57.4818 304.587 59.5402 304.576 61.5576C304.599 63.5296 304.854 65.3044 305.34 66.8821C305.697 66.5849 306.087 65.9803 306.511 65.0681C306.973 64.1498 307.437 63.1104 307.903 61.9498C308.407 60.7831 308.883 59.5604 309.33 58.2817C309.817 56.9969 310.279 55.8166 310.718 54.7409L314.578 57.409C314.381 57.9635 314.137 58.727 313.844 59.6997C313.545 60.6329 313.196 61.6344 312.797 62.704C312.392 63.7343 311.905 64.7571 311.337 65.7724C310.808 66.7816 310.195 67.6424 309.499 68.3549C308.797 69.028 308.022 69.4907 307.174 69.7429C306.326 69.9951 305.378 69.8597 304.329 69.3367C302.59 68.5174 301.397 67.1903 300.75 65.3552C300.097 63.4808 299.79 61.3713 299.83 59.0267C299.864 56.6428 300.145 54.1602 300.673 51.5788C301.24 48.9914 301.884 46.513 302.606 44.1436L301.661 44.2899L299.204 40.9208Z" fill="#133E68"/>
</svg>
