<svg width="350" height="160" viewBox="0 0 350 160" fill="none" xmlns="http://www.w3.org/2000/svg">
<path d="M29.4333 54.7486C23.9074 51.5435 19.763 49.1582 17 47.5925V26.9532L18.6163 26L20.2465 26.9532V45.6861C24.3909 48.0346 27.4025 49.8305 29.4195 51.0048L41.8528 43.7934V66.2701C41.3284 66.6192 40.7841 66.9374 40.2226 67.2233C39.5181 66.8089 38.9793 66.5049 38.6063 66.2701V49.4851L29.4333 54.7486ZM20.2465 66.2701C19.722 66.6192 19.1777 66.9374 18.6163 67.2233C17.9118 66.8089 17.373 66.5049 17 66.2701V50.0515L20.2465 51.958V66.2701ZM38.6478 26.9532C39.3938 26.5388 39.9325 26.221 40.2641 26C41.0101 26.4144 41.5627 26.7322 41.8942 26.9532V41.3206C40.5128 42.1495 39.3938 42.7021 38.6478 43.1718V26.9532Z" fill="white"/>
<path d="M80.1197 60.0673C77.3567 61.6698 73.2123 64.0551 67.6864 67.2233C64.9234 65.6208 60.779 63.2354 55.2531 60.0673V33.1561C58.016 31.5996 62.1604 29.2142 67.6864 26L80.1197 33.1561V60.0673ZM76.8732 35.0625C74.8562 33.8744 71.8032 32.0923 67.7002 29.7438C65.6556 30.9457 62.5887 32.714 58.5272 35.0625V58.2161L67.7002 63.5348L76.8732 58.2161V35.0625Z" fill="white"/>
<path d="M118.345 43.1718C108.73 37.6459 101.514 33.5014 96.6973 30.7385V66.2701C96.1771 66.6184 95.6375 66.9367 95.081 67.2233C94.3764 66.8089 93.8238 66.5049 93.4508 66.2701V26.9532L95.081 26C103.987 31.1575 110.655 34.998 115.085 37.5215V26.9532C115.831 26.5388 116.383 26.221 116.715 26C117.461 26.4144 118 26.7322 118.331 26.9532L118.345 43.1718ZM118.345 45.6861V66.2701C117.825 66.6184 117.285 66.9367 116.729 67.2233C116.024 66.8089 115.472 66.5049 115.099 66.2701V43.7934L118.345 45.6861Z" fill="white"/>
<path d="M134.923 35.0625V58.2161L144.096 63.4795C149.622 60.3205 153.766 57.9352 156.529 56.3234V60.0673L144.096 67.2233C138.57 64.0643 134.426 61.679 131.663 60.0673V33.1561L144.096 26C149.622 29.205 153.766 31.5904 156.529 33.1561V35.0625L154.899 36.0157C150.092 33.2528 146.477 31.1621 144.055 29.7438L134.923 35.0625ZM153.338 55.7018V53.7953L147.909 50.6732V48.822L149.622 47.8688C152.716 49.6647 155.051 51.0186 156.626 52.0132V53.8506C155.148 54.6657 154.084 55.2873 153.338 55.7018ZM156.529 66.2701C156.003 66.6162 155.459 66.9344 154.899 67.2233C154.195 66.8089 153.656 66.5049 153.283 66.2701V64.4327L156.529 62.5815V66.2701Z" fill="white"/>
<path d="M212.783 33.1561V26.9532C213.529 26.5388 214.068 26.221 214.413 26C215.159 26.4144 215.698 26.7322 216.029 26.9532V35.0625L198.181 45.3407L191.135 41.3068V26.9532L192.765 26L194.381 26.9532V39.3865L198.181 41.5693C204.673 37.8669 209.541 35.0625 212.783 33.1561ZM194.381 45.6861V66.2701C193.859 66.6154 193.32 66.9336 192.765 67.2233C192.047 66.8089 191.508 66.5049 191.135 66.2701V43.7934L194.381 45.6861ZM212.783 66.2701C213.529 66.726 214.068 67.0437 214.413 67.2233C215.159 66.8089 215.698 66.5049 216.029 66.2701V45.6861C212.935 43.8625 210.6 42.4949 209.039 41.6107C207.657 42.4672 206.483 43.1027 205.737 43.5033C208.869 45.3453 211.217 46.7268 212.783 47.6478V66.2701Z" fill="white"/>
<path d="M254.31 60.0673C251.547 61.6698 247.403 64.0551 241.877 67.2233C239.114 65.6208 234.969 63.2354 229.443 60.0673V33.1561C232.206 31.5996 236.351 29.2142 241.877 26L254.31 33.1561V60.0673ZM251.063 35.0625C249.06 33.8744 245.993 32.0923 241.89 29.7438C239.846 30.9457 236.779 32.714 232.717 35.0625V58.2161L241.89 63.5348L251.063 58.2161V35.0625Z" fill="white"/>
<path d="M292.536 43.1718C282.921 37.6459 275.705 33.5014 270.888 30.7385V66.2701C270.368 66.6184 269.828 66.9367 269.272 67.2233C268.567 66.8089 268.028 66.5049 267.655 66.2701V26.9532L269.272 26C278.178 31.1575 284.855 34.998 289.303 37.5215V26.9532C290.049 26.5388 290.588 26.221 290.919 26C291.665 26.4144 292.204 26.7322 292.536 26.9532V43.1718ZM292.536 45.6861V66.2701C292.016 66.6184 291.476 66.9367 290.919 67.2233C290.215 66.8089 289.676 66.5049 289.303 66.2701V43.7934L292.536 45.6861Z" fill="white"/>
<path d="M309.127 35.0625V58.2161L318.3 63.4795C323.826 60.3205 327.971 57.9352 330.734 56.3234V60.0673L318.3 67.2233C312.775 64.0643 308.63 61.679 305.867 60.0673V33.1561L318.3 26C323.826 29.205 327.971 31.5904 330.734 33.1561V35.0625L329.214 36.0157C324.407 33.2528 320.792 31.1621 318.37 29.7438C314.225 32.0923 311.172 33.8744 309.127 35.0625ZM327.529 55.7018V53.7953L322.1 50.6732V48.822L323.785 47.8688C326.879 49.6647 329.2 51.0186 330.775 52.0132V53.8506C329.352 54.6657 328.275 55.2873 327.529 55.7018ZM330.775 66.2701C330.249 66.6162 329.705 66.9344 329.145 67.2233C328.441 66.8089 327.902 66.5049 327.529 66.2701V64.4327L330.775 62.5815V66.2701Z" fill="white"/>
<path d="M243.24 101.799C244.126 100.493 245.094 98.932 246.143 97.1166C247.232 95.2951 248.21 93.4101 249.078 91.4615C249.939 89.4736 250.64 87.4904 251.18 85.5119C251.721 83.5333 251.902 81.7112 251.725 80.0453C251.686 80.0514 251.643 80.0378 251.598 80.0045C250.865 79.9568 250.133 80.0498 249.404 80.2838C248.668 80.4783 247.967 80.7683 247.301 81.1536C246.635 81.5389 245.975 81.9636 245.321 82.4277C244.667 82.8917 244.052 83.3497 243.477 83.8016C242.321 84.666 241.071 85.7061 239.727 86.9221C238.383 88.138 237.052 89.4327 235.732 90.8061C234.407 92.1402 233.147 93.5045 231.951 94.899C230.796 96.2874 229.808 97.5894 228.988 98.8048L229.047 98.7957C228.826 99.1927 228.562 99.6973 228.253 100.309C227.978 100.876 227.729 101.479 227.505 102.119C227.282 102.758 227.137 103.385 227.071 104C227.005 104.615 227.087 105.147 227.318 105.595C227.997 106.336 229.074 106.915 230.55 107.332C232.065 107.742 233.734 108.109 235.558 108.431C237.415 108.708 239.318 109.018 241.266 109.362C243.208 109.666 244.988 110.096 246.606 110.652C248.263 111.202 249.61 111.961 250.647 112.929C251.718 113.852 252.27 115.077 252.305 116.603C252.33 117.285 252.185 117.912 251.87 118.485C251.595 119.051 251.212 119.574 250.722 120.053C250.265 120.487 249.763 120.887 249.215 121.254C248.667 121.621 248.136 121.966 247.621 122.287C246.961 122.712 246.225 123.168 245.414 123.657C244.648 124.179 243.831 124.628 242.962 125.004C242.138 125.414 241.299 125.725 240.445 125.938C239.591 126.151 238.727 126.164 237.851 125.977C236.715 125.669 235.571 125.181 234.419 124.512C233.274 123.883 232.372 123.136 231.714 122.27C231.049 121.365 230.762 120.422 230.852 119.44C230.975 118.413 231.744 117.387 233.157 116.362L237.141 119.435C236.578 119.965 236.093 120.484 235.688 120.99C235.283 121.496 235.113 121.966 235.18 122.399C236.059 122.344 236.961 122.184 237.888 121.919C238.848 121.609 239.759 121.247 240.622 120.831C241.525 120.409 242.378 119.934 243.184 119.406C244.028 118.872 244.811 118.328 245.531 117.773C245.643 117.715 245.855 117.521 246.167 117.191C246.518 116.854 246.866 116.498 247.211 116.122C247.55 115.707 247.813 115.323 248 114.972C248.182 114.581 248.159 114.302 247.931 114.136C246.777 113.71 245.471 113.347 244.014 113.049C242.59 112.705 241.208 112.374 239.869 112.058C238.406 111.72 236.877 111.352 235.283 110.953C233.729 110.549 232.159 110.046 230.575 109.445C229.844 109.155 229.046 108.814 228.179 108.425C227.346 107.989 226.543 107.489 225.77 106.923C224.997 106.357 224.333 105.714 223.778 104.994C223.183 104.279 222.813 103.45 222.667 102.505C222.49 101.363 222.648 100.169 223.14 98.9239C223.627 97.6391 224.203 96.542 224.868 95.6326C227.637 91.8982 230.72 88.3769 234.119 85.069C237.557 81.7549 241.362 78.9888 245.534 76.7706C247.151 76.2783 248.7 76.2602 250.182 76.7162C251.663 77.1722 252.974 77.9571 254.114 79.0707C254.651 79.673 255.083 80.2512 255.411 80.8052C255.778 81.3531 256.027 81.9193 256.158 82.5038C256.288 83.0883 256.327 83.7274 256.273 84.4211C256.219 85.1149 256.079 85.9026 255.853 86.7842C255.062 90.011 253.958 93.1654 252.54 96.2473C251.116 99.2899 249.412 102.215 247.428 105.021L243.24 101.799ZM256.511 89.1617C257.417 89.0216 258.227 88.9163 258.942 88.846C259.69 88.7301 260.402 88.6401 261.077 88.5759C261.639 86.9972 262.116 85.6533 262.509 84.5443C262.935 83.3898 263.227 82.5383 263.384 81.9899L267.303 84.6488C267.155 84.9943 266.963 85.4473 266.727 86.0079C266.524 86.5231 266.318 87.1397 266.106 87.8578C266.185 87.8456 266.283 87.8304 266.402 87.8121C266.514 87.7544 266.629 87.7164 266.747 87.6982L267.818 91.1004C267.194 91.2373 266.649 91.362 266.182 91.4745C265.749 91.5415 265.316 91.6086 264.883 91.6756C264.385 93.4057 263.894 95.316 263.412 97.4066C262.962 99.4517 262.598 101.524 262.318 103.623C262.038 105.723 261.893 107.781 261.883 109.799C261.906 111.771 262.161 113.545 262.647 115.123C263.004 114.826 263.394 114.221 263.817 113.309C264.28 112.391 264.744 111.351 265.209 110.191C265.714 109.024 266.19 107.801 266.637 106.523C267.124 105.238 267.586 104.058 268.024 102.982L271.884 105.65C271.688 106.204 271.443 106.968 271.15 107.941C270.851 108.874 270.502 109.875 270.104 110.945C269.699 111.975 269.212 112.998 268.643 114.013C268.114 115.023 267.502 115.883 266.806 116.596C266.104 117.269 265.329 117.732 264.481 117.984C263.633 118.236 262.684 118.101 261.636 117.578C259.896 116.758 258.703 115.431 258.056 113.596C257.403 111.722 257.097 109.612 257.137 107.268C257.171 104.884 257.452 102.401 257.98 99.8198C258.547 97.2324 259.191 94.754 259.913 92.3846L258.968 92.5308L256.511 89.1617ZM266.496 106.907C267.031 105.414 267.663 103.764 268.391 101.958C269.074 100.118 269.767 98.2168 270.471 96.2532C269.904 94.93 269.796 93.717 270.15 92.6141C270.536 91.4657 271.12 90.5488 271.901 89.8635C272.676 89.1388 273.53 88.6639 274.462 88.4389C275.434 88.2078 276.213 88.2888 276.798 88.6821C277.377 89.0359 277.653 89.7793 277.627 90.9122C277.595 92.0058 277.004 93.5285 275.855 95.4803C276.409 95.6767 276.823 95.8747 277.096 96.0744C277.369 96.274 277.611 96.5388 277.823 96.8688C278.069 97.1533 278.33 97.5363 278.606 98.0176C278.915 98.4535 279.348 99.0317 279.903 99.7521C280.503 100.506 280.787 101.429 280.755 102.523C280.756 103.571 280.602 104.663 280.295 105.799C280.026 106.929 279.715 108.046 279.362 109.149C279.002 110.212 278.762 111.137 278.642 111.921C279.514 111.302 280.253 110.482 280.861 109.461C281.509 108.434 282.071 107.379 282.549 106.297C283.02 105.176 283.436 104.083 283.795 103.02C284.194 101.95 284.561 101.067 284.897 100.37L288.825 103.088C288.665 103.355 288.476 103.827 288.258 104.506C288.035 105.145 287.751 105.915 287.406 106.815C287.095 107.67 286.731 108.573 286.314 109.524C285.936 110.47 285.507 111.342 285.026 112.142C284.584 112.936 284.088 113.638 283.538 114.248C282.981 114.818 282.386 115.272 281.753 115.612C281.16 115.946 280.522 116.125 279.841 116.15C279.193 116.13 278.57 115.883 277.973 115.411C277.563 115.112 277.154 114.812 276.745 114.513C276.375 114.207 276.005 113.902 275.635 113.596C275.169 113.185 274.877 112.605 274.761 111.857C274.679 111.063 274.686 110.195 274.782 109.253C274.917 108.305 275.109 107.328 275.356 106.322C275.597 105.277 275.828 104.294 276.048 103.372C276.308 102.445 276.504 101.629 276.637 100.923C276.769 100.217 276.772 99.7126 276.644 99.4098C276.305 99.3011 275.946 99.1954 275.567 99.0928C275.183 98.9508 274.804 98.8482 274.431 98.7849C274.262 99.2546 274.09 99.7046 273.914 100.135C273.779 100.559 273.64 100.964 273.498 101.348C273.023 102.712 272.523 104.039 271.997 105.33C271.505 106.576 270.968 107.929 270.388 109.389L266.496 106.907ZM288.632 106.867C288.494 108.058 288.43 109.076 288.439 109.921C288.489 110.76 288.568 111.272 288.677 111.456C289.198 111.698 289.757 111.793 290.354 111.741C290.945 111.65 291.523 111.479 292.089 111.23C292.655 110.981 293.193 110.677 293.701 110.316C294.21 109.955 294.656 109.583 295.041 109.201C295.815 108.476 296.477 107.669 297.024 106.778C297.565 105.847 298.045 104.906 298.462 103.955C298.912 102.958 299.32 101.947 299.686 100.923C300.051 99.8986 300.459 98.888 300.91 97.891L304.72 100.627C304.279 101.945 303.854 103.241 303.447 104.513C303.039 105.786 302.543 107.012 301.96 108.19C301.41 109.324 300.723 110.357 299.9 111.291C299.116 112.219 298.125 112.977 296.926 113.566C296.081 114.1 295.226 114.434 294.36 114.568C293.533 114.696 292.704 114.683 291.874 114.529C291.083 114.37 290.294 114.089 289.506 113.686C288.758 113.278 288.017 112.788 287.283 112.216C286.634 111.672 286.055 111.056 285.546 110.369C285.036 109.682 284.658 108.934 284.412 108.125C284.078 107.008 283.957 105.837 284.05 104.613C284.103 103.396 284.32 102.193 284.701 101.005C285.042 99.8233 285.513 98.7021 286.115 97.6413C286.75 96.5351 287.466 95.5575 288.262 94.7086C289.82 93.0563 291.352 92.2749 292.858 92.3643C294.363 92.4538 295.943 93.1566 297.599 94.4727C298.441 95.2292 298.915 96.2041 299.019 97.3975C299.029 98.2426 298.799 99.1046 298.331 99.9835C297.895 100.817 297.445 101.552 296.979 102.188C295.932 103.762 294.846 105.079 293.72 106.14C292.594 107.201 291.385 108.114 290.092 108.879L288.632 106.867ZM294.637 95.6568C293.729 96.0393 292.943 96.5641 292.281 97.2311C291.657 97.8921 291.111 98.662 290.642 99.5409C290.207 100.374 289.843 101.277 289.55 102.25C289.296 103.216 289.066 104.2 288.858 105.199C289.414 104.629 290.018 103.972 290.669 103.226C291.319 102.48 291.924 101.701 292.484 100.889C293.077 100.031 293.568 99.1686 293.958 98.3019C294.342 97.3958 294.568 96.5141 294.637 95.6568ZM304.723 104.376C304.585 105.567 304.521 106.585 304.531 107.43C304.58 108.269 304.659 108.781 304.768 108.965C305.29 109.207 305.849 109.302 306.445 109.25C307.036 109.158 307.614 108.988 308.181 108.739C308.747 108.49 309.284 108.185 309.793 107.825C310.301 107.464 310.748 107.092 311.132 106.71C311.907 105.985 312.568 105.178 313.115 104.286C313.657 103.356 314.136 102.415 314.553 101.463C315.003 100.466 315.411 99.4559 315.777 98.4317C316.143 97.4075 316.551 96.3969 317.001 95.3999L320.811 98.1362C320.37 99.4542 319.946 100.75 319.538 102.022C319.13 103.295 318.635 104.521 318.051 105.699C317.501 106.833 316.814 107.866 315.991 108.8C315.208 109.728 314.216 110.486 313.017 111.075C312.173 111.609 311.317 111.943 310.451 112.077C309.624 112.205 308.796 112.192 307.966 112.038C307.175 111.878 306.385 111.597 305.598 111.195C304.849 110.787 304.108 110.297 303.374 109.725C302.726 109.181 302.146 108.565 301.637 107.878C301.127 107.191 300.749 106.443 300.503 105.634C300.169 104.517 300.048 103.346 300.141 102.122C300.195 100.904 300.411 99.7017 300.792 98.5139C301.133 97.3322 301.605 96.211 302.206 95.1503C302.842 94.044 303.557 93.0665 304.353 92.2176C305.911 90.5652 307.443 89.7838 308.949 89.8733C310.454 89.9627 312.035 90.6655 313.69 91.9816C314.533 92.7381 315.006 93.713 315.11 94.9064C315.12 95.7515 314.891 96.6135 314.422 97.4924C313.987 98.3258 313.536 99.0608 313.07 99.6974C312.024 101.27 310.937 102.588 309.812 103.649C308.686 104.71 307.476 105.623 306.184 106.388L304.723 104.376ZM310.729 93.1658C309.82 93.5483 309.035 94.073 308.372 94.7401C307.748 95.401 307.202 96.1709 306.734 97.0498C306.298 97.8832 305.934 98.7862 305.641 99.7589C305.388 100.725 305.157 101.709 304.949 102.708C305.506 102.138 306.109 101.48 306.76 100.735C307.411 99.9889 308.016 99.2099 308.575 98.3975C309.168 97.5398 309.66 96.6775 310.05 95.8108C310.433 94.9047 310.66 94.0231 310.729 93.1658ZM316.205 79.9207C317.11 79.7805 317.921 79.6752 318.635 79.6049C319.384 79.4891 320.095 79.399 320.771 79.3348C321.333 77.7561 321.81 76.4122 322.203 75.3032C322.629 74.1487 322.92 73.2973 323.077 72.7488L326.996 75.4078C326.848 75.7532 326.656 76.2062 326.421 76.7669C326.218 77.282 326.011 77.8986 325.8 78.6167C325.879 78.6045 325.977 78.5893 326.095 78.571C326.207 78.5133 326.322 78.4754 326.44 78.4571L327.511 81.8593C326.887 81.9962 326.342 82.1209 325.876 82.2334C325.443 82.3005 325.01 82.3675 324.577 82.4346C324.078 84.1646 323.588 86.075 323.105 88.1655C322.656 90.2106 322.291 92.2829 322.012 94.3823C321.732 96.4817 321.587 98.5402 321.577 100.558C321.6 102.53 321.854 104.304 322.34 105.882C322.698 105.585 323.088 104.98 323.511 104.068C323.974 103.15 324.438 102.11 324.903 100.95C325.408 99.7831 325.884 98.5604 326.331 97.2817C326.817 95.9968 327.28 94.8166 327.718 93.7408L331.578 96.4089C331.382 96.9634 331.137 97.727 330.844 98.6996C330.545 99.6328 330.196 100.634 329.797 101.704C329.392 102.734 328.906 103.757 328.337 104.772C327.808 105.781 327.195 106.642 326.499 107.355C325.797 108.028 325.022 108.491 324.174 108.743C323.326 108.995 322.378 108.86 321.33 108.337C319.59 107.517 318.397 106.19 317.75 104.355C317.097 102.481 316.791 100.371 316.831 98.0267C316.865 95.6427 317.146 93.1601 317.673 90.5788C318.24 87.9914 318.885 85.5129 319.607 83.1435L318.662 83.2898L316.205 79.9207Z" fill="#133E68"/>
</svg>
