<svg width="117" height="117" viewBox="0 0 117 117" fill="none" xmlns="http://www.w3.org/2000/svg">
<path d="M0 58.4999C0 83.6526 15.8755 105.095 38.1519 113.361L43.2392 58.4997L38.1519 3.63855C15.8755 11.9044 0 33.347 0 58.4999Z" fill="#6DA544"/>
<path d="M117 58.5C117 26.1915 90.8084 0 58.4998 0C51.3441 0 44.4893 1.28723 38.1516 3.63865V113.361C44.4893 115.713 51.3441 117 58.4998 117C90.8084 117 117 90.8085 117 58.5Z" fill="#D80027"/>
<path d="M38.1525 78.8476C49.3902 78.8476 58.5002 69.7377 58.5002 58.4999C58.5002 47.2622 49.3902 38.1522 38.1525 38.1522C26.9147 38.1522 17.8047 47.2622 17.8047 58.4999C17.8047 69.7377 26.9147 78.8476 38.1525 78.8476Z" fill="#FFDA44"/>
<path d="M26.7063 48.326V61.0434C26.7063 67.3646 31.8305 72.4891 38.152 72.4891C44.4734 72.4891 49.5977 67.3648 49.5977 61.0434V48.326H26.7063Z" fill="#D80027"/>
<path d="M38.152 64.8587C36.0483 64.8587 34.3367 63.1472 34.3367 61.0434V55.9567H41.9671V61.0437C41.9671 63.1472 40.2555 64.8587 38.152 64.8587Z" fill="#F0F0F0"/>
</svg>
