<svg width="117" height="117" viewBox="0 0 117 117" fill="none" xmlns="http://www.w3.org/2000/svg">
<path d="M21.7613 104.012H95.2397C95.2489 104.005 95.2563 103.999 95.2647 103.993H21.7371C21.7445 104 21.7539 104.006 21.7613 104.012Z" fill="#3757A6"/>
<path d="M78.7647 25.9298H107.1C103.795 21.0102 99.7593 16.6264 95.1527 12.9186H74.1257C75.9825 16.6718 77.527 21.0806 78.7647 25.9298Z" fill="#EFECEC"/>
<path d="M82.3368 51.9503H116.627C116.124 47.438 115.107 43.0811 113.64 38.9391H81.2275C81.7845 43.1577 82.1538 47.5286 82.3368 51.9503Z" fill="#EFECEC"/>
<path d="M81.2395 77.9722H113.667C115.13 73.8285 116.141 69.4733 116.637 64.9611H82.3406C82.1596 69.3829 81.7938 73.7529 81.2395 77.9722Z" fill="#EFECEC"/>
<path d="M74.1675 103.993H95.2646C99.849 100.283 103.865 95.8973 107.153 90.9834H78.786C77.5537 95.8291 76.0168 100.237 74.1675 103.993Z" fill="#EFECEC"/>
<path d="M72.2753 12.9189H95.1533C85.1237 4.84387 72.3815 0.00012207 58.5012 0.00012207H58.4994C58.4384 0.00012207 58.3784 0.00382713 58.3174 0.00382713C64.9559 0.0398897 68.3736 5.02591 72.2753 12.9189Z" fill="#3757A6"/>
<path d="M79.6645 38.939H113.639C111.995 34.3057 109.792 29.9404 107.099 25.9298H77.2021C78.2413 30.0014 79.0623 34.3788 79.6645 38.939Z" fill="#3757A6"/>
<path d="M116.627 51.9502H80.5884C80.7684 56.273 80.7704 60.6383 80.5921 64.9614H116.637C116.87 62.8379 117 60.6857 117 58.501C117 56.2861 116.867 54.1023 116.627 51.9502Z" fill="#3757A6"/>
<path d="M76.9043 90.9835H107.153C109.838 86.9692 112.033 82.6039 113.668 77.9723H79.3578C78.7573 82.5317 77.938 86.9101 76.9043 90.9835Z" fill="#3757A6"/>
<path d="M58.3171 116.996C58.3781 116.996 58.4382 117 58.4992 117C72.4191 117 85.1956 112.129 95.239 104.012H72.4304C68.5248 111.943 64.9741 116.96 58.3171 116.996Z" fill="#3757A6"/>
<path d="M74.1263 12.9187C70.2236 5.02574 64.956 0.0397247 58.3173 0.00366211C44.509 0.0471348 31.835 4.87803 21.8501 12.9187H74.1263Z" fill="#4166AF"/>
<path d="M74.1261 12.9188H21.8489C17.2433 16.6264 13.2078 21.0102 9.90186 25.9297H78.7638C77.5271 21.0806 75.9826 16.6718 74.1261 12.9188Z" fill="#EFEFEF"/>
<path d="M78.7649 25.9298H9.90295C7.20938 29.9404 5.0066 34.3057 3.36328 38.939H81.2275C80.6244 34.3788 79.8021 30.0014 78.7649 25.9298Z" fill="#4166AF"/>
<path d="M3.36324 38.939C1.89456 43.081 0.879371 47.4379 0.375977 51.9501H82.3368C82.1548 47.5285 81.7845 43.1566 81.2275 38.939H3.36324Z" fill="#EFEFEF"/>
<path d="M0 58.4993V58.501C0 60.6855 0.130171 62.8376 0.364825 64.9614H82.3405C82.5188 60.6386 82.5168 56.2733 82.3368 51.9502H0.374952C0.135852 54.1023 0 56.2861 0 58.4993Z" fill="#4166AF"/>
<path d="M3.33349 77.9722H81.2393C81.7935 73.7529 82.1594 69.3829 82.3394 64.9611H0.364746C0.859001 69.4736 1.87048 73.8287 3.33349 77.9722Z" fill="#EFEFEF"/>
<path d="M9.84822 90.9835H78.786C79.8197 86.9101 80.639 82.5317 81.2393 77.9723H3.3335C4.96841 82.6039 7.1623 86.9692 9.84822 90.9835Z" fill="#4166AF"/>
<path d="M9.84814 90.9834C13.1355 95.8975 17.1508 100.283 21.7369 103.993H74.1675C76.0168 100.237 77.5536 95.8291 78.7859 90.9834H9.84814Z" fill="#EFEFEF"/>
<path d="M58.3173 116.996C64.9743 116.96 70.2533 111.943 74.1587 104.012H21.7615C31.7612 112.093 44.4693 116.953 58.3173 116.996Z" fill="#4166AF"/>
<path d="M58.4992 0C26.193 0 0.00172903 26.1903 0 58.4991L0.364825 64.9613H58.5009L58.4992 0Z" fill="#3757A6"/>
<path d="M24.4456 10.9496C18.7354 15.0471 13.7871 20.1374 9.8689 25.9825H24.4456V10.9496Z" fill="#3757A6"/>
<path d="M3.37704 38.8958C1.19797 45.0261 0 51.6224 0 58.4992L0.364825 64.9613H24.4455V38.8958H3.37704Z" fill="#3757A6"/>
<path d="M58.5009 25.9823L58.4992 0C51.0432 0 43.9168 1.41039 37.3586 3.95428V25.9823H58.5009Z" fill="#3757A6"/>
<path d="M58.5004 38.8933H37.3594V64.9596H58.5004V38.8933Z" fill="#3757A6"/>
<path d="M37.3585 25.9824V3.95435C32.74 5.74537 28.4088 8.10352 24.4454 10.9485V25.9816H9.8687C7.20007 29.9666 5.01186 34.2985 3.37793 38.8948H24.4464V64.9603V65.4222H37.3595V64.9603V38.8957H58.5018V25.9824H37.3585Z" fill="#EFEFEF"/>
</svg>
