<svg width="117" height="117" viewBox="0 0 117 117" fill="none" xmlns="http://www.w3.org/2000/svg">
<path d="M58.5 117C90.8087 117 117 90.8087 117 58.5C117 26.1913 90.8087 0 58.5 0C26.1913 0 0 26.1913 0 58.5C0 90.8087 26.1913 117 58.5 117Z" fill="#D80027"/>
<path d="M64.539 44.2561C63.2095 49.7859 60.8474 48.7313 59.6881 53.5539C52.8594 51.912 48.6538 45.0451 50.2957 38.216C51.9369 31.3872 58.8044 27.1816 65.6334 28.8235C63.3147 38.4685 65.7285 39.3103 64.539 44.2561Z" fill="#F0F0F0"/>
<path d="M46.8193 48.3539C51.6677 51.3269 49.9346 53.248 54.1626 55.841C50.4908 61.8283 42.6607 63.7056 36.6732 60.034C30.6858 56.3624 28.8081 48.5319 32.4799 42.5446C40.9364 47.73 42.4823 45.6946 46.8193 48.3539Z" fill="#F0F0F0"/>
<path d="M45.2407 66.4733C49.5667 62.7809 50.8576 65.0226 54.6301 61.8029C59.1902 67.1449 58.5558 75.1722 53.214 79.7322C47.8718 84.2922 39.8445 83.6572 35.2852 78.3156C42.8294 71.8754 41.3712 69.7755 45.2407 66.4733Z" fill="#F0F0F0"/>
<path d="M61.9847 73.5739C59.8093 68.3188 62.3403 67.7831 60.4438 63.2007C66.9335 60.515 74.3721 63.5985 77.0581 70.0882C79.7438 76.5778 76.6598 84.0162 70.1702 86.7022C66.3775 77.5366 63.9303 78.2745 61.9847 73.5739Z" fill="#F0F0F0"/>
<path d="M73.9132 59.8427C68.2431 60.2876 68.5152 57.7145 63.5713 58.1026C63.0222 51.1011 68.2538 44.9789 75.2558 44.4293C82.2575 43.8811 88.3794 49.1123 88.9283 56.1145C79.0388 56.8898 78.9842 59.4453 73.9132 59.8427Z" fill="#F0F0F0"/>
</svg>
