<svg width="118" height="118" viewBox="0 0 118 118" fill="none" xmlns="http://www.w3.org/2000/svg">
<path d="M58.5043 117.002C90.8115 117.002 117.002 90.8115 117.002 58.5042C117.002 26.197 90.8115 0.00671387 58.5043 0.00671387C26.197 0.00671387 0.00683594 26.197 0.00683594 58.5042C0.00683594 90.8115 26.197 117.002 58.5043 117.002Z" fill="white"/>
<path d="M113.656 38.996H77.6128C79.1776 51.4926 79.1877 65.262 77.6424 77.7741H113.733C115.839 71.7369 116.998 65.2555 116.998 58.5005C116.999 51.6588 115.813 45.0969 113.656 38.996Z" fill="#EFECEC"/>
<path d="M77.6127 38.9959H113.656C113.649 38.9773 113.644 38.9618 113.637 38.945C106.15 17.8344 86.8918 2.30269 63.7524 0.240967C72.707 5.14939 75.3218 20.7007 77.6127 38.9959Z" fill="#E63026"/>
<path d="M63.7534 116.758C86.9341 114.693 106.22 99.1074 113.677 77.9403C113.697 77.884 113.714 77.8286 113.734 77.774H77.6418C75.3709 96.1683 72.7445 111.829 63.7534 116.758Z" fill="#2B479D"/>
<path d="M0 58.5005C0 65.2555 1.15918 71.7369 3.26512 77.7741H80.654C82.1993 65.261 82.1891 51.4926 80.6244 38.996H3.34268C1.18487 45.0969 0 51.6588 0 58.5005Z" fill="#EFEFEF"/>
<path d="M3.36008 38.9453C3.35366 38.9619 3.34797 38.9777 3.34155 38.9962H80.6242C78.3335 20.7008 72.7064 5.14975 63.7533 0.241321C62.0215 0.0876858 60.2701 0 58.4986 0C33.0504 0 11.4076 16.254 3.36008 38.9453Z" fill="#E73B36"/>
<path d="M80.6543 77.774H3.26538C3.28489 77.8286 3.30243 77.884 3.3217 77.9403C11.3374 100.69 33.0086 117 58.4987 117C60.2704 117 62.0217 116.913 63.7534 116.758C72.7445 111.829 78.3828 96.1683 80.6543 77.774Z" fill="#3757A6"/>
</svg>
