<svg width="117" height="117" viewBox="0 0 117 117" fill="none" xmlns="http://www.w3.org/2000/svg">
<path d="M58.5 117C90.8087 117 117 90.8087 117 58.5C117 26.1913 90.8087 0 58.5 0C26.1913 0 0 26.1913 0 58.5C0 90.8087 26.1913 117 58.5 117Z" fill="#F0F0F0"/>
<path d="M55.9563 58.5H117C117 53.2199 116.296 48.1048 114.984 43.239H55.9563V58.5Z" fill="#D80027"/>
<path d="M55.9563 27.9784H108.413C104.832 22.1348 100.254 16.9696 94.915 12.7174H55.9563V27.9784Z" fill="#D80027"/>
<path d="M58.4996 117C72.2674 117 84.9219 112.241 94.9149 104.283H22.0842C32.0772 112.241 44.7317 117 58.4996 117Z" fill="#D80027"/>
<path d="M8.58586 89.0217H108.413C111.288 84.3305 113.518 79.2026 114.984 73.7607H2.01489C3.48128 79.2026 5.7109 84.3305 8.58586 89.0217Z" fill="#D80027"/>
<path d="M27.0983 9.1356H32.4293L27.4705 12.7381L29.3647 18.5674L24.4062 14.9648L19.4476 18.5674L21.0838 13.5316C16.7177 17.1684 12.891 21.4293 9.73751 26.1769H11.4457L8.28918 28.4701C7.79741 29.2904 7.32575 30.1238 6.87375 30.9696L8.38104 35.6087L5.56893 33.5655C4.8699 35.0465 4.23051 36.5609 3.65579 38.1068L5.31642 43.2182H11.4457L6.48687 46.8208L8.38104 52.65L3.42248 49.0475L0.452232 51.2056C0.154934 53.5954 0 56.0295 0 58.5H58.5C58.5 26.1915 58.5 22.3826 58.5 0C46.9435 0 36.1706 3.35232 27.0983 9.1356ZM29.3647 52.65L24.4062 49.0475L19.4476 52.65L21.3418 46.8208L16.383 43.2182H22.5122L24.4062 37.389L26.3001 43.2182H32.4293L27.4705 46.8208L29.3647 52.65ZM27.4705 29.7795L29.3647 35.6087L24.4062 32.0061L19.4476 35.6087L21.3418 29.7795L16.383 26.1769H22.5122L24.4062 20.3477L26.3001 26.1769H32.4293L27.4705 29.7795ZM50.3484 52.65L45.3898 49.0475L40.4313 52.65L42.3254 46.8208L37.3666 43.2182H43.4959L45.3898 37.389L47.2838 43.2182H53.413L48.4542 46.8208L50.3484 52.65ZM48.4542 29.7795L50.3484 35.6087L45.3898 32.0061L40.4313 35.6087L42.3254 29.7795L37.3666 26.1769H43.4959L45.3898 20.3477L47.2838 26.1769H53.413L48.4542 29.7795ZM48.4542 12.7381L50.3484 18.5674L45.3898 14.9648L40.4313 18.5674L42.3254 12.7381L37.3666 9.1356H43.4959L45.3898 3.30639L47.2838 9.1356H53.413L48.4542 12.7381Z" fill="#0052B4"/>
</svg>
