<svg width="140" height="140" viewBox="0 0 140 140" fill="none" xmlns="http://www.w3.org/2000/svg">
<g clip-path="url(#clip0)">
<path d="M70 140C108.66 140 140 108.883 140 70.4982C140 32.1135 108.66 0.99646 70 0.99646C31.3401 0.99646 0 32.1135 0 70.4982C0 108.883 31.3401 140 70 140Z" fill="#F0F0F0"/>
<path d="M140 70.4983C140 40.615 121.004 15.1396 94.3479 5.31946V135.677C121.004 125.857 140 100.382 140 70.4983Z" fill="#D80027"/>
<path d="M0 70.4983C0 100.382 18.9965 125.857 45.6523 135.677V5.31946C18.9965 15.1396 0 40.615 0 70.4983Z" fill="#0052B4"/>
</g>
<defs>
<clipPath id="clip0">
<rect width="140" height="139.004" fill="white" transform="translate(0 0.99646)"/>
</clipPath>
</defs>
</svg>
