<svg width="117" height="117" viewBox="0 0 117 117" fill="none" xmlns="http://www.w3.org/2000/svg">
<path d="M10.3021 25.3527C6.52966 30.8282 3.66271 36.9763 1.92432 43.5844H28.5348L10.3021 25.3527Z" fill="#29337A"/>
<path d="M42.1159 2.34167C35.3757 4.3046 29.1335 7.43684 23.6367 11.5223L42.1159 30.0015V2.34167Z" fill="#29337A"/>
<path d="M25.0107 106.454C30.1667 110.061 35.927 112.855 42.1156 114.657V89.3513L25.0107 106.454Z" fill="#29337A"/>
<path d="M2.59521 75.7732C4.52948 82.0387 7.4935 87.8514 11.2815 93.0221L28.5304 75.7732H2.59521Z" fill="#29337A"/>
<path d="M11.2674 23.9945C10.9403 24.4416 10.618 24.8951 10.3021 25.3533L28.5348 43.585H1.9243C1.49303 45.2263 1.14105 46.8993 0.851074 48.5952H35.87L11.2674 23.9945Z" fill="white"/>
<path d="M23.6543 105.488C24.0994 105.82 24.5568 106.136 25.0111 106.453L42.1159 89.3505V114.656C43.7592 115.136 45.4282 115.551 47.1261 115.884V82.017L23.6543 105.488Z" fill="white"/>
<path d="M1.2959 70.7628C1.65899 72.4605 2.08754 74.1324 2.59463 75.773H28.53L11.2812 93.0219C13.1572 95.585 15.2374 97.9904 17.4977 100.215L46.9492 70.7628H1.2959Z" fill="white"/>
<path d="M42.1158 2.3415V30.0013L23.6364 11.5231C21.0888 13.4176 18.7074 15.5208 16.501 17.7977L47.125 48.4217V1.11292C45.4281 1.44834 43.7591 1.86405 42.1158 2.3415Z" fill="white"/>
<path d="M42.1177 75.5963L41.9414 75.7736H42.1177V75.5963Z" fill="#D32030"/>
<path d="M46.9517 70.7634H47.1277V70.5864L46.9517 70.7634Z" fill="#D32030"/>
<path d="M69.465 48.5944H69.2954V48.7649L69.465 48.5944Z" fill="#D32030"/>
<path d="M42.291 43.5858L42.1177 43.4115V43.5858H42.291Z" fill="#D32030"/>
<path d="M47.127 48.4215V48.595H47.3005L47.127 48.4215Z" fill="#D32030"/>
<path d="M74.3047 101.707V114.82C80.5738 113.065 86.4189 110.299 91.6469 106.695L77.4379 92.4856C76.3024 96.4749 75.887 98.5374 74.3047 101.707Z" fill="#252F6C"/>
<path d="M77.5123 26.7926L93.0237 11.2811C87.4511 7.20015 81.1293 4.09014 74.3042 2.1781V15.6491C76.1286 19.3023 76.2819 22.0781 77.5123 26.7926Z" fill="#252F6C"/>
<path d="M105.476 93.3629C109.383 88.108 112.427 82.1762 114.405 75.7732H87.8867L105.476 93.3629Z" fill="#252F6C"/>
<path d="M115.075 43.5854C113.299 36.8378 110.346 30.5743 106.455 25.0128L87.8804 43.5854H115.075Z" fill="#252F6C"/>
<path d="M80.9268 71.7544L84.9467 75.7744L104.189 95.0166C104.626 94.4697 105.06 93.9248 105.477 93.3641L87.8878 75.7744H114.406C114.911 74.1348 115.34 72.4621 115.703 70.7642H81.3027C81.2464 71.4745 80.9942 71.0487 80.9268 71.7544Z" fill="#E7E7E7"/>
<path d="M76.9043 29.7263L94.3443 12.2842C93.9074 11.9453 93.4697 11.6082 93.0233 11.2811L77.5119 26.7926C77.6727 27.4059 76.7546 29.0981 76.9043 29.7263Z" fill="#E7E7E7"/>
<path d="M74.3041 14.5713V2.17722C72.6628 1.7173 70.9918 1.32754 69.2939 1.00964V7.05527C71.1581 9.07624 72.829 11.6147 74.3041 14.5713Z" fill="#E7E7E7"/>
<path d="M80.5319 48.5945H116.148C115.859 46.8986 115.506 45.2266 115.075 43.5843H87.8807L106.455 25.0117C104.629 22.4031 102.6 19.9499 100.383 17.6768L79.4614 38.5964C80.0248 42.3911 80.277 44.5948 80.5319 48.5945Z" fill="#E7E7E7"/>
<path d="M76.5913 91.6386L91.6465 106.696C94.1506 104.971 96.5088 103.052 98.7091 100.968L78.9062 81.1639C78.2741 84.8265 77.5242 88.3641 76.5913 91.6386Z" fill="#E7E7E7"/>
<path d="M69.2944 109.25V115.988C70.9921 115.672 72.6623 115.28 74.3046 114.82V101.707C72.8285 104.664 71.1576 107.231 69.2944 109.25Z" fill="#E7E7E7"/>
<path d="M79.4619 38.5965L100.381 17.6769C98.498 15.7426 96.4788 13.9424 94.3432 12.2843L77.9053 28.725C78.6359 31.7787 78.9676 35.274 79.4619 38.5965Z" fill="#D71F28"/>
<path d="M55.5801 0.0722467C56.5547 0.0250693 57.5264 0.00012207 58.4989 0.00012207C57.5208 0.00012207 56.5473 0.0250693 55.5801 0.0722467Z" fill="#D32030"/>
<path d="M58.4991 117C57.5264 117 56.5547 116.973 55.582 116.926C56.5493 116.975 57.521 117 58.4991 117Z" fill="#D32030"/>
<path d="M58.499 117C62.19 117 65.7942 116.643 69.295 115.988V109.249C66.222 112.58 62.6272 117 58.499 117Z" fill="#D32030"/>
<path d="M116.148 48.5944H80.9949C81.4605 55.9313 81.4041 63.476 80.8267 70.7628H115.703C116.548 66.8066 117 62.7073 117 58.5009C117 55.1219 116.699 51.817 116.148 48.5944Z" fill="#D71F28"/>
<path d="M80.9272 71.7542C80.6022 75.2107 79.4697 77.904 78.9062 81.1647L98.7091 100.968C100.668 99.1109 102.5 97.125 104.188 95.0163L84.9469 75.7731L80.9272 71.7542Z" fill="#D71F28"/>
<path d="M69.2947 7.49022V1.01061C65.795 0.357534 62.1907 0.00012207 58.4985 0.00012207C62.6267 0.00012207 66.2215 4.16038 69.2947 7.49022Z" fill="#D32030"/>
<path d="M74.3037 104.237C75.886 101.067 77.2428 97.4173 78.379 93.4287L74.3037 89.3534V104.237Z" fill="#29337A"/>
<path d="M78.8861 25.4181C77.6538 20.7036 76.1281 16.4176 74.3037 12.7644V29.9985L78.8861 25.4181Z" fill="#29337A"/>
<path d="M82.062 72.8884C82.1284 72.1827 82.1884 71.4743 82.2457 70.7629H79.9365L82.062 72.8884Z" fill="white"/>
<path d="M74.3041 29.9987V12.7636C72.828 9.80697 71.1581 7.2668 69.2939 5.24756V37.3346L79.3555 27.273C79.2041 26.6449 79.0451 26.0296 78.8862 25.4163L74.3041 29.9987Z" fill="white"/>
<path d="M69.4639 48.5945H82.4139C82.16 44.595 81.7554 40.66 81.1927 36.8663L69.4639 48.5945Z" fill="white"/>
<path d="M69.2944 111.752C71.1586 109.731 72.8285 107.192 74.3046 104.236V89.3522L78.3799 93.4275C79.3145 90.1513 80.0988 86.6513 80.7326 82.9889L69.2947 71.5518L69.2944 111.752Z" fill="white"/>
<path d="M69.295 111.752V71.5518L80.7322 82.9898C81.2946 79.7281 81.7372 76.3457 82.0613 72.8884L79.9359 70.7629H82.2451C82.8223 63.4759 82.8786 55.9312 82.4133 48.5945H69.4632L81.1914 36.8663C80.6971 33.5429 80.0858 30.3284 79.3551 27.2737L69.2953 37.3354V5.2483C66.2218 1.91748 62.627 0 58.4988 0C57.5261 0 56.5544 0.0249472 55.58 0.0721246C52.7027 0.216127 49.881 0.570081 47.1264 1.11324V48.4218L16.5017 17.7977C14.62 19.7394 12.8698 21.8083 11.268 23.9948L30.8584 43.5853L35.8703 48.5955H0.851661C0.303071 51.8171 0 55.122 0 58.501C0 62.7084 0.454483 66.8067 1.29676 70.7629H46.951L17.4993 100.215C19.4279 102.109 21.4812 103.874 23.6548 105.488L47.1257 82.0171V115.885C49.88 116.428 52.7037 116.782 55.581 116.926C56.5537 116.973 57.5254 117 58.4981 117C62.627 117 66.2218 115.083 69.295 111.752Z" fill="#E51D35"/>
</svg>
