<svg width="1209" height="427" viewBox="0 0 1209 427" fill="none" xmlns="http://www.w3.org/2000/svg">
<rect x="0.5" y="1.5" width="195.887" height="211" fill="#FDFCFA" stroke="#083D68"/>
<rect x="405.852" y="1.5" width="195.887" height="211" fill="#FDFCFA" stroke="#083D68"/>
<rect x="0.5" y="215.5" width="195.887" height="211" fill="#FDFCFA" stroke="#083D68"/>
<rect x="405.852" y="215.5" width="195.887" height="211" fill="#FDFCFA" stroke="#083D68"/>
<rect x="199.261" y="215.5" width="195.887" height="211" fill="#FDFCFA" stroke="#083D68"/>
<rect x="604.613" y="215.5" width="195.887" height="211" fill="#FDFCFA" stroke="#083D68"/>
<rect x="199.261" y="1.5" width="195.887" height="211" fill="#FDFCFA" stroke="#083D68"/>
<rect x="604.613" y="1.5" width="195.887" height="211" fill="#FDFCFA" stroke="#083D68"/>
<path d="M266.104 178.8H268.768V204H266.104V178.8ZM286.795 184.92C289.171 184.92 291.055 185.616 292.447 187.008C293.863 188.376 294.571 190.38 294.571 193.02V204H292.015V193.272C292.015 191.304 291.523 189.804 290.539 188.772C289.555 187.74 288.151 187.224 286.327 187.224C284.287 187.224 282.667 187.836 281.467 189.06C280.291 190.26 279.703 191.928 279.703 194.064V204H277.147V185.064H279.595V188.556C280.291 187.404 281.251 186.516 282.475 185.892C283.723 185.244 285.163 184.92 286.795 184.92ZM307.307 204.18C305.771 204.18 304.295 203.964 302.879 203.532C301.487 203.076 300.395 202.512 299.603 201.84L300.755 199.824C301.547 200.448 302.543 200.964 303.743 201.372C304.943 201.756 306.191 201.948 307.487 201.948C309.215 201.948 310.487 201.684 311.303 201.156C312.143 200.604 312.563 199.836 312.563 198.852C312.563 198.156 312.335 197.616 311.879 197.232C311.423 196.824 310.847 196.524 310.151 196.332C309.455 196.116 308.531 195.912 307.379 195.72C305.843 195.432 304.607 195.144 303.671 194.856C302.735 194.544 301.931 194.028 301.259 193.308C300.611 192.588 300.287 191.592 300.287 190.32C300.287 188.736 300.947 187.44 302.267 186.432C303.587 185.424 305.423 184.92 307.775 184.92C308.999 184.92 310.223 185.088 311.447 185.424C312.671 185.736 313.679 186.156 314.471 186.684L313.355 188.736C311.795 187.656 309.935 187.116 307.775 187.116C306.143 187.116 304.907 187.404 304.067 187.98C303.251 188.556 302.843 189.312 302.843 190.248C302.843 190.968 303.071 191.544 303.527 191.976C304.007 192.408 304.595 192.732 305.291 192.948C305.987 193.14 306.947 193.344 308.171 193.56C309.683 193.848 310.895 194.136 311.807 194.424C312.719 194.712 313.499 195.204 314.147 195.9C314.795 196.596 315.119 197.556 315.119 198.78C315.119 200.436 314.423 201.756 313.031 202.74C311.663 203.7 309.755 204.18 307.307 204.18ZM330.536 202.848C330.056 203.28 329.456 203.616 328.736 203.856C328.04 204.072 327.308 204.18 326.54 204.18C324.764 204.18 323.396 203.7 322.436 202.74C321.476 201.78 320.996 200.424 320.996 198.672V187.224H317.612V185.064H320.996V180.924H323.552V185.064H329.312V187.224H323.552V198.528C323.552 199.656 323.828 200.52 324.38 201.12C324.956 201.696 325.772 201.984 326.828 201.984C327.356 201.984 327.86 201.9 328.34 201.732C328.844 201.564 329.276 201.324 329.636 201.012L330.536 202.848ZM342.533 184.92C345.005 184.92 346.901 185.544 348.221 186.792C349.541 188.016 350.201 189.84 350.201 192.264V204H347.753V201.048C347.177 202.032 346.325 202.8 345.197 203.352C344.093 203.904 342.773 204.18 341.237 204.18C339.125 204.18 337.445 203.676 336.197 202.668C334.949 201.66 334.325 200.328 334.325 198.672C334.325 197.064 334.901 195.768 336.053 194.784C337.229 193.8 339.089 193.308 341.633 193.308H347.645V192.156C347.645 190.524 347.189 189.288 346.277 188.448C345.365 187.584 344.033 187.152 342.281 187.152C341.081 187.152 339.929 187.356 338.825 187.764C337.721 188.148 336.773 188.688 335.981 189.384L334.829 187.476C335.789 186.66 336.941 186.036 338.285 185.604C339.629 185.148 341.045 184.92 342.533 184.92ZM341.633 202.164C343.073 202.164 344.309 201.84 345.341 201.192C346.373 200.52 347.141 199.56 347.645 198.312V195.216H341.705C338.465 195.216 336.845 196.344 336.845 198.6C336.845 199.704 337.265 200.58 338.105 201.228C338.945 201.852 340.121 202.164 341.633 202.164ZM375.466 185.064V201.696C375.466 204.912 374.674 207.288 373.09 208.824C371.53 210.384 369.166 211.164 365.998 211.164C364.246 211.164 362.578 210.9 360.994 210.372C359.434 209.868 358.162 209.16 357.178 208.248L358.474 206.304C359.386 207.12 360.49 207.756 361.786 208.212C363.106 208.668 364.486 208.896 365.926 208.896C368.326 208.896 370.09 208.332 371.218 207.204C372.346 206.1 372.91 204.372 372.91 202.02V199.608C372.118 200.808 371.074 201.72 369.778 202.344C368.506 202.968 367.09 203.28 365.53 203.28C363.754 203.28 362.134 202.896 360.67 202.128C359.23 201.336 358.09 200.244 357.25 198.852C356.434 197.436 356.026 195.84 356.026 194.064C356.026 192.288 356.434 190.704 357.25 189.312C358.09 187.92 359.23 186.84 360.67 186.072C362.11 185.304 363.73 184.92 365.53 184.92C367.138 184.92 368.59 185.244 369.886 185.892C371.182 186.54 372.226 187.476 373.018 188.7V185.064H375.466ZM365.782 201.012C367.15 201.012 368.386 200.724 369.49 200.148C370.594 199.548 371.446 198.72 372.046 197.664C372.67 196.608 372.982 195.408 372.982 194.064C372.982 192.72 372.67 191.532 372.046 190.5C371.446 189.444 370.594 188.628 369.49 188.052C368.41 187.452 367.174 187.152 365.782 187.152C364.414 187.152 363.178 187.44 362.074 188.016C360.994 188.592 360.142 189.408 359.518 190.464C358.918 191.52 358.618 192.72 358.618 194.064C358.618 195.408 358.918 196.608 359.518 197.664C360.142 198.72 360.994 199.548 362.074 200.148C363.178 200.724 364.414 201.012 365.782 201.012ZM385.781 188.772C386.381 187.5 387.269 186.54 388.445 185.892C389.645 185.244 391.121 184.92 392.873 184.92V187.404L392.261 187.368C390.269 187.368 388.709 187.98 387.581 189.204C386.453 190.428 385.889 192.144 385.889 194.352V204H383.333V185.064H385.781V188.772ZM404.81 184.92C407.282 184.92 409.178 185.544 410.498 186.792C411.818 188.016 412.478 189.84 412.478 192.264V204H410.03V201.048C409.454 202.032 408.602 202.8 407.474 203.352C406.37 203.904 405.05 204.18 403.514 204.18C401.402 204.18 399.722 203.676 398.474 202.668C397.226 201.66 396.602 200.328 396.602 198.672C396.602 197.064 397.178 195.768 398.33 194.784C399.506 193.8 401.366 193.308 403.91 193.308H409.922V192.156C409.922 190.524 409.466 189.288 408.554 188.448C407.642 187.584 406.31 187.152 404.558 187.152C403.358 187.152 402.206 187.356 401.102 187.764C399.998 188.148 399.05 188.688 398.258 189.384L397.106 187.476C398.066 186.66 399.218 186.036 400.562 185.604C401.906 185.148 403.322 184.92 404.81 184.92ZM403.91 202.164C405.35 202.164 406.586 201.84 407.618 201.192C408.65 200.52 409.418 199.56 409.922 198.312V195.216H403.982C400.742 195.216 399.122 196.344 399.122 198.6C399.122 199.704 399.542 200.58 400.382 201.228C401.222 201.852 402.398 202.164 403.91 202.164ZM443.756 184.92C446.132 184.92 447.992 185.604 449.336 186.972C450.704 188.34 451.388 190.356 451.388 193.02V204H448.832V193.272C448.832 191.304 448.352 189.804 447.392 188.772C446.456 187.74 445.124 187.224 443.396 187.224C441.428 187.224 439.88 187.836 438.752 189.06C437.624 190.26 437.06 191.928 437.06 194.064V204H434.504V193.272C434.504 191.304 434.024 189.804 433.064 188.772C432.128 187.74 430.784 187.224 429.032 187.224C427.088 187.224 425.54 187.836 424.388 189.06C423.26 190.26 422.696 191.928 422.696 194.064V204H420.14V185.064H422.588V188.52C423.26 187.368 424.196 186.48 425.396 185.856C426.596 185.232 427.976 184.92 429.536 184.92C431.12 184.92 432.488 185.256 433.64 185.928C434.816 186.6 435.692 187.596 436.268 188.916C436.964 187.668 437.96 186.696 439.256 186C440.576 185.28 442.076 184.92 443.756 184.92ZM266.104 222.8H268.768V248H266.104V222.8ZM286.795 228.92C289.171 228.92 291.055 229.616 292.447 231.008C293.863 232.376 294.571 234.38 294.571 237.02V248H292.015V237.272C292.015 235.304 291.523 233.804 290.539 232.772C289.555 231.74 288.151 231.224 286.327 231.224C284.287 231.224 282.667 231.836 281.467 233.06C280.291 234.26 279.703 235.928 279.703 238.064V248H277.147V229.064H279.595V232.556C280.291 231.404 281.251 230.516 282.475 229.892C283.723 229.244 285.163 228.92 286.795 228.92ZM312.203 246.848C311.723 247.28 311.123 247.616 310.403 247.856C309.707 248.072 308.975 248.18 308.207 248.18C306.431 248.18 305.063 247.7 304.103 246.74C303.143 245.78 302.663 244.424 302.663 242.672V231.224H299.279V229.064H302.663V224.924H305.219V229.064H310.979V231.224H305.219V242.528C305.219 243.656 305.495 244.52 306.047 245.12C306.623 245.696 307.439 245.984 308.495 245.984C309.023 245.984 309.527 245.9 310.007 245.732C310.511 245.564 310.943 245.324 311.303 245.012L312.203 246.848ZM333.396 239.324H317.556C317.7 241.292 318.456 242.888 319.824 244.112C321.192 245.312 322.92 245.912 325.008 245.912C326.184 245.912 327.264 245.708 328.248 245.3C329.232 244.868 330.084 244.244 330.804 243.428L332.244 245.084C331.404 246.092 330.348 246.86 329.076 247.388C327.828 247.916 326.448 248.18 324.936 248.18C322.992 248.18 321.264 247.772 319.752 246.956C318.264 246.116 317.1 244.964 316.26 243.5C315.42 242.036 315 240.38 315 238.532C315 236.684 315.396 235.028 316.188 233.564C317.004 232.1 318.108 230.96 319.5 230.144C320.916 229.328 322.5 228.92 324.252 228.92C326.004 228.92 327.576 229.328 328.968 230.144C330.36 230.96 331.452 232.1 332.244 233.564C333.036 235.004 333.432 236.66 333.432 238.532L333.396 239.324ZM324.252 231.116C322.428 231.116 320.892 231.704 319.644 232.88C318.42 234.032 317.724 235.544 317.556 237.416H330.984C330.816 235.544 330.108 234.032 328.86 232.88C327.636 231.704 326.1 231.116 324.252 231.116ZM356.886 229.064V245.696C356.886 248.912 356.094 251.288 354.51 252.824C352.95 254.384 350.586 255.164 347.418 255.164C345.666 255.164 343.998 254.9 342.414 254.372C340.854 253.868 339.582 253.16 338.598 252.248L339.894 250.304C340.806 251.12 341.91 251.756 343.206 252.212C344.526 252.668 345.906 252.896 347.346 252.896C349.746 252.896 351.51 252.332 352.638 251.204C353.766 250.1 354.33 248.372 354.33 246.02V243.608C353.538 244.808 352.494 245.72 351.198 246.344C349.926 246.968 348.51 247.28 346.95 247.28C345.174 247.28 343.554 246.896 342.09 246.128C340.65 245.336 339.51 244.244 338.67 242.852C337.854 241.436 337.446 239.84 337.446 238.064C337.446 236.288 337.854 234.704 338.67 233.312C339.51 231.92 340.65 230.84 342.09 230.072C343.53 229.304 345.15 228.92 346.95 228.92C348.558 228.92 350.01 229.244 351.306 229.892C352.602 230.54 353.646 231.476 354.438 232.7V229.064H356.886ZM347.202 245.012C348.57 245.012 349.806 244.724 350.91 244.148C352.014 243.548 352.866 242.72 353.466 241.664C354.09 240.608 354.402 239.408 354.402 238.064C354.402 236.72 354.09 235.532 353.466 234.5C352.866 233.444 352.014 232.628 350.91 232.052C349.83 231.452 348.594 231.152 347.202 231.152C345.834 231.152 344.598 231.44 343.494 232.016C342.414 232.592 341.562 233.408 340.938 234.464C340.338 235.52 340.038 236.72 340.038 238.064C340.038 239.408 340.338 240.608 340.938 241.664C341.562 242.72 342.414 243.548 343.494 244.148C344.598 244.724 345.834 245.012 347.202 245.012ZM367.202 232.772C367.802 231.5 368.69 230.54 369.866 229.892C371.066 229.244 372.542 228.92 374.294 228.92V231.404L373.682 231.368C371.69 231.368 370.13 231.98 369.002 233.204C367.874 234.428 367.31 236.144 367.31 238.352V248H364.754V229.064H367.202V232.772ZM386.231 228.92C388.703 228.92 390.599 229.544 391.919 230.792C393.239 232.016 393.899 233.84 393.899 236.264V248H391.451V245.048C390.875 246.032 390.023 246.8 388.895 247.352C387.791 247.904 386.471 248.18 384.935 248.18C382.823 248.18 381.143 247.676 379.895 246.668C378.647 245.66 378.023 244.328 378.023 242.672C378.023 241.064 378.599 239.768 379.751 238.784C380.927 237.8 382.787 237.308 385.331 237.308H391.343V236.156C391.343 234.524 390.887 233.288 389.975 232.448C389.063 231.584 387.731 231.152 385.979 231.152C384.779 231.152 383.627 231.356 382.523 231.764C381.419 232.148 380.471 232.688 379.679 233.384L378.527 231.476C379.487 230.66 380.639 230.036 381.983 229.604C383.327 229.148 384.743 228.92 386.231 228.92ZM385.331 246.164C386.771 246.164 388.007 245.84 389.039 245.192C390.071 244.52 390.839 243.56 391.343 242.312V239.216H385.403C382.163 239.216 380.543 240.344 380.543 242.6C380.543 243.704 380.963 244.58 381.803 245.228C382.643 245.852 383.819 246.164 385.331 246.164ZM411.533 246.848C411.053 247.28 410.453 247.616 409.733 247.856C409.037 248.072 408.305 248.18 407.537 248.18C405.761 248.18 404.393 247.7 403.433 246.74C402.473 245.78 401.993 244.424 401.993 242.672V231.224H398.609V229.064H401.993V224.924H404.549V229.064H410.309V231.224H404.549V242.528C404.549 243.656 404.825 244.52 405.377 245.12C405.953 245.696 406.769 245.984 407.825 245.984C408.353 245.984 408.857 245.9 409.337 245.732C409.841 245.564 410.273 245.324 410.633 245.012L411.533 246.848ZM416.906 229.064H419.462V248H416.906V229.064ZM418.202 224.924C417.674 224.924 417.23 224.744 416.87 224.384C416.51 224.024 416.33 223.592 416.33 223.088C416.33 222.608 416.51 222.188 416.87 221.828C417.23 221.468 417.674 221.288 418.202 221.288C418.73 221.288 419.174 221.468 419.534 221.828C419.894 222.164 420.074 222.572 420.074 223.052C420.074 223.58 419.894 224.024 419.534 224.384C419.174 224.744 418.73 224.924 418.202 224.924ZM435.034 248.18C433.21 248.18 431.566 247.772 430.102 246.956C428.638 246.116 427.486 244.964 426.646 243.5C425.806 242.036 425.386 240.38 425.386 238.532C425.386 236.684 425.806 235.028 426.646 233.564C427.486 232.1 428.638 230.96 430.102 230.144C431.566 229.328 433.21 228.92 435.034 228.92C436.858 228.92 438.502 229.328 439.966 230.144C441.43 230.96 442.57 232.1 443.386 233.564C444.226 235.028 444.646 236.684 444.646 238.532C444.646 240.38 444.226 242.036 443.386 243.5C442.57 244.964 441.43 246.116 439.966 246.956C438.502 247.772 436.858 248.18 435.034 248.18ZM435.034 245.912C436.378 245.912 437.578 245.612 438.634 245.012C439.714 244.388 440.554 243.512 441.154 242.384C441.754 241.256 442.054 239.972 442.054 238.532C442.054 237.092 441.754 235.808 441.154 234.68C440.554 233.552 439.714 232.688 438.634 232.088C437.578 231.464 436.378 231.152 435.034 231.152C433.69 231.152 432.478 231.464 431.398 232.088C430.342 232.688 429.502 233.552 428.878 234.68C428.278 235.808 427.978 237.092 427.978 238.532C427.978 239.972 428.278 241.256 428.878 242.384C429.502 243.512 430.342 244.388 431.398 245.012C432.478 245.612 433.69 245.912 435.034 245.912ZM460.232 228.92C462.608 228.92 464.492 229.616 465.884 231.008C467.3 232.376 468.008 234.38 468.008 237.02V248H465.452V237.272C465.452 235.304 464.96 233.804 463.976 232.772C462.992 231.74 461.588 231.224 459.764 231.224C457.724 231.224 456.104 231.836 454.904 233.06C453.728 234.26 453.14 235.928 453.14 238.064V248H450.584V229.064H453.032V232.556C453.728 231.404 454.688 230.516 455.912 229.892C457.16 229.244 458.6 228.92 460.232 228.92Z" fill="black"/>
<rect x="801" width="407.801" height="426" fill="#FAF7F2"/>
<path d="M907.707 129.672C913.275 129.672 917.819 131.272 921.339 134.472C924.891 137.64 926.667 141.608 926.667 146.376C926.667 149.736 925.771 152.632 923.979 155.064C922.187 157.496 919.691 158.712 916.491 158.712C915.179 158.712 913.947 158.424 912.795 157.848C911.675 157.272 910.859 156.488 910.347 155.496C908.715 157.672 906.395 158.76 903.387 158.76C901.115 158.76 899.147 158.008 897.483 156.504C895.851 155 895.035 153.032 895.035 150.6C895.035 147.112 896.123 144.296 898.299 142.152C900.475 140.008 903.259 138.936 906.651 138.936C909.147 138.936 911.131 139.72 912.603 141.288L912.843 140.04C912.875 139.592 913.131 139.368 913.611 139.368H916.827C917.435 139.368 917.659 139.64 917.499 140.184L914.763 152.28C914.507 153.432 914.619 154.36 915.099 155.064C915.611 155.768 916.363 156.12 917.355 156.12C919.083 156.12 920.459 155.192 921.483 153.336C922.539 151.448 923.067 149.176 923.067 146.52C923.067 142.232 921.579 138.792 918.603 136.2C915.659 133.576 911.803 132.264 907.035 132.264C902.139 132.264 897.899 134.04 894.315 137.592C890.763 141.144 888.987 145.4 888.987 150.36C888.987 154.616 890.347 158.136 893.067 160.92C895.787 163.672 899.387 165.048 903.867 165.048C906.715 165.048 909.515 164.504 912.267 163.416C912.651 163.256 912.907 163.272 913.035 163.464C913.195 163.656 913.211 163.928 913.083 164.28L912.747 165.096C912.619 165.512 912.283 165.832 911.739 166.056C909.499 167.08 906.699 167.592 903.339 167.592C898.091 167.592 893.787 165.928 890.427 162.6C887.099 159.272 885.435 155.192 885.435 150.36C885.435 147.704 885.963 145.144 887.019 142.68C888.075 140.184 889.531 137.976 891.387 136.056C893.275 134.136 895.627 132.6 898.443 131.448C901.291 130.264 904.379 129.672 907.707 129.672ZM904.539 156.984C905.819 156.984 906.987 156.456 908.043 155.4C909.099 154.344 909.787 153.064 910.107 151.56L911.403 145.992C911.627 144.392 911.387 143.128 910.683 142.2C910.011 141.24 909.051 140.76 907.803 140.76C905.915 140.76 904.283 141.8 902.907 143.88C901.531 145.96 900.811 148.424 900.747 151.272C900.715 153.192 901.035 154.632 901.707 155.592C902.379 156.52 903.323 156.984 904.539 156.984ZM976.815 130.92C977.455 130.92 977.775 131.144 977.775 131.592V131.736C977.775 132.056 977.423 132.472 976.719 132.984C976.015 133.496 975.535 134.136 975.279 134.904L965.919 163.368C965.567 164.456 964.799 165 963.615 165C962.559 165 961.839 164.488 961.455 163.464L954.927 144.168L948.207 163.368C947.855 164.456 947.167 165 946.143 165C945.119 165 944.399 164.488 943.983 163.464L932.607 134.952C932.351 134.344 931.983 133.848 931.503 133.464C931.055 133.048 930.671 132.728 930.351 132.504C930.063 132.28 929.919 132.008 929.919 131.688V131.592C929.919 131.144 930.239 130.92 930.879 130.92H939.327C939.999 130.92 940.335 131.144 940.335 131.592V131.736C940.335 132.024 940.143 132.312 939.759 132.6C939.375 132.856 939.039 133.176 938.751 133.56C938.495 133.912 938.479 134.376 938.703 134.952L947.151 157.8L953.439 139.8L951.807 134.904C951.583 134.232 951.087 133.608 950.319 133.032C949.551 132.456 949.167 132.008 949.167 131.688V131.592C949.167 131.144 949.471 130.92 950.079 130.92H958.527C959.135 130.92 959.439 131.144 959.439 131.592V131.688C959.439 131.944 959.231 132.2 958.815 132.456C958.431 132.712 958.079 133.032 957.759 133.416C957.439 133.768 957.375 134.264 957.567 134.904L964.815 157.752L971.967 134.904C972.191 134.2 971.951 133.576 971.247 133.032C970.575 132.456 970.239 132.04 970.239 131.784V131.64C970.239 131.16 970.559 130.92 971.199 130.92H976.815ZM999.456 165.48C994.496 165.48 990.416 163.768 987.216 160.344C984.016 156.888 982.416 152.76 982.416 147.96C982.416 142.872 983.984 138.68 987.12 135.384C990.256 132.088 994.288 130.44 999.216 130.44C1004.11 130.44 1008.11 132.184 1011.22 135.672C1014.35 139.128 1015.92 143.288 1015.92 148.152C1015.92 153.048 1014.34 157.16 1011.17 160.488C1008 163.816 1004.1 165.48 999.456 165.48ZM1000.99 162.888C1003.68 162.888 1005.89 161.864 1007.62 159.816C1009.34 157.768 1010.21 155.288 1010.21 152.376C1010.21 146.936 1008.99 142.36 1006.56 138.648C1004.13 134.904 1001.01 133.032 997.2 133.032C994.48 133.032 992.288 134.024 990.624 136.008C988.96 137.96 988.128 140.504 988.128 143.64C988.128 149.048 989.328 153.608 991.728 157.32C994.128 161.032 997.216 162.888 1000.99 162.888ZM1049.89 161.016C1050.27 161.592 1050.74 162.088 1051.28 162.504C1051.86 162.888 1052.3 163.192 1052.62 163.416C1052.94 163.64 1053.1 163.896 1053.1 164.184V164.328C1053.1 164.776 1052.77 165 1052.1 165H1043.74C1043.07 165 1042.74 164.776 1042.74 164.328V164.184C1042.74 163.928 1042.91 163.64 1043.26 163.32C1043.62 163 1043.86 162.712 1043.98 162.456C1044.14 162.2 1044.06 161.72 1043.74 161.016L1037.65 151.896H1037.22L1031.5 151.992V161.016C1031.5 161.72 1031.82 162.36 1032.46 162.936C1033.14 163.48 1033.47 163.896 1033.47 164.184V164.328C1033.47 164.776 1033.12 165 1032.42 165H1024.88C1024.21 165 1023.87 164.776 1023.87 164.328V164.184C1023.87 163.896 1024.16 163.48 1024.74 162.936C1025.34 162.36 1025.65 161.72 1025.65 161.016V134.904C1025.65 134.2 1025.34 133.576 1024.74 133.032C1024.16 132.456 1023.87 132.024 1023.87 131.736V131.592C1023.87 131.144 1024.21 130.92 1024.88 130.92H1035.73C1040.11 130.92 1043.62 131.832 1046.24 133.656C1048.86 135.448 1050.19 138.088 1050.22 141.576C1050.22 143.624 1049.6 145.496 1048.35 147.192C1047.14 148.856 1045.38 150.104 1043.07 150.936L1049.89 161.016ZM1036.54 149.496C1038.88 149.496 1040.75 148.872 1042.16 147.624C1043.57 146.376 1044.27 144.6 1044.27 142.296C1044.27 139.48 1043.39 137.288 1041.63 135.72C1039.9 134.152 1037.81 133.368 1035.34 133.368H1032.94C1031.98 133.368 1031.5 134.008 1031.5 135.288V146.76C1031.5 148.584 1032.29 149.496 1033.86 149.496H1036.54ZM1060.69 165C1060.02 165 1059.68 164.776 1059.68 164.328V164.184C1059.68 163.896 1059.97 163.48 1060.54 162.936C1061.15 162.36 1061.46 161.72 1061.46 161.016V134.904C1061.46 134.2 1061.15 133.576 1060.54 133.032C1059.97 132.456 1059.68 132.024 1059.68 131.736V131.592C1059.68 131.144 1060.02 130.92 1060.69 130.92H1068.22C1068.93 130.92 1069.28 131.144 1069.28 131.592V131.736C1069.28 132.024 1068.94 132.456 1068.27 133.032C1067.63 133.576 1067.31 134.2 1067.31 134.904V160.296C1067.31 160.968 1067.46 161.512 1067.74 161.928C1068.06 162.344 1068.51 162.552 1069.09 162.552H1077.87C1078.61 162.552 1079.26 162.264 1079.84 161.688C1080.45 161.08 1080.91 160.408 1081.23 159.672C1081.55 158.936 1081.92 158.28 1082.34 157.704C1082.75 157.096 1083.17 156.792 1083.58 156.792H1084.06C1084.67 156.792 1084.9 157.112 1084.74 157.752L1083.54 163.752C1083.34 164.584 1082.88 165 1082.14 165H1060.69ZM1092.65 165C1091.95 165 1091.6 164.776 1091.6 164.328V164.184C1091.6 163.896 1091.9 163.48 1092.51 162.936C1093.12 162.36 1093.42 161.72 1093.42 161.016V134.904C1093.42 134.2 1093.12 133.576 1092.51 133.032C1091.9 132.456 1091.6 132.024 1091.6 131.736V131.592C1091.6 131.144 1091.95 130.92 1092.65 130.92H1103.21C1109.1 130.92 1113.93 132.536 1117.71 135.768C1121.52 138.968 1123.42 142.984 1123.42 147.816C1123.42 153.032 1121.73 157.208 1118.33 160.344C1114.97 163.448 1110.65 165 1105.37 165H1092.65ZM1102.01 162.552H1105.04C1108.69 162.552 1111.66 161.416 1113.97 159.144C1116.3 156.872 1117.47 153.816 1117.47 149.976C1117.47 145.208 1116 141.256 1113.05 138.12C1110.11 134.952 1106.46 133.368 1102.11 133.368H1100.77C1099.68 133.368 1099.13 133.96 1099.13 135.144V159.144C1099.13 160.232 1099.39 161.08 1099.9 161.688C1100.41 162.264 1101.12 162.552 1102.01 162.552ZM920.916 225.48C916.596 225.48 913.204 224.568 910.74 222.744C908.276 220.888 907.044 218.952 907.044 216.936C907.044 216.232 907.252 215.656 907.668 215.208C908.084 214.728 908.66 214.504 909.396 214.536C910.068 214.568 910.66 214.808 911.172 215.256C911.684 215.672 912.084 216.2 912.372 216.84C912.692 217.48 913.076 218.168 913.524 218.904C914.004 219.64 914.516 220.328 915.06 220.968C915.636 221.608 916.436 222.136 917.46 222.552C918.516 222.968 919.748 223.176 921.156 223.176C923.108 223.176 924.692 222.648 925.908 221.592C927.124 220.536 927.732 219.144 927.732 217.416C927.732 215.944 927.364 214.728 926.628 213.768C925.892 212.808 924.932 212.104 923.748 211.656C922.596 211.208 921.3 210.84 919.86 210.552C918.452 210.232 917.028 209.88 915.588 209.496C914.18 209.08 912.884 208.552 911.7 207.912C910.548 207.272 909.604 206.296 908.868 204.984C908.132 203.672 907.764 202.04 907.764 200.088C907.764 197.304 908.868 195.016 911.076 193.224C913.284 191.4 916.308 190.488 920.148 190.488C923.988 190.488 927.092 191.336 929.46 193.032C931.86 194.696 933.044 196.536 933.012 198.552C933.012 200.184 932.18 201 930.516 201C929.812 201 929.204 200.808 928.692 200.424C928.212 200.008 927.844 199.496 927.588 198.888C927.332 198.28 926.996 197.624 926.58 196.92C926.196 196.184 925.764 195.512 925.284 194.904C924.836 194.296 924.148 193.8 923.22 193.416C922.324 193 921.252 192.792 920.004 192.792C917.988 192.792 916.42 193.336 915.3 194.424C914.18 195.512 913.62 196.872 913.62 198.504C913.62 199.912 913.988 201.08 914.724 202.008C915.46 202.904 916.404 203.576 917.556 204.024C918.74 204.472 920.036 204.872 921.444 205.224C922.884 205.544 924.308 205.928 925.716 206.376C927.156 206.792 928.452 207.336 929.604 208.008C930.788 208.68 931.748 209.672 932.484 210.984C933.22 212.296 933.588 213.912 933.588 215.832C933.588 218.776 932.356 221.128 929.892 222.888C927.428 224.616 924.436 225.48 920.916 225.48ZM949.357 225C948.685 225 948.349 224.776 948.349 224.328V224.184C948.349 223.896 948.653 223.48 949.261 222.936C949.901 222.36 950.221 221.72 950.221 221.016V193.512H944.989C944.221 193.512 943.549 193.96 942.973 194.856C942.429 195.752 941.949 196.648 941.533 197.544C941.117 198.44 940.685 198.888 940.237 198.888H939.661C939.021 198.888 938.749 198.52 938.845 197.784L939.709 192.12C939.805 191.32 940.253 190.92 941.053 190.92H965.149C965.949 190.92 966.413 191.32 966.541 192.12L967.597 197.832C967.661 198.152 967.613 198.408 967.453 198.6C967.293 198.792 967.069 198.888 966.781 198.888H966.205C965.853 198.888 965.485 198.616 965.101 198.072C964.717 197.496 964.381 196.872 964.093 196.2C963.805 195.528 963.405 194.92 962.893 194.376C962.381 193.8 961.821 193.512 961.213 193.512H955.981V221.016C955.981 221.72 956.301 222.36 956.941 222.936C957.581 223.48 957.901 223.896 957.901 224.184V224.328C957.901 224.776 957.549 225 956.845 225H949.357ZM1000.53 221.016C1000.92 221.592 1001.38 222.088 1001.92 222.504C1002.5 222.888 1002.95 223.192 1003.27 223.416C1003.59 223.64 1003.75 223.896 1003.75 224.184V224.328C1003.75 224.776 1003.41 225 1002.74 225H994.388C993.716 225 993.38 224.776 993.38 224.328V224.184C993.38 223.928 993.556 223.64 993.908 223.32C994.26 223 994.5 222.712 994.628 222.456C994.788 222.2 994.708 221.72 994.388 221.016L988.292 211.896H987.86L982.148 211.992V221.016C982.148 221.72 982.468 222.36 983.108 222.936C983.78 223.48 984.116 223.896 984.116 224.184V224.328C984.116 224.776 983.764 225 983.06 225H975.524C974.852 225 974.516 224.776 974.516 224.328V224.184C974.516 223.896 974.804 223.48 975.38 222.936C975.988 222.36 976.292 221.72 976.292 221.016V194.904C976.292 194.2 975.988 193.576 975.38 193.032C974.804 192.456 974.516 192.024 974.516 191.736V191.592C974.516 191.144 974.852 190.92 975.524 190.92H986.372C990.756 190.92 994.26 191.832 996.884 193.656C999.508 195.448 1000.84 198.088 1000.87 201.576C1000.87 203.624 1000.24 205.496 998.996 207.192C997.78 208.856 996.02 210.104 993.716 210.936L1000.53 221.016ZM987.188 209.496C989.524 209.496 991.396 208.872 992.804 207.624C994.212 206.376 994.916 204.6 994.916 202.296C994.916 199.48 994.036 197.288 992.276 195.72C990.548 194.152 988.452 193.368 985.988 193.368H983.588C982.628 193.368 982.148 194.008 982.148 195.288V206.76C982.148 208.584 982.932 209.496 984.5 209.496H987.188ZM1011.33 225C1010.63 225 1010.28 224.776 1010.28 224.328V224.184C1010.28 223.896 1010.58 223.48 1011.19 222.936C1011.8 222.36 1012.1 221.704 1012.1 220.968V194.952C1012.1 194.216 1011.8 193.56 1011.19 192.984C1010.58 192.408 1010.28 191.992 1010.28 191.736V191.592C1010.28 191.144 1010.6 190.92 1011.24 190.92H1032.12C1032.88 190.92 1033.33 191.32 1033.46 192.12L1034.61 197.304C1034.77 198.04 1034.52 198.408 1033.84 198.408H1033.6C1033.19 198.408 1032.72 198.152 1032.21 197.64C1031.73 197.096 1031.28 196.504 1030.87 195.864C1030.48 195.224 1029.99 194.648 1029.38 194.136C1028.8 193.592 1028.2 193.32 1027.56 193.32H1019.49C1018.4 193.32 1017.86 193.944 1017.86 195.192V206.376H1025.25C1025.73 206.376 1026.15 206.216 1026.5 205.896C1026.85 205.544 1027.11 205.176 1027.27 204.792C1027.46 204.408 1027.67 204.056 1027.89 203.736C1028.15 203.384 1028.39 203.208 1028.61 203.208H1028.9C1029.38 203.208 1029.62 203.512 1029.62 204.12V210.936C1029.62 211.544 1029.38 211.848 1028.9 211.848H1028.61C1028.39 211.848 1028.15 211.688 1027.89 211.368C1027.67 211.048 1027.46 210.712 1027.27 210.36C1027.11 209.976 1026.85 209.624 1026.5 209.304C1026.15 208.984 1025.73 208.824 1025.25 208.824H1017.86L1017.81 220.056C1017.81 220.76 1017.99 221.368 1018.34 221.88C1018.72 222.36 1019.27 222.6 1019.97 222.6H1029.04C1029.68 222.6 1030.29 222.328 1030.87 221.784C1031.44 221.24 1031.91 220.632 1032.26 219.96C1032.61 219.288 1033.03 218.68 1033.51 218.136C1033.99 217.592 1034.45 217.32 1034.9 217.32H1035.24C1035.49 217.32 1035.68 217.432 1035.81 217.656C1035.97 217.88 1036.02 218.136 1035.96 218.424L1034.85 223.752C1034.66 224.584 1034.2 225 1033.46 225H1011.33ZM1044.33 225C1043.62 225 1043.27 224.776 1043.27 224.328V224.184C1043.27 223.896 1043.58 223.48 1044.18 222.936C1044.79 222.36 1045.1 221.704 1045.1 220.968V194.952C1045.1 194.216 1044.79 193.56 1044.18 192.984C1043.58 192.408 1043.27 191.992 1043.27 191.736V191.592C1043.27 191.144 1043.59 190.92 1044.23 190.92H1065.11C1065.88 190.92 1066.33 191.32 1066.46 192.12L1067.61 197.304C1067.77 198.04 1067.51 198.408 1066.84 198.408H1066.6C1066.18 198.408 1065.72 198.152 1065.21 197.64C1064.73 197.096 1064.28 196.504 1063.86 195.864C1063.48 195.224 1062.98 194.648 1062.38 194.136C1061.8 193.592 1061.19 193.32 1060.55 193.32H1052.49C1051.4 193.32 1050.86 193.944 1050.86 195.192V206.376H1058.25C1058.73 206.376 1059.14 206.216 1059.5 205.896C1059.85 205.544 1060.1 205.176 1060.26 204.792C1060.46 204.408 1060.66 204.056 1060.89 203.736C1061.14 203.384 1061.38 203.208 1061.61 203.208H1061.9C1062.38 203.208 1062.62 203.512 1062.62 204.12V210.936C1062.62 211.544 1062.38 211.848 1061.9 211.848H1061.61C1061.38 211.848 1061.14 211.688 1060.89 211.368C1060.66 211.048 1060.46 210.712 1060.26 210.36C1060.1 209.976 1059.85 209.624 1059.5 209.304C1059.14 208.984 1058.73 208.824 1058.25 208.824H1050.86L1050.81 220.056C1050.81 220.76 1050.98 221.368 1051.34 221.88C1051.72 222.36 1052.26 222.6 1052.97 222.6H1062.04C1062.68 222.6 1063.29 222.328 1063.86 221.784C1064.44 221.24 1064.9 220.632 1065.26 219.96C1065.61 219.288 1066.02 218.68 1066.5 218.136C1066.98 217.592 1067.45 217.32 1067.9 217.32H1068.23C1068.49 217.32 1068.68 217.432 1068.81 217.656C1068.97 217.88 1069.02 218.136 1068.95 218.424L1067.85 223.752C1067.66 224.584 1067.19 225 1066.46 225H1044.33ZM1084.72 225C1084.05 225 1083.71 224.776 1083.71 224.328V224.184C1083.71 223.896 1084.01 223.48 1084.62 222.936C1085.26 222.36 1085.58 221.72 1085.58 221.016V193.512H1080.35C1079.58 193.512 1078.91 193.96 1078.33 194.856C1077.79 195.752 1077.31 196.648 1076.89 197.544C1076.48 198.44 1076.05 198.888 1075.6 198.888H1075.02C1074.38 198.888 1074.11 198.52 1074.21 197.784L1075.07 192.12C1075.17 191.32 1075.61 190.92 1076.41 190.92H1100.51C1101.31 190.92 1101.77 191.32 1101.9 192.12L1102.96 197.832C1103.02 198.152 1102.97 198.408 1102.81 198.6C1102.65 198.792 1102.43 198.888 1102.14 198.888H1101.57C1101.21 198.888 1100.85 198.616 1100.46 198.072C1100.08 197.496 1099.74 196.872 1099.45 196.2C1099.17 195.528 1098.77 194.92 1098.25 194.376C1097.74 193.8 1097.18 193.512 1096.57 193.512H1091.34V221.016C1091.34 221.72 1091.66 222.36 1092.3 222.936C1092.94 223.48 1093.26 223.896 1093.26 224.184V224.328C1093.26 224.776 1092.91 225 1092.21 225H1084.72Z" fill="#083D68"/>
<path d="M938.014 284.28V289.78H945.254V291.06H938.014V297H936.534V283H946.134V284.28H938.014ZM957.134 297.12C955.748 297.12 954.488 296.813 953.354 296.2C952.234 295.573 951.354 294.72 950.714 293.64C950.088 292.56 949.774 291.347 949.774 290C949.774 288.653 950.088 287.44 950.714 286.36C951.354 285.28 952.234 284.433 953.354 283.82C954.488 283.193 955.748 282.88 957.134 282.88C958.521 282.88 959.768 283.187 960.874 283.8C961.994 284.413 962.874 285.267 963.514 286.36C964.154 287.44 964.474 288.653 964.474 290C964.474 291.347 964.154 292.567 963.514 293.66C962.874 294.74 961.994 295.587 960.874 296.2C959.768 296.813 958.521 297.12 957.134 297.12ZM957.134 295.8C958.241 295.8 959.241 295.553 960.134 295.06C961.028 294.553 961.728 293.86 962.234 292.98C962.741 292.087 962.994 291.093 962.994 290C962.994 288.907 962.741 287.92 962.234 287.04C961.728 286.147 961.028 285.453 960.134 284.96C959.241 284.453 958.241 284.2 957.134 284.2C956.028 284.2 955.021 284.453 954.114 284.96C953.221 285.453 952.514 286.147 951.994 287.04C951.488 287.92 951.234 288.907 951.234 290C951.234 291.093 951.488 292.087 951.994 292.98C952.514 293.86 953.221 294.553 954.114 295.06C955.021 295.553 956.028 295.8 957.134 295.8ZM969.792 283H971.272V295.72H979.112V297H969.792V283ZM983.569 283H985.049V295.72H992.889V297H983.569V283ZM1003.19 297.12C1001.81 297.12 1000.55 296.813 999.413 296.2C998.293 295.573 997.413 294.72 996.773 293.64C996.146 292.56 995.833 291.347 995.833 290C995.833 288.653 996.146 287.44 996.773 286.36C997.413 285.28 998.293 284.433 999.413 283.82C1000.55 283.193 1001.81 282.88 1003.19 282.88C1004.58 282.88 1005.83 283.187 1006.93 283.8C1008.05 284.413 1008.93 285.267 1009.57 286.36C1010.21 287.44 1010.53 288.653 1010.53 290C1010.53 291.347 1010.21 292.567 1009.57 293.66C1008.93 294.74 1008.05 295.587 1006.93 296.2C1005.83 296.813 1004.58 297.12 1003.19 297.12ZM1003.19 295.8C1004.3 295.8 1005.3 295.553 1006.19 295.06C1007.09 294.553 1007.79 293.86 1008.29 292.98C1008.8 292.087 1009.05 291.093 1009.05 290C1009.05 288.907 1008.8 287.92 1008.29 287.04C1007.79 286.147 1007.09 285.453 1006.19 284.96C1005.3 284.453 1004.3 284.2 1003.19 284.2C1002.09 284.2 1001.08 284.453 1000.17 284.96C999.28 285.453 998.573 286.147 998.053 287.04C997.546 287.92 997.293 288.907 997.293 290C997.293 291.093 997.546 292.087 998.053 292.98C998.573 293.86 999.28 294.553 1000.17 295.06C1001.08 295.553 1002.09 295.8 1003.19 295.8ZM1034.64 283L1029.92 297H1028.36L1024.26 285.06L1020.14 297H1018.6L1013.88 283H1015.4L1019.44 295.04L1023.62 283H1025L1029.12 295.1L1033.22 283H1034.64ZM1052.52 297.12C1050.71 297.12 1049.29 296.6 1048.28 295.56C1047.27 294.52 1046.76 293.007 1046.76 291.02V283H1048.24V290.96C1048.24 292.587 1048.61 293.8 1049.34 294.6C1050.07 295.4 1051.13 295.8 1052.52 295.8C1053.92 295.8 1054.99 295.4 1055.72 294.6C1056.45 293.8 1056.82 292.587 1056.82 290.96V283H1058.26V291.02C1058.26 293.007 1057.75 294.52 1056.74 295.56C1055.74 296.6 1054.33 297.12 1052.52 297.12ZM1068.58 297.12C1067.54 297.12 1066.54 296.953 1065.58 296.62C1064.63 296.287 1063.9 295.847 1063.38 295.3L1063.96 294.16C1064.47 294.667 1065.14 295.08 1065.98 295.4C1066.82 295.707 1067.69 295.86 1068.58 295.86C1069.83 295.86 1070.77 295.633 1071.4 295.18C1072.03 294.713 1072.34 294.113 1072.34 293.38C1072.34 292.82 1072.17 292.373 1071.82 292.04C1071.49 291.707 1071.07 291.453 1070.58 291.28C1070.09 291.093 1069.4 290.893 1068.52 290.68C1067.47 290.413 1066.63 290.16 1066 289.92C1065.37 289.667 1064.83 289.287 1064.38 288.78C1063.94 288.273 1063.72 287.587 1063.72 286.72C1063.72 286.013 1063.91 285.373 1064.28 284.8C1064.65 284.213 1065.23 283.747 1066 283.4C1066.77 283.053 1067.73 282.88 1068.88 282.88C1069.68 282.88 1070.46 282.993 1071.22 283.22C1071.99 283.433 1072.66 283.733 1073.22 284.12L1072.72 285.3C1072.13 284.913 1071.51 284.627 1070.84 284.44C1070.17 284.24 1069.52 284.14 1068.88 284.14C1067.65 284.14 1066.73 284.38 1066.1 284.86C1065.49 285.327 1065.18 285.933 1065.18 286.68C1065.18 287.24 1065.35 287.693 1065.68 288.04C1066.03 288.373 1066.45 288.633 1066.96 288.82C1067.48 288.993 1068.17 289.187 1069.04 289.4C1070.07 289.653 1070.89 289.907 1071.52 290.16C1072.16 290.4 1072.7 290.773 1073.14 291.28C1073.58 291.773 1073.8 292.447 1073.8 293.3C1073.8 294.007 1073.61 294.653 1073.22 295.24C1072.85 295.813 1072.27 296.273 1071.48 296.62C1070.69 296.953 1069.73 297.12 1068.58 297.12Z" fill="#083D68"/>
<line x1="937.874" y1="307" x2="1072.11" y2="307" stroke="#083D68"/>
</svg>
