<svg width="204" height="51" viewBox="0 0 204 51" fill="none" xmlns="http://www.w3.org/2000/svg">
<path d="M134.404 42.8845C136.284 42.8002 136.151 39.882 134.266 39.9684C132.388 40.0549 132.521 42.9709 134.404 42.8845Z" fill="white"/>
<path d="M194.47 42.8267C193.086 42.9531 191.572 42.9554 189.957 42.7957C188.336 42.6427 186.618 42.3345 184.808 41.9375C181.921 41.3078 178.75 40.4673 175.322 40.0149C174.818 39.5293 174.213 39.0415 173.452 38.5979C172.27 37.9039 170.769 37.3428 169.024 36.988C165.531 36.2917 161.101 36.3649 156.14 37.5335C154.907 37.8152 153.588 38.2498 152.373 38.6534C151.14 39.057 140.03 44.991 129.763 44.991C136.903 49.8829 148.106 43.2348 149.317 42.8512C150.696 42.4077 151.982 41.9043 153.213 41.3942C154.459 40.8687 155.53 40.3986 156.659 40.0216C161.152 38.5137 165.336 37.9859 168.667 38.2587C170.341 38.3939 171.802 38.7487 172.993 39.2499C173.45 39.4428 173.849 39.6579 174.226 39.8819C173.718 39.8265 173.204 39.7821 172.687 39.751C168.239 39.4472 163.944 40.1037 160.298 41.2723C156.641 42.4254 153.592 43.8867 150.956 44.8624C145.707 46.907 142.094 46.8937 142.116 46.9314C142.119 46.9203 142.99 47.0356 144.593 46.989C146.186 46.9425 148.521 46.6542 151.286 45.8847C154.058 45.1441 157.231 43.9289 160.792 43.0153C164.343 42.0928 168.345 41.6116 172.545 41.8976C174.022 41.9841 175.468 42.1637 176.889 42.3811C176.907 42.4077 176.923 42.4298 176.94 42.4564C176.987 42.4675 177.036 42.472 177.085 42.4853C177.071 42.4609 177.058 42.432 177.047 42.4054C179.615 42.8046 182.09 43.3301 184.467 43.7204C186.341 44.0264 188.157 44.2371 189.871 44.2659C191.585 44.3014 193.188 44.1639 194.619 43.8978C197.484 43.3634 199.63 42.3833 201.045 41.6537C202.462 40.9108 203.185 40.4074 203.189 40.4141C203.187 40.4052 202.391 40.7955 200.907 41.3477C199.426 41.8821 197.235 42.5828 194.47 42.8267Z" fill="white"/>
<path d="M136.904 41.4274C136.935 41.4185 140.47 40.7466 140.501 40.74C144.034 39.6822 153.993 35.8415 156.401 35.2694C157.598 34.9722 158.674 34.8103 159.61 34.817C160.541 34.8214 161.324 34.9988 161.907 35.2716C162.501 35.5377 162.889 35.8614 163.135 36.0943C163.381 36.3315 163.497 36.4735 163.497 36.4735C163.495 36.4735 163.415 36.3182 163.215 36.041C163.022 35.7705 162.69 35.3647 162.129 34.9678C161.572 34.5797 160.769 34.2205 159.769 34.0431C158.771 33.8657 157.596 33.8457 156.31 33.961C153.864 34.1561 149.181 35.3447 145.369 36.5422C140.685 38.2053 138.585 40.6424 136.904 41.4274Z" fill="white"/>
<path d="M141.262 30.3664C141.266 30.3642 141.178 30.1092 141.1 29.6701C141.022 29.231 140.991 28.5835 141.264 28.0047C141.515 27.4215 142.067 26.9004 142.834 26.3881C143.02 26.264 143.224 26.1398 143.442 26.0134L143.768 25.8227C143.85 25.7739 143.825 25.7983 143.843 25.7916L143.856 25.8005C143.892 25.8271 143.879 25.8604 143.879 25.8626C143.879 25.8626 143.894 25.8338 143.932 25.8515C143.934 25.7961 143.969 26.0134 143.989 26.1287L144.047 26.5123C144.085 26.7629 144.116 26.9957 144.14 27.2264C144.229 28.1466 144.158 28.8829 143.854 29.4927C143.555 30.0958 143.067 30.5438 142.719 30.8232C142.357 31.1115 142.129 31.2512 142.129 31.2534C142.131 31.2467 142.395 31.2778 142.881 31.2135C143.351 31.1403 144.103 30.9984 144.879 30.3664C145.258 30.0515 145.622 29.6058 145.89 29.0736C146.156 28.5458 146.32 27.9382 146.413 27.3217C146.46 27.0202 146.489 26.7075 146.495 26.397C146.497 26.2374 146.497 26.0866 146.502 25.9247C146.495 25.7495 146.504 25.6786 146.471 25.3326C146.371 24.1995 146.227 22.9754 146.078 21.7313L146.063 21.6338C145.001 22.186 143.976 22.6738 143.007 23.2991L142.657 23.5298C142.546 23.6052 142.406 23.7027 142.366 23.7382C142.238 23.8358 142.118 23.9356 142 24.042C141.763 24.246 141.535 24.4634 141.324 24.6918C140.905 25.1486 140.554 25.6497 140.302 26.1864C140.056 26.7164 139.929 27.2863 139.936 27.7985C139.956 28.8363 140.415 29.486 140.723 29.8519C141.042 30.2178 141.264 30.362 141.262 30.3664Z" fill="white"/>
<path d="M134.182 29.0736C134.208 29.3419 134.253 29.608 134.308 29.863C134.413 30.3752 134.59 30.8764 134.847 31.3088C135.096 31.7501 135.424 32.1182 135.785 32.3599C136.519 32.8633 137.207 32.8611 137.61 32.8256C138.027 32.7835 138.233 32.7059 138.236 32.7103C138.238 32.7059 138.02 32.6371 137.67 32.4708C137.324 32.3089 136.858 32.0184 136.59 31.5417C136.304 31.076 136.209 30.4396 136.231 29.6523C136.238 29.455 136.253 29.2488 136.273 29.0425L136.302 28.7232C136.315 28.6434 136.32 28.6722 136.324 28.6567L136.333 28.65C136.368 28.6367 136.386 28.6633 136.386 28.6633C136.386 28.6633 136.375 28.6389 136.404 28.6212C136.366 28.5857 136.535 28.6766 136.617 28.7143L136.918 28.8651C137.116 28.9627 137.297 29.0558 137.47 29.1556C138.153 29.5459 138.63 29.9606 138.901 30.4662C139.178 30.9717 139.253 31.5306 139.278 31.912C139.3 32.3089 139.284 32.5329 139.287 32.5329C139.282 32.5285 139.431 32.3644 139.626 31.994C139.819 31.6259 140.08 31.0383 140.025 30.1846C139.994 29.7654 139.865 29.2887 139.621 28.8407C139.38 28.3994 139.045 27.9803 138.655 27.6166C138.468 27.437 138.258 27.2685 138.049 27.1022C137.945 27.0246 137.832 26.9447 137.723 26.8671C137.599 26.7806 137.557 26.7429 137.295 26.5922C136.455 26.1043 135.528 25.6054 134.588 25.0931L134.519 25.0576C134.373 26.0688 134.211 27.0246 134.169 28.0047L134.155 28.3684C134.155 28.4748 134.157 28.6278 134.16 28.6722C134.162 28.8052 134.175 28.9405 134.182 29.0736Z" fill="white"/>
<path d="M144.646 31.1004C144.052 31.7102 143.857 32.3245 143.753 32.7148C143.662 33.1117 143.653 33.3313 143.648 33.329C143.651 33.3357 143.793 33.1494 144.061 32.87C144.327 32.5928 144.744 32.207 145.274 31.9963C145.808 31.7745 146.427 31.7524 147.181 31.8832C147.374 31.912 147.565 31.9497 147.775 31.9963L148.086 32.0606C148.174 32.0828 148.354 32.1293 148.307 32.1293C148.321 32.1604 148.294 32.1737 148.294 32.1737C148.296 32.1715 148.325 32.1626 148.338 32.1937L148.345 32.2048C148.341 32.2181 148.361 32.2003 148.314 32.2624L148.13 32.5285C148.008 32.697 147.879 32.8567 147.757 33.0164C147.263 33.624 146.78 34.0497 146.267 34.2316C145.76 34.4245 145.23 34.3602 144.87 34.2737C144.507 34.1872 144.303 34.1052 144.305 34.1074C144.305 34.103 144.405 34.2914 144.686 34.5819C144.957 34.8547 145.453 35.2738 146.318 35.3403C146.74 35.3758 147.223 35.2982 147.689 35.1208C148.157 34.9456 148.613 34.6751 149.03 34.3513C149.234 34.1872 149.434 34.0142 149.629 33.8302C149.731 33.7326 149.822 33.6373 149.913 33.5397C149.944 33.5064 150.046 33.3956 150.115 33.3113L150.341 33.0275C150.953 32.2602 151.459 31.4353 152.011 30.5815L151.931 30.5727C150.917 30.3753 149.913 30.189 148.975 30.0449C148.693 30.005 148.638 30.0072 148.485 29.9895C148.356 29.9828 148.232 29.9739 148.097 29.9739C147.84 29.9584 147.58 29.9651 147.316 29.9895C146.795 30.0272 146.283 30.138 145.815 30.3309C145.347 30.5194 144.939 30.7966 144.646 31.1004Z" fill="white"/>
<path d="M142.129 35.9503C144.22 35.019 142.788 31.7813 140.697 32.7083C138.601 33.6352 140.042 36.8728 142.129 35.9503Z" fill="white"/>
<path d="M47.0492 36.1207C42.0908 34.952 37.6602 34.8789 34.1654 35.5752C32.4202 35.9322 30.9189 36.4932 29.737 37.1851C28.9786 37.6286 28.371 38.1165 27.8698 38.6021C24.4393 39.0545 21.2705 39.8949 18.381 40.5247C16.5715 40.9216 14.853 41.2299 13.232 41.3829C11.6154 41.5425 10.1008 41.5403 8.7193 41.4139C5.95405 41.1722 3.76314 40.4715 2.28183 39.9326C0.79831 39.3805 0 38.9902 0 38.999C0.00443504 38.9902 0.72735 39.4958 2.14435 40.2386C3.55912 40.9682 5.70791 41.9483 8.57073 42.4828C10.001 42.7489 11.6043 42.8864 13.3184 42.8509C15.0326 42.8198 16.8465 42.6114 18.7225 42.3054C21.0997 41.9173 23.5745 41.3895 26.1402 40.9904C26.1291 41.017 26.1157 41.0458 26.1047 41.0702C26.1512 41.0591 26.2 41.0525 26.2488 41.0414C26.2643 41.0148 26.2821 40.9926 26.2976 40.966C27.7212 40.7487 29.1671 40.569 30.6417 40.4826C34.8439 40.1965 38.8465 40.6777 42.3946 41.6002C45.9559 42.5138 49.1292 43.7268 51.9011 44.4697C54.6663 45.2414 57.0014 45.5296 58.5936 45.574C60.1968 45.6205 61.0683 45.5075 61.0705 45.5163C61.0927 45.4786 57.4804 45.4919 52.2315 43.4474C49.5949 42.4717 46.5458 41.0126 42.8891 39.8572C39.2457 38.6886 34.9481 38.0322 30.4998 38.336C29.9831 38.367 29.4686 38.4136 28.9608 38.4668C29.3378 38.2429 29.737 38.0278 30.1938 37.8348C31.3846 37.3337 32.8459 36.9789 34.5202 36.8436C37.8531 36.5708 42.0353 37.0986 46.528 38.6065C47.6568 38.9857 48.7278 39.4536 49.9741 39.9792C51.2026 40.4892 52.491 40.9926 53.8703 41.4361C55.081 41.8197 66.2839 48.4678 73.4244 43.576C63.155 43.576 52.0452 37.6419 50.8123 37.2383C49.6037 36.837 48.2843 36.4023 47.0492 36.1207Z" fill="white"/>
<path d="M40.057 34.684C40.3032 34.4512 40.6935 34.1274 41.2855 33.8613C41.8687 33.5863 42.6493 33.4111 43.5829 33.4067C44.5165 33.3978 45.5942 33.5619 46.7916 33.8591C49.2021 34.4312 59.1588 38.272 62.6913 39.3297C62.7223 39.3386 66.257 40.0105 66.2881 40.0172C64.6072 39.2322 62.5072 36.7951 57.8216 35.132C52.9896 33.2116 49.3263 32.7459 46.8803 32.5508C45.592 32.4332 44.4167 32.4532 43.421 32.6328C42.4231 32.8102 41.6182 33.1695 41.0616 33.5575C40.5005 33.9545 40.1679 34.3603 39.975 34.6308C39.7776 34.9058 39.6956 35.0632 39.6934 35.0632C39.6978 35.0632 39.8109 34.9191 40.057 34.684Z" fill="white"/>
<path d="M56.7735 25.9114C56.8666 26.5278 57.0329 27.1354 57.299 27.6632C57.5651 28.1954 57.931 28.6433 58.3102 28.956C59.0863 29.588 59.8381 29.7299 60.3082 29.8031C60.796 29.8674 61.0599 29.8364 61.0621 29.843C61.0621 29.8386 60.8337 29.6989 60.4723 29.4128C60.1241 29.1334 59.6385 28.6855 59.3369 28.0823C59.0353 27.4725 58.9622 26.7363 59.0509 25.816C59.0752 25.5854 59.1041 25.3525 59.144 25.102L59.2016 24.7183C59.2216 24.6052 59.2571 24.3857 59.2593 24.4411C59.297 24.4234 59.3147 24.4522 59.3147 24.4522C59.3147 24.45 59.3014 24.4168 59.3369 24.3901L59.3502 24.3813C59.3657 24.3879 59.3436 24.3635 59.4256 24.4123L59.7516 24.603C59.9689 24.7294 60.1751 24.8536 60.3592 24.9778C61.1287 25.4878 61.6786 26.0111 61.9292 26.5943C62.2042 27.1731 62.1709 27.8206 62.0955 28.2597C62.0179 28.6988 61.9292 28.956 61.9336 28.956C61.9314 28.9516 62.1532 28.8074 62.4703 28.4393C62.7785 28.0734 63.2397 27.4237 63.2597 26.3859C63.2641 25.8737 63.14 25.3038 62.8916 24.7738C62.6388 24.2371 62.2884 23.736 61.8693 23.2792C61.6587 23.0485 61.4303 22.8334 61.193 22.6294C61.0732 22.523 60.9535 22.4232 60.8271 22.3256C60.7872 22.2901 60.6453 22.1926 60.5366 22.1172L60.184 21.8866C59.2172 21.2634 58.1927 20.7734 57.1305 20.2212L57.115 20.3187C56.9642 21.5628 56.8222 22.7869 56.7225 23.92C56.6892 24.266 56.6981 24.3369 56.6914 24.5121C56.6936 24.674 56.6958 24.8248 56.6958 24.9844C56.7003 25.2949 56.7269 25.6076 56.7735 25.9114Z" fill="white"/>
<path d="M63.5659 30.5817C63.7611 30.952 63.9074 31.1161 63.9052 31.1205C63.9074 31.1205 63.8919 30.8943 63.9119 30.4996C63.9385 30.1182 64.0116 29.5594 64.2888 29.0538C64.5594 28.5482 65.0361 28.1335 65.7191 27.7433C65.8921 27.6435 66.0739 27.5503 66.2713 27.4528L66.5707 27.302C66.6527 27.2643 66.8212 27.1734 66.7858 27.2088C66.8146 27.2266 66.8035 27.251 66.8035 27.251C66.8035 27.251 66.8235 27.2221 66.8567 27.2377L66.8656 27.2443C66.8722 27.2598 66.8745 27.231 66.8878 27.3108L66.9166 27.6302C66.9343 27.8386 66.9521 28.0448 66.9565 28.24C66.9787 29.0272 66.8833 29.6636 66.5973 30.1293C66.329 30.6061 65.8611 30.8966 65.5173 31.0584C65.167 31.227 64.9474 31.2957 64.9519 31.2979C64.9541 31.2935 65.1625 31.3711 65.5794 31.4132C65.9808 31.4465 66.666 31.4509 67.4044 30.9476C67.7637 30.7059 68.0919 30.34 68.3425 29.8965C68.5997 29.464 68.7771 28.9629 68.8813 28.4506C68.939 28.1934 68.9811 27.9273 69.0077 27.6612C69.0144 27.5282 69.0277 27.3929 69.0343 27.2576C69.0366 27.2133 69.0388 27.0603 69.0388 26.9538L69.0255 26.5901C68.9833 25.6122 68.8215 24.6543 68.6751 23.6431L68.6064 23.6785C67.6661 24.1886 66.737 24.6897 65.8965 25.1776C65.6371 25.3284 65.595 25.3638 65.4708 25.4525C65.3621 25.5279 65.249 25.6078 65.1448 25.6876C64.9341 25.8517 64.7257 26.0202 64.5394 26.2021C64.1491 26.5657 63.8143 26.9871 63.5726 27.4261C63.3309 27.8763 63.2023 28.3531 63.1712 28.77C63.1136 29.6259 63.3752 30.2158 63.5659 30.5817Z" fill="white"/>
<path d="M53.0727 31.8963C53.1415 31.9784 53.2457 32.0915 53.2745 32.1247C53.3677 32.2223 53.4564 32.3176 53.5584 32.4152C53.7535 32.5993 53.9553 32.7722 54.1571 32.9363C54.5762 33.2601 55.0308 33.5284 55.4987 33.7058C55.9644 33.8832 56.4478 33.963 56.8714 33.9253C57.734 33.8588 58.2329 33.4397 58.5034 33.1669C58.7851 32.8764 58.8849 32.6902 58.8849 32.6924C58.8871 32.6902 58.6831 32.7722 58.3194 32.8587C57.9602 32.9452 57.4324 33.0095 56.9224 32.8166C56.4101 32.6347 55.9267 32.209 55.4322 31.6014C55.3102 31.4417 55.1816 31.282 55.0619 31.1135L54.8778 30.8474C54.8312 30.7876 54.8534 30.8053 54.8468 30.7898L54.8534 30.7787C54.8667 30.7476 54.8955 30.7587 54.8978 30.7587C54.8978 30.7587 54.8712 30.7454 54.8845 30.7144C54.8379 30.7144 55.0175 30.6678 55.1062 30.6456L55.4167 30.5813C55.6251 30.5347 55.818 30.497 56.011 30.4682C56.7649 30.3374 57.3836 30.3596 57.918 30.5813C58.448 30.792 58.8649 31.1778 59.131 31.455C59.3993 31.7344 59.5412 31.9207 59.5435 31.914C59.539 31.9163 59.5324 31.6967 59.4415 31.2998C59.3372 30.9095 59.1399 30.2953 58.5478 29.6854C58.2551 29.3839 57.8471 29.1044 57.3747 28.9115C56.9068 28.7186 56.3946 28.6099 55.8735 28.57C55.6096 28.5456 55.3501 28.539 55.0929 28.5545C54.9576 28.5545 54.8312 28.5634 54.7048 28.57C54.5541 28.5855 54.4964 28.5833 54.2148 28.6255C53.2768 28.7696 52.2722 28.9559 51.2588 29.1532L51.1768 29.1621C51.7311 30.0181 52.2367 30.8408 52.8488 31.608L53.0727 31.8963Z" fill="white"/>
<path d="M62.4939 31.2976C60.4006 30.3707 58.9681 33.6083 61.0614 34.5396C63.1481 35.4621 64.5873 32.2246 62.4939 31.2976Z" fill="white"/>
<path d="M68.9258 38.56C67.0386 38.4735 66.9078 41.3896 68.7883 41.476C70.6709 41.5603 70.804 38.642 68.9258 38.56Z" fill="white"/>
<path d="M89.2374 13.0919C89.0321 12.9276 88.3175 12.5416 87.644 12.2377C86.0917 11.5314 84.8926 11.3507 83.5456 11.6299L82.5929 11.8271L82.6011 11.4328C82.6257 9.89695 83.6688 7.97505 85.139 6.75128C86.0753 5.97102 87.9315 5.01007 88.375 5.07578C88.7118 5.12506 90.1573 4.468 90.7404 3.99163C91.0361 3.75345 91.5864 3.26065 91.9642 2.89927C92.8266 2.06973 93.5576 1.62622 94.5842 1.31412C95.2659 1.10057 95.5287 1.09236 96.3336 1.22377C98.4527 1.56873 100.358 2.16829 101.96 2.98962L102.387 3.21137L101.442 4.66512C100.662 5.85604 100.49 6.23384 100.465 6.72664L100.432 7.33442L99.5286 7.74508C98.4527 8.23787 97.7956 8.77995 97.0646 9.76553L96.5225 10.4965L95.3891 10.7593C92.6459 11.3918 91.3975 11.9092 90.3215 12.8455C90.0177 13.1083 89.7302 13.3383 89.6891 13.3547C89.6481 13.3794 89.4427 13.2562 89.2374 13.0919ZM111.873 11.4246C110.411 10.1269 109.384 9.51092 108.12 9.17418C107.627 9.04277 106.682 9.16597 106.239 9.42879C106.042 9.54378 105.951 9.51914 105.836 9.30559C105.352 8.45142 103.34 7.31799 102.149 7.21943C101.869 7.19479 101.623 7.10445 101.607 7.02232C101.557 6.80056 102.42 5.25647 102.954 4.59941C103.964 3.35921 105.886 2.30792 107.61 2.0451C109.269 1.79049 110.354 2.02046 111.857 2.94855C112.727 3.48241 115.167 5.40431 115.208 5.59321C115.224 5.6507 115.922 6.17635 116.76 6.75128C118.23 7.76151 118.304 7.82721 118.674 8.6239C119.027 9.37951 119.232 10.4308 119.027 10.3651C117.721 9.97908 117.245 9.93801 116.341 10.1598C114.781 10.5376 113.007 11.4 112.842 11.8681C112.744 12.1474 112.612 12.0817 111.873 11.4246ZM106.075 13.9789C105.738 13.6175 105.45 13.2808 105.442 13.2233C105.401 13.0426 104.243 12.4595 103.29 12.1474C101.615 11.5971 100.218 10.4637 99.8489 9.36309C99.7503 9.07562 99.7996 9.0017 100.21 8.77173C100.465 8.6239 100.876 8.45963 101.114 8.40214C102.001 8.18859 103.849 8.84565 104.826 9.72447C105.245 10.1023 105.302 10.2173 105.36 10.8086C105.442 11.6546 105.886 12.6402 106.723 13.8722C107.093 14.406 107.438 14.9234 107.504 15.0138C107.75 15.3916 106.658 14.5949 106.075 13.9789ZM100.654 17.0753C100.596 16.1883 100.522 15.9172 100.186 15.2191C99.6436 14.1021 99.5614 13.6258 99.6928 12.3938L99.8078 11.3343L100.876 12.057C101.574 12.5334 102.272 12.8784 102.888 13.0508C104.136 13.4122 104.498 13.6175 105.179 14.406C105.5 14.7674 105.943 15.1945 106.165 15.3505L106.567 15.638L105.91 15.4819C105.278 15.3341 105.204 15.3423 104.227 15.7119C103.077 16.139 102.551 16.484 101.524 17.4778C101.138 17.8474 100.802 18.1512 100.785 18.1348C100.744 18.1184 100.695 17.642 100.654 17.0753ZM98.5019 18.4551C97.8941 18.4551 97.1796 18.5619 96.3911 18.7755L95.2002 19.0876L95.1838 18.5537C95.1756 18.258 95.1509 17.6092 95.1345 17.1164C95.1181 16.6154 95.1674 15.9008 95.2413 15.5148C95.4712 14.406 96.8921 11.5396 97.2535 11.4575C97.3357 11.441 97.6313 11.1043 97.9188 10.7101L98.4362 9.99551L98.5758 10.6279C98.6498 10.9811 98.6662 11.7203 98.6005 12.2706C98.4362 13.7982 98.5019 14.2582 99.0686 15.3177C99.4875 16.1062 99.5861 16.41 99.7175 17.3792C99.8489 18.3648 99.8407 18.5126 99.6518 18.4798C99.5204 18.4716 99.0112 18.4551 98.5019 18.4551ZM93.2865 17.7159C92.9251 17.0178 92.3174 16.5086 91.7014 16.4018C90.7076 16.2211 89.7466 15.9583 89.7302 15.868C89.6645 15.5641 90.3051 14.5292 90.8718 14.0528C91.7999 13.2562 92.4077 12.9194 93.4754 12.6155C93.9929 12.4677 94.5842 12.2788 94.7895 12.1967C95.5862 11.8763 95.6273 12.0406 95.0359 13.174C94.1325 14.8906 93.9518 15.8515 94.1161 18.1841C94.1736 18.9972 94.19 19.7364 94.1653 19.8185C94.1325 19.9007 93.9847 19.5803 93.8368 19.1122C93.6808 18.6276 93.4426 18.0034 93.2865 17.7159ZM81.0899 23.9252C79.6115 22.7096 79.2501 22.2579 78.5766 20.7384C78.0592 19.5639 78.0592 19.5639 78.1495 18.8001C78.1988 18.3812 78.2399 18.0198 78.2399 18.0116C78.2399 17.9952 78.5273 17.7324 78.8887 17.4285C79.2501 17.1246 79.94 16.3033 80.4328 15.6051C80.9174 14.907 81.443 14.2089 81.5991 14.0611C82.0262 13.6422 83.4389 12.8701 83.9727 12.7634C85.0733 12.5498 86.9706 13.0344 88.3997 13.8886L88.9499 14.2171L88.7692 14.8249L88.5886 15.4327L87.6851 15.3259C84.753 14.9892 82.7489 17.0917 82.2972 20.9602C82.1987 21.7897 82.2397 22.1182 82.6011 23.7445L83.0118 25.5924L82.6668 25.2639C82.4697 25.075 81.7634 24.4754 81.0899 23.9252ZM109.483 20.0649C109.483 19.8267 109.458 19.2682 109.426 18.8083C109.393 18.3484 109.393 17.6502 109.417 17.2396C109.483 16.2704 109.081 15.2602 107.923 13.5518C107.044 12.2541 106.452 11.055 106.51 10.6936C106.534 10.5458 106.715 10.4472 107.159 10.3487C108.218 10.1187 109.434 10.7511 111.405 12.5662C111.857 12.9851 112.686 13.7079 113.253 14.176C114.444 15.1616 114.682 15.5805 114.854 16.9521C115.002 18.1348 114.937 18.3812 114.477 18.4798C114.28 18.5208 113.598 18.8247 112.949 19.1533C111.799 19.7364 110.731 20.1717 109.902 20.377C109.491 20.492 109.483 20.4838 109.483 20.0649ZM123.248 15.3095C122.189 12.8866 121.901 12.4513 120.743 11.4739L120.037 10.8743L120.086 10.2255C120.152 9.43701 120.045 8.90315 119.643 7.96684C119.314 7.20301 118.986 6.8252 118.123 6.24206L117.573 5.87246L118.074 5.76569C118.821 5.60143 120.283 5.72462 120.965 6.00387C122.887 6.79234 123.897 7.82721 124.398 9.50271C124.546 10.0037 124.71 10.4554 124.76 10.5047C124.924 10.6772 125.433 13.3137 125.433 14.0282C125.441 14.9152 125.146 16.0569 124.694 16.9603C124.497 17.3381 124.324 17.642 124.3 17.6256C124.267 17.601 123.799 16.5579 123.248 15.3095ZM104.514 21.9704C103.931 21.8226 103.668 21.8308 102.863 22.0279L101.902 22.2661L101.352 21.8472C100.637 21.3051 100.095 21.0998 98.7648 20.8616C97.5163 20.6399 96.6868 20.5659 95.9476 20.607C95.6602 20.6234 95.3973 20.6152 95.3645 20.5988C95.1756 20.4838 95.6109 20.1881 96.4076 19.8925C97.196 19.5968 97.4424 19.5639 98.5512 19.5886C100.506 19.6296 100.908 19.5146 101.886 18.6112C103.142 17.4449 103.643 17.0835 104.506 16.7304L105.294 16.4018L106.608 16.7386C107.331 16.9275 107.996 17.1082 108.087 17.1492C108.21 17.2067 108.251 17.4449 108.259 18.102C108.276 20.0074 108.284 20.262 108.358 20.6152C108.415 20.8616 108.374 20.993 108.243 21.0259C107.89 21.0998 106.978 21.9375 106.707 22.4386L106.436 22.9314L105.82 22.5371C105.491 22.3236 104.9 22.069 104.514 21.9704ZM78.6095 30.1261C78.322 29.4609 78.2317 28.3767 78.3959 27.7279C78.5027 27.3254 78.8887 26.6109 79.4308 25.847L80.3014 24.6233L80.8845 25.075C82.1658 26.0688 83.5456 27.3008 83.8413 27.7197C84.2355 28.27 84.5312 28.8038 84.4573 28.8202C84.4244 28.8285 83.8577 28.8613 83.2007 28.8942C81.517 28.9845 79.8907 29.5019 79.3651 30.1179C79.0448 30.4957 78.7737 30.4957 78.6095 30.1261ZM118.074 26.6684C118.452 25.9045 118.92 23.958 118.912 23.1367C118.904 21.3626 117.622 18.9644 116.407 18.4634C115.807 18.217 115.742 18.0773 115.848 17.2642C115.922 16.6811 115.684 15.293 115.397 14.636C115.306 14.4389 114.887 14.0036 114.468 13.675C114.041 13.3465 113.68 13.0098 113.664 12.9276C113.573 12.4923 115.002 11.6956 116.53 11.326C117.228 11.1618 117.45 11.17 118.214 11.3918C119.15 11.671 120.702 12.7305 121.195 13.4368C121.335 13.634 121.869 14.7592 122.378 15.9255C123.232 17.872 123.979 19.2929 124.3 19.5639C124.365 19.6214 124.612 20.0978 124.842 20.6316C125.384 21.8883 125.4 22.4632 124.891 23.4241C124.291 24.5658 123.832 24.845 120.883 25.8881C119.24 26.463 118.337 26.8409 118.164 27.0133C117.836 27.3336 117.803 27.2104 118.074 26.6684ZM91.9478 32.6558C91.3154 32.3684 89.5249 31.1692 88.4325 30.2904C87.9069 29.8715 87.2334 29.4773 86.7324 29.2966C86.026 29.0502 85.8535 28.927 85.5907 28.4671C84.9829 27.4322 84.0631 24.9354 83.7099 23.4077C83.3978 22.0525 83.3814 21.8061 83.5128 20.837C83.7592 18.9808 84.2355 17.9541 85.2129 17.1492C85.6811 16.7632 85.8864 16.6811 86.601 16.5743C87.5208 16.4347 87.9561 16.5086 89.336 17.0178C89.8452 17.2067 90.5679 17.4038 90.9375 17.4531C91.7671 17.5517 92.1202 17.8474 92.5227 18.7508C93.1469 20.1635 93.2537 21.5187 92.7773 22.0361C92.3584 22.496 91.5125 24.4097 91.3236 25.305C91.0361 26.7259 91.0607 27.5965 91.4796 29.4609C91.7178 30.5532 92.0053 31.5224 92.2434 32.0234C92.4488 32.4669 92.5802 32.8365 92.5309 32.8447C92.4652 32.8612 92.2106 32.7708 91.9478 32.6558ZM97.5246 33.2143C96.6375 32.7544 95.7751 32.5983 94.7321 32.7215C94.3871 32.7626 94.0996 32.7133 93.96 32.5901C93.5658 32.2452 93.073 30.8818 92.6952 29.1406C92.3749 27.654 92.3502 27.3172 92.4488 26.3727C92.5555 25.3789 93.1633 23.5802 93.574 23.0545C93.8615 22.6932 94.9538 22.0854 95.5616 21.954C96.2187 21.8144 97.5738 21.9211 99.1097 22.2414C99.816 22.3893 100.251 22.5782 100.72 22.9396C101.467 23.5145 101.976 23.5884 102.954 23.2763C103.75 23.0135 104.703 23.2024 105.335 23.7362C106.05 24.344 106.847 26.5945 106.773 27.8264C106.715 28.7792 105.886 29.8633 104.218 31.1856C103.455 31.7852 103.348 31.8345 102.625 31.9002C102.198 31.9413 101.73 31.9823 101.59 31.9988C101.163 32.0398 100.202 32.5162 99.4054 33.0747C98.9947 33.3622 98.6005 33.6168 98.5348 33.6414C98.4527 33.6496 98.0091 33.4607 97.5246 33.2143ZM105.294 32.1548L104.76 32.122L105.319 31.7524C106.797 30.7668 107.906 29.1488 107.996 27.8593C108.037 27.2351 107.734 25.6499 107.364 24.5904C107.126 23.9005 107.126 23.8677 107.454 23.2927C107.947 22.4386 108.768 21.9458 110.584 21.4201C111.421 21.1819 112.481 20.7795 113.007 20.5002C115.692 19.0958 116.037 19.1286 117.039 20.8698C117.483 21.6419 117.598 21.954 117.672 22.6192C117.902 24.6233 116.62 27.5718 114.863 29.0584C113.508 30.2083 113.368 30.2822 112.793 30.2576C111.692 30.2001 109.935 30.6189 108.514 31.2596C107.035 31.9413 106.075 32.2041 105.294 32.1548ZM118.559 30.7421C118.271 30.6107 117.762 30.4875 117.442 30.4629C117.121 30.4382 116.53 30.389 116.128 30.3561L115.405 30.2904L115.783 29.9208C116.908 28.8367 119.823 27.1776 121.097 26.8983L121.524 26.808L121.195 27.7689C121.014 28.2946 120.752 28.927 120.604 29.1734C120.464 29.4198 120.275 29.814 120.201 30.0522C120.119 30.2904 119.971 30.6271 119.865 30.8078C119.651 31.1774 119.544 31.1692 118.559 30.7421ZM91.8821 40.0888C91.496 40.0395 90.9622 39.9163 90.6911 39.8178C89.6891 39.4646 87.6358 39.0047 87.1759 39.0293C86.9131 39.0457 86.0014 38.8979 85.139 38.6925C83.5949 38.3312 82.5683 37.8302 82.0508 37.1813C81.6484 36.6803 80.326 34.2081 79.9154 33.1979C79.6854 32.623 79.439 32.0809 79.3815 31.9823C79.2994 31.8591 79.4554 31.6374 79.9072 31.2267C80.5396 30.6518 80.556 30.6436 82.0508 30.3397C84.6462 29.8058 86.0178 30.0194 87.6112 31.2103C89.6973 32.7544 91.3236 33.7646 92.0217 33.9289C92.7034 34.0931 93.5494 34.0849 95.2495 33.8796C95.9065 33.8057 96.2761 33.8467 96.8839 34.0603L97.6724 34.3395L97.582 35.0048C97.3439 36.7214 95.6848 38.7911 93.8204 39.7028C92.958 40.1463 92.6787 40.2038 91.8821 40.0888ZM118.92 36.4257C119.027 36.3271 119.207 35.9493 119.322 35.5879C119.437 35.2183 119.618 34.7256 119.725 34.4874C119.832 34.2492 120.045 33.6086 120.201 33.0747C120.357 32.5326 120.637 31.7934 120.825 31.432C121.014 31.0625 121.212 30.6107 121.261 30.4218C121.31 30.2329 121.515 29.7894 121.721 29.4444C121.918 29.0995 122.164 28.5163 122.263 28.1385C122.452 27.4076 123.413 26.0113 123.782 25.9374C124.571 25.7649 126.066 23.8923 126.263 22.841C126.452 21.8144 126.131 20.6234 125.318 19.2765C124.99 18.7344 124.99 18.7262 125.211 18.3484C125.335 18.143 125.491 17.9541 125.548 17.9459C125.712 17.9131 127.347 20.0649 127.987 21.1573C128.291 21.6665 128.653 22.4878 128.801 22.9724C129.104 23.9909 129.039 24.3687 128.291 25.6828C127.848 26.4548 126.92 28.8942 126.345 30.7996C126.164 31.3992 125.893 32.0563 125.753 32.2698C125.244 33.0172 122.435 35.2758 121.327 35.8179C120.39 36.2532 118.6 36.7214 118.92 36.4257ZM82.0426 45.1481C82.0344 45.0989 82.1987 44.5157 82.404 43.8505C82.6175 43.1852 82.8393 42.3064 82.905 41.8957C83.0364 41.0744 83.2828 40.5734 83.7427 40.1874C84.1616 39.8342 84.4655 39.8013 85.2458 39.9985C85.6154 40.097 86.3381 40.1956 86.8309 40.2284C88.0301 40.3023 90.995 41.058 91.0525 41.3126C91.0607 41.3536 90.7486 41.6165 90.3626 41.9121C89.9766 42.1996 89.4017 42.6349 89.0978 42.8813C88.4325 43.4152 87.2416 43.7848 85.5743 43.9737C84.4573 44.1051 82.8311 44.6389 82.4286 45.0085C82.2151 45.2221 82.0755 45.2631 82.0426 45.1481ZM110.46 39.7438C109.943 39.596 107.602 39.3003 106.707 39.2675C105.82 39.2346 104.399 38.7911 103.372 38.2162C102.65 37.8137 99.9885 35.0705 99.6271 34.356C99.5122 34.126 99.5779 34.0685 100.399 33.6907C101.565 33.1486 102.666 33.009 104.013 33.2307C105.877 33.5346 106.477 33.4525 108.415 32.623C111.011 31.5142 112.169 31.3581 115.988 31.6045C117.458 31.7031 118.049 31.8016 118.542 32.0398C118.895 32.2123 119.191 32.393 119.207 32.4587C119.232 32.5737 118.789 33.9289 118.608 34.282C118.542 34.4052 118.411 34.7666 118.312 35.0869C117.992 36.1054 116.349 38.1012 115.282 38.7665C115.011 38.9307 114.271 39.2593 113.639 39.481C112.612 39.8506 112.382 39.8917 111.594 39.8588C111.109 39.826 110.592 39.7767 110.46 39.7438ZM114.337 41.8957C113.327 42.1257 113.089 42.1339 112.432 41.9778C112.013 41.8793 111.421 41.6247 111.101 41.4111C110.46 40.9923 110.485 40.9758 111.807 41.099C113.089 41.214 115.725 40.0806 116.9 38.8979C117.376 38.4215 117.713 38.1833 117.893 38.1833C118.189 38.1915 121.129 37.3292 121.696 37.0663C122.025 36.9185 122.016 36.9513 121.524 37.9451C121.236 38.5119 120.825 39.1689 120.604 39.3989C119.495 40.5323 118.09 41.2551 116.505 41.485C115.947 41.559 114.969 41.7479 114.337 41.8957ZM93.7383 47.7846C93.7629 47.6203 93.5494 46.5198 93.2701 45.3453C92.8677 43.6533 92.7691 43.062 92.8102 42.4871C92.843 42.0928 92.8923 41.6904 92.9334 41.6C92.9662 41.5097 93.4919 41.2058 94.0914 40.9348C94.691 40.6637 95.5041 40.1791 95.8901 39.867C96.7197 39.2018 97.7463 37.863 98.1488 36.9349L98.428 36.2861L98.6005 36.6146C98.6908 36.7953 98.8633 37.3127 98.9783 37.7562C99.1672 38.4954 99.159 38.6761 98.8715 39.8013C98.6251 40.7869 98.4362 41.1976 97.9516 41.8382C97.0728 43.0045 96.7772 43.5137 95.9394 45.3206C95.3152 46.6676 95.077 47.029 94.5432 47.4889C93.7793 48.146 93.689 48.1788 93.7383 47.7846ZM109.064 46.7169C108.144 46.0187 106.756 45.0414 105.992 44.565C104.506 43.6287 103.684 42.8731 103.027 41.8629C102.806 41.5179 102.436 40.9512 102.214 40.6144C101.894 40.1216 100.802 37.8384 100.736 37.5181C100.728 37.477 101.114 37.8302 101.598 38.2983C102.921 39.5878 104.949 40.5077 106.534 40.5241C108.013 40.5405 108.448 40.6555 108.875 41.1401C109.089 41.3865 109.573 41.8054 109.943 42.0764C110.345 42.3721 110.616 42.6595 110.616 42.7992C110.625 45.2631 110.682 45.8709 111.06 47.0454C111.274 47.7025 111.43 48.302 111.405 48.3677C111.38 48.4417 111.224 48.3842 111.052 48.2445C110.887 48.1049 109.992 47.4232 109.064 46.7169ZM122.099 45.8463C121.819 45.7724 121.195 45.7395 120.711 45.7641C120.226 45.7888 119.782 45.797 119.725 45.7724C119.667 45.7477 119.027 45.8298 118.304 45.9366C116.3 46.2487 115.175 46.068 113.926 45.2139C113.45 44.8853 112.21 43.4234 112.292 43.292C112.325 43.2427 112.522 43.2509 112.727 43.292C112.998 43.3577 113.935 43.2098 116.037 42.7745C118.969 42.1667 118.969 42.1667 119.232 42.4214C119.38 42.561 120.111 43.1359 120.867 43.6944C121.614 44.2529 122.419 44.9675 122.649 45.2796C122.879 45.5917 123.109 45.8873 123.15 45.9366C123.265 46.0516 122.756 46.0105 122.099 45.8463ZM112.21 46.8894C112.004 46.2077 111.816 45.4028 111.791 45.0824L111.75 44.5075L112.103 44.9428C112.3 45.181 112.678 45.6081 112.957 45.8873C113.335 46.2734 113.442 46.4541 113.384 46.6512C113.261 47.0865 113.302 48.9755 113.458 50.5771L112.21 46.8894ZM106.083 45.9038L107.068 46.7005L106.083 45.9038ZM104.358 44.9346L105.097 45.4438L104.358 44.9346ZM113.466 50.5853C113.491 50.5525 114.567 46.8811 114.715 46.9633C115.241 47.2589 116.941 47.3329 118.353 47.1111C119.101 46.9961 119.873 46.9222 120.07 46.9551C120.259 46.9879 120.554 46.9797 120.727 46.9386C120.899 46.9058 121.565 46.9633 122.214 47.07C123.823 47.3493 124.16 47.3247 124.382 46.9386C124.521 46.6922 124.521 46.5115 124.349 46.0187C123.988 44.9757 123.133 44.0065 121.524 42.8074C120.711 42.1996 120.029 41.6657 120.021 41.6082C120.012 41.5508 120.234 41.3126 120.53 41.0744C121.483 40.2859 122.016 39.5221 122.756 37.8712C123.158 36.976 123.511 36.1875 123.536 36.1136C123.585 35.9904 124.415 35.2101 125.795 33.9946C126.575 33.3047 127.15 32.278 127.528 30.8818C127.7 30.2329 128.02 29.2473 128.242 28.6888C128.464 28.1385 128.702 27.4651 128.768 27.194C128.842 26.923 129.113 26.3316 129.367 25.8799C129.975 24.8204 130.139 24.0155 129.942 23.1285C129.614 21.6665 128.143 19.2847 126.452 17.4613L125.959 16.9357L126.148 16.4511C126.394 15.8187 126.583 14.6442 126.575 13.749C126.567 13.0837 126.222 11.6217 125.425 8.88672C124.719 6.48845 122.107 4.62405 119.347 4.55834C118.608 4.54192 117.869 4.60762 117.302 4.75546L116.415 4.97722L115.142 3.87665C112.777 1.83155 111.044 0.911669 109.196 0.706338C107.758 0.550287 105.015 1.33876 103.676 2.29149L103.134 2.67751L102.477 2.26685C100.851 1.2402 99.66 0.772044 97.5738 0.320316C95.5698 -0.106772 95.2084 -0.106772 93.9682 0.320316C92.7937 0.722765 92.0053 1.21556 91.0936 2.1108C89.9766 3.20316 89.2045 3.67132 88.1697 3.85201C87.0773 4.04912 85.6154 4.78831 84.4327 5.74105C82.4615 7.33442 81.3445 9.54378 81.3609 11.8188C81.3691 12.5416 81.3281 12.6484 80.9174 13.018C80.671 13.2397 80.0468 14.0118 79.5376 14.7263C79.0284 15.4409 78.2974 16.3033 77.9278 16.6482C77.3446 17.1821 77.2297 17.371 77.0982 18.0116C77.0161 18.4223 76.975 19.0547 77.0161 19.4243C77.1065 20.3442 77.9524 22.1429 78.782 23.1942C79.3815 23.958 79.4226 24.0319 79.2419 24.1962C78.8148 24.574 77.7799 26.0442 77.4596 26.7259C76.975 27.7607 76.9422 28.656 77.3364 30.0276C78.0099 32.2944 79.9072 36.3764 80.9667 37.7973C81.1556 38.0519 81.6648 38.5119 82.1083 38.8157C82.8229 39.325 82.8804 39.3907 82.675 39.5139C82.3301 39.711 81.903 40.6801 81.7387 41.6165C81.6648 42.0682 81.443 42.8977 81.2541 43.4644C80.8681 44.6307 80.5971 46.3062 80.7121 46.8237C80.8435 47.4396 81.4348 47.5546 81.8948 47.0536C82.018 46.9222 82.4697 46.5773 82.905 46.2816C83.6853 45.7559 83.7263 45.7395 86.2149 45.2303L88.7364 44.7128L89.7877 43.8915C90.3626 43.4398 90.9704 42.9142 91.1429 42.7252C91.3154 42.5363 91.4796 42.4049 91.5207 42.4296C91.5535 42.4542 91.5946 42.8238 91.611 43.2427C91.6275 43.7437 91.7835 44.5404 92.0545 45.5013C92.2845 46.3144 92.4981 47.1193 92.5227 47.2754C92.5884 47.686 92.4159 48.261 91.9806 49.0659C91.1347 50.6182 92.1367 50.8317 93.9764 49.493C95.9148 48.0721 96.2269 47.7271 96.9661 46.0434C97.582 44.6636 98.2063 43.4973 98.814 42.6103L99.4382 41.6986L99.5368 42.5199C99.7093 43.949 105.27 43.6041 105.122 45.4685" fill="white"/>
</svg>
