<svg width="68" height="68" viewBox="0 0 68 68" fill="none" xmlns="http://www.w3.org/2000/svg">
<g clip-path="url(#clip0)">
<path d="M38.5996 16.8C39.4996 10.7 37.5996 4.8 33.7996 0C29.9996 4.8 28.0996 10.7 28.9996 16.8C27.0996 13.7 23.6996 11.6 20.0996 11.3C20.2996 20.2 25.8996 29.6 33.5996 33.9C41.2996 29.6 47.3996 20.1 47.5996 11.3C43.8996 11.6 40.4996 13.7 38.5996 16.8Z" fill="#083D68"/>
<path d="M28.9 51.1C28 57.2 29.9 63.1 33.7 67.9C37.5 63.1 39.4 57.2 38.5 51.1C40.4 54.2 43.8 56.3 47.4 56.6C47.3 47.7 41.7 38.3 34 34C26.3 38.3 20.2 47.8 20 56.6C23.6 56.3 27 54.2 28.9 51.1Z" fill="#083D68"/>
<path d="M50.7992 38.8C56.8992 39.7 62.6992 37.8 67.4992 33.9C62.6992 30 56.7992 28.1 50.7992 29C53.8992 27.1 55.9992 23.6 56.2992 20C47.3992 20.3 37.9992 26 33.6992 33.7C37.9992 41.5 47.3992 47.6 56.1992 47.8C55.8992 44.2 53.7992 40.7 50.7992 38.8Z" fill="#083D68"/>
<path d="M16.7 29.1C10.7 28.2 4.8 30.1 0 34C4.8 37.9 10.7 39.8 16.7 38.9C13.6 40.8 11.5 44.3 11.2 47.9C20 47.7 29.4 42.0999 33.7 34.2999C29.4 26.4999 20 20.4 11.2 20.2C11.5 23.7 13.6 27.2 16.7 29.1Z" fill="#083D68"/>
<path d="M43.5008 36.8C47.0008 37.3 50.4008 36.2 53.1008 34C50.4008 31.8 47.0008 30.7 43.5008 31.2C45.3008 30.1 46.5008 28.1 46.6008 26C44.1008 26 41.5008 26.9 39.2008 28.4C40.6008 26.1 41.5008 23.5 41.6008 21C39.5008 21.2 37.6008 22.4 36.5008 24.2C37.0008 20.7 35.9008 17.3 33.7008 14.5C31.5008 17.3 30.4008 20.7 30.9008 24.2C29.8008 22.4 27.8008 21.2 25.8008 21C25.8008 23.5 26.6008 26 28.0008 28.3C25.8008 26.9 23.3008 26.1 20.8008 26C21.0008 28.1 22.2008 30.1 23.9008 31.2C20.4008 30.7 17.0008 31.8 14.3008 34C17.0008 36.2 20.4008 37.3 23.9008 36.8C22.1008 37.9 20.9008 39.9 20.8008 42C23.1008 42 25.5008 41.2 27.6008 40.1C26.5008 42.1 25.8008 44.4 25.8008 46.6C27.9008 46.4 29.8008 45.2 30.9008 43.4C30.4008 46.9 31.5008 50.3 33.7008 53.1C35.9008 50.3 37.0008 46.9 36.5008 43.4C37.6008 45.2 39.6008 46.4 41.6008 46.6C41.6008 44.4 41.0008 42.2 39.9008 40.2C42.0008 41.3 44.3008 42 46.6008 42C46.5008 39.8 45.3008 37.9 43.5008 36.8Z" fill="#FBB040"/>
<circle cx="34" cy="35" r="4" fill="#083D68"/>
</g>
<defs>
<clipPath id="clip0">
<rect width="67.5" height="67.9" fill="white"/>
</clipPath>
</defs>
</svg>
