<svg width="331" height="135" viewBox="0 0 331 135" fill="none" xmlns="http://www.w3.org/2000/svg">
<path d="M14.0805 2.18347C17.8111 2.19123 21.3866 3.67766 24.0232 6.317C26.6597 8.95635 28.1425 12.5333 28.1463 16.264V22.3445C28.1308 26.0817 26.6364 29.6608 23.9896 32.2993C21.3429 34.9378 17.7591 36.4212 14.0219 36.425H12.3662C11.216 36.4346 10.0827 36.703 9.05042 37.2102C8.0181 37.7175 7.11322 38.4507 6.40289 39.3554V66.1684H0V2.18347H14.0805ZM21.7581 16.264C21.7581 14.2277 20.9492 12.2749 19.5094 10.8351C18.0695 9.39525 16.1167 8.58636 14.0805 8.58636H6.40289V31.3554C8.2646 30.4667 10.3033 30.0109 12.3662 30.0221H14.0219C16.0572 30.0261 18.0117 29.2264 19.4604 27.7968C20.9092 26.3673 21.7349 24.4236 21.7581 22.3885V16.264Z" fill="white"/>
<path d="M71.2231 16V52.0876C71.284 53.9739 70.965 55.8533 70.2852 57.6139C69.6053 59.3745 68.5785 60.9804 67.2657 62.3363C65.9528 63.6922 64.3808 64.7703 62.6431 65.5066C60.9053 66.2429 59.0373 66.6223 57.15 66.6223C55.2626 66.6223 53.3946 66.2429 51.6568 65.5066C49.9191 64.7703 48.3471 63.6922 47.0342 62.3363C45.7214 60.9804 44.6946 59.3745 44.0147 57.6139C43.3349 55.8533 43.0159 53.9739 43.0768 52.0876V22.4468C44.5161 24.9103 46.7862 26.7804 49.4797 27.7215V52.0876C49.4797 54.1161 50.2855 56.0615 51.7198 57.4958C53.1541 58.9301 55.0995 59.7359 57.128 59.7359C59.1564 59.7359 61.1018 58.9301 62.5361 57.4958C63.9705 56.0615 64.7763 54.1161 64.7763 52.0876V16.1172C64.6557 14.1706 63.7975 12.3432 62.3764 11.0073C60.9553 9.67154 59.0783 8.92787 57.128 8.92787C55.1776 8.92787 53.3007 9.67154 51.8796 11.0073C50.4585 12.3432 49.6002 14.1706 49.4797 16.1172C49.4238 16.6521 49.4818 17.1929 49.6499 17.7038C49.818 18.2147 50.0924 18.6843 50.4551 19.0815C50.8177 19.4787 51.2604 19.7947 51.7539 20.0085C52.2474 20.2224 52.7806 20.3293 53.3185 20.3223V26.7252C50.6185 26.7253 48.0274 25.6609 46.1073 23.7627C44.1872 21.8646 43.093 19.2858 43.0621 16.586C43.0653 12.9083 44.5072 9.37778 47.0796 6.7494C49.652 4.12101 53.1507 2.60341 56.8275 2.52111C60.5043 2.43881 64.0674 3.79834 66.7548 6.30898C69.4423 8.81963 71.0408 12.2821 71.2085 15.956L71.2231 16Z" fill="white"/>
<path d="M107.428 66.168C106.683 64.3042 106.305 62.3142 106.314 60.3072C106.32 59.3247 106.408 58.3445 106.578 57.3768C107.716 53.0406 108.336 48.5845 108.424 44.1022C108.423 42.3915 107.855 40.7295 106.807 39.377C105.76 38.0245 104.293 37.0582 102.637 36.6297L93.0835 40.2048V66.168H86.6807V2.44678H100.703C102.552 2.44486 104.384 2.80774 106.093 3.51467C107.802 4.2216 109.355 5.25869 110.663 6.56657C111.971 7.87444 113.008 9.42743 113.715 11.1366C114.422 12.8458 114.785 14.6777 114.783 16.5273V22.388C114.787 24.4655 114.331 26.5181 113.447 28.398C112.563 30.2779 111.273 31.9383 109.67 33.2598C111.274 34.5828 112.566 36.2456 113.45 38.1282C114.334 40.0108 114.79 42.0662 114.783 44.1461C114.74 49.0928 114.081 54.0147 112.82 58.798C112.75 59.2836 112.711 59.7729 112.702 60.2632C112.727 62.3934 113.459 64.455 114.783 66.124L107.428 66.168ZM103.325 29.5382C104.807 29.0011 106.089 28.0243 107 26.7387C107.911 25.4531 108.408 23.9198 108.424 22.3441V16.4833C108.43 15.469 108.234 14.4637 107.848 13.5259C107.461 12.5881 106.892 11.7364 106.174 11.0206C105.455 10.3047 104.601 9.73896 103.662 9.3562C102.723 8.97344 101.717 8.78133 100.703 8.79106H93.0835V33.377L103.325 29.5382Z" fill="white"/>
<path d="M155.779 10.8278C152.69 9.39227 149.325 8.64727 145.918 8.64463H145.23V66.168H138.827V8.64463C134.478 8.65215 130.181 7.70168 126.241 5.86077L128.937 0C132.026 1.4355 135.391 2.18049 138.797 2.18314H145.889C150.241 2.18793 154.539 3.15351 158.475 5.01095L155.779 10.8278Z" fill="white"/>
<path d="M179.559 52.3071C179.613 54.3062 180.446 56.2052 181.88 57.5986C183.315 58.992 185.237 59.7694 187.237 59.7649H187.457C189.412 59.7055 191.27 58.8994 192.649 57.5123C194.027 56.1251 194.823 54.2624 194.87 52.3071V2.24146H201.273V52.4096C201.192 56.0278 199.72 59.4756 197.163 62.0374C194.607 64.5992 191.162 66.0783 187.544 66.1678H187.222C183.545 66.1613 180.016 64.7197 177.386 62.15C174.756 59.5803 173.233 56.0854 173.142 52.4096V2.24146H179.544L179.559 52.3071Z" fill="white"/>
<path d="M247.061 74.7251C244.941 74.7174 242.911 73.872 241.412 72.3734C239.914 70.8748 239.069 68.8445 239.061 66.7252V63.8827C236.925 65.271 234.456 66.0603 231.911 66.1684H231.5C227.852 66.1717 224.344 64.7648 221.709 62.2417C219.074 59.7187 217.516 56.2748 217.361 52.63V16.264C217.361 12.5296 218.845 8.94816 221.485 6.30755C224.126 3.66695 227.707 2.18347 231.442 2.18347C235.176 2.18347 238.758 3.66695 241.398 6.30755C244.039 8.94816 245.522 12.5296 245.522 16.264C245.522 17.6108 245.257 18.9445 244.742 20.1889C244.226 21.4332 243.471 22.5639 242.518 23.5163C241.566 24.4687 240.435 25.2242 239.191 25.7396C237.947 26.255 236.613 26.5203 235.266 26.5203V20.1028C235.771 20.1067 236.272 20.01 236.74 19.8185C237.207 19.627 237.632 19.3443 237.989 18.9871C238.346 18.6299 238.629 18.2051 238.82 17.7376C239.012 17.2701 239.109 16.7692 239.105 16.264C239.105 14.2277 238.296 12.2749 236.856 10.8351C235.416 9.39525 233.463 8.58636 231.427 8.58636C229.391 8.58636 227.438 9.39525 225.998 10.8351C224.558 12.2749 223.75 14.2277 223.75 16.264V52.4688C223.84 54.4537 224.697 56.326 226.14 57.6922C227.583 59.0584 229.499 59.812 231.486 59.7948H231.852C233.756 59.6945 235.553 58.8883 236.894 57.5337C238.236 56.1791 239.024 54.3733 239.105 52.4688V36.3517H235.749C235.527 36.3508 235.306 36.3964 235.102 36.4857C234.898 36.5749 234.715 36.7059 234.565 36.8701C234.415 37.0342 234.3 37.2281 234.229 37.4391C234.158 37.6501 234.132 37.8736 234.152 38.0953C234.149 38.3047 234.19 38.5124 234.273 38.7045C234.357 38.8966 234.48 39.0686 234.636 39.2089L230.108 43.7363C228.982 42.6231 228.212 41.1995 227.898 39.647C227.584 38.0946 227.739 36.4837 228.344 35.02C228.95 33.5562 229.977 32.306 231.296 31.4289C232.615 30.5518 234.166 30.0875 235.749 30.0954H245.464V66.7252C245.475 67.1452 245.647 67.545 245.944 67.8421C246.241 68.1393 246.641 68.3111 247.061 68.3222V74.7251Z" fill="white"/>
<path d="M289.068 66.1678H282.562L280.057 51.3986C279.67 50.0914 278.87 48.9449 277.776 48.1312C276.682 47.3175 275.354 46.8805 273.991 46.8858H270.636L267.383 66.1385H260.877L271.793 2.24146H278.196L289.068 66.1678ZM273.991 40.5269C275.468 40.524 276.933 40.7922 278.313 41.3181L274.943 21.538L271.749 40.5855L273.991 40.5269Z" fill="white"/>
<path d="M330.65 65.0542L325.478 68.7758C324.886 67.974 324.116 67.3209 323.229 66.8682C322.341 66.4155 321.36 66.1757 320.364 66.1678H303.72V2.24146H310.123V59.7649H320.379C322.386 59.7789 324.361 60.265 326.146 61.1839C327.93 62.1028 329.473 63.4286 330.65 65.0542Z" fill="white"/>
<path d="M231.937 101.819C232.877 100.434 233.903 98.7782 235.016 96.8528C236.171 94.9209 237.208 92.9216 238.128 90.855C239.042 88.7467 239.785 86.6433 240.358 84.5448C240.931 82.4464 241.124 80.5138 240.936 78.747C240.894 78.7535 240.849 78.7391 240.801 78.7038C240.024 78.6531 239.248 78.7518 238.474 78.9999C237.693 79.2063 236.95 79.5138 236.243 79.9225C235.537 80.3311 234.837 80.7816 234.144 81.2738C233.45 81.7659 232.798 82.2517 232.188 82.7309C230.962 83.6477 229.636 84.7509 228.211 86.0405C226.786 87.3301 225.374 88.7033 223.974 90.1599C222.568 91.5748 221.232 93.0218 219.964 94.5008C218.738 95.9734 217.691 97.3542 216.821 98.6433L216.884 98.6336C216.65 99.0547 216.369 99.5899 216.042 100.239C215.75 100.84 215.486 101.48 215.249 102.158C215.011 102.836 214.858 103.501 214.788 104.153C214.718 104.806 214.805 105.369 215.05 105.845C215.77 106.631 216.913 107.245 218.478 107.687C220.084 108.122 221.855 108.511 223.789 108.853C225.759 109.147 227.777 109.476 229.843 109.84C231.903 110.163 233.79 110.619 235.507 111.208C237.264 111.791 238.693 112.596 239.793 113.623C240.928 114.602 241.514 115.901 241.551 117.52C241.577 118.243 241.424 118.908 241.09 119.516C240.798 120.117 240.392 120.671 239.872 121.179C239.388 121.639 238.855 122.064 238.274 122.453C237.692 122.842 237.129 123.208 236.583 123.549C235.883 123.999 235.103 124.483 234.242 125.001C233.43 125.555 232.563 126.031 231.642 126.43C230.768 126.865 229.879 127.195 228.973 127.421C228.067 127.646 227.15 127.66 226.221 127.462C225.016 127.135 223.803 126.618 222.581 125.909C221.366 125.242 220.41 124.449 219.712 123.531C219.007 122.571 218.703 121.57 218.798 120.529C218.929 119.44 219.744 118.352 221.243 117.265L225.468 120.523C224.871 121.086 224.357 121.636 223.927 122.173C223.497 122.71 223.318 123.208 223.389 123.667C224.32 123.608 225.278 123.439 226.26 123.158C227.279 122.83 228.245 122.445 229.16 122.004C230.117 121.556 231.023 121.053 231.877 120.493C232.773 119.927 233.603 119.349 234.367 118.761C234.486 118.699 234.71 118.494 235.041 118.143C235.413 117.786 235.782 117.408 236.148 117.01C236.508 116.569 236.787 116.163 236.985 115.79C237.178 115.375 237.153 115.08 236.912 114.903C235.688 114.451 234.303 114.067 232.757 113.75C231.247 113.386 229.782 113.035 228.361 112.699C226.809 112.341 225.188 111.95 223.498 111.528C221.849 111.099 220.185 110.566 218.504 109.928C217.729 109.62 216.882 109.26 215.963 108.846C215.079 108.384 214.227 107.853 213.408 107.253C212.588 106.653 211.884 105.971 211.295 105.207C210.665 104.45 210.272 103.57 210.117 102.567C209.929 101.356 210.097 100.091 210.619 98.7696C211.135 97.4069 211.746 96.2434 212.452 95.2789C215.388 91.3181 218.658 87.5835 222.263 84.0751C225.909 80.5602 229.944 77.6265 234.369 75.2739C236.084 74.7518 237.728 74.7326 239.299 75.2162C240.871 75.6999 242.261 76.5323 243.47 77.7134C244.039 78.3522 244.497 78.9654 244.845 79.553C245.234 80.1341 245.498 80.7346 245.637 81.3545C245.776 81.9744 245.817 82.6523 245.759 83.388C245.702 84.1238 245.554 84.9592 245.314 85.8943C244.475 89.3166 243.304 92.6621 241.8 95.9308C240.29 99.1578 238.483 102.26 236.378 105.237L231.937 101.819ZM246.012 88.4159C246.973 88.2672 247.832 88.1556 248.59 88.081C249.383 87.9581 250.138 87.8627 250.855 87.7945C251.451 86.1202 251.957 84.6949 252.373 83.5186C252.825 82.2942 253.134 81.3911 253.301 80.8095L257.458 83.6295C257.3 83.9959 257.097 84.4764 256.847 85.071C256.632 85.6173 256.413 86.2713 256.189 87.0329C256.272 87.02 256.376 87.0038 256.502 86.9844C256.621 86.9233 256.743 86.883 256.868 86.8636L258.004 90.472C257.342 90.6172 256.764 90.7494 256.269 90.8688C255.81 90.9399 255.351 91.011 254.891 91.0821C254.363 92.917 253.843 94.9431 253.331 97.1604C252.854 99.3294 252.467 101.527 252.171 103.754C251.874 105.981 251.72 108.164 251.709 110.303C251.734 112.395 252.004 114.277 252.52 115.95C252.898 115.635 253.312 114.994 253.761 114.026C254.252 113.053 254.744 111.95 255.237 110.719C255.773 109.482 256.278 108.185 256.752 106.829C257.268 105.466 257.758 104.214 258.223 103.074L262.317 105.903C262.109 106.491 261.849 107.301 261.538 108.333C261.221 109.323 260.851 110.385 260.428 111.519C259.999 112.612 259.483 113.697 258.88 114.773C258.318 115.844 257.669 116.757 256.93 117.512C256.186 118.226 255.364 118.717 254.464 118.985C253.565 119.252 252.559 119.108 251.447 118.554C249.602 117.685 248.337 116.277 247.651 114.331C246.958 112.343 246.633 110.106 246.676 107.619C246.712 105.091 247.01 102.458 247.57 99.7198C248.171 96.9757 248.854 94.347 249.62 91.834L248.618 91.9892L246.012 88.4159ZM256.602 107.237C257.17 105.652 257.839 103.903 258.612 101.987C259.336 100.036 260.071 98.0196 260.818 95.9371C260.216 94.5337 260.102 93.2472 260.477 92.0774C260.887 90.8594 261.506 89.887 262.334 89.1602C263.156 88.3916 264.062 87.8879 265.051 87.6493C266.082 87.4041 266.908 87.4901 267.528 87.9072C268.142 88.2825 268.435 89.0709 268.407 90.2725C268.373 91.4323 267.747 93.0472 266.528 95.1173C267.116 95.3256 267.555 95.5356 267.844 95.7474C268.133 95.9592 268.391 96.24 268.616 96.59C268.876 96.8917 269.153 97.2979 269.446 97.8084C269.774 98.2707 270.232 98.8839 270.821 99.648C271.458 100.447 271.759 101.427 271.725 102.587C271.726 103.698 271.563 104.857 271.237 106.062C270.952 107.26 270.622 108.444 270.247 109.614C269.866 110.742 269.612 111.722 269.484 112.555C270.408 111.898 271.193 111.029 271.838 109.945C272.524 108.856 273.121 107.737 273.627 106.59C274.127 105.4 274.568 104.242 274.949 103.114C275.372 101.979 275.762 101.042 276.118 100.303L280.284 103.186C280.114 103.469 279.914 103.97 279.683 104.69C279.446 105.368 279.145 106.184 278.779 107.139C278.449 108.045 278.063 109.003 277.621 110.012C277.22 111.015 276.765 111.941 276.255 112.789C275.786 113.631 275.26 114.376 274.676 115.022C274.086 115.626 273.455 116.109 272.784 116.469C272.154 116.823 271.478 117.013 270.755 117.04C270.068 117.018 269.407 116.757 268.774 116.256C268.34 115.939 267.906 115.621 267.472 115.303C267.08 114.979 266.688 114.655 266.295 114.331C265.8 113.895 265.491 113.28 265.368 112.486C265.281 111.645 265.288 110.724 265.39 109.725C265.533 108.719 265.736 107.683 265.999 106.616C266.255 105.507 266.5 104.465 266.733 103.488C267.009 102.504 267.217 101.638 267.357 100.89C267.498 100.141 267.501 99.6061 267.365 99.285C267.005 99.1697 266.625 99.0576 266.223 98.9487C265.815 98.7981 265.413 98.6893 265.018 98.6222C264.838 99.1203 264.656 99.5976 264.47 100.054C264.326 100.504 264.178 100.933 264.028 101.341C263.525 102.787 262.994 104.195 262.437 105.564C261.914 106.885 261.345 108.32 260.73 109.869L256.602 107.237ZM280.079 107.194C279.933 108.457 279.865 109.536 279.875 110.433C279.927 111.323 280.011 111.866 280.127 112.061C280.68 112.318 281.273 112.419 281.906 112.363C282.532 112.266 283.146 112.086 283.746 111.822C284.347 111.558 284.917 111.234 285.456 110.852C285.995 110.469 286.469 110.075 286.876 109.67C287.698 108.901 288.399 108.044 288.98 107.099C289.554 106.112 290.062 105.114 290.505 104.105C290.982 103.048 291.415 101.976 291.803 100.89C292.191 99.8033 292.623 98.7315 293.101 97.6741L297.142 100.576C296.674 101.974 296.224 103.348 295.792 104.698C295.359 106.047 294.834 107.347 294.215 108.598C293.631 109.8 292.903 110.896 292.03 111.886C291.199 112.87 290.147 113.674 288.876 114.299C287.98 114.865 287.073 115.219 286.154 115.362C285.277 115.497 284.398 115.484 283.518 115.321C282.679 115.151 281.842 114.853 281.006 114.427C280.213 113.994 279.427 113.474 278.649 112.868C277.96 112.29 277.346 111.637 276.806 110.908C276.265 110.179 275.865 109.386 275.604 108.528C275.249 107.343 275.121 106.102 275.219 104.804C275.276 103.512 275.506 102.237 275.91 100.977C276.272 99.7235 276.772 98.5344 277.41 97.4093C278.084 96.2361 278.842 95.1993 279.686 94.2989C281.339 92.5465 282.964 91.7177 284.561 91.8125C286.158 91.9074 287.834 92.6528 289.589 94.0487C290.483 94.851 290.985 95.885 291.096 97.1507C291.106 98.047 290.863 98.9613 290.366 99.8934C289.904 100.777 289.426 101.557 288.932 102.232C287.822 103.9 286.67 105.297 285.476 106.423C284.282 107.548 282.999 108.517 281.628 109.328L280.079 107.194ZM286.448 95.3046C285.485 95.7103 284.652 96.2668 283.949 96.9743C283.288 97.6753 282.709 98.4918 282.212 99.424C281.75 100.308 281.364 101.266 281.053 102.297C280.784 103.322 280.539 104.365 280.319 105.425C280.909 104.821 281.549 104.123 282.239 103.332C282.929 102.541 283.571 101.715 284.165 100.853C284.793 99.9436 285.315 99.0291 285.728 98.1099C286.135 97.1489 286.375 96.2138 286.448 95.3046ZM297.146 104.552C296.999 105.815 296.931 106.894 296.942 107.791C296.994 108.681 297.078 109.223 297.194 109.419C297.746 109.676 298.339 109.777 298.972 109.721C299.599 109.624 300.212 109.444 300.812 109.18C301.413 108.916 301.983 108.592 302.522 108.21C303.062 107.827 303.535 107.433 303.943 107.028C304.765 106.259 305.466 105.402 306.046 104.457C306.62 103.47 307.129 102.472 307.571 101.463C308.049 100.406 308.482 99.3338 308.869 98.2476C309.257 97.1613 309.69 96.0895 310.167 95.0321L314.208 97.9341C313.741 99.3321 313.291 100.706 312.858 102.056C312.426 103.405 311.9 104.705 311.281 105.956C310.698 107.158 309.969 108.254 309.096 109.244C308.265 110.228 307.214 111.032 305.942 111.657C305.046 112.223 304.139 112.577 303.22 112.72C302.344 112.855 301.465 112.842 300.584 112.679C299.746 112.509 298.909 112.211 298.073 111.785C297.279 111.352 296.493 110.832 295.715 110.226C295.027 109.648 294.413 108.995 293.872 108.266C293.332 107.537 292.931 106.744 292.67 105.886C292.316 104.701 292.188 103.46 292.286 102.162C292.342 100.87 292.573 99.5945 292.976 98.3348C293.338 97.0815 293.838 95.8923 294.476 94.7673C295.15 93.594 295.909 92.5572 296.753 91.6569C298.406 89.9044 300.031 89.0756 301.627 89.1705C303.224 89.2654 304.9 90.0108 306.656 91.4066C307.55 92.209 308.052 93.243 308.162 94.5087C308.173 95.405 307.929 96.3192 307.432 97.2514C306.97 98.1353 306.492 98.9148 305.998 99.5899C304.888 101.258 303.736 102.655 302.542 103.781C301.348 104.906 300.066 105.875 298.695 106.686L297.146 104.552ZM303.515 92.6625C302.551 93.0682 301.718 93.6248 301.015 94.3323C300.354 95.0332 299.775 95.8498 299.278 96.782C298.816 97.6659 298.43 98.6236 298.119 99.6552C297.85 100.68 297.606 101.723 297.385 102.783C297.976 102.179 298.616 101.481 299.306 100.69C299.996 99.8992 300.638 99.0729 301.231 98.2114C301.86 97.3016 302.381 96.3871 302.795 95.4679C303.202 94.5069 303.442 93.5718 303.515 92.6625ZM309.323 78.6149C310.283 78.4662 311.143 78.3545 311.901 78.2799C312.694 78.1571 313.449 78.0616 314.166 77.9935C314.762 76.3191 315.268 74.8938 315.684 73.7176C316.136 72.4931 316.445 71.5901 316.612 71.0084L320.768 73.8285C320.611 74.1949 320.408 74.6753 320.158 75.2699C319.943 75.8163 319.724 76.4703 319.499 77.2319C319.583 77.2189 319.687 77.2028 319.813 77.1834C319.931 77.1222 320.054 77.082 320.179 77.0626L321.315 80.6709C320.653 80.8161 320.075 80.9484 319.58 81.0677C319.121 81.1388 318.661 81.21 318.202 81.2811C317.674 83.116 317.154 85.1421 316.642 87.3593C316.165 89.5283 315.778 91.7261 315.482 93.9528C315.185 96.1795 315.031 98.3626 315.02 100.502C315.045 102.594 315.315 104.476 315.83 106.149C316.209 105.834 316.623 105.193 317.072 104.225C317.563 103.252 318.055 102.149 318.548 100.918C319.084 99.6808 319.588 98.384 320.063 97.0278C320.579 95.6652 321.069 94.4134 321.534 93.2725L325.628 96.1022C325.419 96.6903 325.16 97.5001 324.849 98.5317C324.532 99.5215 324.162 100.584 323.739 101.718C323.31 102.811 322.793 103.896 322.19 104.972C321.629 106.043 320.98 106.956 320.241 107.711C319.497 108.425 318.675 108.916 317.775 109.184C316.876 109.451 315.87 109.307 314.758 108.753C312.913 107.884 311.648 106.476 310.962 104.53C310.269 102.542 309.944 100.305 309.987 97.818C310.023 95.2896 310.321 92.6565 310.881 89.9188C311.482 87.1746 312.165 84.546 312.931 82.033L311.929 82.1881L309.323 78.6149Z" fill="#133E68"/>
</svg>
