<svg width="350" height="160" viewBox="0 0 350 160" fill="none" xmlns="http://www.w3.org/2000/svg">
<path d="M24.0805 14.1835C27.8111 14.1912 31.3866 15.6777 34.0232 18.317C36.6597 20.9563 38.1425 24.5333 38.1463 28.264V34.3445C38.1308 38.0817 36.6364 41.6608 33.9896 44.2993C31.3429 46.9378 27.7591 48.4212 24.0219 48.425H22.3662C21.216 48.4346 20.0827 48.703 19.0504 49.2102C18.0181 49.7175 17.1132 50.4507 16.4029 51.3554V78.1684H10V14.1835H24.0805ZM31.7581 28.264C31.7581 26.2277 30.9492 24.2749 29.5094 22.8351C28.0695 21.3952 26.1167 20.5864 24.0805 20.5864H16.4029V43.3554C18.2646 42.4667 20.3033 42.0109 22.3662 42.0221H24.0219C26.0572 42.0261 28.0117 41.2264 29.4604 39.7968C30.9092 38.3673 31.7349 36.4236 31.7581 34.3885V28.264Z" fill="white"/>
<path d="M81.2231 28V64.0876C81.284 65.9739 80.965 67.8533 80.2852 69.6139C79.6053 71.3745 78.5785 72.9804 77.2657 74.3363C75.9528 75.6922 74.3808 76.7703 72.6431 77.5066C70.9053 78.2429 69.0373 78.6223 67.15 78.6223C65.2626 78.6223 63.3946 78.2429 61.6568 77.5066C59.9191 76.7703 58.3471 75.6922 57.0342 74.3363C55.7214 72.9804 54.6946 71.3745 54.0147 69.6139C53.3349 67.8533 53.0159 65.9739 53.0768 64.0876V34.4468C54.5161 36.9103 56.7862 38.7804 59.4797 39.7215V64.0876C59.4797 66.1161 60.2855 68.0615 61.7198 69.4958C63.1541 70.9301 65.0995 71.7359 67.128 71.7359C69.1564 71.7359 71.1018 70.9301 72.5361 69.4958C73.9705 68.0615 74.7763 66.1161 74.7763 64.0876V28.1172C74.6557 26.1706 73.7975 24.3432 72.3764 23.0073C70.9553 21.6715 69.0783 20.9279 67.128 20.9279C65.1776 20.9279 63.3007 21.6715 61.8796 23.0073C60.4585 24.3432 59.6002 26.1706 59.4797 28.1172C59.4238 28.6521 59.4818 29.1929 59.6499 29.7038C59.818 30.2147 60.0924 30.6843 60.4551 31.0815C60.8177 31.4787 61.2604 31.7947 61.7539 32.0085C62.2474 32.2224 62.7806 32.3293 63.3185 32.3223V38.7252C60.6185 38.7253 58.0274 37.6609 56.1073 35.7627C54.1872 33.8646 53.093 31.2858 53.0621 28.586C53.0653 24.9083 54.5072 21.3778 57.0796 18.7494C59.652 16.121 63.1507 14.6034 66.8275 14.5211C70.5043 14.4388 74.0674 15.7983 76.7548 18.309C79.4423 20.8196 81.0408 24.2821 81.2085 27.956L81.2231 28Z" fill="white"/>
<path d="M117.428 78.168C116.683 76.3042 116.305 74.3142 116.314 72.3072C116.32 71.3247 116.408 70.3445 116.578 69.3768C117.716 65.0406 118.336 60.5845 118.424 56.1022C118.423 54.3915 117.855 52.7295 116.807 51.377C115.76 50.0245 114.293 49.0582 112.637 48.6297L103.084 52.2048V78.168H96.6807V14.4468H110.703C112.552 14.4449 114.384 14.8077 116.093 15.5147C117.802 16.2216 119.355 17.2587 120.663 18.5666C121.971 19.8744 123.008 21.4274 123.715 23.1366C124.422 24.8458 124.785 26.6777 124.783 28.5273V34.388C124.787 36.4655 124.331 38.5181 123.447 40.398C122.563 42.2779 121.273 43.9383 119.67 45.2598C121.274 46.5828 122.566 48.2456 123.45 50.1282C124.334 52.0108 124.79 54.0662 124.783 56.1461C124.74 61.0928 124.081 66.0147 122.82 70.798C122.75 71.2836 122.711 71.7729 122.702 72.2632C122.727 74.3934 123.459 76.455 124.783 78.124L117.428 78.168ZM113.325 41.5382C114.807 41.0011 116.089 40.0243 117 38.7387C117.911 37.4531 118.408 35.9198 118.424 34.3441V28.4833C118.43 27.469 118.234 26.4637 117.848 25.5259C117.461 24.5881 116.892 23.7364 116.174 23.0206C115.455 22.3047 114.601 21.739 113.662 21.3562C112.723 20.9734 111.717 20.7813 110.703 20.7911H103.084V45.377L113.325 41.5382Z" fill="white"/>
<path d="M165.779 22.8278C162.69 21.3923 159.325 20.6473 155.918 20.6446H155.23V78.168H148.827V20.6446C144.478 20.6521 140.181 19.7017 136.241 17.8608L138.937 12C142.026 13.4355 145.391 14.1805 148.797 14.1831H155.889C160.241 14.1879 164.539 15.1535 168.475 17.011L165.779 22.8278Z" fill="white"/>
<path d="M189.559 64.3071C189.613 66.3062 190.446 68.2052 191.88 69.5986C193.315 70.992 195.237 71.7694 197.237 71.7649H197.457C199.412 71.7055 201.27 70.8994 202.649 69.5123C204.027 68.1251 204.823 66.2624 204.87 64.3071V14.2415H211.273V64.4096C211.192 68.0278 209.72 71.4756 207.163 74.0374C204.607 76.5992 201.162 78.0783 197.544 78.1678H197.222C193.545 78.1613 190.016 76.7197 187.386 74.15C184.756 71.5803 183.233 68.0854 183.142 64.4096V14.2415H189.544L189.559 64.3071Z" fill="white"/>
<path d="M257.061 86.7251C254.941 86.7174 252.911 85.872 251.412 84.3734C249.914 82.8748 249.069 80.8445 249.061 78.7252V75.8827C246.925 77.271 244.456 78.0603 241.911 78.1684H241.5C237.852 78.1717 234.344 76.7648 231.709 74.2417C229.074 71.7187 227.516 68.2748 227.361 64.63V28.264C227.361 24.5296 228.845 20.9482 231.485 18.3076C234.126 15.6669 237.707 14.1835 241.442 14.1835C245.176 14.1835 248.758 15.6669 251.398 18.3076C254.039 20.9482 255.522 24.5296 255.522 28.264C255.522 29.6108 255.257 30.9445 254.742 32.1889C254.226 33.4332 253.471 34.5639 252.518 35.5163C251.566 36.4687 250.435 37.2242 249.191 37.7396C247.947 38.255 246.613 38.5203 245.266 38.5203V32.1028C245.771 32.1067 246.272 32.01 246.74 31.8185C247.207 31.627 247.632 31.3443 247.989 30.9871C248.346 30.6299 248.629 30.2051 248.82 29.7376C249.012 29.2701 249.109 28.7692 249.105 28.264C249.105 26.2277 248.296 24.2749 246.856 22.8351C245.416 21.3952 243.463 20.5864 241.427 20.5864C239.391 20.5864 237.438 21.3952 235.998 22.8351C234.558 24.2749 233.75 26.2277 233.75 28.264V64.4688C233.84 66.4537 234.697 68.326 236.14 69.6922C237.583 71.0584 239.499 71.812 241.486 71.7948H241.852C243.756 71.6945 245.553 70.8883 246.894 69.5337C248.236 68.1791 249.024 66.3733 249.105 64.4688V48.3517H245.749C245.527 48.3508 245.306 48.3964 245.102 48.4857C244.898 48.5749 244.715 48.7059 244.565 48.8701C244.415 49.0342 244.3 49.2281 244.229 49.4391C244.158 49.6501 244.132 49.8736 244.152 50.0953C244.149 50.3047 244.19 50.5124 244.273 50.7045C244.357 50.8966 244.48 51.0686 244.636 51.2089L240.108 55.7363C238.982 54.6231 238.212 53.1995 237.898 51.647C237.584 50.0946 237.739 48.4837 238.344 47.02C238.95 45.5562 239.977 44.306 241.296 43.4289C242.615 42.5518 244.166 42.0875 245.749 42.0954H255.464V78.7252C255.475 79.1452 255.647 79.545 255.944 79.8421C256.241 80.1393 256.641 80.3111 257.061 80.3222V86.7251Z" fill="white"/>
<path d="M299.068 78.1678H292.562L290.057 63.3986C289.67 62.0914 288.87 60.9449 287.776 60.1312C286.682 59.3175 285.354 58.8805 283.991 58.8858H280.636L277.383 78.1385H270.877L281.793 14.2415H288.196L299.068 78.1678ZM283.991 52.5269C285.468 52.524 286.933 52.7922 288.313 53.3181L284.943 33.538L281.749 52.5855L283.991 52.5269Z" fill="white"/>
<path d="M340.65 77.0542L335.478 80.7758C334.886 79.974 334.116 79.3209 333.229 78.8682C332.341 78.4155 331.36 78.1757 330.364 78.1678H313.72V14.2415H320.123V71.7649H330.379C332.386 71.7789 334.361 72.265 336.146 73.1839C337.93 74.1028 339.473 75.4286 340.65 77.0542Z" fill="white"/>
<path d="M241.937 113.819C242.877 112.434 243.903 110.778 245.016 108.853C246.171 106.921 247.208 104.922 248.128 102.855C249.042 100.747 249.785 98.6433 250.358 96.5448C250.931 94.4464 251.124 92.5138 250.936 90.747C250.894 90.7535 250.849 90.7391 250.801 90.7038C250.024 90.6531 249.248 90.7518 248.474 90.9999C247.693 91.2063 246.95 91.5138 246.243 91.9225C245.537 92.3311 244.837 92.7816 244.144 93.2738C243.45 93.7659 242.798 94.2517 242.188 94.7309C240.962 95.6477 239.636 96.7509 238.211 98.0405C236.786 99.3301 235.374 100.703 233.974 102.16C232.568 103.575 231.232 105.022 229.964 106.501C228.738 107.973 227.691 109.354 226.821 110.643L226.884 110.634C226.65 111.055 226.369 111.59 226.042 112.239C225.75 112.84 225.486 113.48 225.249 114.158C225.011 114.836 224.858 115.501 224.788 116.153C224.718 116.806 224.805 117.369 225.05 117.845C225.77 118.631 226.913 119.245 228.478 119.687C230.084 120.122 231.855 120.511 233.789 120.853C235.759 121.147 237.777 121.476 239.843 121.84C241.903 122.163 243.79 122.619 245.507 123.208C247.264 123.791 248.693 124.596 249.793 125.623C250.928 126.602 251.514 127.901 251.551 129.52C251.577 130.243 251.424 130.908 251.09 131.516C250.798 132.117 250.392 132.671 249.872 133.179C249.388 133.639 248.855 134.064 248.274 134.453C247.692 134.842 247.129 135.208 246.583 135.549C245.883 135.999 245.103 136.483 244.242 137.001C243.43 137.555 242.563 138.031 241.642 138.43C240.768 138.865 239.879 139.195 238.973 139.421C238.067 139.646 237.15 139.66 236.221 139.462C235.016 139.135 233.803 138.618 232.581 137.909C231.366 137.242 230.41 136.449 229.712 135.531C229.007 134.571 228.703 133.57 228.798 132.529C228.929 131.44 229.744 130.352 231.243 129.265L235.468 132.523C234.871 133.086 234.357 133.636 233.927 134.173C233.497 134.71 233.318 135.208 233.389 135.667C234.32 135.608 235.278 135.439 236.26 135.158C237.279 134.83 238.245 134.445 239.16 134.004C240.117 133.556 241.023 133.053 241.877 132.493C242.773 131.927 243.603 131.349 244.367 130.761C244.486 130.699 244.71 130.494 245.041 130.143C245.413 129.786 245.782 129.408 246.148 129.01C246.508 128.569 246.787 128.163 246.985 127.79C247.178 127.375 247.153 127.08 246.912 126.903C245.688 126.451 244.303 126.067 242.757 125.75C241.247 125.386 239.782 125.035 238.361 124.699C236.809 124.341 235.188 123.95 233.498 123.528C231.849 123.099 230.185 122.566 228.504 121.928C227.729 121.62 226.882 121.26 225.963 120.846C225.079 120.384 224.227 119.853 223.408 119.253C222.588 118.653 221.884 117.971 221.295 117.207C220.665 116.45 220.272 115.57 220.117 114.567C219.929 113.356 220.097 112.091 220.619 110.77C221.135 109.407 221.746 108.243 222.452 107.279C225.388 103.318 228.658 99.5835 232.263 96.0751C235.909 92.5602 239.944 89.6265 244.369 87.2739C246.084 86.7518 247.728 86.7326 249.299 87.2162C250.871 87.6999 252.261 88.5323 253.47 89.7134C254.039 90.3522 254.497 90.9654 254.845 91.553C255.234 92.1341 255.498 92.7346 255.637 93.3545C255.776 93.9744 255.817 94.6523 255.759 95.388C255.702 96.1238 255.554 96.9592 255.314 97.8943C254.475 101.317 253.304 104.662 251.8 107.931C250.29 111.158 248.483 114.26 246.378 117.237L241.937 113.819ZM256.012 100.416C256.973 100.267 257.832 100.156 258.59 100.081C259.383 99.9581 260.138 99.8627 260.855 99.7945C261.451 98.1202 261.957 96.6949 262.373 95.5186C262.825 94.2942 263.134 93.3911 263.301 92.8095L267.458 95.6295C267.3 95.9959 267.097 96.4764 266.847 97.071C266.632 97.6173 266.413 98.2713 266.189 99.0329C266.272 99.02 266.376 99.0038 266.502 98.9844C266.621 98.9233 266.743 98.883 266.868 98.8636L268.004 102.472C267.342 102.617 266.764 102.749 266.269 102.869C265.81 102.94 265.351 103.011 264.891 103.082C264.363 104.917 263.843 106.943 263.331 109.16C262.854 111.329 262.467 113.527 262.171 115.754C261.874 117.981 261.72 120.164 261.709 122.303C261.734 124.395 262.004 126.277 262.52 127.95C262.898 127.635 263.312 126.994 263.761 126.026C264.252 125.053 264.744 123.95 265.237 122.719C265.773 121.482 266.278 120.185 266.752 118.829C267.268 117.466 267.758 116.214 268.223 115.074L272.317 117.903C272.109 118.491 271.849 119.301 271.538 120.333C271.221 121.323 270.851 122.385 270.428 123.519C269.999 124.612 269.483 125.697 268.88 126.773C268.318 127.844 267.669 128.757 266.93 129.512C266.186 130.226 265.364 130.717 264.464 130.985C263.565 131.252 262.559 131.108 261.447 130.554C259.602 129.685 258.337 128.277 257.651 126.331C256.958 124.343 256.633 122.106 256.676 119.619C256.712 117.091 257.01 114.458 257.57 111.72C258.171 108.976 258.854 106.347 259.62 103.834L258.618 103.989L256.012 100.416ZM266.602 119.237C267.17 117.652 267.839 115.903 268.612 113.987C269.336 112.036 270.071 110.02 270.818 107.937C270.216 106.534 270.102 105.247 270.477 104.077C270.887 102.859 271.506 101.887 272.334 101.16C273.156 100.392 274.062 99.8879 275.051 99.6493C276.082 99.4041 276.908 99.4901 277.528 99.9072C278.142 100.282 278.435 101.071 278.407 102.272C278.373 103.432 277.747 105.047 276.528 107.117C277.116 107.326 277.555 107.536 277.844 107.747C278.133 107.959 278.391 108.24 278.616 108.59C278.876 108.892 279.153 109.298 279.446 109.808C279.774 110.271 280.232 110.884 280.821 111.648C281.458 112.447 281.759 113.427 281.725 114.587C281.726 115.698 281.563 116.857 281.237 118.062C280.952 119.26 280.622 120.444 280.247 121.614C279.866 122.742 279.612 123.722 279.484 124.555C280.408 123.898 281.193 123.029 281.838 121.945C282.524 120.856 283.121 119.737 283.627 118.59C284.127 117.4 284.568 116.242 284.949 115.114C285.372 113.979 285.762 113.042 286.118 112.303L290.284 115.186C290.114 115.469 289.914 115.97 289.683 116.69C289.446 117.368 289.145 118.184 288.779 119.139C288.449 120.045 288.063 121.003 287.621 122.012C287.22 123.015 286.765 123.941 286.255 124.789C285.786 125.631 285.26 126.376 284.676 127.022C284.086 127.626 283.455 128.109 282.784 128.469C282.154 128.823 281.478 129.013 280.755 129.04C280.068 129.018 279.407 128.757 278.774 128.256C278.34 127.939 277.906 127.621 277.472 127.303C277.08 126.979 276.688 126.655 276.295 126.331C275.8 125.895 275.491 125.28 275.368 124.486C275.281 123.645 275.288 122.724 275.39 121.725C275.533 120.719 275.736 119.683 275.999 118.616C276.255 117.507 276.5 116.465 276.733 115.488C277.009 114.504 277.217 113.638 277.357 112.89C277.498 112.141 277.501 111.606 277.365 111.285C277.005 111.17 276.625 111.058 276.223 110.949C275.815 110.798 275.413 110.689 275.018 110.622C274.838 111.12 274.656 111.598 274.47 112.054C274.326 112.504 274.178 112.933 274.028 113.341C273.525 114.787 272.994 116.195 272.437 117.564C271.914 118.885 271.345 120.32 270.73 121.869L266.602 119.237ZM290.079 119.194C289.933 120.457 289.865 121.536 289.875 122.433C289.927 123.323 290.011 123.866 290.127 124.061C290.68 124.318 291.273 124.419 291.906 124.363C292.532 124.266 293.146 124.086 293.746 123.822C294.347 123.558 294.917 123.234 295.456 122.852C295.995 122.469 296.469 122.075 296.876 121.67C297.698 120.901 298.399 120.044 298.98 119.099C299.554 118.112 300.062 117.114 300.505 116.105C300.982 115.048 301.415 113.976 301.803 112.89C302.191 111.803 302.623 110.732 303.101 109.674L307.142 112.576C306.674 113.974 306.224 115.348 305.792 116.698C305.359 118.047 304.834 119.347 304.215 120.598C303.631 121.8 302.903 122.896 302.03 123.886C301.199 124.87 300.147 125.674 298.876 126.299C297.98 126.865 297.073 127.219 296.154 127.362C295.277 127.497 294.398 127.484 293.518 127.321C292.679 127.151 291.842 126.853 291.006 126.427C290.213 125.994 289.427 125.474 288.649 124.868C287.96 124.29 287.346 123.637 286.806 122.908C286.265 122.179 285.865 121.386 285.604 120.528C285.249 119.343 285.121 118.102 285.219 116.804C285.276 115.512 285.506 114.237 285.91 112.977C286.272 111.724 286.772 110.534 287.41 109.409C288.084 108.236 288.842 107.199 289.686 106.299C291.339 104.546 292.964 103.718 294.561 103.813C296.158 103.907 297.834 104.653 299.589 106.049C300.483 106.851 300.985 107.885 301.096 109.151C301.106 110.047 300.863 110.961 300.366 111.893C299.904 112.777 299.426 113.557 298.932 114.232C297.822 115.9 296.67 117.297 295.476 118.423C294.282 119.548 292.999 120.517 291.628 121.328L290.079 119.194ZM296.448 107.305C295.485 107.71 294.652 108.267 293.949 108.974C293.288 109.675 292.709 110.492 292.212 111.424C291.75 112.308 291.364 113.266 291.053 114.297C290.784 115.322 290.539 116.365 290.319 117.425C290.909 116.821 291.549 116.123 292.239 115.332C292.929 114.541 293.571 113.715 294.165 112.853C294.793 111.944 295.315 111.029 295.728 110.11C296.135 109.149 296.375 108.214 296.448 107.305ZM307.146 116.552C306.999 117.815 306.931 118.894 306.942 119.791C306.994 120.681 307.078 121.223 307.194 121.419C307.746 121.676 308.339 121.777 308.972 121.721C309.599 121.624 310.212 121.444 310.812 121.18C311.413 120.916 311.983 120.592 312.522 120.21C313.062 119.827 313.535 119.433 313.943 119.028C314.765 118.259 315.466 117.402 316.046 116.457C316.62 115.47 317.129 114.472 317.571 113.463C318.049 112.406 318.482 111.334 318.869 110.248C319.257 109.161 319.69 108.089 320.167 107.032L324.208 109.934C323.741 111.332 323.291 112.706 322.858 114.056C322.426 115.405 321.9 116.705 321.281 117.956C320.698 119.158 319.969 120.254 319.096 121.244C318.265 122.228 317.214 123.032 315.942 123.657C315.046 124.223 314.139 124.577 313.22 124.72C312.344 124.855 311.465 124.842 310.584 124.679C309.746 124.509 308.909 124.211 308.073 123.785C307.279 123.352 306.493 122.832 305.715 122.226C305.027 121.648 304.413 120.995 303.872 120.266C303.332 119.537 302.931 118.744 302.67 117.886C302.316 116.701 302.188 115.46 302.286 114.162C302.342 112.87 302.573 111.595 302.976 110.335C303.338 109.081 303.838 107.892 304.476 106.767C305.15 105.594 305.909 104.557 306.753 103.657C308.406 101.904 310.031 101.076 311.627 101.171C313.224 101.265 314.9 102.011 316.656 103.407C317.55 104.209 318.052 105.243 318.162 106.509C318.173 107.405 317.929 108.319 317.432 109.251C316.97 110.135 316.492 110.915 315.998 111.59C314.888 113.258 313.736 114.655 312.542 115.781C311.348 116.906 310.066 117.875 308.695 118.686L307.146 116.552ZM313.515 104.663C312.551 105.068 311.718 105.625 311.015 106.332C310.354 107.033 309.775 107.85 309.278 108.782C308.816 109.666 308.43 110.624 308.119 111.655C307.85 112.68 307.606 113.723 307.385 114.783C307.976 114.179 308.616 113.481 309.306 112.69C309.996 111.899 310.638 111.073 311.231 110.211C311.86 109.302 312.381 108.387 312.795 107.468C313.202 106.507 313.442 105.572 313.515 104.663ZM319.323 90.6149C320.283 90.4662 321.143 90.3545 321.901 90.2799C322.694 90.1571 323.449 90.0616 324.166 89.9935C324.762 88.3191 325.268 86.8938 325.684 85.7176C326.136 84.4931 326.445 83.5901 326.612 83.0084L330.768 85.8285C330.611 86.1949 330.408 86.6753 330.158 87.2699C329.943 87.8163 329.724 88.4703 329.499 89.2319C329.583 89.2189 329.687 89.2028 329.813 89.1834C329.931 89.1222 330.054 89.082 330.179 89.0626L331.315 92.6709C330.653 92.8161 330.075 92.9484 329.58 93.0677C329.121 93.1388 328.661 93.21 328.202 93.2811C327.674 95.116 327.154 97.1421 326.642 99.3593C326.165 101.528 325.778 103.726 325.482 105.953C325.185 108.179 325.031 110.363 325.02 112.502C325.045 114.594 325.315 116.476 325.83 118.149C326.209 117.834 326.623 117.193 327.072 116.225C327.563 115.252 328.055 114.149 328.548 112.918C329.084 111.681 329.588 110.384 330.063 109.028C330.579 107.665 331.069 106.413 331.534 105.272L335.628 108.102C335.419 108.69 335.16 109.5 334.849 110.532C334.532 111.522 334.162 112.584 333.739 113.718C333.31 114.811 332.793 115.896 332.19 116.972C331.629 118.043 330.98 118.956 330.241 119.711C329.497 120.425 328.675 120.916 327.775 121.184C326.876 121.451 325.87 121.307 324.758 120.753C322.913 119.884 321.648 118.476 320.962 116.53C320.269 114.542 319.944 112.305 319.987 109.818C320.023 107.29 320.321 104.657 320.881 101.919C321.482 99.1746 322.165 96.546 322.931 94.033L321.929 94.1881L319.323 90.6149Z" fill="#133E68"/>
</svg>
