<svg width="331" height="134" viewBox="0 0 331 134" fill="none" xmlns="http://www.w3.org/2000/svg">
<path d="M29.376 53.9526H24.548V55.2446H46.784V53.9526H43.656L26.52 7.23663H20.944L3.604 53.9526H0.408V55.2446H10.812V53.9526H5.712L10.948 39.2646H24.412L29.376 53.9526ZM17.952 19.9526L23.868 37.7686H11.56L17.952 19.9526ZM93.8894 7.64463H53.7694L53.0894 24.7126H54.3814C57.8494 14.1726 60.1614 9.07263 66.3494 9.07263H67.2334V53.8166H61.4534V55.2446H86.2734V53.8166H80.4934V9.07263H81.3094C87.4974 9.07263 89.6054 13.6286 93.2774 24.7126H94.5694L93.8894 7.64463ZM108.687 7.64463V8.93663H112.699V53.9526H108.687V55.2446H129.903V53.9526H125.959V31.7846H139.491V53.9526H135.479V55.2446H156.763V53.9526H152.751V8.93663H156.763V7.64463H135.479V8.93663H139.491V30.0166H125.959V8.93663H129.903V7.64463H108.687ZM169.821 7.64463V9.14063H173.833V53.7486H169.821V55.2446H207.153L207.697 40.4206H206.337C204.297 47.8326 198.313 53.7486 189.677 53.7486H187.093V31.9206H188.725C193.485 31.9206 196.069 34.5726 197.701 41.3726H198.857V21.2446H197.837C196.681 26.4126 193.825 30.1526 189.405 30.1526H187.093V9.14063H189.473C197.701 9.14063 200.897 12.2006 204.637 21.1086H205.861L205.181 7.64463H169.821ZM261.147 8.93663H264.887V7.64463H255.571V8.93663H259.311V41.7806L241.495 7.64463H222.727V8.93663H226.467V53.9526H222.727V55.2446H232.043V53.9526H228.303V11.2486L251.627 55.2446H261.147V8.93663ZM298.881 54.4966C291.401 54.4966 284.805 46.5406 281.405 39.7406H280.249L280.929 55.9246H281.881C282.425 54.6326 282.833 53.8846 283.921 53.8846C285.825 53.8846 291.537 55.9246 298.133 55.9246C308.129 55.9246 314.793 49.4646 314.793 39.6726C314.793 28.3846 306.429 25.8006 298.881 23.7606C292.013 21.9246 287.389 20.2246 287.389 15.1926C287.389 11.1806 290.789 8.32463 295.685 8.32463C302.689 8.32463 307.313 15.1246 310.781 21.3806H311.869L311.393 7.64463H310.645C310.169 8.52863 309.829 9.00463 308.673 9.00463C306.361 9.00463 302.825 6.89663 296.569 6.89663C286.097 6.89663 280.453 14.0366 280.453 21.6526C280.453 31.9206 286.709 35.1846 294.937 37.4966C303.301 39.8766 307.517 41.7126 307.517 47.3566C307.517 52.3206 302.961 54.4966 298.881 54.4966Z" fill="#FAF7F2"/>
<path d="M216.793 103.462C217.71 101.735 218.694 99.6851 219.744 97.3105C220.842 94.9232 221.796 92.4724 222.604 89.9582C223.4 87.3964 223.999 84.8616 224.401 82.354C224.803 79.8464 224.784 77.5791 224.344 75.5519C224.296 75.5646 224.242 75.5536 224.182 75.5186C223.273 75.5574 222.385 75.7693 221.518 76.1544C220.638 76.4919 219.813 76.9421 219.045 77.5051C218.276 78.0681 217.52 78.6788 216.777 79.3371C216.034 79.9954 215.338 80.641 214.69 81.2738C213.382 82.4918 211.981 83.9386 210.489 85.6144C208.996 87.2901 207.53 89.0612 206.088 90.9275C204.634 92.7462 203.264 94.5935 201.978 96.4693C200.74 98.3323 199.697 100.067 198.85 101.672L198.921 101.653C198.702 102.171 198.444 102.827 198.146 103.622C197.882 104.356 197.656 105.132 197.466 105.949C197.275 106.765 197.181 107.557 197.181 108.323C197.182 109.089 197.354 109.732 197.697 110.253C198.632 111.075 200.036 111.645 201.908 111.961C203.827 112.265 205.931 112.494 208.219 112.648C210.542 112.742 212.926 112.871 215.37 113.034C217.801 113.15 220.049 113.443 222.115 113.912C224.229 114.368 225.988 115.123 227.393 116.177C228.834 117.171 229.677 118.605 229.923 120.48C230.044 121.315 229.949 122.107 229.638 122.854C229.375 123.588 228.974 124.283 228.434 124.938C227.929 125.532 227.364 126.092 226.738 126.617C226.112 127.141 225.504 127.636 224.913 128.1C224.157 128.711 223.313 129.371 222.379 130.08C221.505 130.824 220.559 131.486 219.539 132.065C218.58 132.679 217.589 133.174 216.566 133.55C215.543 133.925 214.48 134.056 213.377 133.943C211.937 133.715 210.464 133.266 208.957 132.597C207.463 131.975 206.254 131.175 205.328 130.197C204.39 129.171 203.911 128.048 203.891 126.827C203.906 125.547 204.715 124.181 206.319 122.731L211.632 125.983C211.009 126.711 210.482 127.414 210.051 128.091C209.619 128.768 209.473 129.369 209.613 129.893C210.687 129.708 211.777 129.391 212.883 128.943C214.023 128.433 215.097 127.865 216.104 127.239C217.158 126.599 218.146 125.901 219.067 125.144C220.036 124.374 220.927 123.6 221.74 122.821C221.87 122.735 222.105 122.468 222.445 122.02C222.832 121.559 223.213 121.074 223.588 120.565C223.95 120.009 224.223 119.502 224.407 119.044C224.578 118.538 224.513 118.198 224.211 118.024C222.733 117.653 221.077 117.381 219.243 117.207C217.444 116.973 215.699 116.751 214.009 116.539C212.162 116.318 210.231 116.068 208.217 115.79C206.249 115.498 204.25 115.088 202.219 114.559C201.281 114.299 200.253 113.987 199.134 113.622C198.05 113.197 196.995 112.688 195.968 112.094C194.941 111.5 194.038 110.797 193.259 109.984C192.433 109.184 191.866 108.212 191.56 107.068C191.191 105.686 191.226 104.196 191.667 102.597C192.095 100.95 192.658 99.5231 193.356 98.3151C196.267 93.3493 199.594 88.6042 203.338 84.0796C207.129 79.5422 211.445 75.6305 216.286 72.3446C218.211 71.5234 220.116 71.2949 222.001 71.659C223.885 72.0232 225.604 72.8149 227.155 74.0342C227.896 74.7042 228.505 75.3584 228.982 75.9968C229.507 76.6225 229.889 77.2864 230.128 77.9886C230.366 78.6907 230.499 79.4724 230.525 80.3335C230.551 81.1947 230.483 82.1831 230.322 83.2986C229.778 87.3761 228.839 91.4063 227.503 95.389C226.155 99.3241 224.447 103.151 222.377 106.871L216.793 103.462ZM231.449 86.1378C232.545 85.8447 233.529 85.6073 234.399 85.4256C235.305 85.1834 236.169 84.9779 236.992 84.8089C237.474 82.7906 237.882 81.0727 238.218 79.6552C238.589 78.1772 238.835 77.0903 238.955 76.3942L244.133 79.1459C243.997 79.5909 243.821 80.1742 243.606 80.8957C243.425 81.5568 243.252 82.3434 243.088 83.2556C243.183 83.2301 243.302 83.1982 243.445 83.16C243.575 83.0741 243.712 83.012 243.855 82.9738L245.626 87.0196C244.876 87.2711 244.222 87.4972 243.663 87.6978C243.138 87.838 242.614 87.9782 242.09 88.1183C241.707 90.3145 241.357 92.7315 241.041 95.3693C240.76 97.9467 240.587 100.546 240.522 103.168C240.457 105.79 240.553 108.343 240.809 110.828C241.099 113.253 241.649 115.404 242.458 117.281C242.858 116.868 243.258 116.071 243.657 114.892C244.104 113.7 244.537 112.359 244.956 110.868C245.422 109.365 245.845 107.796 246.225 106.162C246.653 104.516 247.065 103.002 247.462 101.619L252.569 104.39C252.401 105.099 252.201 106.071 251.97 107.307C251.726 108.496 251.43 109.775 251.081 111.145C250.72 112.467 250.257 113.791 249.692 115.117C249.175 116.43 248.535 117.571 247.773 118.541C246.999 119.463 246.106 120.136 245.096 120.559C244.086 120.982 242.9 120.942 241.54 120.437C239.289 119.66 237.644 118.185 236.603 116.012C235.55 113.792 234.892 111.236 234.629 108.344C234.354 105.405 234.369 102.311 234.675 99.0631C235.029 95.8024 235.493 92.6655 236.066 89.6525L234.922 89.9584L231.449 86.1378ZM246.103 106.655C246.563 104.745 247.121 102.629 247.777 100.309C248.373 97.9539 248.973 95.5208 249.578 93.0099C248.703 91.4565 248.41 89.9775 248.698 88.5727C249.021 87.1075 249.618 85.9011 250.488 84.9535C251.346 83.9582 252.333 83.26 253.452 82.8589C254.618 82.445 255.587 82.4411 256.359 82.8474C257.119 83.2059 257.558 84.0843 257.677 85.4825C257.783 86.833 257.258 88.7861 256.103 91.3419C256.812 91.5099 257.347 91.6986 257.71 91.9081C258.072 92.1176 258.406 92.4113 258.711 92.7892C259.052 93.1068 259.424 93.5435 259.828 94.0993C260.267 94.5948 260.876 95.249 261.655 96.062C262.494 96.9099 262.967 98.0091 263.073 99.3596C263.213 100.65 263.17 102.015 262.942 103.454C262.762 104.881 262.528 106.297 262.239 107.702C261.938 109.059 261.766 110.229 261.722 111.211C262.713 110.333 263.515 109.225 264.127 107.887C264.787 106.536 265.339 105.162 265.783 103.767C266.214 102.324 266.58 100.924 266.881 99.5668C267.23 98.1969 267.565 97.0606 267.885 96.1579L273.083 98.9811C272.921 99.3307 272.751 99.9378 272.574 100.802C272.384 101.619 272.136 102.604 271.832 103.758C271.563 104.852 271.235 106.012 270.848 107.239C270.509 108.453 270.096 109.584 269.611 110.633C269.173 111.67 268.656 112.6 268.059 113.423C267.449 114.199 266.777 114.838 266.044 115.341C265.358 115.83 264.597 116.136 263.761 116.257C262.96 116.318 262.161 116.098 261.363 115.596C260.819 115.282 260.276 114.968 259.732 114.654C259.236 114.327 258.74 114 258.244 113.673C257.615 113.228 257.179 112.553 256.937 111.648C256.729 110.682 256.622 109.613 256.615 108.44C256.656 107.255 256.761 106.026 256.932 104.755C257.09 103.436 257.243 102.195 257.392 101.032C257.588 99.8559 257.721 98.8246 257.79 97.938C257.859 97.0513 257.795 96.4301 257.598 96.0743C257.166 95.9856 256.71 95.9033 256.23 95.8273C255.737 95.7037 255.257 95.6278 254.79 95.5995C254.644 96.2002 254.492 96.7771 254.334 97.3302C254.223 97.8705 254.106 98.3869 253.982 98.8796C253.58 100.621 253.141 102.322 252.665 103.981C252.225 105.58 251.744 107.317 251.224 109.192L246.103 106.655ZM273.348 103.659C273.336 105.143 273.393 106.405 273.517 107.444C273.69 108.47 273.855 109.09 274.014 109.303C274.688 109.531 275.389 109.573 276.117 109.43C276.831 109.239 277.521 108.952 278.185 108.571C278.849 108.189 279.47 107.742 280.048 107.23C280.626 106.718 281.126 106.201 281.548 105.68C282.405 104.684 283.112 103.602 283.667 102.432C284.21 101.215 284.674 99.9924 285.061 98.7655C285.483 97.4781 285.851 96.1797 286.165 94.8703C286.478 93.5608 286.846 92.2624 287.268 90.9751L292.322 93.8365C291.955 95.5178 291.605 97.1689 291.272 98.7899C290.94 100.411 290.493 101.986 289.931 103.515C289.405 104.983 288.697 106.347 287.808 107.606C286.967 108.852 285.847 109.918 284.45 110.802C283.481 111.572 282.472 112.097 281.424 112.377C280.423 112.645 279.401 112.739 278.359 112.66C277.364 112.569 276.355 112.328 275.332 111.938C274.356 111.535 273.378 111.03 272.399 110.424C271.528 109.84 270.733 109.159 270.014 108.381C269.296 107.603 268.731 106.732 268.32 105.77C267.76 104.438 267.456 103.013 267.407 101.494C267.311 99.9882 267.418 98.4787 267.728 96.9658C267.991 95.4657 268.422 94.0227 269.022 92.6367C269.656 91.1904 270.407 89.8917 271.274 88.7408C272.972 86.4992 274.754 85.3333 276.62 85.2431C278.485 85.1529 280.524 85.8077 282.737 87.2076C283.875 88.0267 284.588 89.1639 284.875 90.6192C284.999 91.6583 284.832 92.75 284.372 93.8943C283.946 94.9782 283.49 95.943 283.001 96.7886C281.922 98.8645 280.76 100.631 279.515 102.087C278.27 103.543 276.903 104.828 275.413 105.941L273.348 103.659ZM279.249 89.0595C278.181 89.6513 277.284 90.4019 276.557 91.3112C275.878 92.2078 275.308 93.2283 274.848 94.3726C274.423 95.4566 274.095 96.6167 273.864 97.853C273.68 99.0766 273.527 100.318 273.404 101.576C274.013 100.8 274.669 99.9102 275.371 98.9055C276.072 97.9008 276.713 96.8612 277.294 95.7867C277.91 94.6518 278.4 93.5249 278.765 92.4061C279.117 91.2396 279.278 90.1241 279.249 89.0595ZM292.826 98.4511C292.814 99.9352 292.87 101.197 292.995 102.236C293.167 103.262 293.333 103.882 293.492 104.094C294.166 104.323 294.867 104.365 295.594 104.222C296.309 104.031 296.999 103.744 297.663 103.362C298.326 102.981 298.947 102.534 299.525 102.022C300.103 101.51 300.604 100.993 301.026 100.471C301.883 99.4762 302.59 98.3937 303.145 97.2238C303.688 96.0064 304.152 94.7842 304.539 93.5573C304.961 92.2699 305.329 90.9715 305.642 89.6621C305.956 88.3526 306.324 87.0542 306.746 85.7669L311.8 88.6283C311.433 90.3096 311.083 91.9607 310.75 93.5816C310.418 95.2026 309.971 96.7775 309.409 98.3064C308.883 99.7749 308.175 101.139 307.286 102.398C306.445 103.644 305.325 104.709 303.928 105.594C302.959 106.363 301.95 106.888 300.902 107.169C299.901 107.436 298.879 107.531 297.837 107.452C296.842 107.361 295.833 107.12 294.81 106.73C293.834 106.327 292.856 105.822 291.877 105.216C291.006 104.632 290.211 103.951 289.492 103.172C288.773 102.394 288.209 101.524 287.798 100.561C287.238 99.2303 286.934 97.8052 286.885 96.2863C286.789 94.78 286.896 93.2705 287.206 91.7576C287.469 90.2575 287.9 88.8145 288.5 87.4285C289.134 85.9822 289.885 84.6835 290.752 83.5326C292.45 81.291 294.232 80.1251 296.098 80.0349C297.963 79.9447 300.002 80.5995 302.215 81.9994C303.353 82.8185 304.065 83.9557 304.352 85.411C304.477 86.4501 304.309 87.5418 303.849 88.6861C303.424 89.77 302.967 90.7348 302.479 91.5804C301.399 93.6563 300.238 95.4224 298.993 96.8787C297.748 98.335 296.381 99.6197 294.891 100.733L292.826 98.4511ZM298.727 83.8513C297.659 84.4431 296.762 85.1937 296.035 86.103C295.355 86.9996 294.786 88.0201 294.326 89.1644C293.901 90.2484 293.573 91.4085 293.341 92.6448C293.158 93.8684 293.005 95.1095 292.882 96.368C293.491 95.5922 294.147 94.702 294.848 93.6973C295.55 92.6926 296.191 91.653 296.772 90.5785C297.388 89.4436 297.878 88.3167 298.243 87.1979C298.595 86.0314 298.756 84.9159 298.727 83.8513ZM303.705 66.817C304.802 66.5239 305.785 66.2865 306.656 66.1048C307.561 65.8627 308.425 65.6571 309.248 65.4881C309.73 63.4699 310.139 61.752 310.475 60.3344C310.845 58.8565 311.091 57.7695 311.211 57.0735L316.39 59.8251C316.254 60.2701 316.078 60.8534 315.862 61.5749C315.681 62.236 315.509 63.0226 315.344 63.9348C315.439 63.9093 315.558 63.8775 315.701 63.8392C315.832 63.7533 315.968 63.6913 316.111 63.653L317.882 67.6988C317.133 67.9504 316.478 68.1765 315.919 68.377C315.395 68.5172 314.87 68.6574 314.346 68.7976C313.963 70.9937 313.614 73.4107 313.298 76.0485C313.017 78.6259 312.844 81.2255 312.779 83.8473C312.714 86.4691 312.809 89.0224 313.065 91.5073C313.356 93.9318 313.905 96.0828 314.714 97.9604C315.114 97.547 315.514 96.7507 315.914 95.5714C316.361 94.3794 316.794 93.0381 317.212 91.5474C317.678 90.0439 318.101 88.4754 318.482 86.8417C318.91 85.1953 319.322 83.6808 319.718 82.2982L324.825 85.069C324.657 85.7777 324.458 86.7503 324.226 87.9866C323.983 89.1753 323.686 90.4546 323.338 91.8245C322.976 93.1467 322.513 94.4706 321.948 95.7961C321.431 97.1089 320.792 98.2502 320.03 99.22C319.255 100.142 318.362 100.815 317.352 101.238C316.342 101.661 315.157 101.621 313.796 101.117C311.546 100.34 309.9 98.8645 308.86 96.6916C307.806 94.471 307.148 91.9149 306.886 89.0232C306.61 86.0839 306.626 82.9903 306.932 79.7423C307.286 76.4816 307.749 73.3448 308.322 70.3318L307.178 70.6376L303.705 66.817Z" fill="#083D68"/>
</svg>
