<svg width="285" height="137" viewBox="0 0 285 137" fill="none" xmlns="http://www.w3.org/2000/svg">
<path d="M25.0795 36.2636H13.8087V71.4197H15.7618V72.3527H0V71.4197H2.48805V1.24435H0V0.510376H26.2613C50.4949 0.846262 49.5619 37.321 25.0795 36.2636ZM25.1666 1.24435H13.8087V35.4177H25.0795C37.5322 29.9937 36.2633 8.29796 25.1666 1.24435Z" fill="white"/>
<path d="M100.903 71.4194V72.3524H83.35V71.4194H85.3902L78.4485 49.7609H55.9815L47.9326 71.5313H49.9604V72.3773H44.9843V71.5313H47.0245L73.1117 0L98.7012 71.4194H100.903ZM78.2868 48.8901L67.949 17.1178L56.2552 48.8901H78.2868Z" fill="white"/>
<path d="M168.678 71.0836C167.246 71.7581 165.682 72.1065 164.1 72.1037C162.872 72.0932 161.65 71.9218 160.467 71.5937C158.276 71.0535 156.239 70.0162 154.513 68.5622C152.787 67.1082 151.419 65.2765 150.515 63.209C149.725 61.3853 149.302 59.4238 149.271 57.4367L149.358 53.8788C149.358 46.0912 146.646 39.7342 138.771 36.0892H129.702V70.9965H131.991V71.9296H115.981V70.9965H118.469V1.24415H115.981V0.423096H140.973C150.204 1.10731 160.38 7.11594 160.38 18.2126C160.38 26.5227 154.16 33.5514 145.638 35.629C154.259 37.6194 160.479 45.1582 160.479 53.4931L160.554 61.8778C160.554 63.408 161.91 70.5238 166.774 70.5238C167.272 70.5401 167.766 70.4242 168.205 70.1879L168.678 71.0836ZM129.789 1.24415V35.2433H140.575C152.866 30.0806 152.605 7.62599 141.172 1.26903L129.789 1.24415Z" fill="white"/>
<path d="M197.141 71.5067H199.629V72.3527H183.245V71.5067H185.733V1.02037H183.245V0.174438H199.604V1.02037H197.116L197.141 71.5067Z" fill="white"/>
<path d="M267.54 51.1793C267.291 59.3028 261.532 66.4186 252.127 70.0636C248.477 71.4874 244.599 72.2336 240.682 72.2655C230.605 71.8425 220.952 68.2846 214.172 60.5717C213.252 59.5511 212.766 58.2126 212.816 56.8396C212.79 56.0952 212.917 55.3533 213.187 54.6593C213.458 53.9653 213.867 53.3337 214.389 52.8029C214.912 52.2721 215.537 51.8533 216.227 51.5721C216.917 51.2908 217.657 51.1529 218.401 51.1669C219.151 51.1517 219.896 51.2879 220.592 51.5675C221.288 51.847 221.92 52.2641 222.451 52.7938C222.982 53.3234 223.4 53.9547 223.681 54.6499C223.962 55.3451 224.1 56.0899 224.087 56.8396C224.068 57.6653 223.874 58.4775 223.515 59.2216C223.157 59.9658 222.644 60.6246 222.01 61.1537C221.376 61.6829 220.636 62.0702 219.839 62.2895C219.043 62.5088 218.209 62.5551 217.394 62.4253C223.614 68.1851 231.787 70.7354 240.682 71.32C249.838 71.32 257.713 66.8291 256.78 56.2425C256.108 47.0118 237.547 42.4338 229.511 38.3659C222.308 34.9821 213.749 30.0682 213.749 20.9495C214.421 8.04903 228.316 0.0872803 240.259 0.0872803C249.079 0.0872803 257.29 3.5581 262.378 9.91506V7.29017H263.311V14.0701H262.378V11.7811C257.974 5.24998 249.502 1.0203 240.259 1.0203C237.418 1.02023 234.593 1.43942 231.874 2.26432C225.094 4.75237 222.892 13.1868 224.51 17.516C226.711 22.94 234.586 26.4108 234.673 26.4108L253.334 34.2855C259.84 37.0223 268.225 43.0434 267.54 51.1793Z" fill="white"/>
<path d="M166.119 102.123C167.31 100.368 168.611 98.2698 170.022 95.8299C171.485 93.3818 172.799 90.8483 173.965 88.2295C175.123 85.5577 176.065 82.8923 176.791 80.2332C177.518 77.574 177.762 75.125 177.523 72.8861C177.47 72.8943 177.413 72.876 177.352 72.8313C176.367 72.7671 175.384 72.8922 174.403 73.2066C173.414 73.4681 172.472 73.8577 171.577 74.3756C170.682 74.8935 169.795 75.4643 168.916 76.088C168.037 76.7117 167.211 77.3272 166.438 77.9345C164.884 79.0963 163.204 80.4942 161.398 82.1285C159.592 83.7627 157.802 85.5027 156.029 87.3486C154.248 89.1416 152.554 90.9752 150.948 92.8494C149.394 94.7155 148.067 96.4653 146.965 98.0988L147.044 98.0865C146.747 98.6201 146.392 99.2983 145.977 100.121C145.608 100.883 145.273 101.693 144.972 102.552C144.672 103.412 144.477 104.255 144.388 105.081C144.299 105.908 144.41 106.622 144.72 107.224C145.633 108.221 147.081 108.999 149.064 109.559C151.1 110.111 153.344 110.603 155.795 111.037C158.291 111.409 160.848 111.826 163.466 112.287C166.076 112.696 168.469 113.274 170.643 114.021C172.871 114.76 174.681 115.78 176.075 117.082C177.513 118.322 178.256 119.968 178.302 122.02C178.336 122.936 178.141 123.779 177.719 124.549C177.349 125.31 176.834 126.013 176.176 126.657C175.561 127.24 174.886 127.778 174.15 128.271C173.413 128.764 172.699 129.227 172.008 129.659C171.121 130.23 170.132 130.844 169.041 131.5C168.012 132.201 166.913 132.805 165.745 133.311C164.639 133.861 163.511 134.28 162.364 134.566C161.216 134.852 160.053 134.869 158.877 134.618C157.35 134.204 155.812 133.548 154.264 132.65C152.725 131.804 151.512 130.8 150.628 129.636C149.735 128.42 149.349 127.152 149.47 125.833C149.636 124.453 150.669 123.074 152.568 121.696L157.922 125.825C157.165 126.538 156.515 127.235 155.97 127.915C155.425 128.596 155.197 129.227 155.288 129.809C156.468 129.735 157.681 129.52 158.926 129.165C160.217 128.748 161.442 128.26 162.601 127.702C163.814 127.135 164.961 126.496 166.044 125.787C167.179 125.069 168.231 124.338 169.199 123.592C169.349 123.514 169.634 123.253 170.053 122.809C170.525 122.357 170.993 121.878 171.456 121.373C171.912 120.815 172.265 120.299 172.517 119.827C172.761 119.301 172.73 118.927 172.425 118.703C170.873 118.131 169.118 117.644 167.159 117.243C165.245 116.78 163.389 116.336 161.589 115.911C159.622 115.456 157.568 114.962 155.426 114.426C153.337 113.883 151.227 113.207 149.097 112.399C148.116 112.009 147.043 111.552 145.878 111.028C144.758 110.443 143.678 109.77 142.639 109.009C141.6 108.249 140.708 107.385 139.962 106.417C139.163 105.457 138.666 104.342 138.469 103.072C138.231 101.537 138.444 99.9327 139.106 98.2589C139.759 96.5321 140.534 95.0576 141.428 93.8354C145.148 88.8163 149.292 84.0838 153.86 79.6379C158.481 75.1838 163.595 71.4661 169.202 68.4849C171.375 67.8233 173.458 67.799 175.449 68.4119C177.44 69.0247 179.202 70.0795 180.734 71.5763C181.456 72.3857 182.037 73.1628 182.477 73.9074C182.97 74.6438 183.305 75.4048 183.481 76.1903C183.656 76.9759 183.708 77.8349 183.636 78.7672C183.563 79.6996 183.375 80.7583 183.071 81.9432C182.008 86.28 180.524 90.5194 178.619 94.6616C176.705 98.7508 174.415 102.682 171.748 106.454L166.119 102.123ZM183.956 85.1386C185.173 84.9502 186.262 84.8087 187.223 84.7142C188.228 84.5585 189.185 84.4375 190.092 84.3512C190.848 82.2294 191.489 80.4233 192.017 78.9327C192.59 77.3811 192.981 76.2367 193.192 75.4997L198.46 79.0733C198.261 79.5375 198.003 80.1464 197.686 80.8999C197.414 81.5922 197.136 82.421 196.852 83.3861C196.957 83.3697 197.09 83.3492 197.248 83.3246C197.399 83.2472 197.554 83.1961 197.712 83.1715L199.152 87.7441C198.313 87.9281 197.581 88.0957 196.954 88.2469C196.372 88.337 195.79 88.4271 195.208 88.5173C194.538 90.8425 193.879 93.41 193.23 96.2197C192.626 98.9682 192.136 101.753 191.76 104.575C191.384 107.397 191.189 110.163 191.176 112.875C191.207 115.525 191.549 117.91 192.202 120.031C192.682 119.631 193.207 118.819 193.775 117.593C194.397 116.358 195.021 114.961 195.646 113.402C196.325 111.834 196.964 110.19 197.565 108.472C198.219 106.745 198.84 105.159 199.429 103.713L204.617 107.299C204.353 108.044 204.025 109.07 203.631 110.377C203.229 111.632 202.76 112.978 202.224 114.415C201.68 115.8 201.026 117.175 200.262 118.539C199.55 119.895 198.727 121.052 197.792 122.01C196.848 122.915 195.806 123.537 194.667 123.876C193.527 124.215 192.253 124.032 190.844 123.33C188.506 122.228 186.902 120.445 186.033 117.978C185.155 115.459 184.743 112.624 184.797 109.473C184.843 106.269 185.22 102.932 185.93 99.4631C186.692 95.9856 187.558 92.6546 188.528 89.4701L187.258 89.6667L183.956 85.1386ZM197.376 108.989C198.095 106.981 198.944 104.763 199.922 102.336C200.84 99.8641 201.772 97.3086 202.718 94.6696C201.955 92.8912 201.811 91.2609 202.286 89.7785C202.806 88.2351 203.59 87.0028 204.64 86.0818C205.681 85.1078 206.829 84.4696 208.082 84.1671C209.389 83.8565 210.435 83.9654 211.221 84.4939C211.999 84.9695 212.371 85.9686 212.336 87.4913C212.292 88.961 211.498 91.0075 209.954 93.6307C210.699 93.8947 211.255 94.1608 211.621 94.4292C211.988 94.6975 212.314 95.0534 212.6 95.4969C212.93 95.8793 213.28 96.394 213.651 97.0409C214.067 97.6268 214.648 98.4038 215.394 99.372C216.201 100.385 216.583 101.626 216.539 103.096C216.541 104.505 216.335 105.972 215.921 107.5C215.56 109.018 215.142 110.519 214.667 112.001C214.184 113.431 213.861 114.673 213.699 115.727C214.871 114.896 215.866 113.794 216.683 112.421C217.552 111.04 218.308 109.622 218.95 108.168C219.584 106.662 220.142 105.193 220.625 103.764C221.161 102.326 221.655 101.139 222.106 100.202L227.386 103.855C227.17 104.214 226.916 104.849 226.624 105.761C226.324 106.621 225.942 107.655 225.479 108.865C225.061 110.013 224.571 111.227 224.011 112.506C223.503 113.776 222.926 114.949 222.28 116.025C221.686 117.092 221.02 118.035 220.279 118.854C219.531 119.62 218.732 120.231 217.881 120.688C217.084 121.137 216.227 121.378 215.311 121.411C214.44 121.384 213.603 121.052 212.8 120.418C212.25 120.016 211.7 119.613 211.15 119.211C210.653 118.8 210.156 118.389 209.659 117.978C209.031 117.425 208.64 116.646 208.484 115.641C208.373 114.574 208.382 113.408 208.512 112.141C208.694 110.867 208.951 109.554 209.283 108.202C209.608 106.797 209.918 105.476 210.214 104.238C210.563 102.992 210.826 101.894 211.005 100.946C211.183 99.9968 211.186 99.319 211.015 98.912C210.559 98.7659 210.076 98.6239 209.567 98.4859C209.05 98.2951 208.541 98.1571 208.04 98.0721C207.813 98.7034 207.581 99.3081 207.346 99.8865C207.163 100.457 206.976 101 206.786 101.517C206.148 103.35 205.476 105.134 204.769 106.869C204.107 108.543 203.386 110.361 202.607 112.324L197.376 108.989ZM227.126 108.935C226.94 110.535 226.854 111.903 226.867 113.039C226.934 114.166 227.04 114.854 227.187 115.102C227.887 115.427 228.639 115.555 229.441 115.485C230.234 115.362 231.012 115.133 231.773 114.799C232.534 114.464 233.256 114.055 233.939 113.569C234.623 113.084 235.223 112.585 235.74 112.072C236.781 111.098 237.669 110.012 238.405 108.814C239.133 107.564 239.777 106.299 240.337 105.02C240.943 103.68 241.491 102.322 241.982 100.945C242.474 99.5689 243.022 98.2107 243.627 96.8707L248.748 100.548C248.155 102.32 247.585 104.061 247.037 105.771C246.489 107.481 245.823 109.129 245.039 110.713C244.299 112.237 243.376 113.626 242.27 114.881C241.217 116.127 239.885 117.146 238.273 117.938C237.138 118.655 235.988 119.104 234.824 119.284C233.713 119.456 232.6 119.439 231.484 119.233C230.421 119.018 229.36 118.64 228.301 118.1C227.295 117.551 226.299 116.893 225.313 116.124C224.441 115.392 223.663 114.564 222.978 113.641C222.293 112.717 221.785 111.712 221.455 110.625C221.005 109.124 220.843 107.55 220.968 105.905C221.039 104.269 221.331 102.652 221.843 101.056C222.301 99.4678 222.935 97.9608 223.744 96.5352C224.597 95.0484 225.559 93.7346 226.628 92.5937C228.723 90.3729 230.782 89.3227 232.805 89.4429C234.829 89.5631 236.953 90.5077 239.177 92.2765C240.31 93.2933 240.946 94.6036 241.086 96.2075C241.1 97.3433 240.791 98.5018 240.161 99.683C239.576 100.803 238.971 101.791 238.344 102.646C236.938 104.761 235.478 106.531 233.965 107.957C232.452 109.384 230.826 110.611 229.089 111.638L227.126 108.935ZM235.197 93.868C233.976 94.3821 232.921 95.0874 232.03 95.9839C231.192 96.8722 230.458 97.907 229.828 99.0882C229.243 100.208 228.754 101.422 228.36 102.729C228.019 104.028 227.709 105.35 227.429 106.693C228.178 105.927 228.989 105.043 229.863 104.041C230.738 103.038 231.551 101.991 232.303 100.9C233.1 99.7467 233.761 98.5878 234.285 97.423C234.8 96.2052 235.105 95.0202 235.197 93.868ZM248.753 105.587C248.567 107.187 248.481 108.555 248.494 109.691C248.56 110.818 248.667 111.506 248.814 111.754C249.514 112.079 250.265 112.207 251.067 112.137C251.861 112.014 252.639 111.785 253.4 111.451C254.16 111.116 254.883 110.707 255.566 110.221C256.25 109.736 256.85 109.237 257.366 108.724C258.408 107.75 259.296 106.664 260.032 105.466C260.759 104.216 261.403 102.951 261.964 101.672C262.569 100.332 263.118 98.974 263.609 97.5974C264.1 96.2209 264.649 94.8627 265.254 93.5227L270.375 97.2003C269.782 98.9718 269.212 100.713 268.664 102.423C268.116 104.133 267.45 105.781 266.666 107.365C265.926 108.889 265.003 110.278 263.897 111.533C262.844 112.779 261.511 113.798 259.9 114.59C258.765 115.307 257.615 115.756 256.451 115.936C255.34 116.108 254.226 116.091 253.111 115.885C252.048 115.67 250.987 115.292 249.928 114.752C248.922 114.203 247.926 113.545 246.94 112.776C246.068 112.044 245.29 111.216 244.605 110.293C243.92 109.369 243.412 108.364 243.081 107.278C242.632 105.776 242.47 104.202 242.594 102.557C242.666 100.921 242.958 99.3043 243.469 97.708C243.928 96.1198 244.562 94.6129 245.37 93.1872C246.224 91.7005 247.185 90.3866 248.255 89.2457C250.35 87.025 252.409 85.9747 254.432 86.0949C256.456 86.2152 258.58 87.1597 260.804 88.9286C261.937 89.9453 262.573 91.2556 262.713 92.8595C262.726 93.9953 262.418 95.1539 261.788 96.3351C261.203 97.4552 260.597 98.443 259.971 99.2985C258.564 101.413 257.105 103.183 255.591 104.609C254.078 106.036 252.453 107.263 250.716 108.29L248.753 105.587ZM256.824 90.5201C255.603 91.0342 254.547 91.7395 253.657 92.6359C252.819 93.5242 252.085 94.559 251.455 95.7402C250.87 96.8603 250.38 98.074 249.987 99.3812C249.646 100.68 249.336 102.002 249.056 103.345C249.804 102.579 250.616 101.695 251.49 100.693C252.365 99.6904 253.178 98.6433 253.93 97.5516C254.727 96.3987 255.387 95.2398 255.911 94.075C256.427 92.8573 256.731 91.6723 256.824 90.5201ZM264.184 72.7187C265.401 72.5303 266.49 72.3888 267.451 72.2943C268.456 72.1386 269.413 72.0176 270.321 71.9313C271.076 69.8095 271.717 68.0034 272.245 66.5128C272.818 64.9612 273.21 63.8169 273.421 63.0798L278.688 66.6534C278.489 67.1177 278.231 67.7265 277.914 68.48C277.642 69.1723 277.364 70.0011 277.08 70.9662C277.186 70.9498 277.318 70.9293 277.477 70.9048C277.627 70.8273 277.782 70.7762 277.941 70.7517L279.38 75.3242C278.542 75.5082 277.809 75.6758 277.182 75.827C276.6 75.9171 276.018 76.0073 275.436 76.0974C274.766 78.4226 274.107 80.9901 273.458 83.7998C272.854 86.5483 272.364 89.3335 271.988 92.1551C271.612 94.9768 271.418 97.7433 271.404 100.455C271.435 103.105 271.777 105.49 272.43 107.611C272.91 107.211 273.435 106.399 274.004 105.173C274.625 103.939 275.249 102.542 275.874 100.982C276.553 99.4137 277.193 97.7704 277.793 96.0518C278.447 94.3251 279.069 92.7388 279.658 91.293L284.846 94.8788C284.582 95.6241 284.253 96.6503 283.859 97.9575C283.457 99.2118 282.988 100.558 282.452 101.995C281.908 103.38 281.254 104.755 280.49 106.119C279.779 107.476 278.955 108.633 278.02 109.59C277.076 110.495 276.035 111.117 274.895 111.456C273.755 111.795 272.481 111.613 271.072 110.91C268.734 109.809 267.13 108.025 266.261 105.559C265.383 103.039 264.971 100.204 265.025 97.0531C265.071 93.8491 265.449 90.5124 266.158 87.0432C266.92 83.5657 267.786 80.2347 268.756 77.0502L267.486 77.2468L264.184 72.7187Z" fill="#5A946F"/>
</svg>
