<svg width="350" height="161" viewBox="0 0 350 161" fill="none" xmlns="http://www.w3.org/2000/svg">
<path d="M61.0795 46.2637H49.8087V81.4198H51.7618V82.3528H36V81.4198H38.488V11.2445H36V10.5105H62.2613C86.4949 10.8464 85.5619 47.3211 61.0795 46.2637ZM61.1666 11.2445H49.8087V45.4178H61.0795C73.5322 39.9938 72.2633 18.2981 61.1666 11.2445Z" fill="white"/>
<path d="M136.903 81.4194V82.3524H119.35V81.4194H121.39L114.449 59.7609H91.9815L83.9327 81.5313H85.9605V82.3773H80.9844V81.5313H83.0246L109.112 10L134.701 81.4194H136.903ZM114.287 58.8901L103.949 27.1178L92.2552 58.8901H114.287Z" fill="white"/>
<path d="M204.678 81.0836C203.246 81.7581 201.682 82.1065 200.1 82.1037C198.872 82.0932 197.65 81.9218 196.467 81.5937C194.276 81.0535 192.239 80.0162 190.513 78.5622C188.787 77.1082 187.419 75.2765 186.515 73.209C185.725 71.3853 185.302 69.4238 185.271 67.4367L185.358 63.8788C185.358 56.0912 182.646 49.7342 174.771 46.0892H165.702V80.9965H167.991V81.9296H151.981V80.9965H154.469V11.2442H151.981V10.4231H176.973C186.204 11.1073 196.38 17.1159 196.38 28.2126C196.38 36.5227 190.16 43.5514 181.638 45.629C190.259 47.6194 196.479 55.1582 196.479 63.4931L196.554 71.8778C196.554 73.408 197.91 80.5238 202.774 80.5238C203.272 80.5401 203.766 80.4242 204.205 80.1879L204.678 81.0836ZM165.789 11.2442V45.2433H176.575C188.866 40.0806 188.605 17.626 177.172 11.269L165.789 11.2442Z" fill="white"/>
<path d="M233.14 81.5068H235.629V82.3528H219.245V81.5068H221.733V11.0205H219.245V10.1746H235.604V11.0205H233.116L233.14 81.5068Z" fill="white"/>
<path d="M303.54 61.1792C303.292 69.3027 297.532 76.4185 288.127 80.0635C284.478 81.4873 280.599 82.2335 276.682 82.2654C266.605 81.8424 256.952 78.2845 250.172 70.5716C249.252 69.551 248.766 68.2124 248.816 66.8395C248.79 66.095 248.917 65.3532 249.187 64.6592C249.458 63.9652 249.867 63.3335 250.39 62.8028C250.912 62.272 251.537 61.8532 252.227 61.5719C252.917 61.2907 253.657 61.1528 254.401 61.1667C255.151 61.1516 255.896 61.2878 256.592 61.5674C257.288 61.8469 257.92 62.264 258.451 62.7936C258.982 63.3233 259.4 63.9546 259.681 64.6498C259.962 65.345 260.1 66.0898 260.087 66.8395C260.068 67.6652 259.874 68.4774 259.516 69.2215C259.157 69.9656 258.644 70.6245 258.01 71.1536C257.376 71.6828 256.636 72.0701 255.84 72.2894C255.043 72.5087 254.209 72.555 253.394 72.4252C259.614 78.185 267.787 80.7352 276.682 81.3199C285.838 81.3199 293.713 76.829 292.78 66.2424C292.108 57.0117 273.547 52.4337 265.511 48.3657C258.308 44.982 249.749 40.0681 249.749 30.9494C250.421 18.0489 264.316 10.0872 276.259 10.0872C285.079 10.0872 293.29 13.558 298.378 19.9149V17.2901H299.311V24.07H298.378V21.781C293.974 15.2499 285.502 11.0202 276.259 11.0202C273.418 11.0201 270.593 11.4393 267.874 12.2642C261.094 14.7522 258.892 23.1867 260.51 27.5159C262.712 32.9399 270.586 36.4107 270.673 36.4107L289.334 44.2854C295.84 47.0222 304.225 53.0433 303.54 61.1792Z" fill="white"/>
<path d="M199.845 121.347C200.839 119.694 201.914 117.725 203.072 115.441C204.278 113.146 205.344 110.781 206.271 108.346C207.188 105.864 207.91 103.398 208.436 100.949C208.962 98.4992 209.061 96.2646 208.733 94.2447C208.686 94.2548 208.633 94.2411 208.575 94.2036C207.678 94.1945 206.792 94.3572 205.918 94.6915C205.033 94.9782 204.198 95.3789 203.411 95.8936C202.625 96.4083 201.849 96.9706 201.082 97.5805C200.316 98.1904 199.597 98.7903 198.926 99.38C197.574 100.512 196.119 101.865 194.562 103.438C193.005 105.011 191.468 106.68 189.951 108.443C188.424 110.159 186.978 111.908 185.614 113.689C184.298 115.46 183.18 117.114 182.262 118.652L182.333 118.637C182.091 119.136 181.802 119.769 181.467 120.536C181.17 121.246 180.906 121.998 180.676 122.793C180.447 123.588 180.312 124.362 180.273 125.117C180.234 125.871 180.37 126.514 180.681 127.045C181.559 127.904 182.912 128.538 184.74 128.947C186.615 129.346 188.676 129.681 190.922 129.951C193.205 130.164 195.547 130.415 197.946 130.703C200.335 130.944 202.535 131.348 204.545 131.918C206.604 132.477 208.298 133.312 209.628 134.424C210.995 135.477 211.751 136.934 211.896 138.794C211.972 139.623 211.837 140.398 211.492 141.118C211.195 141.827 210.763 142.491 210.197 143.108C209.669 143.667 209.083 144.189 208.44 144.674C207.796 145.158 207.171 145.614 206.565 146.041C205.789 146.603 204.922 147.209 203.965 147.859C203.066 148.547 202.099 149.15 201.065 149.667C200.088 150.222 199.086 150.658 198.058 150.975C197.031 151.292 195.977 151.366 194.897 151.197C193.49 150.898 192.062 150.379 190.613 149.641C189.173 148.951 188.023 148.1 187.162 147.088C186.291 146.029 185.878 144.898 185.922 143.695C186.003 142.434 186.871 141.131 188.527 139.786L193.591 143.265C192.94 143.95 192.384 144.615 191.924 145.26C191.463 145.904 191.289 146.489 191.399 147.012C192.467 146.886 193.557 146.63 194.669 146.246C195.819 145.803 196.907 145.299 197.931 144.734C199.003 144.159 200.013 143.523 200.959 142.825C201.954 142.117 202.872 141.4 203.713 140.675C203.846 140.597 204.091 140.346 204.449 139.922C204.855 139.488 205.255 139.03 205.651 138.549C206.036 138.019 206.331 137.534 206.536 137.093C206.731 136.604 206.684 136.265 206.396 136.078C204.959 135.636 203.342 135.281 201.545 135.015C199.785 134.691 198.078 134.381 196.423 134.085C194.616 133.771 192.727 133.425 190.756 133.046C188.833 132.657 186.885 132.149 184.912 131.522C184.002 131.217 183.005 130.856 181.922 130.439C180.876 129.964 179.863 129.407 178.882 128.769C177.901 128.131 177.048 127.391 176.323 126.55C175.55 125.719 175.043 124.732 174.801 123.589C174.508 122.208 174.621 120.742 175.138 119.19C175.645 117.59 176.274 116.213 177.025 115.06C180.15 110.319 183.674 105.817 187.597 101.554C191.567 97.2815 196.022 93.6522 200.962 90.6666C202.901 89.9576 204.79 89.8315 206.627 90.2881C208.465 90.7448 210.117 91.6139 211.582 92.8956C212.277 93.5942 212.843 94.2703 213.28 94.924C213.764 95.5676 214.106 96.2415 214.304 96.9456C214.503 97.6497 214.593 98.4266 214.574 99.2763C214.555 100.126 214.437 101.096 214.22 102.187C213.473 106.175 212.338 110.097 210.815 113.951C209.283 117.757 207.401 121.439 205.169 124.995L199.845 121.347ZM215.183 105.042C216.278 104.81 217.259 104.628 218.126 104.494C219.031 104.302 219.893 104.145 220.712 104.021C221.292 102.058 221.784 100.387 222.188 99.0076C222.63 97.5709 222.929 96.5129 223.083 95.8335L228.042 98.8132C227.884 99.2445 227.681 99.8099 227.431 100.509C227.218 101.151 227.008 101.917 226.798 102.807C226.893 102.787 227.012 102.762 227.155 102.732C227.288 102.654 227.426 102.6 227.568 102.57L229.103 106.647C228.351 106.856 227.695 107.045 227.134 107.213C226.61 107.324 226.086 107.435 225.563 107.546C225.071 109.689 224.601 112.052 224.153 114.635C223.742 117.159 223.437 119.711 223.237 122.29C223.036 124.87 222.998 127.39 223.121 129.851C223.281 132.255 223.711 134.402 224.41 136.294C224.826 135.907 225.261 135.144 225.716 134.003C226.218 132.852 226.714 131.553 227.204 130.106C227.741 128.649 228.24 127.126 228.699 125.536C229.206 123.937 229.691 122.466 230.153 121.125L235.04 124.119C234.838 124.809 234.591 125.757 234.299 126.963C233.997 128.121 233.639 129.366 233.224 130.697C232.799 131.981 232.274 133.261 231.649 134.538C231.072 135.804 230.382 136.895 229.581 137.811C228.77 138.679 227.856 139.295 226.839 139.66C225.822 140.024 224.656 139.923 223.342 139.355C221.165 138.473 219.621 136.934 218.709 134.74C217.786 132.498 217.271 129.945 217.162 127.083C217.044 124.173 217.22 121.126 217.69 117.943C218.208 114.749 218.827 111.683 219.548 108.744L218.406 108.986L215.183 105.042ZM228.553 126.015C229.105 124.157 229.765 122.102 230.532 119.851C231.241 117.561 231.959 115.196 232.686 112.754C231.904 111.178 231.692 109.706 232.049 108.337C232.444 106.91 233.094 105.753 234 104.864C234.897 103.929 235.906 103.292 237.029 102.955C238.199 102.608 239.154 102.654 239.894 103.095C240.623 103.487 241.01 104.375 241.054 105.759C241.089 107.095 240.47 108.992 239.2 111.449C239.889 111.652 240.407 111.865 240.753 112.091C241.099 112.316 241.413 112.623 241.694 113.011C242.013 113.341 242.357 113.791 242.726 114.359C243.132 114.87 243.698 115.546 244.424 116.388C245.207 117.267 245.615 118.374 245.649 119.71C245.721 120.988 245.607 122.33 245.308 123.737C245.056 125.133 244.752 126.516 244.395 127.885C244.028 129.206 243.797 130.349 243.703 131.314C244.725 130.501 245.572 129.451 246.245 128.165C246.966 126.868 247.581 125.544 248.09 124.192C248.59 122.793 249.024 121.433 249.391 120.112C249.805 118.78 250.194 117.678 250.556 116.806L255.53 119.857C255.352 120.193 255.154 120.782 254.934 121.625C254.704 122.419 254.41 123.377 254.05 124.498C253.728 125.561 253.344 126.687 252.899 127.875C252.502 129.054 252.037 130.147 251.504 131.155C251.019 132.154 250.461 133.043 249.831 133.823C249.19 134.555 248.495 135.15 247.746 135.607C247.045 136.054 246.279 136.316 245.45 136.392C244.658 136.41 243.882 136.152 243.122 135.616C242.602 135.278 242.083 134.941 241.564 134.603C241.092 134.255 240.621 133.907 240.149 133.559C239.552 133.089 239.158 132.401 238.966 131.496C238.812 130.534 238.762 129.475 238.816 128.32C238.918 127.154 239.085 125.949 239.32 124.706C239.544 123.415 239.759 122.2 239.966 121.062C240.22 119.914 240.405 118.905 240.519 118.035C240.633 117.165 240.603 116.55 240.427 116.189C240.006 116.079 239.561 115.974 239.092 115.875C238.613 115.727 238.144 115.628 237.685 115.575C237.511 116.16 237.331 116.72 237.146 117.257C237.009 117.783 236.866 118.286 236.719 118.765C236.232 120.46 235.711 122.112 235.157 123.722C234.639 125.274 234.076 126.96 233.467 128.78L228.553 126.015ZM255.548 124.479C255.46 125.941 255.45 127.186 255.519 128.216C255.635 129.236 255.766 129.855 255.912 130.073C256.564 130.333 257.252 130.411 257.976 130.308C258.69 130.157 259.384 129.91 260.058 129.569C260.732 129.227 261.367 128.819 261.963 128.345C262.559 127.87 263.078 127.387 263.521 126.895C264.418 125.96 265.17 124.93 265.778 123.806C266.375 122.635 266.897 121.455 267.341 120.267C267.824 119.02 268.254 117.76 268.631 116.487C269.008 115.213 269.437 113.953 269.92 112.707L274.751 115.788C274.301 117.425 273.871 119.034 273.459 120.613C273.047 122.193 272.525 123.721 271.892 125.198C271.297 126.617 270.529 127.924 269.588 129.118C268.695 130.302 267.537 131.294 266.114 132.092C265.12 132.8 264.099 133.265 263.051 133.487C262.051 133.698 261.04 133.738 260.017 133.607C259.042 133.465 258.061 133.175 257.073 132.738C256.132 132.29 255.195 131.742 254.262 131.094C253.434 130.473 252.687 129.761 252.019 128.957C251.351 128.153 250.84 127.267 250.486 126.297C250.003 124.957 249.777 123.537 249.808 122.038C249.792 120.549 249.975 119.068 250.36 117.593C250.697 116.129 251.196 114.73 251.859 113.396C252.559 112.004 253.366 110.764 254.28 109.675C256.07 107.555 257.886 106.499 259.728 106.507C261.57 106.515 263.545 107.266 265.652 108.76C266.731 109.626 267.374 110.783 267.581 112.232C267.65 113.262 267.428 114.329 266.915 115.432C266.44 116.478 265.94 117.405 265.414 118.212C264.243 120.201 263.007 121.881 261.705 123.251C260.403 124.621 258.99 125.815 257.465 126.834L255.548 124.479ZM262.12 110.403C261.037 110.931 260.115 111.624 259.351 112.482C258.635 113.33 258.021 114.305 257.508 115.409C257.033 116.454 256.65 117.58 256.358 118.786C256.113 119.982 255.898 121.197 255.711 122.43C256.352 121.697 257.044 120.855 257.788 119.901C258.531 118.948 259.217 117.957 259.845 116.929C260.51 115.843 261.052 114.758 261.469 113.675C261.876 112.544 262.093 111.453 262.12 110.403ZM275.007 120.36C274.918 121.822 274.908 123.067 274.977 124.097C275.093 125.117 275.224 125.736 275.37 125.954C276.022 126.214 276.71 126.292 277.434 126.189C278.149 126.038 278.843 125.791 279.516 125.45C280.19 125.108 280.825 124.7 281.421 124.226C282.017 123.751 282.537 123.268 282.98 122.776C283.876 121.841 284.628 120.811 285.236 119.687C285.834 118.516 286.355 117.336 286.8 116.148C287.282 114.901 287.712 113.641 288.089 112.368C288.466 111.094 288.896 109.834 289.378 108.588L294.209 111.669C293.76 113.306 293.329 114.915 292.917 116.494C292.506 118.074 291.983 119.602 291.351 121.079C290.756 122.498 289.988 123.805 289.047 124.999C288.153 126.183 286.995 127.175 285.572 127.973C284.578 128.681 283.557 129.146 282.51 129.368C281.51 129.579 280.499 129.619 279.476 129.488C278.501 129.346 277.519 129.056 276.531 128.619C275.591 128.171 274.654 127.623 273.721 126.975C272.893 126.354 272.145 125.642 271.478 124.838C270.81 124.034 270.299 123.148 269.944 122.178C269.462 120.838 269.236 119.418 269.267 117.919C269.25 116.43 269.434 114.949 269.818 113.475C270.155 112.01 270.655 110.611 271.317 109.277C272.018 107.885 272.825 106.645 273.738 105.556C275.528 103.436 277.344 102.38 279.186 102.388C281.029 102.396 283.003 103.147 285.11 104.641C286.189 105.507 286.832 106.664 287.039 108.113C287.108 109.143 286.886 110.21 286.374 111.313C285.898 112.359 285.398 113.286 284.873 114.093C283.702 116.082 282.466 117.762 281.164 119.132C279.862 120.502 278.448 121.696 276.923 122.716L275.007 120.36ZM281.578 106.284C280.496 106.812 279.573 107.505 278.81 108.363C278.094 109.211 277.479 110.186 276.967 111.29C276.492 112.335 276.108 113.461 275.816 114.667C275.572 115.863 275.356 117.078 275.17 118.311C275.811 117.578 276.503 116.736 277.246 115.782C277.99 114.829 278.675 113.838 279.303 112.81C279.969 111.724 280.51 110.639 280.928 109.556C281.335 108.425 281.552 107.335 281.578 106.284ZM287.368 89.7621C288.463 89.5303 289.444 89.3475 290.311 89.2137C291.216 89.0222 292.078 88.8646 292.897 88.7409C293.476 86.7777 293.968 85.1066 294.373 83.7276C294.815 82.2909 295.113 81.2329 295.268 80.5534L300.226 83.5332C300.069 83.9645 299.865 84.5299 299.615 85.2295C299.403 85.8713 299.192 86.6373 298.983 87.5273C299.078 87.5072 299.197 87.482 299.34 87.4517C299.472 87.3739 299.61 87.3199 299.753 87.2896L301.288 91.3672C300.536 91.5761 299.88 91.7648 299.318 91.9333C298.795 92.0442 298.271 92.155 297.747 92.2659C297.256 94.4095 296.786 96.7723 296.338 99.3545C295.927 101.879 295.621 104.431 295.421 107.01C295.221 109.59 295.182 112.11 295.306 114.571C295.466 116.975 295.896 119.122 296.595 121.014C297.01 120.627 297.446 119.864 297.901 118.723C298.403 117.572 298.899 116.273 299.389 114.826C299.926 113.369 300.424 111.846 300.884 110.256C301.391 108.657 301.876 107.186 302.338 105.845L307.225 108.839C307.023 109.529 306.776 110.477 306.484 111.683C306.182 112.841 305.823 114.086 305.409 115.417C304.984 116.701 304.459 117.981 303.834 119.258C303.256 120.524 302.567 121.615 301.766 122.531C300.955 123.399 300.041 124.015 299.023 124.38C298.006 124.744 296.841 124.643 295.527 124.075C293.35 123.193 291.806 121.654 290.893 119.46C289.971 117.218 289.456 114.665 289.347 111.803C289.229 108.893 289.404 105.846 289.875 102.663C290.392 99.4688 291.012 96.4027 291.733 93.4644L290.59 93.7063L287.368 89.7621Z" fill="#5A946F"/>
</svg>
