<svg width="285" height="144" viewBox="0 0 285 144" fill="none" xmlns="http://www.w3.org/2000/svg">
<path d="M25.0795 36.2637H13.8087V71.4198H15.7618V72.3528H0V71.4198H2.48805V1.24447H0V0.510498H26.2613C50.4949 0.846384 49.5619 37.3211 25.0795 36.2637ZM25.1666 1.24447H13.8087V35.4178H25.0795C37.5322 29.9938 36.2633 8.29808 25.1666 1.24447Z" fill="white"/>
<path d="M100.903 71.4194V72.3524H83.35V71.4194H85.3902L78.4486 49.7609H55.9815L47.9327 71.5313H49.9605V72.3773H44.9844V71.5313H47.0246L73.1117 0L98.7013 71.4194H100.903ZM78.2869 48.8901L67.949 17.1178L56.2552 48.8901H78.2869Z" fill="white"/>
<path d="M168.678 71.0836C167.246 71.7581 165.682 72.1065 164.1 72.1037C162.872 72.0932 161.65 71.9218 160.467 71.5937C158.276 71.0535 156.239 70.0162 154.513 68.5622C152.787 67.1082 151.419 65.2765 150.515 63.209C149.725 61.3853 149.302 59.4238 149.271 57.4367L149.358 53.8788C149.358 46.0912 146.646 39.7342 138.771 36.0892H129.702V70.9965H131.991V71.9296H115.981V70.9965H118.469V1.24415H115.981V0.423096H140.973C150.204 1.10731 160.38 7.11594 160.38 18.2126C160.38 26.5227 154.16 33.5514 145.638 35.629C154.259 37.6194 160.479 45.1582 160.479 53.4931L160.554 61.8778C160.554 63.408 161.91 70.5238 166.774 70.5238C167.272 70.5401 167.766 70.4242 168.205 70.1879L168.678 71.0836ZM129.789 1.24415V35.2433H140.575C152.866 30.0806 152.605 7.62599 141.172 1.26903L129.789 1.24415Z" fill="white"/>
<path d="M197.14 71.5068H199.629V72.3528H183.245V71.5068H185.733V1.0205H183.245V0.174561H199.604V1.0205H197.116L197.14 71.5068Z" fill="white"/>
<path d="M267.54 51.1792C267.292 59.3027 261.532 66.4185 252.127 70.0635C248.478 71.4873 244.599 72.2335 240.682 72.2654C230.605 71.8424 220.952 68.2845 214.172 60.5716C213.252 59.551 212.766 58.2124 212.816 56.8395C212.79 56.095 212.917 55.3532 213.187 54.6592C213.458 53.9652 213.867 53.3335 214.39 52.8028C214.912 52.272 215.537 51.8532 216.227 51.5719C216.917 51.2907 217.657 51.1528 218.401 51.1667C219.151 51.1516 219.896 51.2878 220.592 51.5674C221.288 51.8469 221.92 52.264 222.451 52.7936C222.982 53.3233 223.4 53.9546 223.681 54.6498C223.962 55.345 224.1 56.0898 224.087 56.8395C224.068 57.6652 223.874 58.4774 223.516 59.2215C223.157 59.9656 222.644 60.6245 222.01 61.1536C221.376 61.6828 220.636 62.0701 219.84 62.2894C219.043 62.5087 218.209 62.555 217.394 62.4252C223.614 68.185 231.787 70.7352 240.682 71.3199C249.838 71.3199 257.713 66.829 256.78 56.2424C256.108 47.0117 237.547 42.4337 229.511 38.3657C222.308 34.982 213.749 30.0681 213.749 20.9494C214.421 8.04891 228.316 0.0871582 240.259 0.0871582C249.079 0.0871582 257.29 3.55798 262.378 9.91494V7.29005H263.311V14.07H262.378V11.781C257.974 5.24985 249.502 1.02018 240.259 1.02018C237.418 1.02011 234.593 1.4393 231.874 2.2642C225.094 4.75224 222.892 13.1867 224.51 17.5159C226.712 22.9399 234.586 26.4107 234.673 26.4107L253.334 34.2854C259.84 37.0222 268.225 43.0433 267.54 51.1792Z" fill="white"/>
<path d="M166.119 109.123C167.31 107.368 168.611 105.27 170.021 102.83C171.485 100.382 172.799 97.8483 173.965 95.2295C175.123 92.5577 176.065 89.8923 176.791 87.2332C177.518 84.574 177.762 82.125 177.523 79.8861C177.47 79.8943 177.413 79.876 177.352 79.8313C176.367 79.7671 175.384 79.8922 174.403 80.2066C173.414 80.4681 172.472 80.8577 171.577 81.3756C170.682 81.8935 169.795 82.4643 168.916 83.088C168.037 83.7117 167.211 84.3272 166.438 84.9345C164.884 86.0963 163.204 87.4942 161.398 89.1285C159.592 90.7627 157.802 92.5027 156.029 94.3486C154.248 96.1416 152.554 97.9752 150.947 99.8494C149.394 101.715 148.066 103.465 146.965 105.099L147.044 105.087C146.747 105.62 146.392 106.298 145.977 107.121C145.608 107.883 145.272 108.693 144.972 109.552C144.672 110.412 144.477 111.255 144.388 112.081C144.299 112.908 144.41 113.622 144.72 114.224C145.633 115.221 147.081 115.999 149.064 116.559C151.1 117.111 153.344 117.603 155.795 118.037C158.291 118.409 160.848 118.826 163.466 119.287C166.076 119.696 168.468 120.274 170.643 121.021C172.871 121.76 174.681 122.78 176.075 124.082C177.513 125.322 178.256 126.968 178.302 129.02C178.336 129.936 178.141 130.779 177.719 131.549C177.349 132.31 176.834 133.013 176.176 133.657C175.561 134.24 174.886 134.778 174.15 135.271C173.413 135.764 172.699 136.227 172.007 136.659C171.12 137.23 170.132 137.844 169.041 138.5C168.012 139.201 166.913 139.805 165.745 140.311C164.639 140.861 163.511 141.28 162.363 141.566C161.216 141.852 160.053 141.869 158.877 141.618C157.35 141.204 155.812 140.548 154.264 139.65C152.725 138.804 151.512 137.8 150.628 136.636C149.735 135.42 149.349 134.152 149.47 132.833C149.636 131.453 150.669 130.074 152.568 128.696L157.922 132.825C157.165 133.538 156.515 134.235 155.97 134.915C155.425 135.596 155.197 136.227 155.287 136.809C156.468 136.735 157.681 136.52 158.926 136.165C160.217 135.748 161.442 135.26 162.601 134.702C163.814 134.135 164.961 133.496 166.044 132.787C167.179 132.069 168.231 131.338 169.199 130.592C169.349 130.514 169.634 130.253 170.053 129.809C170.525 129.357 170.993 128.878 171.456 128.373C171.912 127.815 172.265 127.299 172.517 126.827C172.761 126.301 172.73 125.927 172.425 125.703C170.873 125.131 169.118 124.644 167.159 124.243C165.245 123.78 163.389 123.336 161.589 122.911C159.622 122.456 157.568 121.962 155.426 121.426C153.337 120.883 151.227 120.207 149.097 119.399C148.116 119.009 147.043 118.552 145.878 118.028C144.758 117.443 143.678 116.77 142.639 116.009C141.6 115.249 140.708 114.385 139.962 113.417C139.163 112.457 138.665 111.342 138.469 110.072C138.231 108.537 138.444 106.933 139.106 105.259C139.759 103.532 140.534 102.058 141.428 100.835C145.148 95.8163 149.292 91.0838 153.86 86.6379C158.481 82.1838 163.595 78.4661 169.202 75.4849C171.375 74.8233 173.458 74.799 175.449 75.4119C177.44 76.0247 179.202 77.0795 180.734 78.5763C181.456 79.3857 182.036 80.1628 182.477 80.9074C182.97 81.6438 183.305 82.4048 183.481 83.1903C183.656 83.9759 183.708 84.8349 183.636 85.7672C183.563 86.6996 183.375 87.7583 183.071 88.9432C182.008 93.28 180.524 97.5194 178.619 101.662C176.705 105.751 174.415 109.682 171.747 113.454L166.119 109.123ZM183.956 92.1386C185.173 91.9502 186.262 91.8087 187.223 91.7142C188.228 91.5585 189.185 91.4375 190.092 91.3512C190.848 89.2294 191.489 87.4233 192.017 85.9327C192.59 84.3811 192.981 83.2367 193.192 82.4997L198.46 86.0733C198.261 86.5375 198.003 87.1464 197.686 87.8999C197.414 88.5922 197.136 89.421 196.852 90.3861C196.957 90.3697 197.09 90.3492 197.248 90.3246C197.399 90.2472 197.554 90.1961 197.712 90.1715L199.152 94.7441C198.313 94.9281 197.581 95.0957 196.954 95.2469C196.372 95.337 195.79 95.4271 195.208 95.5173C194.538 97.8425 193.879 100.41 193.23 103.22C192.626 105.968 192.136 108.753 191.76 111.575C191.384 114.397 191.189 117.163 191.176 119.875C191.207 122.525 191.549 124.91 192.202 127.031C192.682 126.631 193.207 125.819 193.775 124.593C194.397 123.358 195.021 121.961 195.646 120.402C196.325 118.834 196.964 117.19 197.565 115.472C198.219 113.745 198.84 112.159 199.429 110.713L204.617 114.299C204.353 115.044 204.025 116.07 203.631 117.377C203.229 118.632 202.76 119.978 202.224 121.415C201.68 122.8 201.026 124.175 200.262 125.539C199.55 126.895 198.727 128.052 197.792 129.01C196.848 129.915 195.806 130.537 194.667 130.876C193.527 131.215 192.253 131.032 190.843 130.33C188.506 129.228 186.902 127.445 186.032 124.978C185.155 122.459 184.743 119.624 184.797 116.473C184.843 113.269 185.22 109.932 185.93 106.463C186.692 102.986 187.558 99.6546 188.528 96.4701L187.258 96.6667L183.956 92.1386ZM197.376 115.989C198.095 113.981 198.943 111.763 199.922 109.336C200.84 106.864 201.772 104.309 202.718 101.67C201.955 99.8912 201.811 98.2609 202.286 96.7785C202.806 95.2351 203.59 94.0028 204.64 93.0818C205.681 92.1078 206.828 91.4696 208.082 91.1671C209.389 90.8565 210.435 90.9654 211.221 91.4939C211.999 91.9695 212.371 92.9686 212.336 94.4913C212.292 95.961 211.498 98.0075 209.954 100.631C210.699 100.895 211.255 101.161 211.621 101.429C211.988 101.698 212.314 102.053 212.6 102.497C212.93 102.879 213.28 103.394 213.651 104.041C214.067 104.627 214.648 105.404 215.394 106.372C216.201 107.385 216.583 108.626 216.539 110.096C216.541 111.505 216.334 112.972 215.921 114.5C215.56 116.018 215.142 117.519 214.667 119.001C214.184 120.431 213.861 121.673 213.699 122.727C214.871 121.896 215.865 120.794 216.683 119.421C217.552 118.04 218.308 116.622 218.95 115.168C219.584 113.662 220.142 112.193 220.625 110.764C221.161 109.326 221.655 108.139 222.106 107.202L227.386 110.855C227.17 111.214 226.916 111.849 226.624 112.761C226.324 113.621 225.942 114.655 225.479 115.865C225.061 117.013 224.571 118.227 224.011 119.506C223.503 120.776 222.926 121.949 222.28 123.025C221.686 124.092 221.019 125.035 220.279 125.854C219.531 126.62 218.732 127.231 217.881 127.688C217.084 128.137 216.227 128.378 215.311 128.411C214.44 128.384 213.603 128.052 212.8 127.418C212.25 127.016 211.7 126.613 211.15 126.211C210.653 125.8 210.156 125.389 209.659 124.978C209.031 124.425 208.64 123.646 208.484 122.641C208.373 121.574 208.382 120.408 208.511 119.141C208.693 117.867 208.951 116.554 209.283 115.202C209.608 113.797 209.918 112.476 210.214 111.238C210.563 109.992 210.826 108.894 211.005 107.946C211.183 106.997 211.186 106.319 211.015 105.912C210.559 105.766 210.076 105.624 209.567 105.486C209.05 105.295 208.541 105.157 208.04 105.072C207.813 105.703 207.581 106.308 207.346 106.886C207.163 107.457 206.976 108 206.785 108.517C206.148 110.35 205.476 112.134 204.769 113.869C204.107 115.543 203.386 117.361 202.606 119.324L197.376 115.989ZM227.126 115.935C226.94 117.535 226.854 118.903 226.867 120.039C226.934 121.166 227.04 121.854 227.187 122.102C227.887 122.427 228.639 122.555 229.441 122.485C230.234 122.362 231.012 122.133 231.773 121.799C232.534 121.464 233.256 121.055 233.939 120.569C234.623 120.084 235.223 119.585 235.74 119.072C236.781 118.098 237.669 117.012 238.405 115.814C239.133 114.564 239.777 113.299 240.337 112.02C240.943 110.68 241.491 109.322 241.982 107.945C242.474 106.569 243.022 105.211 243.627 103.871L248.748 107.548C248.155 109.32 247.585 111.061 247.037 112.771C246.489 114.481 245.823 116.129 245.039 117.713C244.299 119.237 243.376 120.626 242.27 121.881C241.217 123.127 239.885 124.146 238.273 124.938C237.138 125.655 235.988 126.104 234.824 126.284C233.713 126.456 232.599 126.439 231.484 126.233C230.421 126.018 229.36 125.64 228.301 125.1C227.295 124.551 226.299 123.893 225.313 123.124C224.441 122.392 223.663 121.564 222.978 120.641C222.293 119.717 221.785 118.712 221.455 117.625C221.005 116.124 220.843 114.55 220.968 112.905C221.039 111.269 221.331 109.652 221.843 108.056C222.301 106.468 222.935 104.961 223.744 103.535C224.597 102.048 225.559 100.735 226.628 99.5937C228.723 97.3729 230.782 96.3227 232.805 96.4429C234.829 96.5631 236.953 97.5077 239.177 99.2765C240.31 100.293 240.946 101.604 241.086 103.207C241.1 104.343 240.791 105.502 240.161 106.683C239.576 107.803 238.97 108.791 238.344 109.646C236.938 111.761 235.478 113.531 233.965 114.957C232.452 116.384 230.826 117.611 229.089 118.638L227.126 115.935ZM235.197 100.868C233.976 101.382 232.921 102.087 232.03 102.984C231.192 103.872 230.458 104.907 229.828 106.088C229.243 107.208 228.754 108.422 228.36 109.729C228.019 111.028 227.709 112.35 227.429 113.693C228.178 112.927 228.989 112.043 229.863 111.041C230.738 110.038 231.551 108.991 232.303 107.9C233.1 106.747 233.76 105.588 234.285 104.423C234.8 103.205 235.105 102.02 235.197 100.868ZM248.753 112.587C248.567 114.187 248.481 115.555 248.494 116.691C248.56 117.818 248.667 118.506 248.814 118.754C249.514 119.079 250.265 119.207 251.067 119.137C251.861 119.014 252.638 118.785 253.399 118.451C254.16 118.116 254.883 117.707 255.566 117.221C256.25 116.736 256.85 116.237 257.366 115.724C258.408 114.75 259.296 113.664 260.032 112.466C260.759 111.216 261.403 109.951 261.964 108.672C262.569 107.332 263.118 105.974 263.609 104.597C264.1 103.221 264.649 101.863 265.254 100.523L270.375 104.2C269.782 105.972 269.212 107.713 268.664 109.423C268.116 111.133 267.45 112.781 266.665 114.365C265.926 115.889 265.003 117.278 263.897 118.533C262.844 119.779 261.511 120.798 259.9 121.59C258.765 122.307 257.615 122.756 256.451 122.936C255.34 123.108 254.226 123.091 253.111 122.885C252.048 122.67 250.987 122.292 249.928 121.752C248.922 121.203 247.926 120.545 246.94 119.776C246.068 119.044 245.29 118.216 244.605 117.293C243.92 116.369 243.412 115.364 243.081 114.278C242.632 112.776 242.47 111.202 242.594 109.557C242.666 107.921 242.958 106.304 243.469 104.708C243.928 103.12 244.561 101.613 245.37 100.187C246.224 98.7005 247.185 97.3866 248.255 96.2457C250.35 94.025 252.409 92.9747 254.432 93.0949C256.456 93.2152 258.58 94.1597 260.804 95.9286C261.937 96.9453 262.573 98.2556 262.713 99.8595C262.726 100.995 262.418 102.154 261.788 103.335C261.203 104.455 260.597 105.443 259.971 106.299C258.564 108.413 257.105 110.183 255.591 111.609C254.078 113.036 252.453 114.263 250.716 115.29L248.753 112.587ZM256.824 97.5201C255.603 98.0342 254.547 98.7395 253.657 99.6359C252.819 100.524 252.085 101.559 251.455 102.74C250.87 103.86 250.38 105.074 249.987 106.381C249.646 107.68 249.336 109.002 249.056 110.345C249.804 109.579 250.616 108.695 251.49 107.693C252.365 106.69 253.178 105.643 253.93 104.552C254.727 103.399 255.387 102.24 255.911 101.075C256.427 99.8573 256.731 98.6723 256.824 97.5201ZM264.184 79.7187C265.401 79.5303 266.49 79.3888 267.451 79.2943C268.456 79.1386 269.413 79.0176 270.321 78.9313C271.076 76.8095 271.717 75.0034 272.245 73.5128C272.818 71.9612 273.21 70.8169 273.421 70.0798L278.688 73.6534C278.489 74.1177 278.231 74.7265 277.914 75.48C277.642 76.1723 277.364 77.0011 277.08 77.9662C277.186 77.9498 277.318 77.9293 277.477 77.9048C277.627 77.8273 277.782 77.7762 277.941 77.7517L279.38 82.3242C278.541 82.5082 277.809 82.6758 277.182 82.827C276.6 82.9171 276.018 83.0073 275.436 83.0974C274.766 85.4226 274.107 87.9901 273.458 90.7998C272.854 93.5483 272.364 96.3335 271.988 99.1551C271.612 101.977 271.418 104.743 271.404 107.455C271.435 110.105 271.777 112.49 272.43 114.611C272.91 114.211 273.435 113.399 274.004 112.173C274.625 110.939 275.249 109.542 275.874 107.982C276.553 106.414 277.192 104.77 277.793 103.052C278.447 101.325 279.069 99.7388 279.658 98.293L284.846 101.879C284.582 102.624 284.253 103.65 283.859 104.958C283.457 106.212 282.988 107.558 282.452 108.995C281.908 110.38 281.254 111.755 280.49 113.119C279.779 114.476 278.955 115.633 278.02 116.59C277.076 117.495 276.035 118.117 274.895 118.456C273.755 118.795 272.481 118.613 271.072 117.91C268.734 116.809 267.13 115.025 266.261 112.559C265.383 110.039 264.971 107.204 265.025 104.053C265.071 100.849 265.449 97.5124 266.158 94.0432C266.92 90.5657 267.786 87.2347 268.756 84.0502L267.486 84.2468L264.184 79.7187Z" fill="#5A946F"/>
</svg>
