<svg width="331" height="121" viewBox="0 0 331 121" fill="none" xmlns="http://www.w3.org/2000/svg">
<path d="M14.0805 2.18359C17.8111 2.19135 21.3866 3.67778 24.0232 6.31712C26.6597 8.95647 28.1425 12.5334 28.1463 16.2641V22.3446C28.1308 26.0819 26.6364 29.6609 23.9896 32.2994C21.3429 34.938 17.7591 36.4213 14.0219 36.4251H12.3662C11.216 36.4347 10.0827 36.7031 9.05042 37.2104C8.0181 37.7176 7.11322 38.4508 6.40289 39.3555V66.1685H0V2.18359H14.0805ZM21.7581 16.2641C21.7581 14.2279 20.9492 12.275 19.5094 10.8352C18.0695 9.39537 16.1167 8.58648 14.0805 8.58648H6.40289V31.3556C8.2646 30.4669 10.3033 30.011 12.3662 30.0222H14.0219C16.0572 30.0262 18.0117 29.2265 19.4604 27.797C20.9092 26.3674 21.7349 24.4237 21.7581 22.3886V16.2641Z" fill="white"/>
<path d="M71.2235 16V52.0876C71.2844 53.9739 70.9654 55.8533 70.2855 57.6139C69.6057 59.3745 68.5788 60.9804 67.266 62.3363C65.9532 63.6922 64.3812 64.7703 62.6434 65.5066C60.9057 66.2429 59.0376 66.6223 57.1503 66.6223C55.263 66.6223 53.395 66.2429 51.6572 65.5066C49.9194 64.7703 48.3474 63.6922 47.0346 62.3363C45.7218 60.9804 44.6949 59.3745 44.0151 57.6139C43.3352 55.8533 43.0163 53.9739 43.0772 52.0876V22.4468C44.5165 24.9103 46.7865 26.7804 49.48 27.7215V52.0876C49.48 54.1161 50.2858 56.0615 51.7202 57.4958C53.1545 58.9301 55.0999 59.7359 57.1283 59.7359C59.1568 59.7359 61.1022 58.9301 62.5365 57.4958C63.9708 56.0615 64.7766 54.1161 64.7766 52.0876V16.1172C64.6561 14.1706 63.7978 12.3432 62.3767 11.0073C60.9557 9.67154 59.0787 8.92787 57.1283 8.92787C55.178 8.92787 53.301 9.67154 51.8799 11.0073C50.4589 12.3432 49.6006 14.1706 49.48 16.1172C49.4241 16.6521 49.4822 17.1929 49.6503 17.7038C49.8184 18.2147 50.0928 18.6843 50.4554 19.0815C50.8181 19.4787 51.2607 19.7947 51.7543 20.0085C52.2478 20.2224 52.781 20.3293 53.3188 20.3223V26.7252C50.6189 26.7253 48.0277 25.6609 46.1076 23.7627C44.1875 21.8646 43.0934 19.2858 43.0625 16.586C43.0656 12.9083 44.5076 9.37778 47.08 6.7494C49.6524 4.12101 53.1511 2.60341 56.8279 2.52111C60.5047 2.43881 64.0678 3.79834 66.7552 6.30898C69.4426 8.81963 71.0411 12.2821 71.2088 15.956L71.2235 16Z" fill="white"/>
<path d="M107.427 66.168C106.682 64.3042 106.304 62.3142 106.313 60.3072C106.319 59.3247 106.407 58.3445 106.577 57.3768C107.716 53.0406 108.335 48.5845 108.423 44.1022C108.422 42.3915 107.854 40.7295 106.806 39.377C105.759 38.0245 104.292 37.0582 102.636 36.6297L93.0826 40.2048V66.168H86.6797V2.44678H100.702C102.551 2.44486 104.383 2.80774 106.092 3.51467C107.801 4.2216 109.354 5.25869 110.662 6.56657C111.97 7.87444 113.007 9.42743 113.714 11.1366C114.421 12.8458 114.784 14.6777 114.782 16.5273V22.388C114.786 24.4655 114.33 26.5181 113.446 28.398C112.562 30.2779 111.272 31.9383 109.669 33.2598C111.273 34.5828 112.565 36.2456 113.449 38.1282C114.333 40.0108 114.789 42.0662 114.782 44.1461C114.74 49.0928 114.08 54.0147 112.819 58.798C112.749 59.2836 112.71 59.7729 112.701 60.2632C112.726 62.3934 113.458 64.455 114.782 66.124L107.427 66.168ZM103.324 29.5382C104.806 29.0011 106.088 28.0243 106.999 26.7387C107.91 25.4531 108.407 23.9198 108.423 22.3441V16.4833C108.429 15.469 108.233 14.4637 107.847 13.5259C107.46 12.5881 106.891 11.7364 106.173 11.0206C105.454 10.3047 104.6 9.73896 103.661 9.3562C102.722 8.97344 101.716 8.78133 100.702 8.79106H93.0826V33.377L103.324 29.5382Z" fill="white"/>
<path d="M155.778 10.8278C152.689 9.39227 149.324 8.64727 145.918 8.64463H145.229V66.168H138.826V8.64463C134.477 8.65215 130.18 7.70168 126.24 5.86077L128.936 0C132.025 1.4355 135.39 2.18049 138.797 2.18314H145.888C150.241 2.18793 154.538 3.15351 158.474 5.01095L155.778 10.8278Z" fill="white"/>
<path d="M179.558 52.3071C179.612 54.3062 180.445 56.2052 181.879 57.5986C183.314 58.992 185.236 59.7694 187.236 59.7649H187.456C189.411 59.7055 191.269 58.8994 192.648 57.5123C194.026 56.1251 194.822 54.2624 194.869 52.3071V2.24146H201.272V52.4096C201.191 56.0278 199.719 59.4756 197.162 62.0374C194.606 64.5992 191.161 66.0783 187.543 66.1678H187.221C183.544 66.1613 180.015 64.7197 177.385 62.15C174.755 59.5803 173.232 56.0854 173.141 52.4096V2.24146H179.544L179.558 52.3071Z" fill="white"/>
<path d="M247.061 74.7252C244.941 74.7175 242.911 73.8722 241.412 72.3736C239.914 70.875 239.069 68.8446 239.061 66.7253V63.8828C236.925 65.2711 234.456 66.0605 231.911 66.1685H231.5C227.852 66.1718 224.344 64.7649 221.709 62.2419C219.074 59.7188 217.516 56.275 217.361 52.6301V16.2641C217.361 12.5297 218.845 8.94828 221.485 6.30767C224.126 3.66707 227.707 2.18359 231.442 2.18359C235.176 2.18359 238.758 3.66707 241.398 6.30767C244.039 8.94828 245.522 12.5297 245.522 16.2641C245.522 17.611 245.257 18.9447 244.742 20.189C244.226 21.4334 243.471 22.564 242.518 23.5164C241.566 24.4688 240.435 25.2243 239.191 25.7397C237.947 26.2551 236.613 26.5204 235.266 26.5204V20.1029C235.771 20.1068 236.272 20.0102 236.74 19.8186C237.207 19.6271 237.632 19.3445 237.989 18.9872C238.346 18.63 238.629 18.2052 238.82 17.7377C239.012 17.2702 239.109 16.7693 239.105 16.2641C239.105 14.2279 238.296 12.275 236.856 10.8352C235.416 9.39537 233.463 8.58648 231.427 8.58648C229.391 8.58648 227.438 9.39537 225.998 10.8352C224.558 12.275 223.75 14.2279 223.75 16.2641V52.469C223.84 54.4538 224.697 56.3261 226.14 57.6923C227.583 59.0585 229.499 59.8122 231.486 59.7949H231.852C233.756 59.6946 235.553 58.8884 236.894 57.5338C238.236 56.1792 239.024 54.3734 239.105 52.469V36.3519H235.749C235.527 36.3509 235.306 36.3965 235.102 36.4858C234.898 36.5751 234.715 36.706 234.565 36.8702C234.415 37.0344 234.3 37.2282 234.229 37.4392C234.158 37.6502 234.132 37.8737 234.152 38.0954C234.149 38.3048 234.19 38.5126 234.273 38.7046C234.357 38.8967 234.48 39.0687 234.636 39.209L230.108 43.7364C228.982 42.6233 228.212 41.1996 227.898 39.6471C227.584 38.0947 227.739 36.4838 228.344 35.0201C228.95 33.5564 229.977 32.3062 231.296 31.429C232.615 30.5519 234.166 30.0877 235.749 30.0955H245.464V66.7253C245.475 67.1453 245.647 67.5451 245.944 67.8423C246.241 68.1394 246.641 68.3112 247.061 68.3223V74.7252Z" fill="white"/>
<path d="M289.067 66.1678H282.562L280.056 51.3986C279.67 50.0914 278.869 48.9449 277.776 48.1312C276.682 47.3175 275.354 46.8805 273.99 46.8858H270.635L267.382 66.1385H260.877L271.793 2.24146H278.196L289.067 66.1678ZM273.99 40.5269C275.467 40.524 276.932 40.7922 278.313 41.3181L274.943 21.538L271.749 40.5855L273.99 40.5269Z" fill="white"/>
<path d="M330.649 65.0542L325.477 68.7758C324.885 67.974 324.115 67.3209 323.228 66.8682C322.34 66.4155 321.36 66.1757 320.363 66.1678H303.719V2.24146H310.122V59.7649H320.378C322.385 59.7789 324.36 60.265 326.145 61.1839C327.929 62.1028 329.472 63.4286 330.649 65.0542Z" fill="white"/>
<path d="M231.937 87.8193C232.877 86.4337 233.903 84.7782 235.016 82.8528C236.171 80.9209 237.208 78.9216 238.128 76.855C239.042 74.7467 239.785 72.6433 240.358 70.5448C240.931 68.4464 241.124 66.5138 240.936 64.747C240.894 64.7535 240.849 64.7391 240.801 64.7038C240.024 64.6531 239.248 64.7518 238.474 64.9999C237.693 65.2063 236.95 65.5138 236.243 65.9225C235.537 66.3311 234.837 66.7816 234.144 67.2738C233.45 67.7659 232.798 68.2517 232.188 68.7309C230.962 69.6477 229.636 70.7509 228.211 72.0405C226.786 73.3301 225.374 74.7033 223.974 76.1599C222.568 77.5748 221.232 79.0218 219.964 80.5008C218.738 81.9734 217.691 83.3542 216.821 84.6433L216.884 84.6336C216.65 85.0547 216.369 85.5899 216.042 86.2391C215.75 86.8402 215.486 87.4797 215.249 88.1578C215.011 88.8359 214.858 89.5011 214.788 90.1533C214.718 90.8056 214.805 91.3693 215.05 91.8446C215.77 92.631 216.913 93.2451 218.478 93.687C220.084 94.1224 221.855 94.5111 223.789 94.8531C225.759 95.1468 227.777 95.4758 229.843 95.8401C231.903 96.1626 233.79 96.6187 235.507 97.2082C237.264 97.7912 238.693 98.5963 239.793 99.6233C240.928 100.602 241.514 101.901 241.551 103.52C241.577 104.243 241.424 104.908 241.09 105.516C240.798 106.117 240.392 106.671 239.872 107.179C239.388 107.639 238.855 108.064 238.274 108.453C237.692 108.842 237.129 109.208 236.583 109.549C235.883 109.999 235.103 110.483 234.242 111.001C233.43 111.555 232.563 112.031 231.642 112.43C230.768 112.865 229.879 113.195 228.973 113.421C228.067 113.646 227.15 113.66 226.221 113.462C225.016 113.135 223.803 112.618 222.581 111.909C221.366 111.242 220.41 110.449 219.712 109.531C219.007 108.571 218.703 107.57 218.798 106.529C218.929 105.44 219.744 104.352 221.243 103.265L225.468 106.523C224.871 107.086 224.357 107.636 223.927 108.173C223.497 108.71 223.318 109.208 223.389 109.667C224.32 109.608 225.278 109.439 226.26 109.158C227.279 108.83 228.245 108.445 229.16 108.004C230.117 107.556 231.023 107.053 231.877 106.493C232.773 105.927 233.603 105.349 234.367 104.761C234.486 104.699 234.71 104.494 235.041 104.143C235.413 103.786 235.782 103.408 236.148 103.01C236.508 102.569 236.787 102.163 236.985 101.79C237.178 101.375 237.153 101.08 236.912 100.903C235.688 100.451 234.303 100.067 232.757 99.7504C231.247 99.3856 229.782 99.0351 228.361 98.6992C226.809 98.3408 225.188 97.9504 223.498 97.5279C221.849 97.0989 220.185 96.5656 218.504 95.9278C217.729 95.6202 216.882 95.2595 215.963 94.846C215.079 94.3842 214.227 93.8533 213.408 93.2533C212.588 92.6533 211.884 91.9712 211.295 91.2072C210.665 90.4496 210.272 89.5697 210.117 88.5675C209.929 87.3565 210.097 86.0905 210.619 84.7696C211.135 83.4069 211.746 82.2434 212.452 81.2789C215.388 77.3181 218.658 73.5835 222.263 70.0751C225.909 66.5602 229.944 63.6265 234.369 61.2739C236.084 60.7518 237.728 60.7326 239.299 61.2162C240.871 61.6999 242.261 62.5323 243.47 63.7134C244.039 64.3522 244.497 64.9654 244.845 65.553C245.234 66.1341 245.498 66.7346 245.637 67.3545C245.776 67.9744 245.817 68.6523 245.759 69.388C245.702 70.1238 245.554 70.9592 245.314 71.8943C244.475 75.3166 243.304 78.6621 241.8 81.9308C240.29 85.1578 238.483 88.2597 236.378 91.2366L231.937 87.8193ZM246.012 74.4159C246.973 74.2672 247.832 74.1556 248.59 74.081C249.383 73.9581 250.138 73.8627 250.855 73.7945C251.451 72.1202 251.957 70.6949 252.373 69.5186C252.825 68.2942 253.134 67.3911 253.301 66.8095L257.458 69.6295C257.3 69.9959 257.097 70.4764 256.847 71.071C256.632 71.6173 256.413 72.2713 256.189 73.0329C256.272 73.02 256.376 73.0038 256.502 72.9844C256.621 72.9233 256.743 72.883 256.868 72.8636L258.004 76.472C257.342 76.6172 256.764 76.7494 256.269 76.8688C255.81 76.9399 255.351 77.011 254.891 77.0821C254.363 78.917 253.843 80.9431 253.331 83.1604C252.854 85.3294 252.467 87.5272 252.171 89.7539C251.874 91.9805 251.72 94.1637 251.709 96.3033C251.734 98.3948 252.004 100.277 252.52 101.95C252.898 101.635 253.312 100.994 253.761 100.026C254.252 99.0526 254.744 97.9502 255.237 96.7193C255.773 95.4819 256.278 94.1851 256.752 92.8289C257.268 91.4662 257.758 90.2144 258.223 89.0735L262.317 91.9032C262.109 92.4913 261.849 93.3012 261.538 94.3327C261.221 95.3225 260.851 96.3847 260.428 97.5192C259.999 98.6119 259.483 99.6966 258.88 100.773C258.318 101.844 257.669 102.757 256.93 103.512C256.186 104.226 255.364 104.717 254.464 104.985C253.565 105.252 252.559 105.108 251.447 104.554C249.602 103.685 248.337 102.277 247.651 100.331C246.958 98.343 246.633 96.1057 246.676 93.619C246.712 91.0906 247.01 88.4576 247.57 85.7198C248.171 82.9757 248.854 80.347 249.62 77.834L248.618 77.9892L246.012 74.4159ZM256.602 93.2368C257.17 91.6525 257.839 89.9025 258.612 87.9871C259.336 86.0363 260.071 84.0196 260.818 81.9371C260.216 80.5337 260.102 79.2472 260.477 78.0774C260.887 76.8594 261.506 75.887 262.334 75.1602C263.156 74.3916 264.062 73.8879 265.051 73.6493C266.082 73.4041 266.908 73.4901 267.528 73.9072C268.142 74.2825 268.435 75.0709 268.407 76.2725C268.373 77.4323 267.747 79.0472 266.528 81.1173C267.116 81.3256 267.555 81.5356 267.844 81.7474C268.133 81.9592 268.391 82.24 268.616 82.59C268.876 82.8917 269.153 83.2979 269.446 83.8084C269.774 84.2707 270.232 84.8839 270.821 85.648C271.458 86.4474 271.759 87.4269 271.725 88.5867C271.726 89.6983 271.563 90.8567 271.237 92.0617C270.952 93.2603 270.622 94.4445 270.247 95.6143C269.866 96.7423 269.612 97.7224 269.484 98.5546C270.408 97.8983 271.193 97.0285 271.838 95.9453C272.524 94.8555 273.121 93.737 273.627 92.5896C274.127 91.4004 274.568 90.2418 274.949 89.1138C275.372 87.9793 275.762 87.0425 276.118 86.3032L280.284 89.1859C280.114 89.4688 279.914 89.9701 279.683 90.69C279.446 91.3681 279.145 92.1844 278.779 93.1389C278.449 94.0452 278.063 95.0029 277.621 96.0121C277.22 97.0149 276.765 97.9405 276.255 98.7892C275.786 99.6313 275.26 100.376 274.676 101.022C274.086 101.626 273.455 102.109 272.784 102.469C272.154 102.823 271.478 103.013 270.755 103.04C270.068 103.018 269.407 102.757 268.774 102.256C268.34 101.939 267.906 101.621 267.472 101.303C267.08 100.979 266.688 100.655 266.295 100.331C265.8 99.8945 265.491 99.2796 265.368 98.4862C265.281 97.6445 265.288 96.7241 265.39 95.7248C265.533 94.7191 265.736 93.6829 265.999 92.616C266.255 91.5074 266.5 90.4646 266.733 89.4878C267.009 88.5044 267.217 87.6384 267.357 86.8897C267.498 86.1411 267.501 85.6061 267.365 85.285C267.005 85.1697 266.625 85.0576 266.223 84.9487C265.815 84.7981 265.413 84.6893 265.018 84.6222C264.838 85.1203 264.656 85.5976 264.47 86.0539C264.326 86.5039 264.178 86.9329 264.028 87.341C263.525 88.7872 262.994 90.1949 262.437 91.564C261.914 92.8849 261.345 94.3199 260.73 95.869L256.602 93.2368ZM280.079 93.1942C279.933 94.4569 279.865 95.5365 279.875 96.4328C279.927 97.3227 280.011 97.8655 280.127 98.0614C280.68 98.3179 281.273 98.4185 281.906 98.3633C282.532 98.2663 283.146 98.0859 283.746 97.8219C284.347 97.5579 284.917 97.2344 285.456 96.8516C285.995 96.4688 286.469 96.0748 286.876 95.6696C287.698 94.901 288.399 94.0442 288.98 93.0991C289.554 92.1123 290.062 91.1143 290.505 90.1051C290.982 89.0477 291.415 87.9758 291.803 86.8896C292.191 85.8033 292.623 84.7315 293.101 83.6741L297.142 86.5761C296.674 87.9741 296.224 89.3479 295.792 90.6977C295.359 92.0474 294.834 93.3474 294.215 94.5977C293.631 95.7998 292.903 96.896 292.03 97.8864C291.199 98.8702 290.147 99.6744 288.876 100.299C287.98 100.865 287.073 101.219 286.154 101.362C285.277 101.497 284.398 101.484 283.518 101.321C282.679 101.151 281.842 100.853 281.006 100.427C280.213 99.9937 279.427 99.474 278.649 98.8676C277.96 98.2899 277.346 97.6367 276.806 96.9079C276.265 96.1792 275.865 95.386 275.604 94.5285C275.249 93.3433 275.121 92.1018 275.219 90.8037C275.276 89.5122 275.506 88.2365 275.91 86.9768C276.272 85.7235 276.772 84.5344 277.41 83.4093C278.084 82.2361 278.842 81.1993 279.686 80.2989C281.339 78.5465 282.964 77.7177 284.561 77.8125C286.158 77.9074 287.834 78.6528 289.589 80.0487C290.483 80.851 290.985 81.885 291.096 83.1507C291.106 84.047 290.863 84.9613 290.366 85.8934C289.904 86.7773 289.426 87.5568 288.932 88.232C287.822 89.9004 286.67 91.2974 285.476 92.4229C284.282 93.5485 282.999 94.5167 281.628 95.3276L280.079 93.1942ZM286.448 81.3046C285.485 81.7103 284.652 82.2668 283.949 82.9743C283.288 83.6753 282.709 84.4918 282.212 85.424C281.75 86.3079 281.364 87.2656 281.053 88.2972C280.784 89.3223 280.539 90.365 280.319 91.4254C280.909 90.8209 281.549 90.1231 282.239 89.3322C282.929 88.5412 283.571 87.7149 284.165 86.8534C284.793 85.9436 285.315 85.0291 285.728 84.1099C286.135 83.1489 286.375 82.2138 286.448 81.3046ZM297.146 90.5522C296.999 91.8149 296.931 92.8944 296.942 93.7908C296.994 94.6806 297.078 95.2235 297.194 95.4194C297.746 95.6759 298.339 95.7765 298.972 95.7213C299.599 95.6243 300.212 95.4438 300.812 95.1798C301.413 94.9158 301.983 94.5924 302.522 94.2096C303.062 93.8268 303.535 93.4328 303.943 93.0276C304.765 92.259 305.466 91.4022 306.046 90.4571C306.62 89.4703 307.129 88.4723 307.571 87.4631C308.049 86.4056 308.482 85.3338 308.869 84.2476C309.257 83.1613 309.69 82.0895 310.167 81.0321L314.208 83.9341C313.741 85.3321 313.291 86.7059 312.858 88.0557C312.426 89.4054 311.9 90.7054 311.281 91.9557C310.698 93.1578 309.969 94.254 309.096 95.2443C308.265 96.2282 307.214 97.0323 305.942 97.6568C305.046 98.2231 304.139 98.5773 303.22 98.7195C302.344 98.8553 301.465 98.8417 300.584 98.6786C299.746 98.5092 298.909 98.2112 298.073 97.7847C297.279 97.3517 296.493 96.832 295.715 96.2255C295.027 95.6479 294.413 94.9947 293.872 94.2659C293.332 93.5372 292.931 92.744 292.67 91.8865C292.316 90.7013 292.188 89.4597 292.286 88.1617C292.342 86.8702 292.573 85.5945 292.976 84.3348C293.338 83.0815 293.838 81.8923 294.476 80.7673C295.15 79.594 295.909 78.5572 296.753 77.6569C298.406 75.9044 300.031 75.0756 301.627 75.1705C303.224 75.2654 304.9 76.0108 306.656 77.4066C307.55 78.209 308.052 79.243 308.162 80.5087C308.173 81.405 307.929 82.3192 307.432 83.2514C306.97 84.1353 306.492 84.9148 305.998 85.5899C304.888 87.2584 303.736 88.6554 302.542 89.7809C301.348 90.9065 300.066 91.8747 298.695 92.6856L297.146 90.5522ZM303.515 78.6625C302.551 79.0682 301.718 79.6248 301.015 80.3323C300.354 81.0332 299.775 81.8498 299.278 82.782C298.816 83.6659 298.43 84.6236 298.119 85.6552C297.85 86.6803 297.606 87.723 297.385 88.7834C297.976 88.1789 298.616 87.4811 299.306 86.6901C299.996 85.8992 300.638 85.0729 301.231 84.2114C301.86 83.3016 302.381 82.3871 302.795 81.4679C303.202 80.5069 303.442 79.5718 303.515 78.6625ZM309.323 64.6149C310.283 64.4662 311.143 64.3545 311.901 64.2799C312.694 64.1571 313.449 64.0616 314.166 63.9935C314.762 62.3191 315.268 60.8938 315.684 59.7176C316.136 58.4931 316.445 57.5901 316.612 57.0084L320.768 59.8285C320.611 60.1949 320.408 60.6753 320.158 61.2699C319.943 61.8163 319.724 62.4703 319.499 63.2319C319.583 63.2189 319.687 63.2028 319.813 63.1834C319.931 63.1222 320.054 63.082 320.179 63.0626L321.315 66.6709C320.653 66.8161 320.075 66.9484 319.58 67.0677C319.121 67.1388 318.661 67.21 318.202 67.2811C317.674 69.116 317.154 71.1421 316.642 73.3593C316.165 75.5283 315.778 77.7261 315.482 79.9528C315.185 82.1795 315.031 84.3626 315.02 86.5023C315.045 88.5937 315.315 90.4761 315.83 92.1494C316.209 91.8342 316.623 91.1929 317.072 90.2254C317.563 89.2515 318.055 88.1491 318.548 86.9182C319.084 85.6808 319.588 84.384 320.063 83.0278C320.579 81.6652 321.069 80.4134 321.534 79.2725L325.628 82.1022C325.419 82.6903 325.16 83.5001 324.849 84.5317C324.532 85.5215 324.162 86.5836 323.739 87.7181C323.31 88.8108 322.793 89.8956 322.19 90.9724C321.629 92.0427 320.98 92.9558 320.241 93.7114C319.497 94.4253 318.675 94.916 317.775 95.1835C316.876 95.451 315.87 95.3074 314.758 94.7527C312.913 93.8838 311.648 92.4762 310.962 90.53C310.269 88.542 309.944 86.3046 309.987 83.818C310.023 81.2896 310.321 78.6565 310.881 75.9188C311.482 73.1746 312.165 70.546 312.931 68.033L311.929 68.1881L309.323 64.6149Z" fill="#133E68"/>
</svg>
