<svg width="63" height="61" viewBox="0 0 63 61" fill="none" xmlns="http://www.w3.org/2000/svg">
<path d="M61.4499 38.1969C57.6674 36.6467 54.0089 34.4145 50.3505 33.2363C50.4125 33.2363 50.4125 33.1743 50.4745 33.1743C51.5286 32.6162 54.505 30.88 54.381 29.4538C54.381 29.2678 54.257 29.0818 54.0709 29.0198C52.9548 28.8337 51.7766 28.5237 50.6605 28.2757C51.7766 27.8416 52.8928 27.3456 53.8849 26.6635C55.8692 25.4233 57.4814 23.8111 58.8455 21.9509C59.5276 21.0208 61.5119 18.1684 60.8298 16.9902C60.7058 16.8042 60.5818 16.6802 60.3337 16.7422C55.4351 18.0444 50.0404 18.2304 45.9479 20.4627C46.1339 19.9046 46.32 19.3465 46.506 18.7885C46.816 17.6723 47.7461 14.3239 46.63 13.4558C46.506 13.3318 46.2579 13.2698 46.0719 13.3938C44.7077 14.3239 43.2816 15.192 41.8554 16.0601C42.2274 15.006 42.4755 13.9519 42.5995 12.8357C42.9095 10.5414 42.7235 8.24713 42.1654 6.01484C41.9174 4.8987 40.9873 1.48827 39.6231 1.30225C39.4371 1.30225 39.189 1.30225 39.127 1.48827C37.4528 5.02272 35.0965 8.37114 33.7324 11.7816C33.6703 11.6576 33.6083 11.5956 33.5463 11.4715C32.9883 10.4174 31.252 7.44103 29.8259 7.56504C29.6398 7.56504 29.4538 7.68906 29.3918 7.87508C29.0818 9.42528 28.7097 11.0375 28.2757 12.5877C27.5936 11.2235 26.7255 9.92134 25.7333 8.74319C24.2451 7.00697 22.3229 5.6428 20.2766 4.58866C19.2225 4.03059 16.1221 2.5424 15.068 3.41051C14.944 3.53453 14.82 3.72055 14.882 3.90658C16.5562 7.75107 17.6103 11.9676 19.4705 15.44C19.3465 15.378 19.2225 15.378 19.0985 15.316C17.9824 15.006 14.6339 14.0759 13.7658 15.192C13.6418 15.316 13.5798 15.5641 13.7038 15.7501C14.6959 17.1763 15.564 18.6644 16.4322 20.1526C15.068 19.7806 13.7038 19.5946 12.2776 19.5326C9.98334 19.4706 7.68905 19.9666 5.51877 20.7107C4.40263 21.0828 1.17822 22.3849 1.11621 23.8111C1.11621 23.9971 1.17822 24.2452 1.36424 24.3072C4.89869 25.4853 8.24712 27.3456 11.6575 28.3997C10.5414 29.0198 7.68905 30.694 7.87507 32.0582C7.87507 32.2442 7.99908 32.4302 8.18511 32.4922C9.23924 32.6782 10.2934 32.9263 11.3475 33.1743C10.9755 33.3603 10.6034 33.6083 10.2934 33.8564C8.37113 35.1585 6.82094 36.8948 5.58078 38.817C4.89869 39.8091 3.10046 42.7235 3.84456 43.9017C3.96857 44.0257 4.1546 44.2117 4.34062 44.1497C8.37113 42.9095 12.7117 42.3515 16.3701 40.8633C16.1221 41.4833 15.8741 42.1034 15.6881 42.7855C15.378 43.9017 14.4479 47.2501 15.564 48.1182C15.6881 48.2422 15.9361 48.3042 16.1221 48.1802C17.2383 47.4361 18.3544 46.692 19.5326 46.0099C19.3465 46.63 19.1605 47.2501 19.0985 47.8702C18.6644 50.1645 18.7885 52.4587 19.2225 54.691C19.4705 55.8692 20.2146 59.2176 21.5788 59.5276C21.7648 59.5896 22.0129 59.5276 22.0749 59.3416C23.9971 55.7452 26.6014 52.3967 28.1516 48.9243C28.3377 49.2963 28.5237 49.6684 28.7097 50.0404C29.2678 51.0946 31.004 54.0709 32.4302 53.9469C32.6162 53.9469 32.8022 53.8229 32.8642 53.6369C33.2363 51.5906 33.7944 49.5444 34.2904 47.4981C35.1585 49.3583 36.5847 51.0326 38.1349 52.4587C39.8711 54.0089 41.9174 55.0631 44.0877 55.8692C45.2038 56.3032 48.4902 57.3574 49.4203 56.3652C49.5444 56.2412 49.6064 55.9932 49.5444 55.8692C47.6841 52.8308 46.32 49.4204 44.5217 46.568C45.9479 46.878 47.8701 47.1261 48.4902 46.32C48.6142 46.1959 48.6763 45.9479 48.5522 45.7619C47.5601 44.3977 46.692 42.9095 45.8239 41.4213C47.2501 41.9794 48.8003 42.2895 50.3505 42.4135C52.6448 42.5995 54.939 42.2274 57.1713 41.6074C58.2875 41.2973 61.5739 40.1812 61.6979 38.755C61.6979 38.507 61.6359 38.2589 61.4499 38.1969ZM50.2264 29.0198C51.0946 29.2678 52.0247 29.5158 52.8928 29.7019C53.5749 29.8879 52.2727 30.694 52.1487 30.756C48.1182 34.2904 41.4833 35.5926 36.6467 33.2363C36.7707 32.9883 36.8948 32.7402 37.0188 32.5542C37.0188 32.4922 37.0188 32.4302 37.0808 32.4302C37.1428 32.4302 37.2668 32.4922 37.3288 32.4922C39.189 33.0503 41.0493 33.4843 42.9715 33.2363C43.0335 33.2363 43.0335 33.1743 42.9715 33.1743C41.1113 32.9263 39.2511 32.6782 37.4528 32.1202C37.3908 32.1202 37.3288 32.0582 37.2668 32.0582C37.3908 31.6241 37.4528 31.2521 37.3908 30.818C37.7009 30.818 37.9489 30.818 38.2589 30.818C40.9253 30.818 43.5916 30.942 46.2579 30.694C46.382 30.694 46.382 30.57 46.2579 30.57C43.9016 30.3839 41.6074 30.3219 39.2511 30.1979C38.631 30.1359 37.9489 30.0739 37.3288 30.0119C37.3288 29.9499 37.3288 29.9499 37.3288 29.8879C38.1349 29.5778 38.941 29.2058 39.6851 28.7097C40.3672 28.6477 40.9873 28.5857 41.6694 28.5857C41.7934 28.5857 41.7934 28.4617 41.6694 28.4617C41.1733 28.4617 40.6772 28.3997 40.1812 28.4617C40.5532 28.2137 40.9253 27.9036 41.2353 27.6556C42.4135 27.6556 43.6536 27.7796 44.8938 27.9656C46.568 28.1517 48.4282 28.5237 50.2264 29.0198ZM33.9184 34.7245C33.8564 34.6005 33.7944 34.4765 33.6703 34.4145C34.2904 33.9804 34.6005 33.1743 34.4144 32.3682C34.6005 32.2442 34.8485 32.1822 35.0345 32.1822C35.2826 32.1822 35.2826 32.4922 35.4066 32.7402C35.4686 32.8643 35.5306 32.9263 35.6546 32.9883C35.1585 33.6704 34.6005 34.2904 33.9184 34.7245ZM31.19 35.5926C31.4381 35.3446 31.6241 34.9725 31.6861 34.6005C31.9961 34.7245 32.3062 34.7865 32.6162 34.7865C32.6782 34.8485 32.6782 34.9105 32.7402 34.9725C32.8022 35.0345 32.8642 35.1585 32.9263 35.2206C32.3682 35.4066 31.8101 35.5306 31.19 35.5926ZM31.4381 26.2914C31.4381 26.4154 31.4381 26.5395 31.5001 26.6635C31.314 26.7875 31.19 26.9115 31.128 27.0355C31.066 26.9735 31.004 26.9115 30.942 26.8495C30.694 26.6635 30.3219 26.4774 29.9499 26.4154C30.3839 26.2914 30.88 26.2294 31.4381 26.2914ZM32.7402 26.4774C33.0503 26.5395 33.3603 26.6635 33.6083 26.8495C33.5463 26.9115 33.4843 26.9735 33.3603 27.0355C33.3603 27.0355 33.3603 26.9735 33.2983 26.9735C33.0503 26.7255 32.6782 26.4774 32.3062 26.4154C32.3062 26.4154 32.3062 26.4154 32.3062 26.3534C32.4302 26.4154 32.6162 26.4154 32.7402 26.4774ZM35.3446 28.3377C35.1585 28.2757 34.9105 28.2757 34.7245 28.3377C34.5385 28.3997 34.3524 28.4617 34.2284 28.6477C34.1664 28.5857 34.0424 28.5237 33.9184 28.4617C33.9184 28.3997 33.9184 28.3997 33.9184 28.3997V28.3377C34.0424 28.1517 34.1044 27.9036 34.1044 27.6556C34.1044 27.5936 34.1664 27.3456 34.2284 27.2835C34.6625 27.5316 35.0965 27.9036 35.3446 28.3377ZM32.6782 33.7324C32.2442 33.8564 31.8721 33.6083 31.6241 33.2363C31.3761 32.8022 31.8101 32.5542 32.1822 32.2442C32.2442 32.1822 32.2442 32.1202 32.3062 32.1202C32.7402 32.0582 33.1743 31.9961 33.4223 32.4922C33.7324 33.0503 33.1743 33.6083 32.6782 33.7324ZM29.5158 28.3997C28.8957 28.5857 28.8337 27.9036 28.9577 27.2215C29.3298 27.2215 29.7638 27.1595 30.1359 27.4076C30.88 27.7176 29.9499 28.2757 29.5158 28.3997ZM33.6083 29.6398C33.4223 30.1979 33.5463 30.88 33.9184 31.3141C33.9804 31.3761 34.0424 31.4381 34.1044 31.5001C34.0424 31.5621 33.9804 31.6241 33.9804 31.6861C33.6703 31.3761 33.1743 31.19 32.7402 31.2521C32.9263 30.756 32.9263 30.1979 32.6782 29.7019C32.7402 29.6398 32.8022 29.6398 32.9263 29.5778C32.9883 29.5778 33.0503 29.5158 33.1123 29.4538C33.1123 29.4538 33.1123 29.4538 33.1743 29.3918C33.2363 29.3918 33.2983 29.3298 33.3603 29.3298C33.4223 29.3298 33.4223 29.3298 33.4223 29.3298C33.5463 29.3298 33.5463 29.3918 33.6083 29.3918C33.6703 29.3918 33.6703 29.4538 33.7324 29.5158C33.6703 29.5158 33.6083 29.5778 33.6083 29.6398ZM27.4076 28.6477C27.4696 28.5857 27.5936 28.4617 27.7176 28.3377C27.9656 28.5857 28.2137 29.1438 28.2137 29.3918C28.2757 29.7639 28.0896 30.0739 27.7796 30.3219C27.5936 30.508 27.4696 30.4459 27.4076 30.3839C26.9115 30.0119 27.0355 29.1438 27.4076 28.6477ZM31.5621 29.9499C32.1201 30.508 31.4381 31.3761 30.88 31.5001C30.4459 31.6241 29.8259 31.4381 29.5778 31.004C29.2678 30.508 29.8879 30.0119 30.1359 29.5778C30.2599 29.5778 30.3839 29.5158 30.5079 29.5158C30.942 29.5778 31.314 29.7019 31.5621 29.9499ZM26.7255 31.3761C26.7875 31.4381 26.7255 31.4381 26.7255 31.4381C26.7255 31.4381 26.7255 31.4381 26.7255 31.3761ZM31.314 27.7796C31.5001 27.7796 31.5621 27.6556 31.7481 27.5936C31.7481 27.5936 31.9341 27.5316 31.8721 27.5316C31.9961 27.4696 31.8721 27.5316 31.9961 27.5316H32.1201C32.1822 27.5316 32.3062 27.5936 32.2442 27.5316C32.4302 27.5936 32.4922 27.6556 32.5542 27.7176C32.6782 27.8416 32.6782 27.8416 32.8022 28.0276C32.8642 28.1517 32.8022 28.0276 32.8642 28.0896V28.1517C32.8642 28.2757 32.8642 28.2757 32.8022 28.3377C32.5542 28.4617 32.4302 28.5857 32.3062 28.8337C32.1822 28.8337 32.1201 28.8958 31.9961 28.9578C31.6861 28.7717 31.314 28.6477 30.942 28.6477C31.128 28.3997 31.252 28.0896 31.314 27.7796ZM27.4076 32.8643C27.2835 32.7402 27.4076 32.4302 27.5316 32.3062C27.6556 32.1202 27.8416 32.0582 27.9656 31.8721C28.1516 31.7481 28.2757 31.5621 28.3997 31.4381C28.4617 31.4381 28.4617 31.3761 28.5237 31.3761C28.5857 31.5001 28.5857 31.5621 28.6477 31.6861C28.6477 31.7481 28.7097 31.7481 28.7097 31.8101V31.8721C29.3298 32.6162 28.0896 33.4843 27.4076 32.8643ZM29.7638 35.0965C29.0818 35.0965 28.9577 34.7865 29.3298 34.2284C29.5158 33.9804 29.7639 33.7324 30.0119 33.5463C30.0739 33.5463 30.1359 33.4843 30.1359 33.4843C30.3839 33.5463 30.632 33.7324 30.756 34.1044C31.004 34.7865 30.3839 35.0965 29.7638 35.0965ZM35.4066 30.756C35.4066 30.756 35.3446 30.756 35.4066 30.756C35.2205 30.694 35.0965 30.694 35.0345 30.694C34.9725 30.694 34.9105 30.694 34.9105 30.632C34.9105 30.632 34.8485 30.632 34.8485 30.57L34.7865 30.508C34.9105 30.632 34.7865 30.3839 34.7865 30.4459V30.3839C34.7865 30.3219 34.7865 30.2599 34.7865 30.1979C34.7865 30.1979 34.8485 30.0119 34.8485 29.9499C34.8485 29.8879 34.9105 29.8259 34.9105 29.7639C34.9105 29.7639 34.9725 29.6398 34.9725 29.5778C34.9725 29.5158 35.0345 29.5158 35.0345 29.4538L35.0965 29.3918L35.2205 29.3298C35.2205 29.3298 35.2205 29.3298 35.2826 29.3298H35.4066C35.4686 29.3298 35.5926 29.3918 35.6546 29.4538C35.7166 29.5158 35.8406 29.5158 35.9026 29.4538C36.0266 29.8879 36.1507 30.3219 36.1507 30.756C35.9646 30.632 35.6546 30.632 35.4066 30.756ZM51.4046 19.5326C53.2028 19.0365 55.001 18.6024 56.8613 18.2924C57.7914 18.1684 58.6595 17.9824 59.5896 17.7963C60.2717 17.6723 59.4036 18.9125 59.3416 19.0985C57.4194 23.377 53.0168 26.9735 48.3662 27.7176C47.4361 27.4696 46.568 27.2215 45.6379 27.0355C45.9479 26.9735 46.2579 26.9115 46.568 26.9115C48.4902 26.6635 50.3505 26.2914 52.0247 25.2373C52.0867 25.2373 52.0247 25.1753 51.9627 25.1753C50.1644 25.7333 48.4282 26.2914 46.506 26.5395C45.5138 26.6635 44.5217 26.5395 43.5296 26.5395C44.5837 26.0434 45.6379 25.4853 46.692 24.9893C49.1103 23.8731 51.5906 22.819 53.9469 21.5168C54.0089 21.4548 53.9469 21.3308 53.8849 21.3928C51.7146 22.1989 49.5444 23.129 47.3741 23.9971C46.1959 24.4932 44.8318 24.8652 43.5296 25.3613C43.7156 25.1753 43.9016 24.9272 44.0877 24.7412C45.4518 23.4391 47.064 22.3849 48.8003 21.5168C48.8623 21.4548 48.8003 21.3308 48.7383 21.3928C47.1881 22.0129 45.8239 22.757 44.4597 23.6251C44.7077 23.253 44.8938 22.881 45.0798 22.5089C46.878 21.1448 48.9863 20.2146 51.4046 19.5326ZM43.4056 16.0601C44.2117 15.6261 45.0178 15.13 45.8239 14.6339C46.444 14.2619 46.0719 15.7501 46.0099 15.9361C45.6379 21.3308 41.8554 26.9115 36.7707 28.7097C36.6467 28.4617 36.4607 28.1517 36.2747 27.9036C36.3987 27.8416 36.5847 27.7176 36.7087 27.6556C38.3829 26.7255 40.0572 25.7333 41.2353 24.1832C41.2353 24.1211 41.2353 24.1211 41.1733 24.1211C39.6231 25.2373 38.1969 26.4154 36.5227 27.2835C36.3367 27.3456 36.1507 27.4696 35.9646 27.5316C35.7166 27.2835 35.4686 26.9735 35.1585 26.7875C35.4686 26.4774 35.7786 26.1054 36.0887 25.7954C37.9489 23.9351 39.9331 22.0749 41.6694 20.0286C41.7314 19.9666 41.6073 19.8426 41.5453 19.9046C39.7471 21.3928 38.0729 23.067 36.3367 24.6172C35.7166 25.1753 35.0965 25.6713 34.4144 26.2294C34.2284 26.1054 34.0424 25.9814 33.8564 25.9194C34.6625 24.4312 35.6546 23.067 36.8327 21.8269C36.8948 21.7648 36.7707 21.6408 36.7087 21.7028C35.4066 22.881 34.2904 24.1832 33.2363 25.5473C33.1123 25.4853 32.9883 25.4233 32.8642 25.4233C34.1664 22.881 36.0887 20.8347 38.631 19.0365C40.2432 17.9824 41.7934 16.9902 43.4056 16.0601ZM35.5926 10.1074C36.3987 8.43315 37.2048 6.75894 38.1349 5.14673C38.569 4.34063 39.065 3.53453 39.4991 2.72843C39.8091 2.10835 40.2432 3.59654 40.3052 3.78256C42.2274 7.75107 42.2894 13.0217 40.2432 17.0522C39.5611 17.4243 38.941 17.8583 38.3209 18.2304C39.2511 16.6802 40.0572 15.13 40.3052 13.3318C40.3052 13.2698 40.2432 13.2698 40.2432 13.3318C39.4991 15.068 38.817 16.8042 37.7629 18.3544C37.6389 18.5404 37.5148 18.7265 37.3908 18.8505C36.9568 19.1605 36.4607 19.5326 36.0266 19.8426C36.2747 18.9745 36.3987 18.0444 36.6467 17.2383C37.3288 14.6959 38.1349 12.0916 38.631 9.48729C38.631 9.36327 38.507 9.36327 38.507 9.42528C37.7009 11.5956 37.0808 13.8898 36.3367 16.1221C36.1507 16.6182 35.9646 17.1763 35.7786 17.7343C35.6546 16.7422 35.4066 15.8121 35.0965 14.944C35.1585 14.4479 35.2826 13.9519 35.4066 13.4558C35.4066 13.3318 35.2826 13.3318 35.2826 13.3938C35.1585 13.7658 35.0965 14.0759 34.9725 14.4479C34.8485 14.0139 34.6625 13.5798 34.4764 13.1458C34.7245 12.1536 35.0965 11.1615 35.5926 10.1074ZM29.3918 11.7196C29.6398 10.8515 29.8879 9.92134 30.0739 9.05323C30.2599 8.37114 31.066 9.67331 31.128 9.79733C33.6703 12.7117 35.0345 16.9902 34.7245 20.8967C34.2284 21.3308 33.7944 21.8269 33.4223 22.3229C33.6703 21.2068 33.7324 20.0906 33.6083 18.9745C33.6083 18.9125 33.5463 18.9125 33.5463 18.9745C33.3603 20.4007 33.1743 21.8269 32.8022 23.253C32.4302 23.8731 32.0581 24.4932 31.8101 25.1753C31.5621 25.1133 31.3761 25.1133 31.128 25.1133C31.128 24.6172 31.066 24.1832 31.066 23.7491C31.066 21.0828 31.19 18.4164 30.942 15.7501C30.942 15.6261 30.818 15.6261 30.818 15.7501C30.632 18.1064 30.57 20.4007 30.4459 22.757C30.3839 23.4391 30.3219 24.1832 30.2599 24.9272C29.9499 24.0591 29.5158 23.191 29.0198 22.3849C28.9577 21.7028 28.8957 21.0828 28.8957 20.4007C28.8957 20.2767 28.7717 20.2767 28.7717 20.4007C28.7717 20.8967 28.7097 21.3928 28.7717 21.8889C28.5237 21.5168 28.2137 21.1448 27.9656 20.8347C27.9656 19.6566 28.0896 18.4164 28.2757 17.1763C28.5857 15.316 28.8957 13.5178 29.3918 11.7196ZM19.1605 12.3396C18.4164 10.6034 17.6723 8.92921 17.0522 7.13099C16.7422 6.26288 16.4322 5.39477 16.1221 4.52666C15.8741 3.84457 17.3003 4.52666 17.4243 4.58866C22.1369 5.89083 26.4774 9.85933 27.8416 14.5719C27.6556 15.254 27.5316 15.9361 27.3455 16.6182C27.2835 16.4322 27.2215 16.1841 27.1595 15.9981C26.6014 14.1999 25.9194 12.3396 24.6172 10.9135C24.6172 10.8515 24.5552 10.9135 24.5552 10.9755C25.3613 12.7117 26.2294 14.3239 26.7255 16.1841C26.9115 16.8042 26.9735 17.4243 27.0355 18.0444C26.9735 18.2924 26.9735 18.5404 26.9115 18.7265C26.3534 17.8583 25.6713 17.0522 25.1753 16.2461C23.6871 14.0139 22.2609 11.7196 20.5867 9.67331C20.5247 9.6113 20.4007 9.67331 20.4627 9.73532C21.5788 11.7816 22.881 13.7658 24.0591 15.7501C24.6792 16.7422 25.1753 17.8583 25.7953 18.9125C25.6093 18.7885 25.4233 18.6024 25.2373 18.4784C24.7412 18.1064 24.2451 17.7343 23.7491 17.4243C22.881 16.5562 22.0749 15.6881 21.3928 14.6959C21.3308 14.6339 21.2068 14.6959 21.2688 14.758C21.7028 15.502 22.1989 16.1841 22.695 16.8042C22.1989 16.5562 21.7028 16.3082 21.2068 16.1221C20.4627 15.006 19.7806 13.7658 19.1605 12.3396ZM16.4322 18.5404C15.9981 17.7343 15.502 16.9282 15.006 16.1221C14.6339 15.502 16.1221 15.8741 16.3081 15.9361C21.7648 16.3082 27.5316 20.2146 29.1438 25.4853C28.8957 25.6093 28.6477 25.7334 28.3997 25.8574C28.2757 25.6093 28.1516 25.4233 28.0276 25.1753C27.0975 23.5011 26.1054 21.8269 24.5552 20.6487C24.4932 20.6487 24.4932 20.6487 24.4932 20.7107C25.6093 22.2609 26.7875 23.6871 27.6556 25.3613C27.7796 25.6093 27.9036 25.7954 27.9656 26.0434C27.6556 26.2294 27.4075 26.4774 27.1595 26.7255C26.7875 26.4154 26.4774 26.1054 26.1674 25.7333C24.3072 23.8731 22.4469 21.8889 20.4007 20.1526C20.3387 20.0906 20.2146 20.2146 20.2766 20.2767C21.7648 22.0749 23.439 23.7491 24.9892 25.4853C25.4853 25.9814 25.9194 26.6015 26.4154 27.1595C25.5473 26.7255 24.6792 26.4154 23.6871 26.2294C23.191 25.7954 22.6329 25.3613 22.1989 24.9272C22.1369 24.8652 22.0129 24.9893 22.0749 25.0513C22.3849 25.4233 22.757 25.7954 23.129 26.1674C22.695 26.1054 22.2609 26.0434 21.7648 25.9814C20.8967 25.1133 20.1526 24.1832 19.4085 23.191C18.4164 21.7028 17.3623 20.1526 16.4322 18.5404ZM5.27074 24.9272C4.40263 24.5552 3.59653 24.1832 2.72842 23.8111C2.10834 23.5631 3.53452 22.943 3.65853 22.881C7.56503 20.4007 13.1457 19.8426 17.4863 21.7028C17.7963 22.2609 18.1684 22.819 18.4784 23.3771C16.8042 22.5709 15.006 21.8889 13.1457 21.8269C13.0837 21.8269 13.0837 21.8889 13.1457 21.8889C14.944 22.4469 16.7422 22.943 18.4164 23.8111C18.6024 23.8731 18.7885 23.9971 18.9745 24.1211C19.2225 24.5552 19.5326 24.9272 19.8426 25.2993C19.0365 25.1753 18.2304 25.1133 17.4863 24.9893C14.882 24.5552 12.2156 24.0591 9.54928 23.8731C9.42527 23.8731 9.42527 23.9971 9.54928 23.9971C11.8436 24.5552 14.1379 24.9272 16.4322 25.4233C17.2383 25.6093 18.0444 25.7954 18.8505 26.0434C18.7264 26.0434 18.6024 26.0434 18.4164 26.1054C17.3003 26.2294 16.2461 26.4774 15.254 26.8495C14.7579 26.8495 14.3239 26.7875 13.8898 26.7255C13.7658 26.7255 13.7658 26.8495 13.8898 26.8495C14.1999 26.9115 14.5099 26.9735 14.82 27.0355C14.3239 27.2215 13.8278 27.4076 13.3318 27.6556C12.4637 27.4696 11.5335 27.2215 10.6034 26.9115C8.74318 26.3534 7.00696 25.7334 5.27074 24.9272ZM12.0916 32.4922C11.2235 32.2442 10.2934 31.9961 9.42527 31.8101C8.74318 31.6241 10.0453 30.818 10.1694 30.756C14.3239 27.1595 21.2068 25.8574 26.0434 28.4617C25.9194 28.7097 25.8574 29.0198 25.8574 29.2678C25.5473 29.2058 25.2993 29.1438 24.9892 29.0198C23.129 28.4617 21.2688 28.0276 19.3465 28.2757C19.2845 28.2757 19.2845 28.3377 19.3465 28.3377C21.2068 28.5857 23.067 28.8337 24.8652 29.3918C25.1753 29.5158 25.4853 29.6398 25.7953 29.7639C25.7953 30.0739 25.7953 30.3839 25.7953 30.694C25.2373 30.694 24.6792 30.756 24.1211 30.756C21.4548 30.756 18.7885 30.632 16.1221 30.88C15.9981 30.88 15.9981 31.004 16.1221 31.004C18.4784 31.19 20.7727 31.252 23.129 31.3761C23.8111 31.4381 24.5552 31.5001 25.2993 31.5621C24.4312 31.8721 23.5631 32.3062 22.757 32.8022C22.0749 32.8643 21.4548 32.9263 20.7727 32.9263C20.6487 32.9263 20.6487 33.0503 20.7727 33.0503C21.2688 33.0503 21.7648 33.1123 22.2609 33.0503C21.8889 33.2983 21.5168 33.6083 21.2068 33.8564C20.0286 33.8564 18.7885 33.7324 17.5483 33.5463C15.7501 33.3603 13.9518 33.0503 12.0916 32.4922ZM13.2698 40.8633C11.4715 41.4213 9.6733 41.9794 7.87507 42.3515C6.94495 42.5375 6.07684 42.7855 5.14672 42.9715C4.46464 43.1576 5.27074 41.7934 5.33275 41.6694C6.69692 38.2589 9.61129 35.1585 13.0217 33.5463C13.6418 33.7324 14.1999 33.8564 14.82 34.0424C13.9518 34.3524 13.1457 34.7245 12.3396 35.2826C12.2776 35.2826 12.3396 35.3446 12.4016 35.3446C13.5178 34.9725 14.5719 34.6005 15.6881 34.2284C16.6182 34.4765 17.6103 34.6625 18.5404 34.8485C18.2924 34.9725 18.0444 35.1585 17.7963 35.2826C15.44 36.5227 13.0217 37.7009 10.7274 39.127C10.6654 39.1891 10.7274 39.3131 10.7894 39.2511C12.9597 38.383 15.068 37.2668 17.1763 36.3367C18.1064 35.9026 19.0985 35.5306 20.1526 35.0965H20.2146C19.7806 35.5926 19.2845 36.0887 18.9125 36.5847C18.7885 36.7087 18.7264 36.8328 18.6644 36.9568C17.7963 37.6389 16.8662 38.2589 15.8741 38.817C15.8121 38.879 15.8741 39.003 15.9361 38.941C16.6802 38.631 17.3623 38.2589 18.0444 37.8249C17.7343 38.2589 17.4863 38.755 17.2383 39.1891C15.9981 39.8711 14.6959 40.4292 13.2698 40.8633ZM18.9125 45.4519C18.1064 45.8859 17.3003 46.382 16.4942 46.878C15.8741 47.2501 16.2461 45.7619 16.3081 45.5759C16.6802 40.1192 20.5867 34.3524 25.8574 32.7402C25.9194 32.9883 26.0434 33.2983 26.1674 33.5463C25.9814 33.6704 25.7953 33.7944 25.6093 33.8564C23.9351 34.7865 22.2609 35.7786 21.0827 37.3288C21.0827 37.3908 21.0827 37.3908 21.1448 37.3908C22.695 36.2747 24.1211 35.0965 25.7953 34.2284C25.9814 34.1044 26.1674 34.0424 26.3534 33.9804C26.4154 34.0424 26.4774 34.1664 26.4774 34.2284C26.6014 34.4765 26.7875 34.6625 26.9735 34.8485C26.7255 35.1585 26.4154 35.4066 26.1674 35.7166C24.3072 37.5769 22.3229 39.4371 20.5867 41.4833C20.5247 41.5454 20.6487 41.6694 20.7107 41.6074C22.5089 40.1192 24.1831 38.445 25.9194 36.8948C26.4774 36.3987 27.0355 35.9646 27.5936 35.4686C27.1595 36.3367 26.8495 37.2048 26.6635 38.1349C26.2294 38.631 25.7953 39.1891 25.3613 39.6851C25.2993 39.7471 25.4233 39.8711 25.4853 39.8091C25.8574 39.4991 26.2294 39.127 26.6014 38.755C26.5394 39.1891 26.4774 39.6231 26.4154 40.1192C25.5473 40.9873 24.6172 41.7314 23.6251 42.4755C22.1369 43.5296 20.5867 44.5837 18.9125 45.4519ZM26.1054 50.9085C25.2373 52.5828 24.3692 54.195 23.315 55.7452C22.819 56.4893 22.3229 57.2954 21.8268 58.1015C21.4548 58.7215 21.0827 57.1713 21.0207 57.0473C19.4705 53.4509 19.4705 48.8623 21.0207 45.1418C21.6408 44.7698 22.1989 44.4597 22.819 44.0877C22.1989 45.1418 21.7028 46.32 21.4548 47.5601C21.4548 47.6221 21.5168 47.6221 21.5168 47.5601C22.1989 46.1959 22.819 44.8318 23.6251 43.5916C24.3692 43.0956 25.0513 42.6615 25.7333 42.1034C25.5473 42.6615 25.4233 43.2196 25.2373 43.7776C24.4312 46.32 23.5011 48.8623 22.943 51.4666C22.943 51.5906 23.067 51.5906 23.067 51.5286C23.9971 49.3583 24.6792 47.1261 25.5473 44.9558C25.7953 44.2737 26.1054 43.6536 26.4154 42.9095C26.4154 43.1576 26.4774 43.4056 26.4774 43.5916C26.5394 44.2737 26.6635 44.8938 26.8495 45.5759C26.7255 46.258 26.5394 46.94 26.3534 47.6221C26.3534 47.7461 26.4774 47.7461 26.4774 47.6841C26.6635 47.1881 26.8495 46.692 26.9735 46.1959C27.0975 46.63 27.2835 47.0641 27.4076 47.4981C27.1595 48.6143 26.7255 49.7304 26.1054 50.9085ZM32.9263 49.7924C32.6782 50.6605 32.4302 51.5906 32.2442 52.4587C32.0581 53.1408 31.252 51.8387 31.19 51.7146C27.6556 47.6221 26.3534 40.9873 28.7097 36.1507C28.9577 36.2747 29.2678 36.3987 29.5778 36.5227C29.5158 36.6467 29.5158 36.7708 29.4538 36.8948C28.8957 38.755 28.4617 40.6152 28.7097 42.5375C28.7097 42.5995 28.7717 42.5995 28.7717 42.5375C29.0198 40.6772 29.2678 38.817 29.8259 37.0188C29.8879 36.8948 29.8879 36.7708 29.9499 36.6467C30.0739 36.6467 30.1359 36.7087 30.2599 36.7087C30.57 36.7708 30.818 36.7708 31.128 36.7708C31.128 37.0808 31.128 37.4528 31.128 37.7629C31.128 40.4292 31.004 43.0956 31.252 45.7619C31.252 45.8859 31.3761 45.8859 31.3761 45.7619C31.5621 43.4056 31.6241 41.1113 31.7481 38.755C31.8101 38.0729 31.8721 37.3908 31.9341 36.7087H31.9961C32.3062 37.5769 32.7402 38.383 33.2363 39.127C33.2983 39.8091 33.3603 40.4292 33.3603 41.1113C33.3603 41.2353 33.4843 41.2353 33.4843 41.1113C33.4843 40.6152 33.5463 40.1192 33.4843 39.6231C33.7324 39.9952 34.0424 40.3672 34.2904 40.6772C34.2904 41.8554 34.1664 43.0956 33.9804 44.3357C33.7944 46.1959 33.4223 47.9942 32.9263 49.7924ZM48.3042 55.3731C48.6142 55.9932 47.1261 55.4971 47.002 55.4971C41.6074 54.753 36.2127 50.5985 34.8485 45.3898C34.9725 44.8938 35.0345 44.4597 35.1585 43.9637C35.4066 44.5217 35.6546 45.0178 35.9026 45.5139C36.7087 47.2501 37.5768 48.9863 39.065 50.2265C39.127 50.2265 39.127 50.2265 39.127 50.1645C38.0729 48.5522 37.0808 47.0641 36.2747 45.3278C35.9026 44.4597 35.7166 43.4056 35.4066 42.4755C36.1507 43.3436 37.0188 44.2117 37.7629 45.0178C39.4991 47.002 41.2353 49.1103 43.1575 50.9706C43.2196 51.0326 43.3436 50.9706 43.2816 50.8465C41.9174 48.9863 40.3672 47.1881 38.941 45.3278C38.507 44.7698 38.0729 44.1497 37.6389 43.5296C38.693 44.2737 39.8711 44.8938 41.0493 45.3898C41.2973 45.6379 41.4833 45.8239 41.7314 46.0719C41.7934 46.1339 41.9174 46.0719 41.8554 45.9479C41.7314 45.8239 41.6694 45.6999 41.5453 45.5759C42.0414 45.7619 42.5375 45.9479 43.0335 46.0719C43.4676 46.692 43.9636 47.3121 44.3357 47.9942C45.3278 49.6064 46.2579 51.2186 47.064 52.8928C47.4981 53.7609 47.8701 54.567 48.3042 55.3731ZM45.8859 42.9715C46.32 43.7776 46.816 44.5837 47.3121 45.3898C47.6841 46.0099 46.1959 45.6379 46.0099 45.5759C40.6152 45.2038 35.0345 41.4213 33.2363 36.3367C33.5463 36.2127 33.7944 36.0887 34.0424 35.9026C34.1044 36.0267 34.1664 36.1507 34.2284 36.2747C35.1585 37.9489 36.1507 39.6231 37.7009 40.8013C37.7629 40.8013 37.7629 40.8013 37.7629 40.7393C36.6467 39.1891 35.4686 37.7629 34.6005 36.0887C34.5385 35.9646 34.4764 35.8406 34.4144 35.6546C34.7245 35.4066 35.0345 35.1585 35.2826 34.9105C35.5306 35.1585 35.8406 35.4066 36.0887 35.6546C37.9489 37.5148 39.8091 39.4991 41.8554 41.2353C41.9174 41.2973 42.0414 41.1733 41.9794 41.1113C40.4912 39.3131 38.817 37.6389 37.2668 35.9026C36.8327 35.4066 36.3367 34.8485 35.9026 34.2904C36.7087 34.6625 37.6388 34.9725 38.507 35.1585C39.003 35.5926 39.5611 36.0267 40.0572 36.4607C40.1192 36.5227 40.2432 36.3987 40.1812 36.3367C39.8711 35.9646 39.4991 35.5926 39.127 35.2206C39.5611 35.2826 39.9952 35.3446 40.4912 35.4066C41.3593 36.2747 42.1034 37.2048 42.8475 38.1969C43.9016 39.8091 44.9558 41.3593 45.8859 42.9715ZM59.2796 39.4991C55.001 41.8554 49.0483 42.0414 44.7698 39.5611C44.3977 38.941 44.0257 38.383 43.6536 37.7629C43.9016 37.8869 44.1497 38.0109 44.3977 38.1349C46.0719 39.065 47.8081 39.8711 49.7924 39.9952C49.8544 39.9952 49.8544 39.9332 49.7924 39.9332C47.9942 39.3131 46.2579 38.693 44.5837 37.7629C43.9016 37.3908 43.3436 36.8948 42.7235 36.3987C42.6615 36.2747 42.5375 36.1507 42.4755 36.0267C43.5296 36.2747 44.6457 36.3987 45.6379 36.5847C48.1802 37.2048 50.8465 37.8249 53.4509 38.1349C53.5749 38.1349 53.5749 38.0109 53.4509 38.0109C51.2186 37.3288 48.9243 36.8328 46.692 36.2127C45.8239 35.9646 44.8938 35.6546 43.9016 35.3446C43.9016 35.3446 43.9016 35.3446 43.9636 35.3446C44.8938 35.2206 45.7619 35.0345 46.63 34.7865C47.5601 34.8485 48.4282 34.9105 49.3583 35.0965C49.4823 35.0965 49.4823 34.9725 49.3583 34.9725C48.6762 34.7865 48.0562 34.6625 47.3741 34.5385C47.8701 34.3524 48.3662 34.1664 48.8003 33.9804C50.0404 34.2284 51.2806 34.6005 52.5827 35.0965C54.319 35.7786 56.0552 36.5227 57.7294 37.3908C58.5355 37.8249 59.4036 38.1969 60.2097 38.631C60.8918 38.879 59.4036 39.4371 59.2796 39.4991Z" fill="#F9F8F8"/>
<path d="M41.1116 51.2804C41.4837 51.8385 41.9177 52.5206 42.5378 52.7686C42.5998 52.7686 42.6618 52.7066 42.5998 52.6446C42.2278 52.0865 41.6697 51.5904 41.2356 51.0944C41.1736 51.0324 41.0496 51.1564 41.1116 51.2804Z" fill="#F9F8F8"/>
<path d="M43.4671 52.9546C43.4051 52.8926 43.2811 53.0167 43.3431 53.0787C43.5911 53.4507 44.2112 53.8848 44.7072 53.8848C44.7693 53.8848 44.8313 53.8228 44.7693 53.7607C44.5832 53.5747 44.3352 53.5127 44.0872 53.3887C43.9011 53.2027 43.6531 53.0787 43.4671 52.9546Z" fill="#F9F8F8"/>
<path d="M43.9017 43.0955C43.7157 42.9095 43.5296 42.7235 43.2816 42.5375C43.1576 42.4134 42.9716 42.6615 43.0956 42.7855C43.2816 42.9715 43.4676 43.1575 43.6537 43.3436C43.8397 43.5916 44.0877 43.7776 44.3357 44.0257C44.3978 44.0877 44.5218 43.9636 44.4598 43.9016C44.2117 43.5916 44.0877 43.3436 43.9017 43.0955Z" fill="#F9F8F8"/>
<path d="M54.0708 39.6231C53.5127 39.5611 52.9546 39.4371 52.4586 39.1891C52.3346 39.1271 52.2106 39.3131 52.3346 39.4371C52.8926 39.7471 53.4507 39.8712 54.0708 39.8712C54.1948 39.8092 54.1948 39.6231 54.0708 39.6231Z" fill="#F9F8F8"/>
<path d="M54.8758 38.4448C54.6898 38.5068 54.6898 38.7548 54.8758 38.8168C55.1239 38.8788 55.3719 38.9408 55.6199 38.8788C55.6819 38.8788 55.744 38.7548 55.682 38.6928C55.5579 38.3827 55.1859 38.3827 54.8758 38.4448Z" fill="#F9F8F8"/>
<path d="M49.1108 31.5619C48.2427 31.8719 47.3746 32.182 46.5065 32.492C46.4445 32.492 46.4445 32.616 46.5065 32.616C47.4366 32.492 48.4287 32.306 49.1728 31.8099C49.2968 31.6859 49.2348 31.4999 49.1108 31.5619Z" fill="#F9F8F8"/>
<path d="M48.7375 30.8799C48.8616 30.8178 49.7297 30.8178 49.5436 30.5078C49.4816 30.4458 49.4196 30.4458 49.3576 30.4458C49.1096 30.5078 48.9236 30.5698 48.7375 30.7558C48.6135 30.8178 48.6135 30.8799 48.7375 30.8799Z" fill="#F9F8F8"/>
<path d="M54.9397 22.4468C54.8777 22.4468 54.9397 22.5088 54.9397 22.4468C55.1877 22.3228 55.4357 22.1367 55.6838 22.0127C55.9318 21.8887 56.1798 21.7647 56.3659 21.5166C56.4279 21.4546 56.3659 21.3926 56.3038 21.4546C56.0558 21.5166 55.8078 21.6407 55.6838 21.8267C55.4357 22.0127 55.1877 22.1987 54.9397 22.4468Z" fill="#F9F8F8"/>
<path d="M54.6294 20.6487C55.0014 20.2767 55.4975 20.0286 55.9316 19.7186C56.0556 19.6566 55.9936 19.4086 55.8075 19.4706C55.2495 19.6566 54.7534 20.0286 54.3194 20.4007C54.2574 20.5867 54.5054 20.8347 54.6294 20.6487Z" fill="#F9F8F8"/>
<path d="M57.4821 19.3464C57.9161 19.2224 58.2261 19.0984 58.5982 18.7883C58.6602 18.7263 58.5982 18.6643 58.5362 18.6643C58.1641 18.8503 57.8541 19.0364 57.4821 19.2224C57.42 19.2844 57.42 19.3464 57.4821 19.3464Z" fill="#F9F8F8"/>
<path d="M40.2433 11.9053C40.7394 11.0372 41.2974 9.92108 41.0494 8.92895C41.0494 8.80493 40.8634 8.80493 40.8014 8.92895C40.4913 9.85907 40.3053 10.7892 39.8713 11.7193C39.7472 11.9053 40.0573 12.1534 40.2433 11.9053Z" fill="#F9F8F8"/>
<path d="M40.2431 7.565C40.2431 7.19295 40.3672 6.8209 40.3052 6.51086C40.3052 6.44885 40.1811 6.44885 40.1811 6.51086C40.0571 6.8209 40.0571 7.25496 39.9951 7.565C39.9951 7.68901 40.2431 7.68901 40.2431 7.565Z" fill="#F9F8F8"/>
<path d="M39.5614 6.38688C39.5614 6.01484 39.6234 5.58078 39.4994 5.20873C39.4374 5.08472 39.3133 5.08472 39.2513 5.20873C39.1273 5.58078 39.1893 6.01484 39.1893 6.38688C39.1893 6.63492 39.5614 6.63492 39.5614 6.38688Z" fill="#F9F8F8"/>
<path d="M21.7025 8.30917C21.3304 7.7511 20.8964 7.31704 20.4003 6.82098C19.9662 6.38692 19.5322 5.95287 18.9741 5.76685C18.9121 5.76685 18.9121 5.82885 18.9121 5.82885C19.2842 6.26291 19.7802 6.63496 20.2143 7.007C20.6483 7.44106 21.0824 7.93712 21.5784 8.37118C21.6405 8.5572 21.7645 8.43318 21.7025 8.30917Z" fill="#F9F8F8"/>
<path d="M19.2231 8.12296C19.0991 7.87493 18.851 7.6269 18.665 7.37886C18.479 7.19284 18.355 6.82079 18.0449 6.69678C17.9829 6.69678 17.9209 6.69678 17.9209 6.75878C17.8589 7.00682 18.1069 7.25485 18.231 7.44087C18.479 7.75091 18.727 7.99894 18.9751 8.24697C19.0991 8.37099 19.2851 8.24697 19.2231 8.12296Z" fill="#F9F8F8"/>
<path d="M19.347 10.4795C19.223 10.2934 19.1609 10.1694 19.0989 9.98339C19.0989 9.85938 18.9129 9.85938 18.8509 9.98339C18.7889 10.4795 18.9129 10.7895 19.347 11.0995C19.471 11.1615 19.595 11.0375 19.533 10.9135C19.471 10.7275 19.409 10.6035 19.347 10.4795Z" fill="#F9F8F8"/>
<path d="M13.8281 30.8179C13.9521 30.8179 13.8901 30.5699 13.7661 30.5699C13.2081 30.5079 12.588 30.5699 12.0299 30.7559C11.9679 30.7559 11.9679 30.8179 12.0299 30.8799C12.65 31.0659 13.2701 30.9419 13.8281 30.8179Z" fill="#F9F8F8"/>
<path d="M14.5099 31.7483C14.1999 31.7483 13.8898 31.7483 13.5178 31.8103C13.3938 31.8103 13.4558 31.9963 13.5798 31.9343C13.8898 31.8723 14.1999 31.8103 14.5099 31.8103C14.5719 31.8103 14.5719 31.7483 14.5099 31.7483Z" fill="#F9F8F8"/>
<path d="M16.9909 32.3682C17.0529 32.3061 16.9909 32.2441 16.9289 32.2441C16.6809 32.3061 16.4328 32.3061 16.1848 32.3061C16.0608 32.3061 16.0608 32.4922 16.1848 32.4922C16.4948 32.4922 16.7429 32.4922 16.9909 32.3682Z" fill="#F9F8F8"/>
<path d="M16.3081 29.5778C16.8042 29.5778 17.3002 29.5778 17.7963 29.5158C17.9823 29.5158 17.9823 29.2058 17.7963 29.2058C17.3002 29.1438 16.8042 29.1438 16.3081 29.1438C16.0601 29.0818 16.0601 29.5778 16.3081 29.5778Z" fill="#F9F8F8"/>
<path d="M5.88989 23.005C5.76587 23.005 5.76587 23.191 5.88989 23.191C6.57197 23.253 7.37808 23.377 8.06016 23.253C8.12217 23.253 8.12217 23.129 8.06016 23.067C7.37808 22.819 6.50997 22.881 5.88989 23.005Z" fill="#F9F8F8"/>
<path d="M9.79751 22.0749C9.36346 21.8888 8.8674 21.9508 8.37133 21.9508C8.24732 21.9508 8.24732 22.1369 8.37133 22.1369C8.80539 22.1369 9.30145 22.2609 9.73551 22.1989C9.85952 22.1989 9.92153 22.0749 9.79751 22.0749Z" fill="#F9F8F8"/>
<path d="M10.6037 25.6712C10.4177 25.4852 10.1076 25.4232 9.85961 25.4852C9.7356 25.5472 9.7356 25.7332 9.85961 25.7952C10.0456 25.8572 10.2937 25.8572 10.5417 25.8572C10.6037 25.8572 10.6657 25.7332 10.6037 25.6712Z" fill="#F9F8F8"/>
<path d="M18.9119 18.2925C19.1599 18.5405 19.4079 18.8506 19.78 19.0366C19.842 19.0986 19.966 18.9746 19.904 18.9126C19.718 18.5405 19.4079 18.3545 19.0359 18.1065C18.6638 17.8584 18.2918 17.6104 17.9197 17.4244C17.8577 17.3624 17.7957 17.4864 17.8577 17.5484C18.2298 17.7964 18.6018 17.9824 18.9119 18.2925Z" fill="#F9F8F8"/>
<path d="M21.4547 19.1604C21.3307 19.0984 21.2067 19.2844 21.3307 19.3465C21.5787 19.4705 21.7647 19.6565 21.9507 19.8425C22.0748 19.9665 22.2608 20.0905 22.3848 20.1526C22.4468 20.1526 22.5088 20.0905 22.5088 20.0285C22.3848 19.6565 21.8887 19.3465 21.4547 19.1604Z" fill="#F9F8F8"/>
<path d="M19.781 21.7649C20.029 22.0129 20.2771 22.3849 20.6491 22.4469C20.7111 22.4469 20.8351 22.3849 20.7731 22.2609C20.5871 21.9509 20.3391 21.7029 20.091 21.4548C19.905 21.2688 19.595 21.5788 19.781 21.7649Z" fill="#F9F8F8"/>
<path d="M20.8969 22.3851C21.021 22.5091 21.145 22.6331 21.331 22.5711C21.393 22.5711 21.393 22.4471 21.393 22.4471C21.331 22.3851 21.207 22.2611 21.145 22.1991C20.9589 21.9511 20.7109 22.1991 20.8969 22.3851Z" fill="#F9F8F8"/>
<path d="M23.9351 21.2069C23.8111 21.0829 23.6871 21.2689 23.8111 21.3929C23.9352 21.4549 24.0592 21.517 24.1832 21.579C24.2452 21.641 24.3072 21.517 24.2452 21.517C24.1212 21.3929 23.9972 21.3309 23.9351 21.2069Z" fill="#F9F8F8"/>
<path d="M40.6146 19.5327C40.5525 19.5947 40.6766 19.6567 40.7386 19.6567C41.6687 19.2226 42.4748 18.2925 43.0329 17.5484C43.0949 17.4244 42.9709 17.3004 42.8468 17.4244C42.4748 17.7965 42.0407 18.1685 41.6687 18.5406C41.2966 18.8506 40.8626 19.1606 40.6146 19.5327Z" fill="#F9F8F8"/>
<path d="M42.7241 18.7263C42.8481 18.6643 42.7241 18.4783 42.6001 18.5403C42.352 18.6643 42.042 18.9124 42.042 19.1604C42.042 19.2224 42.104 19.2844 42.166 19.2224C42.414 19.0984 42.476 18.8504 42.7241 18.7263Z" fill="#F9F8F8"/>
<path d="M42.9712 19.5946C43.0952 19.5946 43.1572 19.5326 43.2812 19.4086C43.4052 19.2845 43.2192 19.0985 43.0952 19.2225C42.9712 19.3466 42.9092 19.4086 42.9092 19.5326L42.9712 19.5946Z" fill="#F9F8F8"/>
<path d="M32.8637 14.82C32.8017 13.9519 32.3676 12.9598 31.9956 12.1537C31.9336 12.0917 31.8096 12.0917 31.8096 12.1537C31.9336 13.0218 32.1196 14.1379 32.6777 14.82C32.6777 14.944 32.8637 14.944 32.8637 14.82Z" fill="#F9F8F8"/>
<path d="M31.8108 15.3781C31.9349 15.6261 31.9969 15.8122 32.0589 16.0602C32.0589 16.2462 32.3069 16.1842 32.3689 15.9982C32.3689 15.6881 32.3069 15.4401 32.1829 15.1921C32.0589 14.944 31.7488 15.1301 31.8108 15.3781Z" fill="#F9F8F8"/>
<path d="M33.7322 17.9205C33.6702 17.5485 33.5462 17.2385 33.4222 16.8664C33.3602 16.8044 33.2361 16.8044 33.2981 16.9284C33.4222 17.3005 33.4842 17.6725 33.6082 17.9826C33.6702 17.9826 33.7322 17.9205 33.7322 17.9205Z" fill="#F9F8F8"/>
<path d="M29.2051 16.6804C28.957 17.1765 28.895 17.7345 29.019 18.2926C29.019 18.4166 29.2051 18.4166 29.2671 18.2926C29.3911 17.7965 29.3291 17.3005 29.5151 16.8044C29.5771 16.6184 29.2671 16.4944 29.2051 16.6804Z" fill="#F9F8F8"/>
<path d="M29.577 44.1495C29.577 44.0875 29.515 44.0875 29.577 44.1495C29.205 45.1417 29.267 46.2578 29.515 47.2499C29.515 47.3119 29.577 47.2499 29.577 47.2499C29.639 46.1958 29.515 45.1417 29.577 44.1495Z" fill="#F9F8F8"/>
<path d="M30.0115 46.3201C29.9495 46.7541 29.8875 47.1262 29.9495 47.4982C29.9495 47.6222 30.1355 47.6222 30.1355 47.4982C30.2596 47.0642 30.1355 46.6921 30.0735 46.3201C30.1355 46.3201 30.0735 46.3201 30.0115 46.3201Z" fill="#F9F8F8"/>
<path d="M30.7553 47.498C30.7553 47.312 30.5073 47.312 30.4453 47.436C30.3212 47.9941 30.3212 48.5522 30.6933 49.0482C30.7553 49.1723 31.0033 49.1103 30.9413 48.9242C30.8173 48.4902 30.6933 47.9941 30.7553 47.498Z" fill="#F9F8F8"/>
<path d="M32.8637 43.1573C32.8637 43.7154 32.8017 44.2735 32.7397 44.8316C32.7397 45.3276 32.6157 45.8237 32.7397 46.2577C32.7397 46.3197 32.8637 46.3197 32.9257 46.2577C33.2978 45.3896 33.0497 44.0875 33.0497 43.1573C32.9877 43.0953 32.8637 43.0953 32.8637 43.1573Z" fill="#F9F8F8"/>
<path d="M32.3055 48.1183C32.1814 48.4903 32.1194 48.8004 32.0574 49.1724C31.9954 49.4825 31.9334 49.7305 31.9954 50.0405C31.9954 50.1025 32.0574 50.1025 32.1194 50.1025C32.3675 49.9165 32.3675 49.6685 32.4295 49.3584C32.4915 48.9244 32.4915 48.5523 32.4915 48.1183C32.4915 48.0563 32.3675 48.0563 32.3055 48.1183Z" fill="#F9F8F8"/>
<path d="M8.68165 40.1811C8.06158 40.4291 7.37949 40.6771 7.13146 41.2972C7.06945 41.4832 7.25547 41.6692 7.37949 41.4832C7.75154 40.9872 8.2476 40.6771 8.80567 40.4291C8.99169 40.4291 8.86768 40.119 8.68165 40.1811Z" fill="#F9F8F8"/>
<path d="M9.36355 38.1349C9.23954 38.2589 9.11552 38.3829 8.9915 38.5069C8.9295 38.5689 8.99151 38.631 9.05351 38.631C9.23954 38.5689 9.36355 38.4449 9.54958 38.3209C9.67359 38.1969 9.48757 38.0109 9.36355 38.1349Z" fill="#F9F8F8"/>
<path d="M20.8343 49.2343C20.8963 49.1103 20.9583 48.9243 21.0823 48.8002C21.2063 48.6142 20.9583 48.3662 20.8343 48.5522C20.6483 48.7382 20.5862 48.9863 20.6483 49.2343C20.7103 49.2963 20.8343 49.3583 20.8343 49.2343Z" fill="#F9F8F8"/>
<path d="M20.8961 51.1565C20.7721 51.5286 20.524 52.0866 20.6481 52.5207C20.6481 52.6447 20.7721 52.6447 20.8961 52.5827C21.2061 52.2726 21.2061 51.6526 21.3301 51.2805C21.3301 51.0325 20.9581 50.9705 20.8961 51.1565Z" fill="#F9F8F8"/>
<path d="M23.997 51.8387C23.749 52.5208 23.501 53.2649 23.501 53.947C23.501 54.009 23.563 54.071 23.625 54.009C24.1831 53.4509 24.1831 52.5828 24.1831 51.8387C24.1211 51.7767 23.997 51.7767 23.997 51.8387Z" fill="#F9F8F8"/>
<path d="M25.0511 50.6606C24.9891 50.8466 24.9271 50.9706 25.0511 51.1567C25.1131 51.2187 25.2371 51.2807 25.2371 51.1567C25.2991 51.0326 25.3611 50.9086 25.4231 50.7846C25.4851 50.5366 25.1131 50.4126 25.0511 50.6606Z" fill="#F9F8F8"/>
</svg>
