<svg width="397" height="129" viewBox="0 0 397 129" fill="none" xmlns="http://www.w3.org/2000/svg">
<g clip-path="url(#clip0)">
<path d="M38.8285 25.3088L35.5366 23.3164C33.472 22.0603 31.9993 20.8258 31.1186 19.613C30.2523 18.3858 29.8192 16.9781 29.8192 15.3899C29.8192 13.0077 30.6421 11.073 32.2881 9.58589C33.9484 8.09878 36.0997 7.35523 38.7418 7.35523C41.2685 7.35523 43.5858 8.06269 45.6937 9.47761V14.3937C43.5136 12.3002 41.1674 11.2535 38.6552 11.2535C37.2403 11.2535 36.078 11.5855 35.1684 12.2497C34.2588 12.8994 33.8041 13.7368 33.8041 14.7619C33.8041 15.6715 34.1361 16.5233 34.8003 17.3174C35.4644 18.1115 36.54 18.9417 38.0271 19.808L41.3407 21.7571C45.0368 23.9516 46.8848 26.7526 46.8848 30.16C46.8848 32.5855 46.0691 34.5563 44.4376 36.0723C42.8205 37.5883 40.7126 38.3463 38.1138 38.3463C35.1251 38.3463 32.4036 37.4295 29.9491 35.5958V30.095C32.2881 33.0548 34.9952 34.5347 38.0705 34.5347C39.4276 34.5347 40.5538 34.1593 41.4489 33.4085C42.3585 32.6433 42.8133 31.6904 42.8133 30.5498C42.8133 28.7017 41.485 26.9547 38.8285 25.3088ZM61.3083 7.5718H64.3619L77.8975 37.9998H73.4579L69.4297 29.0338H56.5655L52.7538 37.9998H48.3142L61.3083 7.5718ZM67.6538 25.1789L62.781 14.2205L58.2547 25.1789H67.6538ZM105.272 7.74506H109.387V37.9998H105.662L85.4341 14.7186V37.9998H81.3626V7.74506H84.871L105.272 31.2211V7.74506ZM128.271 7.74506H144.406V11.6H132.603V20.0462H144.406V23.9011H132.603V37.9998H128.271V7.74506ZM149.192 37.9998V7.74506H156.772C159.833 7.74506 162.258 8.50305 164.049 10.019C165.853 11.535 166.756 13.5852 166.756 16.1696C166.756 17.931 166.315 19.4542 165.435 20.7392C164.554 22.0242 163.291 22.9843 161.645 23.6196C162.612 24.2548 163.558 25.1211 164.482 26.2184C165.406 27.3157 166.705 29.2287 168.38 31.9575C169.434 33.6756 170.279 34.9678 170.914 35.8341L172.517 37.9998H167.362L166.041 36.0073C165.998 35.9351 165.911 35.8124 165.781 35.6392L164.937 34.448L163.594 32.239L162.143 29.8784C161.248 28.6368 160.425 27.6478 159.674 26.9114C158.938 26.1751 158.266 25.6481 157.66 25.3305C157.068 24.9984 156.065 24.8324 154.65 24.8324H153.523V37.9998H149.192ZM154.823 11.4267H153.523V20.9774H155.169C157.364 20.9774 158.865 20.7897 159.674 20.4143C160.497 20.039 161.132 19.4759 161.58 18.7251C162.042 17.9599 162.273 17.0936 162.273 16.1263C162.273 15.1734 162.02 14.3143 161.515 13.5491C161.01 12.7695 160.295 12.2208 159.371 11.9032C158.461 11.5855 156.945 11.4267 154.823 11.4267ZM185.532 7.5718H188.586L202.122 37.9998H197.682L193.654 29.0338H180.789L176.978 37.9998H172.538L185.532 7.5718ZM191.878 25.1789L187.005 14.2205L182.479 25.1789H191.878ZM229.496 7.74506H233.611V37.9998H229.886L209.658 14.7186V37.9998H205.587V7.74506H209.095L229.496 31.2211V7.74506ZM266.183 30.9829V35.7474C263.006 37.48 259.339 38.3463 255.181 38.3463C251.802 38.3463 248.937 37.6677 246.583 36.3105C244.23 34.9534 242.367 33.0836 240.996 30.7014C239.624 28.3191 238.938 25.7419 238.938 22.9699C238.938 18.5663 240.505 14.863 243.638 11.8599C246.785 8.85678 250.662 7.35523 255.268 7.35523C258.444 7.35523 261.974 8.18541 265.858 9.84578V14.502C262.321 12.4807 258.863 11.47 255.484 11.47C252.019 11.47 249.139 12.5673 246.843 14.7619C244.562 16.942 243.421 19.678 243.421 22.9699C243.421 26.2906 244.547 29.0194 246.8 31.1562C249.052 33.293 251.932 34.3614 255.441 34.3614C259.108 34.3614 262.689 33.2352 266.183 30.9829ZM271.554 7.74506H275.885V37.9998H271.554V7.74506ZM290.092 25.3088L286.8 23.3164C284.735 22.0603 283.263 20.8258 282.382 19.613C281.516 18.3858 281.083 16.9781 281.083 15.3899C281.083 13.0077 281.906 11.073 283.552 9.58589C285.212 8.09878 287.363 7.35523 290.005 7.35523C292.532 7.35523 294.849 8.06269 296.957 9.47761V14.3937C294.777 12.3002 292.431 11.2535 289.919 11.2535C288.504 11.2535 287.341 11.5855 286.432 12.2497C285.522 12.8994 285.068 13.7368 285.068 14.7619C285.068 15.6715 285.4 16.5233 286.064 17.3174C286.728 18.1115 287.803 18.9417 289.291 19.808L292.604 21.7571C296.3 23.9516 298.148 26.7526 298.148 30.16C298.148 32.5855 297.333 34.5563 295.701 36.0723C294.084 37.5883 291.976 38.3463 289.377 38.3463C286.389 38.3463 283.667 37.4295 281.213 35.5958V30.095C283.552 33.0548 286.259 34.5347 289.334 34.5347C290.691 34.5347 291.817 34.1593 292.712 33.4085C293.622 32.6433 294.077 31.6904 294.077 30.5498C294.077 28.7017 292.748 26.9547 290.092 25.3088ZM328.988 30.9829V35.7474C325.811 37.48 322.144 38.3463 317.986 38.3463C314.608 38.3463 311.742 37.6677 309.388 36.3105C307.035 34.9534 305.172 33.0836 303.801 30.7014C302.429 28.3191 301.743 25.7419 301.743 22.9699C301.743 18.5663 303.31 14.863 306.443 11.8599C309.59 8.85678 313.467 7.35523 318.073 7.35523C321.249 7.35523 324.779 8.18541 328.663 9.84578V14.502C325.126 12.4807 321.668 11.47 318.289 11.47C314.824 11.47 311.944 12.5673 309.648 14.7619C307.367 16.942 306.226 19.678 306.226 22.9699C306.226 26.2906 307.352 29.0194 309.605 31.1562C311.857 33.293 314.737 34.3614 318.246 34.3614C321.913 34.3614 325.494 33.2352 328.988 30.9829ZM349.172 7.31192C353.85 7.31192 357.741 8.79181 360.845 11.7516C363.964 14.7114 365.523 18.4219 365.523 22.8832C365.523 27.3446 363.949 31.0407 360.802 33.9716C357.669 36.888 353.713 38.3463 348.934 38.3463C344.371 38.3463 340.567 36.888 337.521 33.9716C334.489 31.0407 332.973 27.3734 332.973 22.9699C332.973 18.4508 334.503 14.7114 337.564 11.7516C340.625 8.79181 344.494 7.31192 349.172 7.31192ZM349.345 11.4267C345.88 11.4267 343.029 12.5096 340.791 14.6753C338.567 16.841 337.456 19.6058 337.456 22.9699C337.456 26.2328 338.575 28.9472 340.812 31.1129C343.05 33.2785 345.851 34.3614 349.215 34.3614C352.594 34.3614 355.409 33.2569 357.661 31.0479C359.928 28.8389 361.062 26.0885 361.062 22.7966C361.062 19.5914 359.928 16.8987 357.661 14.7186C355.409 12.524 352.637 11.4267 349.345 11.4267Z" fill="white"/>
<path d="M272.487 71.2428C273.487 69.7685 274.579 68.0071 275.763 65.9584C276.992 63.9028 278.096 61.7756 279.075 59.5767C280.047 57.3334 280.838 55.0953 281.448 52.8626C282.057 50.6299 282.262 48.5735 282.062 46.6937C282.018 46.7005 281.97 46.6852 281.919 46.6476C281.091 46.5937 280.266 46.6988 279.442 46.9627C278.612 47.1823 277.821 47.5095 277.069 47.9443C276.318 48.3792 275.573 48.8584 274.835 49.3821C274.097 49.9058 273.404 50.4226 272.755 50.9326C271.45 51.908 270.039 53.0818 268.523 54.454C267.006 55.8262 265.504 57.2872 264.015 58.8371C262.519 60.3426 261.097 61.8821 259.748 63.4558C258.444 65.0227 257.329 66.4919 256.404 67.8635L256.47 67.8532C256.221 68.3012 255.923 68.8706 255.575 69.5615C255.264 70.201 254.983 70.8815 254.731 71.603C254.478 72.3245 254.315 73.0322 254.24 73.7262C254.166 74.4202 254.259 75.02 254.519 75.5257C255.285 76.3625 256.501 77.0159 258.166 77.4861C259.876 77.9494 261.76 78.3629 263.818 78.7268C265.914 79.0393 268.061 79.3894 270.259 79.777C272.451 80.1202 274.459 80.6054 276.285 81.2326C278.156 81.853 279.676 82.7096 280.846 83.8024C282.054 84.8438 282.677 86.2259 282.716 87.9487C282.744 88.7178 282.581 89.4256 282.226 90.072C281.916 90.7115 281.484 91.3015 280.931 91.8422C280.415 92.3315 279.848 92.7832 279.229 93.1974C278.611 93.6116 278.012 94.0001 277.431 94.363C276.686 94.8423 275.856 95.3575 274.94 95.9087C274.076 96.4975 273.154 97.0043 272.173 97.4291C271.244 97.8914 270.297 98.2427 269.333 98.4829C268.37 98.7231 267.394 98.7377 266.406 98.5267C265.123 98.1792 263.832 97.6283 262.533 96.8741C261.24 96.1643 260.222 95.321 259.48 94.344C258.73 93.3226 258.406 92.2581 258.507 91.1505C258.646 89.9916 259.514 88.8337 261.109 87.6768L265.604 91.1438C264.969 91.7426 264.422 92.3277 263.965 92.899C263.507 93.4703 263.316 94.0003 263.392 94.489C264.383 94.4266 265.402 94.2462 266.447 93.9478C267.531 93.5981 268.559 93.1886 269.533 92.7194C270.551 92.2433 271.515 91.7074 272.423 91.1118C273.376 90.5093 274.26 89.8949 275.073 89.2685C275.199 89.2035 275.438 88.9845 275.79 88.6115C276.186 88.2317 276.579 87.8297 276.968 87.4055C277.35 86.9368 277.647 86.5041 277.859 86.1074C278.064 85.6662 278.038 85.3518 277.781 85.164C276.478 84.6833 275.005 84.2744 273.36 83.9376C271.753 83.5494 270.194 83.1766 268.683 82.8191C267.031 82.4378 265.306 82.0223 263.508 81.5728C261.754 81.1164 259.983 80.5489 258.194 79.8704C257.37 79.543 256.469 79.1593 255.491 78.7192C254.551 78.2279 253.644 77.663 252.772 77.0246C251.9 76.3862 251.15 75.6605 250.524 74.8475C249.853 74.0414 249.435 73.1052 249.27 72.0388C249.071 70.7503 249.249 69.4033 249.805 67.9979C250.354 66.548 251.004 65.3099 251.755 64.2837C254.879 60.0694 258.358 56.0958 262.194 52.3628C266.073 48.6229 270.367 45.5014 275.075 42.9982C276.9 42.4427 278.649 42.4223 280.321 42.9369C281.993 43.4514 283.472 44.3371 284.758 45.5938C285.364 46.2735 285.852 46.926 286.221 47.5512C286.636 48.1695 286.917 48.8085 287.064 49.468C287.212 50.1276 287.255 50.8489 287.194 51.6317C287.134 52.4146 286.975 53.3035 286.72 54.2985C285.828 57.9398 284.582 61.4994 282.982 64.9774C281.375 68.4109 279.452 71.7114 277.213 74.8788L272.487 71.2428ZM287.463 56.9814C288.485 56.8232 289.4 56.7044 290.206 56.6251C291.05 56.4944 291.854 56.3928 292.616 56.3203C293.25 54.5387 293.789 53.0222 294.232 51.7707C294.713 50.4679 295.042 49.507 295.219 48.8881L299.641 51.8887C299.474 52.2785 299.258 52.7897 298.992 53.4224C298.763 54.0037 298.53 54.6996 298.291 55.5099C298.38 55.4962 298.491 55.479 298.624 55.4583C298.751 55.3933 298.881 55.3504 299.014 55.3298L300.223 59.1691C299.518 59.3236 298.903 59.4643 298.377 59.5913C297.888 59.667 297.4 59.7426 296.911 59.8183C296.349 61.7707 295.795 63.9265 295.25 66.2856C294.743 68.5935 294.332 70.932 294.016 73.3012C293.7 75.6704 293.537 77.9933 293.525 80.2699C293.551 82.4952 293.839 84.498 294.387 86.2785C294.79 85.9431 295.231 85.2607 295.708 84.2314C296.23 83.1951 296.754 82.0221 297.279 80.7124C297.849 79.3958 298.386 78.016 298.89 76.573C299.439 75.1232 299.961 73.7912 300.456 72.5773L304.812 75.5881C304.59 76.2139 304.314 77.0756 303.983 78.1732C303.646 79.2263 303.252 80.3564 302.802 81.5635C302.345 82.7262 301.796 83.8804 301.154 85.0261C300.557 86.165 299.866 87.1364 299.08 87.9405C298.288 88.7001 297.414 89.2222 296.457 89.5068C295.5 89.7914 294.43 89.6386 293.246 89.0484C291.283 88.1238 289.937 86.6262 289.207 84.5554C288.47 82.4401 288.124 80.0596 288.17 77.4138C288.208 74.7235 288.525 71.9219 289.121 69.0089C289.76 66.0891 290.488 63.2922 291.302 60.6183L290.236 60.7834L287.463 56.9814ZM298.731 77.0071C299.335 75.3213 300.048 73.4594 300.87 71.4213C301.64 69.3456 302.423 67.1999 303.217 64.9841C302.576 63.4909 302.455 62.122 302.854 60.8773C303.291 59.5814 303.949 58.5467 304.83 57.7733C305.705 56.9555 306.668 56.4197 307.721 56.1657C308.818 55.9049 309.697 55.9964 310.357 56.4401C311.01 56.8395 311.322 57.6784 311.292 58.9568C311.256 60.1909 310.589 61.9092 309.292 64.1118C309.918 64.3334 310.385 64.5569 310.693 64.7822C311.001 65.0075 311.274 65.3064 311.514 65.6787C311.791 65.9998 312.085 66.4319 312.397 66.9752C312.746 67.4671 313.234 68.1195 313.86 68.9325C314.538 69.783 314.858 70.8253 314.822 72.0593C314.823 73.2421 314.65 74.4746 314.302 75.7567C313.999 77.0321 313.649 78.292 313.25 79.5367C312.844 80.7369 312.573 81.7797 312.437 82.6652C313.421 81.967 314.256 81.0415 314.942 79.8889C315.673 78.7294 316.307 77.5392 316.846 76.3184C317.378 75.0531 317.847 73.8204 318.253 72.6201C318.703 71.4131 319.117 70.4162 319.496 69.6297L323.929 72.6969C323.748 72.9978 323.535 73.5313 323.29 74.2972C323.037 75.0187 322.717 75.8873 322.328 76.9029C321.977 77.8672 321.566 78.8862 321.095 79.96C320.669 81.0269 320.184 82.0119 319.642 82.9148C319.144 83.8109 318.584 84.6027 317.962 85.2904C317.334 85.9337 316.663 86.447 315.949 86.8306C315.279 87.2072 314.56 87.4096 313.79 87.4376C313.059 87.4144 312.356 87.1364 311.682 86.6038C311.22 86.2658 310.759 85.9279 310.297 85.5899C309.88 85.245 309.462 84.9002 309.045 84.5553C308.518 84.0909 308.189 83.4366 308.058 82.5924C307.965 81.6969 307.973 80.7175 308.081 79.6543C308.234 78.5843 308.45 77.4817 308.729 76.3465C309.002 75.1669 309.262 74.0575 309.511 73.0181C309.804 71.9718 310.025 71.0503 310.175 70.2537C310.324 69.4571 310.327 68.888 310.183 68.5463C309.8 68.4236 309.395 68.3043 308.968 68.1885C308.534 68.0282 308.106 67.9124 307.686 67.841C307.495 68.371 307.3 68.8788 307.103 69.3644C306.949 69.8431 306.792 70.2996 306.632 70.7339C306.097 72.2726 305.533 73.7704 304.939 75.2272C304.383 76.6326 303.778 78.1595 303.123 79.8077L298.731 77.0071ZM323.711 76.9618C323.555 78.3053 323.483 79.4539 323.494 80.4076C323.549 81.3544 323.639 81.9321 323.762 82.1405C324.35 82.4134 324.981 82.5205 325.654 82.4617C326.321 82.3585 326.974 82.1665 327.613 81.8856C328.252 81.6047 328.858 81.2606 329.432 80.8533C330.006 80.4459 330.51 80.0267 330.943 79.5956C331.818 78.7778 332.564 77.8661 333.181 76.8606C333.792 75.8106 334.333 74.7487 334.804 73.6749C335.312 72.5498 335.773 71.4093 336.185 70.2536C336.598 69.0978 337.058 67.9573 337.566 66.8322L341.866 69.9201C341.368 71.4075 340.889 72.8693 340.429 74.3054C339.969 75.7415 339.41 77.1248 338.751 78.4551C338.13 79.7341 337.356 80.9005 336.427 81.9542C335.542 83.0011 334.424 83.8567 333.071 84.5211C332.118 85.1236 331.152 85.5006 330.175 85.6519C329.242 85.7963 328.307 85.7818 327.37 85.6084C326.478 85.428 325.587 85.111 324.698 84.6572C323.853 84.1965 323.017 83.6435 322.189 82.9982C321.457 82.3836 320.803 81.6886 320.228 80.9132C319.653 80.1378 319.227 79.2938 318.949 78.3814C318.572 77.1204 318.436 75.7994 318.54 74.4183C318.6 73.044 318.845 71.6867 319.275 70.3464C319.66 69.0128 320.192 67.7476 320.871 66.5505C321.588 65.3022 322.395 64.199 323.293 63.241C325.052 61.3764 326.781 60.4945 328.48 60.5955C330.179 60.6964 331.962 61.4895 333.83 62.9747C334.781 63.8284 335.315 64.9286 335.433 66.2753C335.444 67.229 335.185 68.2018 334.656 69.1936C334.165 70.1341 333.656 70.9635 333.13 71.6819C331.949 73.4571 330.724 74.9435 329.453 76.1411C328.183 77.3387 326.818 78.3689 325.359 79.2317L323.711 76.9618ZM330.488 64.311C329.463 64.7427 328.576 65.3349 327.828 66.0876C327.125 66.8335 326.509 67.7023 325.98 68.6941C325.489 69.6346 325.078 70.6537 324.747 71.7513C324.461 72.842 324.201 73.9515 323.966 75.0797C324.594 74.4365 325.275 73.6941 326.009 72.8525C326.744 72.0109 327.426 71.1317 328.058 70.215C328.727 69.247 329.282 68.274 329.722 67.2959C330.155 66.2735 330.41 65.2785 330.488 64.311ZM341.87 74.1506C341.714 75.4942 341.642 76.6428 341.653 77.5965C341.708 78.5433 341.798 79.1209 341.921 79.3293C342.509 79.6022 343.14 79.7093 343.813 79.6506C344.48 79.5474 345.132 79.3554 345.771 79.0745C346.41 78.7936 347.017 78.4494 347.591 78.0421C348.165 77.6348 348.668 77.2156 349.102 76.7845C349.976 75.9667 350.723 75.055 351.34 74.0494C351.951 72.9994 352.492 71.9375 352.963 70.8637C353.471 69.7386 353.931 68.5982 354.344 67.4424C354.756 66.2866 355.217 65.1462 355.725 64.0211L360.025 67.1089C359.527 68.5964 359.048 70.0581 358.588 71.4943C358.128 72.9304 357.569 74.3136 356.91 75.644C356.289 76.923 355.514 78.0894 354.586 79.1431C353.701 80.1899 352.583 81.0456 351.23 81.71C350.276 82.3125 349.311 82.6894 348.334 82.8407C347.401 82.9852 346.466 82.9707 345.529 82.7972C344.636 82.6169 343.746 82.2998 342.857 81.846C342.012 81.3854 341.175 80.8324 340.348 80.1871C339.616 79.5725 338.962 78.8775 338.387 78.1021C337.812 77.3266 337.386 76.4827 337.108 75.5703C336.731 74.3093 336.594 72.9882 336.699 71.6071C336.759 70.2329 337.004 68.8756 337.434 67.5352C337.819 66.2017 338.351 64.9364 339.03 63.7394C339.746 62.491 340.554 61.3879 341.452 60.4299C343.211 58.5652 344.939 57.6834 346.638 57.7844C348.337 57.8853 350.121 58.6784 351.989 60.1636C352.94 61.0173 353.474 62.1175 353.592 63.4642C353.603 64.4179 353.344 65.3907 352.815 66.3825C352.324 67.323 351.815 68.1524 351.289 68.8707C350.108 70.6459 348.882 72.1324 347.612 73.33C346.341 74.5276 344.977 75.5578 343.518 76.4205L341.87 74.1506ZM348.647 61.4999C347.622 61.9316 346.735 62.5238 345.987 63.2765C345.284 64.0224 344.668 64.8912 344.139 65.883C343.647 66.8235 343.236 67.8425 342.906 68.9401C342.62 70.0308 342.359 71.1403 342.125 72.2686C342.753 71.6254 343.434 70.8829 344.168 70.0414C344.902 69.1998 345.585 68.3206 346.217 67.4039C346.886 66.4359 347.44 65.4629 347.881 64.4848C348.314 63.4623 348.569 62.4674 348.647 61.4999ZM354.827 46.553C355.849 46.3948 356.763 46.276 357.57 46.1966C358.414 46.066 359.217 45.9644 359.979 45.8919C360.613 44.1103 361.152 42.5938 361.595 41.3423C362.076 40.0394 362.405 39.0786 362.582 38.4597L367.005 41.4602C366.838 41.8501 366.621 42.3613 366.355 42.994C366.127 43.5753 365.893 44.2711 365.655 45.0815C365.743 45.0678 365.855 45.0506 365.988 45.0299C366.114 44.9649 366.244 44.922 366.377 44.9014L367.586 48.7407C366.882 48.8952 366.267 49.0359 365.74 49.1629C365.252 49.2386 364.763 49.3142 364.274 49.3899C363.712 51.3423 363.159 53.498 362.614 55.8572C362.107 58.165 361.695 60.5036 361.38 62.8727C361.064 65.2419 360.9 67.5648 360.889 69.8415C360.915 72.0668 361.202 74.0696 361.751 75.85C362.154 75.5147 362.594 74.8323 363.072 73.8029C363.594 72.7667 364.117 71.5937 364.643 70.284C365.212 68.9674 365.749 67.5876 366.254 66.1446C366.803 64.6947 367.325 63.3628 367.819 62.1489L372.175 65.1597C371.953 65.7855 371.677 66.6471 371.347 67.7447C371.009 68.7979 370.616 69.928 370.166 71.1351C369.709 72.2978 369.159 73.452 368.518 74.5977C367.921 75.7366 367.229 76.708 366.444 77.5121C365.652 78.2717 364.777 78.7938 363.82 79.0784C362.863 79.363 361.793 79.2102 360.61 78.62C358.647 77.6954 357.3 76.1978 356.57 74.127C355.833 72.0117 355.488 69.6312 355.533 66.9854C355.572 64.2951 355.888 61.4935 356.484 58.5805C357.124 55.6607 357.851 52.8638 358.666 50.1899L357.599 50.355L354.827 46.553Z" fill="#5A946F"/>
</g>
<defs>
<clipPath id="clip0">
<rect width="397" height="128.003" fill="white"/>
</clipPath>
</defs>
</svg>
