<svg width="350" height="160" viewBox="0 0 350 160" fill="none" xmlns="http://www.w3.org/2000/svg">
<path d="M13.8285 55.3091L10.5366 53.3166C8.47198 52.0605 6.99931 50.8261 6.11859 49.6133C5.25232 48.3861 4.81918 46.9784 4.81918 45.3902C4.81918 43.0079 5.64214 41.0732 7.28807 39.5861C8.94843 38.099 11.0997 37.3555 13.7418 37.3555C16.2685 37.3555 18.5858 38.0629 20.6937 39.4779V44.394C18.5136 42.3005 16.1674 41.2537 13.6552 41.2537C12.2403 41.2537 11.078 41.5858 10.1684 42.2499C9.25885 42.8996 8.80405 43.737 8.80405 44.7621C8.80405 45.6717 9.13612 46.5236 9.80027 47.3177C10.4644 48.1117 11.54 48.9419 13.0271 49.8082L16.3407 51.7573C20.0368 53.9519 21.8848 56.7528 21.8848 60.1602C21.8848 62.5858 21.0691 64.5566 19.4376 66.0725C17.8205 67.5885 15.7126 68.3465 13.1138 68.3465C10.1251 68.3465 7.40357 67.4297 4.94912 65.5961V60.0952C7.28807 63.055 9.99518 64.5349 13.0705 64.5349C14.4276 64.5349 15.5538 64.1595 16.4489 63.4087C17.3585 62.6435 17.8133 61.6906 17.8133 60.55C17.8133 58.702 16.485 56.955 13.8285 55.3091ZM36.3083 37.572H39.3619L52.8975 68H48.4579L44.4297 59.034H31.5655L27.7538 68H23.3142L36.3083 37.572ZM42.6538 55.1791L37.781 44.2207L33.2547 55.1791H42.6538ZM80.2718 37.7453H84.3867V68H80.6617L60.4341 44.7188V68H56.3626V37.7453H59.871L80.2718 61.2214V37.7453ZM103.271 37.7453H119.406V41.6002H107.603V50.0464H119.406V53.9014H107.603V68H103.271V37.7453ZM124.192 68V37.7453H131.772C134.833 37.7453 137.258 38.5033 139.049 40.0193C140.853 41.5353 141.756 43.5854 141.756 46.1698C141.756 47.9313 141.315 49.4545 140.435 50.7394C139.554 52.0244 138.291 52.9845 136.645 53.6198C137.612 54.2551 138.558 55.1214 139.482 56.2186C140.406 57.3159 141.705 59.229 143.38 61.9577C144.434 63.6758 145.279 64.968 145.914 65.8343L147.517 68H142.362L141.041 66.0076C140.998 65.9354 140.911 65.8127 140.781 65.6394L139.937 64.4483L138.594 62.2393L137.143 59.8787C136.248 58.637 135.425 57.648 134.674 56.9117C133.938 56.1753 133.266 55.6483 132.66 55.3307C132.068 54.9986 131.065 54.8326 129.65 54.8326H128.523V68H124.192ZM129.823 41.427H128.523V50.9777H130.169C132.364 50.9777 133.865 50.79 134.674 50.4146C135.497 50.0392 136.132 49.4761 136.58 48.7254C137.042 47.9601 137.273 47.0939 137.273 46.1265C137.273 45.1736 137.02 44.3146 136.515 43.5494C136.01 42.7697 135.295 42.2211 134.371 41.9034C133.461 41.5858 131.945 41.427 129.823 41.427ZM160.532 37.572H163.586L177.122 68H172.682L168.654 59.034H155.789L151.978 68H147.538L160.532 37.572ZM166.878 55.1791L162.005 44.2207L157.479 55.1791H166.878ZM204.496 37.7453H208.611V68H204.886L184.658 44.7188V68H180.587V37.7453H184.095L204.496 61.2214V37.7453ZM241.183 60.9832V65.7477C238.006 67.4802 234.339 68.3465 230.181 68.3465C226.802 68.3465 223.937 67.6679 221.583 66.3108C219.23 64.9536 217.367 63.0839 215.996 60.7016C214.624 58.3194 213.938 55.7422 213.938 52.9701C213.938 48.5665 215.505 44.8632 218.638 41.8601C221.785 38.857 225.662 37.3555 230.268 37.3555C233.444 37.3555 236.974 38.1857 240.858 39.846V44.5023C237.321 42.4809 233.863 41.4703 230.484 41.4703C227.019 41.4703 224.139 42.5676 221.843 44.7621C219.562 46.9423 218.421 49.6783 218.421 52.9701C218.421 56.2908 219.547 59.0196 221.8 61.1564C224.052 63.2932 226.932 64.3616 230.441 64.3616C234.108 64.3616 237.689 63.2355 241.183 60.9832ZM246.554 37.7453H250.885V68H246.554V37.7453ZM265.092 55.3091L261.8 53.3166C259.735 52.0605 258.263 50.8261 257.382 49.6133C256.516 48.3861 256.083 46.9784 256.083 45.3902C256.083 43.0079 256.906 41.0732 258.552 39.5861C260.212 38.099 262.363 37.3555 265.005 37.3555C267.532 37.3555 269.849 38.0629 271.957 39.4779V44.394C269.777 42.3005 267.431 41.2537 264.919 41.2537C263.504 41.2537 262.341 41.5858 261.432 42.2499C260.522 42.8996 260.068 43.737 260.068 44.7621C260.068 45.6717 260.4 46.5236 261.064 47.3177C261.728 48.1117 262.803 48.9419 264.291 49.8082L267.604 51.7573C271.3 53.9519 273.148 56.7528 273.148 60.1602C273.148 62.5858 272.333 64.5566 270.701 66.0725C269.084 67.5885 266.976 68.3465 264.377 68.3465C261.389 68.3465 258.667 67.4297 256.213 65.5961V60.0952C258.552 63.055 261.259 64.5349 264.334 64.5349C265.691 64.5349 266.817 64.1595 267.712 63.4087C268.622 62.6435 269.077 61.6906 269.077 60.55C269.077 58.702 267.748 56.955 265.092 55.3091ZM303.988 60.9832V65.7477C300.811 67.4802 297.144 68.3465 292.986 68.3465C289.608 68.3465 286.742 67.6679 284.388 66.3108C282.035 64.9536 280.172 63.0839 278.801 60.7016C277.429 58.3194 276.743 55.7422 276.743 52.9701C276.743 48.5665 278.31 44.8632 281.443 41.8601C284.59 38.857 288.467 37.3555 293.073 37.3555C296.249 37.3555 299.779 38.1857 303.663 39.846V44.5023C300.126 42.4809 296.668 41.4703 293.289 41.4703C289.824 41.4703 286.944 42.5676 284.648 44.7621C282.367 46.9423 281.226 49.6783 281.226 52.9701C281.226 56.2908 282.352 59.0196 284.605 61.1564C286.857 63.2932 289.737 64.3616 293.246 64.3616C296.913 64.3616 300.494 63.2355 303.988 60.9832ZM324.172 37.3122C328.85 37.3122 332.741 38.792 335.845 41.7518C338.964 44.7116 340.523 48.4222 340.523 52.8835C340.523 57.3448 338.949 61.0409 335.802 63.9718C332.669 66.8883 328.713 68.3465 323.934 68.3465C319.371 68.3465 315.567 66.8883 312.521 63.9718C309.489 61.0409 307.973 57.3737 307.973 52.9701C307.973 48.451 309.503 44.7116 312.564 41.7518C315.625 38.792 319.494 37.3122 324.172 37.3122ZM324.345 41.427C320.88 41.427 318.029 42.5098 315.791 44.6755C313.567 46.8412 312.456 49.6061 312.456 52.9701C312.456 56.2331 313.575 58.9474 315.812 61.1131C318.05 63.2788 320.851 64.3616 324.215 64.3616C327.594 64.3616 330.409 63.2571 332.661 61.0481C334.928 58.8391 336.062 56.0887 336.062 52.7969C336.062 49.5916 334.928 46.899 332.661 44.7188C330.409 42.5243 327.637 41.427 324.345 41.427Z" fill="white"/>
<path d="M247.487 103.243C248.487 101.769 249.579 100.007 250.763 97.9586C251.992 95.9031 253.096 93.7758 254.075 91.5769C255.047 89.3336 255.838 87.0956 256.448 84.8628C257.057 82.6301 257.262 80.5738 257.062 78.6939C257.018 78.7008 256.97 78.6854 256.919 78.6479C256.091 78.594 255.266 78.699 254.442 78.963C253.612 79.1825 252.821 79.5097 252.069 79.9446C251.318 80.3794 250.573 80.8587 249.835 81.3824C249.097 81.9061 248.404 82.4229 247.755 82.9328C246.45 83.9083 245.039 85.0821 243.523 86.4542C242.006 87.8264 240.504 89.2874 239.015 90.8373C237.519 92.3428 236.097 93.8824 234.748 95.4561C233.444 97.0229 232.329 98.4921 231.404 99.8637L231.47 99.8534C231.221 100.301 230.923 100.871 230.575 101.562C230.264 102.201 229.983 102.882 229.731 103.603C229.478 104.325 229.315 105.032 229.24 105.726C229.166 106.42 229.259 107.02 229.519 107.526C230.285 108.363 231.501 109.016 233.166 109.486C234.876 109.95 236.76 110.363 238.818 110.727C240.914 111.04 243.061 111.39 245.259 111.777C247.451 112.12 249.459 112.606 251.285 113.233C253.156 113.853 254.676 114.71 255.846 115.803C257.054 116.844 257.677 118.226 257.716 119.949C257.744 120.718 257.581 121.426 257.226 122.072C256.916 122.712 256.484 123.302 255.931 123.842C255.415 124.332 254.848 124.783 254.229 125.198C253.611 125.612 253.012 126 252.431 126.363C251.686 126.843 250.856 127.358 249.94 127.909C249.076 128.498 248.154 129.005 247.173 129.429C246.244 129.892 245.297 130.243 244.333 130.483C243.37 130.723 242.394 130.738 241.406 130.527C240.123 130.179 238.832 129.629 237.533 128.874C236.24 128.165 235.222 127.321 234.48 126.344C233.73 125.323 233.406 124.258 233.507 123.151C233.646 121.992 234.514 120.834 236.109 119.677L240.604 123.144C239.969 123.743 239.422 124.328 238.965 124.899C238.507 125.471 238.316 126.001 238.392 126.489C239.383 126.427 240.402 126.246 241.447 125.948C242.531 125.598 243.559 125.189 244.533 124.72C245.551 124.244 246.515 123.708 247.423 123.112C248.376 122.51 249.26 121.895 250.073 121.269C250.199 121.204 250.438 120.985 250.79 120.612C251.186 120.232 251.579 119.83 251.968 119.406C252.35 118.937 252.647 118.504 252.859 118.108C253.064 117.666 253.038 117.352 252.781 117.164C251.478 116.683 250.005 116.275 248.36 115.938C246.753 115.55 245.194 115.177 243.683 114.819C242.031 114.438 240.306 114.023 238.508 113.573C236.754 113.117 234.983 112.549 233.194 111.871C232.37 111.543 231.469 111.159 230.491 110.719C229.551 110.228 228.644 109.663 227.772 109.025C226.9 108.386 226.15 107.661 225.524 106.848C224.853 106.042 224.435 105.105 224.27 104.039C224.071 102.751 224.249 101.404 224.805 99.9981C225.354 98.5482 226.004 97.3102 226.755 96.284C229.879 92.0697 233.358 88.096 237.194 84.363C241.073 80.6232 245.367 77.5016 250.075 74.9984C251.9 74.4429 253.649 74.4225 255.321 74.9371C256.993 75.4517 258.472 76.3374 259.758 77.5941C260.364 78.2738 260.852 78.9262 261.221 79.5514C261.636 80.1697 261.917 80.8087 262.064 81.4683C262.212 82.1279 262.255 82.8491 262.194 83.632C262.134 84.4148 261.975 85.3037 261.72 86.2987C260.828 89.94 259.582 93.4997 257.982 96.9776C256.375 100.411 254.452 103.712 252.213 106.879L247.487 103.243ZM262.463 88.9817C263.485 88.8235 264.4 88.7047 265.206 88.6253C266.05 88.4946 266.854 88.393 267.616 88.3205C268.25 86.539 268.789 85.0224 269.232 83.7709C269.713 82.4681 270.042 81.5072 270.219 80.8884L274.641 83.8889C274.474 84.2787 274.258 84.79 273.992 85.4226C273.763 86.004 273.53 86.6998 273.291 87.5102C273.38 87.4964 273.491 87.4792 273.624 87.4586C273.751 87.3935 273.881 87.3507 274.014 87.33L275.223 91.1694C274.518 91.3239 273.903 91.4646 273.377 91.5916C272.888 91.6672 272.4 91.7429 271.911 91.8185C271.349 93.7709 270.795 95.9267 270.25 98.2859C269.743 100.594 269.332 102.932 269.016 105.301C268.7 107.671 268.537 109.993 268.525 112.27C268.551 114.495 268.839 116.498 269.387 118.279C269.79 117.943 270.231 117.261 270.708 116.232C271.23 115.195 271.754 114.022 272.279 112.713C272.849 111.396 273.386 110.016 273.89 108.573C274.439 107.123 274.961 105.791 275.456 104.578L279.812 107.588C279.59 108.214 279.314 109.076 278.983 110.173C278.646 111.227 278.252 112.357 277.802 113.564C277.345 114.726 276.796 115.881 276.154 117.026C275.557 118.165 274.866 119.137 274.08 119.941C273.288 120.7 272.414 121.222 271.457 121.507C270.5 121.792 269.43 121.639 268.246 121.049C266.283 120.124 264.937 118.626 264.207 116.556C263.47 114.44 263.124 112.06 263.17 109.414C263.208 106.724 263.525 103.922 264.121 101.009C264.76 98.0893 265.488 95.2925 266.302 92.6186L265.236 92.7837L262.463 88.9817ZM273.731 109.007C274.335 107.322 275.048 105.46 275.87 103.422C276.64 101.346 277.423 99.2001 278.217 96.9843C277.576 95.4911 277.455 94.1222 277.854 92.8776C278.291 91.5816 278.949 90.5469 279.83 89.7736C280.705 88.9558 281.668 88.4199 282.721 88.166C283.818 87.9051 284.697 87.9966 285.357 88.4404C286.01 88.8397 286.322 89.6786 286.292 90.9571C286.256 92.1911 285.589 93.9095 284.292 96.1121C284.918 96.3337 285.385 96.5571 285.693 96.7825C286.001 97.0078 286.274 97.3066 286.514 97.679C286.791 98.0001 287.085 98.4322 287.397 98.9754C287.746 99.4673 288.234 100.12 288.86 100.933C289.538 101.783 289.858 102.826 289.822 104.06C289.823 105.242 289.65 106.475 289.302 107.757C288.999 109.032 288.649 110.292 288.25 111.537C287.844 112.737 287.573 113.78 287.437 114.665C288.421 113.967 289.256 113.042 289.942 111.889C290.673 110.73 291.307 109.539 291.846 108.319C292.378 107.053 292.847 105.821 293.253 104.62C293.703 103.413 294.117 102.416 294.496 101.63L298.929 104.697C298.748 104.998 298.535 105.532 298.29 106.297C298.037 107.019 297.717 107.888 297.328 108.903C296.977 109.867 296.566 110.886 296.095 111.96C295.669 113.027 295.184 114.012 294.642 114.915C294.144 115.811 293.584 116.603 292.962 117.291C292.334 117.934 291.663 118.447 290.949 118.831C290.279 119.207 289.56 119.41 288.79 119.438C288.059 119.415 287.356 119.137 286.682 118.604C286.22 118.266 285.759 117.928 285.297 117.59C284.88 117.245 284.462 116.9 284.045 116.556C283.518 116.091 283.189 115.437 283.058 114.593C282.965 113.697 282.973 112.718 283.081 111.655C283.234 110.585 283.45 109.482 283.729 108.347C284.002 107.167 284.262 106.058 284.511 105.018C284.804 103.972 285.025 103.051 285.175 102.254C285.324 101.457 285.327 100.888 285.183 100.547C284.8 100.424 284.395 100.305 283.968 100.189C283.534 100.028 283.106 99.9126 282.686 99.8413C282.495 100.371 282.3 100.879 282.103 101.365C281.949 101.843 281.792 102.3 281.632 102.734C281.097 104.273 280.533 105.771 279.939 107.227C279.383 108.633 278.778 110.16 278.123 111.808L273.731 109.007ZM298.711 108.962C298.555 110.306 298.483 111.454 298.494 112.408C298.549 113.355 298.639 113.932 298.762 114.141C299.35 114.414 299.981 114.521 300.654 114.462C301.321 114.359 301.974 114.167 302.613 113.886C303.252 113.605 303.858 113.261 304.432 112.854C305.006 112.446 305.51 112.027 305.943 111.596C306.818 110.778 307.564 109.866 308.181 108.861C308.792 107.811 309.333 106.749 309.804 105.675C310.312 104.55 310.773 103.41 311.185 102.254C311.598 101.098 312.058 99.9576 312.566 98.8325L316.866 101.92C316.368 103.408 315.889 104.87 315.429 106.306C314.969 107.742 314.41 109.125 313.751 110.455C313.13 111.734 312.356 112.901 311.427 113.954C310.542 115.001 309.424 115.857 308.071 116.521C307.118 117.124 306.152 117.501 305.175 117.652C304.242 117.797 303.307 117.782 302.37 117.609C301.478 117.428 300.587 117.111 299.698 116.657C298.853 116.197 298.017 115.644 297.189 114.998C296.457 114.384 295.803 113.689 295.228 112.913C294.653 112.138 294.227 111.294 293.949 110.382C293.572 109.121 293.436 107.8 293.54 106.419C293.6 105.044 293.845 103.687 294.275 102.347C294.66 101.013 295.192 99.7478 295.871 98.5508C296.588 97.3024 297.395 96.1992 298.293 95.2413C300.052 93.3766 301.781 92.4948 303.48 92.5957C305.179 92.6967 306.962 93.4898 308.83 94.975C309.781 95.8287 310.315 96.9289 310.433 98.2756C310.444 99.2293 310.185 100.202 309.656 101.194C309.165 102.134 308.656 102.964 308.13 103.682C306.949 105.457 305.724 106.944 304.453 108.141C303.183 109.339 301.818 110.369 300.359 111.232L298.711 108.962ZM305.488 96.3113C304.463 96.7429 303.576 97.3351 302.828 98.0879C302.125 98.8337 301.509 99.7026 300.98 100.694C300.489 101.635 300.078 102.654 299.747 103.752C299.461 104.842 299.201 105.952 298.966 107.08C299.594 106.437 300.275 105.694 301.009 104.853C301.744 104.011 302.426 103.132 303.058 102.215C303.727 101.247 304.282 100.274 304.722 99.2962C305.155 98.2737 305.41 97.2787 305.488 96.3113ZM316.87 106.151C316.714 107.494 316.642 108.643 316.653 109.597C316.708 110.544 316.798 111.121 316.921 111.33C317.509 111.602 318.14 111.71 318.813 111.651C319.48 111.548 320.132 111.356 320.771 111.075C321.41 110.794 322.017 110.45 322.591 110.042C323.165 109.635 323.668 109.216 324.102 108.785C324.976 107.967 325.723 107.055 326.34 106.05C326.951 105 327.492 103.938 327.963 102.864C328.471 101.739 328.931 100.598 329.344 99.4427C329.756 98.2869 330.217 97.1464 330.725 96.0213L335.025 99.1092C334.527 100.597 334.048 102.058 333.588 103.495C333.128 104.931 332.569 106.314 331.91 107.644C331.289 108.923 330.514 110.09 329.586 111.143C328.701 112.19 327.583 113.046 326.23 113.71C325.276 114.313 324.311 114.69 323.334 114.841C322.401 114.985 321.466 114.971 320.529 114.797C319.636 114.617 318.746 114.3 317.857 113.846C317.012 113.386 316.175 112.833 315.348 112.187C314.616 111.573 313.962 110.878 313.387 110.102C312.812 109.327 312.386 108.483 312.108 107.571C311.731 106.31 311.594 104.988 311.699 103.607C311.759 102.233 312.004 100.876 312.434 99.5355C312.819 98.202 313.351 96.9367 314.03 95.7396C314.746 94.4913 315.554 93.3881 316.452 92.4301C318.211 90.5655 319.939 89.6837 321.638 89.7846C323.337 89.8856 325.121 90.6786 326.989 92.1639C327.94 93.0175 328.474 94.1177 328.592 95.4644C328.603 96.4181 328.344 97.3909 327.815 98.3827C327.324 99.3232 326.815 100.153 326.289 100.871C325.108 102.646 323.882 104.133 322.612 105.33C321.341 106.528 319.977 107.558 318.518 108.421L316.87 106.151ZM323.647 93.5001C322.622 93.9318 321.735 94.524 320.987 95.2767C320.284 96.0226 319.668 96.8914 319.139 97.8832C318.647 98.8237 318.236 99.8428 317.906 100.94C317.62 102.031 317.359 103.141 317.125 104.269C317.753 103.626 318.434 102.883 319.168 102.042C319.902 101.2 320.585 100.321 321.217 99.4041C321.886 98.4361 322.44 97.4631 322.881 96.485C323.314 95.4626 323.569 94.4676 323.647 93.5001ZM329.827 78.5533C330.849 78.3951 331.763 78.2763 332.57 78.1969C333.414 78.0662 334.217 77.9646 334.979 77.8921C335.613 76.1106 336.152 74.594 336.595 73.3425C337.076 72.0397 337.405 71.0788 337.582 70.4599L342.005 73.4605C341.838 73.8503 341.621 74.3616 341.355 74.9942C341.127 75.5755 340.893 76.2714 340.655 77.0818C340.743 77.068 340.855 77.0508 340.988 77.0302C341.114 76.9651 341.244 76.9223 341.377 76.9016L342.586 80.741C341.882 80.8954 341.267 81.0362 340.74 81.1631C340.252 81.2388 339.763 81.3145 339.274 81.3901C338.712 83.3425 338.159 85.4983 337.614 87.8574C337.107 90.1653 336.695 92.5038 336.38 94.873C336.064 97.2422 335.9 99.5651 335.889 101.842C335.915 104.067 336.202 106.07 336.751 107.85C337.154 107.515 337.594 106.833 338.072 105.803C338.594 104.767 339.117 103.594 339.643 102.284C340.212 100.968 340.749 99.5879 341.254 98.1449C341.803 96.695 342.325 95.3631 342.819 94.1491L347.175 97.16C346.953 97.7857 346.677 98.6474 346.347 99.745C346.009 100.798 345.616 101.928 345.166 103.135C344.709 104.298 344.159 105.452 343.518 106.598C342.921 107.737 342.229 108.708 341.444 109.512C340.652 110.272 339.777 110.794 338.82 111.079C337.863 111.363 336.793 111.21 335.61 110.62C333.647 109.696 332.3 108.198 331.57 106.127C330.833 104.012 330.488 101.631 330.533 98.9856C330.572 96.2953 330.888 93.4937 331.484 90.5808C332.124 87.6609 332.851 84.8641 333.666 82.1902L332.599 82.3552L329.827 78.5533Z" fill="#5A946F"/>
</svg>
