<svg width="346" height="108" viewBox="0 0 346 108" fill="none" xmlns="http://www.w3.org/2000/svg">
<path d="M10.8285 25.3088L7.5366 23.3164C5.47198 22.0603 3.99931 20.8258 3.11859 19.613C2.25232 18.3858 1.81918 16.9781 1.81918 15.3899C1.81918 13.0077 2.64214 11.073 4.28807 9.58589C5.94843 8.09878 8.09968 7.35523 10.7418 7.35523C13.2685 7.35523 15.5858 8.06269 17.6937 9.47761V14.3937C15.5136 12.3002 13.1674 11.2535 10.6552 11.2535C9.24028 11.2535 8.07803 11.5855 7.16844 12.2497C6.25885 12.8994 5.80405 13.7368 5.80405 14.7619C5.80405 15.6715 6.13612 16.5233 6.80027 17.3174C7.46441 18.1115 8.54004 18.9417 10.0271 19.808L13.3407 21.7571C17.0368 23.9516 18.8848 26.7526 18.8848 30.16C18.8848 32.5855 18.0691 34.5563 16.4376 36.0723C14.8205 37.5883 12.7126 38.3463 10.1138 38.3463C7.12512 38.3463 4.40357 37.4295 1.94912 35.5958V30.095C4.28807 33.0548 6.99518 34.5347 10.0705 34.5347C11.4276 34.5347 12.5538 34.1593 13.4489 33.4085C14.3585 32.6433 14.8133 31.6904 14.8133 30.5498C14.8133 28.7017 13.485 26.9547 10.8285 25.3088ZM33.3083 7.5718H36.3619L49.8975 37.9998H45.4579L41.4297 29.0338H28.5655L24.7538 37.9998H20.3142L33.3083 7.5718ZM39.6538 25.1789L34.781 14.2205L30.2547 25.1789H39.6538ZM77.2718 7.74506H81.3867V37.9998H77.6617L57.4341 14.7186V37.9998H53.3626V7.74506H56.871L77.2718 31.2211V7.74506ZM100.271 7.74506H116.406V11.6H104.603V20.0462H116.406V23.9011H104.603V37.9998H100.271V7.74506ZM121.192 37.9998V7.74506H128.772C131.833 7.74506 134.258 8.50305 136.049 10.019C137.853 11.535 138.756 13.5852 138.756 16.1696C138.756 17.931 138.315 19.4542 137.435 20.7392C136.554 22.0242 135.291 22.9843 133.645 23.6196C134.612 24.2548 135.558 25.1211 136.482 26.2184C137.406 27.3157 138.705 29.2287 140.38 31.9575C141.434 33.6756 142.279 34.9678 142.914 35.8341L144.517 37.9998H139.362L138.041 36.0073C137.998 35.9351 137.911 35.8124 137.781 35.6392L136.937 34.448L135.594 32.239L134.143 29.8784C133.248 28.6368 132.425 27.6478 131.674 26.9114C130.938 26.1751 130.266 25.6481 129.66 25.3305C129.068 24.9984 128.065 24.8324 126.65 24.8324H125.523V37.9998H121.192ZM126.823 11.4267H125.523V20.9774H127.169C129.364 20.9774 130.865 20.7897 131.674 20.4143C132.497 20.039 133.132 19.4759 133.58 18.7251C134.042 17.9599 134.273 17.0936 134.273 16.1263C134.273 15.1734 134.02 14.3143 133.515 13.5491C133.01 12.7695 132.295 12.2208 131.371 11.9032C130.461 11.5855 128.945 11.4267 126.823 11.4267ZM157.532 7.5718H160.586L174.122 37.9998H169.682L165.654 29.0338H152.789L148.978 37.9998H144.538L157.532 7.5718ZM163.878 25.1789L159.005 14.2205L154.479 25.1789H163.878ZM201.496 7.74506H205.611V37.9998H201.886L181.658 14.7186V37.9998H177.587V7.74506H181.095L201.496 31.2211V7.74506ZM238.183 30.9829V35.7474C235.006 37.48 231.339 38.3463 227.181 38.3463C223.802 38.3463 220.937 37.6677 218.583 36.3105C216.23 34.9534 214.367 33.0836 212.996 30.7014C211.624 28.3191 210.938 25.7419 210.938 22.9699C210.938 18.5663 212.505 14.863 215.638 11.8599C218.785 8.85678 222.662 7.35523 227.268 7.35523C230.444 7.35523 233.974 8.18541 237.858 9.84578V14.502C234.321 12.4807 230.863 11.47 227.484 11.47C224.019 11.47 221.139 12.5673 218.843 14.7619C216.562 16.942 215.421 19.678 215.421 22.9699C215.421 26.2906 216.547 29.0194 218.8 31.1562C221.052 33.293 223.932 34.3614 227.441 34.3614C231.108 34.3614 234.689 33.2352 238.183 30.9829ZM243.554 7.74506H247.885V37.9998H243.554V7.74506ZM262.092 25.3088L258.8 23.3164C256.735 22.0603 255.263 20.8258 254.382 19.613C253.516 18.3858 253.083 16.9781 253.083 15.3899C253.083 13.0077 253.906 11.073 255.552 9.58589C257.212 8.09878 259.363 7.35523 262.005 7.35523C264.532 7.35523 266.849 8.06269 268.957 9.47761V14.3937C266.777 12.3002 264.431 11.2535 261.919 11.2535C260.504 11.2535 259.341 11.5855 258.432 12.2497C257.522 12.8994 257.068 13.7368 257.068 14.7619C257.068 15.6715 257.4 16.5233 258.064 17.3174C258.728 18.1115 259.803 18.9417 261.291 19.808L264.604 21.7571C268.3 23.9516 270.148 26.7526 270.148 30.16C270.148 32.5855 269.333 34.5563 267.701 36.0723C266.084 37.5883 263.976 38.3463 261.377 38.3463C258.389 38.3463 255.667 37.4295 253.213 35.5958V30.095C255.552 33.0548 258.259 34.5347 261.334 34.5347C262.691 34.5347 263.817 34.1593 264.712 33.4085C265.622 32.6433 266.077 31.6904 266.077 30.5498C266.077 28.7017 264.748 26.9547 262.092 25.3088ZM300.988 30.9829V35.7474C297.811 37.48 294.144 38.3463 289.986 38.3463C286.608 38.3463 283.742 37.6677 281.388 36.3105C279.035 34.9534 277.172 33.0836 275.801 30.7014C274.429 28.3191 273.743 25.7419 273.743 22.9699C273.743 18.5663 275.31 14.863 278.443 11.8599C281.59 8.85678 285.467 7.35523 290.073 7.35523C293.249 7.35523 296.779 8.18541 300.663 9.84578V14.502C297.126 12.4807 293.668 11.47 290.289 11.47C286.824 11.47 283.944 12.5673 281.648 14.7619C279.367 16.942 278.226 19.678 278.226 22.9699C278.226 26.2906 279.352 29.0194 281.605 31.1562C283.857 33.293 286.737 34.3614 290.246 34.3614C293.913 34.3614 297.494 33.2352 300.988 30.9829ZM321.172 7.31192C325.85 7.31192 329.741 8.79181 332.845 11.7516C335.964 14.7114 337.523 18.4219 337.523 22.8832C337.523 27.3446 335.949 31.0407 332.802 33.9716C329.669 36.888 325.713 38.3463 320.934 38.3463C316.371 38.3463 312.567 36.888 309.521 33.9716C306.489 31.0407 304.973 27.3734 304.973 22.9699C304.973 18.4508 306.503 14.7114 309.564 11.7516C312.625 8.79181 316.494 7.31192 321.172 7.31192ZM321.345 11.4267C317.88 11.4267 315.029 12.5096 312.791 14.6753C310.567 16.841 309.456 19.6058 309.456 22.9699C309.456 26.2328 310.575 28.9472 312.812 31.1129C315.05 33.2785 317.851 34.3614 321.215 34.3614C324.594 34.3614 327.409 33.2569 329.661 31.0479C331.928 28.8389 333.062 26.0885 333.062 22.7966C333.062 19.5914 331.928 16.8987 329.661 14.7186C327.409 12.524 324.637 11.4267 321.345 11.4267Z" fill="white"/>
<path d="M244.487 71.2428C245.487 69.7685 246.579 68.0071 247.763 65.9584C248.992 63.9028 250.096 61.7756 251.075 59.5767C252.047 57.3334 252.838 55.0953 253.448 52.8626C254.057 50.6299 254.262 48.5735 254.062 46.6937C254.018 46.7005 253.97 46.6852 253.919 46.6476C253.091 46.5937 252.266 46.6988 251.442 46.9627C250.612 47.1823 249.821 47.5095 249.069 47.9443C248.318 48.3792 247.573 48.8584 246.835 49.3821C246.097 49.9058 245.404 50.4226 244.755 50.9326C243.45 51.908 242.039 53.0818 240.523 54.454C239.006 55.8262 237.504 57.2872 236.015 58.8371C234.519 60.3426 233.097 61.8821 231.748 63.4558C230.444 65.0227 229.329 66.4919 228.404 67.8635L228.47 67.8532C228.221 68.3012 227.923 68.8706 227.575 69.5615C227.264 70.201 226.983 70.8815 226.731 71.603C226.478 72.3245 226.315 73.0322 226.24 73.7262C226.166 74.4202 226.259 75.02 226.519 75.5257C227.285 76.3625 228.501 77.0159 230.166 77.4861C231.876 77.9494 233.76 78.3629 235.818 78.7268C237.914 79.0393 240.061 79.3894 242.259 79.777C244.451 80.1202 246.459 80.6054 248.285 81.2326C250.156 81.853 251.676 82.7096 252.846 83.8024C254.054 84.8438 254.677 86.2259 254.716 87.9487C254.744 88.7178 254.581 89.4256 254.226 90.072C253.916 90.7115 253.484 91.3015 252.931 91.8422C252.415 92.3315 251.848 92.7832 251.229 93.1974C250.611 93.6116 250.012 94.0001 249.431 94.363C248.686 94.8423 247.856 95.3575 246.94 95.9087C246.076 96.4975 245.154 97.0043 244.173 97.4291C243.244 97.8914 242.297 98.2427 241.333 98.4829C240.37 98.7231 239.394 98.7377 238.406 98.5267C237.123 98.1792 235.832 97.6283 234.533 96.8741C233.24 96.1643 232.222 95.321 231.48 94.344C230.73 93.3226 230.406 92.2581 230.507 91.1505C230.646 89.9916 231.514 88.8337 233.109 87.6768L237.604 91.1438C236.969 91.7426 236.422 92.3277 235.965 92.899C235.507 93.4703 235.316 94.0003 235.392 94.489C236.383 94.4266 237.402 94.2462 238.447 93.9478C239.531 93.5981 240.559 93.1886 241.533 92.7194C242.551 92.2433 243.515 91.7074 244.423 91.1118C245.376 90.5093 246.26 89.8949 247.073 89.2685C247.199 89.2035 247.438 88.9845 247.79 88.6115C248.186 88.2317 248.579 87.8297 248.968 87.4055C249.35 86.9368 249.647 86.5041 249.859 86.1074C250.064 85.6662 250.038 85.3518 249.781 85.164C248.478 84.6833 247.005 84.2744 245.36 83.9376C243.753 83.5494 242.194 83.1766 240.683 82.8191C239.031 82.4378 237.306 82.0223 235.508 81.5728C233.754 81.1164 231.983 80.5489 230.194 79.8704C229.37 79.543 228.469 79.1593 227.491 78.7192C226.551 78.2279 225.644 77.663 224.772 77.0246C223.9 76.3862 223.15 75.6605 222.524 74.8475C221.853 74.0414 221.435 73.1052 221.27 72.0388C221.071 70.7503 221.249 69.4033 221.805 67.9979C222.354 66.548 223.004 65.3099 223.755 64.2837C226.879 60.0694 230.358 56.0958 234.194 52.3628C238.073 48.6229 242.367 45.5014 247.075 42.9982C248.9 42.4427 250.649 42.4223 252.321 42.9369C253.993 43.4514 255.472 44.3371 256.758 45.5938C257.364 46.2735 257.852 46.926 258.221 47.5512C258.636 48.1695 258.917 48.8085 259.064 49.468C259.212 50.1276 259.255 50.8489 259.194 51.6317C259.134 52.4146 258.975 53.3035 258.72 54.2985C257.828 57.9398 256.582 61.4994 254.982 64.9774C253.375 68.4109 251.452 71.7114 249.213 74.8788L244.487 71.2428ZM259.463 56.9814C260.485 56.8232 261.4 56.7044 262.206 56.6251C263.05 56.4944 263.854 56.3928 264.616 56.3203C265.25 54.5387 265.789 53.0222 266.232 51.7707C266.713 50.4679 267.042 49.507 267.219 48.8881L271.641 51.8887C271.474 52.2785 271.258 52.7897 270.992 53.4224C270.763 54.0037 270.53 54.6996 270.291 55.5099C270.38 55.4962 270.491 55.479 270.624 55.4583C270.751 55.3933 270.881 55.3504 271.014 55.3298L272.223 59.1691C271.518 59.3236 270.903 59.4643 270.377 59.5913C269.888 59.667 269.4 59.7426 268.911 59.8183C268.349 61.7707 267.795 63.9265 267.25 66.2856C266.743 68.5935 266.332 70.932 266.016 73.3012C265.7 75.6704 265.537 77.9933 265.525 80.2699C265.551 82.4952 265.839 84.498 266.387 86.2785C266.79 85.9431 267.231 85.2607 267.708 84.2314C268.23 83.1951 268.754 82.0221 269.279 80.7124C269.849 79.3958 270.386 78.016 270.89 76.573C271.439 75.1232 271.961 73.7912 272.456 72.5773L276.812 75.5881C276.59 76.2139 276.314 77.0756 275.983 78.1732C275.646 79.2263 275.252 80.3564 274.802 81.5635C274.345 82.7262 273.796 83.8804 273.154 85.0261C272.557 86.165 271.866 87.1364 271.08 87.9405C270.288 88.7001 269.414 89.2222 268.457 89.5068C267.5 89.7914 266.43 89.6386 265.246 89.0484C263.283 88.1238 261.937 86.6262 261.207 84.5554C260.47 82.4401 260.124 80.0596 260.17 77.4138C260.208 74.7235 260.525 71.9219 261.121 69.0089C261.76 66.0891 262.488 63.2922 263.302 60.6183L262.236 60.7834L259.463 56.9814ZM270.731 77.0071C271.335 75.3213 272.048 73.4594 272.87 71.4213C273.64 69.3456 274.423 67.1999 275.217 64.9841C274.576 63.4909 274.455 62.122 274.854 60.8773C275.291 59.5814 275.949 58.5467 276.83 57.7733C277.705 56.9555 278.668 56.4197 279.721 56.1657C280.818 55.9049 281.697 55.9964 282.357 56.4401C283.01 56.8395 283.322 57.6784 283.292 58.9568C283.256 60.1909 282.589 61.9092 281.292 64.1118C281.918 64.3334 282.385 64.5569 282.693 64.7822C283.001 65.0075 283.274 65.3064 283.514 65.6787C283.791 65.9998 284.085 66.4319 284.397 66.9752C284.746 67.4671 285.234 68.1195 285.86 68.9325C286.538 69.783 286.858 70.8253 286.822 72.0593C286.823 73.2421 286.65 74.4746 286.302 75.7567C285.999 77.0321 285.649 78.292 285.25 79.5367C284.844 80.7369 284.573 81.7797 284.437 82.6652C285.421 81.967 286.256 81.0415 286.942 79.8889C287.673 78.7294 288.307 77.5392 288.846 76.3184C289.378 75.0531 289.847 73.8204 290.253 72.6201C290.703 71.4131 291.117 70.4162 291.496 69.6297L295.929 72.6969C295.748 72.9978 295.535 73.5313 295.29 74.2972C295.037 75.0187 294.717 75.8873 294.328 76.9029C293.977 77.8672 293.566 78.8862 293.095 79.96C292.669 81.0269 292.184 82.0119 291.642 82.9148C291.144 83.8109 290.584 84.6027 289.962 85.2904C289.334 85.9337 288.663 86.447 287.949 86.8306C287.279 87.2072 286.56 87.4096 285.79 87.4376C285.059 87.4144 284.356 87.1364 283.682 86.6038C283.22 86.2658 282.759 85.9279 282.297 85.5899C281.88 85.245 281.462 84.9002 281.045 84.5553C280.518 84.0909 280.189 83.4366 280.058 82.5924C279.965 81.6969 279.973 80.7175 280.081 79.6543C280.234 78.5843 280.45 77.4817 280.729 76.3465C281.002 75.1669 281.262 74.0575 281.511 73.0181C281.804 71.9718 282.025 71.0503 282.175 70.2537C282.324 69.4571 282.327 68.888 282.183 68.5463C281.8 68.4236 281.395 68.3043 280.968 68.1885C280.534 68.0282 280.106 67.9124 279.686 67.841C279.495 68.371 279.3 68.8788 279.103 69.3644C278.949 69.8431 278.792 70.2996 278.632 70.7339C278.097 72.2726 277.533 73.7704 276.939 75.2272C276.383 76.6326 275.778 78.1595 275.123 79.8077L270.731 77.0071ZM295.711 76.9618C295.555 78.3053 295.483 79.4539 295.494 80.4076C295.549 81.3544 295.639 81.9321 295.762 82.1405C296.35 82.4134 296.981 82.5205 297.654 82.4617C298.321 82.3585 298.974 82.1665 299.613 81.8856C300.252 81.6047 300.858 81.2606 301.432 80.8533C302.006 80.4459 302.51 80.0267 302.943 79.5956C303.818 78.7778 304.564 77.8661 305.181 76.8606C305.792 75.8106 306.333 74.7487 306.804 73.6749C307.312 72.5498 307.773 71.4093 308.185 70.2536C308.598 69.0978 309.058 67.9573 309.566 66.8322L313.866 69.9201C313.368 71.4075 312.889 72.8693 312.429 74.3054C311.969 75.7415 311.41 77.1248 310.751 78.4551C310.13 79.7341 309.356 80.9005 308.427 81.9542C307.542 83.0011 306.424 83.8567 305.071 84.5211C304.118 85.1236 303.152 85.5006 302.175 85.6519C301.242 85.7963 300.307 85.7818 299.37 85.6084C298.478 85.428 297.587 85.111 296.698 84.6572C295.853 84.1965 295.017 83.6435 294.189 82.9982C293.457 82.3836 292.803 81.6886 292.228 80.9132C291.653 80.1378 291.227 79.2938 290.949 78.3814C290.572 77.1204 290.436 75.7994 290.54 74.4183C290.6 73.044 290.845 71.6867 291.275 70.3464C291.66 69.0128 292.192 67.7476 292.871 66.5505C293.588 65.3022 294.395 64.199 295.293 63.241C297.052 61.3764 298.781 60.4945 300.48 60.5955C302.179 60.6964 303.962 61.4895 305.83 62.9747C306.781 63.8284 307.315 64.9286 307.433 66.2753C307.444 67.229 307.185 68.2018 306.656 69.1936C306.165 70.1341 305.656 70.9635 305.13 71.6819C303.949 73.4571 302.724 74.9435 301.453 76.1411C300.183 77.3387 298.818 78.3689 297.359 79.2317L295.711 76.9618ZM302.488 64.311C301.463 64.7427 300.576 65.3349 299.828 66.0876C299.125 66.8335 298.509 67.7023 297.98 68.6941C297.489 69.6346 297.078 70.6537 296.747 71.7513C296.461 72.842 296.201 73.9515 295.966 75.0797C296.594 74.4365 297.275 73.6941 298.009 72.8525C298.744 72.0109 299.426 71.1317 300.058 70.215C300.727 69.247 301.282 68.274 301.722 67.2959C302.155 66.2735 302.41 65.2785 302.488 64.311ZM313.87 74.1506C313.714 75.4942 313.642 76.6428 313.653 77.5965C313.708 78.5433 313.798 79.1209 313.921 79.3293C314.509 79.6022 315.14 79.7093 315.813 79.6506C316.48 79.5474 317.132 79.3554 317.771 79.0745C318.41 78.7936 319.017 78.4494 319.591 78.0421C320.165 77.6348 320.668 77.2156 321.102 76.7845C321.976 75.9667 322.723 75.055 323.34 74.0494C323.951 72.9994 324.492 71.9375 324.963 70.8637C325.471 69.7386 325.931 68.5982 326.344 67.4424C326.756 66.2866 327.217 65.1462 327.725 64.0211L332.025 67.1089C331.527 68.5964 331.048 70.0581 330.588 71.4943C330.128 72.9304 329.569 74.3136 328.91 75.644C328.289 76.923 327.514 78.0894 326.586 79.1431C325.701 80.1899 324.583 81.0456 323.23 81.71C322.276 82.3125 321.311 82.6894 320.334 82.8407C319.401 82.9852 318.466 82.9707 317.529 82.7972C316.636 82.6169 315.746 82.2998 314.857 81.846C314.012 81.3854 313.175 80.8324 312.348 80.1871C311.616 79.5725 310.962 78.8775 310.387 78.1021C309.812 77.3266 309.386 76.4827 309.108 75.5703C308.731 74.3093 308.594 72.9882 308.699 71.6071C308.759 70.2329 309.004 68.8756 309.434 67.5352C309.819 66.2017 310.351 64.9364 311.03 63.7394C311.746 62.491 312.554 61.3879 313.452 60.4299C315.211 58.5652 316.939 57.6834 318.638 57.7844C320.337 57.8853 322.121 58.6784 323.989 60.1636C324.94 61.0173 325.474 62.1175 325.592 63.4642C325.603 64.4179 325.344 65.3907 324.815 66.3825C324.324 67.323 323.815 68.1524 323.289 68.8707C322.108 70.6459 320.882 72.1324 319.612 73.33C318.341 74.5276 316.977 75.5578 315.518 76.4205L313.87 74.1506ZM320.647 61.4999C319.622 61.9316 318.735 62.5238 317.987 63.2765C317.284 64.0224 316.668 64.8912 316.139 65.883C315.647 66.8235 315.236 67.8425 314.906 68.9401C314.62 70.0308 314.359 71.1403 314.125 72.2686C314.753 71.6254 315.434 70.8829 316.168 70.0414C316.902 69.1998 317.585 68.3206 318.217 67.4039C318.886 66.4359 319.44 65.4629 319.881 64.4848C320.314 63.4623 320.569 62.4674 320.647 61.4999ZM326.827 46.553C327.849 46.3948 328.763 46.276 329.57 46.1966C330.414 46.066 331.217 45.9644 331.979 45.8919C332.613 44.1103 333.152 42.5938 333.595 41.3423C334.076 40.0394 334.405 39.0786 334.582 38.4597L339.005 41.4602C338.838 41.8501 338.621 42.3613 338.355 42.994C338.127 43.5753 337.893 44.2711 337.655 45.0815C337.743 45.0678 337.855 45.0506 337.988 45.0299C338.114 44.9649 338.244 44.922 338.377 44.9014L339.586 48.7407C338.882 48.8952 338.267 49.0359 337.74 49.1629C337.252 49.2386 336.763 49.3142 336.274 49.3899C335.712 51.3423 335.159 53.498 334.614 55.8572C334.107 58.165 333.695 60.5036 333.38 62.8727C333.064 65.2419 332.9 67.5648 332.889 69.8415C332.915 72.0668 333.202 74.0696 333.751 75.85C334.154 75.5147 334.594 74.8323 335.072 73.8029C335.594 72.7667 336.117 71.5937 336.643 70.284C337.212 68.9674 337.749 67.5876 338.254 66.1446C338.803 64.6947 339.325 63.3628 339.819 62.1489L344.175 65.1597C343.953 65.7855 343.677 66.6471 343.347 67.7447C343.009 68.7979 342.616 69.928 342.166 71.1351C341.709 72.2978 341.159 73.452 340.518 74.5977C339.921 75.7366 339.229 76.708 338.444 77.5121C337.652 78.2717 336.777 78.7938 335.82 79.0784C334.863 79.363 333.793 79.2102 332.61 78.62C330.647 77.6954 329.3 76.1978 328.57 74.127C327.833 72.0117 327.488 69.6312 327.533 66.9854C327.572 64.2951 327.888 61.4935 328.484 58.5805C329.124 55.6607 329.851 52.8638 330.666 50.1899L329.599 50.355L326.827 46.553Z" fill="#5A946F"/>
</svg>
