<svg width="363" height="197" viewBox="0 0 363 197" fill="none" xmlns="http://www.w3.org/2000/svg">
<path d="M65.5033 62.3671L72.911 13.2503H88.5318L74.6288 91.4077H58.7933L49.6678 45.3507L40.6496 91.4077H24.7605L10.8038 13.2503H26.5319L33.886 62.3134L43.0652 13.2503H56.3241L65.5033 62.3671ZM152.088 59.361C152.088 69.8464 149.601 77.9878 144.627 83.7852C139.688 89.5826 132.817 92.4813 124.014 92.4813C115.246 92.4813 108.357 89.6184 103.347 83.8926C98.3373 78.131 95.7964 70.079 95.7249 59.7368V46.3706C95.7249 35.6347 98.212 27.2606 103.186 21.2485C108.161 15.2006 115.067 12.1767 123.907 12.1767C132.603 12.1767 139.456 15.147 144.466 21.0875C149.476 26.9922 152.017 35.2947 152.088 45.9948V59.361ZM136.253 46.2632C136.253 39.2133 135.251 33.9706 133.247 30.5351C131.243 27.0996 128.129 25.3819 123.907 25.3819C119.72 25.3819 116.624 27.0459 114.62 30.3741C112.616 33.6664 111.578 38.6944 111.507 45.458V59.361C111.507 66.1962 112.527 71.2421 114.566 74.4987C116.606 77.7194 119.755 79.3298 124.014 79.3298C128.129 79.3298 131.189 77.7552 133.193 74.606C135.197 71.421 136.217 66.5004 136.253 59.8441V46.2632ZM187.087 62.8502H179.25V91.4077H163.468V13.2503H188.644C196.553 13.2503 202.655 15.308 206.949 19.4234C211.279 23.5031 213.444 29.3184 213.444 36.8693C213.444 47.2473 209.669 54.512 202.118 58.6632L215.806 90.6562V91.4077H198.843L187.087 62.8502ZM179.25 49.6987H188.215C191.364 49.6987 193.726 48.6609 195.3 46.5853C196.875 44.4739 197.662 41.6647 197.662 38.1576C197.662 30.3204 194.603 26.4018 188.483 26.4018H179.25V49.6987ZM240.069 78.3099H267.768V91.4077H224.287V13.2503H240.069V78.3099ZM276.893 91.4077V13.2503H297.56C306.686 13.2503 313.95 16.149 319.354 21.9464C324.793 27.7438 327.567 35.6883 327.674 45.7801V58.4485C327.674 68.7192 324.954 76.789 319.515 82.6579C314.111 88.4911 306.65 91.4077 297.131 91.4077H276.893ZM292.675 26.4018V78.3099H297.399C302.66 78.3099 306.363 76.9321 308.511 74.1766C310.658 71.3852 311.785 66.5899 311.892 59.7905V46.2095C311.892 38.9091 310.873 33.8274 308.833 30.9645C306.793 28.0658 303.322 26.5449 298.419 26.4018H292.675ZM47.7353 168.902C47.7353 165.717 46.9122 163.319 45.2661 161.709C43.6557 160.063 40.7033 158.363 36.4089 156.61C28.5717 153.639 22.9354 150.168 19.4999 146.196C16.0644 142.188 14.3466 137.464 14.3466 132.024C14.3466 125.44 16.6728 120.161 21.325 116.189C26.013 112.181 31.9535 110.177 39.1466 110.177C43.942 110.177 48.2184 111.197 51.976 113.236C55.7336 115.24 58.6144 118.085 60.6184 121.771C62.6582 125.457 63.6782 129.644 63.6782 134.332H47.95C47.95 130.682 47.1627 127.909 45.5881 126.012C44.0493 124.08 41.8127 123.113 38.8782 123.113C36.1227 123.113 33.9755 123.937 32.4367 125.583C30.8978 127.193 30.1284 129.376 30.1284 132.132C30.1284 134.279 30.9873 136.229 32.7051 137.983C34.4228 139.7 37.4646 141.49 41.8306 143.351C49.4531 146.106 54.9821 149.488 58.4176 153.496C61.8888 157.504 63.6245 162.604 63.6245 168.795C63.6245 175.594 61.4594 180.908 57.1293 184.738C52.7991 188.567 46.9122 190.481 39.4687 190.481C34.4228 190.481 29.8243 189.444 25.673 187.368C21.5218 185.292 18.2653 182.322 15.9034 178.457C13.5772 174.592 12.4142 170.029 12.4142 164.769H28.2497C28.2497 169.278 29.1264 172.552 30.8799 174.592C32.6335 176.632 35.4964 177.652 39.4687 177.652C44.9798 177.652 47.7353 174.735 47.7353 168.902ZM124.712 124.402H105.387V189.408H89.5517V124.402H70.5491V111.25H124.712V124.402ZM157.456 160.85H149.619V189.408H133.837V111.25H159.013C166.922 111.25 173.023 113.308 177.318 117.423C181.648 121.503 183.813 127.318 183.813 134.869C183.813 145.247 180.038 152.512 172.487 156.663L186.175 188.656V189.408H169.212L157.456 160.85ZM149.619 147.699H158.584C161.733 147.699 164.095 146.661 165.669 144.585C167.244 142.474 168.031 139.665 168.031 136.158C168.031 128.32 164.971 124.402 158.852 124.402H149.619V147.699ZM235.023 155.59H210.438V176.31H239.532V189.408H194.656V111.25H239.425V124.402H210.438V142.868H235.023V155.59ZM289.025 155.59H264.44V176.31H293.534V189.408H248.658V111.25H293.427V124.402H264.44V142.868H289.025V155.59ZM354.353 124.402H335.028V189.408H319.193V124.402H300.19V111.25H354.353V124.402Z" fill="#BE090C"/>
<path d="M57.0614 53.9594L64.4691 4.84257H80.0899L66.1869 83H50.3514L41.2259 36.9429L32.2077 83H16.3186L2.3619 4.84257H18.09L25.4441 53.9057L34.6233 4.84257H47.8822L57.0614 53.9594ZM143.646 50.9533C143.646 61.4387 141.159 69.5801 136.185 75.3775C131.247 81.1749 124.376 84.0736 115.572 84.0736C106.804 84.0736 99.9155 81.2107 94.9055 75.4849C89.8954 69.7233 87.3545 61.6713 87.283 51.3291V37.9629C87.283 27.2269 89.7701 18.8529 94.7444 12.8408C99.7187 6.79292 106.625 3.76898 115.465 3.76898C124.161 3.76898 131.014 6.73924 136.024 12.6798C141.034 18.5845 143.575 26.887 143.646 37.5871V50.9533ZM127.811 37.8555C127.811 30.8056 126.809 25.5629 124.805 22.1274C122.801 18.6919 119.688 16.9741 115.465 16.9741C111.278 16.9741 108.182 18.6382 106.178 21.9663C104.174 25.2587 103.136 30.2867 103.065 37.0503V50.9533C103.065 57.7885 104.085 62.8344 106.124 66.0909C108.164 69.3117 111.314 70.9221 115.572 70.9221C119.688 70.9221 122.747 69.3475 124.751 66.1983C126.755 63.0133 127.775 58.0927 127.811 51.4364V37.8555ZM178.646 54.4425H170.808V83H155.027V4.84257H180.202C188.111 4.84257 194.213 6.90028 198.507 11.0157C202.837 15.0954 205.002 20.9106 205.002 28.4616C205.002 38.8396 201.227 46.1043 193.676 50.2555L207.364 82.2485V83H190.401L178.646 54.4425ZM170.808 41.291H179.773C182.922 41.291 185.284 40.2532 186.859 38.1776C188.433 36.0662 189.22 33.2569 189.22 29.7499C189.22 21.9127 186.161 17.9941 180.041 17.9941H170.808V41.291ZM231.627 69.9022H259.326V83H215.845V4.84257H231.627V69.9022ZM268.451 83V4.84257H289.118C298.244 4.84257 305.508 7.74126 310.912 13.5387C316.352 19.336 319.125 27.2806 319.232 37.3724V50.0408C319.232 60.3114 316.513 68.3813 311.073 74.2502C305.669 80.0834 298.208 83 288.689 83H268.451ZM284.233 17.9941V69.9022H288.957C294.218 69.9022 297.922 68.5244 300.069 65.7689C302.216 62.9775 303.343 58.1822 303.451 51.3827V37.8018C303.451 30.5014 302.431 25.4197 300.391 22.5568C298.351 19.6581 294.88 18.1372 289.977 17.9941H284.233ZM39.2934 160.494C39.2934 157.309 38.4703 154.912 36.8242 153.301C35.2138 151.655 32.2614 149.955 27.967 148.202C20.1298 145.232 14.4935 141.76 11.058 137.788C7.6225 133.78 5.90475 129.056 5.90475 123.617C5.90475 117.032 8.23087 111.753 12.8831 107.781C17.5711 103.773 23.5116 101.769 30.7047 101.769C35.5001 101.769 39.7766 102.789 43.5341 104.829C47.2917 106.833 50.1725 109.678 52.1765 113.364C54.2164 117.05 55.2363 121.237 55.2363 125.925H39.5082C39.5082 122.275 38.7209 119.501 37.1463 117.604C35.6074 115.672 33.3708 114.706 30.4363 114.706C27.6808 114.706 25.5336 115.529 23.9948 117.175C22.4559 118.785 21.6865 120.968 21.6865 123.724C21.6865 125.871 22.5454 127.821 24.2632 129.575C25.9809 131.293 29.0227 133.082 33.3887 134.943C41.0112 137.698 46.5402 141.08 49.9757 145.088C53.4469 149.096 55.1826 154.196 55.1826 160.387C55.1826 167.186 53.0175 172.501 48.6874 176.33C44.3572 180.159 38.4703 182.074 31.0268 182.074C25.9809 182.074 21.3824 181.036 17.2311 178.96C13.0799 176.885 9.82336 173.914 7.46146 170.049C5.13534 166.184 3.97229 161.622 3.97229 156.361H19.8078C19.8078 160.87 20.6845 164.145 22.4381 166.184C24.1916 168.224 27.0545 169.244 31.0268 169.244C36.5379 169.244 39.2934 166.328 39.2934 160.494ZM116.27 115.994H96.9453V181H81.1098V115.994H62.1072V102.843H116.27V115.994ZM149.014 152.442H141.177V181H125.395V102.843H150.571C158.48 102.843 164.582 104.9 168.876 109.016C173.206 113.095 175.371 118.911 175.371 126.462C175.371 136.84 171.596 144.104 164.045 148.255L177.733 180.248V181H160.77L149.014 152.442ZM141.177 139.291H150.142C153.291 139.291 155.653 138.253 157.227 136.178C158.802 134.066 159.589 131.257 159.589 127.75C159.589 119.913 156.53 115.994 150.41 115.994H141.177V139.291ZM226.581 147.182H201.996V167.902H231.09V181H186.214V102.843H230.983V115.994H201.996V134.46H226.581V147.182ZM280.583 147.182H255.998V167.902H285.092V181H240.216V102.843H284.985V115.994H255.998V134.46H280.583V147.182ZM345.911 115.994H326.586V181H310.751V115.994H291.748V102.843H345.911V115.994Z" fill="white"/>
</svg>
