<svg width="40" height="41" viewBox="0 0 40 41" fill="none" xmlns="http://www.w3.org/2000/svg">
<path fill-rule="evenodd" clip-rule="evenodd" d="M11.7544 1.099C13.8871 1.00082 14.5671 0.979004 19.9997 0.979004C25.4324 0.979004 26.1123 1.00264 28.2432 1.099C30.3741 1.19536 31.8286 1.53536 33.1013 2.02808C34.434 2.53171 35.6431 3.31897 36.6431 4.33714C37.6613 5.3353 38.4467 6.54256 38.9485 7.87708C39.4431 9.14979 39.7812 10.6043 39.8794 12.7316C39.9776 14.8679 39.9994 15.5479 39.9994 20.9787C39.9994 26.4114 39.9758 27.0913 39.8794 29.224C39.783 31.3513 39.4431 32.8058 38.9485 34.0785C38.4467 35.4132 37.66 36.6225 36.6431 37.6221C35.6431 38.6403 34.434 39.4257 33.1013 39.9275C31.8286 40.4221 30.3741 40.7602 28.2469 40.8584C26.1123 40.9566 25.4324 40.9784 19.9997 40.9784C14.5671 40.9784 13.8871 40.9548 11.7544 40.8584C9.62713 40.7621 8.17261 40.4221 6.8999 39.9275C5.56523 39.4256 4.35597 38.6389 3.35631 37.6221C2.33884 36.6233 1.55146 35.4146 1.04908 34.0803C0.556355 32.8076 0.218179 31.3531 0.119998 29.2259C0.0218178 27.0895 0 26.4095 0 20.9787C0 15.5461 0.023636 14.8661 0.119998 12.7352C0.21636 10.6043 0.556355 9.14979 1.04908 7.87708C1.5522 6.54271 2.34018 5.33405 3.35813 4.33532C4.35637 3.31806 5.56441 2.5307 6.89808 2.02808C8.17079 1.53536 9.62531 1.19718 11.7526 1.099H11.7544ZM28.0814 4.69895C25.9723 4.60259 25.3396 4.58259 19.9997 4.58259C14.6598 4.58259 14.0271 4.60259 11.918 4.69895C9.96712 4.78804 8.90896 5.11349 8.20352 5.38803C7.2708 5.75166 6.60354 6.18256 5.90355 6.88255C5.24 7.52809 4.72935 8.31395 4.40903 9.18252C4.13448 9.88796 3.80903 10.9461 3.71994 12.897C3.62358 15.0061 3.60358 15.6388 3.60358 20.9787C3.60358 26.3186 3.62358 26.9513 3.71994 29.0604C3.80903 31.0113 4.13448 32.0695 4.40903 32.7749C4.72902 33.6422 5.23992 34.4294 5.90355 35.0749C6.54899 35.7385 7.33626 36.2494 8.20352 36.5694C8.90896 36.8439 9.96712 37.1694 11.918 37.2585C14.0271 37.3548 14.658 37.3748 19.9997 37.3748C25.3414 37.3748 25.9723 37.3548 28.0814 37.2585C30.0323 37.1694 31.0905 36.8439 31.7959 36.5694C32.7286 36.2058 33.3959 35.7749 34.0959 35.0749C34.7595 34.4294 35.2704 33.6422 35.5904 32.7749C35.8649 32.0695 36.1904 31.0113 36.2795 29.0604C36.3758 26.9513 36.3958 26.3186 36.3958 20.9787C36.3958 15.6388 36.3758 15.0061 36.2795 12.897C36.1904 10.9461 35.8649 9.88796 35.5904 9.18252C35.2268 8.24981 34.7958 7.58254 34.0959 6.88255C33.4503 6.21906 32.6644 5.70841 31.7959 5.38803C31.0905 5.11349 30.0323 4.78804 28.0814 4.69895ZM17.4452 27.1441C18.8718 27.7379 20.4604 27.8181 21.9395 27.3708C23.4187 26.9236 24.6967 25.9767 25.5553 24.6918C26.4138 23.407 26.7997 21.8639 26.647 20.3262C26.4942 18.7884 25.8124 17.3514 24.7178 16.2606C24.0201 15.5633 23.1764 15.0294 22.2475 14.6973C21.3187 14.3651 20.3278 14.2431 19.3461 14.3399C18.3644 14.4368 17.4164 14.75 16.5703 15.2572C15.7242 15.7644 15.0011 16.4529 14.4531 17.273C13.905 18.0932 13.5456 19.0247 13.4007 20.0005C13.2559 20.9762 13.3292 21.972 13.6153 22.916C13.9015 23.86 14.3934 24.7289 15.0556 25.46C15.7179 26.1911 16.534 26.7662 17.4452 27.1441ZM12.7307 13.7097C13.6853 12.7551 14.8185 11.9979 16.0658 11.4813C17.313 10.9647 18.6497 10.6988 19.9997 10.6988C21.3497 10.6988 22.6864 10.9647 23.9336 11.4813C25.1809 11.9979 26.3141 12.7551 27.2687 13.7097C28.2233 14.6643 28.9805 15.7975 29.4971 17.0448C30.0137 18.292 30.2796 19.6287 30.2796 20.9787C30.2796 22.3287 30.0137 23.6654 29.4971 24.9127C28.9805 26.1599 28.2233 27.2931 27.2687 28.2477C25.3408 30.1755 22.7261 31.2586 19.9997 31.2586C17.2733 31.2586 14.6586 30.1755 12.7307 28.2477C10.8029 26.3198 9.71981 23.7051 9.71981 20.9787C9.71981 18.2523 10.8029 15.6376 12.7307 13.7097ZM32.5595 12.2297C32.7961 12.0066 32.9854 11.7383 33.1164 11.4406C33.2474 11.143 33.3173 10.8221 33.3221 10.4969C33.3268 10.1718 33.2663 9.84896 33.144 9.54762C33.0218 9.24629 32.8403 8.97254 32.6104 8.7426C32.3804 8.51265 32.1067 8.33118 31.8053 8.20893C31.504 8.08668 31.1812 8.02613 30.856 8.03087C30.5309 8.03561 30.21 8.10554 29.9123 8.23653C29.6147 8.36751 29.3463 8.55688 29.1232 8.79343C28.6892 9.25348 28.4516 9.86455 28.4609 10.4969C28.4701 11.1293 28.7254 11.7332 29.1726 12.1804C29.6198 12.6276 30.2237 12.8829 30.856 12.8921C31.4884 12.9013 32.0995 12.6637 32.5595 12.2297Z" fill="#145183"/>
</svg>
