<svg width="40" height="40" viewBox="0 0 40 40" fill="none" xmlns="http://www.w3.org/2000/svg">
<path d="M33.6957 6.60929C30.0716 2.97653 25.2452 0.978516 20.1161 0.978516C9.52917 0.978516 0.914339 9.59335 0.914339 20.1802C0.914339 23.5622 1.79658 26.8663 3.47457 29.7811L0.75 39.728L10.9304 37.0553C13.7328 38.5862 16.8898 39.3906 20.1074 39.3906H20.1161C30.6943 39.3906 39.4994 30.7758 39.4994 20.1889C39.4994 15.0598 37.3198 10.2421 33.6957 6.60929ZM20.1161 36.1557C17.2445 36.1557 14.4334 35.3859 11.9856 33.9328L11.4061 33.5869L5.36879 35.1697L6.97759 29.2794L6.59701 28.674C4.99687 26.1311 4.15787 23.1989 4.15787 20.1802C4.15787 11.3838 11.3196 4.22205 20.1247 4.22205C24.3889 4.22205 28.3936 5.88274 31.4036 8.90139C34.4136 11.92 36.2645 15.9247 36.2559 20.1889C36.2559 28.994 28.9125 36.1557 20.1161 36.1557ZM28.8693 24.2022C28.3936 23.96 26.0323 22.801 25.5912 22.6453C25.15 22.481 24.83 22.4031 24.51 22.8875C24.1899 23.3719 23.2731 24.4444 22.9877 24.7731C22.7109 25.0931 22.4255 25.1364 21.9497 24.8942C19.13 23.4843 17.2791 22.3772 15.4194 19.1856C14.9264 18.3379 15.9124 18.3985 16.8293 16.5648C16.985 16.2448 16.9071 15.968 16.786 15.7258C16.6649 15.4836 15.7049 13.1223 15.307 12.1622C14.9178 11.2281 14.5199 11.3578 14.2258 11.3405C13.949 11.3232 13.629 11.3232 13.309 11.3232C12.9889 11.3232 12.47 11.4443 12.0289 11.92C11.5877 12.4044 10.3509 13.5634 10.3509 15.9247C10.3509 18.286 12.0721 20.5695 12.3056 20.8895C12.5478 21.2095 15.6876 26.0532 20.5053 28.1377C23.5499 29.4524 24.7435 29.5649 26.2658 29.34C27.1913 29.2016 29.1028 28.181 29.5007 27.0565C29.8986 25.9321 29.8986 24.972 29.7775 24.7731C29.665 24.5569 29.345 24.4358 28.8693 24.2022Z" fill="#145183"/>
</svg>
